G04 #@! TF.GenerationSoftware,KiCad,Pcbnew,(6.0.1)*
G04 #@! TF.CreationDate,2022-08-03T17:01:47-07:00*
G04 #@! TF.ProjectId,Prime Mover,5072696d-6520-44d6-9f76-65722e6b6963,rev?*
G04 #@! TF.SameCoordinates,Original*
G04 #@! TF.FileFunction,Profile,NP*
%FSLAX46Y46*%
G04 Gerber Fmt 4.6, Leading zero omitted, Abs format (unit mm)*
G04 Created by KiCad (PCBNEW (6.0.1)) date 2022-08-03 17:01:47*
%MOMM*%
%LPD*%
G01*
G04 APERTURE LIST*
G04 #@! TA.AperFunction,Profile*
%ADD10C,0.050000*%
G04 #@! TD*
G04 APERTURE END LIST*
D10*
X23970000Y5350000D02*
X46950000Y5350000D01*
X30990811Y-15620000D02*
G75*
G03*
X30990811Y-15620000I-1480811J0D01*
G01*
X52500000Y25000000D02*
G75*
G03*
X49500000Y28000000I-3000001J-1D01*
G01*
X52500000Y25000000D02*
X52500000Y1120000D01*
X-6475000Y27000000D02*
X-6475000Y7000000D01*
X25400000Y-22000000D02*
G75*
G03*
X26400000Y-21000000I-3J1000003D01*
G01*
X-6475000Y7000000D02*
G75*
G03*
X-1475000Y7000000I2500000J0D01*
G01*
X23970000Y5349997D02*
G75*
G03*
X22970000Y4350000I-3J-999997D01*
G01*
X-22500000Y-25000000D02*
G75*
G03*
X-19500000Y-28000000I3000001J1D01*
G01*
X18000000Y-13250003D02*
G75*
G03*
X17000000Y-14250000I-3J-999997D01*
G01*
X46950000Y-4229997D02*
G75*
G03*
X47950000Y-3230000I3J999997D01*
G01*
X-7475000Y28000000D02*
X-19500000Y28000000D01*
X52500000Y-25000000D02*
X52500000Y-18120000D01*
X17000000Y-21000000D02*
G75*
G03*
X18000000Y-22000000I1000003J3D01*
G01*
X45300000Y-17000000D02*
G75*
G03*
X45300000Y-17000000I-5000000J0D01*
G01*
X49250000Y120000D02*
X51500000Y120000D01*
X25400000Y-13250000D02*
X18000000Y-13250000D01*
X-19500000Y28000000D02*
G75*
G03*
X-22500000Y25000000I0J-3000000D01*
G01*
X46950000Y-4230000D02*
X23970000Y-4230000D01*
X-19500000Y-28000000D02*
X49500000Y-28000000D01*
X22970000Y4350000D02*
X22970000Y-3230000D01*
X52500000Y-18120000D02*
G75*
G03*
X51500000Y-17120000I-1000003J-3D01*
G01*
X48250000Y-16120000D02*
X48250000Y-880000D01*
X17000000Y-14250000D02*
X17000000Y-21000000D01*
X49250000Y120000D02*
G75*
G03*
X48250000Y-880000I3J-1000003D01*
G01*
X-1475000Y27000000D02*
X-1475000Y7000000D01*
X49250000Y-17120000D02*
X51500000Y-17120000D01*
X49500000Y-28000000D02*
G75*
G03*
X52500000Y-25000000I-1J3000001D01*
G01*
X18000000Y-22000000D02*
X25400000Y-22000000D01*
X26400000Y-14250000D02*
G75*
G03*
X25400000Y-13250000I-1000003J-3D01*
G01*
X26400000Y-21000000D02*
X26400000Y-14250000D01*
X48250000Y-16120000D02*
G75*
G03*
X49250000Y-17120000I1000003J3D01*
G01*
X-22500000Y25000000D02*
X-22500000Y-25000000D01*
X-475000Y28000000D02*
G75*
G03*
X-1475000Y27000000I3J-1000003D01*
G01*
X47950000Y-3230000D02*
X47950000Y4350000D01*
X-6475000Y27000000D02*
G75*
G03*
X-7475000Y28000000I-1000003J-3D01*
G01*
X51500000Y120000D02*
G75*
G03*
X52500000Y1120000I-3J1000003D01*
G01*
X-475000Y28000000D02*
X49500000Y28000000D01*
X47950000Y4350000D02*
G75*
G03*
X46950000Y5350000I-1000003J-3D01*
G01*
X22970000Y-3230000D02*
G75*
G03*
X23970000Y-4230000I1000003J3D01*
G01*
M02*
