G04 #@! TF.GenerationSoftware,KiCad,Pcbnew,(6.0.1)*
G04 #@! TF.CreationDate,2022-08-03T17:01:47-07:00*
G04 #@! TF.ProjectId,Prime Mover,5072696d-6520-44d6-9f76-65722e6b6963,rev?*
G04 #@! TF.SameCoordinates,Original*
G04 #@! TF.FileFunction,Legend,Top*
G04 #@! TF.FilePolarity,Positive*
%FSLAX46Y46*%
G04 Gerber Fmt 4.6, Leading zero omitted, Abs format (unit mm)*
G04 Created by KiCad (PCBNEW (6.0.1)) date 2022-08-03 17:01:47*
%MOMM*%
%LPD*%
G01*
G04 APERTURE LIST*
%ADD10C,0.200000*%
%ADD11C,0.120000*%
%ADD12C,0.150000*%
%ADD13C,0.300000*%
%ADD14C,0.250000*%
%ADD15C,0.254000*%
G04 APERTURE END LIST*
D10*
X49952380Y-20128095D02*
X49952380Y-19509047D01*
X50333333Y-19842380D01*
X50333333Y-19699523D01*
X50380952Y-19604285D01*
X50428571Y-19556666D01*
X50523809Y-19509047D01*
X50761904Y-19509047D01*
X50857142Y-19556666D01*
X50904761Y-19604285D01*
X50952380Y-19699523D01*
X50952380Y-19985238D01*
X50904761Y-20080476D01*
X50857142Y-20128095D01*
X49952380Y-19223333D02*
X50952380Y-18890000D01*
X49952380Y-18556666D01*
X49952380Y-18318571D02*
X49952380Y-17699523D01*
X50333333Y-18032857D01*
X50333333Y-17890000D01*
X50380952Y-17794761D01*
X50428571Y-17747142D01*
X50523809Y-17699523D01*
X50761904Y-17699523D01*
X50857142Y-17747142D01*
X50904761Y-17794761D01*
X50952380Y-17890000D01*
X50952380Y-18175714D01*
X50904761Y-18270952D01*
X50857142Y-18318571D01*
X47872380Y-19616666D02*
X47872380Y-20092857D01*
X48348571Y-20140476D01*
X48300952Y-20092857D01*
X48253333Y-19997619D01*
X48253333Y-19759523D01*
X48300952Y-19664285D01*
X48348571Y-19616666D01*
X48443809Y-19569047D01*
X48681904Y-19569047D01*
X48777142Y-19616666D01*
X48824761Y-19664285D01*
X48872380Y-19759523D01*
X48872380Y-19997619D01*
X48824761Y-20092857D01*
X48777142Y-20140476D01*
X47872380Y-19283333D02*
X48872380Y-18950000D01*
X47872380Y-18616666D01*
X47872380Y-18092857D02*
X47872380Y-17997619D01*
X47920000Y-17902380D01*
X47967619Y-17854761D01*
X48062857Y-17807142D01*
X48253333Y-17759523D01*
X48491428Y-17759523D01*
X48681904Y-17807142D01*
X48777142Y-17854761D01*
X48824761Y-17902380D01*
X48872380Y-17997619D01*
X48872380Y-18092857D01*
X48824761Y-18188095D01*
X48777142Y-18235714D01*
X48681904Y-18283333D01*
X48491428Y-18330952D01*
X48253333Y-18330952D01*
X48062857Y-18283333D01*
X47967619Y-18235714D01*
X47920000Y-18188095D01*
X47872380Y-18092857D01*
X46258571Y-19798095D02*
X46306190Y-19655238D01*
X46353809Y-19607619D01*
X46449047Y-19560000D01*
X46591904Y-19560000D01*
X46687142Y-19607619D01*
X46734761Y-19655238D01*
X46782380Y-19750476D01*
X46782380Y-20131428D01*
X45782380Y-20131428D01*
X45782380Y-19798095D01*
X45830000Y-19702857D01*
X45877619Y-19655238D01*
X45972857Y-19607619D01*
X46068095Y-19607619D01*
X46163333Y-19655238D01*
X46210952Y-19702857D01*
X46258571Y-19798095D01*
X46258571Y-20131428D01*
X46496666Y-19179047D02*
X46496666Y-18702857D01*
X46782380Y-19274285D02*
X45782380Y-18940952D01*
X46782380Y-18607619D01*
X45782380Y-18417142D02*
X45782380Y-17845714D01*
X46782380Y-18131428D02*
X45782380Y-18131428D01*
D11*
X37450000Y17760000D02*
X34150000Y16050000D01*
X34150000Y16050000D02*
X34580000Y15940000D01*
X34150000Y16050000D02*
X34290000Y16490000D01*
X36720000Y17760000D02*
X39700000Y17760000D01*
D12*
X14317619Y5337619D02*
X13841428Y5337619D01*
X13793809Y4861428D01*
X13841428Y4909047D01*
X13936666Y4956666D01*
X14174761Y4956666D01*
X14270000Y4909047D01*
X14317619Y4861428D01*
X14365238Y4766190D01*
X14365238Y4528095D01*
X14317619Y4432857D01*
X14270000Y4385238D01*
X14174761Y4337619D01*
X13936666Y4337619D01*
X13841428Y4385238D01*
X13793809Y4432857D01*
X14650952Y5337619D02*
X14984285Y4337619D01*
X15317619Y5337619D01*
X16984285Y4337619D02*
X16650952Y4813809D01*
X16412857Y4337619D02*
X16412857Y5337619D01*
X16793809Y5337619D01*
X16889047Y5290000D01*
X16936666Y5242380D01*
X16984285Y5147142D01*
X16984285Y5004285D01*
X16936666Y4909047D01*
X16889047Y4861428D01*
X16793809Y4813809D01*
X16412857Y4813809D01*
X17412857Y4337619D02*
X17412857Y5337619D01*
X17793809Y5337619D01*
X17889047Y5290000D01*
X17936666Y5242380D01*
X17984285Y5147142D01*
X17984285Y5004285D01*
X17936666Y4909047D01*
X17889047Y4861428D01*
X17793809Y4813809D01*
X17412857Y4813809D01*
X18412857Y4337619D02*
X18412857Y5337619D01*
X20174761Y5290000D02*
X20079523Y5337619D01*
X19936666Y5337619D01*
X19793809Y5290000D01*
X19698571Y5194761D01*
X19650952Y5099523D01*
X19603333Y4909047D01*
X19603333Y4766190D01*
X19650952Y4575714D01*
X19698571Y4480476D01*
X19793809Y4385238D01*
X19936666Y4337619D01*
X20031904Y4337619D01*
X20174761Y4385238D01*
X20222380Y4432857D01*
X20222380Y4766190D01*
X20031904Y4766190D01*
X20650952Y4337619D02*
X20650952Y5337619D01*
X21031904Y5337619D01*
X21127142Y5290000D01*
X21174761Y5242380D01*
X21222380Y5147142D01*
X21222380Y5004285D01*
X21174761Y4909047D01*
X21127142Y4861428D01*
X21031904Y4813809D01*
X20650952Y4813809D01*
X21650952Y4337619D02*
X21650952Y5337619D01*
X22317619Y5337619D02*
X22508095Y5337619D01*
X22603333Y5290000D01*
X22698571Y5194761D01*
X22746190Y5004285D01*
X22746190Y4670952D01*
X22698571Y4480476D01*
X22603333Y4385238D01*
X22508095Y4337619D01*
X22317619Y4337619D01*
X22222380Y4385238D01*
X22127142Y4480476D01*
X22079523Y4670952D01*
X22079523Y5004285D01*
X22127142Y5194761D01*
X22222380Y5290000D01*
X22317619Y5337619D01*
X-430476Y-4632380D02*
X-1001904Y-4632380D01*
X-716190Y-4632380D02*
X-716190Y-3632380D01*
X-811428Y-3775238D01*
X-906666Y-3870476D01*
X-1001904Y-3918095D01*
X474285Y-3632380D02*
X-1904Y-3632380D01*
X-49523Y-4108571D01*
X-1904Y-4060952D01*
X93333Y-4013333D01*
X331428Y-4013333D01*
X426666Y-4060952D01*
X474285Y-4108571D01*
X521904Y-4203809D01*
X521904Y-4441904D01*
X474285Y-4537142D01*
X426666Y-4584761D01*
X331428Y-4632380D01*
X93333Y-4632380D01*
X-1904Y-4584761D01*
X-49523Y-4537142D01*
X18808571Y18245714D02*
X18808571Y18579047D01*
X19332380Y18721904D02*
X19332380Y18245714D01*
X18332380Y18245714D01*
X18332380Y18721904D01*
X19332380Y19150476D02*
X18332380Y19150476D01*
X19332380Y19721904D01*
X18332380Y19721904D01*
X19237142Y20769523D02*
X19284761Y20721904D01*
X19332380Y20579047D01*
X19332380Y20483809D01*
X19284761Y20340952D01*
X19189523Y20245714D01*
X19094285Y20198095D01*
X18903809Y20150476D01*
X18760952Y20150476D01*
X18570476Y20198095D01*
X18475238Y20245714D01*
X18380000Y20340952D01*
X18332380Y20483809D01*
X18332380Y20579047D01*
X18380000Y20721904D01*
X18427619Y20769523D01*
X18332380Y21388571D02*
X18332380Y21579047D01*
X18380000Y21674285D01*
X18475238Y21769523D01*
X18665714Y21817142D01*
X18999047Y21817142D01*
X19189523Y21769523D01*
X19284761Y21674285D01*
X19332380Y21579047D01*
X19332380Y21388571D01*
X19284761Y21293333D01*
X19189523Y21198095D01*
X18999047Y21150476D01*
X18665714Y21150476D01*
X18475238Y21198095D01*
X18380000Y21293333D01*
X18332380Y21388571D01*
X19332380Y22245714D02*
X18332380Y22245714D01*
X18332380Y22483809D01*
X18380000Y22626666D01*
X18475238Y22721904D01*
X18570476Y22769523D01*
X18760952Y22817142D01*
X18903809Y22817142D01*
X19094285Y22769523D01*
X19189523Y22721904D01*
X19284761Y22626666D01*
X19332380Y22483809D01*
X19332380Y22245714D01*
X18808571Y23245714D02*
X18808571Y23579047D01*
X19332380Y23721904D02*
X19332380Y23245714D01*
X18332380Y23245714D01*
X18332380Y23721904D01*
X19332380Y24721904D02*
X18856190Y24388571D01*
X19332380Y24150476D02*
X18332380Y24150476D01*
X18332380Y24531428D01*
X18380000Y24626666D01*
X18427619Y24674285D01*
X18522857Y24721904D01*
X18665714Y24721904D01*
X18760952Y24674285D01*
X18808571Y24626666D01*
X18856190Y24531428D01*
X18856190Y24150476D01*
X-2447619Y-19107142D02*
X-2447619Y-19583333D01*
X-3447619Y-19583333D01*
X-2971428Y-18773809D02*
X-2971428Y-18440476D01*
X-2447619Y-18297619D02*
X-2447619Y-18773809D01*
X-3447619Y-18773809D01*
X-3447619Y-18297619D01*
X-3447619Y-18011904D02*
X-2447619Y-17678571D01*
X-3447619Y-17345238D01*
X-2971428Y-17011904D02*
X-2971428Y-16678571D01*
X-2447619Y-16535714D02*
X-2447619Y-17011904D01*
X-3447619Y-17011904D01*
X-3447619Y-16535714D01*
X-2447619Y-15630952D02*
X-2447619Y-16107142D01*
X-3447619Y-16107142D01*
X-2495238Y-14583333D02*
X-2447619Y-14440476D01*
X-2447619Y-14202380D01*
X-2495238Y-14107142D01*
X-2542857Y-14059523D01*
X-2638095Y-14011904D01*
X-2733333Y-14011904D01*
X-2828571Y-14059523D01*
X-2876190Y-14107142D01*
X-2923809Y-14202380D01*
X-2971428Y-14392857D01*
X-3019047Y-14488095D01*
X-3066666Y-14535714D01*
X-3161904Y-14583333D01*
X-3257142Y-14583333D01*
X-3352380Y-14535714D01*
X-3400000Y-14488095D01*
X-3447619Y-14392857D01*
X-3447619Y-14154761D01*
X-3400000Y-14011904D01*
X-2447619Y-13583333D02*
X-3447619Y-13583333D01*
X-2971428Y-13583333D02*
X-2971428Y-13011904D01*
X-2447619Y-13011904D02*
X-3447619Y-13011904D01*
X-2447619Y-12535714D02*
X-3447619Y-12535714D01*
X-2971428Y-11726190D02*
X-2971428Y-12059523D01*
X-2447619Y-12059523D02*
X-3447619Y-12059523D01*
X-3447619Y-11583333D01*
X-3447619Y-11345238D02*
X-3447619Y-10773809D01*
X-2447619Y-11059523D02*
X-3447619Y-11059523D01*
X43909523Y11125238D02*
X44052380Y11077619D01*
X44290476Y11077619D01*
X44385714Y11125238D01*
X44433333Y11172857D01*
X44480952Y11268095D01*
X44480952Y11363333D01*
X44433333Y11458571D01*
X44385714Y11506190D01*
X44290476Y11553809D01*
X44100000Y11601428D01*
X44004761Y11649047D01*
X43957142Y11696666D01*
X43909523Y11791904D01*
X43909523Y11887142D01*
X43957142Y11982380D01*
X44004761Y12030000D01*
X44100000Y12077619D01*
X44338095Y12077619D01*
X44480952Y12030000D01*
X44909523Y11601428D02*
X45242857Y11601428D01*
X45385714Y11077619D02*
X44909523Y11077619D01*
X44909523Y12077619D01*
X45385714Y12077619D01*
X46385714Y11077619D02*
X46052380Y11553809D01*
X45814285Y11077619D02*
X45814285Y12077619D01*
X46195238Y12077619D01*
X46290476Y12030000D01*
X46338095Y11982380D01*
X46385714Y11887142D01*
X46385714Y11744285D01*
X46338095Y11649047D01*
X46290476Y11601428D01*
X46195238Y11553809D01*
X45814285Y11553809D01*
X46671428Y12077619D02*
X47004761Y11077619D01*
X47338095Y12077619D01*
X47861904Y12077619D02*
X48052380Y12077619D01*
X48147619Y12030000D01*
X48242857Y11934761D01*
X48290476Y11744285D01*
X48290476Y11410952D01*
X48242857Y11220476D01*
X48147619Y11125238D01*
X48052380Y11077619D01*
X47861904Y11077619D01*
X47766666Y11125238D01*
X47671428Y11220476D01*
X47623809Y11410952D01*
X47623809Y11744285D01*
X47671428Y11934761D01*
X47766666Y12030000D01*
X47861904Y12077619D01*
X-15711428Y-16062380D02*
X-16044761Y-15586190D01*
X-16282857Y-16062380D02*
X-16282857Y-15062380D01*
X-15901904Y-15062380D01*
X-15806666Y-15110000D01*
X-15759047Y-15157619D01*
X-15711428Y-15252857D01*
X-15711428Y-15395714D01*
X-15759047Y-15490952D01*
X-15806666Y-15538571D01*
X-15901904Y-15586190D01*
X-16282857Y-15586190D01*
X-15282857Y-16062380D02*
X-15282857Y-15062380D01*
X-14901904Y-15062380D01*
X-14806666Y-15110000D01*
X-14759047Y-15157619D01*
X-14711428Y-15252857D01*
X-14711428Y-15395714D01*
X-14759047Y-15490952D01*
X-14806666Y-15538571D01*
X-14901904Y-15586190D01*
X-15282857Y-15586190D01*
X-14282857Y-16062380D02*
X-14282857Y-15062380D01*
X-12520952Y-15110000D02*
X-12616190Y-15062380D01*
X-12759047Y-15062380D01*
X-12901904Y-15110000D01*
X-12997142Y-15205238D01*
X-13044761Y-15300476D01*
X-13092380Y-15490952D01*
X-13092380Y-15633809D01*
X-13044761Y-15824285D01*
X-12997142Y-15919523D01*
X-12901904Y-16014761D01*
X-12759047Y-16062380D01*
X-12663809Y-16062380D01*
X-12520952Y-16014761D01*
X-12473333Y-15967142D01*
X-12473333Y-15633809D01*
X-12663809Y-15633809D01*
X-12044761Y-16062380D02*
X-12044761Y-15062380D01*
X-11663809Y-15062380D01*
X-11568571Y-15110000D01*
X-11520952Y-15157619D01*
X-11473333Y-15252857D01*
X-11473333Y-15395714D01*
X-11520952Y-15490952D01*
X-11568571Y-15538571D01*
X-11663809Y-15586190D01*
X-12044761Y-15586190D01*
X-11044761Y-16062380D02*
X-11044761Y-15062380D01*
X-10378095Y-15062380D02*
X-10187619Y-15062380D01*
X-10092380Y-15110000D01*
X-9997142Y-15205238D01*
X-9949523Y-15395714D01*
X-9949523Y-15729047D01*
X-9997142Y-15919523D01*
X-10092380Y-16014761D01*
X-10187619Y-16062380D01*
X-10378095Y-16062380D01*
X-10473333Y-16014761D01*
X-10568571Y-15919523D01*
X-10616190Y-15729047D01*
X-10616190Y-15395714D01*
X-10568571Y-15205238D01*
X-10473333Y-15110000D01*
X-10378095Y-15062380D01*
D13*
X34528571Y-21508571D02*
X33671428Y-21508571D01*
X34100000Y-21508571D02*
X34100000Y-20008571D01*
X33957142Y-20222857D01*
X33814285Y-20365714D01*
X33671428Y-20437142D01*
D12*
X23718571Y22128095D02*
X23718571Y22461428D01*
X24242380Y22604285D02*
X24242380Y22128095D01*
X23242380Y22128095D01*
X23242380Y22604285D01*
X24147142Y23604285D02*
X24194761Y23556666D01*
X24242380Y23413809D01*
X24242380Y23318571D01*
X24194761Y23175714D01*
X24099523Y23080476D01*
X24004285Y23032857D01*
X23813809Y22985238D01*
X23670952Y22985238D01*
X23480476Y23032857D01*
X23385238Y23080476D01*
X23290000Y23175714D01*
X23242380Y23318571D01*
X23242380Y23413809D01*
X23290000Y23556666D01*
X23337619Y23604285D01*
X24242380Y24032857D02*
X23242380Y24032857D01*
X23718571Y24032857D02*
X23718571Y24604285D01*
X24242380Y24604285D02*
X23242380Y24604285D01*
X23242380Y25270952D02*
X23242380Y25461428D01*
X23290000Y25556666D01*
X23385238Y25651904D01*
X23575714Y25699523D01*
X23909047Y25699523D01*
X24099523Y25651904D01*
X24194761Y25556666D01*
X24242380Y25461428D01*
X24242380Y25270952D01*
X24194761Y25175714D01*
X24099523Y25080476D01*
X23909047Y25032857D01*
X23575714Y25032857D01*
X23385238Y25080476D01*
X23290000Y25175714D01*
X23242380Y25270952D01*
X-9824285Y26510000D02*
X-9919523Y26557619D01*
X-10062380Y26557619D01*
X-10205238Y26510000D01*
X-10300476Y26414761D01*
X-10348095Y26319523D01*
X-10395714Y26129047D01*
X-10395714Y25986190D01*
X-10348095Y25795714D01*
X-10300476Y25700476D01*
X-10205238Y25605238D01*
X-10062380Y25557619D01*
X-9967142Y25557619D01*
X-9824285Y25605238D01*
X-9776666Y25652857D01*
X-9776666Y25986190D01*
X-9967142Y25986190D01*
X-9348095Y25557619D02*
X-9348095Y26557619D01*
X-8967142Y26557619D01*
X-8871904Y26510000D01*
X-8824285Y26462380D01*
X-8776666Y26367142D01*
X-8776666Y26224285D01*
X-8824285Y26129047D01*
X-8871904Y26081428D01*
X-8967142Y26033809D01*
X-9348095Y26033809D01*
X-8395714Y25605238D02*
X-8252857Y25557619D01*
X-8014761Y25557619D01*
X-7919523Y25605238D01*
X-7871904Y25652857D01*
X-7824285Y25748095D01*
X-7824285Y25843333D01*
X-7871904Y25938571D01*
X-7919523Y25986190D01*
X-8014761Y26033809D01*
X-8205238Y26081428D01*
X-8300476Y26129047D01*
X-8348095Y26176666D01*
X-8395714Y26271904D01*
X-8395714Y26367142D01*
X-8348095Y26462380D01*
X-8300476Y26510000D01*
X-8205238Y26557619D01*
X-7967142Y26557619D01*
X-7824285Y26510000D01*
X23906666Y-4612380D02*
X24573333Y-4612380D01*
X24144761Y-5612380D01*
X-21727619Y3347619D02*
X-22203809Y3347619D01*
X-22203809Y4347619D01*
X-21394285Y3347619D02*
X-21394285Y4347619D01*
X-20918095Y3347619D02*
X-20918095Y4347619D01*
X-20346666Y3347619D01*
X-20346666Y4347619D01*
X-19870476Y3871428D02*
X-19537142Y3871428D01*
X-19394285Y3347619D02*
X-19870476Y3347619D01*
X-19870476Y4347619D01*
X-19394285Y4347619D01*
X-18346666Y4347619D02*
X-17775238Y4347619D01*
X-18060952Y3347619D02*
X-18060952Y4347619D01*
X-16870476Y3347619D02*
X-17203809Y3823809D01*
X-17441904Y3347619D02*
X-17441904Y4347619D01*
X-17060952Y4347619D01*
X-16965714Y4300000D01*
X-16918095Y4252380D01*
X-16870476Y4157142D01*
X-16870476Y4014285D01*
X-16918095Y3919047D01*
X-16965714Y3871428D01*
X-17060952Y3823809D01*
X-17441904Y3823809D01*
X-16489523Y3633333D02*
X-16013333Y3633333D01*
X-16584761Y3347619D02*
X-16251428Y4347619D01*
X-15918095Y3347619D01*
X-15013333Y3442857D02*
X-15060952Y3395238D01*
X-15203809Y3347619D01*
X-15299047Y3347619D01*
X-15441904Y3395238D01*
X-15537142Y3490476D01*
X-15584761Y3585714D01*
X-15632380Y3776190D01*
X-15632380Y3919047D01*
X-15584761Y4109523D01*
X-15537142Y4204761D01*
X-15441904Y4300000D01*
X-15299047Y4347619D01*
X-15203809Y4347619D01*
X-15060952Y4300000D01*
X-15013333Y4252380D01*
X-14584761Y3347619D02*
X-14584761Y4347619D01*
X-14013333Y3347619D02*
X-14441904Y3919047D01*
X-14013333Y4347619D02*
X-14584761Y3776190D01*
X-13584761Y3871428D02*
X-13251428Y3871428D01*
X-13108571Y3347619D02*
X-13584761Y3347619D01*
X-13584761Y4347619D01*
X-13108571Y4347619D01*
X-12108571Y3347619D02*
X-12441904Y3823809D01*
X-12679999Y3347619D02*
X-12679999Y4347619D01*
X-12299047Y4347619D01*
X-12203809Y4300000D01*
X-12156190Y4252380D01*
X-12108571Y4157142D01*
X-12108571Y4014285D01*
X-12156190Y3919047D01*
X-12203809Y3871428D01*
X-12299047Y3823809D01*
X-12679999Y3823809D01*
X-21108095Y-14422380D02*
X-21108095Y-13422380D01*
X-20774761Y-14136666D01*
X-20441428Y-13422380D01*
X-20441428Y-14422380D01*
X-19393809Y-14327142D02*
X-19441428Y-14374761D01*
X-19584285Y-14422380D01*
X-19679523Y-14422380D01*
X-19822380Y-14374761D01*
X-19917619Y-14279523D01*
X-19965238Y-14184285D01*
X-20012857Y-13993809D01*
X-20012857Y-13850952D01*
X-19965238Y-13660476D01*
X-19917619Y-13565238D01*
X-19822380Y-13470000D01*
X-19679523Y-13422380D01*
X-19584285Y-13422380D01*
X-19441428Y-13470000D01*
X-19393809Y-13517619D01*
X-18965238Y-14422380D02*
X-18965238Y-13422380D01*
X-18584285Y-13422380D01*
X-18489047Y-13470000D01*
X-18441428Y-13517619D01*
X-18393809Y-13612857D01*
X-18393809Y-13755714D01*
X-18441428Y-13850952D01*
X-18489047Y-13898571D01*
X-18584285Y-13946190D01*
X-18965238Y-13946190D01*
X-18060476Y-13422380D02*
X-17441428Y-13422380D01*
X-17774761Y-13803333D01*
X-17631904Y-13803333D01*
X-17536666Y-13850952D01*
X-17489047Y-13898571D01*
X-17441428Y-13993809D01*
X-17441428Y-14231904D01*
X-17489047Y-14327142D01*
X-17536666Y-14374761D01*
X-17631904Y-14422380D01*
X-17917619Y-14422380D01*
X-18012857Y-14374761D01*
X-18060476Y-14327142D01*
X-16822380Y-13422380D02*
X-16727142Y-13422380D01*
X-16631904Y-13470000D01*
X-16584285Y-13517619D01*
X-16536666Y-13612857D01*
X-16489047Y-13803333D01*
X-16489047Y-14041428D01*
X-16536666Y-14231904D01*
X-16584285Y-14327142D01*
X-16631904Y-14374761D01*
X-16727142Y-14422380D01*
X-16822380Y-14422380D01*
X-16917619Y-14374761D01*
X-16965238Y-14327142D01*
X-17012857Y-14231904D01*
X-17060476Y-14041428D01*
X-17060476Y-13803333D01*
X-17012857Y-13612857D01*
X-16965238Y-13517619D01*
X-16917619Y-13470000D01*
X-16822380Y-13422380D01*
X-15870000Y-13422380D02*
X-15774761Y-13422380D01*
X-15679523Y-13470000D01*
X-15631904Y-13517619D01*
X-15584285Y-13612857D01*
X-15536666Y-13803333D01*
X-15536666Y-14041428D01*
X-15584285Y-14231904D01*
X-15631904Y-14327142D01*
X-15679523Y-14374761D01*
X-15774761Y-14422380D01*
X-15870000Y-14422380D01*
X-15965238Y-14374761D01*
X-16012857Y-14327142D01*
X-16060476Y-14231904D01*
X-16108095Y-14041428D01*
X-16108095Y-13803333D01*
X-16060476Y-13612857D01*
X-16012857Y-13517619D01*
X-15965238Y-13470000D01*
X-15870000Y-13422380D01*
X-14965238Y-13850952D02*
X-15060476Y-13803333D01*
X-15108095Y-13755714D01*
X-15155714Y-13660476D01*
X-15155714Y-13612857D01*
X-15108095Y-13517619D01*
X-15060476Y-13470000D01*
X-14965238Y-13422380D01*
X-14774761Y-13422380D01*
X-14679523Y-13470000D01*
X-14631904Y-13517619D01*
X-14584285Y-13612857D01*
X-14584285Y-13660476D01*
X-14631904Y-13755714D01*
X-14679523Y-13803333D01*
X-14774761Y-13850952D01*
X-14965238Y-13850952D01*
X-15060476Y-13898571D01*
X-15108095Y-13946190D01*
X-15155714Y-14041428D01*
X-15155714Y-14231904D01*
X-15108095Y-14327142D01*
X-15060476Y-14374761D01*
X-14965238Y-14422380D01*
X-14774761Y-14422380D01*
X-14679523Y-14374761D01*
X-14631904Y-14327142D01*
X-14584285Y-14231904D01*
X-14584285Y-14041428D01*
X-14631904Y-13946190D01*
X-14679523Y-13898571D01*
X-14774761Y-13850952D01*
X6912857Y-14651904D02*
X6912857Y-13851904D01*
X6912857Y-14156666D02*
X6989047Y-14118571D01*
X7141428Y-14118571D01*
X7217619Y-14156666D01*
X7255714Y-14194761D01*
X7293809Y-14270952D01*
X7293809Y-14499523D01*
X7255714Y-14575714D01*
X7217619Y-14613809D01*
X7141428Y-14651904D01*
X6989047Y-14651904D01*
X6912857Y-14613809D01*
X7636666Y-14651904D02*
X7636666Y-14118571D01*
X7636666Y-13851904D02*
X7598571Y-13890000D01*
X7636666Y-13928095D01*
X7674761Y-13890000D01*
X7636666Y-13851904D01*
X7636666Y-13928095D01*
X7903333Y-14118571D02*
X8208095Y-14118571D01*
X8017619Y-13851904D02*
X8017619Y-14537619D01*
X8055714Y-14613809D01*
X8131904Y-14651904D01*
X8208095Y-14651904D01*
X8474761Y-14575714D02*
X8512857Y-14613809D01*
X8474761Y-14651904D01*
X8436666Y-14613809D01*
X8474761Y-14575714D01*
X8474761Y-14651904D01*
X8970000Y-14651904D02*
X8893809Y-14613809D01*
X8855714Y-14537619D01*
X8855714Y-13851904D01*
X9198571Y-14118571D02*
X9389047Y-14651904D01*
X9579523Y-14118571D02*
X9389047Y-14651904D01*
X9312857Y-14842380D01*
X9274761Y-14880476D01*
X9198571Y-14918571D01*
X10455714Y-13813809D02*
X9770000Y-14842380D01*
X10646190Y-13851904D02*
X11141428Y-13851904D01*
X10874761Y-14156666D01*
X10989047Y-14156666D01*
X11065238Y-14194761D01*
X11103333Y-14232857D01*
X11141428Y-14309047D01*
X11141428Y-14499523D01*
X11103333Y-14575714D01*
X11065238Y-14613809D01*
X10989047Y-14651904D01*
X10760476Y-14651904D01*
X10684285Y-14613809D01*
X10646190Y-14575714D01*
X11484285Y-14651904D02*
X11484285Y-13851904D01*
X11789047Y-13851904D01*
X11865238Y-13890000D01*
X11903333Y-13928095D01*
X11941428Y-14004285D01*
X11941428Y-14118571D01*
X11903333Y-14194761D01*
X11865238Y-14232857D01*
X11789047Y-14270952D01*
X11484285Y-14270952D01*
X12284285Y-14651904D02*
X12284285Y-13851904D01*
X12665238Y-14651904D02*
X12665238Y-14118571D01*
X12665238Y-13851904D02*
X12627142Y-13890000D01*
X12665238Y-13928095D01*
X12703333Y-13890000D01*
X12665238Y-13851904D01*
X12665238Y-13928095D01*
X13046190Y-14118571D02*
X13046190Y-14651904D01*
X13046190Y-14194761D02*
X13084285Y-14156666D01*
X13160476Y-14118571D01*
X13274761Y-14118571D01*
X13350952Y-14156666D01*
X13389047Y-14232857D01*
X13389047Y-14651904D01*
X14112857Y-14118571D02*
X14112857Y-14918571D01*
X14112857Y-14613809D02*
X14036666Y-14651904D01*
X13884285Y-14651904D01*
X13808095Y-14613809D01*
X13769999Y-14575714D01*
X13731904Y-14499523D01*
X13731904Y-14270952D01*
X13769999Y-14194761D01*
X13808095Y-14156666D01*
X13884285Y-14118571D01*
X14036666Y-14118571D01*
X14112857Y-14156666D01*
X14493809Y-14651904D02*
X14493809Y-13851904D01*
X14760476Y-14423333D01*
X15027142Y-13851904D01*
X15027142Y-14651904D01*
D13*
X20112857Y-8984761D02*
X20112857Y-6984761D01*
X20874761Y-6984761D01*
X21065238Y-7080000D01*
X21160476Y-7175238D01*
X21255714Y-7365714D01*
X21255714Y-7651428D01*
X21160476Y-7841904D01*
X21065238Y-7937142D01*
X20874761Y-8032380D01*
X20112857Y-8032380D01*
X22112857Y-8984761D02*
X22112857Y-7651428D01*
X22112857Y-8032380D02*
X22208095Y-7841904D01*
X22303333Y-7746666D01*
X22493809Y-7651428D01*
X22684285Y-7651428D01*
X23350952Y-8984761D02*
X23350952Y-7651428D01*
X23350952Y-6984761D02*
X23255714Y-7080000D01*
X23350952Y-7175238D01*
X23446190Y-7080000D01*
X23350952Y-6984761D01*
X23350952Y-7175238D01*
X24303333Y-8984761D02*
X24303333Y-7651428D01*
X24303333Y-7841904D02*
X24398571Y-7746666D01*
X24589047Y-7651428D01*
X24874761Y-7651428D01*
X25065238Y-7746666D01*
X25160476Y-7937142D01*
X25160476Y-8984761D01*
X25160476Y-7937142D02*
X25255714Y-7746666D01*
X25446190Y-7651428D01*
X25731904Y-7651428D01*
X25922380Y-7746666D01*
X26017619Y-7937142D01*
X26017619Y-8984761D01*
X27731904Y-8889523D02*
X27541428Y-8984761D01*
X27160476Y-8984761D01*
X26969999Y-8889523D01*
X26874761Y-8699047D01*
X26874761Y-7937142D01*
X26969999Y-7746666D01*
X27160476Y-7651428D01*
X27541428Y-7651428D01*
X27731904Y-7746666D01*
X27827142Y-7937142D01*
X27827142Y-8127619D01*
X26874761Y-8318095D01*
X30208095Y-8984761D02*
X30208095Y-6984761D01*
X30874761Y-8413333D01*
X31541428Y-6984761D01*
X31541428Y-8984761D01*
X32779523Y-8984761D02*
X32589047Y-8889523D01*
X32493809Y-8794285D01*
X32398571Y-8603809D01*
X32398571Y-8032380D01*
X32493809Y-7841904D01*
X32589047Y-7746666D01*
X32779523Y-7651428D01*
X33065238Y-7651428D01*
X33255714Y-7746666D01*
X33350952Y-7841904D01*
X33446190Y-8032380D01*
X33446190Y-8603809D01*
X33350952Y-8794285D01*
X33255714Y-8889523D01*
X33065238Y-8984761D01*
X32779523Y-8984761D01*
X34112857Y-7651428D02*
X34589047Y-8984761D01*
X35065238Y-7651428D01*
X36589047Y-8889523D02*
X36398571Y-8984761D01*
X36017619Y-8984761D01*
X35827142Y-8889523D01*
X35731904Y-8699047D01*
X35731904Y-7937142D01*
X35827142Y-7746666D01*
X36017619Y-7651428D01*
X36398571Y-7651428D01*
X36589047Y-7746666D01*
X36684285Y-7937142D01*
X36684285Y-8127619D01*
X35731904Y-8318095D01*
X37541428Y-8984761D02*
X37541428Y-7651428D01*
X37541428Y-8032380D02*
X37636666Y-7841904D01*
X37731904Y-7746666D01*
X37922380Y-7651428D01*
X38112857Y-7651428D01*
X40017619Y-6984761D02*
X40684285Y-8984761D01*
X41350952Y-6984761D01*
X43065238Y-8984761D02*
X41922380Y-8984761D01*
X42493809Y-8984761D02*
X42493809Y-6984761D01*
X42303333Y-7270476D01*
X42112857Y-7460952D01*
X41922380Y-7556190D01*
X43922380Y-8794285D02*
X44017619Y-8889523D01*
X43922380Y-8984761D01*
X43827142Y-8889523D01*
X43922380Y-8794285D01*
X43922380Y-8984761D01*
X45827142Y-6984761D02*
X44874761Y-6984761D01*
X44779523Y-7937142D01*
X44874761Y-7841904D01*
X45065238Y-7746666D01*
X45541428Y-7746666D01*
X45731904Y-7841904D01*
X45827142Y-7937142D01*
X45922380Y-8127619D01*
X45922380Y-8603809D01*
X45827142Y-8794285D01*
X45731904Y-8889523D01*
X45541428Y-8984761D01*
X45065238Y-8984761D01*
X44874761Y-8889523D01*
X44779523Y-8794285D01*
D14*
X20588571Y-10372857D02*
X20802857Y-10444285D01*
X20874285Y-10515714D01*
X20945714Y-10658571D01*
X20945714Y-10872857D01*
X20874285Y-11015714D01*
X20802857Y-11087142D01*
X20660000Y-11158571D01*
X20088571Y-11158571D01*
X20088571Y-9658571D01*
X20588571Y-9658571D01*
X20731428Y-9730000D01*
X20802857Y-9801428D01*
X20874285Y-9944285D01*
X20874285Y-10087142D01*
X20802857Y-10230000D01*
X20731428Y-10301428D01*
X20588571Y-10372857D01*
X20088571Y-10372857D01*
X21445714Y-10158571D02*
X21802857Y-11158571D01*
X22160000Y-10158571D02*
X21802857Y-11158571D01*
X21660000Y-11515714D01*
X21588571Y-11587142D01*
X21445714Y-11658571D01*
X23874285Y-11158571D02*
X23874285Y-9658571D01*
X24231428Y-9658571D01*
X24445714Y-9730000D01*
X24588571Y-9872857D01*
X24660000Y-10015714D01*
X24731428Y-10301428D01*
X24731428Y-10515714D01*
X24660000Y-10801428D01*
X24588571Y-10944285D01*
X24445714Y-11087142D01*
X24231428Y-11158571D01*
X23874285Y-11158571D01*
X26017142Y-11158571D02*
X26017142Y-10372857D01*
X25945714Y-10230000D01*
X25802857Y-10158571D01*
X25517142Y-10158571D01*
X25374285Y-10230000D01*
X26017142Y-11087142D02*
X25874285Y-11158571D01*
X25517142Y-11158571D01*
X25374285Y-11087142D01*
X25302857Y-10944285D01*
X25302857Y-10801428D01*
X25374285Y-10658571D01*
X25517142Y-10587142D01*
X25874285Y-10587142D01*
X26017142Y-10515714D01*
X26731428Y-10158571D02*
X26731428Y-11158571D01*
X26731428Y-10301428D02*
X26802857Y-10230000D01*
X26945714Y-10158571D01*
X27160000Y-10158571D01*
X27302857Y-10230000D01*
X27374285Y-10372857D01*
X27374285Y-11158571D01*
X28088571Y-10158571D02*
X28088571Y-11158571D01*
X28088571Y-10301428D02*
X28160000Y-10230000D01*
X28302857Y-10158571D01*
X28517142Y-10158571D01*
X28660000Y-10230000D01*
X28731428Y-10372857D01*
X28731428Y-11158571D01*
X29302857Y-10158571D02*
X29660000Y-11158571D01*
X30017142Y-10158571D02*
X29660000Y-11158571D01*
X29517142Y-11515714D01*
X29445714Y-11587142D01*
X29302857Y-11658571D01*
X31660000Y-10730000D02*
X32374285Y-10730000D01*
X31517142Y-11158571D02*
X32017142Y-9658571D01*
X32517142Y-11158571D01*
X33017142Y-10158571D02*
X33017142Y-11158571D01*
X33017142Y-10301428D02*
X33088571Y-10230000D01*
X33231428Y-10158571D01*
X33445714Y-10158571D01*
X33588571Y-10230000D01*
X33660000Y-10372857D01*
X33660000Y-11158571D01*
X35017142Y-11158571D02*
X35017142Y-9658571D01*
X35017142Y-11087142D02*
X34874285Y-11158571D01*
X34588571Y-11158571D01*
X34445714Y-11087142D01*
X34374285Y-11015714D01*
X34302857Y-10872857D01*
X34302857Y-10444285D01*
X34374285Y-10301428D01*
X34445714Y-10230000D01*
X34588571Y-10158571D01*
X34874285Y-10158571D01*
X35017142Y-10230000D01*
X35731428Y-11158571D02*
X35731428Y-10158571D01*
X35731428Y-10444285D02*
X35802857Y-10301428D01*
X35874285Y-10230000D01*
X36017142Y-10158571D01*
X36160000Y-10158571D01*
X37231428Y-11087142D02*
X37088571Y-11158571D01*
X36802857Y-11158571D01*
X36660000Y-11087142D01*
X36588571Y-10944285D01*
X36588571Y-10372857D01*
X36660000Y-10230000D01*
X36802857Y-10158571D01*
X37088571Y-10158571D01*
X37231428Y-10230000D01*
X37302857Y-10372857D01*
X37302857Y-10515714D01*
X36588571Y-10658571D01*
X38517142Y-11087142D02*
X38374285Y-11158571D01*
X38088571Y-11158571D01*
X37945714Y-11087142D01*
X37874285Y-10944285D01*
X37874285Y-10372857D01*
X37945714Y-10230000D01*
X38088571Y-10158571D01*
X38374285Y-10158571D01*
X38517142Y-10230000D01*
X38588571Y-10372857D01*
X38588571Y-10515714D01*
X37874285Y-10658571D01*
X39088571Y-10158571D02*
X39445714Y-11158571D01*
X39802857Y-10158571D01*
D12*
X43918571Y18220952D02*
X43966190Y18363809D01*
X44013809Y18411428D01*
X44109047Y18459047D01*
X44251904Y18459047D01*
X44347142Y18411428D01*
X44394761Y18363809D01*
X44442380Y18268571D01*
X44442380Y17887619D01*
X43442380Y17887619D01*
X43442380Y18220952D01*
X43490000Y18316190D01*
X43537619Y18363809D01*
X43632857Y18411428D01*
X43728095Y18411428D01*
X43823333Y18363809D01*
X43870952Y18316190D01*
X43918571Y18220952D01*
X43918571Y17887619D01*
X44156666Y18840000D02*
X44156666Y19316190D01*
X44442380Y18744761D02*
X43442380Y19078095D01*
X44442380Y19411428D01*
X43442380Y19601904D02*
X43442380Y20173333D01*
X44442380Y19887619D02*
X43442380Y19887619D01*
X43442380Y20363809D02*
X43442380Y20935238D01*
X44442380Y20649523D02*
X43442380Y20649523D01*
X39209523Y16661428D02*
X39542857Y16661428D01*
X39685714Y16137619D02*
X39209523Y16137619D01*
X39209523Y17137619D01*
X39685714Y17137619D01*
X40066666Y16185238D02*
X40209523Y16137619D01*
X40447619Y16137619D01*
X40542857Y16185238D01*
X40590476Y16232857D01*
X40638095Y16328095D01*
X40638095Y16423333D01*
X40590476Y16518571D01*
X40542857Y16566190D01*
X40447619Y16613809D01*
X40257142Y16661428D01*
X40161904Y16709047D01*
X40114285Y16756666D01*
X40066666Y16851904D01*
X40066666Y16947142D01*
X40114285Y17042380D01*
X40161904Y17090000D01*
X40257142Y17137619D01*
X40495238Y17137619D01*
X40638095Y17090000D01*
X41638095Y16232857D02*
X41590476Y16185238D01*
X41447619Y16137619D01*
X41352380Y16137619D01*
X41209523Y16185238D01*
X41114285Y16280476D01*
X41066666Y16375714D01*
X41019047Y16566190D01*
X41019047Y16709047D01*
X41066666Y16899523D01*
X41114285Y16994761D01*
X41209523Y17090000D01*
X41352380Y17137619D01*
X41447619Y17137619D01*
X41590476Y17090000D01*
X41638095Y17042380D01*
X18544761Y-4110952D02*
X18449523Y-4063333D01*
X18401904Y-4015714D01*
X18354285Y-3920476D01*
X18354285Y-3872857D01*
X18401904Y-3777619D01*
X18449523Y-3730000D01*
X18544761Y-3682380D01*
X18735238Y-3682380D01*
X18830476Y-3730000D01*
X18878095Y-3777619D01*
X18925714Y-3872857D01*
X18925714Y-3920476D01*
X18878095Y-4015714D01*
X18830476Y-4063333D01*
X18735238Y-4110952D01*
X18544761Y-4110952D01*
X18449523Y-4158571D01*
X18401904Y-4206190D01*
X18354285Y-4301428D01*
X18354285Y-4491904D01*
X18401904Y-4587142D01*
X18449523Y-4634761D01*
X18544761Y-4682380D01*
X18735238Y-4682380D01*
X18830476Y-4634761D01*
X18878095Y-4587142D01*
X18925714Y-4491904D01*
X18925714Y-4301428D01*
X18878095Y-4206190D01*
X18830476Y-4158571D01*
X18735238Y-4110952D01*
X37031904Y18353333D02*
X37508095Y18353333D01*
X36936666Y18067619D02*
X37270000Y19067619D01*
X37603333Y18067619D01*
X37936666Y18067619D02*
X37936666Y19067619D01*
X38174761Y19067619D01*
X38317619Y19020000D01*
X38412857Y18924761D01*
X38460476Y18829523D01*
X38508095Y18639047D01*
X38508095Y18496190D01*
X38460476Y18305714D01*
X38412857Y18210476D01*
X38317619Y18115238D01*
X38174761Y18067619D01*
X37936666Y18067619D01*
X39508095Y18162857D02*
X39460476Y18115238D01*
X39317619Y18067619D01*
X39222380Y18067619D01*
X39079523Y18115238D01*
X38984285Y18210476D01*
X38936666Y18305714D01*
X38889047Y18496190D01*
X38889047Y18639047D01*
X38936666Y18829523D01*
X38984285Y18924761D01*
X39079523Y19020000D01*
X39222380Y19067619D01*
X39317619Y19067619D01*
X39460476Y19020000D01*
X39508095Y18972380D01*
X46412380Y-4482380D02*
X46507619Y-4482380D01*
X46602857Y-4530000D01*
X46650476Y-4577619D01*
X46698095Y-4672857D01*
X46745714Y-4863333D01*
X46745714Y-5101428D01*
X46698095Y-5291904D01*
X46650476Y-5387142D01*
X46602857Y-5434761D01*
X46507619Y-5482380D01*
X46412380Y-5482380D01*
X46317142Y-5434761D01*
X46269523Y-5387142D01*
X46221904Y-5291904D01*
X46174285Y-5101428D01*
X46174285Y-4863333D01*
X46221904Y-4672857D01*
X46269523Y-4577619D01*
X46317142Y-4530000D01*
X46412380Y-4482380D01*
D10*
X6272380Y-17246190D02*
X5272380Y-17246190D01*
X6177142Y-16198571D02*
X6224761Y-16246190D01*
X6272380Y-16389047D01*
X6272380Y-16484285D01*
X6224761Y-16627142D01*
X6129523Y-16722380D01*
X6034285Y-16770000D01*
X5843809Y-16817619D01*
X5700952Y-16817619D01*
X5510476Y-16770000D01*
X5415238Y-16722380D01*
X5320000Y-16627142D01*
X5272380Y-16484285D01*
X5272380Y-16389047D01*
X5320000Y-16246190D01*
X5367619Y-16198571D01*
X6272380Y-15246190D02*
X6272380Y-15817619D01*
X6272380Y-15531904D02*
X5272380Y-15531904D01*
X5415238Y-15627142D01*
X5510476Y-15722380D01*
X5558095Y-15817619D01*
D12*
X12506666Y27657619D02*
X12506666Y26943333D01*
X12459047Y26800476D01*
X12363809Y26705238D01*
X12220952Y26657619D01*
X12125714Y26657619D01*
X12982857Y26657619D02*
X12982857Y27657619D01*
X13363809Y27657619D01*
X13459047Y27610000D01*
X13506666Y27562380D01*
X13554285Y27467142D01*
X13554285Y27324285D01*
X13506666Y27229047D01*
X13459047Y27181428D01*
X13363809Y27133809D01*
X12982857Y27133809D01*
X14506666Y26657619D02*
X13935238Y26657619D01*
X14220952Y26657619D02*
X14220952Y27657619D01*
X14125714Y27514761D01*
X14030476Y27419523D01*
X13935238Y27371904D01*
X16953333Y17762857D02*
X16905714Y17715238D01*
X16762857Y17667619D01*
X16667619Y17667619D01*
X16524761Y17715238D01*
X16429523Y17810476D01*
X16381904Y17905714D01*
X16334285Y18096190D01*
X16334285Y18239047D01*
X16381904Y18429523D01*
X16429523Y18524761D01*
X16524761Y18620000D01*
X16667619Y18667619D01*
X16762857Y18667619D01*
X16905714Y18620000D01*
X16953333Y18572380D01*
X17286666Y18667619D02*
X17953333Y18667619D01*
X17524761Y17667619D01*
X18356666Y17397619D02*
X18356666Y16683333D01*
X18309047Y16540476D01*
X18213809Y16445238D01*
X18070952Y16397619D01*
X17975714Y16397619D01*
X18737619Y17397619D02*
X19404285Y17397619D01*
X18975714Y16397619D01*
X-472857Y22473333D02*
X-425238Y22425714D01*
X-377619Y22282857D01*
X-377619Y22187619D01*
X-425238Y22044761D01*
X-520476Y21949523D01*
X-615714Y21901904D01*
X-806190Y21854285D01*
X-949047Y21854285D01*
X-1139523Y21901904D01*
X-1234761Y21949523D01*
X-1330000Y22044761D01*
X-1377619Y22187619D01*
X-1377619Y22282857D01*
X-1330000Y22425714D01*
X-1282380Y22473333D01*
X-949047Y23044761D02*
X-996666Y22949523D01*
X-1044285Y22901904D01*
X-1139523Y22854285D01*
X-1187142Y22854285D01*
X-1282380Y22901904D01*
X-1330000Y22949523D01*
X-1377619Y23044761D01*
X-1377619Y23235238D01*
X-1330000Y23330476D01*
X-1282380Y23378095D01*
X-1187142Y23425714D01*
X-1139523Y23425714D01*
X-1044285Y23378095D01*
X-996666Y23330476D01*
X-949047Y23235238D01*
X-949047Y23044761D01*
X-901428Y22949523D01*
X-853809Y22901904D01*
X-758571Y22854285D01*
X-568095Y22854285D01*
X-472857Y22901904D01*
X-425238Y22949523D01*
X-377619Y23044761D01*
X-377619Y23235238D01*
X-425238Y23330476D01*
X-472857Y23378095D01*
X-568095Y23425714D01*
X-758571Y23425714D01*
X-853809Y23378095D01*
X-901428Y23330476D01*
X-949047Y23235238D01*
X14723333Y8162857D02*
X14675714Y8115238D01*
X14532857Y8067619D01*
X14437619Y8067619D01*
X14294761Y8115238D01*
X14199523Y8210476D01*
X14151904Y8305714D01*
X14104285Y8496190D01*
X14104285Y8639047D01*
X14151904Y8829523D01*
X14199523Y8924761D01*
X14294761Y9020000D01*
X14437619Y9067619D01*
X14532857Y9067619D01*
X14675714Y9020000D01*
X14723333Y8972380D01*
X15580476Y9067619D02*
X15390000Y9067619D01*
X15294761Y9020000D01*
X15247142Y8972380D01*
X15151904Y8829523D01*
X15104285Y8639047D01*
X15104285Y8258095D01*
X15151904Y8162857D01*
X15199523Y8115238D01*
X15294761Y8067619D01*
X15485238Y8067619D01*
X15580476Y8115238D01*
X15628095Y8162857D01*
X15675714Y8258095D01*
X15675714Y8496190D01*
X15628095Y8591428D01*
X15580476Y8639047D01*
X15485238Y8686666D01*
X15294761Y8686666D01*
X15199523Y8639047D01*
X15151904Y8591428D01*
X15104285Y8496190D01*
X4863333Y8312857D02*
X4815714Y8265238D01*
X4672857Y8217619D01*
X4577619Y8217619D01*
X4434761Y8265238D01*
X4339523Y8360476D01*
X4291904Y8455714D01*
X4244285Y8646190D01*
X4244285Y8789047D01*
X4291904Y8979523D01*
X4339523Y9074761D01*
X4434761Y9170000D01*
X4577619Y9217619D01*
X4672857Y9217619D01*
X4815714Y9170000D01*
X4863333Y9122380D01*
X5720476Y8884285D02*
X5720476Y8217619D01*
X5482380Y9265238D02*
X5244285Y8550952D01*
X5863333Y8550952D01*
X-11787619Y-1681904D02*
X-10978095Y-1681904D01*
X-10882857Y-1634285D01*
X-10835238Y-1586666D01*
X-10787619Y-1491428D01*
X-10787619Y-1300952D01*
X-10835238Y-1205714D01*
X-10882857Y-1158095D01*
X-10978095Y-1110476D01*
X-11787619Y-1110476D01*
X-11692380Y-681904D02*
X-11740000Y-634285D01*
X-11787619Y-539047D01*
X-11787619Y-300952D01*
X-11740000Y-205714D01*
X-11692380Y-158095D01*
X-11597142Y-110476D01*
X-11501904Y-110476D01*
X-11359047Y-158095D01*
X-10787619Y-729523D01*
X-10787619Y-110476D01*
X-13403333Y22547619D02*
X-13403333Y21833333D01*
X-13450952Y21690476D01*
X-13546190Y21595238D01*
X-13689047Y21547619D01*
X-13784285Y21547619D01*
X-12879523Y21547619D02*
X-12689047Y21547619D01*
X-12593809Y21595238D01*
X-12546190Y21642857D01*
X-12450952Y21785714D01*
X-12403333Y21976190D01*
X-12403333Y22357142D01*
X-12450952Y22452380D01*
X-12498571Y22500000D01*
X-12593809Y22547619D01*
X-12784285Y22547619D01*
X-12879523Y22500000D01*
X-12927142Y22452380D01*
X-12974761Y22357142D01*
X-12974761Y22119047D01*
X-12927142Y22023809D01*
X-12879523Y21976190D01*
X-12784285Y21928571D01*
X-12593809Y21928571D01*
X-12498571Y21976190D01*
X-12450952Y22023809D01*
X-12403333Y22119047D01*
X-16203333Y-21302380D02*
X-16203333Y-22016666D01*
X-16250952Y-22159523D01*
X-16346190Y-22254761D01*
X-16489047Y-22302380D01*
X-16584285Y-22302380D01*
X-15298571Y-21302380D02*
X-15489047Y-21302380D01*
X-15584285Y-21350000D01*
X-15631904Y-21397619D01*
X-15727142Y-21540476D01*
X-15774761Y-21730952D01*
X-15774761Y-22111904D01*
X-15727142Y-22207142D01*
X-15679523Y-22254761D01*
X-15584285Y-22302380D01*
X-15393809Y-22302380D01*
X-15298571Y-22254761D01*
X-15250952Y-22207142D01*
X-15203333Y-22111904D01*
X-15203333Y-21873809D01*
X-15250952Y-21778571D01*
X-15298571Y-21730952D01*
X-15393809Y-21683333D01*
X-15584285Y-21683333D01*
X-15679523Y-21730952D01*
X-15727142Y-21778571D01*
X-15774761Y-21873809D01*
X-16599523Y22467619D02*
X-16599523Y21753333D01*
X-16647142Y21610476D01*
X-16742380Y21515238D01*
X-16885238Y21467619D01*
X-16980476Y21467619D01*
X-15599523Y21467619D02*
X-16170952Y21467619D01*
X-15885238Y21467619D02*
X-15885238Y22467619D01*
X-15980476Y22324761D01*
X-16075714Y22229523D01*
X-16170952Y22181904D01*
X-14980476Y22467619D02*
X-14885238Y22467619D01*
X-14790000Y22420000D01*
X-14742380Y22372380D01*
X-14694761Y22277142D01*
X-14647142Y22086666D01*
X-14647142Y21848571D01*
X-14694761Y21658095D01*
X-14742380Y21562857D01*
X-14790000Y21515238D01*
X-14885238Y21467619D01*
X-14980476Y21467619D01*
X-15075714Y21515238D01*
X-15123333Y21562857D01*
X-15170952Y21658095D01*
X-15218571Y21848571D01*
X-15218571Y22086666D01*
X-15170952Y22277142D01*
X-15123333Y22372380D01*
X-15075714Y22420000D01*
X-14980476Y22467619D01*
X21716666Y23107619D02*
X21716666Y22393333D01*
X21669047Y22250476D01*
X21573809Y22155238D01*
X21430952Y22107619D01*
X21335714Y22107619D01*
X22335714Y22679047D02*
X22240476Y22726666D01*
X22192857Y22774285D01*
X22145238Y22869523D01*
X22145238Y22917142D01*
X22192857Y23012380D01*
X22240476Y23060000D01*
X22335714Y23107619D01*
X22526190Y23107619D01*
X22621428Y23060000D01*
X22669047Y23012380D01*
X22716666Y22917142D01*
X22716666Y22869523D01*
X22669047Y22774285D01*
X22621428Y22726666D01*
X22526190Y22679047D01*
X22335714Y22679047D01*
X22240476Y22631428D01*
X22192857Y22583809D01*
X22145238Y22488571D01*
X22145238Y22298095D01*
X22192857Y22202857D01*
X22240476Y22155238D01*
X22335714Y22107619D01*
X22526190Y22107619D01*
X22621428Y22155238D01*
X22669047Y22202857D01*
X22716666Y22298095D01*
X22716666Y22488571D01*
X22669047Y22583809D01*
X22621428Y22631428D01*
X22526190Y22679047D01*
X-13691904Y-13302380D02*
X-13691904Y-14111904D01*
X-13644285Y-14207142D01*
X-13596666Y-14254761D01*
X-13501428Y-14302380D01*
X-13310952Y-14302380D01*
X-13215714Y-14254761D01*
X-13168095Y-14207142D01*
X-13120476Y-14111904D01*
X-13120476Y-13302380D01*
X-12739523Y-13302380D02*
X-12120476Y-13302380D01*
X-12453809Y-13683333D01*
X-12310952Y-13683333D01*
X-12215714Y-13730952D01*
X-12168095Y-13778571D01*
X-12120476Y-13873809D01*
X-12120476Y-14111904D01*
X-12168095Y-14207142D01*
X-12215714Y-14254761D01*
X-12310952Y-14302380D01*
X-12596666Y-14302380D01*
X-12691904Y-14254761D01*
X-12739523Y-14207142D01*
X5793333Y21942857D02*
X5745714Y21895238D01*
X5602857Y21847619D01*
X5507619Y21847619D01*
X5364761Y21895238D01*
X5269523Y21990476D01*
X5221904Y22085714D01*
X5174285Y22276190D01*
X5174285Y22419047D01*
X5221904Y22609523D01*
X5269523Y22704761D01*
X5364761Y22800000D01*
X5507619Y22847619D01*
X5602857Y22847619D01*
X5745714Y22800000D01*
X5793333Y22752380D01*
X6698095Y22847619D02*
X6221904Y22847619D01*
X6174285Y22371428D01*
X6221904Y22419047D01*
X6317142Y22466666D01*
X6555238Y22466666D01*
X6650476Y22419047D01*
X6698095Y22371428D01*
X6745714Y22276190D01*
X6745714Y22038095D01*
X6698095Y21942857D01*
X6650476Y21895238D01*
X6555238Y21847619D01*
X6317142Y21847619D01*
X6221904Y21895238D01*
X6174285Y21942857D01*
X7912380Y26203333D02*
X7436190Y25870000D01*
X7912380Y25631904D02*
X6912380Y25631904D01*
X6912380Y26012857D01*
X6960000Y26108095D01*
X7007619Y26155714D01*
X7102857Y26203333D01*
X7245714Y26203333D01*
X7340952Y26155714D01*
X7388571Y26108095D01*
X7436190Y26012857D01*
X7436190Y25631904D01*
X6912380Y27060476D02*
X6912380Y26870000D01*
X6960000Y26774761D01*
X7007619Y26727142D01*
X7150476Y26631904D01*
X7340952Y26584285D01*
X7721904Y26584285D01*
X7817142Y26631904D01*
X7864761Y26679523D01*
X7912380Y26774761D01*
X7912380Y26965238D01*
X7864761Y27060476D01*
X7817142Y27108095D01*
X7721904Y27155714D01*
X7483809Y27155714D01*
X7388571Y27108095D01*
X7340952Y27060476D01*
X7293333Y26965238D01*
X7293333Y26774761D01*
X7340952Y26679523D01*
X7388571Y26631904D01*
X7483809Y26584285D01*
D15*
X10204523Y12638333D02*
X10204523Y12033571D01*
X8934523Y12033571D01*
X10204523Y13726904D02*
X10204523Y13001190D01*
X10204523Y13364047D02*
X8934523Y13364047D01*
X9115952Y13243095D01*
X9236904Y13122142D01*
X9297380Y13001190D01*
D12*
X22856666Y27437619D02*
X22856666Y26723333D01*
X22809047Y26580476D01*
X22713809Y26485238D01*
X22570952Y26437619D01*
X22475714Y26437619D01*
X23285238Y27342380D02*
X23332857Y27390000D01*
X23428095Y27437619D01*
X23666190Y27437619D01*
X23761428Y27390000D01*
X23809047Y27342380D01*
X23856666Y27247142D01*
X23856666Y27151904D01*
X23809047Y27009047D01*
X23237619Y26437619D01*
X23856666Y26437619D01*
X14543333Y24887619D02*
X14210000Y25363809D01*
X13971904Y24887619D02*
X13971904Y25887619D01*
X14352857Y25887619D01*
X14448095Y25840000D01*
X14495714Y25792380D01*
X14543333Y25697142D01*
X14543333Y25554285D01*
X14495714Y25459047D01*
X14448095Y25411428D01*
X14352857Y25363809D01*
X13971904Y25363809D01*
X14876666Y25887619D02*
X15543333Y25887619D01*
X15114761Y24887619D01*
X377142Y19342857D02*
X329523Y19295238D01*
X186666Y19247619D01*
X91428Y19247619D01*
X-51428Y19295238D01*
X-146666Y19390476D01*
X-194285Y19485714D01*
X-241904Y19676190D01*
X-241904Y19819047D01*
X-194285Y20009523D01*
X-146666Y20104761D01*
X-51428Y20200000D01*
X91428Y20247619D01*
X186666Y20247619D01*
X329523Y20200000D01*
X377142Y20152380D01*
X1329523Y19247619D02*
X758095Y19247619D01*
X1043809Y19247619D02*
X1043809Y20247619D01*
X948571Y20104761D01*
X853333Y20009523D01*
X758095Y19961904D01*
X1948571Y20247619D02*
X2043809Y20247619D01*
X2139047Y20200000D01*
X2186666Y20152380D01*
X2234285Y20057142D01*
X2281904Y19866666D01*
X2281904Y19628571D01*
X2234285Y19438095D01*
X2186666Y19342857D01*
X2139047Y19295238D01*
X2043809Y19247619D01*
X1948571Y19247619D01*
X1853333Y19295238D01*
X1805714Y19342857D01*
X1758095Y19438095D01*
X1710476Y19628571D01*
X1710476Y19866666D01*
X1758095Y20057142D01*
X1805714Y20152380D01*
X1853333Y20200000D01*
X1948571Y20247619D01*
X-9403333Y4597619D02*
X-9403333Y3883333D01*
X-9450952Y3740476D01*
X-9546190Y3645238D01*
X-9689047Y3597619D01*
X-9784285Y3597619D01*
X-8498571Y4264285D02*
X-8498571Y3597619D01*
X-8736666Y4645238D02*
X-8974761Y3930952D01*
X-8355714Y3930952D01*
X333333Y-9062380D02*
X0Y-8586190D01*
X-238095Y-9062380D02*
X-238095Y-8062380D01*
X142857Y-8062380D01*
X238095Y-8110000D01*
X285714Y-8157619D01*
X333333Y-8252857D01*
X333333Y-8395714D01*
X285714Y-8490952D01*
X238095Y-8538571D01*
X142857Y-8586190D01*
X-238095Y-8586190D01*
X714285Y-8157619D02*
X761904Y-8110000D01*
X857142Y-8062380D01*
X1095238Y-8062380D01*
X1190476Y-8110000D01*
X1238095Y-8157619D01*
X1285714Y-8252857D01*
X1285714Y-8348095D01*
X1238095Y-8490952D01*
X666666Y-9062380D01*
X1285714Y-9062380D01*
X18536666Y10477619D02*
X18536666Y9763333D01*
X18489047Y9620476D01*
X18393809Y9525238D01*
X18250952Y9477619D01*
X18155714Y9477619D01*
X19536666Y9477619D02*
X18965238Y9477619D01*
X19250952Y9477619D02*
X19250952Y10477619D01*
X19155714Y10334761D01*
X19060476Y10239523D01*
X18965238Y10191904D01*
X45023333Y9097619D02*
X44690000Y9573809D01*
X44451904Y9097619D02*
X44451904Y10097619D01*
X44832857Y10097619D01*
X44928095Y10050000D01*
X44975714Y10002380D01*
X45023333Y9907142D01*
X45023333Y9764285D01*
X44975714Y9669047D01*
X44928095Y9621428D01*
X44832857Y9573809D01*
X44451904Y9573809D01*
X45880476Y9764285D02*
X45880476Y9097619D01*
X45642380Y10145238D02*
X45404285Y9430952D01*
X46023333Y9430952D01*
X333333Y-7022380D02*
X0Y-6546190D01*
X-238095Y-7022380D02*
X-238095Y-6022380D01*
X142857Y-6022380D01*
X238095Y-6070000D01*
X285714Y-6117619D01*
X333333Y-6212857D01*
X333333Y-6355714D01*
X285714Y-6450952D01*
X238095Y-6498571D01*
X142857Y-6546190D01*
X-238095Y-6546190D01*
X1285714Y-7022380D02*
X714285Y-7022380D01*
X999999Y-7022380D02*
X999999Y-6022380D01*
X904761Y-6165238D01*
X809523Y-6260476D01*
X714285Y-6308095D01*
X43392380Y14266666D02*
X44106666Y14266666D01*
X44249523Y14219047D01*
X44344761Y14123809D01*
X44392380Y13980952D01*
X44392380Y13885714D01*
X43392380Y14647619D02*
X43392380Y15266666D01*
X43773333Y14933333D01*
X43773333Y15076190D01*
X43820952Y15171428D01*
X43868571Y15219047D01*
X43963809Y15266666D01*
X44201904Y15266666D01*
X44297142Y15219047D01*
X44344761Y15171428D01*
X44392380Y15076190D01*
X44392380Y14790476D01*
X44344761Y14695238D01*
X44297142Y14647619D01*
D10*
X10623809Y22537619D02*
X10623809Y23537619D01*
X11671428Y22632857D02*
X11623809Y22585238D01*
X11480952Y22537619D01*
X11385714Y22537619D01*
X11242857Y22585238D01*
X11147619Y22680476D01*
X11100000Y22775714D01*
X11052380Y22966190D01*
X11052380Y23109047D01*
X11100000Y23299523D01*
X11147619Y23394761D01*
X11242857Y23490000D01*
X11385714Y23537619D01*
X11480952Y23537619D01*
X11623809Y23490000D01*
X11671428Y23442380D01*
X12052380Y23442380D02*
X12100000Y23490000D01*
X12195238Y23537619D01*
X12433333Y23537619D01*
X12528571Y23490000D01*
X12576190Y23442380D01*
X12623809Y23347142D01*
X12623809Y23251904D01*
X12576190Y23109047D01*
X12004761Y22537619D01*
X12623809Y22537619D01*
D12*
X16973333Y19792857D02*
X16925714Y19745238D01*
X16782857Y19697619D01*
X16687619Y19697619D01*
X16544761Y19745238D01*
X16449523Y19840476D01*
X16401904Y19935714D01*
X16354285Y20126190D01*
X16354285Y20269047D01*
X16401904Y20459523D01*
X16449523Y20554761D01*
X16544761Y20650000D01*
X16687619Y20697619D01*
X16782857Y20697619D01*
X16925714Y20650000D01*
X16973333Y20602380D01*
X17449523Y19697619D02*
X17640000Y19697619D01*
X17735238Y19745238D01*
X17782857Y19792857D01*
X17878095Y19935714D01*
X17925714Y20126190D01*
X17925714Y20507142D01*
X17878095Y20602380D01*
X17830476Y20650000D01*
X17735238Y20697619D01*
X17544761Y20697619D01*
X17449523Y20650000D01*
X17401904Y20602380D01*
X17354285Y20507142D01*
X17354285Y20269047D01*
X17401904Y20173809D01*
X17449523Y20126190D01*
X17544761Y20078571D01*
X17735238Y20078571D01*
X17830476Y20126190D01*
X17878095Y20173809D01*
X17925714Y20269047D01*
X50732380Y4583333D02*
X50256190Y4250000D01*
X50732380Y4011904D02*
X49732380Y4011904D01*
X49732380Y4392857D01*
X49780000Y4488095D01*
X49827619Y4535714D01*
X49922857Y4583333D01*
X50065714Y4583333D01*
X50160952Y4535714D01*
X50208571Y4488095D01*
X50256190Y4392857D01*
X50256190Y4011904D01*
X49732380Y5488095D02*
X49732380Y5011904D01*
X50208571Y4964285D01*
X50160952Y5011904D01*
X50113333Y5107142D01*
X50113333Y5345238D01*
X50160952Y5440476D01*
X50208571Y5488095D01*
X50303809Y5535714D01*
X50541904Y5535714D01*
X50637142Y5488095D01*
X50684761Y5440476D01*
X50732380Y5345238D01*
X50732380Y5107142D01*
X50684761Y5011904D01*
X50637142Y4964285D01*
X52027142Y4613333D02*
X52074761Y4565714D01*
X52122380Y4422857D01*
X52122380Y4327619D01*
X52074761Y4184761D01*
X51979523Y4089523D01*
X51884285Y4041904D01*
X51693809Y3994285D01*
X51550952Y3994285D01*
X51360476Y4041904D01*
X51265238Y4089523D01*
X51170000Y4184761D01*
X51122380Y4327619D01*
X51122380Y4422857D01*
X51170000Y4565714D01*
X51217619Y4613333D01*
X52122380Y5565714D02*
X52122380Y4994285D01*
X52122380Y5280000D02*
X51122380Y5280000D01*
X51265238Y5184761D01*
X51360476Y5089523D01*
X51408095Y4994285D01*
X42926666Y6707619D02*
X42926666Y5993333D01*
X42879047Y5850476D01*
X42783809Y5755238D01*
X42640952Y5707619D01*
X42545714Y5707619D01*
X43879047Y6707619D02*
X43402857Y6707619D01*
X43355238Y6231428D01*
X43402857Y6279047D01*
X43498095Y6326666D01*
X43736190Y6326666D01*
X43831428Y6279047D01*
X43879047Y6231428D01*
X43926666Y6136190D01*
X43926666Y5898095D01*
X43879047Y5802857D01*
X43831428Y5755238D01*
X43736190Y5707619D01*
X43498095Y5707619D01*
X43402857Y5755238D01*
X43355238Y5802857D01*
X49202380Y4001904D02*
X48202380Y4001904D01*
X48202380Y4240000D01*
X48250000Y4382857D01*
X48345238Y4478095D01*
X48440476Y4525714D01*
X48630952Y4573333D01*
X48773809Y4573333D01*
X48964285Y4525714D01*
X49059523Y4478095D01*
X49154761Y4382857D01*
X49202380Y4240000D01*
X49202380Y4001904D01*
X49202380Y5525714D02*
X49202380Y4954285D01*
X49202380Y5240000D02*
X48202380Y5240000D01*
X48345238Y5144761D01*
X48440476Y5049523D01*
X48488095Y4954285D01*
X1333333Y16662857D02*
X1285714Y16615238D01*
X1142857Y16567619D01*
X1047619Y16567619D01*
X904761Y16615238D01*
X809523Y16710476D01*
X761904Y16805714D01*
X714285Y16996190D01*
X714285Y17139047D01*
X761904Y17329523D01*
X809523Y17424761D01*
X904761Y17520000D01*
X1047619Y17567619D01*
X1142857Y17567619D01*
X1285714Y17520000D01*
X1333333Y17472380D01*
X1714285Y17472380D02*
X1761904Y17520000D01*
X1857142Y17567619D01*
X2095238Y17567619D01*
X2190476Y17520000D01*
X2238095Y17472380D01*
X2285714Y17377142D01*
X2285714Y17281904D01*
X2238095Y17139047D01*
X1666666Y16567619D01*
X2285714Y16567619D01*
X16983333Y21792857D02*
X16935714Y21745238D01*
X16792857Y21697619D01*
X16697619Y21697619D01*
X16554761Y21745238D01*
X16459523Y21840476D01*
X16411904Y21935714D01*
X16364285Y22126190D01*
X16364285Y22269047D01*
X16411904Y22459523D01*
X16459523Y22554761D01*
X16554761Y22650000D01*
X16697619Y22697619D01*
X16792857Y22697619D01*
X16935714Y22650000D01*
X16983333Y22602380D01*
X17316666Y22697619D02*
X17935714Y22697619D01*
X17602380Y22316666D01*
X17745238Y22316666D01*
X17840476Y22269047D01*
X17888095Y22221428D01*
X17935714Y22126190D01*
X17935714Y21888095D01*
X17888095Y21792857D01*
X17840476Y21745238D01*
X17745238Y21697619D01*
X17459523Y21697619D01*
X17364285Y21745238D01*
X17316666Y21792857D01*
D11*
X51205000Y-25737064D02*
X51205000Y-25282936D01*
X49735000Y-25737064D02*
X49735000Y-25282936D01*
X49135000Y-25727064D02*
X49135000Y-25272936D01*
X47665000Y-25727064D02*
X47665000Y-25272936D01*
X47055000Y-25727064D02*
X47055000Y-25272936D01*
X45585000Y-25727064D02*
X45585000Y-25272936D01*
X49510000Y-21010000D02*
X49510000Y-23695000D01*
X49510000Y-23695000D02*
X51430000Y-23695000D01*
X51430000Y-23695000D02*
X51430000Y-21010000D01*
X49360000Y-23695000D02*
X49360000Y-21010000D01*
X47440000Y-23695000D02*
X49360000Y-23695000D01*
X47440000Y-21010000D02*
X47440000Y-23695000D01*
X47280000Y-23695000D02*
X47280000Y-21010000D01*
X45360000Y-23695000D02*
X47280000Y-23695000D01*
X45360000Y-21010000D02*
X45360000Y-23695000D01*
D10*
X-1700000Y-16390000D02*
X-1700000Y-12690000D01*
X-1700000Y-12690000D02*
X4800000Y-12690000D01*
X4800000Y-12690000D02*
X4800000Y-16390000D01*
X-1950000Y-18215000D02*
X-1950000Y-16740000D01*
X4800000Y-16390000D02*
X-1700000Y-16390000D01*
D11*
X9520000Y27710000D02*
X10920000Y27710000D01*
X11620000Y27010000D02*
X11620000Y26410000D01*
X8820000Y26410000D02*
X8820000Y27010000D01*
X10920000Y25710000D02*
X9520000Y25710000D01*
X8820000Y26410000D02*
G75*
G03*
X9520000Y25710000I699999J-1D01*
G01*
X10920000Y25710000D02*
G75*
G03*
X11620000Y26410000I1J699999D01*
G01*
X11620000Y27010000D02*
G75*
G03*
X10920000Y27710000I-699999J1D01*
G01*
X9520000Y27710000D02*
G75*
G03*
X8820000Y27010000I-1J-699999D01*
G01*
X14208748Y17405000D02*
X14731252Y17405000D01*
X14208748Y18875000D02*
X14731252Y18875000D01*
X23010000Y11670000D02*
X23010000Y12170000D01*
X27010000Y12170000D02*
X27210000Y12170000D01*
X21810000Y15880000D02*
X21510000Y15880000D01*
X31610000Y15170000D02*
X31610000Y15780000D01*
X25110000Y11670000D02*
X25110000Y12170000D01*
X34170000Y13170000D02*
X33560000Y13170000D01*
X23010000Y12170000D02*
X23210000Y12170000D01*
X20050000Y13170000D02*
X20660000Y13170000D01*
X21000000Y16080000D02*
X19750000Y16080000D01*
X29210000Y12170000D02*
X29210000Y11670000D01*
X33560000Y11670000D02*
X33560000Y15170000D01*
X27210000Y12170000D02*
X27210000Y11670000D01*
X31110000Y11670000D02*
X31110000Y12170000D01*
X29010000Y11670000D02*
X29010000Y12170000D01*
X21810000Y15980000D02*
X21510000Y15980000D01*
X23110000Y11670000D02*
X23110000Y12170000D01*
X34170000Y15780000D02*
X20050000Y15780000D01*
X31010000Y11670000D02*
X31010000Y12170000D01*
X20050000Y14470000D02*
X20660000Y14470000D01*
X29010000Y12170000D02*
X29210000Y12170000D01*
X20050000Y15780000D02*
X20050000Y11060000D01*
X25010000Y12170000D02*
X25210000Y12170000D01*
X27110000Y11670000D02*
X27110000Y12170000D01*
X23210000Y12170000D02*
X23210000Y11670000D01*
X20050000Y11060000D02*
X34170000Y11060000D01*
X27010000Y11670000D02*
X27010000Y12170000D01*
X25210000Y12170000D02*
X25210000Y11670000D01*
X31210000Y12170000D02*
X31210000Y11670000D01*
X34170000Y14470000D02*
X33560000Y14470000D01*
X20660000Y15170000D02*
X20660000Y11670000D01*
X33560000Y15170000D02*
X31610000Y15170000D01*
X22610000Y15780000D02*
X22610000Y15170000D01*
X21510000Y15980000D02*
X21510000Y15780000D01*
X25010000Y11670000D02*
X25010000Y12170000D01*
X21810000Y15780000D02*
X21810000Y15980000D01*
X34170000Y11060000D02*
X34170000Y15780000D01*
X31010000Y12170000D02*
X31210000Y12170000D01*
X20660000Y11670000D02*
X33560000Y11670000D01*
X19750000Y16080000D02*
X19750000Y14830000D01*
X22610000Y15170000D02*
X20660000Y15170000D01*
X29110000Y11670000D02*
X29110000Y12170000D01*
X5400000Y23234437D02*
X4335563Y22170000D01*
X5952500Y22932500D02*
X5952500Y23557500D01*
X4335563Y27690000D02*
X-120000Y27690000D01*
X6265000Y23245000D02*
X5640000Y23245000D01*
X-120000Y22170000D02*
X-120000Y23870000D01*
X5400000Y26625563D02*
X5400000Y25990000D01*
X5400000Y23234437D02*
X5400000Y23870000D01*
X-120000Y27690000D02*
X-120000Y25990000D01*
X5400000Y26625563D02*
X4335563Y27690000D01*
X4335563Y22170000D02*
X-120000Y22170000D01*
X14575000Y9525000D02*
X14575000Y10150000D01*
X19020000Y15910000D02*
X17320000Y15910000D01*
X19020000Y11454437D02*
X19020000Y15910000D01*
X13500000Y11454437D02*
X13500000Y15910000D01*
X17955563Y10390000D02*
X19020000Y11454437D01*
X14262500Y9837500D02*
X14887500Y9837500D01*
X14564437Y10390000D02*
X13500000Y11454437D01*
X13500000Y15910000D02*
X15200000Y15910000D01*
X14564437Y10390000D02*
X15200000Y10390000D01*
X17955563Y10390000D02*
X17320000Y10390000D01*
X1284437Y9570000D02*
X220000Y10634437D01*
X220000Y15090000D02*
X1920000Y15090000D01*
X1284437Y9570000D02*
X1920000Y9570000D01*
X5740000Y15090000D02*
X4040000Y15090000D01*
X220000Y10634437D02*
X220000Y15090000D01*
X5740000Y10634437D02*
X5740000Y15090000D01*
X4675563Y9570000D02*
X5740000Y10634437D01*
X982500Y9017500D02*
X1607500Y9017500D01*
X1295000Y8705000D02*
X1295000Y9330000D01*
X4675563Y9570000D02*
X4040000Y9570000D01*
X-22230000Y-970000D02*
X-22230000Y980000D01*
X-12110000Y-970000D02*
X-12110000Y980000D01*
X-22230000Y-970000D02*
X-22230000Y-4420000D01*
X-12110000Y-970000D02*
X-12110000Y-2920000D01*
G36*
X13473628Y-10743376D02*
G01*
X13469028Y-10846431D01*
X13440719Y-10894351D01*
X13366934Y-10912104D01*
X13323069Y-10916081D01*
X13205417Y-10911954D01*
X13151130Y-10872562D01*
X13149814Y-10869387D01*
X13137235Y-10786803D01*
X13140120Y-10696681D01*
X13156615Y-10623437D01*
X13199957Y-10591029D01*
X13294972Y-10583187D01*
X13313376Y-10583123D01*
X13473628Y-10583123D01*
X13473628Y-10743376D01*
G37*
G36*
X15657066Y-4072871D02*
G01*
X15657066Y-6596846D01*
X13133092Y-6596846D01*
X13133092Y-6236278D01*
X13493660Y-6236278D01*
X15296499Y-6236278D01*
X15296499Y-4433439D01*
X13493660Y-4433439D01*
X13493660Y-6236278D01*
X13133092Y-6236278D01*
X13133092Y-4072871D01*
X15657066Y-4072871D01*
G37*
G36*
X13493660Y-7137697D02*
G01*
X13512498Y-7241317D01*
X13551586Y-7291093D01*
X13636995Y-7313098D01*
X13673943Y-7317981D01*
X13776361Y-7335472D01*
X13822006Y-7370529D01*
X13833812Y-7448952D01*
X13834196Y-7498265D01*
X13829508Y-7601268D01*
X13800156Y-7650583D01*
X13723209Y-7672007D01*
X13673943Y-7678549D01*
X13513691Y-7698581D01*
X13493660Y-8039117D01*
X13473628Y-8379653D01*
X13142476Y-8391299D01*
X12963868Y-8393622D01*
X12853679Y-8384515D01*
X12800847Y-8362707D01*
X12793646Y-8351236D01*
X12777017Y-8275303D01*
X12764231Y-8179338D01*
X12752492Y-8059148D01*
X12411956Y-8039117D01*
X12071420Y-8019085D01*
X12071420Y-7858833D01*
X12076108Y-7755830D01*
X12105460Y-7706515D01*
X12182407Y-7685091D01*
X12231672Y-7678549D01*
X12335292Y-7659711D01*
X12385068Y-7620623D01*
X12407073Y-7535213D01*
X12411956Y-7498265D01*
X12430794Y-7394646D01*
X12469883Y-7344869D01*
X12555292Y-7322865D01*
X12592240Y-7317981D01*
X12695859Y-7299143D01*
X12745636Y-7260055D01*
X12767641Y-7174645D01*
X12772524Y-7137697D01*
X12792555Y-6977445D01*
X13473628Y-6977445D01*
X13493660Y-7137697D01*
G37*
G36*
X12752492Y-4773975D02*
G01*
X12411956Y-4794007D01*
X12071420Y-4814038D01*
X12051388Y-4974290D01*
X12032550Y-5077910D01*
X11993462Y-5127686D01*
X11908052Y-5149691D01*
X11871104Y-5154574D01*
X11767485Y-5173413D01*
X11717708Y-5212501D01*
X11695704Y-5297910D01*
X11690820Y-5334858D01*
X11673330Y-5437275D01*
X11638272Y-5482921D01*
X11559850Y-5494727D01*
X11510537Y-5495111D01*
X11407533Y-5490422D01*
X11358218Y-5461070D01*
X11336794Y-5384124D01*
X11330253Y-5334858D01*
X11311414Y-5231239D01*
X11272326Y-5181462D01*
X11186917Y-5159458D01*
X11149969Y-5154574D01*
X11046349Y-5135736D01*
X10996573Y-5096648D01*
X10974568Y-5011238D01*
X10969685Y-4974290D01*
X10952194Y-4871873D01*
X10917137Y-4826227D01*
X10838714Y-4814422D01*
X10789401Y-4814038D01*
X10629148Y-4814038D01*
X10629148Y-4974290D01*
X10633837Y-5077294D01*
X10663189Y-5126608D01*
X10740136Y-5148033D01*
X10789401Y-5154574D01*
X10891818Y-5172065D01*
X10937464Y-5207122D01*
X10949270Y-5285545D01*
X10949653Y-5334858D01*
X10944965Y-5437861D01*
X10915613Y-5487176D01*
X10838666Y-5508600D01*
X10789401Y-5515142D01*
X10685781Y-5533981D01*
X10636005Y-5573069D01*
X10614000Y-5658478D01*
X10609117Y-5695426D01*
X10590524Y-5798718D01*
X10553139Y-5846973D01*
X10472386Y-5865070D01*
X10438527Y-5868132D01*
X10320603Y-5863543D01*
X10269981Y-5828069D01*
X10253112Y-5751462D01*
X10240256Y-5655363D01*
X10223467Y-5576380D01*
X10177292Y-5536692D01*
X10077169Y-5516273D01*
X10068265Y-5515142D01*
X9964646Y-5496304D01*
X9914869Y-5457216D01*
X9892865Y-5371806D01*
X9887981Y-5334858D01*
X9869143Y-5231239D01*
X9830055Y-5181462D01*
X9744645Y-5159458D01*
X9707697Y-5154574D01*
X9605280Y-5137084D01*
X9559634Y-5102026D01*
X9547829Y-5023604D01*
X9547445Y-4974290D01*
X9547445Y-4814038D01*
X9887981Y-4794007D01*
X10228518Y-4773975D01*
X10248549Y-4613723D01*
X10268581Y-4453470D01*
X10609117Y-4433439D01*
X10949653Y-4413407D01*
X10969685Y-4253155D01*
X10987175Y-4150738D01*
X11022233Y-4105092D01*
X11100655Y-4093286D01*
X11149969Y-4092902D01*
X11252972Y-4097591D01*
X11302287Y-4126943D01*
X11323711Y-4203889D01*
X11330253Y-4253155D01*
X11347743Y-4355572D01*
X11382801Y-4401218D01*
X11461223Y-4413024D01*
X11510537Y-4413407D01*
X11613540Y-4408719D01*
X11662855Y-4379367D01*
X11684279Y-4302420D01*
X11690820Y-4253155D01*
X11708311Y-4150738D01*
X11743368Y-4105092D01*
X11821791Y-4093286D01*
X11871104Y-4092902D01*
X11974107Y-4097591D01*
X12023422Y-4126943D01*
X12044846Y-4203889D01*
X12051388Y-4253155D01*
X12068879Y-4355572D01*
X12103936Y-4401218D01*
X12182359Y-4413024D01*
X12231672Y-4413407D01*
X12334675Y-4408719D01*
X12383990Y-4379367D01*
X12405414Y-4302420D01*
X12411956Y-4253155D01*
X12429446Y-4150738D01*
X12464504Y-4105092D01*
X12542927Y-4093286D01*
X12592240Y-4092902D01*
X12752492Y-4092902D01*
X12752492Y-4773975D01*
G37*
G36*
X15276467Y-7498265D02*
G01*
X15271867Y-7601320D01*
X15243558Y-7649241D01*
X15169773Y-7666993D01*
X15125909Y-7670971D01*
X15008256Y-7666844D01*
X14953969Y-7627451D01*
X14952653Y-7624276D01*
X14940074Y-7541692D01*
X14942959Y-7451571D01*
X14959454Y-7378326D01*
X15002796Y-7345919D01*
X15097811Y-7338077D01*
X15116215Y-7338013D01*
X15276467Y-7338013D01*
X15276467Y-7498265D01*
G37*
G36*
X15637035Y-9461357D02*
G01*
X15305883Y-9473003D01*
X15133997Y-9475938D01*
X15027103Y-9468728D01*
X14970488Y-9449429D01*
X14952343Y-9426308D01*
X14939999Y-9344410D01*
X14942959Y-9254410D01*
X14955962Y-9140852D01*
X15637035Y-9140852D01*
X15637035Y-9461357D01*
G37*
G36*
X7343975Y-9661672D02*
G01*
X7339375Y-9764727D01*
X7311066Y-9812648D01*
X7237281Y-9830400D01*
X7193416Y-9834378D01*
X7075764Y-9830251D01*
X7021477Y-9790858D01*
X7020161Y-9787683D01*
X7007582Y-9705099D01*
X7010467Y-9614978D01*
X7026962Y-9541733D01*
X7070304Y-9509326D01*
X7165319Y-9501484D01*
X7183723Y-9501420D01*
X7343975Y-9501420D01*
X7343975Y-9661672D01*
G37*
G36*
X10589085Y-12546215D02*
G01*
X10584486Y-12649270D01*
X10556176Y-12697190D01*
X10482391Y-12714943D01*
X10438527Y-12718920D01*
X10320874Y-12714793D01*
X10266588Y-12675401D01*
X10265271Y-12672226D01*
X10252692Y-12589642D01*
X10255577Y-12499520D01*
X10272072Y-12426276D01*
X10315414Y-12393868D01*
X10410429Y-12386026D01*
X10428833Y-12385962D01*
X10589085Y-12385962D01*
X10589085Y-12546215D01*
G37*
G36*
X10228518Y-6055994D02*
G01*
X10223918Y-6159049D01*
X10195608Y-6206969D01*
X10121823Y-6224722D01*
X10077959Y-6228700D01*
X9960306Y-6224572D01*
X9906020Y-6185180D01*
X9904703Y-6182005D01*
X9892124Y-6099421D01*
X9895009Y-6009299D01*
X9911504Y-5936055D01*
X9954847Y-5903647D01*
X10049861Y-5895805D01*
X10068265Y-5895742D01*
X10228518Y-5895742D01*
X10228518Y-6055994D01*
G37*
G36*
X7704543Y-7297950D02*
G01*
X7192943Y-7309168D01*
X6974788Y-7312364D01*
X6824421Y-7310007D01*
X6729631Y-7301027D01*
X6678204Y-7284359D01*
X6659119Y-7262474D01*
X6646899Y-7180939D01*
X6649899Y-7091003D01*
X6662902Y-6977445D01*
X7704543Y-6977445D01*
X7704543Y-7297950D01*
G37*
G36*
X7704543Y-7858833D02*
G01*
X7699943Y-7961888D01*
X7671634Y-8009808D01*
X7597849Y-8027561D01*
X7553984Y-8031539D01*
X7436332Y-8027411D01*
X7382045Y-7988019D01*
X7380728Y-7984844D01*
X7368149Y-7902260D01*
X7371035Y-7812138D01*
X7387530Y-7738894D01*
X7430872Y-7706486D01*
X7525886Y-7698644D01*
X7544290Y-7698581D01*
X7704543Y-7698581D01*
X7704543Y-7858833D01*
G37*
G36*
X12752492Y-6576814D02*
G01*
X12592240Y-6576814D01*
X12489237Y-6572126D01*
X12439922Y-6542774D01*
X12418498Y-6465827D01*
X12411956Y-6416562D01*
X12394466Y-6314145D01*
X12359408Y-6268499D01*
X12280985Y-6256693D01*
X12231672Y-6256309D01*
X12128669Y-6260998D01*
X12079354Y-6290350D01*
X12057930Y-6367296D01*
X12051388Y-6416562D01*
X12032796Y-6519854D01*
X11995410Y-6568109D01*
X11914658Y-6586206D01*
X11880798Y-6589267D01*
X11759778Y-6584089D01*
X11708648Y-6545455D01*
X11699610Y-6479645D01*
X11695955Y-6358793D01*
X11698370Y-6207843D01*
X11698955Y-6192465D01*
X11710852Y-5895742D01*
X11871104Y-5875710D01*
X12031357Y-5855678D01*
X12051388Y-5515142D01*
X12071420Y-5174606D01*
X12752492Y-5174606D01*
X12752492Y-6576814D01*
G37*
G36*
X14555331Y-7858833D02*
G01*
X14550732Y-7961888D01*
X14522422Y-8009808D01*
X14448637Y-8027561D01*
X14404773Y-8031539D01*
X14287120Y-8027411D01*
X14232834Y-7988019D01*
X14231517Y-7984844D01*
X14218938Y-7902260D01*
X14221823Y-7812138D01*
X14238318Y-7738894D01*
X14281660Y-7706486D01*
X14376675Y-7698644D01*
X14395079Y-7698581D01*
X14555331Y-7698581D01*
X14555331Y-7858833D01*
G37*
G36*
X11871104Y-10563092D02*
G01*
X11350284Y-10543060D01*
X11350284Y-10382808D01*
X11354972Y-10279805D01*
X11384324Y-10230490D01*
X11461271Y-10209066D01*
X11510537Y-10202524D01*
X11612954Y-10185034D01*
X11658599Y-10149976D01*
X11670405Y-10071553D01*
X11670789Y-10022240D01*
X11670789Y-9861988D01*
X11330253Y-9841956D01*
X10989716Y-9821925D01*
X10969685Y-9661672D01*
X10950846Y-9558053D01*
X10911758Y-9508276D01*
X10826349Y-9486271D01*
X10789401Y-9481388D01*
X10629148Y-9461357D01*
X10629148Y-8780284D01*
X10789401Y-8760253D01*
X10893020Y-8741414D01*
X10942797Y-8702326D01*
X10964802Y-8616917D01*
X10969685Y-8579969D01*
X10989716Y-8419716D01*
X11670789Y-8419716D01*
X11690820Y-8940537D01*
X11710852Y-9461357D01*
X11871104Y-9481388D01*
X12031357Y-9501420D01*
X12051388Y-9841956D01*
X12071420Y-10182492D01*
X12391925Y-10182492D01*
X12411956Y-9841956D01*
X12431988Y-9501420D01*
X12592240Y-9501420D01*
X12695243Y-9506108D01*
X12744558Y-9535460D01*
X12765982Y-9612407D01*
X12772524Y-9661672D01*
X12790014Y-9764089D01*
X12825072Y-9809735D01*
X12903495Y-9821541D01*
X12952808Y-9821925D01*
X13113060Y-9821925D01*
X13113060Y-9661672D01*
X13108372Y-9558669D01*
X13079020Y-9509354D01*
X13002073Y-9487930D01*
X12952808Y-9481388D01*
X12850391Y-9463898D01*
X12804745Y-9428840D01*
X12792939Y-9350418D01*
X12792555Y-9301104D01*
X12792555Y-9140852D01*
X13473628Y-9140852D01*
X13493660Y-9301104D01*
X13512498Y-9404724D01*
X13551586Y-9454500D01*
X13636995Y-9476505D01*
X13673943Y-9481388D01*
X13777563Y-9500227D01*
X13827339Y-9539315D01*
X13849344Y-9624724D01*
X13854227Y-9661672D01*
X13873066Y-9765292D01*
X13912154Y-9815068D01*
X13997563Y-9837073D01*
X14034511Y-9841956D01*
X14194764Y-9861988D01*
X14214795Y-10202524D01*
X14234827Y-10543060D01*
X14395079Y-10563092D01*
X14555331Y-10583123D01*
X14555331Y-11264196D01*
X14395079Y-11284227D01*
X14292662Y-11301718D01*
X14247016Y-11336775D01*
X14235210Y-11415198D01*
X14234827Y-11464511D01*
X14239515Y-11567514D01*
X14268867Y-11616829D01*
X14345814Y-11638253D01*
X14395079Y-11644795D01*
X14555331Y-11664827D01*
X14595395Y-12345899D01*
X14755647Y-12365931D01*
X14858064Y-12383421D01*
X14903710Y-12418479D01*
X14915516Y-12496901D01*
X14915899Y-12546215D01*
X14915899Y-12706467D01*
X14575363Y-12726499D01*
X14234827Y-12746530D01*
X14214795Y-12906783D01*
X14197305Y-13009200D01*
X14162247Y-13054846D01*
X14083825Y-13066651D01*
X14034511Y-13067035D01*
X13931508Y-13062347D01*
X13882193Y-13032995D01*
X13860769Y-12956048D01*
X13854227Y-12906783D01*
X13835389Y-12803163D01*
X13796301Y-12753387D01*
X13710891Y-12731382D01*
X13673943Y-12726499D01*
X13570324Y-12707660D01*
X13520548Y-12668572D01*
X13498543Y-12583163D01*
X13493660Y-12546215D01*
X13474821Y-12442595D01*
X13435733Y-12392819D01*
X13350324Y-12370814D01*
X13313376Y-12365931D01*
X13210959Y-12348440D01*
X13165313Y-12313383D01*
X13153507Y-12234960D01*
X13153123Y-12185647D01*
X13153123Y-12025395D01*
X13834196Y-12025395D01*
X13854227Y-12185647D01*
X13871718Y-12288064D01*
X13906775Y-12333710D01*
X13985198Y-12345516D01*
X14034511Y-12345899D01*
X14194764Y-12345899D01*
X14194764Y-12185647D01*
X14190075Y-12082644D01*
X14160723Y-12033329D01*
X14083777Y-12011905D01*
X14034511Y-12005363D01*
X13930892Y-11986525D01*
X13881115Y-11947436D01*
X13859111Y-11862027D01*
X13854227Y-11825079D01*
X13834196Y-11664827D01*
X12792555Y-11664827D01*
X12792555Y-12345899D01*
X12952808Y-12365931D01*
X13055225Y-12383421D01*
X13100871Y-12418479D01*
X13112677Y-12496901D01*
X13113060Y-12546215D01*
X13113060Y-12706467D01*
X12772524Y-12726499D01*
X12431988Y-12746530D01*
X12411956Y-12906783D01*
X12391925Y-13067035D01*
X11710852Y-13067035D01*
X11710852Y-12906783D01*
X11715540Y-12803779D01*
X11744892Y-12754465D01*
X11821839Y-12733040D01*
X11871104Y-12726499D01*
X11973521Y-12709008D01*
X12019167Y-12673951D01*
X12030973Y-12595528D01*
X12031357Y-12546215D01*
X12026669Y-12443212D01*
X11997317Y-12393897D01*
X11920370Y-12372473D01*
X11871104Y-12365931D01*
X11767485Y-12347092D01*
X11717708Y-12308004D01*
X11695704Y-12222595D01*
X11690820Y-12185647D01*
X11673330Y-12083230D01*
X11638272Y-12037584D01*
X11559850Y-12025778D01*
X11510537Y-12025395D01*
X11350284Y-12025395D01*
X11350284Y-12185647D01*
X11354972Y-12288650D01*
X11384324Y-12337965D01*
X11461271Y-12359389D01*
X11510537Y-12365931D01*
X11612954Y-12383421D01*
X11658599Y-12418479D01*
X11670405Y-12496901D01*
X11670789Y-12546215D01*
X11666101Y-12649218D01*
X11636749Y-12698533D01*
X11559802Y-12719957D01*
X11510537Y-12726499D01*
X11406917Y-12745337D01*
X11357141Y-12784425D01*
X11335136Y-12869835D01*
X11330253Y-12906783D01*
X11310221Y-13067035D01*
X10979069Y-13078681D01*
X10807183Y-13081616D01*
X10700289Y-13074406D01*
X10643674Y-13055107D01*
X10625529Y-13031987D01*
X10613185Y-12950089D01*
X10616145Y-12860088D01*
X10635061Y-12784866D01*
X10685294Y-12746569D01*
X10789401Y-12726499D01*
X10891818Y-12709008D01*
X10937464Y-12673951D01*
X10949270Y-12595528D01*
X10949653Y-12546215D01*
X10944965Y-12443212D01*
X10915613Y-12393897D01*
X10838666Y-12372473D01*
X10789401Y-12365931D01*
X10685781Y-12347092D01*
X10636005Y-12308004D01*
X10614000Y-12222595D01*
X10609117Y-12185647D01*
X10589085Y-12025395D01*
X9908013Y-11985331D01*
X9887981Y-11825079D01*
X9869143Y-11721460D01*
X9830055Y-11671683D01*
X9744645Y-11649678D01*
X9707697Y-11644795D01*
X9547445Y-11624764D01*
X9547445Y-10827551D01*
X9893000Y-10827551D01*
X9932105Y-10897157D01*
X10023066Y-10918382D01*
X10077959Y-10916081D01*
X10174423Y-10903207D01*
X10217244Y-10869532D01*
X10228189Y-10790091D01*
X10228518Y-10743376D01*
X10228518Y-10583123D01*
X10068265Y-10583123D01*
X9964245Y-10588869D01*
X9915296Y-10616952D01*
X9896592Y-10683645D01*
X9895009Y-10696681D01*
X9893000Y-10827551D01*
X9547445Y-10827551D01*
X9547445Y-10222555D01*
X9887981Y-10202524D01*
X10228518Y-10182492D01*
X10248549Y-10022240D01*
X10268581Y-9861988D01*
X10949653Y-9861988D01*
X10949653Y-10543060D01*
X10789401Y-10563092D01*
X10686984Y-10580582D01*
X10641338Y-10615640D01*
X10629532Y-10694062D01*
X10629148Y-10743376D01*
X10633837Y-10846379D01*
X10663189Y-10895694D01*
X10740136Y-10917118D01*
X10789401Y-10923660D01*
X10891818Y-10941150D01*
X10937464Y-10976208D01*
X10949270Y-11054630D01*
X10949653Y-11103943D01*
X10944965Y-11206947D01*
X10915613Y-11256261D01*
X10838666Y-11277686D01*
X10789401Y-11284227D01*
X10686984Y-11301718D01*
X10641338Y-11336775D01*
X10629532Y-11415198D01*
X10629148Y-11464511D01*
X10629148Y-11624764D01*
X10789401Y-11624764D01*
X10892404Y-11620075D01*
X10941719Y-11590723D01*
X10963143Y-11513777D01*
X10969685Y-11464511D01*
X10987175Y-11362094D01*
X11022233Y-11316448D01*
X11100655Y-11304643D01*
X11149969Y-11304259D01*
X11252972Y-11308947D01*
X11302287Y-11338299D01*
X11323711Y-11415246D01*
X11330253Y-11464511D01*
X11350284Y-11624764D01*
X12031357Y-11624764D01*
X12051388Y-11464511D01*
X12070227Y-11360892D01*
X12109315Y-11311115D01*
X12194724Y-11289111D01*
X12231672Y-11284227D01*
X12391925Y-11264196D01*
X12391925Y-10892514D01*
X12778409Y-10892514D01*
X12779270Y-11057091D01*
X12783476Y-11176800D01*
X12790422Y-11233019D01*
X12817267Y-11255852D01*
X12884253Y-11270345D01*
X13002480Y-11277382D01*
X13183049Y-11277848D01*
X13322596Y-11275414D01*
X13834196Y-11264196D01*
X13834196Y-10222555D01*
X12792555Y-10222555D01*
X12781202Y-10700980D01*
X12778409Y-10892514D01*
X12391925Y-10892514D01*
X12391925Y-10583123D01*
X11871104Y-10563092D01*
G37*
G36*
X15637035Y-10022240D02*
G01*
X15632435Y-10125295D01*
X15604126Y-10173215D01*
X15530341Y-10190968D01*
X15486476Y-10194946D01*
X15368824Y-10190818D01*
X15314537Y-10151426D01*
X15313221Y-10148251D01*
X15300642Y-10065667D01*
X15303527Y-9975545D01*
X15320022Y-9902301D01*
X15363364Y-9869893D01*
X15458379Y-9862051D01*
X15476783Y-9861988D01*
X15637035Y-9861988D01*
X15637035Y-10022240D01*
G37*
G36*
X10228518Y-7858833D02*
G01*
X10223918Y-7961888D01*
X10195608Y-8009808D01*
X10121823Y-8027561D01*
X10077959Y-8031539D01*
X9960306Y-8027411D01*
X9906020Y-7988019D01*
X9904703Y-7984844D01*
X9892124Y-7902260D01*
X9895009Y-7812138D01*
X9911504Y-7738894D01*
X9954847Y-7706486D01*
X10049861Y-7698644D01*
X10068265Y-7698581D01*
X10228518Y-7698581D01*
X10228518Y-7858833D01*
G37*
G36*
X6983407Y-9301104D02*
G01*
X6978807Y-9404160D01*
X6950498Y-9452080D01*
X6876713Y-9469832D01*
X6832849Y-9473810D01*
X6715196Y-9469683D01*
X6660909Y-9430290D01*
X6659593Y-9427115D01*
X6647014Y-9344531D01*
X6649899Y-9254410D01*
X6666394Y-9181165D01*
X6709736Y-9148758D01*
X6804751Y-9140916D01*
X6823155Y-9140852D01*
X6983407Y-9140852D01*
X6983407Y-9301104D01*
G37*
G36*
X6926158Y-7703269D02*
G01*
X6975473Y-7732621D01*
X6996897Y-7809568D01*
X7003439Y-7858833D01*
X7022277Y-7962452D01*
X7061365Y-8012229D01*
X7146775Y-8034234D01*
X7183723Y-8039117D01*
X7286140Y-8056607D01*
X7331786Y-8091665D01*
X7343591Y-8170088D01*
X7343975Y-8219401D01*
X7343975Y-8379653D01*
X7012823Y-8391299D01*
X6838321Y-8393986D01*
X6729912Y-8386010D01*
X6674065Y-8365689D01*
X6660389Y-8347487D01*
X6651504Y-8282102D01*
X6647959Y-8161594D01*
X6650414Y-8010827D01*
X6651005Y-7995305D01*
X6662902Y-7698581D01*
X6823155Y-7698581D01*
X6926158Y-7703269D01*
G37*
G36*
X9867950Y-8219401D02*
G01*
X9863350Y-8322456D01*
X9835041Y-8370376D01*
X9761256Y-8388129D01*
X9717391Y-8392107D01*
X9599739Y-8387979D01*
X9545452Y-8348587D01*
X9544135Y-8345412D01*
X9531556Y-8262828D01*
X9534442Y-8172706D01*
X9550936Y-8099462D01*
X9594279Y-8067054D01*
X9689293Y-8059212D01*
X9707697Y-8059148D01*
X9867950Y-8059148D01*
X9867950Y-8219401D01*
G37*
G36*
X10228518Y-4253155D02*
G01*
X10223918Y-4356210D01*
X10195608Y-4404130D01*
X10121823Y-4421883D01*
X10077959Y-4425861D01*
X9960306Y-4421733D01*
X9906020Y-4382341D01*
X9904703Y-4379166D01*
X9892124Y-4296582D01*
X9895009Y-4206460D01*
X9911504Y-4133216D01*
X9954847Y-4100808D01*
X10049861Y-4092966D01*
X10068265Y-4092902D01*
X10228518Y-4092902D01*
X10228518Y-4253155D01*
G37*
G36*
X9810701Y-6260998D02*
G01*
X9860015Y-6290350D01*
X9881439Y-6367296D01*
X9887981Y-6416562D01*
X9905472Y-6518979D01*
X9940529Y-6564625D01*
X10018952Y-6576430D01*
X10068265Y-6576814D01*
X10171268Y-6572126D01*
X10220583Y-6542774D01*
X10242007Y-6465827D01*
X10248549Y-6416562D01*
X10266039Y-6314145D01*
X10301097Y-6268499D01*
X10379520Y-6256693D01*
X10428833Y-6256309D01*
X10589085Y-6256309D01*
X10609117Y-6596846D01*
X10629148Y-6937382D01*
X10789401Y-6957413D01*
X10949653Y-6977445D01*
X10949653Y-7658518D01*
X10268581Y-7658518D01*
X10248549Y-7317981D01*
X10228518Y-6977445D01*
X9908013Y-6977445D01*
X9887981Y-7317981D01*
X9867950Y-7658518D01*
X9536798Y-7670164D01*
X9358190Y-7672486D01*
X9248001Y-7663379D01*
X9195169Y-7641571D01*
X9187968Y-7630101D01*
X9171339Y-7554167D01*
X9158552Y-7458202D01*
X9146814Y-7338013D01*
X8625994Y-7317981D01*
X8105174Y-7297950D01*
X8105174Y-6977445D01*
X8806278Y-6957413D01*
X9507382Y-6937382D01*
X9527413Y-6596846D01*
X9547445Y-6256309D01*
X9707697Y-6256309D01*
X9810701Y-6260998D01*
G37*
G36*
X10228518Y-9821925D02*
G01*
X9887981Y-9841956D01*
X9547445Y-9861988D01*
X9527413Y-10022240D01*
X9507382Y-10182492D01*
X9176230Y-10194139D01*
X9004344Y-10197074D01*
X8897450Y-10189864D01*
X8840835Y-10170564D01*
X8822690Y-10147444D01*
X8810346Y-10065546D01*
X8813306Y-9975545D01*
X8832222Y-9900323D01*
X8882455Y-9862027D01*
X8986562Y-9841956D01*
X9090181Y-9823118D01*
X9139958Y-9784030D01*
X9161962Y-9698620D01*
X9166846Y-9661672D01*
X9186877Y-9501420D01*
X9527413Y-9481388D01*
X9867950Y-9461357D01*
X9887981Y-9301104D01*
X9905472Y-9198687D01*
X9940529Y-9153041D01*
X10018952Y-9141236D01*
X10068265Y-9140852D01*
X10228518Y-9140852D01*
X10228518Y-9821925D01*
G37*
G36*
X12391925Y-9461357D02*
G01*
X12241366Y-9473810D01*
X12120345Y-9468631D01*
X12069216Y-9429998D01*
X12060178Y-9364188D01*
X12056523Y-9243336D01*
X12058937Y-9092386D01*
X12059522Y-9077008D01*
X12071420Y-8780284D01*
X12391925Y-8780284D01*
X12391925Y-9461357D01*
G37*
G36*
X14915899Y-10022240D02*
G01*
X14911300Y-10125295D01*
X14882990Y-10173215D01*
X14809205Y-10190968D01*
X14765341Y-10194946D01*
X14647688Y-10190818D01*
X14593402Y-10151426D01*
X14592085Y-10148251D01*
X14579506Y-10065667D01*
X14582391Y-9975545D01*
X14598886Y-9902301D01*
X14642228Y-9869893D01*
X14737243Y-9862051D01*
X14755647Y-9861988D01*
X14915899Y-9861988D01*
X14915899Y-10022240D01*
G37*
G36*
X12031357Y-7658518D02*
G01*
X11871104Y-7678549D01*
X11767485Y-7697387D01*
X11717708Y-7736476D01*
X11695704Y-7821885D01*
X11690820Y-7858833D01*
X11672228Y-7962125D01*
X11634842Y-8010380D01*
X11554090Y-8028477D01*
X11520230Y-8031539D01*
X11399210Y-8026360D01*
X11348081Y-7987726D01*
X11339042Y-7921917D01*
X11335388Y-7801064D01*
X11337802Y-7650115D01*
X11338387Y-7634737D01*
X11350284Y-7338013D01*
X11510537Y-7317981D01*
X11614156Y-7299143D01*
X11663932Y-7260055D01*
X11685937Y-7174645D01*
X11690820Y-7137697D01*
X11708311Y-7035280D01*
X11743368Y-6989634D01*
X11821791Y-6977829D01*
X11871104Y-6977445D01*
X12031357Y-6977445D01*
X12031357Y-7658518D01*
G37*
G36*
X8445710Y-12365931D02*
G01*
X7364007Y-12365931D01*
X7364007Y-11284227D01*
X8445710Y-11284227D01*
X8445710Y-12365931D01*
G37*
G36*
X14915899Y-11464511D02*
G01*
X14911300Y-11567567D01*
X14882990Y-11615487D01*
X14809205Y-11633239D01*
X14765341Y-11637217D01*
X14647688Y-11633090D01*
X14593402Y-11593697D01*
X14592085Y-11590522D01*
X14579506Y-11507938D01*
X14582391Y-11417817D01*
X14598886Y-11344572D01*
X14642228Y-11312165D01*
X14737243Y-11304323D01*
X14755647Y-11304259D01*
X14915899Y-11304259D01*
X14915899Y-11464511D01*
G37*
G36*
X8786246Y-9821925D02*
G01*
X8455094Y-9833571D01*
X8283208Y-9836506D01*
X8176314Y-9829296D01*
X8119699Y-9809997D01*
X8101554Y-9786876D01*
X8089210Y-9704978D01*
X8092170Y-9614978D01*
X8105174Y-9501420D01*
X8786246Y-9501420D01*
X8786246Y-9821925D01*
G37*
G36*
X8065111Y-10022240D02*
G01*
X8060511Y-10125295D01*
X8032201Y-10173215D01*
X7958416Y-10190968D01*
X7914552Y-10194946D01*
X7796899Y-10190818D01*
X7742613Y-10151426D01*
X7741296Y-10148251D01*
X7728717Y-10065667D01*
X7731602Y-9975545D01*
X7748097Y-9902301D01*
X7791440Y-9869893D01*
X7886454Y-9862051D01*
X7904858Y-9861988D01*
X8065111Y-9861988D01*
X8065111Y-10022240D01*
G37*
G36*
X14915899Y-7137697D02*
G01*
X14911300Y-7240753D01*
X14882990Y-7288673D01*
X14809205Y-7306425D01*
X14765341Y-7310403D01*
X14647688Y-7306276D01*
X14593402Y-7266883D01*
X14592085Y-7263709D01*
X14579506Y-7181124D01*
X14582391Y-7091003D01*
X14598886Y-7017758D01*
X14642228Y-6985351D01*
X14737243Y-6977509D01*
X14755647Y-6977445D01*
X14915899Y-6977445D01*
X14915899Y-7137697D01*
G37*
G36*
X11310221Y-6937382D02*
G01*
X11159662Y-6949835D01*
X11038642Y-6944656D01*
X10987513Y-6906023D01*
X10978474Y-6840213D01*
X10974820Y-6719361D01*
X10977234Y-6568411D01*
X10977819Y-6553033D01*
X10989716Y-6256309D01*
X11310221Y-6256309D01*
X11310221Y-6937382D01*
G37*
G36*
X15219218Y-10227244D02*
G01*
X15268533Y-10256596D01*
X15289957Y-10333542D01*
X15296499Y-10382808D01*
X15315337Y-10486427D01*
X15354425Y-10536204D01*
X15439835Y-10558208D01*
X15476783Y-10563092D01*
X15637035Y-10583123D01*
X15637035Y-11264196D01*
X15305883Y-11275842D01*
X15129756Y-11278385D01*
X15020460Y-11269953D01*
X14965259Y-11249012D01*
X14953993Y-11233447D01*
X14946787Y-11173910D01*
X14942638Y-11052224D01*
X14941862Y-10886319D01*
X14944609Y-10700980D01*
X14955962Y-10222555D01*
X15116215Y-10222555D01*
X15219218Y-10227244D01*
G37*
G36*
X14935931Y-5875710D02*
G01*
X13854227Y-5875710D01*
X13854227Y-4794007D01*
X14935931Y-4794007D01*
X14935931Y-5875710D01*
G37*
G36*
X9146814Y-7858833D02*
G01*
X9142126Y-7961836D01*
X9112774Y-8011151D01*
X9035827Y-8032575D01*
X8986562Y-8039117D01*
X8882942Y-8057955D01*
X8833166Y-8097043D01*
X8811161Y-8182453D01*
X8806278Y-8219401D01*
X8787439Y-8323020D01*
X8748351Y-8372797D01*
X8662942Y-8394802D01*
X8625994Y-8399685D01*
X8523577Y-8417175D01*
X8477931Y-8452233D01*
X8466125Y-8530655D01*
X8465742Y-8579969D01*
X8470430Y-8682972D01*
X8499782Y-8732287D01*
X8576729Y-8753711D01*
X8625994Y-8760253D01*
X8728411Y-8777743D01*
X8774057Y-8812801D01*
X8785863Y-8891223D01*
X8786246Y-8940537D01*
X8786246Y-9100789D01*
X8445710Y-9120820D01*
X8105174Y-9140852D01*
X8085142Y-9301104D01*
X8065111Y-9461357D01*
X7733958Y-9473003D01*
X7562073Y-9475938D01*
X7455179Y-9468728D01*
X7398563Y-9449429D01*
X7380419Y-9426308D01*
X7368075Y-9344410D01*
X7371035Y-9254410D01*
X7389951Y-9179188D01*
X7440183Y-9140891D01*
X7544290Y-9120820D01*
X7646708Y-9103330D01*
X7692353Y-9068272D01*
X7704159Y-8989850D01*
X7704543Y-8940537D01*
X7699855Y-8837533D01*
X7670503Y-8788218D01*
X7593556Y-8766794D01*
X7544290Y-8760253D01*
X7441873Y-8742762D01*
X7396227Y-8707705D01*
X7384422Y-8629282D01*
X7384038Y-8579969D01*
X7384038Y-8419716D01*
X7724574Y-8399685D01*
X8065111Y-8379653D01*
X8085142Y-8039117D01*
X8105174Y-7698581D01*
X9146814Y-7698581D01*
X9146814Y-7858833D01*
G37*
G36*
X15637035Y-13067035D02*
G01*
X15305883Y-13078681D01*
X15133997Y-13081616D01*
X15027103Y-13074406D01*
X14970488Y-13055107D01*
X14952343Y-13031987D01*
X14939999Y-12950089D01*
X14942959Y-12860088D01*
X14961875Y-12784866D01*
X15012108Y-12746569D01*
X15116215Y-12726499D01*
X15276467Y-12706467D01*
X15296499Y-12365931D01*
X15316530Y-12025395D01*
X15637035Y-12025395D01*
X15637035Y-13067035D01*
G37*
G36*
X15637035Y-8740221D02*
G01*
X15125435Y-8751440D01*
X14907280Y-8754635D01*
X14756913Y-8752278D01*
X14662123Y-8743299D01*
X14610696Y-8726630D01*
X14591611Y-8704745D01*
X14579392Y-8623210D01*
X14582391Y-8533274D01*
X14601307Y-8458052D01*
X14651540Y-8419755D01*
X14755647Y-8399685D01*
X14859266Y-8380846D01*
X14909043Y-8341758D01*
X14931048Y-8256349D01*
X14935931Y-8219401D01*
X14955962Y-8059148D01*
X15637035Y-8059148D01*
X15637035Y-8740221D01*
G37*
G36*
X7343975Y-8940537D02*
G01*
X7339375Y-9043592D01*
X7311066Y-9091512D01*
X7237281Y-9109264D01*
X7193416Y-9113242D01*
X7075764Y-9109115D01*
X7021477Y-9069722D01*
X7020161Y-9066548D01*
X7007582Y-8983964D01*
X7010467Y-8893842D01*
X7026962Y-8820597D01*
X7070304Y-8788190D01*
X7165319Y-8780348D01*
X7183723Y-8780284D01*
X7343975Y-8780284D01*
X7343975Y-8940537D01*
G37*
G36*
X6983407Y-10022240D02*
G01*
X6978807Y-10125295D01*
X6950498Y-10173215D01*
X6876713Y-10190968D01*
X6832849Y-10194946D01*
X6715196Y-10190818D01*
X6660909Y-10151426D01*
X6659593Y-10148251D01*
X6647014Y-10065667D01*
X6649899Y-9975545D01*
X6666394Y-9902301D01*
X6709736Y-9869893D01*
X6804751Y-9862051D01*
X6823155Y-9861988D01*
X6983407Y-9861988D01*
X6983407Y-10022240D01*
G37*
G36*
X9887981Y-12365931D02*
G01*
X9908013Y-12706467D01*
X10068265Y-12726499D01*
X10170682Y-12743989D01*
X10216328Y-12779047D01*
X10228134Y-12857469D01*
X10228518Y-12906783D01*
X10228518Y-13067035D01*
X9897365Y-13078681D01*
X9721238Y-13081224D01*
X9611943Y-13072792D01*
X9556742Y-13051851D01*
X9545475Y-13036286D01*
X9538270Y-12976749D01*
X9534121Y-12855063D01*
X9533344Y-12689158D01*
X9536091Y-12503819D01*
X9547445Y-12025395D01*
X9867950Y-12025395D01*
X9887981Y-12365931D01*
G37*
G36*
X14555331Y-9301104D02*
G01*
X14550732Y-9404160D01*
X14522422Y-9452080D01*
X14448637Y-9469832D01*
X14404773Y-9473810D01*
X14287120Y-9469683D01*
X14232834Y-9430290D01*
X14231517Y-9427115D01*
X14218938Y-9344531D01*
X14221823Y-9254410D01*
X14238318Y-9181165D01*
X14281660Y-9148758D01*
X14376675Y-9140916D01*
X14395079Y-9140852D01*
X14555331Y-9140852D01*
X14555331Y-9301104D01*
G37*
G36*
X8065111Y-7498265D02*
G01*
X8060511Y-7601320D01*
X8032201Y-7649241D01*
X7958416Y-7666993D01*
X7914552Y-7670971D01*
X7796899Y-7666844D01*
X7742613Y-7627451D01*
X7741296Y-7624276D01*
X7728717Y-7541692D01*
X7731602Y-7451571D01*
X7748097Y-7378326D01*
X7791440Y-7345919D01*
X7886454Y-7338077D01*
X7904858Y-7338013D01*
X8065111Y-7338013D01*
X8065111Y-7498265D01*
G37*
G36*
X9166846Y-4072871D02*
G01*
X9166846Y-6596846D01*
X6642871Y-6596846D01*
X6642871Y-6236278D01*
X7003439Y-6236278D01*
X8806278Y-6236278D01*
X8806278Y-4433439D01*
X7003439Y-4433439D01*
X7003439Y-6236278D01*
X6642871Y-6236278D01*
X6642871Y-4072871D01*
X9166846Y-4072871D01*
G37*
G36*
X13834196Y-8579969D02*
G01*
X13829596Y-8683024D01*
X13801287Y-8730944D01*
X13727502Y-8748697D01*
X13683637Y-8752674D01*
X13565985Y-8748547D01*
X13511698Y-8709155D01*
X13510381Y-8705980D01*
X13497802Y-8623396D01*
X13500688Y-8533274D01*
X13517183Y-8460030D01*
X13560525Y-8427622D01*
X13655539Y-8419780D01*
X13673943Y-8419716D01*
X13834196Y-8419716D01*
X13834196Y-8579969D01*
G37*
G36*
X9146814Y-9301104D02*
G01*
X9142214Y-9404160D01*
X9113905Y-9452080D01*
X9040120Y-9469832D01*
X8996256Y-9473810D01*
X8878603Y-9469683D01*
X8824316Y-9430290D01*
X8823000Y-9427115D01*
X8810421Y-9344531D01*
X8813306Y-9254410D01*
X8829801Y-9181165D01*
X8873143Y-9148758D01*
X8968158Y-9140916D01*
X8986562Y-9140852D01*
X9146814Y-9140852D01*
X9146814Y-9301104D01*
G37*
G36*
X9146814Y-8579969D02*
G01*
X9142214Y-8683024D01*
X9113905Y-8730944D01*
X9040120Y-8748697D01*
X8996256Y-8752674D01*
X8878603Y-8748547D01*
X8824316Y-8709155D01*
X8823000Y-8705980D01*
X8810421Y-8623396D01*
X8813306Y-8533274D01*
X8829801Y-8460030D01*
X8873143Y-8427622D01*
X8968158Y-8419780D01*
X8986562Y-8419716D01*
X9146814Y-8419716D01*
X9146814Y-8579969D01*
G37*
G36*
X9166846Y-10563092D02*
G01*
X9166846Y-13087066D01*
X6642871Y-13087066D01*
X6642871Y-12726499D01*
X7003439Y-12726499D01*
X8806278Y-12726499D01*
X8806278Y-10923660D01*
X7003439Y-10923660D01*
X7003439Y-12726499D01*
X6642871Y-12726499D01*
X6642871Y-10563092D01*
X9166846Y-10563092D01*
G37*
G36*
X8445710Y-5875710D02*
G01*
X7364007Y-5875710D01*
X7364007Y-4794007D01*
X8445710Y-4794007D01*
X8445710Y-5875710D01*
G37*
G36*
X14194764Y-8940537D02*
G01*
X14190164Y-9043592D01*
X14161854Y-9091512D01*
X14088069Y-9109264D01*
X14044205Y-9113242D01*
X13926552Y-9109115D01*
X13872266Y-9069722D01*
X13870949Y-9066548D01*
X13858370Y-8983964D01*
X13861255Y-8893842D01*
X13877750Y-8820597D01*
X13921093Y-8788190D01*
X14016107Y-8780348D01*
X14034511Y-8780284D01*
X14194764Y-8780284D01*
X14194764Y-8940537D01*
G37*
G36*
X10949653Y-8219401D02*
G01*
X10945054Y-8322456D01*
X10916744Y-8370376D01*
X10842959Y-8388129D01*
X10799095Y-8392107D01*
X10681442Y-8387979D01*
X10627156Y-8348587D01*
X10625839Y-8345412D01*
X10613260Y-8262828D01*
X10616145Y-8172706D01*
X10632640Y-8099462D01*
X10675982Y-8067054D01*
X10770997Y-8059212D01*
X10789401Y-8059148D01*
X10949653Y-8059148D01*
X10949653Y-8219401D01*
G37*
G36*
X9867950Y-9100789D02*
G01*
X9536798Y-9112435D01*
X9364912Y-9115370D01*
X9258018Y-9108160D01*
X9201402Y-9088861D01*
X9183258Y-9065740D01*
X9170914Y-8983842D01*
X9173874Y-8893842D01*
X9186877Y-8780284D01*
X9867950Y-8780284D01*
X9867950Y-9100789D01*
G37*
X-15740000Y11830000D02*
X-16240000Y11830000D01*
X-15740000Y10030000D02*
X-15740000Y9830000D01*
X-16240000Y8030000D02*
X-15740000Y8030000D01*
X-15740000Y14030000D02*
X-15740000Y13830000D01*
X-12030000Y19230000D02*
X-12030000Y19530000D01*
X-16240000Y16030000D02*
X-15740000Y16030000D01*
X-12740000Y18430000D02*
X-12740000Y20380000D01*
X-12130000Y20990000D02*
X-16850000Y20990000D01*
X-12740000Y20380000D02*
X-16240000Y20380000D01*
X-12740000Y7430000D02*
X-12130000Y7430000D01*
X-15740000Y17830000D02*
X-16240000Y17830000D01*
X-16850000Y4870000D02*
X-12130000Y4870000D01*
X-15740000Y15830000D02*
X-16240000Y15830000D01*
X-16850000Y20990000D02*
X-16850000Y4870000D01*
X-15740000Y12030000D02*
X-15740000Y11830000D01*
X-16240000Y17930000D02*
X-15740000Y17930000D01*
X-12130000Y18430000D02*
X-12740000Y18430000D01*
X-12130000Y19230000D02*
X-11930000Y19230000D01*
X-16240000Y13930000D02*
X-15740000Y13930000D01*
X-16240000Y12030000D02*
X-15740000Y12030000D01*
X-11930000Y19530000D02*
X-12130000Y19530000D01*
X-16240000Y11930000D02*
X-15740000Y11930000D01*
X-12740000Y5480000D02*
X-12740000Y7430000D01*
X-14740000Y4870000D02*
X-14740000Y5480000D01*
X-16240000Y20380000D02*
X-16240000Y5480000D01*
X-15740000Y16030000D02*
X-15740000Y15830000D01*
X-15740000Y7830000D02*
X-16240000Y7830000D01*
X-16240000Y14030000D02*
X-15740000Y14030000D01*
X-11930000Y19230000D02*
X-11930000Y19530000D01*
X-16240000Y10030000D02*
X-15740000Y10030000D01*
X-11830000Y20040000D02*
X-11830000Y21290000D01*
X-11830000Y21290000D02*
X-13080000Y21290000D01*
X-16240000Y5480000D02*
X-12740000Y5480000D01*
X-16240000Y15930000D02*
X-15740000Y15930000D01*
X-15740000Y8030000D02*
X-15740000Y7830000D01*
X-13440000Y20990000D02*
X-13440000Y20380000D01*
X-13440000Y4870000D02*
X-13440000Y5480000D01*
X-16240000Y18030000D02*
X-15740000Y18030000D01*
X-15740000Y13830000D02*
X-16240000Y13830000D01*
X-15740000Y18030000D02*
X-15740000Y17830000D01*
X-16240000Y7930000D02*
X-15740000Y7930000D01*
X-15740000Y9830000D02*
X-16240000Y9830000D01*
X-14740000Y20990000D02*
X-14740000Y20380000D01*
X-12130000Y4870000D02*
X-12130000Y20990000D01*
X-16240000Y9930000D02*
X-15740000Y9930000D01*
X-7910000Y-21080000D02*
X-7910000Y-16360000D01*
X-22030000Y-17670000D02*
X-21420000Y-17670000D01*
X-13070000Y-19970000D02*
X-12870000Y-19970000D01*
X-19470000Y-16360000D02*
X-19470000Y-16970000D01*
X-19070000Y-19970000D02*
X-18870000Y-19970000D01*
X-12870000Y-19970000D02*
X-12870000Y-20470000D01*
X-11070000Y-20470000D02*
X-11070000Y-19970000D01*
X-15070000Y-20470000D02*
X-15070000Y-19970000D01*
X-7910000Y-17670000D02*
X-8520000Y-17670000D01*
X-10870000Y-19970000D02*
X-10870000Y-20470000D01*
X-20270000Y-16260000D02*
X-20570000Y-16260000D01*
X-22330000Y-16060000D02*
X-22330000Y-17310000D01*
X-22030000Y-16360000D02*
X-22030000Y-21080000D01*
X-19070000Y-20470000D02*
X-19070000Y-19970000D01*
X-7910000Y-18970000D02*
X-8520000Y-18970000D01*
X-20570000Y-16160000D02*
X-20570000Y-16360000D01*
X-21420000Y-20470000D02*
X-8520000Y-20470000D01*
X-18970000Y-20470000D02*
X-18970000Y-19970000D01*
X-13070000Y-20470000D02*
X-13070000Y-19970000D01*
X-16870000Y-19970000D02*
X-16870000Y-20470000D01*
X-21080000Y-16060000D02*
X-22330000Y-16060000D01*
X-16970000Y-20470000D02*
X-16970000Y-19970000D01*
X-20270000Y-16360000D02*
X-20270000Y-16160000D01*
X-17070000Y-20470000D02*
X-17070000Y-19970000D01*
X-19470000Y-16970000D02*
X-21420000Y-16970000D01*
X-7910000Y-16360000D02*
X-22030000Y-16360000D01*
X-18870000Y-19970000D02*
X-18870000Y-20470000D01*
X-14970000Y-20470000D02*
X-14970000Y-19970000D01*
X-8520000Y-20470000D02*
X-8520000Y-16970000D01*
X-17070000Y-19970000D02*
X-16870000Y-19970000D01*
X-21420000Y-16970000D02*
X-21420000Y-20470000D01*
X-10470000Y-16970000D02*
X-10470000Y-16360000D01*
X-15070000Y-19970000D02*
X-14870000Y-19970000D01*
X-12970000Y-20470000D02*
X-12970000Y-19970000D01*
X-22030000Y-18970000D02*
X-21420000Y-18970000D01*
X-22030000Y-21080000D02*
X-7910000Y-21080000D01*
X-8520000Y-16970000D02*
X-10470000Y-16970000D01*
X-20270000Y-16160000D02*
X-20570000Y-16160000D01*
X-11070000Y-19970000D02*
X-10870000Y-19970000D01*
X-14870000Y-19970000D02*
X-14870000Y-20470000D01*
X-10970000Y-20470000D02*
X-10970000Y-19970000D01*
X-21530000Y12030000D02*
X-21030000Y12030000D01*
X-18030000Y5480000D02*
X-18030000Y7430000D01*
X-20030000Y4870000D02*
X-20030000Y5480000D01*
X-21030000Y17830000D02*
X-21530000Y17830000D01*
X-20030000Y20990000D02*
X-20030000Y20380000D01*
X-18030000Y18430000D02*
X-18030000Y20380000D01*
X-17420000Y4870000D02*
X-17420000Y20990000D01*
X-21530000Y8030000D02*
X-21030000Y8030000D01*
X-21030000Y14030000D02*
X-21030000Y13830000D01*
X-18030000Y7430000D02*
X-17420000Y7430000D01*
X-17420000Y18430000D02*
X-18030000Y18430000D01*
X-18030000Y20380000D02*
X-21530000Y20380000D01*
X-21530000Y18030000D02*
X-21030000Y18030000D01*
X-21030000Y8030000D02*
X-21030000Y7830000D01*
X-22140000Y20990000D02*
X-22140000Y4870000D01*
X-18730000Y20990000D02*
X-18730000Y20380000D01*
X-21030000Y7830000D02*
X-21530000Y7830000D01*
X-21530000Y17930000D02*
X-21030000Y17930000D01*
X-18730000Y4870000D02*
X-18730000Y5480000D01*
X-21530000Y14030000D02*
X-21030000Y14030000D01*
X-17120000Y20040000D02*
X-17120000Y21290000D01*
X-21530000Y16030000D02*
X-21030000Y16030000D01*
X-21030000Y18030000D02*
X-21030000Y17830000D01*
X-17120000Y21290000D02*
X-18370000Y21290000D01*
X-21530000Y5480000D02*
X-18030000Y5480000D01*
X-21030000Y15830000D02*
X-21530000Y15830000D01*
X-17320000Y19230000D02*
X-17320000Y19530000D01*
X-21530000Y13930000D02*
X-21030000Y13930000D01*
X-21030000Y16030000D02*
X-21030000Y15830000D01*
X-21530000Y15930000D02*
X-21030000Y15930000D01*
X-22140000Y4870000D02*
X-17420000Y4870000D01*
X-21030000Y9830000D02*
X-21530000Y9830000D01*
X-21530000Y11930000D02*
X-21030000Y11930000D01*
X-21030000Y12030000D02*
X-21030000Y11830000D01*
X-17420000Y19230000D02*
X-17220000Y19230000D01*
X-21030000Y11830000D02*
X-21530000Y11830000D01*
X-21530000Y20380000D02*
X-21530000Y5480000D01*
X-17420000Y20990000D02*
X-22140000Y20990000D01*
X-17220000Y19230000D02*
X-17220000Y19530000D01*
X-21530000Y7930000D02*
X-21030000Y7930000D01*
X-21530000Y9930000D02*
X-21030000Y9930000D01*
X-17220000Y19530000D02*
X-17420000Y19530000D01*
X-21030000Y10030000D02*
X-21030000Y9830000D01*
X-21030000Y13830000D02*
X-21530000Y13830000D01*
X-21530000Y10030000D02*
X-21030000Y10030000D01*
X36170000Y16640000D02*
X36170000Y21360000D01*
X23210000Y17750000D02*
X23210000Y17250000D01*
X36170000Y20050000D02*
X35560000Y20050000D01*
X33010000Y17250000D02*
X33010000Y17750000D01*
X36170000Y18750000D02*
X35560000Y18750000D01*
X33610000Y20750000D02*
X33610000Y21360000D01*
X20050000Y21360000D02*
X20050000Y16640000D01*
X20660000Y20750000D02*
X20660000Y17250000D01*
X23110000Y17250000D02*
X23110000Y17750000D01*
X20050000Y18750000D02*
X20660000Y18750000D01*
X27110000Y17250000D02*
X27110000Y17750000D01*
X31110000Y17250000D02*
X31110000Y17750000D01*
X35560000Y17250000D02*
X35560000Y20750000D01*
X22610000Y21360000D02*
X22610000Y20750000D01*
X25210000Y17750000D02*
X25210000Y17250000D01*
X29210000Y17750000D02*
X29210000Y17250000D01*
X19750000Y21660000D02*
X19750000Y20410000D01*
X23010000Y17250000D02*
X23010000Y17750000D01*
X33110000Y17250000D02*
X33110000Y17750000D01*
X25010000Y17250000D02*
X25010000Y17750000D01*
X25110000Y17250000D02*
X25110000Y17750000D01*
X21810000Y21560000D02*
X21510000Y21560000D01*
X21510000Y21560000D02*
X21510000Y21360000D01*
X21000000Y21660000D02*
X19750000Y21660000D01*
X29110000Y17250000D02*
X29110000Y17750000D01*
X31010000Y17750000D02*
X31210000Y17750000D01*
X21810000Y21460000D02*
X21510000Y21460000D01*
X29010000Y17250000D02*
X29010000Y17750000D01*
X29010000Y17750000D02*
X29210000Y17750000D01*
X27210000Y17750000D02*
X27210000Y17250000D01*
X27010000Y17750000D02*
X27210000Y17750000D01*
X21810000Y21360000D02*
X21810000Y21560000D01*
X36170000Y21360000D02*
X20050000Y21360000D01*
X31210000Y17750000D02*
X31210000Y17250000D01*
X25010000Y17750000D02*
X25210000Y17750000D01*
X23010000Y17750000D02*
X23210000Y17750000D01*
X35560000Y20750000D02*
X33610000Y20750000D01*
X20050000Y20050000D02*
X20660000Y20050000D01*
X20050000Y16640000D02*
X36170000Y16640000D01*
X22610000Y20750000D02*
X20660000Y20750000D01*
X31010000Y17250000D02*
X31010000Y17750000D01*
X33010000Y17750000D02*
X33210000Y17750000D01*
X20660000Y17250000D02*
X35560000Y17250000D01*
X27010000Y17250000D02*
X27010000Y17750000D01*
X33210000Y17750000D02*
X33210000Y17250000D01*
X-22220000Y-9360000D02*
X-22220000Y-7410000D01*
X-22220000Y-9360000D02*
X-22220000Y-12810000D01*
X-12100000Y-9360000D02*
X-12100000Y-11310000D01*
X-12100000Y-9360000D02*
X-12100000Y-7410000D01*
X4815000Y19828748D02*
X4815000Y20351252D01*
X6285000Y19828748D02*
X6285000Y20351252D01*
X8272936Y23715000D02*
X8727064Y23715000D01*
X8272936Y25185000D02*
X8727064Y25185000D01*
D10*
X6330000Y16350000D02*
X6330000Y9350000D01*
X12930000Y9350000D02*
X12930000Y16350000D01*
D11*
X31620000Y23350000D02*
X31820000Y23350000D01*
X29820000Y23350000D02*
X29820000Y22850000D01*
X29620000Y22850000D02*
X29620000Y23350000D01*
X29620000Y23350000D02*
X29820000Y23350000D01*
X27720000Y22850000D02*
X27720000Y23350000D01*
X31620000Y22850000D02*
X31620000Y23350000D01*
X27620000Y22850000D02*
X27620000Y23350000D01*
X34780000Y25650000D02*
X34170000Y25650000D01*
X27220000Y26960000D02*
X27220000Y26350000D01*
X34780000Y22240000D02*
X34780000Y26960000D01*
X24660000Y26960000D02*
X24660000Y22240000D01*
X31820000Y23350000D02*
X31820000Y22850000D01*
X34170000Y26350000D02*
X32220000Y26350000D01*
X25270000Y26350000D02*
X25270000Y22850000D01*
X24660000Y24350000D02*
X25270000Y24350000D01*
X26120000Y27160000D02*
X26120000Y26960000D01*
X24660000Y25650000D02*
X25270000Y25650000D01*
X34170000Y22850000D02*
X34170000Y26350000D01*
X26420000Y26960000D02*
X26420000Y27160000D01*
X26420000Y27160000D02*
X26120000Y27160000D01*
X34780000Y26960000D02*
X24660000Y26960000D01*
X24360000Y27260000D02*
X24360000Y26010000D01*
X31720000Y22850000D02*
X31720000Y23350000D01*
X27620000Y23350000D02*
X27820000Y23350000D01*
X29720000Y22850000D02*
X29720000Y23350000D01*
X25270000Y22850000D02*
X34170000Y22850000D01*
X24660000Y22240000D02*
X34780000Y22240000D01*
X27220000Y26350000D02*
X25270000Y26350000D01*
X26420000Y27060000D02*
X26120000Y27060000D01*
X32220000Y26350000D02*
X32220000Y26960000D01*
X27820000Y23350000D02*
X27820000Y22850000D01*
X34780000Y24350000D02*
X34170000Y24350000D01*
X25610000Y27260000D02*
X24360000Y27260000D01*
X11722936Y23705000D02*
X12177064Y23705000D01*
X11722936Y25175000D02*
X12177064Y25175000D01*
X4245000Y19828748D02*
X4245000Y20351252D01*
X2775000Y19828748D02*
X2775000Y20351252D01*
X-7450000Y7430000D02*
X-6840000Y7430000D01*
X-10450000Y17830000D02*
X-10950000Y17830000D01*
X-10450000Y7830000D02*
X-10950000Y7830000D01*
X-6840000Y22430000D02*
X-7450000Y22430000D01*
X-9450000Y24990000D02*
X-9450000Y24380000D01*
X-10950000Y15930000D02*
X-10450000Y15930000D01*
X-10450000Y14030000D02*
X-10450000Y13830000D01*
X-10950000Y22030000D02*
X-10450000Y22030000D01*
X-7450000Y24380000D02*
X-10950000Y24380000D01*
X-10450000Y10030000D02*
X-10450000Y9830000D01*
X-10950000Y8030000D02*
X-10450000Y8030000D01*
X-10950000Y20030000D02*
X-10450000Y20030000D01*
X-10450000Y13830000D02*
X-10950000Y13830000D01*
X-10450000Y8030000D02*
X-10450000Y7830000D01*
X-10450000Y22030000D02*
X-10450000Y21830000D01*
X-8150000Y24990000D02*
X-8150000Y24380000D01*
X-10950000Y17930000D02*
X-10450000Y17930000D01*
X-10450000Y12030000D02*
X-10450000Y11830000D01*
X-10950000Y7930000D02*
X-10450000Y7930000D01*
X-10950000Y21930000D02*
X-10450000Y21930000D01*
X-10950000Y19930000D02*
X-10450000Y19930000D01*
X-6840000Y24990000D02*
X-11560000Y24990000D01*
X-10450000Y16030000D02*
X-10450000Y15830000D01*
X-10950000Y18030000D02*
X-10450000Y18030000D01*
X-6840000Y4870000D02*
X-6840000Y24990000D01*
X-6640000Y23530000D02*
X-6840000Y23530000D01*
X-9450000Y4870000D02*
X-9450000Y5480000D01*
X-11560000Y4870000D02*
X-6840000Y4870000D01*
X-10450000Y11830000D02*
X-10950000Y11830000D01*
X-10450000Y19830000D02*
X-10950000Y19830000D01*
X-11560000Y24990000D02*
X-11560000Y4870000D01*
X-10950000Y12030000D02*
X-10450000Y12030000D01*
X-7450000Y5480000D02*
X-7450000Y7430000D01*
X-10950000Y11930000D02*
X-10450000Y11930000D01*
X-10950000Y14030000D02*
X-10450000Y14030000D01*
X-6540000Y24040000D02*
X-6540000Y25290000D01*
X-10950000Y16030000D02*
X-10450000Y16030000D01*
X-10450000Y18030000D02*
X-10450000Y17830000D01*
X-10950000Y9930000D02*
X-10450000Y9930000D01*
X-8150000Y4870000D02*
X-8150000Y5480000D01*
X-10950000Y24380000D02*
X-10950000Y5480000D01*
X-10450000Y15830000D02*
X-10950000Y15830000D01*
X-10450000Y21830000D02*
X-10950000Y21830000D01*
X-10950000Y5480000D02*
X-7450000Y5480000D01*
X-6640000Y23230000D02*
X-6640000Y23530000D01*
X-10450000Y20030000D02*
X-10450000Y19830000D01*
X-7450000Y22430000D02*
X-7450000Y24380000D01*
X-10450000Y9830000D02*
X-10950000Y9830000D01*
X-6540000Y25290000D02*
X-7790000Y25290000D01*
X-6840000Y23230000D02*
X-6640000Y23230000D01*
X-10950000Y10030000D02*
X-10450000Y10030000D01*
X-10950000Y13930000D02*
X-10450000Y13930000D01*
X-6740000Y23230000D02*
X-6740000Y23530000D01*
X-2307064Y-7835000D02*
X-1852936Y-7835000D01*
X-2307064Y-9305000D02*
X-1852936Y-9305000D01*
X21830000Y10300000D02*
X21530000Y10300000D01*
X25030000Y6590000D02*
X25230000Y6590000D01*
X34190000Y7590000D02*
X33580000Y7590000D01*
X29030000Y6090000D02*
X29030000Y6590000D01*
X34190000Y10200000D02*
X20070000Y10200000D01*
X34190000Y5480000D02*
X34190000Y10200000D01*
X20680000Y9590000D02*
X20680000Y6090000D01*
X31030000Y6590000D02*
X31230000Y6590000D01*
X27230000Y6590000D02*
X27230000Y6090000D01*
X23030000Y6090000D02*
X23030000Y6590000D01*
X21020000Y10500000D02*
X19770000Y10500000D01*
X23130000Y6090000D02*
X23130000Y6590000D01*
X22630000Y9590000D02*
X20680000Y9590000D01*
X23230000Y6590000D02*
X23230000Y6090000D01*
X33580000Y9590000D02*
X31630000Y9590000D01*
X20070000Y5480000D02*
X34190000Y5480000D01*
X21830000Y10400000D02*
X21530000Y10400000D01*
X25130000Y6090000D02*
X25130000Y6590000D01*
X21830000Y10200000D02*
X21830000Y10400000D01*
X33580000Y6090000D02*
X33580000Y9590000D01*
X31130000Y6090000D02*
X31130000Y6590000D01*
X29230000Y6590000D02*
X29230000Y6090000D01*
X34190000Y8890000D02*
X33580000Y8890000D01*
X20070000Y7590000D02*
X20680000Y7590000D01*
X20680000Y6090000D02*
X33580000Y6090000D01*
X31630000Y9590000D02*
X31630000Y10200000D01*
X27030000Y6090000D02*
X27030000Y6590000D01*
X29130000Y6090000D02*
X29130000Y6590000D01*
X31030000Y6090000D02*
X31030000Y6590000D01*
X29030000Y6590000D02*
X29230000Y6590000D01*
X22630000Y10200000D02*
X22630000Y9590000D01*
X19770000Y10500000D02*
X19770000Y9250000D01*
X23030000Y6590000D02*
X23230000Y6590000D01*
X20070000Y8890000D02*
X20680000Y8890000D01*
X25030000Y6090000D02*
X25030000Y6590000D01*
X27030000Y6590000D02*
X27230000Y6590000D01*
X27130000Y6090000D02*
X27130000Y6590000D01*
X21530000Y10400000D02*
X21530000Y10200000D01*
X25230000Y6590000D02*
X25230000Y6090000D01*
X31230000Y6590000D02*
X31230000Y6090000D01*
X20070000Y10200000D02*
X20070000Y5480000D01*
X45795000Y7609564D02*
X45795000Y7155436D01*
X44325000Y7609564D02*
X44325000Y7155436D01*
X-2297064Y-7305000D02*
X-1842936Y-7305000D01*
X-2297064Y-5835000D02*
X-1842936Y-5835000D01*
X34750000Y16080000D02*
X34750000Y14830000D01*
X36000000Y16080000D02*
X34750000Y16080000D01*
X40210000Y12170000D02*
X40210000Y11670000D01*
X35050000Y11060000D02*
X43170000Y11060000D01*
X37610000Y15170000D02*
X35660000Y15170000D01*
X38010000Y12170000D02*
X38210000Y12170000D01*
X40010000Y12170000D02*
X40210000Y12170000D01*
X40110000Y11670000D02*
X40110000Y12170000D01*
X36810000Y15780000D02*
X36810000Y15980000D01*
X35660000Y11670000D02*
X42560000Y11670000D01*
X37610000Y15780000D02*
X37610000Y15170000D01*
X36810000Y15980000D02*
X36510000Y15980000D01*
X35050000Y13170000D02*
X35660000Y13170000D01*
X40610000Y15170000D02*
X40610000Y15780000D01*
X43170000Y14470000D02*
X42560000Y14470000D01*
X42560000Y15170000D02*
X40610000Y15170000D01*
X40010000Y11670000D02*
X40010000Y12170000D01*
X43170000Y13170000D02*
X42560000Y13170000D01*
X43170000Y11060000D02*
X43170000Y15780000D01*
X38210000Y12170000D02*
X38210000Y11670000D01*
X35050000Y14470000D02*
X35660000Y14470000D01*
X43170000Y15780000D02*
X35050000Y15780000D01*
X36510000Y15980000D02*
X36510000Y15780000D01*
X35050000Y15780000D02*
X35050000Y11060000D01*
X36810000Y15880000D02*
X36510000Y15880000D01*
X42560000Y11670000D02*
X42560000Y15170000D01*
X38010000Y11670000D02*
X38010000Y12170000D01*
X38110000Y11670000D02*
X38110000Y12170000D01*
X35660000Y15170000D02*
X35660000Y11670000D01*
D10*
X6930000Y21170000D02*
X6930000Y21170000D01*
X7030000Y21170000D02*
X7030000Y21170000D01*
X6930000Y21170000D02*
X6930000Y21170000D01*
X7030000Y21170000D02*
G75*
G03*
X6930000Y21170000I-50000J0D01*
G01*
X6930000Y21170000D02*
G75*
G03*
X7030000Y21170000I50000J0D01*
G01*
X6930000Y21170000D02*
G75*
G03*
X7030000Y21170000I50000J0D01*
G01*
D11*
X14208748Y20915000D02*
X14731252Y20915000D01*
X14208748Y19445000D02*
X14731252Y19445000D01*
X48265000Y7142936D02*
X48265000Y7597064D01*
X49735000Y7142936D02*
X49735000Y7597064D01*
X51725000Y7128748D02*
X51725000Y7651252D01*
X50255000Y7128748D02*
X50255000Y7651252D01*
X38010000Y6090000D02*
X38010000Y6590000D01*
X42560000Y6090000D02*
X42560000Y9590000D01*
X36510000Y10400000D02*
X36510000Y10200000D01*
X38110000Y6090000D02*
X38110000Y6590000D01*
X36810000Y10200000D02*
X36810000Y10400000D01*
X40010000Y6090000D02*
X40010000Y6590000D01*
X43170000Y8890000D02*
X42560000Y8890000D01*
X36000000Y10500000D02*
X34750000Y10500000D01*
X37610000Y10200000D02*
X37610000Y9590000D01*
X35050000Y10200000D02*
X35050000Y5480000D01*
X42560000Y9590000D02*
X40610000Y9590000D01*
X37610000Y9590000D02*
X35660000Y9590000D01*
X40010000Y6590000D02*
X40210000Y6590000D01*
X40110000Y6090000D02*
X40110000Y6590000D01*
X43170000Y7590000D02*
X42560000Y7590000D01*
X36810000Y10400000D02*
X36510000Y10400000D01*
X35660000Y9590000D02*
X35660000Y6090000D01*
X35050000Y8890000D02*
X35660000Y8890000D01*
X40210000Y6590000D02*
X40210000Y6090000D01*
X40610000Y9590000D02*
X40610000Y10200000D01*
X34750000Y10500000D02*
X34750000Y9250000D01*
X38010000Y6590000D02*
X38210000Y6590000D01*
X43170000Y10200000D02*
X35050000Y10200000D01*
X35050000Y7590000D02*
X35660000Y7590000D01*
X35660000Y6090000D02*
X42560000Y6090000D01*
X36810000Y10300000D02*
X36510000Y10300000D01*
X43170000Y5480000D02*
X43170000Y10200000D01*
X35050000Y5480000D02*
X43170000Y5480000D01*
X38210000Y6590000D02*
X38210000Y6090000D01*
X46180000Y5800000D02*
X47880000Y5800000D01*
X47880000Y5800000D02*
X47880000Y8950000D01*
X46180000Y5800000D02*
X46180000Y8950000D01*
X3868748Y16595000D02*
X4391252Y16595000D01*
X3868748Y18065000D02*
X4391252Y18065000D01*
X14208748Y21465000D02*
X14731252Y21465000D01*
X14208748Y22935000D02*
X14731252Y22935000D01*
M02*
