G04 #@! TF.GenerationSoftware,KiCad,Pcbnew,(6.0.1)*
G04 #@! TF.CreationDate,2022-07-27T14:07:59-07:00*
G04 #@! TF.ProjectId,Prime Mover,5072696d-6520-44d6-9f76-65722e6b6963,rev?*
G04 #@! TF.SameCoordinates,Original*
G04 #@! TF.FileFunction,Profile,NP*
%FSLAX46Y46*%
G04 Gerber Fmt 4.6, Leading zero omitted, Abs format (unit mm)*
G04 Created by KiCad (PCBNEW (6.0.1)) date 2022-07-27 14:07:59*
%MOMM*%
%LPD*%
G01*
G04 APERTURE LIST*
G04 #@! TA.AperFunction,Profile*
%ADD10C,0.050000*%
G04 #@! TD*
G04 APERTURE END LIST*
D10*
X18500000Y-13000000D02*
G75*
G03*
X17500000Y-14000000I3J-1000003D01*
G01*
X18500000Y-22000000D02*
X26500000Y-22000000D01*
X17500000Y-14000000D02*
X17500000Y-21000000D01*
X17500000Y-21000000D02*
G75*
G03*
X18500000Y-22000000I1000003J3D01*
G01*
X26500000Y-13000000D02*
X18500000Y-13000000D01*
X27500000Y-14000000D02*
G75*
G03*
X26500000Y-13000000I-1000001J-1D01*
G01*
X26500000Y-22000000D02*
G75*
G03*
X27500000Y-21000000I-1J1000001D01*
G01*
X27500000Y-21000000D02*
X27500000Y-14000000D01*
X44250000Y-16900000D02*
G75*
G03*
X44250000Y-16900000I-5100000J0D01*
G01*
X25225000Y5270000D02*
X46405000Y5270000D01*
X25225000Y5270000D02*
G75*
G03*
X24225000Y4270000I1J-1000001D01*
G01*
X24225000Y4270000D02*
X24225000Y-3350000D01*
X24225000Y-3350000D02*
G75*
G03*
X25225000Y-4350000I1000001J1D01*
G01*
X47404997Y4270000D02*
G75*
G03*
X46405000Y5270000I-999997J3D01*
G01*
X47405000Y-3350000D02*
X47405000Y4270000D01*
X46405000Y-4349997D02*
G75*
G03*
X47405000Y-3350000I3J999997D01*
G01*
X46405000Y-4350000D02*
X25225000Y-4350000D01*
X-27640000Y25000000D02*
X-27640000Y-5800000D01*
X-23500000Y-8800000D02*
X-24640000Y-8800000D01*
X-27640000Y-5800000D02*
G75*
G03*
X-24640000Y-8800000I3000000J0D01*
G01*
X-22500003Y-9800000D02*
G75*
G03*
X-23500000Y-8800000I-999997J3D01*
G01*
X-22500000Y-9800000D02*
X-22500000Y-25000000D01*
X-22500000Y-25000000D02*
G75*
G03*
X-19500000Y-28000000I3000000J0D01*
G01*
X-19500000Y-28000000D02*
X49500000Y-28000000D01*
X49500000Y-28000000D02*
G75*
G03*
X52500000Y-25000000I0J3000000D01*
G01*
X52500000Y-25000000D02*
X52500000Y-17620000D01*
X52499997Y-17620000D02*
G75*
G03*
X51500000Y-16620000I-999997J3D01*
G01*
X49600000Y-16620000D02*
X51500000Y-16620000D01*
X48600000Y-15620000D02*
X48600000Y-380000D01*
X48600003Y-15620000D02*
G75*
G03*
X49600000Y-16620000I999997J-3D01*
G01*
X49600000Y619997D02*
G75*
G03*
X48600000Y-380000I-3J-999997D01*
G01*
X49600000Y620000D02*
X51500000Y620000D01*
X51500000Y620003D02*
G75*
G03*
X52500000Y1620000I3J999997D01*
G01*
X52500000Y25000000D02*
X52500000Y1620000D01*
X52500000Y25000000D02*
G75*
G03*
X49500000Y28000000I-3000000J0D01*
G01*
X-475000Y28000000D02*
X49500000Y28000000D01*
X-475000Y27999997D02*
G75*
G03*
X-1475000Y27000000I-3J-999997D01*
G01*
X-1475000Y27000000D02*
X-1475000Y5500000D01*
X-6475000Y5500000D02*
G75*
G03*
X-1475000Y5500000I2500000J0D01*
G01*
X-6475000Y27000000D02*
X-6475000Y5500000D01*
X-6475003Y27000000D02*
G75*
G03*
X-7475000Y28000000I-999997J3D01*
G01*
X-7475000Y28000000D02*
X-24640000Y28000000D01*
X-24640000Y28000000D02*
G75*
G03*
X-27640000Y25000000I0J-3000000D01*
G01*
M02*
