M48
; DRILL file {KiCad (6.0.1)} date Wed Jul 27 14:08:01 2022
; FORMAT={2:4/ absolute / inch / suppress leading zeros}
; #@! TF.CreationDate,2022-07-27T14:08:01-07:00
; #@! TF.GenerationSoftware,Kicad,Pcbnew,(6.0.1)
; #@! TF.FileFunction,MixedPlating,1,2
FMAT,2
INCH,TZ
; #@! TA.AperFunction,Plated,PTH,ViaDrill
T1C0.0118
; #@! TA.AperFunction,Plated,PTH,ComponentDrill
T2C0.0295
; #@! TA.AperFunction,Plated,PTH,ComponentDrill
T3C0.0325
; #@! TA.AperFunction,Plated,PTH,ComponentDrill
T4C0.0394
; #@! TA.AperFunction,Plated,PTH,ComponentDrill
T5C0.1260
; #@! TA.AperFunction,Plated,PTH,ComponentDrill
T6C0.1772
%
G90
G05
T1
X-10295Y2524
X-10236Y5429
X-10098Y10157
X-9980Y-1811
X-9626Y8291
X-9476Y374
X-8476Y-3382
X-8476Y-5315
X-7000Y-8091
X-6606Y4374
X-6559Y-8508
X-6480Y5815
X-6469Y583
X-6358Y-10626
X-5886Y-6614
X-5768Y-8618
X-5689Y9417
X-5165Y-7689
X-4996Y-8488
X-4949Y6890
X-4921Y5126
X-4921Y4630
X-4898Y1291
X-4874Y5638
X-4874Y-7854
X-4807Y-339
X-4642Y6169
X-4464Y-571
X-4455Y5118
X-4299Y7547
X-4262Y-356
X-4000Y-4020
X-3945Y-4331
X-3905Y2063
X-3874Y-3610
X-3871Y-4630
X-3843Y2575
X-3823Y-2205
X-3787Y1349
X-3717Y272
X-3636Y-6190
X-3624Y3518
X-3624Y1018
X-3535Y-6539
X-3508Y-1098
X-3429Y9193
X-3142Y4752
X-3126Y-1500
X-3102Y3260
X-3039Y-6894
X-2866Y2713
X-2740Y4969
X-2701Y-4165
X-2321Y81
X-2260Y494
X-2091Y-9693
X-1976Y687
X-1961Y215
X-1749Y-4372
X-1705Y-3374
X-1665Y-1150
X-1657Y-5083
X-1547Y-2925
X-1500Y-126
X-941Y-5886
X-665Y-4299
X-594Y-7067
X-484Y-3826
X-449Y-1622
X-371Y-4329
X-339Y-5386
X-272Y8295
X-268Y10606
X-130Y-2012
X-98Y3433
X-87Y6488
X-75Y-2980
X-22Y-3713
X319Y-10776
X611Y-3612
X803Y-3311
X1016Y-2232
X1122Y-5130
X1179Y-6239
X1236Y-5768
X1332Y-7278
X1408Y-3618
X1898Y-10756
X1972Y9118
X1976Y-7449
X1980Y-5091
X1996Y3988
X2291Y-1602
X2303Y-7472
X2366Y10591
X2646Y3220
X2709Y-7413
X2783Y6051
X2882Y-6193
X2917Y6933
X2992Y9102
X3008Y-5311
X3220Y-7051
X3287Y10772
X3520Y-394
X3791Y8252
X3866Y-5280
X4425Y-6142
X4508Y-7197
X4539Y-8112
X4665Y-5319
X4677Y6921
X4740Y4787
X4752Y10740
X4787Y3795
X4815Y6071
X4866Y-7398
X4867Y-6617
X4913Y-2791
X5122Y3452
X5323Y7945
X5530Y3762
X5578Y3349
X5630Y-6264
X5839Y9437
X6154Y-8126
X6339Y5177
X6441Y10417
X6453Y1814
X6591Y-7776
X6618Y-5780
X6650Y8272
X6657Y6803
X6883Y3706
X6945Y1815
X6980Y3984
X7101Y3507
X7398Y3591
X7524Y5287
X7528Y4488
X7535Y4906
X7740Y8283
X7744Y7008
X8024Y-10732
X8370Y10685
X8555Y-2717
X8583Y6748
X8677Y9571
X8920Y2024
X8930Y2541
X9047Y-2417
X9260Y2287
X9382Y7028
X9451Y-4323
X9574Y2249
X9811Y8197
X9886Y-10709
X9941Y-2008
X10067Y-3461
X10073Y7122
X10154Y6232
X10543Y-3354
X10913Y4386
X11220Y-8157
X11362Y8240
X12004Y7110
X12563Y6280
X12602Y4209
X12693Y4661
X13012Y8236
X13067Y-3583
X13161Y-6087
X13291Y3764
X13354Y-1937
X13508Y5406
X13524Y2547
X13752Y6906
X14008Y10661
X14091Y-10657
X14563Y6764
X15843Y-3512
X16150Y7039
X16150Y4169
X16575Y8665
X16610Y-8760
X16929Y10508
X16953Y2909
X17244Y4508
X17335Y5500
X18059Y4343
X18319Y-6067
X18709Y-2047
X18811Y-8567
X19051Y543
X19823Y-10441
X19921Y4157
X19953Y7559
X20193Y1980
X20217Y-6972
T2
X-9531Y6626
X-9531Y5839
X-9531Y5051
X-9531Y4264
X-9531Y3476
X-9531Y2689
X-9531Y1902
X-7488Y-957
X-7488Y-1744
X-7488Y-2531
X-7488Y-3319
X-7488Y-4106
X-7488Y-4894
X-7488Y-5681
X-7488Y-6469
X-7488Y-7256
X-7331Y6622
X-7331Y5835
X-7331Y5047
X-7331Y4260
X-7331Y3472
X-7331Y2685
X-7331Y1898
X-5240Y-2291
X-5240Y-3079
X-5240Y-3866
X-5240Y-4654
X-5240Y-5441
X-5240Y-6228
X8705Y7697
X8705Y5500
X8713Y3303
X9492Y7697
X9492Y5500
X9500Y3303
X10280Y7697
X10280Y5500
X10287Y3303
X10520Y9902
X11067Y7697
X11067Y5500
X11075Y3303
X11307Y9902
X11854Y7697
X11854Y5500
X11862Y3303
X12094Y9902
X12642Y7697
X12642Y5500
X12650Y3303
X12882Y9902
X13429Y7697
X14610Y5500
X14610Y3303
X15398Y5500
X15398Y3303
X16185Y5500
X16185Y3303
T3
X175Y2756
X1175Y2756
X2175Y2756
X3175Y2756
X4175Y2756
X5175Y2756
X6175Y2756
X7175Y2756
T4
X-5583Y-9193
X-5583Y-10193
X-4583Y-9193
X-4583Y-10193
X-3583Y-9193
X-3583Y-10193
X-2583Y-9193
X-2583Y-10193
X-2303Y-650
X-2303Y-1650
X-2303Y-2650
X-2303Y-3650
X-2303Y-4650
X-2303Y-5650
X-1583Y-9193
X-1583Y-10193
X-583Y-9193
X-583Y-10193
X-51Y1181
X-51Y181
X-51Y-819
X417Y-9193
X417Y-10193
X949Y1181
X949Y181
X949Y-819
X1417Y-9193
X1417Y-10193
X1949Y1181
X1949Y181
X1949Y-819
X2417Y-9193
X2417Y-10193
X2949Y1181
X2949Y181
X2949Y-819
X3417Y-9193
X3417Y-10193
X4287Y1181
X4287Y181
X4287Y-819
X4417Y-9193
X4417Y-10193
X5287Y1181
X5287Y181
X5287Y-819
X5417Y-9193
X5417Y-10193
X6287Y1181
X6287Y181
X6287Y-819
X6417Y-9193
X6417Y-10193
X7287Y1181
X7287Y181
X7287Y-819
X7417Y-9193
X7417Y-10193
X8417Y-9193
X8417Y-10193
X9417Y-9193
X9417Y-10193
X10417Y-9193
X10417Y-10193
X10431Y1181
X10431Y181
X10431Y-819
X11417Y-9193
X11417Y-10193
X11431Y1181
X11431Y181
X11431Y-819
X12417Y-9193
X12417Y-10193
X12431Y1181
X12431Y181
X12431Y-819
X13417Y-9193
X13417Y-10193
X13431Y1181
X13431Y181
X13431Y-819
X14770Y1181
X14770Y181
X14770Y-819
X15770Y1181
X15770Y181
X15770Y-819
X16770Y1181
X16770Y181
X16770Y-819
X17770Y1181
X17770Y181
X17770Y-819
X20020Y-650
X20020Y-1650
X20020Y-2650
X20020Y-3650
X20020Y-4650
X20020Y-5650
T5
X-7480Y9646
X-7480Y-9646
X15354Y9646
X15354Y-9646
T6
X18701Y9291
X18701Y6362
T0
M30
