G04 #@! TF.GenerationSoftware,KiCad,Pcbnew,(6.0.1)*
G04 #@! TF.CreationDate,2022-07-27T14:07:59-07:00*
G04 #@! TF.ProjectId,Prime Mover,5072696d-6520-44d6-9f76-65722e6b6963,rev?*
G04 #@! TF.SameCoordinates,Original*
G04 #@! TF.FileFunction,Soldermask,Top*
G04 #@! TF.FilePolarity,Negative*
%FSLAX46Y46*%
G04 Gerber Fmt 4.6, Leading zero omitted, Abs format (unit mm)*
G04 Created by KiCad (PCBNEW (6.0.1)) date 2022-07-27 14:07:59*
%MOMM*%
%LPD*%
G01*
G04 APERTURE LIST*
G04 Aperture macros list*
%AMRoundRect*
0 Rectangle with rounded corners*
0 $1 Rounding radius*
0 $2 $3 $4 $5 $6 $7 $8 $9 X,Y pos of 4 corners*
0 Add a 4 corners polygon primitive as box body*
4,1,4,$2,$3,$4,$5,$6,$7,$8,$9,$2,$3,0*
0 Add four circle primitives for the rounded corners*
1,1,$1+$1,$2,$3*
1,1,$1+$1,$4,$5*
1,1,$1+$1,$6,$7*
1,1,$1+$1,$8,$9*
0 Add four rect primitives between the rounded corners*
20,1,$1+$1,$2,$3,$4,$5,0*
20,1,$1+$1,$4,$5,$6,$7,0*
20,1,$1+$1,$6,$7,$8,$9,0*
20,1,$1+$1,$8,$9,$2,$3,0*%
%AMFreePoly0*
4,1,37,0.012349,0.795885,0.074216,0.795507,0.088518,0.793370,0.224339,0.752751,0.237465,0.746685,0.356427,0.669578,0.367324,0.660073,0.459862,0.552676,0.467652,0.540494,0.526329,0.411442,0.530388,0.397563,0.550485,0.257230,0.551000,0.250000,0.551000,-0.250000,0.550996,-0.250622,0.550847,-0.262838,0.550144,-0.270677,0.526624,-0.410478,0.522228,-0.424254,0.460416,-0.551833,
0.452330,-0.563821,0.357195,-0.668925,0.346069,-0.678161,0.225259,-0.752338,0.211989,-0.758081,0.075216,-0.795370,0.060866,-0.797157,0.011464,-0.796251,0.000000,-0.801000,-0.500000,-0.801000,-0.536062,-0.786062,-0.551000,-0.750000,-0.551000,0.750000,-0.536062,0.786062,-0.500000,0.801000,0.000000,0.801000,0.012349,0.795885,0.012349,0.795885,$1*%
%AMFreePoly1*
4,1,37,0.536062,0.786062,0.551000,0.750000,0.551000,-0.750000,0.536062,-0.786062,0.500000,-0.801000,0.000000,-0.801000,-0.012525,-0.795812,-0.080875,-0.794559,-0.095149,-0.792248,-0.230464,-0.749973,-0.243516,-0.743747,-0.361526,-0.665192,-0.372306,-0.655554,-0.463526,-0.547035,-0.471167,-0.534759,-0.528262,-0.405000,-0.532150,-0.391073,-0.549733,-0.256613,-0.548336,-0.256430,-0.551000,-0.250000,
-0.551000,0.250000,-0.550512,0.251179,-0.550356,0.263956,-0.528545,0.404033,-0.524317,0.417860,-0.464069,0.546185,-0.456130,0.558271,-0.362286,0.664529,-0.351274,0.673901,-0.231379,0.749549,-0.218180,0.755454,-0.081873,0.794411,-0.067546,0.796373,-0.011990,0.796033,0.000000,0.801000,0.500000,0.801000,0.536062,0.786062,0.536062,0.786062,$1*%
G04 Aperture macros list end*
%ADD10C,1.626000*%
%ADD11RoundRect,0.051000X0.225000X0.737500X-0.225000X0.737500X-0.225000X-0.737500X0.225000X-0.737500X0*%
%ADD12RoundRect,0.301000X-0.262500X-0.450000X0.262500X-0.450000X0.262500X0.450000X-0.262500X0.450000X0*%
%ADD13RoundRect,0.201000X-0.825000X-0.150000X0.825000X-0.150000X0.825000X0.150000X-0.825000X0.150000X0*%
%ADD14C,2.102000*%
%ADD15RoundRect,0.301000X-0.350000X-0.625000X0.350000X-0.625000X0.350000X0.625000X-0.350000X0.625000X0*%
%ADD16O,1.302000X1.852000*%
%ADD17C,5.702000*%
%ADD18FreePoly0,0.000000*%
%ADD19FreePoly1,0.000000*%
%ADD20RoundRect,0.301000X-0.625000X0.350000X-0.625000X-0.350000X0.625000X-0.350000X0.625000X0.350000X0*%
%ADD21O,1.852000X1.302000*%
%ADD22RoundRect,0.051000X-1.600000X1.325000X-1.600000X-1.325000X1.600000X-1.325000X1.600000X1.325000X0*%
%ADD23RoundRect,0.301000X0.450000X-0.262500X0.450000X0.262500X-0.450000X0.262500X-0.450000X-0.262500X0*%
%ADD24RoundRect,0.301000X-0.450000X0.262500X-0.450000X-0.262500X0.450000X-0.262500X0.450000X0.262500X0*%
%ADD25RoundRect,0.051000X0.850000X-0.850000X0.850000X0.850000X-0.850000X0.850000X-0.850000X-0.850000X0*%
%ADD26O,1.802000X1.802000*%
%ADD27C,6.102000*%
%ADD28RoundRect,1.551000X-1.500000X1.500000X-1.500000X-1.500000X1.500000X-1.500000X1.500000X1.500000X0*%
%ADD29RoundRect,0.051000X0.250000X-0.175000X0.250000X0.175000X-0.250000X0.175000X-0.250000X-0.175000X0*%
%ADD30RoundRect,0.051000X0.300000X-0.125000X0.300000X0.125000X-0.300000X0.125000X-0.300000X-0.125000X0*%
%ADD31RoundRect,0.051000X-0.225000X-0.437500X0.225000X-0.437500X0.225000X0.437500X-0.225000X0.437500X0*%
%ADD32RoundRect,0.051000X-0.150000X-0.437500X0.150000X-0.437500X0.150000X0.437500X-0.150000X0.437500X0*%
%ADD33RoundRect,0.051000X0.437500X-0.150000X0.437500X0.150000X-0.437500X0.150000X-0.437500X-0.150000X0*%
%ADD34RoundRect,0.051000X0.762500X-0.125000X0.762500X0.125000X-0.762500X0.125000X-0.762500X-0.125000X0*%
%ADD35RoundRect,0.051000X0.762500X-0.475000X0.762500X0.475000X-0.762500X0.475000X-0.762500X-0.475000X0*%
%ADD36RoundRect,0.051000X-0.225000X-0.300000X0.225000X-0.300000X0.225000X0.300000X-0.225000X0.300000X0*%
%ADD37RoundRect,0.051000X-0.150000X-0.825000X0.150000X-0.825000X0.150000X0.825000X-0.150000X0.825000X0*%
%ADD38RoundRect,0.051000X0.500000X-0.500000X0.500000X0.500000X-0.500000X0.500000X-0.500000X-0.500000X0*%
%ADD39RoundRect,0.301000X0.475000X-0.250000X0.475000X0.250000X-0.475000X0.250000X-0.475000X-0.250000X0*%
%ADD40RoundRect,0.301000X-0.250000X-0.475000X0.250000X-0.475000X0.250000X0.475000X-0.250000X0.475000X0*%
%ADD41RoundRect,0.301000X1.250000X0.550000X-1.250000X0.550000X-1.250000X-0.550000X1.250000X-0.550000X0*%
%ADD42RoundRect,0.301000X0.550000X-1.250000X0.550000X1.250000X-0.550000X1.250000X-0.550000X-1.250000X0*%
G04 APERTURE END LIST*
D10*
X18225000Y7000000D03*
X15685000Y7000000D03*
X13145000Y7000000D03*
X10605000Y7000000D03*
X8065000Y7000000D03*
X5525000Y7000000D03*
X2985000Y7000000D03*
X445000Y7000000D03*
D11*
X1645000Y-11442000D03*
X2295000Y-11442000D03*
X2945000Y-11442000D03*
X3595000Y-11442000D03*
X4245000Y-11442000D03*
X4895000Y-11442000D03*
X5545000Y-11442000D03*
X6195000Y-11442000D03*
X6845000Y-11442000D03*
X7495000Y-11442000D03*
X7495000Y-17318000D03*
X6845000Y-17318000D03*
X6195000Y-17318000D03*
X5545000Y-17318000D03*
X4895000Y-17318000D03*
X4245000Y-17318000D03*
X3595000Y-17318000D03*
X2945000Y-17318000D03*
X2295000Y-17318000D03*
X1645000Y-17318000D03*
D12*
X-2992500Y-8570000D03*
X-1167500Y-8570000D03*
D13*
X-14155000Y20725000D03*
X-14155000Y19455000D03*
X-14155000Y18185000D03*
X-14155000Y16915000D03*
X-14155000Y15645000D03*
X-14155000Y14375000D03*
X-14155000Y13105000D03*
X-14155000Y11835000D03*
X-9205000Y11835000D03*
X-9205000Y13105000D03*
X-9205000Y14375000D03*
X-9205000Y15645000D03*
X-9205000Y16915000D03*
X-9205000Y18185000D03*
X-9205000Y19455000D03*
X-9205000Y20725000D03*
D14*
X-130000Y3000000D03*
X-130000Y460000D03*
X-130000Y-2080000D03*
X2410000Y3000000D03*
X2410000Y460000D03*
X2410000Y-2080000D03*
X4950000Y3000000D03*
X4950000Y460000D03*
X4950000Y-2080000D03*
X7490000Y3000000D03*
X7490000Y460000D03*
X7490000Y-2080000D03*
X10890000Y3000000D03*
X10890000Y460000D03*
X10890000Y-2080000D03*
X13430000Y3000000D03*
X13430000Y460000D03*
X13430000Y-2080000D03*
X15970000Y3000000D03*
X15970000Y460000D03*
X15970000Y-2080000D03*
X18510000Y3000000D03*
X18510000Y460000D03*
X18510000Y-2080000D03*
X26495000Y3000000D03*
X26495000Y460000D03*
X26495000Y-2080000D03*
X29035000Y3000000D03*
X29035000Y460000D03*
X29035000Y-2080000D03*
X31575000Y3000000D03*
X31575000Y460000D03*
X31575000Y-2080000D03*
X34115000Y3000000D03*
X34115000Y460000D03*
X34115000Y-2080000D03*
X37515000Y3000000D03*
X37515000Y460000D03*
X37515000Y-2080000D03*
X40055000Y3000000D03*
X40055000Y460000D03*
X40055000Y-2080000D03*
X42595000Y3000000D03*
X42595000Y460000D03*
X42595000Y-2080000D03*
X45135000Y3000000D03*
X45135000Y460000D03*
X45135000Y-2080000D03*
X-5850000Y-1650000D03*
X-5850000Y-4190000D03*
X-5850000Y-6730000D03*
X-5850000Y-9270000D03*
X-5850000Y-11810000D03*
X-5850000Y-14350000D03*
X50850000Y-1650000D03*
X50850000Y-4190000D03*
X50850000Y-6730000D03*
X50850000Y-9270000D03*
X50850000Y-11810000D03*
X50850000Y-14350000D03*
D15*
X22130000Y8390000D03*
D16*
X24130000Y8390000D03*
X26130000Y8390000D03*
X28130000Y8390000D03*
X30130000Y8390000D03*
X32130000Y8390000D03*
D15*
X22110000Y13970000D03*
D16*
X24110000Y13970000D03*
X26110000Y13970000D03*
X28110000Y13970000D03*
X30110000Y13970000D03*
X32110000Y13970000D03*
D17*
X39000000Y-24500000D03*
X-19000000Y-24500000D03*
X39000000Y24500000D03*
X-19000000Y24500000D03*
D18*
X10870000Y26710000D03*
D19*
X9570000Y26710000D03*
D20*
X-19020000Y-2430000D03*
D21*
X-19020000Y-4430000D03*
X-19020000Y-6430000D03*
X-19020000Y-8430000D03*
X-19020000Y-10430000D03*
X-19020000Y-12430000D03*
X-19020000Y-14430000D03*
X-19020000Y-16430000D03*
X-19020000Y-18430000D03*
D22*
X9620000Y15360000D03*
X9620000Y9760000D03*
D13*
X-14155000Y10205000D03*
X-14155000Y8935000D03*
X-14155000Y7665000D03*
X-14155000Y6395000D03*
X-14155000Y5125000D03*
X-14155000Y3855000D03*
X-14155000Y2585000D03*
X-14155000Y1315000D03*
X-9205000Y1315000D03*
X-9205000Y2585000D03*
X-9205000Y3855000D03*
X-9205000Y5125000D03*
X-9205000Y6395000D03*
X-9205000Y7665000D03*
X-9205000Y8935000D03*
X-9205000Y10205000D03*
D12*
X-2982500Y-6570000D03*
X-1157500Y-6570000D03*
X12862500Y24440000D03*
X11037500Y24440000D03*
X9412500Y24450000D03*
X7587500Y24450000D03*
D23*
X49000000Y6457500D03*
X49000000Y8282500D03*
D24*
X45060000Y6470000D03*
X45060000Y8295000D03*
D25*
X34080000Y-23350000D03*
D26*
X34080000Y-25890000D03*
X31540000Y-23350000D03*
X31540000Y-25890000D03*
X29000000Y-23350000D03*
X29000000Y-25890000D03*
X26460000Y-23350000D03*
X26460000Y-25890000D03*
X23920000Y-23350000D03*
X23920000Y-25890000D03*
X21380000Y-23350000D03*
X21380000Y-25890000D03*
X18840000Y-23350000D03*
X18840000Y-25890000D03*
X16300000Y-23350000D03*
X16300000Y-25890000D03*
X13760000Y-23350000D03*
X13760000Y-25890000D03*
X11220000Y-23350000D03*
X11220000Y-25890000D03*
X8680000Y-23350000D03*
X8680000Y-25890000D03*
X6140000Y-23350000D03*
X6140000Y-25890000D03*
X3600000Y-23350000D03*
X3600000Y-25890000D03*
X1060000Y-23350000D03*
X1060000Y-25890000D03*
X-1480000Y-23350000D03*
X-1480000Y-25890000D03*
X-4020000Y-23350000D03*
X-4020000Y-25890000D03*
X-6560000Y-23350000D03*
X-6560000Y-25890000D03*
X-9100000Y-23350000D03*
X-9100000Y-25890000D03*
X-11640000Y-23350000D03*
X-11640000Y-25890000D03*
X-14180000Y-23350000D03*
X-14180000Y-25890000D03*
D16*
X34110000Y19550000D03*
X32110000Y19550000D03*
X30110000Y19550000D03*
X28110000Y19550000D03*
X26110000Y19550000D03*
X24110000Y19550000D03*
D15*
X22110000Y19550000D03*
D21*
X-18620000Y4820000D03*
X-18620000Y6820000D03*
X-18620000Y8820000D03*
X-18620000Y10820000D03*
X-18620000Y12820000D03*
X-18620000Y14820000D03*
D20*
X-18620000Y16820000D03*
D15*
X37110000Y8390000D03*
D16*
X39110000Y8390000D03*
X41110000Y8390000D03*
D15*
X37110000Y13970000D03*
D16*
X39110000Y13970000D03*
X41110000Y13970000D03*
D15*
X26720000Y25150000D03*
D16*
X28720000Y25150000D03*
X30720000Y25150000D03*
X32720000Y25150000D03*
D27*
X47500000Y16160000D03*
D28*
X47500000Y23600000D03*
D20*
X-13310000Y-5820000D03*
D21*
X-13310000Y-7820000D03*
X-13310000Y-9820000D03*
X-13310000Y-11820000D03*
X-13310000Y-13820000D03*
X-13310000Y-15820000D03*
D20*
X-24210000Y16830000D03*
D21*
X-24210000Y14830000D03*
X-24210000Y12830000D03*
X-24210000Y10830000D03*
X-24210000Y8830000D03*
X-24210000Y6830000D03*
X-24210000Y4830000D03*
D29*
X11430000Y21695000D03*
D30*
X9630000Y19820000D03*
D29*
X7830000Y21695000D03*
D31*
X8305000Y21958000D03*
D32*
X8880000Y21958000D03*
X9380000Y21958000D03*
X9880000Y21958000D03*
X10380000Y21958000D03*
D31*
X10955000Y21957000D03*
D33*
X11242000Y21170000D03*
X11242000Y20670000D03*
D34*
X10918000Y20170000D03*
D35*
X10917000Y19120000D03*
D36*
X10955000Y18345000D03*
D37*
X9630000Y18870000D03*
D36*
X8305000Y18345000D03*
D35*
X8343000Y19120000D03*
D34*
X8342000Y20170000D03*
D33*
X8017000Y20670000D03*
X8017000Y21170000D03*
D38*
X47030000Y6450000D03*
X47030000Y8950000D03*
D39*
X3510000Y19140000D03*
X3510000Y21040000D03*
D40*
X15420000Y20180000D03*
X13520000Y20180000D03*
D41*
X440000Y24930000D03*
X4840000Y24930000D03*
D40*
X15420000Y18140000D03*
X13520000Y18140000D03*
D42*
X16260000Y15350000D03*
X16260000Y10950000D03*
D39*
X5550000Y21040000D03*
X5550000Y19140000D03*
D42*
X2980000Y14530000D03*
X2980000Y10130000D03*
D40*
X13520000Y22200000D03*
X15420000Y22200000D03*
D39*
X50990000Y6440000D03*
X50990000Y8340000D03*
D40*
X5080000Y17330000D03*
X3180000Y17330000D03*
G36*
X2684633Y-16544017D02*
G01*
X2685197Y-16545936D01*
X2684916Y-16546575D01*
X2674767Y-16561763D01*
X2671000Y-16580699D01*
X2671000Y-18055301D01*
X2674767Y-18074238D01*
X2684814Y-18089273D01*
X2684945Y-18091268D01*
X2683282Y-18092380D01*
X2682553Y-18092293D01*
X2622212Y-18073398D01*
X2557310Y-18092455D01*
X2555367Y-18091983D01*
X2554803Y-18090064D01*
X2555084Y-18089425D01*
X2565233Y-18074237D01*
X2569000Y-18055301D01*
X2569000Y-16580699D01*
X2565233Y-16561762D01*
X2555186Y-16546727D01*
X2555055Y-16544732D01*
X2556718Y-16543620D01*
X2557447Y-16543707D01*
X2617788Y-16562602D01*
X2682690Y-16543545D01*
X2684633Y-16544017D01*
G37*
G36*
X5934633Y-16544017D02*
G01*
X5935197Y-16545936D01*
X5934916Y-16546575D01*
X5924767Y-16561763D01*
X5921000Y-16580699D01*
X5921000Y-18055301D01*
X5924767Y-18074238D01*
X5934814Y-18089273D01*
X5934945Y-18091268D01*
X5933282Y-18092380D01*
X5932553Y-18092293D01*
X5872212Y-18073398D01*
X5807310Y-18092455D01*
X5805367Y-18091983D01*
X5804803Y-18090064D01*
X5805084Y-18089425D01*
X5815233Y-18074237D01*
X5819000Y-18055301D01*
X5819000Y-16580699D01*
X5815233Y-16561762D01*
X5805186Y-16546727D01*
X5805055Y-16544732D01*
X5806718Y-16543620D01*
X5807447Y-16543707D01*
X5867788Y-16562602D01*
X5932690Y-16543545D01*
X5934633Y-16544017D01*
G37*
G36*
X2034633Y-16544017D02*
G01*
X2035197Y-16545936D01*
X2034916Y-16546575D01*
X2024767Y-16561763D01*
X2021000Y-16580699D01*
X2021000Y-18055301D01*
X2024767Y-18074238D01*
X2034814Y-18089273D01*
X2034945Y-18091268D01*
X2033282Y-18092380D01*
X2032553Y-18092293D01*
X1972212Y-18073398D01*
X1907310Y-18092455D01*
X1905367Y-18091983D01*
X1904803Y-18090064D01*
X1905084Y-18089425D01*
X1915233Y-18074237D01*
X1919000Y-18055301D01*
X1919000Y-16580699D01*
X1915233Y-16561762D01*
X1905186Y-16546727D01*
X1905055Y-16544732D01*
X1906718Y-16543620D01*
X1907447Y-16543707D01*
X1967788Y-16562602D01*
X2032690Y-16543545D01*
X2034633Y-16544017D01*
G37*
G36*
X4634633Y-16544017D02*
G01*
X4635197Y-16545936D01*
X4634916Y-16546575D01*
X4624767Y-16561763D01*
X4621000Y-16580699D01*
X4621000Y-18055301D01*
X4624767Y-18074238D01*
X4634814Y-18089273D01*
X4634945Y-18091268D01*
X4633282Y-18092380D01*
X4632553Y-18092293D01*
X4572212Y-18073398D01*
X4507310Y-18092455D01*
X4505367Y-18091983D01*
X4504803Y-18090064D01*
X4505084Y-18089425D01*
X4515233Y-18074237D01*
X4519000Y-18055301D01*
X4519000Y-16580699D01*
X4515233Y-16561762D01*
X4505186Y-16546727D01*
X4505055Y-16544732D01*
X4506718Y-16543620D01*
X4507447Y-16543707D01*
X4567788Y-16562602D01*
X4632690Y-16543545D01*
X4634633Y-16544017D01*
G37*
G36*
X6584633Y-16544017D02*
G01*
X6585197Y-16545936D01*
X6584916Y-16546575D01*
X6574767Y-16561763D01*
X6571000Y-16580699D01*
X6571000Y-18055301D01*
X6574767Y-18074238D01*
X6584814Y-18089273D01*
X6584945Y-18091268D01*
X6583282Y-18092380D01*
X6582553Y-18092293D01*
X6522212Y-18073398D01*
X6457310Y-18092455D01*
X6455367Y-18091983D01*
X6454803Y-18090064D01*
X6455084Y-18089425D01*
X6465233Y-18074237D01*
X6469000Y-18055301D01*
X6469000Y-16580699D01*
X6465233Y-16561762D01*
X6455186Y-16546727D01*
X6455055Y-16544732D01*
X6456718Y-16543620D01*
X6457447Y-16543707D01*
X6517788Y-16562602D01*
X6582690Y-16543545D01*
X6584633Y-16544017D01*
G37*
G36*
X3984633Y-16544017D02*
G01*
X3985197Y-16545936D01*
X3984916Y-16546575D01*
X3974767Y-16561763D01*
X3971000Y-16580699D01*
X3971000Y-18055301D01*
X3974767Y-18074238D01*
X3984814Y-18089273D01*
X3984945Y-18091268D01*
X3983282Y-18092380D01*
X3982553Y-18092293D01*
X3922212Y-18073398D01*
X3857310Y-18092455D01*
X3855367Y-18091983D01*
X3854803Y-18090064D01*
X3855084Y-18089425D01*
X3865233Y-18074237D01*
X3869000Y-18055301D01*
X3869000Y-16580699D01*
X3865233Y-16561762D01*
X3855186Y-16546727D01*
X3855055Y-16544732D01*
X3856718Y-16543620D01*
X3857447Y-16543707D01*
X3917788Y-16562602D01*
X3982690Y-16543545D01*
X3984633Y-16544017D01*
G37*
G36*
X3334633Y-16544017D02*
G01*
X3335197Y-16545936D01*
X3334916Y-16546575D01*
X3324767Y-16561763D01*
X3321000Y-16580699D01*
X3321000Y-18055301D01*
X3324767Y-18074238D01*
X3334814Y-18089273D01*
X3334945Y-18091268D01*
X3333282Y-18092380D01*
X3332553Y-18092293D01*
X3272212Y-18073398D01*
X3207310Y-18092455D01*
X3205367Y-18091983D01*
X3204803Y-18090064D01*
X3205084Y-18089425D01*
X3215233Y-18074237D01*
X3219000Y-18055301D01*
X3219000Y-16580699D01*
X3215233Y-16561762D01*
X3205186Y-16546727D01*
X3205055Y-16544732D01*
X3206718Y-16543620D01*
X3207447Y-16543707D01*
X3267788Y-16562602D01*
X3332690Y-16543545D01*
X3334633Y-16544017D01*
G37*
G36*
X5284633Y-16544017D02*
G01*
X5285197Y-16545936D01*
X5284916Y-16546575D01*
X5274767Y-16561763D01*
X5271000Y-16580699D01*
X5271000Y-18055301D01*
X5274767Y-18074238D01*
X5284814Y-18089273D01*
X5284945Y-18091268D01*
X5283282Y-18092380D01*
X5282553Y-18092293D01*
X5222212Y-18073398D01*
X5157310Y-18092455D01*
X5155367Y-18091983D01*
X5154803Y-18090064D01*
X5155084Y-18089425D01*
X5165233Y-18074237D01*
X5169000Y-18055301D01*
X5169000Y-16580699D01*
X5165233Y-16561762D01*
X5155186Y-16546727D01*
X5155055Y-16544732D01*
X5156718Y-16543620D01*
X5157447Y-16543707D01*
X5217788Y-16562602D01*
X5282690Y-16543545D01*
X5284633Y-16544017D01*
G37*
G36*
X7234633Y-16544017D02*
G01*
X7235197Y-16545936D01*
X7234916Y-16546575D01*
X7224767Y-16561763D01*
X7221000Y-16580699D01*
X7221000Y-18055301D01*
X7224767Y-18074238D01*
X7234814Y-18089273D01*
X7234945Y-18091268D01*
X7233282Y-18092380D01*
X7232553Y-18092293D01*
X7172212Y-18073398D01*
X7107310Y-18092455D01*
X7105367Y-18091983D01*
X7104803Y-18090064D01*
X7105084Y-18089425D01*
X7115233Y-18074237D01*
X7119000Y-18055301D01*
X7119000Y-16580699D01*
X7115233Y-16561762D01*
X7105186Y-16546727D01*
X7105055Y-16544732D01*
X7106718Y-16543620D01*
X7107447Y-16543707D01*
X7167788Y-16562602D01*
X7232690Y-16543545D01*
X7234633Y-16544017D01*
G37*
G36*
X3984633Y-10668017D02*
G01*
X3985197Y-10669936D01*
X3984916Y-10670575D01*
X3974767Y-10685763D01*
X3971000Y-10704699D01*
X3971000Y-12179301D01*
X3974767Y-12198238D01*
X3984814Y-12213273D01*
X3984945Y-12215268D01*
X3983282Y-12216380D01*
X3982553Y-12216293D01*
X3922212Y-12197398D01*
X3857310Y-12216455D01*
X3855367Y-12215983D01*
X3854803Y-12214064D01*
X3855084Y-12213425D01*
X3865233Y-12198237D01*
X3869000Y-12179301D01*
X3869000Y-10704699D01*
X3865233Y-10685762D01*
X3855186Y-10670727D01*
X3855055Y-10668732D01*
X3856718Y-10667620D01*
X3857447Y-10667707D01*
X3917788Y-10686602D01*
X3982690Y-10667545D01*
X3984633Y-10668017D01*
G37*
G36*
X5284633Y-10668017D02*
G01*
X5285197Y-10669936D01*
X5284916Y-10670575D01*
X5274767Y-10685763D01*
X5271000Y-10704699D01*
X5271000Y-12179301D01*
X5274767Y-12198238D01*
X5284814Y-12213273D01*
X5284945Y-12215268D01*
X5283282Y-12216380D01*
X5282553Y-12216293D01*
X5222212Y-12197398D01*
X5157310Y-12216455D01*
X5155367Y-12215983D01*
X5154803Y-12214064D01*
X5155084Y-12213425D01*
X5165233Y-12198237D01*
X5169000Y-12179301D01*
X5169000Y-10704699D01*
X5165233Y-10685762D01*
X5155186Y-10670727D01*
X5155055Y-10668732D01*
X5156718Y-10667620D01*
X5157447Y-10667707D01*
X5217788Y-10686602D01*
X5282690Y-10667545D01*
X5284633Y-10668017D01*
G37*
G36*
X2684633Y-10668017D02*
G01*
X2685197Y-10669936D01*
X2684916Y-10670575D01*
X2674767Y-10685763D01*
X2671000Y-10704699D01*
X2671000Y-12179301D01*
X2674767Y-12198238D01*
X2684814Y-12213273D01*
X2684945Y-12215268D01*
X2683282Y-12216380D01*
X2682553Y-12216293D01*
X2622212Y-12197398D01*
X2557310Y-12216455D01*
X2555367Y-12215983D01*
X2554803Y-12214064D01*
X2555084Y-12213425D01*
X2565233Y-12198237D01*
X2569000Y-12179301D01*
X2569000Y-10704699D01*
X2565233Y-10685762D01*
X2555186Y-10670727D01*
X2555055Y-10668732D01*
X2556718Y-10667620D01*
X2557447Y-10667707D01*
X2617788Y-10686602D01*
X2682690Y-10667545D01*
X2684633Y-10668017D01*
G37*
G36*
X4634633Y-10668017D02*
G01*
X4635197Y-10669936D01*
X4634916Y-10670575D01*
X4624767Y-10685763D01*
X4621000Y-10704699D01*
X4621000Y-12179301D01*
X4624767Y-12198238D01*
X4634814Y-12213273D01*
X4634945Y-12215268D01*
X4633282Y-12216380D01*
X4632553Y-12216293D01*
X4572212Y-12197398D01*
X4507310Y-12216455D01*
X4505367Y-12215983D01*
X4504803Y-12214064D01*
X4505084Y-12213425D01*
X4515233Y-12198237D01*
X4519000Y-12179301D01*
X4519000Y-10704699D01*
X4515233Y-10685762D01*
X4505186Y-10670727D01*
X4505055Y-10668732D01*
X4506718Y-10667620D01*
X4507447Y-10667707D01*
X4567788Y-10686602D01*
X4632690Y-10667545D01*
X4634633Y-10668017D01*
G37*
G36*
X2034633Y-10668017D02*
G01*
X2035197Y-10669936D01*
X2034916Y-10670575D01*
X2024767Y-10685763D01*
X2021000Y-10704699D01*
X2021000Y-12179301D01*
X2024767Y-12198238D01*
X2034814Y-12213273D01*
X2034945Y-12215268D01*
X2033282Y-12216380D01*
X2032553Y-12216293D01*
X1972212Y-12197398D01*
X1907310Y-12216455D01*
X1905367Y-12215983D01*
X1904803Y-12214064D01*
X1905084Y-12213425D01*
X1915233Y-12198237D01*
X1919000Y-12179301D01*
X1919000Y-10704699D01*
X1915233Y-10685762D01*
X1905186Y-10670727D01*
X1905055Y-10668732D01*
X1906718Y-10667620D01*
X1907447Y-10667707D01*
X1967788Y-10686602D01*
X2032690Y-10667545D01*
X2034633Y-10668017D01*
G37*
G36*
X7234633Y-10668017D02*
G01*
X7235197Y-10669936D01*
X7234916Y-10670575D01*
X7224767Y-10685763D01*
X7221000Y-10704699D01*
X7221000Y-12179301D01*
X7224767Y-12198238D01*
X7234814Y-12213273D01*
X7234945Y-12215268D01*
X7233282Y-12216380D01*
X7232553Y-12216293D01*
X7172212Y-12197398D01*
X7107310Y-12216455D01*
X7105367Y-12215983D01*
X7104803Y-12214064D01*
X7105084Y-12213425D01*
X7115233Y-12198237D01*
X7119000Y-12179301D01*
X7119000Y-10704699D01*
X7115233Y-10685762D01*
X7105186Y-10670727D01*
X7105055Y-10668732D01*
X7106718Y-10667620D01*
X7107447Y-10667707D01*
X7167788Y-10686602D01*
X7232690Y-10667545D01*
X7234633Y-10668017D01*
G37*
G36*
X6584633Y-10668017D02*
G01*
X6585197Y-10669936D01*
X6584916Y-10670575D01*
X6574767Y-10685763D01*
X6571000Y-10704699D01*
X6571000Y-12179301D01*
X6574767Y-12198238D01*
X6584814Y-12213273D01*
X6584945Y-12215268D01*
X6583282Y-12216380D01*
X6582553Y-12216293D01*
X6522212Y-12197398D01*
X6457310Y-12216455D01*
X6455367Y-12215983D01*
X6454803Y-12214064D01*
X6455084Y-12213425D01*
X6465233Y-12198237D01*
X6469000Y-12179301D01*
X6469000Y-10704699D01*
X6465233Y-10685762D01*
X6455186Y-10670727D01*
X6455055Y-10668732D01*
X6456718Y-10667620D01*
X6457447Y-10667707D01*
X6517788Y-10686602D01*
X6582690Y-10667545D01*
X6584633Y-10668017D01*
G37*
G36*
X3334633Y-10668017D02*
G01*
X3335197Y-10669936D01*
X3334916Y-10670575D01*
X3324767Y-10685763D01*
X3321000Y-10704699D01*
X3321000Y-12179301D01*
X3324767Y-12198238D01*
X3334814Y-12213273D01*
X3334945Y-12215268D01*
X3333282Y-12216380D01*
X3332553Y-12216293D01*
X3272212Y-12197398D01*
X3207310Y-12216455D01*
X3205367Y-12215983D01*
X3204803Y-12214064D01*
X3205084Y-12213425D01*
X3215233Y-12198237D01*
X3219000Y-12179301D01*
X3219000Y-10704699D01*
X3215233Y-10685762D01*
X3205186Y-10670727D01*
X3205055Y-10668732D01*
X3206718Y-10667620D01*
X3207447Y-10667707D01*
X3267788Y-10686602D01*
X3332690Y-10667545D01*
X3334633Y-10668017D01*
G37*
G36*
X5934633Y-10668017D02*
G01*
X5935197Y-10669936D01*
X5934916Y-10670575D01*
X5924767Y-10685763D01*
X5921000Y-10704699D01*
X5921000Y-12179301D01*
X5924767Y-12198238D01*
X5934814Y-12213273D01*
X5934945Y-12215268D01*
X5933282Y-12216380D01*
X5932553Y-12216293D01*
X5872212Y-12197398D01*
X5807310Y-12216455D01*
X5805367Y-12215983D01*
X5804803Y-12214064D01*
X5805084Y-12213425D01*
X5815233Y-12198237D01*
X5819000Y-12179301D01*
X5819000Y-10704699D01*
X5815233Y-10685762D01*
X5805186Y-10670727D01*
X5805055Y-10668732D01*
X5806718Y-10667620D01*
X5807447Y-10667707D01*
X5867788Y-10686602D01*
X5932690Y-10667545D01*
X5934633Y-10668017D01*
G37*
G36*
X10762032Y20496916D02*
G01*
X10762501Y20496422D01*
X10769880Y20485380D01*
X10785762Y20474767D01*
X10804699Y20471000D01*
X11679301Y20471000D01*
X11698238Y20474767D01*
X11709233Y20482114D01*
X11711229Y20482245D01*
X11712340Y20480582D01*
X11712007Y20479340D01*
X11710326Y20476823D01*
X11689546Y20410459D01*
X11710335Y20339659D01*
X11713007Y20335660D01*
X11713138Y20333664D01*
X11711475Y20332553D01*
X11710233Y20332886D01*
X11699238Y20340233D01*
X11680301Y20344000D01*
X10638251Y20344000D01*
X10636519Y20345000D01*
X10636519Y20347000D01*
X10637688Y20347919D01*
X10704700Y20367595D01*
X10750035Y20419916D01*
X10758851Y20495543D01*
X10760045Y20497147D01*
X10762032Y20496916D01*
G37*
G36*
X8499956Y20496195D02*
G01*
X8500154Y20495489D01*
X8506372Y20425996D01*
X8548842Y20371325D01*
X8621367Y20347903D01*
X8622708Y20346419D01*
X8622093Y20344516D01*
X8620752Y20344000D01*
X7579699Y20344000D01*
X7560762Y20340233D01*
X7549767Y20332886D01*
X7547771Y20332755D01*
X7546660Y20334418D01*
X7546993Y20335660D01*
X7549174Y20338925D01*
X7569954Y20405289D01*
X7549165Y20476089D01*
X7546993Y20479340D01*
X7546862Y20481336D01*
X7548525Y20482447D01*
X7549767Y20482114D01*
X7560762Y20474767D01*
X7579699Y20471000D01*
X8454301Y20471000D01*
X8473238Y20474767D01*
X8489120Y20485380D01*
X8496499Y20496422D01*
X8498293Y20497307D01*
X8499956Y20496195D01*
G37*
G36*
X7545575Y20984916D02*
G01*
X7560763Y20974767D01*
X7579699Y20971000D01*
X8454301Y20971000D01*
X8473238Y20974767D01*
X8488273Y20984814D01*
X8490268Y20984945D01*
X8491380Y20983282D01*
X8491293Y20982553D01*
X8472398Y20922212D01*
X8491455Y20857310D01*
X8490983Y20855367D01*
X8489064Y20854803D01*
X8488425Y20855084D01*
X8473237Y20865233D01*
X8454301Y20869000D01*
X7579699Y20869000D01*
X7560762Y20865233D01*
X7545727Y20855186D01*
X7543732Y20855055D01*
X7542620Y20856718D01*
X7542707Y20857447D01*
X7561602Y20917788D01*
X7542545Y20982690D01*
X7543017Y20984633D01*
X7544936Y20985197D01*
X7545575Y20984916D01*
G37*
G36*
X10770575Y20984916D02*
G01*
X10785763Y20974767D01*
X10804699Y20971000D01*
X11679301Y20971000D01*
X11698238Y20974767D01*
X11713273Y20984814D01*
X11715268Y20984945D01*
X11716380Y20983282D01*
X11716293Y20982553D01*
X11697398Y20922212D01*
X11716455Y20857310D01*
X11715983Y20855367D01*
X11714064Y20854803D01*
X11713425Y20855084D01*
X11698237Y20865233D01*
X11679301Y20869000D01*
X10804699Y20869000D01*
X10785762Y20865233D01*
X10770727Y20855186D01*
X10768732Y20855055D01*
X10767620Y20856718D01*
X10767707Y20857447D01*
X10786602Y20917788D01*
X10767545Y20982690D01*
X10768017Y20984633D01*
X10769936Y20985197D01*
X10770575Y20984916D01*
G37*
G36*
X11716711Y21483169D02*
G01*
X11716624Y21482440D01*
X11697648Y21421838D01*
X11716629Y21357195D01*
X11716157Y21355252D01*
X11714238Y21354688D01*
X11713599Y21354969D01*
X11698238Y21365233D01*
X11679301Y21369000D01*
X10804699Y21369000D01*
X10785762Y21365233D01*
X10769880Y21354620D01*
X10762531Y21343622D01*
X10760737Y21342737D01*
X10759074Y21343848D01*
X10758906Y21345123D01*
X10759564Y21348434D01*
X10753366Y21417694D01*
X10710572Y21470800D01*
X10710264Y21472776D01*
X10711821Y21474031D01*
X10712519Y21474017D01*
X10730199Y21470500D01*
X11179801Y21470500D01*
X11182124Y21470962D01*
X11182514Y21471000D01*
X11679801Y21471000D01*
X11698738Y21474767D01*
X11713604Y21484701D01*
X11715599Y21484832D01*
X11716711Y21483169D01*
G37*
G36*
X7545901Y21485031D02*
G01*
X7561262Y21474767D01*
X7580199Y21471000D01*
X8079801Y21471000D01*
X8082124Y21471462D01*
X8082514Y21471500D01*
X8529801Y21471500D01*
X8546758Y21474873D01*
X8548652Y21474230D01*
X8549042Y21472268D01*
X8548683Y21471628D01*
X8507269Y21422075D01*
X8499380Y21348708D01*
X8500092Y21345127D01*
X8499449Y21343233D01*
X8497487Y21342843D01*
X8496467Y21343626D01*
X8489120Y21354620D01*
X8473238Y21365233D01*
X8454301Y21369000D01*
X7579699Y21369000D01*
X7560762Y21365233D01*
X7545896Y21355299D01*
X7543901Y21355168D01*
X7542789Y21356831D01*
X7542876Y21357560D01*
X7561852Y21418162D01*
X7542871Y21482805D01*
X7543343Y21484748D01*
X7545262Y21485312D01*
X7545901Y21485031D01*
G37*
G36*
X10567672Y22431956D02*
G01*
X10628536Y22412898D01*
X10692922Y22431803D01*
X10694865Y22431331D01*
X10695429Y22429412D01*
X10695148Y22428773D01*
X10684767Y22413238D01*
X10681000Y22394301D01*
X10681000Y21519699D01*
X10684767Y21500762D01*
X10694589Y21486063D01*
X10694720Y21484067D01*
X10693057Y21482956D01*
X10692328Y21483043D01*
X10631469Y21502102D01*
X10567078Y21483197D01*
X10565135Y21483669D01*
X10564571Y21485588D01*
X10564852Y21486227D01*
X10575233Y21501762D01*
X10579000Y21520699D01*
X10579000Y22395301D01*
X10575233Y22414237D01*
X10565411Y22428936D01*
X10565280Y22430931D01*
X10566943Y22432043D01*
X10567672Y22431956D01*
G37*
G36*
X10194633Y22431983D02*
G01*
X10195197Y22430064D01*
X10194916Y22429425D01*
X10184767Y22414237D01*
X10181000Y22395301D01*
X10181000Y21520699D01*
X10184767Y21501762D01*
X10194814Y21486727D01*
X10194945Y21484732D01*
X10193282Y21483620D01*
X10192553Y21483707D01*
X10132212Y21502602D01*
X10067310Y21483545D01*
X10065367Y21484017D01*
X10064803Y21485936D01*
X10065084Y21486575D01*
X10075233Y21501763D01*
X10079000Y21520699D01*
X10079000Y22395301D01*
X10075233Y22414238D01*
X10065186Y22429273D01*
X10065055Y22431268D01*
X10066718Y22432380D01*
X10067447Y22432293D01*
X10127788Y22413398D01*
X10192690Y22432455D01*
X10194633Y22431983D01*
G37*
G36*
X9694633Y22431983D02*
G01*
X9695197Y22430064D01*
X9694916Y22429425D01*
X9684767Y22414237D01*
X9681000Y22395301D01*
X9681000Y21520699D01*
X9684767Y21501762D01*
X9694814Y21486727D01*
X9694945Y21484732D01*
X9693282Y21483620D01*
X9692553Y21483707D01*
X9632212Y21502602D01*
X9567310Y21483545D01*
X9565367Y21484017D01*
X9564803Y21485936D01*
X9565084Y21486575D01*
X9575233Y21501763D01*
X9579000Y21520699D01*
X9579000Y22395301D01*
X9575233Y22414238D01*
X9565186Y22429273D01*
X9565055Y22431268D01*
X9566718Y22432380D01*
X9567447Y22432293D01*
X9627788Y22413398D01*
X9692690Y22432455D01*
X9694633Y22431983D01*
G37*
G36*
X9194633Y22431983D02*
G01*
X9195197Y22430064D01*
X9194916Y22429425D01*
X9184767Y22414237D01*
X9181000Y22395301D01*
X9181000Y21520699D01*
X9184767Y21501762D01*
X9194814Y21486727D01*
X9194945Y21484732D01*
X9193282Y21483620D01*
X9192553Y21483707D01*
X9132212Y21502602D01*
X9067310Y21483545D01*
X9065367Y21484017D01*
X9064803Y21485936D01*
X9065084Y21486575D01*
X9075233Y21501763D01*
X9079000Y21520699D01*
X9079000Y22395301D01*
X9075233Y22414238D01*
X9065186Y22429273D01*
X9065055Y22431268D01*
X9066718Y22432380D01*
X9067447Y22432293D01*
X9127788Y22413398D01*
X9192690Y22432455D01*
X9194633Y22431983D01*
G37*
G36*
X8694633Y22431983D02*
G01*
X8695197Y22430064D01*
X8694916Y22429425D01*
X8684767Y22414237D01*
X8681000Y22395301D01*
X8681000Y21520699D01*
X8684767Y21501762D01*
X8694814Y21486727D01*
X8694945Y21484732D01*
X8693282Y21483620D01*
X8692553Y21483707D01*
X8632212Y21502602D01*
X8567311Y21483546D01*
X8565368Y21484018D01*
X8564804Y21485937D01*
X8565085Y21486576D01*
X8575233Y21501762D01*
X8579000Y21520699D01*
X8579000Y22395301D01*
X8575233Y22414238D01*
X8565186Y22429273D01*
X8565055Y22431268D01*
X8566718Y22432380D01*
X8567447Y22432293D01*
X8627788Y22413398D01*
X8692690Y22432455D01*
X8694633Y22431983D01*
G37*
G36*
X10119267Y27476699D02*
G01*
X10170946Y27433511D01*
X10239661Y27424880D01*
X10302291Y27454844D01*
X10320348Y27475682D01*
X10322238Y27476336D01*
X10323749Y27475026D01*
X10323821Y27473982D01*
X10321000Y27459801D01*
X10321000Y25960199D01*
X10323978Y25945226D01*
X10323335Y25943332D01*
X10321373Y25942942D01*
X10320733Y25943301D01*
X10269054Y25986489D01*
X10200339Y25995120D01*
X10137709Y25965156D01*
X10119652Y25944318D01*
X10117762Y25943664D01*
X10116251Y25944974D01*
X10116179Y25946018D01*
X10119000Y25960199D01*
X10119000Y27459801D01*
X10116022Y27474774D01*
X10116665Y27476668D01*
X10118627Y27477058D01*
X10119267Y27476699D01*
G37*
M02*
