G04 #@! TF.GenerationSoftware,KiCad,Pcbnew,(5.1.4)-1*
G04 #@! TF.CreationDate,2021-11-14T18:33:35-06:00*
G04 #@! TF.ProjectId,FadecandyHatV1.0,46616465-6361-46e6-9479-48617456312e,rev?*
G04 #@! TF.SameCoordinates,Original*
G04 #@! TF.FileFunction,Soldermask,Top*
G04 #@! TF.FilePolarity,Negative*
%FSLAX46Y46*%
G04 Gerber Fmt 4.6, Leading zero omitted, Abs format (unit mm)*
G04 Created by KiCad (PCBNEW (5.1.4)-1) date 2021-11-14 18:33:35*
%MOMM*%
%LPD*%
G04 APERTURE LIST*
%ADD10C,0.100000*%
G04 APERTURE END LIST*
D10*
G36*
X37003000Y-21255000D02*
G01*
X33101000Y-21255000D01*
X33101000Y-17353000D01*
X37003000Y-17353000D01*
X37003000Y-21255000D01*
X37003000Y-21255000D01*
G37*
G36*
X3920443Y-19425519D02*
G01*
X3986627Y-19432037D01*
X4156466Y-19483557D01*
X4312991Y-19567222D01*
X4348729Y-19596552D01*
X4450186Y-19679814D01*
X4533448Y-19781271D01*
X4562778Y-19817009D01*
X4646443Y-19973534D01*
X4697963Y-20143373D01*
X4715359Y-20320000D01*
X4697963Y-20496627D01*
X4646443Y-20666466D01*
X4562778Y-20822991D01*
X4533448Y-20858729D01*
X4450186Y-20960186D01*
X4348729Y-21043448D01*
X4312991Y-21072778D01*
X4156466Y-21156443D01*
X3986627Y-21207963D01*
X3920442Y-21214482D01*
X3854260Y-21221000D01*
X3765740Y-21221000D01*
X3699558Y-21214482D01*
X3633373Y-21207963D01*
X3463534Y-21156443D01*
X3307009Y-21072778D01*
X3271271Y-21043448D01*
X3169814Y-20960186D01*
X3086552Y-20858729D01*
X3057222Y-20822991D01*
X2973557Y-20666466D01*
X2922037Y-20496627D01*
X2904641Y-20320000D01*
X2922037Y-20143373D01*
X2973557Y-19973534D01*
X3057222Y-19817009D01*
X3086552Y-19781271D01*
X3169814Y-19679814D01*
X3271271Y-19596552D01*
X3307009Y-19567222D01*
X3463534Y-19483557D01*
X3633373Y-19432037D01*
X3699557Y-19425519D01*
X3765740Y-19419000D01*
X3854260Y-19419000D01*
X3920443Y-19425519D01*
X3920443Y-19425519D01*
G37*
G36*
X1380443Y-19425519D02*
G01*
X1446627Y-19432037D01*
X1616466Y-19483557D01*
X1772991Y-19567222D01*
X1808729Y-19596552D01*
X1910186Y-19679814D01*
X1993448Y-19781271D01*
X2022778Y-19817009D01*
X2106443Y-19973534D01*
X2157963Y-20143373D01*
X2175359Y-20320000D01*
X2157963Y-20496627D01*
X2106443Y-20666466D01*
X2022778Y-20822991D01*
X1993448Y-20858729D01*
X1910186Y-20960186D01*
X1808729Y-21043448D01*
X1772991Y-21072778D01*
X1616466Y-21156443D01*
X1446627Y-21207963D01*
X1380442Y-21214482D01*
X1314260Y-21221000D01*
X1225740Y-21221000D01*
X1159558Y-21214482D01*
X1093373Y-21207963D01*
X923534Y-21156443D01*
X767009Y-21072778D01*
X731271Y-21043448D01*
X629814Y-20960186D01*
X546552Y-20858729D01*
X517222Y-20822991D01*
X433557Y-20666466D01*
X382037Y-20496627D01*
X364641Y-20320000D01*
X382037Y-20143373D01*
X433557Y-19973534D01*
X517222Y-19817009D01*
X546552Y-19781271D01*
X629814Y-19679814D01*
X731271Y-19596552D01*
X767009Y-19567222D01*
X923534Y-19483557D01*
X1093373Y-19432037D01*
X1159557Y-19425519D01*
X1225740Y-19419000D01*
X1314260Y-19419000D01*
X1380443Y-19425519D01*
X1380443Y-19425519D01*
G37*
G36*
X41402585Y-17703802D02*
G01*
X41552410Y-17733604D01*
X41834674Y-17850521D01*
X42088705Y-18020259D01*
X42304741Y-18236295D01*
X42474479Y-18490326D01*
X42591396Y-18772590D01*
X42607501Y-18853554D01*
X42635707Y-18995354D01*
X42651000Y-19072240D01*
X42651000Y-19377760D01*
X42591396Y-19677410D01*
X42474479Y-19959674D01*
X42304741Y-20213705D01*
X42088705Y-20429741D01*
X41834674Y-20599479D01*
X41552410Y-20716396D01*
X41402585Y-20746198D01*
X41252761Y-20776000D01*
X40947239Y-20776000D01*
X40797415Y-20746198D01*
X40647590Y-20716396D01*
X40365326Y-20599479D01*
X40111295Y-20429741D01*
X39895259Y-20213705D01*
X39725521Y-19959674D01*
X39608604Y-19677410D01*
X39549000Y-19377760D01*
X39549000Y-19072240D01*
X39564294Y-18995354D01*
X39592499Y-18853554D01*
X39608604Y-18772590D01*
X39725521Y-18490326D01*
X39895259Y-18236295D01*
X40111295Y-18020259D01*
X40365326Y-17850521D01*
X40647590Y-17733604D01*
X40797415Y-17703802D01*
X40947239Y-17674000D01*
X41252761Y-17674000D01*
X41402585Y-17703802D01*
X41402585Y-17703802D01*
G37*
G36*
X-2697415Y-17703802D02*
G01*
X-2547590Y-17733604D01*
X-2265326Y-17850521D01*
X-2011295Y-18020259D01*
X-1795259Y-18236295D01*
X-1625521Y-18490326D01*
X-1508604Y-18772590D01*
X-1492499Y-18853554D01*
X-1464293Y-18995354D01*
X-1449000Y-19072240D01*
X-1449000Y-19377760D01*
X-1508604Y-19677410D01*
X-1625521Y-19959674D01*
X-1795259Y-20213705D01*
X-2011295Y-20429741D01*
X-2265326Y-20599479D01*
X-2547590Y-20716396D01*
X-2697415Y-20746198D01*
X-2847239Y-20776000D01*
X-3152761Y-20776000D01*
X-3302585Y-20746198D01*
X-3452410Y-20716396D01*
X-3734674Y-20599479D01*
X-3988705Y-20429741D01*
X-4204741Y-20213705D01*
X-4374479Y-19959674D01*
X-4491396Y-19677410D01*
X-4551000Y-19377760D01*
X-4551000Y-19072240D01*
X-4535706Y-18995354D01*
X-4507501Y-18853554D01*
X-4491396Y-18772590D01*
X-4374479Y-18490326D01*
X-4204741Y-18236295D01*
X-3988705Y-18020259D01*
X-3734674Y-17850521D01*
X-3452410Y-17733604D01*
X-3302585Y-17703802D01*
X-3152761Y-17674000D01*
X-2847239Y-17674000D01*
X-2697415Y-17703802D01*
X-2697415Y-17703802D01*
G37*
G36*
X29548855Y-17743140D02*
G01*
X29612618Y-17749420D01*
X29703404Y-17776960D01*
X29735336Y-17786646D01*
X29848425Y-17847094D01*
X29947554Y-17928446D01*
X30028906Y-18027575D01*
X30089354Y-18140664D01*
X30089355Y-18140668D01*
X30126580Y-18263382D01*
X30139149Y-18391000D01*
X30126580Y-18518618D01*
X30122284Y-18532779D01*
X30089354Y-18641336D01*
X30028906Y-18754425D01*
X29947554Y-18853554D01*
X29848425Y-18934906D01*
X29735336Y-18995354D01*
X29703404Y-19005040D01*
X29612618Y-19032580D01*
X29548855Y-19038860D01*
X29516974Y-19042000D01*
X28903026Y-19042000D01*
X28871145Y-19038860D01*
X28807382Y-19032580D01*
X28716596Y-19005040D01*
X28684664Y-18995354D01*
X28571575Y-18934906D01*
X28472446Y-18853554D01*
X28391094Y-18754425D01*
X28330646Y-18641336D01*
X28297716Y-18532779D01*
X28293420Y-18518618D01*
X28280851Y-18391000D01*
X28293420Y-18263382D01*
X28330645Y-18140668D01*
X28330646Y-18140664D01*
X28391094Y-18027575D01*
X28472446Y-17928446D01*
X28571575Y-17847094D01*
X28684664Y-17786646D01*
X28716596Y-17776960D01*
X28807382Y-17749420D01*
X28871145Y-17743140D01*
X28903026Y-17740000D01*
X29516974Y-17740000D01*
X29548855Y-17743140D01*
X29548855Y-17743140D01*
G37*
G36*
X12022855Y-17743140D02*
G01*
X12086618Y-17749420D01*
X12177404Y-17776960D01*
X12209336Y-17786646D01*
X12322425Y-17847094D01*
X12421554Y-17928446D01*
X12502906Y-18027575D01*
X12563354Y-18140664D01*
X12563355Y-18140668D01*
X12600580Y-18263382D01*
X12613149Y-18391000D01*
X12600580Y-18518618D01*
X12596284Y-18532779D01*
X12563354Y-18641336D01*
X12502906Y-18754425D01*
X12421554Y-18853554D01*
X12322425Y-18934906D01*
X12209336Y-18995354D01*
X12177404Y-19005040D01*
X12086618Y-19032580D01*
X12022855Y-19038860D01*
X11990974Y-19042000D01*
X11377026Y-19042000D01*
X11345145Y-19038860D01*
X11281382Y-19032580D01*
X11190596Y-19005040D01*
X11158664Y-18995354D01*
X11045575Y-18934906D01*
X10946446Y-18853554D01*
X10865094Y-18754425D01*
X10804646Y-18641336D01*
X10771716Y-18532779D01*
X10767420Y-18518618D01*
X10754851Y-18391000D01*
X10767420Y-18263382D01*
X10804645Y-18140668D01*
X10804646Y-18140664D01*
X10865094Y-18027575D01*
X10946446Y-17928446D01*
X11045575Y-17847094D01*
X11158664Y-17786646D01*
X11190596Y-17776960D01*
X11281382Y-17749420D01*
X11345145Y-17743140D01*
X11377026Y-17740000D01*
X11990974Y-17740000D01*
X12022855Y-17743140D01*
X12022855Y-17743140D01*
G37*
G36*
X17864855Y-17743140D02*
G01*
X17928618Y-17749420D01*
X18019404Y-17776960D01*
X18051336Y-17786646D01*
X18164425Y-17847094D01*
X18263554Y-17928446D01*
X18344906Y-18027575D01*
X18405354Y-18140664D01*
X18405355Y-18140668D01*
X18442580Y-18263382D01*
X18455149Y-18391000D01*
X18442580Y-18518618D01*
X18438284Y-18532779D01*
X18405354Y-18641336D01*
X18344906Y-18754425D01*
X18263554Y-18853554D01*
X18164425Y-18934906D01*
X18051336Y-18995354D01*
X18019404Y-19005040D01*
X17928618Y-19032580D01*
X17864855Y-19038860D01*
X17832974Y-19042000D01*
X17219026Y-19042000D01*
X17187145Y-19038860D01*
X17123382Y-19032580D01*
X17032596Y-19005040D01*
X17000664Y-18995354D01*
X16887575Y-18934906D01*
X16788446Y-18853554D01*
X16707094Y-18754425D01*
X16646646Y-18641336D01*
X16613716Y-18532779D01*
X16609420Y-18518618D01*
X16596851Y-18391000D01*
X16609420Y-18263382D01*
X16646645Y-18140668D01*
X16646646Y-18140664D01*
X16707094Y-18027575D01*
X16788446Y-17928446D01*
X16887575Y-17847094D01*
X17000664Y-17786646D01*
X17032596Y-17776960D01*
X17123382Y-17749420D01*
X17187145Y-17743140D01*
X17219026Y-17740000D01*
X17832974Y-17740000D01*
X17864855Y-17743140D01*
X17864855Y-17743140D01*
G37*
G36*
X23706855Y-17743140D02*
G01*
X23770618Y-17749420D01*
X23861404Y-17776960D01*
X23893336Y-17786646D01*
X24006425Y-17847094D01*
X24105554Y-17928446D01*
X24186906Y-18027575D01*
X24247354Y-18140664D01*
X24247355Y-18140668D01*
X24284580Y-18263382D01*
X24297149Y-18391000D01*
X24284580Y-18518618D01*
X24280284Y-18532779D01*
X24247354Y-18641336D01*
X24186906Y-18754425D01*
X24105554Y-18853554D01*
X24006425Y-18934906D01*
X23893336Y-18995354D01*
X23861404Y-19005040D01*
X23770618Y-19032580D01*
X23706855Y-19038860D01*
X23674974Y-19042000D01*
X23061026Y-19042000D01*
X23029145Y-19038860D01*
X22965382Y-19032580D01*
X22874596Y-19005040D01*
X22842664Y-18995354D01*
X22729575Y-18934906D01*
X22630446Y-18853554D01*
X22549094Y-18754425D01*
X22488646Y-18641336D01*
X22455716Y-18532779D01*
X22451420Y-18518618D01*
X22438851Y-18391000D01*
X22451420Y-18263382D01*
X22488645Y-18140668D01*
X22488646Y-18140664D01*
X22549094Y-18027575D01*
X22630446Y-17928446D01*
X22729575Y-17847094D01*
X22842664Y-17786646D01*
X22874596Y-17776960D01*
X22965382Y-17749420D01*
X23029145Y-17743140D01*
X23061026Y-17740000D01*
X23674974Y-17740000D01*
X23706855Y-17743140D01*
X23706855Y-17743140D01*
G37*
G36*
X1380443Y-16885519D02*
G01*
X1446627Y-16892037D01*
X1616466Y-16943557D01*
X1772991Y-17027222D01*
X1790998Y-17042000D01*
X1910186Y-17139814D01*
X1993448Y-17241271D01*
X2022778Y-17277009D01*
X2106443Y-17433534D01*
X2157963Y-17603373D01*
X2175359Y-17780000D01*
X2157963Y-17956627D01*
X2106443Y-18126466D01*
X2022778Y-18282991D01*
X1993448Y-18318729D01*
X1910186Y-18420186D01*
X1824719Y-18490326D01*
X1772991Y-18532778D01*
X1616466Y-18616443D01*
X1446627Y-18667963D01*
X1380443Y-18674481D01*
X1314260Y-18681000D01*
X1225740Y-18681000D01*
X1159557Y-18674481D01*
X1093373Y-18667963D01*
X923534Y-18616443D01*
X767009Y-18532778D01*
X715281Y-18490326D01*
X629814Y-18420186D01*
X546552Y-18318729D01*
X517222Y-18282991D01*
X433557Y-18126466D01*
X382037Y-17956627D01*
X364641Y-17780000D01*
X382037Y-17603373D01*
X433557Y-17433534D01*
X517222Y-17277009D01*
X546552Y-17241271D01*
X629814Y-17139814D01*
X749002Y-17042000D01*
X767009Y-17027222D01*
X923534Y-16943557D01*
X1093373Y-16892037D01*
X1159557Y-16885519D01*
X1225740Y-16879000D01*
X1314260Y-16879000D01*
X1380443Y-16885519D01*
X1380443Y-16885519D01*
G37*
G36*
X3920443Y-16885519D02*
G01*
X3986627Y-16892037D01*
X4156466Y-16943557D01*
X4312991Y-17027222D01*
X4330998Y-17042000D01*
X4450186Y-17139814D01*
X4533448Y-17241271D01*
X4562778Y-17277009D01*
X4646443Y-17433534D01*
X4697963Y-17603373D01*
X4715359Y-17780000D01*
X4697963Y-17956627D01*
X4646443Y-18126466D01*
X4562778Y-18282991D01*
X4533448Y-18318729D01*
X4450186Y-18420186D01*
X4364719Y-18490326D01*
X4312991Y-18532778D01*
X4156466Y-18616443D01*
X3986627Y-18667963D01*
X3920443Y-18674481D01*
X3854260Y-18681000D01*
X3765740Y-18681000D01*
X3699557Y-18674481D01*
X3633373Y-18667963D01*
X3463534Y-18616443D01*
X3307009Y-18532778D01*
X3255281Y-18490326D01*
X3169814Y-18420186D01*
X3086552Y-18318729D01*
X3057222Y-18282991D01*
X2973557Y-18126466D01*
X2922037Y-17956627D01*
X2904641Y-17780000D01*
X2922037Y-17603373D01*
X2973557Y-17433534D01*
X3057222Y-17277009D01*
X3086552Y-17241271D01*
X3169814Y-17139814D01*
X3289002Y-17042000D01*
X3307009Y-17027222D01*
X3463534Y-16943557D01*
X3633373Y-16892037D01*
X3699557Y-16885519D01*
X3765740Y-16879000D01*
X3854260Y-16879000D01*
X3920443Y-16885519D01*
X3920443Y-16885519D01*
G37*
G36*
X12021322Y-15742989D02*
G01*
X12086618Y-15749420D01*
X12177404Y-15776960D01*
X12209336Y-15786646D01*
X12322425Y-15847094D01*
X12421554Y-15928446D01*
X12502906Y-16027575D01*
X12563354Y-16140664D01*
X12563355Y-16140668D01*
X12600580Y-16263382D01*
X12613149Y-16391000D01*
X12600580Y-16518618D01*
X12573040Y-16609404D01*
X12563354Y-16641336D01*
X12502906Y-16754425D01*
X12421554Y-16853554D01*
X12322425Y-16934906D01*
X12209336Y-16995354D01*
X12177404Y-17005040D01*
X12086618Y-17032580D01*
X12022855Y-17038860D01*
X11990974Y-17042000D01*
X11377026Y-17042000D01*
X11345145Y-17038860D01*
X11281382Y-17032580D01*
X11190596Y-17005040D01*
X11158664Y-16995354D01*
X11045575Y-16934906D01*
X10946446Y-16853554D01*
X10865094Y-16754425D01*
X10804646Y-16641336D01*
X10794960Y-16609404D01*
X10767420Y-16518618D01*
X10754851Y-16391000D01*
X10767420Y-16263382D01*
X10804645Y-16140668D01*
X10804646Y-16140664D01*
X10865094Y-16027575D01*
X10946446Y-15928446D01*
X11045575Y-15847094D01*
X11158664Y-15786646D01*
X11190596Y-15776960D01*
X11281382Y-15749420D01*
X11346678Y-15742989D01*
X11377026Y-15740000D01*
X11990974Y-15740000D01*
X12021322Y-15742989D01*
X12021322Y-15742989D01*
G37*
G36*
X23705322Y-15742989D02*
G01*
X23770618Y-15749420D01*
X23861404Y-15776960D01*
X23893336Y-15786646D01*
X24006425Y-15847094D01*
X24105554Y-15928446D01*
X24186906Y-16027575D01*
X24247354Y-16140664D01*
X24247355Y-16140668D01*
X24284580Y-16263382D01*
X24297149Y-16391000D01*
X24284580Y-16518618D01*
X24257040Y-16609404D01*
X24247354Y-16641336D01*
X24186906Y-16754425D01*
X24105554Y-16853554D01*
X24006425Y-16934906D01*
X23893336Y-16995354D01*
X23861404Y-17005040D01*
X23770618Y-17032580D01*
X23706855Y-17038860D01*
X23674974Y-17042000D01*
X23061026Y-17042000D01*
X23029145Y-17038860D01*
X22965382Y-17032580D01*
X22874596Y-17005040D01*
X22842664Y-16995354D01*
X22729575Y-16934906D01*
X22630446Y-16853554D01*
X22549094Y-16754425D01*
X22488646Y-16641336D01*
X22478960Y-16609404D01*
X22451420Y-16518618D01*
X22438851Y-16391000D01*
X22451420Y-16263382D01*
X22488645Y-16140668D01*
X22488646Y-16140664D01*
X22549094Y-16027575D01*
X22630446Y-15928446D01*
X22729575Y-15847094D01*
X22842664Y-15786646D01*
X22874596Y-15776960D01*
X22965382Y-15749420D01*
X23030678Y-15742989D01*
X23061026Y-15740000D01*
X23674974Y-15740000D01*
X23705322Y-15742989D01*
X23705322Y-15742989D01*
G37*
G36*
X29547322Y-15742989D02*
G01*
X29612618Y-15749420D01*
X29703404Y-15776960D01*
X29735336Y-15786646D01*
X29848425Y-15847094D01*
X29947554Y-15928446D01*
X30028906Y-16027575D01*
X30089354Y-16140664D01*
X30089355Y-16140668D01*
X30126580Y-16263382D01*
X30139149Y-16391000D01*
X30126580Y-16518618D01*
X30099040Y-16609404D01*
X30089354Y-16641336D01*
X30028906Y-16754425D01*
X29947554Y-16853554D01*
X29848425Y-16934906D01*
X29735336Y-16995354D01*
X29703404Y-17005040D01*
X29612618Y-17032580D01*
X29548855Y-17038860D01*
X29516974Y-17042000D01*
X28903026Y-17042000D01*
X28871145Y-17038860D01*
X28807382Y-17032580D01*
X28716596Y-17005040D01*
X28684664Y-16995354D01*
X28571575Y-16934906D01*
X28472446Y-16853554D01*
X28391094Y-16754425D01*
X28330646Y-16641336D01*
X28320960Y-16609404D01*
X28293420Y-16518618D01*
X28280851Y-16391000D01*
X28293420Y-16263382D01*
X28330645Y-16140668D01*
X28330646Y-16140664D01*
X28391094Y-16027575D01*
X28472446Y-15928446D01*
X28571575Y-15847094D01*
X28684664Y-15786646D01*
X28716596Y-15776960D01*
X28807382Y-15749420D01*
X28872678Y-15742989D01*
X28903026Y-15740000D01*
X29516974Y-15740000D01*
X29547322Y-15742989D01*
X29547322Y-15742989D01*
G37*
G36*
X17863322Y-15742989D02*
G01*
X17928618Y-15749420D01*
X18019404Y-15776960D01*
X18051336Y-15786646D01*
X18164425Y-15847094D01*
X18263554Y-15928446D01*
X18344906Y-16027575D01*
X18405354Y-16140664D01*
X18405355Y-16140668D01*
X18442580Y-16263382D01*
X18455149Y-16391000D01*
X18442580Y-16518618D01*
X18415040Y-16609404D01*
X18405354Y-16641336D01*
X18344906Y-16754425D01*
X18263554Y-16853554D01*
X18164425Y-16934906D01*
X18051336Y-16995354D01*
X18019404Y-17005040D01*
X17928618Y-17032580D01*
X17864855Y-17038860D01*
X17832974Y-17042000D01*
X17219026Y-17042000D01*
X17187145Y-17038860D01*
X17123382Y-17032580D01*
X17032596Y-17005040D01*
X17000664Y-16995354D01*
X16887575Y-16934906D01*
X16788446Y-16853554D01*
X16707094Y-16754425D01*
X16646646Y-16641336D01*
X16636960Y-16609404D01*
X16609420Y-16518618D01*
X16596851Y-16391000D01*
X16609420Y-16263382D01*
X16646645Y-16140668D01*
X16646646Y-16140664D01*
X16707094Y-16027575D01*
X16788446Y-15928446D01*
X16887575Y-15847094D01*
X17000664Y-15786646D01*
X17032596Y-15776960D01*
X17123382Y-15749420D01*
X17188678Y-15742989D01*
X17219026Y-15740000D01*
X17832974Y-15740000D01*
X17863322Y-15742989D01*
X17863322Y-15742989D01*
G37*
G36*
X35650254Y-12331818D02*
G01*
X36023511Y-12486426D01*
X36023513Y-12486427D01*
X36359436Y-12710884D01*
X36645116Y-12996564D01*
X36678460Y-13046466D01*
X36869574Y-13332489D01*
X37024182Y-13705746D01*
X37103000Y-14101993D01*
X37103000Y-14506007D01*
X37024182Y-14902254D01*
X36884283Y-15240000D01*
X36869573Y-15275513D01*
X36645116Y-15611436D01*
X36359436Y-15897116D01*
X36023513Y-16121573D01*
X36023512Y-16121574D01*
X36023511Y-16121574D01*
X35650254Y-16276182D01*
X35254007Y-16355000D01*
X34849993Y-16355000D01*
X34453746Y-16276182D01*
X34080489Y-16121574D01*
X34080488Y-16121574D01*
X34080487Y-16121573D01*
X33744564Y-15897116D01*
X33458884Y-15611436D01*
X33234427Y-15275513D01*
X33219717Y-15240000D01*
X33079818Y-14902254D01*
X33001000Y-14506007D01*
X33001000Y-14101993D01*
X33079818Y-13705746D01*
X33234426Y-13332489D01*
X33425541Y-13046466D01*
X33458884Y-12996564D01*
X33744564Y-12710884D01*
X34080487Y-12486427D01*
X34080489Y-12486426D01*
X34453746Y-12331818D01*
X34849993Y-12253000D01*
X35254007Y-12253000D01*
X35650254Y-12331818D01*
X35650254Y-12331818D01*
G37*
G36*
X3920443Y-14345519D02*
G01*
X3986627Y-14352037D01*
X4156466Y-14403557D01*
X4312991Y-14487222D01*
X4335879Y-14506006D01*
X4450186Y-14599814D01*
X4518567Y-14683138D01*
X4562778Y-14737009D01*
X4646443Y-14893534D01*
X4697963Y-15063373D01*
X4715359Y-15240000D01*
X4697963Y-15416627D01*
X4646443Y-15586466D01*
X4562778Y-15742991D01*
X4533448Y-15778729D01*
X4450186Y-15880186D01*
X4348729Y-15963448D01*
X4312991Y-15992778D01*
X4156466Y-16076443D01*
X3986627Y-16127963D01*
X3920443Y-16134481D01*
X3854260Y-16141000D01*
X3765740Y-16141000D01*
X3699557Y-16134481D01*
X3633373Y-16127963D01*
X3463534Y-16076443D01*
X3307009Y-15992778D01*
X3271271Y-15963448D01*
X3169814Y-15880186D01*
X3086552Y-15778729D01*
X3057222Y-15742991D01*
X2973557Y-15586466D01*
X2922037Y-15416627D01*
X2904641Y-15240000D01*
X2922037Y-15063373D01*
X2973557Y-14893534D01*
X3057222Y-14737009D01*
X3101433Y-14683138D01*
X3169814Y-14599814D01*
X3284121Y-14506006D01*
X3307009Y-14487222D01*
X3463534Y-14403557D01*
X3633373Y-14352037D01*
X3699557Y-14345519D01*
X3765740Y-14339000D01*
X3854260Y-14339000D01*
X3920443Y-14345519D01*
X3920443Y-14345519D01*
G37*
G36*
X1380443Y-14345519D02*
G01*
X1446627Y-14352037D01*
X1616466Y-14403557D01*
X1772991Y-14487222D01*
X1795879Y-14506006D01*
X1910186Y-14599814D01*
X1978567Y-14683138D01*
X2022778Y-14737009D01*
X2106443Y-14893534D01*
X2157963Y-15063373D01*
X2175359Y-15240000D01*
X2157963Y-15416627D01*
X2106443Y-15586466D01*
X2022778Y-15742991D01*
X1993448Y-15778729D01*
X1910186Y-15880186D01*
X1808729Y-15963448D01*
X1772991Y-15992778D01*
X1616466Y-16076443D01*
X1446627Y-16127963D01*
X1380443Y-16134481D01*
X1314260Y-16141000D01*
X1225740Y-16141000D01*
X1159557Y-16134481D01*
X1093373Y-16127963D01*
X923534Y-16076443D01*
X767009Y-15992778D01*
X731271Y-15963448D01*
X629814Y-15880186D01*
X546552Y-15778729D01*
X517222Y-15742991D01*
X433557Y-15586466D01*
X382037Y-15416627D01*
X364641Y-15240000D01*
X382037Y-15063373D01*
X433557Y-14893534D01*
X517222Y-14737009D01*
X561433Y-14683138D01*
X629814Y-14599814D01*
X744121Y-14506006D01*
X767009Y-14487222D01*
X923534Y-14403557D01*
X1093373Y-14352037D01*
X1159557Y-14345519D01*
X1225740Y-14339000D01*
X1314260Y-14339000D01*
X1380443Y-14345519D01*
X1380443Y-14345519D01*
G37*
G36*
X18292242Y-13744404D02*
G01*
X18329337Y-13755657D01*
X18363515Y-13773925D01*
X18393481Y-13798519D01*
X18418075Y-13828485D01*
X18436343Y-13862663D01*
X18447596Y-13899758D01*
X18452000Y-13944474D01*
X18452000Y-14837526D01*
X18447596Y-14882242D01*
X18436343Y-14919337D01*
X18418075Y-14953515D01*
X18393481Y-14983481D01*
X18363515Y-15008075D01*
X18329337Y-15026343D01*
X18292242Y-15037596D01*
X18247526Y-15042000D01*
X16804474Y-15042000D01*
X16759758Y-15037596D01*
X16722663Y-15026343D01*
X16688485Y-15008075D01*
X16658519Y-14983481D01*
X16633925Y-14953515D01*
X16615657Y-14919337D01*
X16604404Y-14882242D01*
X16600000Y-14837526D01*
X16600000Y-13944474D01*
X16604404Y-13899758D01*
X16615657Y-13862663D01*
X16633925Y-13828485D01*
X16658519Y-13798519D01*
X16688485Y-13773925D01*
X16722663Y-13755657D01*
X16759758Y-13744404D01*
X16804474Y-13740000D01*
X18247526Y-13740000D01*
X18292242Y-13744404D01*
X18292242Y-13744404D01*
G37*
G36*
X24134242Y-13744404D02*
G01*
X24171337Y-13755657D01*
X24205515Y-13773925D01*
X24235481Y-13798519D01*
X24260075Y-13828485D01*
X24278343Y-13862663D01*
X24289596Y-13899758D01*
X24294000Y-13944474D01*
X24294000Y-14837526D01*
X24289596Y-14882242D01*
X24278343Y-14919337D01*
X24260075Y-14953515D01*
X24235481Y-14983481D01*
X24205515Y-15008075D01*
X24171337Y-15026343D01*
X24134242Y-15037596D01*
X24089526Y-15042000D01*
X22646474Y-15042000D01*
X22601758Y-15037596D01*
X22564663Y-15026343D01*
X22530485Y-15008075D01*
X22500519Y-14983481D01*
X22475925Y-14953515D01*
X22457657Y-14919337D01*
X22446404Y-14882242D01*
X22442000Y-14837526D01*
X22442000Y-13944474D01*
X22446404Y-13899758D01*
X22457657Y-13862663D01*
X22475925Y-13828485D01*
X22500519Y-13798519D01*
X22530485Y-13773925D01*
X22564663Y-13755657D01*
X22601758Y-13744404D01*
X22646474Y-13740000D01*
X24089526Y-13740000D01*
X24134242Y-13744404D01*
X24134242Y-13744404D01*
G37*
G36*
X29976242Y-13744404D02*
G01*
X30013337Y-13755657D01*
X30047515Y-13773925D01*
X30077481Y-13798519D01*
X30102075Y-13828485D01*
X30120343Y-13862663D01*
X30131596Y-13899758D01*
X30136000Y-13944474D01*
X30136000Y-14837526D01*
X30131596Y-14882242D01*
X30120343Y-14919337D01*
X30102075Y-14953515D01*
X30077481Y-14983481D01*
X30047515Y-15008075D01*
X30013337Y-15026343D01*
X29976242Y-15037596D01*
X29931526Y-15042000D01*
X28488474Y-15042000D01*
X28443758Y-15037596D01*
X28406663Y-15026343D01*
X28372485Y-15008075D01*
X28342519Y-14983481D01*
X28317925Y-14953515D01*
X28299657Y-14919337D01*
X28288404Y-14882242D01*
X28284000Y-14837526D01*
X28284000Y-13944474D01*
X28288404Y-13899758D01*
X28299657Y-13862663D01*
X28317925Y-13828485D01*
X28342519Y-13798519D01*
X28372485Y-13773925D01*
X28406663Y-13755657D01*
X28443758Y-13744404D01*
X28488474Y-13740000D01*
X29931526Y-13740000D01*
X29976242Y-13744404D01*
X29976242Y-13744404D01*
G37*
G36*
X12450242Y-13744404D02*
G01*
X12487337Y-13755657D01*
X12521515Y-13773925D01*
X12551481Y-13798519D01*
X12576075Y-13828485D01*
X12594343Y-13862663D01*
X12605596Y-13899758D01*
X12610000Y-13944474D01*
X12610000Y-14837526D01*
X12605596Y-14882242D01*
X12594343Y-14919337D01*
X12576075Y-14953515D01*
X12551481Y-14983481D01*
X12521515Y-15008075D01*
X12487337Y-15026343D01*
X12450242Y-15037596D01*
X12405526Y-15042000D01*
X10962474Y-15042000D01*
X10917758Y-15037596D01*
X10880663Y-15026343D01*
X10846485Y-15008075D01*
X10816519Y-14983481D01*
X10791925Y-14953515D01*
X10773657Y-14919337D01*
X10762404Y-14882242D01*
X10758000Y-14837526D01*
X10758000Y-13944474D01*
X10762404Y-13899758D01*
X10773657Y-13862663D01*
X10791925Y-13828485D01*
X10816519Y-13798519D01*
X10846485Y-13773925D01*
X10880663Y-13755657D01*
X10917758Y-13744404D01*
X10962474Y-13740000D01*
X12405526Y-13740000D01*
X12450242Y-13744404D01*
X12450242Y-13744404D01*
G37*
G36*
X7569468Y-13738565D02*
G01*
X7608138Y-13750296D01*
X7643777Y-13769346D01*
X7675017Y-13794983D01*
X7700654Y-13826223D01*
X7719704Y-13861862D01*
X7731435Y-13900532D01*
X7736000Y-13946888D01*
X7736000Y-14598112D01*
X7731435Y-14644468D01*
X7719704Y-14683138D01*
X7700654Y-14718777D01*
X7675017Y-14750017D01*
X7643777Y-14775654D01*
X7608138Y-14794704D01*
X7569468Y-14806435D01*
X7523112Y-14811000D01*
X6446888Y-14811000D01*
X6400532Y-14806435D01*
X6361862Y-14794704D01*
X6326223Y-14775654D01*
X6294983Y-14750017D01*
X6269346Y-14718777D01*
X6250296Y-14683138D01*
X6238565Y-14644468D01*
X6234000Y-14598112D01*
X6234000Y-13946888D01*
X6238565Y-13900532D01*
X6250296Y-13861862D01*
X6269346Y-13826223D01*
X6294983Y-13794983D01*
X6326223Y-13769346D01*
X6361862Y-13750296D01*
X6400532Y-13738565D01*
X6446888Y-13734000D01*
X7523112Y-13734000D01*
X7569468Y-13738565D01*
X7569468Y-13738565D01*
G37*
G36*
X3920443Y-11805519D02*
G01*
X3986627Y-11812037D01*
X4156466Y-11863557D01*
X4312991Y-11947222D01*
X4317866Y-11951223D01*
X4450186Y-12059814D01*
X4506349Y-12128250D01*
X4562778Y-12197009D01*
X4562779Y-12197011D01*
X4634836Y-12331818D01*
X4646443Y-12353534D01*
X4697963Y-12523373D01*
X4715359Y-12700000D01*
X4697963Y-12876627D01*
X4646443Y-13046466D01*
X4562778Y-13202991D01*
X4533448Y-13238729D01*
X4450186Y-13340186D01*
X4348729Y-13423448D01*
X4312991Y-13452778D01*
X4156466Y-13536443D01*
X3986627Y-13587963D01*
X3920443Y-13594481D01*
X3854260Y-13601000D01*
X3765740Y-13601000D01*
X3699557Y-13594481D01*
X3633373Y-13587963D01*
X3463534Y-13536443D01*
X3307009Y-13452778D01*
X3271271Y-13423448D01*
X3169814Y-13340186D01*
X3086552Y-13238729D01*
X3057222Y-13202991D01*
X2973557Y-13046466D01*
X2922037Y-12876627D01*
X2904641Y-12700000D01*
X2922037Y-12523373D01*
X2973557Y-12353534D01*
X2985165Y-12331818D01*
X3057221Y-12197011D01*
X3057222Y-12197009D01*
X3113651Y-12128250D01*
X3169814Y-12059814D01*
X3302134Y-11951223D01*
X3307009Y-11947222D01*
X3463534Y-11863557D01*
X3633373Y-11812037D01*
X3699557Y-11805519D01*
X3765740Y-11799000D01*
X3854260Y-11799000D01*
X3920443Y-11805519D01*
X3920443Y-11805519D01*
G37*
G36*
X1380443Y-11805519D02*
G01*
X1446627Y-11812037D01*
X1616466Y-11863557D01*
X1772991Y-11947222D01*
X1777866Y-11951223D01*
X1910186Y-12059814D01*
X1966349Y-12128250D01*
X2022778Y-12197009D01*
X2022779Y-12197011D01*
X2094836Y-12331818D01*
X2106443Y-12353534D01*
X2157963Y-12523373D01*
X2175359Y-12700000D01*
X2157963Y-12876627D01*
X2106443Y-13046466D01*
X2022778Y-13202991D01*
X1993448Y-13238729D01*
X1910186Y-13340186D01*
X1808729Y-13423448D01*
X1772991Y-13452778D01*
X1616466Y-13536443D01*
X1446627Y-13587963D01*
X1380443Y-13594481D01*
X1314260Y-13601000D01*
X1225740Y-13601000D01*
X1159557Y-13594481D01*
X1093373Y-13587963D01*
X923534Y-13536443D01*
X767009Y-13452778D01*
X731271Y-13423448D01*
X629814Y-13340186D01*
X546552Y-13238729D01*
X517222Y-13202991D01*
X433557Y-13046466D01*
X382037Y-12876627D01*
X364641Y-12700000D01*
X382037Y-12523373D01*
X433557Y-12353534D01*
X445165Y-12331818D01*
X517221Y-12197011D01*
X517222Y-12197009D01*
X573651Y-12128250D01*
X629814Y-12059814D01*
X762134Y-11951223D01*
X767009Y-11947222D01*
X923534Y-11863557D01*
X1093373Y-11812037D01*
X1159557Y-11805519D01*
X1225740Y-11799000D01*
X1314260Y-11799000D01*
X1380443Y-11805519D01*
X1380443Y-11805519D01*
G37*
G36*
X7569468Y-11863565D02*
G01*
X7608138Y-11875296D01*
X7643777Y-11894346D01*
X7675017Y-11919983D01*
X7700654Y-11951223D01*
X7719704Y-11986862D01*
X7731435Y-12025532D01*
X7736000Y-12071888D01*
X7736000Y-12723112D01*
X7731435Y-12769468D01*
X7719704Y-12808138D01*
X7700654Y-12843777D01*
X7675017Y-12875017D01*
X7643777Y-12900654D01*
X7608138Y-12919704D01*
X7569468Y-12931435D01*
X7523112Y-12936000D01*
X6446888Y-12936000D01*
X6400532Y-12931435D01*
X6361862Y-12919704D01*
X6326223Y-12900654D01*
X6294983Y-12875017D01*
X6269346Y-12843777D01*
X6250296Y-12808138D01*
X6238565Y-12769468D01*
X6234000Y-12723112D01*
X6234000Y-12071888D01*
X6238565Y-12025532D01*
X6250296Y-11986862D01*
X6269346Y-11951223D01*
X6294983Y-11919983D01*
X6326223Y-11894346D01*
X6361862Y-11875296D01*
X6400532Y-11863565D01*
X6446888Y-11859000D01*
X7523112Y-11859000D01*
X7569468Y-11863565D01*
X7569468Y-11863565D01*
G37*
G36*
X3920442Y-9265518D02*
G01*
X3986627Y-9272037D01*
X4156466Y-9323557D01*
X4312991Y-9407222D01*
X4348729Y-9436552D01*
X4450186Y-9519814D01*
X4533448Y-9621271D01*
X4562778Y-9657009D01*
X4646443Y-9813534D01*
X4697963Y-9983373D01*
X4715359Y-10160000D01*
X4697963Y-10336627D01*
X4646443Y-10506466D01*
X4562778Y-10662991D01*
X4533448Y-10698729D01*
X4450186Y-10800186D01*
X4361292Y-10873138D01*
X4312991Y-10912778D01*
X4156466Y-10996443D01*
X3986627Y-11047963D01*
X3920443Y-11054481D01*
X3854260Y-11061000D01*
X3765740Y-11061000D01*
X3699557Y-11054481D01*
X3633373Y-11047963D01*
X3463534Y-10996443D01*
X3307009Y-10912778D01*
X3258708Y-10873138D01*
X3169814Y-10800186D01*
X3086552Y-10698729D01*
X3057222Y-10662991D01*
X2973557Y-10506466D01*
X2922037Y-10336627D01*
X2904641Y-10160000D01*
X2922037Y-9983373D01*
X2973557Y-9813534D01*
X3057222Y-9657009D01*
X3086552Y-9621271D01*
X3169814Y-9519814D01*
X3271271Y-9436552D01*
X3307009Y-9407222D01*
X3463534Y-9323557D01*
X3633373Y-9272037D01*
X3699558Y-9265518D01*
X3765740Y-9259000D01*
X3854260Y-9259000D01*
X3920442Y-9265518D01*
X3920442Y-9265518D01*
G37*
G36*
X1380442Y-9265518D02*
G01*
X1446627Y-9272037D01*
X1616466Y-9323557D01*
X1772991Y-9407222D01*
X1808729Y-9436552D01*
X1910186Y-9519814D01*
X1993448Y-9621271D01*
X2022778Y-9657009D01*
X2106443Y-9813534D01*
X2157963Y-9983373D01*
X2175359Y-10160000D01*
X2157963Y-10336627D01*
X2106443Y-10506466D01*
X2022778Y-10662991D01*
X1993448Y-10698729D01*
X1910186Y-10800186D01*
X1821292Y-10873138D01*
X1772991Y-10912778D01*
X1616466Y-10996443D01*
X1446627Y-11047963D01*
X1380443Y-11054481D01*
X1314260Y-11061000D01*
X1225740Y-11061000D01*
X1159557Y-11054481D01*
X1093373Y-11047963D01*
X923534Y-10996443D01*
X767009Y-10912778D01*
X718708Y-10873138D01*
X629814Y-10800186D01*
X546552Y-10698729D01*
X517222Y-10662991D01*
X433557Y-10506466D01*
X382037Y-10336627D01*
X364641Y-10160000D01*
X382037Y-9983373D01*
X433557Y-9813534D01*
X517222Y-9657009D01*
X546552Y-9621271D01*
X629814Y-9519814D01*
X731271Y-9436552D01*
X767009Y-9407222D01*
X923534Y-9323557D01*
X1093373Y-9272037D01*
X1159558Y-9265518D01*
X1225740Y-9259000D01*
X1314260Y-9259000D01*
X1380442Y-9265518D01*
X1380442Y-9265518D01*
G37*
G36*
X7569468Y-9928565D02*
G01*
X7608138Y-9940296D01*
X7643777Y-9959346D01*
X7675017Y-9984983D01*
X7700654Y-10016223D01*
X7719704Y-10051862D01*
X7731435Y-10090532D01*
X7736000Y-10136888D01*
X7736000Y-10788112D01*
X7731435Y-10834468D01*
X7719704Y-10873138D01*
X7700654Y-10908777D01*
X7675017Y-10940017D01*
X7643777Y-10965654D01*
X7608138Y-10984704D01*
X7569468Y-10996435D01*
X7523112Y-11001000D01*
X6446888Y-11001000D01*
X6400532Y-10996435D01*
X6361862Y-10984704D01*
X6326223Y-10965654D01*
X6294983Y-10940017D01*
X6269346Y-10908777D01*
X6250296Y-10873138D01*
X6238565Y-10834468D01*
X6234000Y-10788112D01*
X6234000Y-10136888D01*
X6238565Y-10090532D01*
X6250296Y-10051862D01*
X6269346Y-10016223D01*
X6294983Y-9984983D01*
X6326223Y-9959346D01*
X6361862Y-9940296D01*
X6400532Y-9928565D01*
X6446888Y-9924000D01*
X7523112Y-9924000D01*
X7569468Y-9928565D01*
X7569468Y-9928565D01*
G37*
G36*
X35621085Y-6679975D02*
G01*
X35954306Y-6818000D01*
X35976145Y-6827046D01*
X36295690Y-7040559D01*
X36567441Y-7312310D01*
X36780954Y-7631855D01*
X36780955Y-7631857D01*
X36928025Y-7986915D01*
X37003000Y-8363842D01*
X37003000Y-8748158D01*
X36928025Y-9125085D01*
X36811160Y-9407221D01*
X36780954Y-9480145D01*
X36567441Y-9799690D01*
X36295690Y-10071441D01*
X35976145Y-10284954D01*
X35976144Y-10284955D01*
X35976143Y-10284955D01*
X35621085Y-10432025D01*
X35244158Y-10507000D01*
X34859842Y-10507000D01*
X34482915Y-10432025D01*
X34127857Y-10284955D01*
X34127856Y-10284955D01*
X34127855Y-10284954D01*
X33808310Y-10071441D01*
X33536559Y-9799690D01*
X33323046Y-9480145D01*
X33292840Y-9407221D01*
X33175975Y-9125085D01*
X33101000Y-8748158D01*
X33101000Y-8363842D01*
X33175975Y-7986915D01*
X33323045Y-7631857D01*
X33323046Y-7631855D01*
X33536559Y-7312310D01*
X33808310Y-7040559D01*
X34127855Y-6827046D01*
X34149694Y-6818000D01*
X34482915Y-6679975D01*
X34859842Y-6605000D01*
X35244158Y-6605000D01*
X35621085Y-6679975D01*
X35621085Y-6679975D01*
G37*
G36*
X7569468Y-8053565D02*
G01*
X7608138Y-8065296D01*
X7643777Y-8084346D01*
X7675017Y-8109983D01*
X7700654Y-8141223D01*
X7719704Y-8176862D01*
X7731435Y-8215532D01*
X7736000Y-8261888D01*
X7736000Y-8913112D01*
X7731435Y-8959468D01*
X7719704Y-8998138D01*
X7700654Y-9033777D01*
X7675017Y-9065017D01*
X7643777Y-9090654D01*
X7608138Y-9109704D01*
X7569468Y-9121435D01*
X7523112Y-9126000D01*
X6446888Y-9126000D01*
X6400532Y-9121435D01*
X6361862Y-9109704D01*
X6326223Y-9090654D01*
X6294983Y-9065017D01*
X6269346Y-9033777D01*
X6250296Y-8998138D01*
X6238565Y-8959468D01*
X6234000Y-8913112D01*
X6234000Y-8261888D01*
X6238565Y-8215532D01*
X6250296Y-8176862D01*
X6269346Y-8141223D01*
X6294983Y-8109983D01*
X6326223Y-8084346D01*
X6361862Y-8065296D01*
X6400532Y-8053565D01*
X6446888Y-8049000D01*
X7523112Y-8049000D01*
X7569468Y-8053565D01*
X7569468Y-8053565D01*
G37*
G36*
X1380442Y-6725518D02*
G01*
X1446627Y-6732037D01*
X1616466Y-6783557D01*
X1772991Y-6867222D01*
X1808729Y-6896552D01*
X1910186Y-6979814D01*
X1960037Y-7040559D01*
X2022778Y-7117009D01*
X2106443Y-7273534D01*
X2157963Y-7443373D01*
X2175359Y-7620000D01*
X2157963Y-7796627D01*
X2106443Y-7966466D01*
X2022778Y-8122991D01*
X2018781Y-8127861D01*
X1910186Y-8260186D01*
X1808729Y-8343448D01*
X1772991Y-8372778D01*
X1616466Y-8456443D01*
X1446627Y-8507963D01*
X1380443Y-8514481D01*
X1314260Y-8521000D01*
X1225740Y-8521000D01*
X1159557Y-8514481D01*
X1093373Y-8507963D01*
X923534Y-8456443D01*
X767009Y-8372778D01*
X731271Y-8343448D01*
X629814Y-8260186D01*
X521219Y-8127861D01*
X517222Y-8122991D01*
X433557Y-7966466D01*
X382037Y-7796627D01*
X364641Y-7620000D01*
X382037Y-7443373D01*
X433557Y-7273534D01*
X517222Y-7117009D01*
X579963Y-7040559D01*
X629814Y-6979814D01*
X731271Y-6896552D01*
X767009Y-6867222D01*
X923534Y-6783557D01*
X1093373Y-6732037D01*
X1159558Y-6725518D01*
X1225740Y-6719000D01*
X1314260Y-6719000D01*
X1380442Y-6725518D01*
X1380442Y-6725518D01*
G37*
G36*
X3920442Y-6725518D02*
G01*
X3986627Y-6732037D01*
X4156466Y-6783557D01*
X4312991Y-6867222D01*
X4348729Y-6896552D01*
X4450186Y-6979814D01*
X4500037Y-7040559D01*
X4562778Y-7117009D01*
X4646443Y-7273534D01*
X4697963Y-7443373D01*
X4715359Y-7620000D01*
X4697963Y-7796627D01*
X4646443Y-7966466D01*
X4562778Y-8122991D01*
X4558781Y-8127861D01*
X4450186Y-8260186D01*
X4348729Y-8343448D01*
X4312991Y-8372778D01*
X4156466Y-8456443D01*
X3986627Y-8507963D01*
X3920443Y-8514481D01*
X3854260Y-8521000D01*
X3765740Y-8521000D01*
X3699557Y-8514481D01*
X3633373Y-8507963D01*
X3463534Y-8456443D01*
X3307009Y-8372778D01*
X3271271Y-8343448D01*
X3169814Y-8260186D01*
X3061219Y-8127861D01*
X3057222Y-8122991D01*
X2973557Y-7966466D01*
X2922037Y-7796627D01*
X2904641Y-7620000D01*
X2922037Y-7443373D01*
X2973557Y-7273534D01*
X3057222Y-7117009D01*
X3119963Y-7040559D01*
X3169814Y-6979814D01*
X3271271Y-6896552D01*
X3307009Y-6867222D01*
X3463534Y-6783557D01*
X3633373Y-6732037D01*
X3699558Y-6725518D01*
X3765740Y-6719000D01*
X3854260Y-6719000D01*
X3920442Y-6725518D01*
X3920442Y-6725518D01*
G37*
G36*
X29548855Y-6821140D02*
G01*
X29612618Y-6827420D01*
X29703404Y-6854960D01*
X29735336Y-6864646D01*
X29848425Y-6925094D01*
X29947554Y-7006446D01*
X30028906Y-7105575D01*
X30089354Y-7218664D01*
X30089355Y-7218668D01*
X30126580Y-7341382D01*
X30139149Y-7469000D01*
X30126580Y-7596618D01*
X30119487Y-7620000D01*
X30089354Y-7719336D01*
X30028906Y-7832425D01*
X29947554Y-7931554D01*
X29848425Y-8012906D01*
X29735336Y-8073354D01*
X29703404Y-8083040D01*
X29612618Y-8110580D01*
X29548855Y-8116860D01*
X29516974Y-8120000D01*
X28903026Y-8120000D01*
X28871145Y-8116860D01*
X28807382Y-8110580D01*
X28716596Y-8083040D01*
X28684664Y-8073354D01*
X28571575Y-8012906D01*
X28472446Y-7931554D01*
X28391094Y-7832425D01*
X28330646Y-7719336D01*
X28300513Y-7620000D01*
X28293420Y-7596618D01*
X28280851Y-7469000D01*
X28293420Y-7341382D01*
X28330645Y-7218668D01*
X28330646Y-7218664D01*
X28391094Y-7105575D01*
X28472446Y-7006446D01*
X28571575Y-6925094D01*
X28684664Y-6864646D01*
X28716596Y-6854960D01*
X28807382Y-6827420D01*
X28871145Y-6821140D01*
X28903026Y-6818000D01*
X29516974Y-6818000D01*
X29548855Y-6821140D01*
X29548855Y-6821140D01*
G37*
G36*
X12022855Y-6821140D02*
G01*
X12086618Y-6827420D01*
X12177404Y-6854960D01*
X12209336Y-6864646D01*
X12322425Y-6925094D01*
X12421554Y-7006446D01*
X12502906Y-7105575D01*
X12563354Y-7218664D01*
X12563355Y-7218668D01*
X12600580Y-7341382D01*
X12613149Y-7469000D01*
X12600580Y-7596618D01*
X12593487Y-7620000D01*
X12563354Y-7719336D01*
X12502906Y-7832425D01*
X12421554Y-7931554D01*
X12322425Y-8012906D01*
X12209336Y-8073354D01*
X12177404Y-8083040D01*
X12086618Y-8110580D01*
X12022855Y-8116860D01*
X11990974Y-8120000D01*
X11377026Y-8120000D01*
X11345145Y-8116860D01*
X11281382Y-8110580D01*
X11190596Y-8083040D01*
X11158664Y-8073354D01*
X11045575Y-8012906D01*
X10946446Y-7931554D01*
X10865094Y-7832425D01*
X10804646Y-7719336D01*
X10774513Y-7620000D01*
X10767420Y-7596618D01*
X10754851Y-7469000D01*
X10767420Y-7341382D01*
X10804645Y-7218668D01*
X10804646Y-7218664D01*
X10865094Y-7105575D01*
X10946446Y-7006446D01*
X11045575Y-6925094D01*
X11158664Y-6864646D01*
X11190596Y-6854960D01*
X11281382Y-6827420D01*
X11345145Y-6821140D01*
X11377026Y-6818000D01*
X11990974Y-6818000D01*
X12022855Y-6821140D01*
X12022855Y-6821140D01*
G37*
G36*
X17864855Y-6821140D02*
G01*
X17928618Y-6827420D01*
X18019404Y-6854960D01*
X18051336Y-6864646D01*
X18164425Y-6925094D01*
X18263554Y-7006446D01*
X18344906Y-7105575D01*
X18405354Y-7218664D01*
X18405355Y-7218668D01*
X18442580Y-7341382D01*
X18455149Y-7469000D01*
X18442580Y-7596618D01*
X18435487Y-7620000D01*
X18405354Y-7719336D01*
X18344906Y-7832425D01*
X18263554Y-7931554D01*
X18164425Y-8012906D01*
X18051336Y-8073354D01*
X18019404Y-8083040D01*
X17928618Y-8110580D01*
X17864855Y-8116860D01*
X17832974Y-8120000D01*
X17219026Y-8120000D01*
X17187145Y-8116860D01*
X17123382Y-8110580D01*
X17032596Y-8083040D01*
X17000664Y-8073354D01*
X16887575Y-8012906D01*
X16788446Y-7931554D01*
X16707094Y-7832425D01*
X16646646Y-7719336D01*
X16616513Y-7620000D01*
X16609420Y-7596618D01*
X16596851Y-7469000D01*
X16609420Y-7341382D01*
X16646645Y-7218668D01*
X16646646Y-7218664D01*
X16707094Y-7105575D01*
X16788446Y-7006446D01*
X16887575Y-6925094D01*
X17000664Y-6864646D01*
X17032596Y-6854960D01*
X17123382Y-6827420D01*
X17187145Y-6821140D01*
X17219026Y-6818000D01*
X17832974Y-6818000D01*
X17864855Y-6821140D01*
X17864855Y-6821140D01*
G37*
G36*
X23706855Y-6821140D02*
G01*
X23770618Y-6827420D01*
X23861404Y-6854960D01*
X23893336Y-6864646D01*
X24006425Y-6925094D01*
X24105554Y-7006446D01*
X24186906Y-7105575D01*
X24247354Y-7218664D01*
X24247355Y-7218668D01*
X24284580Y-7341382D01*
X24297149Y-7469000D01*
X24284580Y-7596618D01*
X24277487Y-7620000D01*
X24247354Y-7719336D01*
X24186906Y-7832425D01*
X24105554Y-7931554D01*
X24006425Y-8012906D01*
X23893336Y-8073354D01*
X23861404Y-8083040D01*
X23770618Y-8110580D01*
X23706855Y-8116860D01*
X23674974Y-8120000D01*
X23061026Y-8120000D01*
X23029145Y-8116860D01*
X22965382Y-8110580D01*
X22874596Y-8083040D01*
X22842664Y-8073354D01*
X22729575Y-8012906D01*
X22630446Y-7931554D01*
X22549094Y-7832425D01*
X22488646Y-7719336D01*
X22458513Y-7620000D01*
X22451420Y-7596618D01*
X22438851Y-7469000D01*
X22451420Y-7341382D01*
X22488645Y-7218668D01*
X22488646Y-7218664D01*
X22549094Y-7105575D01*
X22630446Y-7006446D01*
X22729575Y-6925094D01*
X22842664Y-6864646D01*
X22874596Y-6854960D01*
X22965382Y-6827420D01*
X23029145Y-6821140D01*
X23061026Y-6818000D01*
X23674974Y-6818000D01*
X23706855Y-6821140D01*
X23706855Y-6821140D01*
G37*
G36*
X17864855Y-4821140D02*
G01*
X17928618Y-4827420D01*
X18019404Y-4854960D01*
X18051336Y-4864646D01*
X18164425Y-4925094D01*
X18263554Y-5006446D01*
X18344906Y-5105575D01*
X18405354Y-5218664D01*
X18405355Y-5218668D01*
X18442580Y-5341382D01*
X18455149Y-5469000D01*
X18442580Y-5596618D01*
X18415040Y-5687404D01*
X18405354Y-5719336D01*
X18344906Y-5832425D01*
X18263554Y-5931554D01*
X18164425Y-6012906D01*
X18051336Y-6073354D01*
X18019404Y-6083040D01*
X17928618Y-6110580D01*
X17864855Y-6116860D01*
X17832974Y-6120000D01*
X17219026Y-6120000D01*
X17187145Y-6116860D01*
X17123382Y-6110580D01*
X17032596Y-6083040D01*
X17000664Y-6073354D01*
X16887575Y-6012906D01*
X16788446Y-5931554D01*
X16707094Y-5832425D01*
X16646646Y-5719336D01*
X16636960Y-5687404D01*
X16609420Y-5596618D01*
X16596851Y-5469000D01*
X16609420Y-5341382D01*
X16646645Y-5218668D01*
X16646646Y-5218664D01*
X16707094Y-5105575D01*
X16788446Y-5006446D01*
X16887575Y-4925094D01*
X17000664Y-4864646D01*
X17032596Y-4854960D01*
X17123382Y-4827420D01*
X17187145Y-4821140D01*
X17219026Y-4818000D01*
X17832974Y-4818000D01*
X17864855Y-4821140D01*
X17864855Y-4821140D01*
G37*
G36*
X12022855Y-4821140D02*
G01*
X12086618Y-4827420D01*
X12177404Y-4854960D01*
X12209336Y-4864646D01*
X12322425Y-4925094D01*
X12421554Y-5006446D01*
X12502906Y-5105575D01*
X12563354Y-5218664D01*
X12563355Y-5218668D01*
X12600580Y-5341382D01*
X12613149Y-5469000D01*
X12600580Y-5596618D01*
X12573040Y-5687404D01*
X12563354Y-5719336D01*
X12502906Y-5832425D01*
X12421554Y-5931554D01*
X12322425Y-6012906D01*
X12209336Y-6073354D01*
X12177404Y-6083040D01*
X12086618Y-6110580D01*
X12022855Y-6116860D01*
X11990974Y-6120000D01*
X11377026Y-6120000D01*
X11345145Y-6116860D01*
X11281382Y-6110580D01*
X11190596Y-6083040D01*
X11158664Y-6073354D01*
X11045575Y-6012906D01*
X10946446Y-5931554D01*
X10865094Y-5832425D01*
X10804646Y-5719336D01*
X10794960Y-5687404D01*
X10767420Y-5596618D01*
X10754851Y-5469000D01*
X10767420Y-5341382D01*
X10804645Y-5218668D01*
X10804646Y-5218664D01*
X10865094Y-5105575D01*
X10946446Y-5006446D01*
X11045575Y-4925094D01*
X11158664Y-4864646D01*
X11190596Y-4854960D01*
X11281382Y-4827420D01*
X11345145Y-4821140D01*
X11377026Y-4818000D01*
X11990974Y-4818000D01*
X12022855Y-4821140D01*
X12022855Y-4821140D01*
G37*
G36*
X29548855Y-4821140D02*
G01*
X29612618Y-4827420D01*
X29703404Y-4854960D01*
X29735336Y-4864646D01*
X29848425Y-4925094D01*
X29947554Y-5006446D01*
X30028906Y-5105575D01*
X30089354Y-5218664D01*
X30089355Y-5218668D01*
X30126580Y-5341382D01*
X30139149Y-5469000D01*
X30126580Y-5596618D01*
X30099040Y-5687404D01*
X30089354Y-5719336D01*
X30028906Y-5832425D01*
X29947554Y-5931554D01*
X29848425Y-6012906D01*
X29735336Y-6073354D01*
X29703404Y-6083040D01*
X29612618Y-6110580D01*
X29548855Y-6116860D01*
X29516974Y-6120000D01*
X28903026Y-6120000D01*
X28871145Y-6116860D01*
X28807382Y-6110580D01*
X28716596Y-6083040D01*
X28684664Y-6073354D01*
X28571575Y-6012906D01*
X28472446Y-5931554D01*
X28391094Y-5832425D01*
X28330646Y-5719336D01*
X28320960Y-5687404D01*
X28293420Y-5596618D01*
X28280851Y-5469000D01*
X28293420Y-5341382D01*
X28330645Y-5218668D01*
X28330646Y-5218664D01*
X28391094Y-5105575D01*
X28472446Y-5006446D01*
X28571575Y-4925094D01*
X28684664Y-4864646D01*
X28716596Y-4854960D01*
X28807382Y-4827420D01*
X28871145Y-4821140D01*
X28903026Y-4818000D01*
X29516974Y-4818000D01*
X29548855Y-4821140D01*
X29548855Y-4821140D01*
G37*
G36*
X23706855Y-4821140D02*
G01*
X23770618Y-4827420D01*
X23861404Y-4854960D01*
X23893336Y-4864646D01*
X24006425Y-4925094D01*
X24105554Y-5006446D01*
X24186906Y-5105575D01*
X24247354Y-5218664D01*
X24247355Y-5218668D01*
X24284580Y-5341382D01*
X24297149Y-5469000D01*
X24284580Y-5596618D01*
X24257040Y-5687404D01*
X24247354Y-5719336D01*
X24186906Y-5832425D01*
X24105554Y-5931554D01*
X24006425Y-6012906D01*
X23893336Y-6073354D01*
X23861404Y-6083040D01*
X23770618Y-6110580D01*
X23706855Y-6116860D01*
X23674974Y-6120000D01*
X23061026Y-6120000D01*
X23029145Y-6116860D01*
X22965382Y-6110580D01*
X22874596Y-6083040D01*
X22842664Y-6073354D01*
X22729575Y-6012906D01*
X22630446Y-5931554D01*
X22549094Y-5832425D01*
X22488646Y-5719336D01*
X22478960Y-5687404D01*
X22451420Y-5596618D01*
X22438851Y-5469000D01*
X22451420Y-5341382D01*
X22488645Y-5218668D01*
X22488646Y-5218664D01*
X22549094Y-5105575D01*
X22630446Y-5006446D01*
X22729575Y-4925094D01*
X22842664Y-4864646D01*
X22874596Y-4854960D01*
X22965382Y-4827420D01*
X23029145Y-4821140D01*
X23061026Y-4818000D01*
X23674974Y-4818000D01*
X23706855Y-4821140D01*
X23706855Y-4821140D01*
G37*
G36*
X1380443Y-4185519D02*
G01*
X1446627Y-4192037D01*
X1616466Y-4243557D01*
X1772991Y-4327222D01*
X1808729Y-4356552D01*
X1910186Y-4439814D01*
X1993448Y-4541271D01*
X2022778Y-4577009D01*
X2106443Y-4733534D01*
X2157963Y-4903373D01*
X2175359Y-5080000D01*
X2157963Y-5256627D01*
X2106443Y-5426466D01*
X2022778Y-5582991D01*
X1993448Y-5618729D01*
X1910186Y-5720186D01*
X1808729Y-5803448D01*
X1772991Y-5832778D01*
X1616466Y-5916443D01*
X1446627Y-5967963D01*
X1380443Y-5974481D01*
X1314260Y-5981000D01*
X1225740Y-5981000D01*
X1159557Y-5974481D01*
X1093373Y-5967963D01*
X923534Y-5916443D01*
X767009Y-5832778D01*
X731271Y-5803448D01*
X629814Y-5720186D01*
X546552Y-5618729D01*
X517222Y-5582991D01*
X433557Y-5426466D01*
X382037Y-5256627D01*
X364641Y-5080000D01*
X382037Y-4903373D01*
X433557Y-4733534D01*
X517222Y-4577009D01*
X546552Y-4541271D01*
X629814Y-4439814D01*
X731271Y-4356552D01*
X767009Y-4327222D01*
X923534Y-4243557D01*
X1093373Y-4192037D01*
X1159557Y-4185519D01*
X1225740Y-4179000D01*
X1314260Y-4179000D01*
X1380443Y-4185519D01*
X1380443Y-4185519D01*
G37*
G36*
X3920443Y-4185519D02*
G01*
X3986627Y-4192037D01*
X4156466Y-4243557D01*
X4312991Y-4327222D01*
X4348729Y-4356552D01*
X4450186Y-4439814D01*
X4533448Y-4541271D01*
X4562778Y-4577009D01*
X4646443Y-4733534D01*
X4697963Y-4903373D01*
X4715359Y-5080000D01*
X4697963Y-5256627D01*
X4646443Y-5426466D01*
X4562778Y-5582991D01*
X4533448Y-5618729D01*
X4450186Y-5720186D01*
X4348729Y-5803448D01*
X4312991Y-5832778D01*
X4156466Y-5916443D01*
X3986627Y-5967963D01*
X3920443Y-5974481D01*
X3854260Y-5981000D01*
X3765740Y-5981000D01*
X3699557Y-5974481D01*
X3633373Y-5967963D01*
X3463534Y-5916443D01*
X3307009Y-5832778D01*
X3271271Y-5803448D01*
X3169814Y-5720186D01*
X3086552Y-5618729D01*
X3057222Y-5582991D01*
X2973557Y-5426466D01*
X2922037Y-5256627D01*
X2904641Y-5080000D01*
X2922037Y-4903373D01*
X2973557Y-4733534D01*
X3057222Y-4577009D01*
X3086552Y-4541271D01*
X3169814Y-4439814D01*
X3271271Y-4356552D01*
X3307009Y-4327222D01*
X3463534Y-4243557D01*
X3633373Y-4192037D01*
X3699557Y-4185519D01*
X3765740Y-4179000D01*
X3854260Y-4179000D01*
X3920443Y-4185519D01*
X3920443Y-4185519D01*
G37*
G36*
X37003000Y-5507000D02*
G01*
X33101000Y-5507000D01*
X33101000Y-1605000D01*
X37003000Y-1605000D01*
X37003000Y-5507000D01*
X37003000Y-5507000D01*
G37*
G36*
X41402585Y-2113802D02*
G01*
X41552410Y-2143604D01*
X41834674Y-2260521D01*
X42088705Y-2430259D01*
X42304741Y-2646295D01*
X42474479Y-2900326D01*
X42591396Y-3182590D01*
X42651000Y-3482240D01*
X42651000Y-3787760D01*
X42591396Y-4087410D01*
X42474479Y-4369674D01*
X42304741Y-4623705D01*
X42088705Y-4839741D01*
X41834674Y-5009479D01*
X41552410Y-5126396D01*
X41402585Y-5156198D01*
X41252761Y-5186000D01*
X40947239Y-5186000D01*
X40797415Y-5156198D01*
X40647590Y-5126396D01*
X40365326Y-5009479D01*
X40111295Y-4839741D01*
X39895259Y-4623705D01*
X39725521Y-4369674D01*
X39608604Y-4087410D01*
X39549000Y-3787760D01*
X39549000Y-3482240D01*
X39608604Y-3182590D01*
X39725521Y-2900326D01*
X39895259Y-2646295D01*
X40111295Y-2430259D01*
X40365326Y-2260521D01*
X40647590Y-2143604D01*
X40797415Y-2113802D01*
X40947239Y-2084000D01*
X41252761Y-2084000D01*
X41402585Y-2113802D01*
X41402585Y-2113802D01*
G37*
G36*
X-2697415Y-2113802D02*
G01*
X-2547590Y-2143604D01*
X-2265326Y-2260521D01*
X-2011295Y-2430259D01*
X-1795259Y-2646295D01*
X-1625521Y-2900326D01*
X-1508604Y-3182590D01*
X-1449000Y-3482240D01*
X-1449000Y-3787760D01*
X-1508604Y-4087410D01*
X-1625521Y-4369674D01*
X-1795259Y-4623705D01*
X-2011295Y-4839741D01*
X-2265326Y-5009479D01*
X-2547590Y-5126396D01*
X-2697415Y-5156198D01*
X-2847239Y-5186000D01*
X-3152761Y-5186000D01*
X-3302585Y-5156198D01*
X-3452410Y-5126396D01*
X-3734674Y-5009479D01*
X-3988705Y-4839741D01*
X-4204741Y-4623705D01*
X-4374479Y-4369674D01*
X-4491396Y-4087410D01*
X-4551000Y-3787760D01*
X-4551000Y-3482240D01*
X-4491396Y-3182590D01*
X-4374479Y-2900326D01*
X-4204741Y-2646295D01*
X-3988705Y-2430259D01*
X-3734674Y-2260521D01*
X-3452410Y-2143604D01*
X-3302585Y-2113802D01*
X-3152761Y-2084000D01*
X-2847239Y-2084000D01*
X-2697415Y-2113802D01*
X-2697415Y-2113802D01*
G37*
G36*
X29976242Y-2822404D02*
G01*
X30013337Y-2833657D01*
X30047515Y-2851925D01*
X30077481Y-2876519D01*
X30102075Y-2906485D01*
X30120343Y-2940663D01*
X30131596Y-2977758D01*
X30136000Y-3022474D01*
X30136000Y-3915526D01*
X30131596Y-3960242D01*
X30120343Y-3997337D01*
X30102075Y-4031515D01*
X30077481Y-4061481D01*
X30047515Y-4086075D01*
X30013337Y-4104343D01*
X29976242Y-4115596D01*
X29931526Y-4120000D01*
X28488474Y-4120000D01*
X28443758Y-4115596D01*
X28406663Y-4104343D01*
X28372485Y-4086075D01*
X28342519Y-4061481D01*
X28317925Y-4031515D01*
X28299657Y-3997337D01*
X28288404Y-3960242D01*
X28284000Y-3915526D01*
X28284000Y-3022474D01*
X28288404Y-2977758D01*
X28299657Y-2940663D01*
X28317925Y-2906485D01*
X28342519Y-2876519D01*
X28372485Y-2851925D01*
X28406663Y-2833657D01*
X28443758Y-2822404D01*
X28488474Y-2818000D01*
X29931526Y-2818000D01*
X29976242Y-2822404D01*
X29976242Y-2822404D01*
G37*
G36*
X12450242Y-2822404D02*
G01*
X12487337Y-2833657D01*
X12521515Y-2851925D01*
X12551481Y-2876519D01*
X12576075Y-2906485D01*
X12594343Y-2940663D01*
X12605596Y-2977758D01*
X12610000Y-3022474D01*
X12610000Y-3915526D01*
X12605596Y-3960242D01*
X12594343Y-3997337D01*
X12576075Y-4031515D01*
X12551481Y-4061481D01*
X12521515Y-4086075D01*
X12487337Y-4104343D01*
X12450242Y-4115596D01*
X12405526Y-4120000D01*
X10962474Y-4120000D01*
X10917758Y-4115596D01*
X10880663Y-4104343D01*
X10846485Y-4086075D01*
X10816519Y-4061481D01*
X10791925Y-4031515D01*
X10773657Y-3997337D01*
X10762404Y-3960242D01*
X10758000Y-3915526D01*
X10758000Y-3022474D01*
X10762404Y-2977758D01*
X10773657Y-2940663D01*
X10791925Y-2906485D01*
X10816519Y-2876519D01*
X10846485Y-2851925D01*
X10880663Y-2833657D01*
X10917758Y-2822404D01*
X10962474Y-2818000D01*
X12405526Y-2818000D01*
X12450242Y-2822404D01*
X12450242Y-2822404D01*
G37*
G36*
X18292242Y-2822404D02*
G01*
X18329337Y-2833657D01*
X18363515Y-2851925D01*
X18393481Y-2876519D01*
X18418075Y-2906485D01*
X18436343Y-2940663D01*
X18447596Y-2977758D01*
X18452000Y-3022474D01*
X18452000Y-3915526D01*
X18447596Y-3960242D01*
X18436343Y-3997337D01*
X18418075Y-4031515D01*
X18393481Y-4061481D01*
X18363515Y-4086075D01*
X18329337Y-4104343D01*
X18292242Y-4115596D01*
X18247526Y-4120000D01*
X16804474Y-4120000D01*
X16759758Y-4115596D01*
X16722663Y-4104343D01*
X16688485Y-4086075D01*
X16658519Y-4061481D01*
X16633925Y-4031515D01*
X16615657Y-3997337D01*
X16604404Y-3960242D01*
X16600000Y-3915526D01*
X16600000Y-3022474D01*
X16604404Y-2977758D01*
X16615657Y-2940663D01*
X16633925Y-2906485D01*
X16658519Y-2876519D01*
X16688485Y-2851925D01*
X16722663Y-2833657D01*
X16759758Y-2822404D01*
X16804474Y-2818000D01*
X18247526Y-2818000D01*
X18292242Y-2822404D01*
X18292242Y-2822404D01*
G37*
G36*
X24134242Y-2822404D02*
G01*
X24171337Y-2833657D01*
X24205515Y-2851925D01*
X24235481Y-2876519D01*
X24260075Y-2906485D01*
X24278343Y-2940663D01*
X24289596Y-2977758D01*
X24294000Y-3022474D01*
X24294000Y-3915526D01*
X24289596Y-3960242D01*
X24278343Y-3997337D01*
X24260075Y-4031515D01*
X24235481Y-4061481D01*
X24205515Y-4086075D01*
X24171337Y-4104343D01*
X24134242Y-4115596D01*
X24089526Y-4120000D01*
X22646474Y-4120000D01*
X22601758Y-4115596D01*
X22564663Y-4104343D01*
X22530485Y-4086075D01*
X22500519Y-4061481D01*
X22475925Y-4031515D01*
X22457657Y-3997337D01*
X22446404Y-3960242D01*
X22442000Y-3915526D01*
X22442000Y-3022474D01*
X22446404Y-2977758D01*
X22457657Y-2940663D01*
X22475925Y-2906485D01*
X22500519Y-2876519D01*
X22530485Y-2851925D01*
X22564663Y-2833657D01*
X22601758Y-2822404D01*
X22646474Y-2818000D01*
X24089526Y-2818000D01*
X24134242Y-2822404D01*
X24134242Y-2822404D01*
G37*
G36*
X1380443Y-1645519D02*
G01*
X1446627Y-1652037D01*
X1616466Y-1703557D01*
X1772991Y-1787222D01*
X1808729Y-1816552D01*
X1910186Y-1899814D01*
X1993448Y-2001271D01*
X2022778Y-2037009D01*
X2106443Y-2193534D01*
X2157963Y-2363373D01*
X2175359Y-2540000D01*
X2157963Y-2716627D01*
X2109460Y-2876519D01*
X2106442Y-2886468D01*
X2099035Y-2900326D01*
X2022778Y-3042991D01*
X1993448Y-3078729D01*
X1910186Y-3180186D01*
X1808729Y-3263448D01*
X1772991Y-3292778D01*
X1616466Y-3376443D01*
X1446627Y-3427963D01*
X1380443Y-3434481D01*
X1314260Y-3441000D01*
X1225740Y-3441000D01*
X1159557Y-3434481D01*
X1093373Y-3427963D01*
X923534Y-3376443D01*
X767009Y-3292778D01*
X731271Y-3263448D01*
X629814Y-3180186D01*
X546552Y-3078729D01*
X517222Y-3042991D01*
X440965Y-2900326D01*
X433558Y-2886468D01*
X430540Y-2876519D01*
X382037Y-2716627D01*
X364641Y-2540000D01*
X382037Y-2363373D01*
X433557Y-2193534D01*
X517222Y-2037009D01*
X546552Y-2001271D01*
X629814Y-1899814D01*
X731271Y-1816552D01*
X767009Y-1787222D01*
X923534Y-1703557D01*
X1093373Y-1652037D01*
X1159557Y-1645519D01*
X1225740Y-1639000D01*
X1314260Y-1639000D01*
X1380443Y-1645519D01*
X1380443Y-1645519D01*
G37*
G36*
X4711000Y-3441000D02*
G01*
X2909000Y-3441000D01*
X2909000Y-1639000D01*
X4711000Y-1639000D01*
X4711000Y-3441000D01*
X4711000Y-3441000D01*
G37*
M02*
