G04 #@! TF.GenerationSoftware,KiCad,Pcbnew,(5.1.4)-1*
G04 #@! TF.CreationDate,2021-11-14T18:33:35-06:00*
G04 #@! TF.ProjectId,FadecandyHatV1.0,46616465-6361-46e6-9479-48617456312e,rev?*
G04 #@! TF.SameCoordinates,Original*
G04 #@! TF.FileFunction,Copper,L1,Top*
G04 #@! TF.FilePolarity,Positive*
%FSLAX46Y46*%
G04 Gerber Fmt 4.6, Leading zero omitted, Abs format (unit mm)*
G04 Created by KiCad (PCBNEW (5.1.4)-1) date 2021-11-14 18:33:35*
%MOMM*%
%LPD*%
G04 APERTURE LIST*
%ADD10O,1.750000X1.200000*%
%ADD11C,0.100000*%
%ADD12C,1.200000*%
%ADD13C,3.800000*%
%ADD14R,3.800000X3.800000*%
%ADD15C,0.975000*%
%ADD16C,4.000000*%
%ADD17R,1.700000X1.700000*%
%ADD18O,1.700000X1.700000*%
%ADD19C,0.800000*%
%ADD20C,1.500000*%
%ADD21C,0.500000*%
%ADD22C,2.500000*%
%ADD23C,5.000000*%
%ADD24C,0.150000*%
G04 APERTURE END LIST*
D10*
X29210000Y-18391000D03*
X29210000Y-16391000D03*
D11*
G36*
X29859505Y-13792204D02*
G01*
X29883773Y-13795804D01*
X29907572Y-13801765D01*
X29930671Y-13810030D01*
X29952850Y-13820520D01*
X29973893Y-13833132D01*
X29993599Y-13847747D01*
X30011777Y-13864223D01*
X30028253Y-13882401D01*
X30042868Y-13902107D01*
X30055480Y-13923150D01*
X30065970Y-13945329D01*
X30074235Y-13968428D01*
X30080196Y-13992227D01*
X30083796Y-14016495D01*
X30085000Y-14040999D01*
X30085000Y-14741001D01*
X30083796Y-14765505D01*
X30080196Y-14789773D01*
X30074235Y-14813572D01*
X30065970Y-14836671D01*
X30055480Y-14858850D01*
X30042868Y-14879893D01*
X30028253Y-14899599D01*
X30011777Y-14917777D01*
X29993599Y-14934253D01*
X29973893Y-14948868D01*
X29952850Y-14961480D01*
X29930671Y-14971970D01*
X29907572Y-14980235D01*
X29883773Y-14986196D01*
X29859505Y-14989796D01*
X29835001Y-14991000D01*
X28584999Y-14991000D01*
X28560495Y-14989796D01*
X28536227Y-14986196D01*
X28512428Y-14980235D01*
X28489329Y-14971970D01*
X28467150Y-14961480D01*
X28446107Y-14948868D01*
X28426401Y-14934253D01*
X28408223Y-14917777D01*
X28391747Y-14899599D01*
X28377132Y-14879893D01*
X28364520Y-14858850D01*
X28354030Y-14836671D01*
X28345765Y-14813572D01*
X28339804Y-14789773D01*
X28336204Y-14765505D01*
X28335000Y-14741001D01*
X28335000Y-14040999D01*
X28336204Y-14016495D01*
X28339804Y-13992227D01*
X28345765Y-13968428D01*
X28354030Y-13945329D01*
X28364520Y-13923150D01*
X28377132Y-13902107D01*
X28391747Y-13882401D01*
X28408223Y-13864223D01*
X28426401Y-13847747D01*
X28446107Y-13833132D01*
X28467150Y-13820520D01*
X28489329Y-13810030D01*
X28512428Y-13801765D01*
X28536227Y-13795804D01*
X28560495Y-13792204D01*
X28584999Y-13791000D01*
X29835001Y-13791000D01*
X29859505Y-13792204D01*
X29859505Y-13792204D01*
G37*
D12*
X29210000Y-14391000D03*
D10*
X23368000Y-18391000D03*
X23368000Y-16391000D03*
D11*
G36*
X24017505Y-13792204D02*
G01*
X24041773Y-13795804D01*
X24065572Y-13801765D01*
X24088671Y-13810030D01*
X24110850Y-13820520D01*
X24131893Y-13833132D01*
X24151599Y-13847747D01*
X24169777Y-13864223D01*
X24186253Y-13882401D01*
X24200868Y-13902107D01*
X24213480Y-13923150D01*
X24223970Y-13945329D01*
X24232235Y-13968428D01*
X24238196Y-13992227D01*
X24241796Y-14016495D01*
X24243000Y-14040999D01*
X24243000Y-14741001D01*
X24241796Y-14765505D01*
X24238196Y-14789773D01*
X24232235Y-14813572D01*
X24223970Y-14836671D01*
X24213480Y-14858850D01*
X24200868Y-14879893D01*
X24186253Y-14899599D01*
X24169777Y-14917777D01*
X24151599Y-14934253D01*
X24131893Y-14948868D01*
X24110850Y-14961480D01*
X24088671Y-14971970D01*
X24065572Y-14980235D01*
X24041773Y-14986196D01*
X24017505Y-14989796D01*
X23993001Y-14991000D01*
X22742999Y-14991000D01*
X22718495Y-14989796D01*
X22694227Y-14986196D01*
X22670428Y-14980235D01*
X22647329Y-14971970D01*
X22625150Y-14961480D01*
X22604107Y-14948868D01*
X22584401Y-14934253D01*
X22566223Y-14917777D01*
X22549747Y-14899599D01*
X22535132Y-14879893D01*
X22522520Y-14858850D01*
X22512030Y-14836671D01*
X22503765Y-14813572D01*
X22497804Y-14789773D01*
X22494204Y-14765505D01*
X22493000Y-14741001D01*
X22493000Y-14040999D01*
X22494204Y-14016495D01*
X22497804Y-13992227D01*
X22503765Y-13968428D01*
X22512030Y-13945329D01*
X22522520Y-13923150D01*
X22535132Y-13902107D01*
X22549747Y-13882401D01*
X22566223Y-13864223D01*
X22584401Y-13847747D01*
X22604107Y-13833132D01*
X22625150Y-13820520D01*
X22647329Y-13810030D01*
X22670428Y-13801765D01*
X22694227Y-13795804D01*
X22718495Y-13792204D01*
X22742999Y-13791000D01*
X23993001Y-13791000D01*
X24017505Y-13792204D01*
X24017505Y-13792204D01*
G37*
D12*
X23368000Y-14391000D03*
D10*
X17526000Y-18391000D03*
X17526000Y-16391000D03*
D11*
G36*
X18175505Y-13792204D02*
G01*
X18199773Y-13795804D01*
X18223572Y-13801765D01*
X18246671Y-13810030D01*
X18268850Y-13820520D01*
X18289893Y-13833132D01*
X18309599Y-13847747D01*
X18327777Y-13864223D01*
X18344253Y-13882401D01*
X18358868Y-13902107D01*
X18371480Y-13923150D01*
X18381970Y-13945329D01*
X18390235Y-13968428D01*
X18396196Y-13992227D01*
X18399796Y-14016495D01*
X18401000Y-14040999D01*
X18401000Y-14741001D01*
X18399796Y-14765505D01*
X18396196Y-14789773D01*
X18390235Y-14813572D01*
X18381970Y-14836671D01*
X18371480Y-14858850D01*
X18358868Y-14879893D01*
X18344253Y-14899599D01*
X18327777Y-14917777D01*
X18309599Y-14934253D01*
X18289893Y-14948868D01*
X18268850Y-14961480D01*
X18246671Y-14971970D01*
X18223572Y-14980235D01*
X18199773Y-14986196D01*
X18175505Y-14989796D01*
X18151001Y-14991000D01*
X16900999Y-14991000D01*
X16876495Y-14989796D01*
X16852227Y-14986196D01*
X16828428Y-14980235D01*
X16805329Y-14971970D01*
X16783150Y-14961480D01*
X16762107Y-14948868D01*
X16742401Y-14934253D01*
X16724223Y-14917777D01*
X16707747Y-14899599D01*
X16693132Y-14879893D01*
X16680520Y-14858850D01*
X16670030Y-14836671D01*
X16661765Y-14813572D01*
X16655804Y-14789773D01*
X16652204Y-14765505D01*
X16651000Y-14741001D01*
X16651000Y-14040999D01*
X16652204Y-14016495D01*
X16655804Y-13992227D01*
X16661765Y-13968428D01*
X16670030Y-13945329D01*
X16680520Y-13923150D01*
X16693132Y-13902107D01*
X16707747Y-13882401D01*
X16724223Y-13864223D01*
X16742401Y-13847747D01*
X16762107Y-13833132D01*
X16783150Y-13820520D01*
X16805329Y-13810030D01*
X16828428Y-13801765D01*
X16852227Y-13795804D01*
X16876495Y-13792204D01*
X16900999Y-13791000D01*
X18151001Y-13791000D01*
X18175505Y-13792204D01*
X18175505Y-13792204D01*
G37*
D12*
X17526000Y-14391000D03*
D10*
X11684000Y-18391000D03*
X11684000Y-16391000D03*
D11*
G36*
X12333505Y-13792204D02*
G01*
X12357773Y-13795804D01*
X12381572Y-13801765D01*
X12404671Y-13810030D01*
X12426850Y-13820520D01*
X12447893Y-13833132D01*
X12467599Y-13847747D01*
X12485777Y-13864223D01*
X12502253Y-13882401D01*
X12516868Y-13902107D01*
X12529480Y-13923150D01*
X12539970Y-13945329D01*
X12548235Y-13968428D01*
X12554196Y-13992227D01*
X12557796Y-14016495D01*
X12559000Y-14040999D01*
X12559000Y-14741001D01*
X12557796Y-14765505D01*
X12554196Y-14789773D01*
X12548235Y-14813572D01*
X12539970Y-14836671D01*
X12529480Y-14858850D01*
X12516868Y-14879893D01*
X12502253Y-14899599D01*
X12485777Y-14917777D01*
X12467599Y-14934253D01*
X12447893Y-14948868D01*
X12426850Y-14961480D01*
X12404671Y-14971970D01*
X12381572Y-14980235D01*
X12357773Y-14986196D01*
X12333505Y-14989796D01*
X12309001Y-14991000D01*
X11058999Y-14991000D01*
X11034495Y-14989796D01*
X11010227Y-14986196D01*
X10986428Y-14980235D01*
X10963329Y-14971970D01*
X10941150Y-14961480D01*
X10920107Y-14948868D01*
X10900401Y-14934253D01*
X10882223Y-14917777D01*
X10865747Y-14899599D01*
X10851132Y-14879893D01*
X10838520Y-14858850D01*
X10828030Y-14836671D01*
X10819765Y-14813572D01*
X10813804Y-14789773D01*
X10810204Y-14765505D01*
X10809000Y-14741001D01*
X10809000Y-14040999D01*
X10810204Y-14016495D01*
X10813804Y-13992227D01*
X10819765Y-13968428D01*
X10828030Y-13945329D01*
X10838520Y-13923150D01*
X10851132Y-13902107D01*
X10865747Y-13882401D01*
X10882223Y-13864223D01*
X10900401Y-13847747D01*
X10920107Y-13833132D01*
X10941150Y-13820520D01*
X10963329Y-13810030D01*
X10986428Y-13801765D01*
X11010227Y-13795804D01*
X11034495Y-13792204D01*
X11058999Y-13791000D01*
X12309001Y-13791000D01*
X12333505Y-13792204D01*
X12333505Y-13792204D01*
G37*
D12*
X11684000Y-14391000D03*
D10*
X29210000Y-7469000D03*
X29210000Y-5469000D03*
D11*
G36*
X29859505Y-2870204D02*
G01*
X29883773Y-2873804D01*
X29907572Y-2879765D01*
X29930671Y-2888030D01*
X29952850Y-2898520D01*
X29973893Y-2911132D01*
X29993599Y-2925747D01*
X30011777Y-2942223D01*
X30028253Y-2960401D01*
X30042868Y-2980107D01*
X30055480Y-3001150D01*
X30065970Y-3023329D01*
X30074235Y-3046428D01*
X30080196Y-3070227D01*
X30083796Y-3094495D01*
X30085000Y-3118999D01*
X30085000Y-3819001D01*
X30083796Y-3843505D01*
X30080196Y-3867773D01*
X30074235Y-3891572D01*
X30065970Y-3914671D01*
X30055480Y-3936850D01*
X30042868Y-3957893D01*
X30028253Y-3977599D01*
X30011777Y-3995777D01*
X29993599Y-4012253D01*
X29973893Y-4026868D01*
X29952850Y-4039480D01*
X29930671Y-4049970D01*
X29907572Y-4058235D01*
X29883773Y-4064196D01*
X29859505Y-4067796D01*
X29835001Y-4069000D01*
X28584999Y-4069000D01*
X28560495Y-4067796D01*
X28536227Y-4064196D01*
X28512428Y-4058235D01*
X28489329Y-4049970D01*
X28467150Y-4039480D01*
X28446107Y-4026868D01*
X28426401Y-4012253D01*
X28408223Y-3995777D01*
X28391747Y-3977599D01*
X28377132Y-3957893D01*
X28364520Y-3936850D01*
X28354030Y-3914671D01*
X28345765Y-3891572D01*
X28339804Y-3867773D01*
X28336204Y-3843505D01*
X28335000Y-3819001D01*
X28335000Y-3118999D01*
X28336204Y-3094495D01*
X28339804Y-3070227D01*
X28345765Y-3046428D01*
X28354030Y-3023329D01*
X28364520Y-3001150D01*
X28377132Y-2980107D01*
X28391747Y-2960401D01*
X28408223Y-2942223D01*
X28426401Y-2925747D01*
X28446107Y-2911132D01*
X28467150Y-2898520D01*
X28489329Y-2888030D01*
X28512428Y-2879765D01*
X28536227Y-2873804D01*
X28560495Y-2870204D01*
X28584999Y-2869000D01*
X29835001Y-2869000D01*
X29859505Y-2870204D01*
X29859505Y-2870204D01*
G37*
D12*
X29210000Y-3469000D03*
D10*
X23368000Y-7469000D03*
X23368000Y-5469000D03*
D11*
G36*
X24017505Y-2870204D02*
G01*
X24041773Y-2873804D01*
X24065572Y-2879765D01*
X24088671Y-2888030D01*
X24110850Y-2898520D01*
X24131893Y-2911132D01*
X24151599Y-2925747D01*
X24169777Y-2942223D01*
X24186253Y-2960401D01*
X24200868Y-2980107D01*
X24213480Y-3001150D01*
X24223970Y-3023329D01*
X24232235Y-3046428D01*
X24238196Y-3070227D01*
X24241796Y-3094495D01*
X24243000Y-3118999D01*
X24243000Y-3819001D01*
X24241796Y-3843505D01*
X24238196Y-3867773D01*
X24232235Y-3891572D01*
X24223970Y-3914671D01*
X24213480Y-3936850D01*
X24200868Y-3957893D01*
X24186253Y-3977599D01*
X24169777Y-3995777D01*
X24151599Y-4012253D01*
X24131893Y-4026868D01*
X24110850Y-4039480D01*
X24088671Y-4049970D01*
X24065572Y-4058235D01*
X24041773Y-4064196D01*
X24017505Y-4067796D01*
X23993001Y-4069000D01*
X22742999Y-4069000D01*
X22718495Y-4067796D01*
X22694227Y-4064196D01*
X22670428Y-4058235D01*
X22647329Y-4049970D01*
X22625150Y-4039480D01*
X22604107Y-4026868D01*
X22584401Y-4012253D01*
X22566223Y-3995777D01*
X22549747Y-3977599D01*
X22535132Y-3957893D01*
X22522520Y-3936850D01*
X22512030Y-3914671D01*
X22503765Y-3891572D01*
X22497804Y-3867773D01*
X22494204Y-3843505D01*
X22493000Y-3819001D01*
X22493000Y-3118999D01*
X22494204Y-3094495D01*
X22497804Y-3070227D01*
X22503765Y-3046428D01*
X22512030Y-3023329D01*
X22522520Y-3001150D01*
X22535132Y-2980107D01*
X22549747Y-2960401D01*
X22566223Y-2942223D01*
X22584401Y-2925747D01*
X22604107Y-2911132D01*
X22625150Y-2898520D01*
X22647329Y-2888030D01*
X22670428Y-2879765D01*
X22694227Y-2873804D01*
X22718495Y-2870204D01*
X22742999Y-2869000D01*
X23993001Y-2869000D01*
X24017505Y-2870204D01*
X24017505Y-2870204D01*
G37*
D12*
X23368000Y-3469000D03*
D10*
X17526000Y-7469000D03*
X17526000Y-5469000D03*
D11*
G36*
X18175505Y-2870204D02*
G01*
X18199773Y-2873804D01*
X18223572Y-2879765D01*
X18246671Y-2888030D01*
X18268850Y-2898520D01*
X18289893Y-2911132D01*
X18309599Y-2925747D01*
X18327777Y-2942223D01*
X18344253Y-2960401D01*
X18358868Y-2980107D01*
X18371480Y-3001150D01*
X18381970Y-3023329D01*
X18390235Y-3046428D01*
X18396196Y-3070227D01*
X18399796Y-3094495D01*
X18401000Y-3118999D01*
X18401000Y-3819001D01*
X18399796Y-3843505D01*
X18396196Y-3867773D01*
X18390235Y-3891572D01*
X18381970Y-3914671D01*
X18371480Y-3936850D01*
X18358868Y-3957893D01*
X18344253Y-3977599D01*
X18327777Y-3995777D01*
X18309599Y-4012253D01*
X18289893Y-4026868D01*
X18268850Y-4039480D01*
X18246671Y-4049970D01*
X18223572Y-4058235D01*
X18199773Y-4064196D01*
X18175505Y-4067796D01*
X18151001Y-4069000D01*
X16900999Y-4069000D01*
X16876495Y-4067796D01*
X16852227Y-4064196D01*
X16828428Y-4058235D01*
X16805329Y-4049970D01*
X16783150Y-4039480D01*
X16762107Y-4026868D01*
X16742401Y-4012253D01*
X16724223Y-3995777D01*
X16707747Y-3977599D01*
X16693132Y-3957893D01*
X16680520Y-3936850D01*
X16670030Y-3914671D01*
X16661765Y-3891572D01*
X16655804Y-3867773D01*
X16652204Y-3843505D01*
X16651000Y-3819001D01*
X16651000Y-3118999D01*
X16652204Y-3094495D01*
X16655804Y-3070227D01*
X16661765Y-3046428D01*
X16670030Y-3023329D01*
X16680520Y-3001150D01*
X16693132Y-2980107D01*
X16707747Y-2960401D01*
X16724223Y-2942223D01*
X16742401Y-2925747D01*
X16762107Y-2911132D01*
X16783150Y-2898520D01*
X16805329Y-2888030D01*
X16828428Y-2879765D01*
X16852227Y-2873804D01*
X16876495Y-2870204D01*
X16900999Y-2869000D01*
X18151001Y-2869000D01*
X18175505Y-2870204D01*
X18175505Y-2870204D01*
G37*
D12*
X17526000Y-3469000D03*
D10*
X11684000Y-7469000D03*
X11684000Y-5469000D03*
D11*
G36*
X12333505Y-2870204D02*
G01*
X12357773Y-2873804D01*
X12381572Y-2879765D01*
X12404671Y-2888030D01*
X12426850Y-2898520D01*
X12447893Y-2911132D01*
X12467599Y-2925747D01*
X12485777Y-2942223D01*
X12502253Y-2960401D01*
X12516868Y-2980107D01*
X12529480Y-3001150D01*
X12539970Y-3023329D01*
X12548235Y-3046428D01*
X12554196Y-3070227D01*
X12557796Y-3094495D01*
X12559000Y-3118999D01*
X12559000Y-3819001D01*
X12557796Y-3843505D01*
X12554196Y-3867773D01*
X12548235Y-3891572D01*
X12539970Y-3914671D01*
X12529480Y-3936850D01*
X12516868Y-3957893D01*
X12502253Y-3977599D01*
X12485777Y-3995777D01*
X12467599Y-4012253D01*
X12447893Y-4026868D01*
X12426850Y-4039480D01*
X12404671Y-4049970D01*
X12381572Y-4058235D01*
X12357773Y-4064196D01*
X12333505Y-4067796D01*
X12309001Y-4069000D01*
X11058999Y-4069000D01*
X11034495Y-4067796D01*
X11010227Y-4064196D01*
X10986428Y-4058235D01*
X10963329Y-4049970D01*
X10941150Y-4039480D01*
X10920107Y-4026868D01*
X10900401Y-4012253D01*
X10882223Y-3995777D01*
X10865747Y-3977599D01*
X10851132Y-3957893D01*
X10838520Y-3936850D01*
X10828030Y-3914671D01*
X10819765Y-3891572D01*
X10813804Y-3867773D01*
X10810204Y-3843505D01*
X10809000Y-3819001D01*
X10809000Y-3118999D01*
X10810204Y-3094495D01*
X10813804Y-3070227D01*
X10819765Y-3046428D01*
X10828030Y-3023329D01*
X10838520Y-3001150D01*
X10851132Y-2980107D01*
X10865747Y-2960401D01*
X10882223Y-2942223D01*
X10900401Y-2925747D01*
X10920107Y-2911132D01*
X10941150Y-2898520D01*
X10963329Y-2888030D01*
X10986428Y-2879765D01*
X11010227Y-2873804D01*
X11034495Y-2870204D01*
X11058999Y-2869000D01*
X12309001Y-2869000D01*
X12333505Y-2870204D01*
X12333505Y-2870204D01*
G37*
D12*
X11684000Y-3469000D03*
D13*
X35052000Y-8556000D03*
D14*
X35052000Y-3556000D03*
D11*
G36*
X7465142Y-13786174D02*
G01*
X7488803Y-13789684D01*
X7512007Y-13795496D01*
X7534529Y-13803554D01*
X7556153Y-13813782D01*
X7576670Y-13826079D01*
X7595883Y-13840329D01*
X7613607Y-13856393D01*
X7629671Y-13874117D01*
X7643921Y-13893330D01*
X7656218Y-13913847D01*
X7666446Y-13935471D01*
X7674504Y-13957993D01*
X7680316Y-13981197D01*
X7683826Y-14004858D01*
X7685000Y-14028750D01*
X7685000Y-14516250D01*
X7683826Y-14540142D01*
X7680316Y-14563803D01*
X7674504Y-14587007D01*
X7666446Y-14609529D01*
X7656218Y-14631153D01*
X7643921Y-14651670D01*
X7629671Y-14670883D01*
X7613607Y-14688607D01*
X7595883Y-14704671D01*
X7576670Y-14718921D01*
X7556153Y-14731218D01*
X7534529Y-14741446D01*
X7512007Y-14749504D01*
X7488803Y-14755316D01*
X7465142Y-14758826D01*
X7441250Y-14760000D01*
X6528750Y-14760000D01*
X6504858Y-14758826D01*
X6481197Y-14755316D01*
X6457993Y-14749504D01*
X6435471Y-14741446D01*
X6413847Y-14731218D01*
X6393330Y-14718921D01*
X6374117Y-14704671D01*
X6356393Y-14688607D01*
X6340329Y-14670883D01*
X6326079Y-14651670D01*
X6313782Y-14631153D01*
X6303554Y-14609529D01*
X6295496Y-14587007D01*
X6289684Y-14563803D01*
X6286174Y-14540142D01*
X6285000Y-14516250D01*
X6285000Y-14028750D01*
X6286174Y-14004858D01*
X6289684Y-13981197D01*
X6295496Y-13957993D01*
X6303554Y-13935471D01*
X6313782Y-13913847D01*
X6326079Y-13893330D01*
X6340329Y-13874117D01*
X6356393Y-13856393D01*
X6374117Y-13840329D01*
X6393330Y-13826079D01*
X6413847Y-13813782D01*
X6435471Y-13803554D01*
X6457993Y-13795496D01*
X6481197Y-13789684D01*
X6504858Y-13786174D01*
X6528750Y-13785000D01*
X7441250Y-13785000D01*
X7465142Y-13786174D01*
X7465142Y-13786174D01*
G37*
D15*
X6985000Y-14272500D03*
D11*
G36*
X7465142Y-11911174D02*
G01*
X7488803Y-11914684D01*
X7512007Y-11920496D01*
X7534529Y-11928554D01*
X7556153Y-11938782D01*
X7576670Y-11951079D01*
X7595883Y-11965329D01*
X7613607Y-11981393D01*
X7629671Y-11999117D01*
X7643921Y-12018330D01*
X7656218Y-12038847D01*
X7666446Y-12060471D01*
X7674504Y-12082993D01*
X7680316Y-12106197D01*
X7683826Y-12129858D01*
X7685000Y-12153750D01*
X7685000Y-12641250D01*
X7683826Y-12665142D01*
X7680316Y-12688803D01*
X7674504Y-12712007D01*
X7666446Y-12734529D01*
X7656218Y-12756153D01*
X7643921Y-12776670D01*
X7629671Y-12795883D01*
X7613607Y-12813607D01*
X7595883Y-12829671D01*
X7576670Y-12843921D01*
X7556153Y-12856218D01*
X7534529Y-12866446D01*
X7512007Y-12874504D01*
X7488803Y-12880316D01*
X7465142Y-12883826D01*
X7441250Y-12885000D01*
X6528750Y-12885000D01*
X6504858Y-12883826D01*
X6481197Y-12880316D01*
X6457993Y-12874504D01*
X6435471Y-12866446D01*
X6413847Y-12856218D01*
X6393330Y-12843921D01*
X6374117Y-12829671D01*
X6356393Y-12813607D01*
X6340329Y-12795883D01*
X6326079Y-12776670D01*
X6313782Y-12756153D01*
X6303554Y-12734529D01*
X6295496Y-12712007D01*
X6289684Y-12688803D01*
X6286174Y-12665142D01*
X6285000Y-12641250D01*
X6285000Y-12153750D01*
X6286174Y-12129858D01*
X6289684Y-12106197D01*
X6295496Y-12082993D01*
X6303554Y-12060471D01*
X6313782Y-12038847D01*
X6326079Y-12018330D01*
X6340329Y-11999117D01*
X6356393Y-11981393D01*
X6374117Y-11965329D01*
X6393330Y-11951079D01*
X6413847Y-11938782D01*
X6435471Y-11928554D01*
X6457993Y-11920496D01*
X6481197Y-11914684D01*
X6504858Y-11911174D01*
X6528750Y-11910000D01*
X7441250Y-11910000D01*
X7465142Y-11911174D01*
X7465142Y-11911174D01*
G37*
D15*
X6985000Y-12397500D03*
D14*
X35052000Y-19304000D03*
D16*
X35052000Y-14304000D03*
D17*
X3810000Y-2540000D03*
D18*
X1270000Y-2540000D03*
X3810000Y-5080000D03*
X1270000Y-5080000D03*
X3810000Y-7620000D03*
X1270000Y-7620000D03*
X3810000Y-10160000D03*
X1270000Y-10160000D03*
X3810000Y-12700000D03*
X1270000Y-12700000D03*
X3810000Y-15240000D03*
X1270000Y-15240000D03*
X3810000Y-17780000D03*
X1270000Y-17780000D03*
X3810000Y-20320000D03*
X1270000Y-20320000D03*
D11*
G36*
X7465142Y-9976174D02*
G01*
X7488803Y-9979684D01*
X7512007Y-9985496D01*
X7534529Y-9993554D01*
X7556153Y-10003782D01*
X7576670Y-10016079D01*
X7595883Y-10030329D01*
X7613607Y-10046393D01*
X7629671Y-10064117D01*
X7643921Y-10083330D01*
X7656218Y-10103847D01*
X7666446Y-10125471D01*
X7674504Y-10147993D01*
X7680316Y-10171197D01*
X7683826Y-10194858D01*
X7685000Y-10218750D01*
X7685000Y-10706250D01*
X7683826Y-10730142D01*
X7680316Y-10753803D01*
X7674504Y-10777007D01*
X7666446Y-10799529D01*
X7656218Y-10821153D01*
X7643921Y-10841670D01*
X7629671Y-10860883D01*
X7613607Y-10878607D01*
X7595883Y-10894671D01*
X7576670Y-10908921D01*
X7556153Y-10921218D01*
X7534529Y-10931446D01*
X7512007Y-10939504D01*
X7488803Y-10945316D01*
X7465142Y-10948826D01*
X7441250Y-10950000D01*
X6528750Y-10950000D01*
X6504858Y-10948826D01*
X6481197Y-10945316D01*
X6457993Y-10939504D01*
X6435471Y-10931446D01*
X6413847Y-10921218D01*
X6393330Y-10908921D01*
X6374117Y-10894671D01*
X6356393Y-10878607D01*
X6340329Y-10860883D01*
X6326079Y-10841670D01*
X6313782Y-10821153D01*
X6303554Y-10799529D01*
X6295496Y-10777007D01*
X6289684Y-10753803D01*
X6286174Y-10730142D01*
X6285000Y-10706250D01*
X6285000Y-10218750D01*
X6286174Y-10194858D01*
X6289684Y-10171197D01*
X6295496Y-10147993D01*
X6303554Y-10125471D01*
X6313782Y-10103847D01*
X6326079Y-10083330D01*
X6340329Y-10064117D01*
X6356393Y-10046393D01*
X6374117Y-10030329D01*
X6393330Y-10016079D01*
X6413847Y-10003782D01*
X6435471Y-9993554D01*
X6457993Y-9985496D01*
X6481197Y-9979684D01*
X6504858Y-9976174D01*
X6528750Y-9975000D01*
X7441250Y-9975000D01*
X7465142Y-9976174D01*
X7465142Y-9976174D01*
G37*
D15*
X6985000Y-10462500D03*
D11*
G36*
X7465142Y-8101174D02*
G01*
X7488803Y-8104684D01*
X7512007Y-8110496D01*
X7534529Y-8118554D01*
X7556153Y-8128782D01*
X7576670Y-8141079D01*
X7595883Y-8155329D01*
X7613607Y-8171393D01*
X7629671Y-8189117D01*
X7643921Y-8208330D01*
X7656218Y-8228847D01*
X7666446Y-8250471D01*
X7674504Y-8272993D01*
X7680316Y-8296197D01*
X7683826Y-8319858D01*
X7685000Y-8343750D01*
X7685000Y-8831250D01*
X7683826Y-8855142D01*
X7680316Y-8878803D01*
X7674504Y-8902007D01*
X7666446Y-8924529D01*
X7656218Y-8946153D01*
X7643921Y-8966670D01*
X7629671Y-8985883D01*
X7613607Y-9003607D01*
X7595883Y-9019671D01*
X7576670Y-9033921D01*
X7556153Y-9046218D01*
X7534529Y-9056446D01*
X7512007Y-9064504D01*
X7488803Y-9070316D01*
X7465142Y-9073826D01*
X7441250Y-9075000D01*
X6528750Y-9075000D01*
X6504858Y-9073826D01*
X6481197Y-9070316D01*
X6457993Y-9064504D01*
X6435471Y-9056446D01*
X6413847Y-9046218D01*
X6393330Y-9033921D01*
X6374117Y-9019671D01*
X6356393Y-9003607D01*
X6340329Y-8985883D01*
X6326079Y-8966670D01*
X6313782Y-8946153D01*
X6303554Y-8924529D01*
X6295496Y-8902007D01*
X6289684Y-8878803D01*
X6286174Y-8855142D01*
X6285000Y-8831250D01*
X6285000Y-8343750D01*
X6286174Y-8319858D01*
X6289684Y-8296197D01*
X6295496Y-8272993D01*
X6303554Y-8250471D01*
X6313782Y-8228847D01*
X6326079Y-8208330D01*
X6340329Y-8189117D01*
X6356393Y-8171393D01*
X6374117Y-8155329D01*
X6393330Y-8141079D01*
X6413847Y-8128782D01*
X6435471Y-8118554D01*
X6457993Y-8110496D01*
X6481197Y-8104684D01*
X6504858Y-8101174D01*
X6528750Y-8100000D01*
X7441250Y-8100000D01*
X7465142Y-8101174D01*
X7465142Y-8101174D01*
G37*
D15*
X6985000Y-8587500D03*
D19*
X31220000Y-11500000D03*
X29320000Y-11500000D03*
X31630000Y-21340000D03*
X2700000Y-6400000D03*
X2690000Y-8910000D03*
X2730000Y-11430000D03*
X2710000Y-13950000D03*
X2720000Y-16500000D03*
X2720000Y-19050000D03*
X2550000Y-3940000D03*
D20*
X34885000Y-19391000D02*
X35052000Y-19224000D01*
D21*
X1270000Y-7620000D02*
X1480000Y-7620000D01*
X1480000Y-7620000D02*
X2700000Y-6400000D01*
X1270000Y-10160000D02*
X1440000Y-10160000D01*
X1440000Y-10160000D02*
X2690000Y-8910000D01*
X1270000Y-12700000D02*
X1460000Y-12700000D01*
X1460000Y-12700000D02*
X2730000Y-11430000D01*
X1270000Y-15240000D02*
X1420000Y-15240000D01*
X1420000Y-15240000D02*
X2710000Y-13950000D01*
X1270000Y-17780000D02*
X1440000Y-17780000D01*
X1440000Y-17780000D02*
X2720000Y-16500000D01*
X1270000Y-20320000D02*
X1450000Y-20320000D01*
X1450000Y-20320000D02*
X2720000Y-19050000D01*
X6985000Y-10462500D02*
X6985000Y-12397500D01*
X11409000Y-5469000D02*
X11684000Y-5469000D01*
X10309000Y-4369000D02*
X11409000Y-5469000D01*
X10309000Y-4094000D02*
X10309000Y-4369000D01*
X8755000Y-2540000D02*
X10309000Y-4094000D01*
X3810000Y-2540000D02*
X8755000Y-2540000D01*
D22*
X29297000Y-8556000D02*
X29210000Y-8469000D01*
X35052000Y-8556000D02*
X29297000Y-8556000D01*
D23*
X35052000Y-14304000D02*
X35052000Y-8556000D01*
D22*
X30087705Y-19391000D02*
X29210000Y-19391000D01*
X31635010Y-17843695D02*
X30087705Y-19391000D01*
X31635010Y-14892563D02*
X31635010Y-17843695D01*
X32223573Y-14304000D02*
X31635010Y-14892563D01*
X35052000Y-14304000D02*
X32223573Y-14304000D01*
D21*
X27735000Y-8469000D02*
X29210000Y-8469000D01*
X27637500Y-8566500D02*
X27735000Y-8469000D01*
X6985000Y-8587500D02*
X7541237Y-9143737D01*
X7541237Y-9143737D02*
X8613778Y-9143737D01*
X8613778Y-9143737D02*
X10090041Y-10620000D01*
X10090041Y-10620000D02*
X25423964Y-10620000D01*
X25423964Y-10620000D02*
X27456462Y-8587500D01*
X27637500Y-8587500D02*
X27637500Y-8566500D01*
X27456462Y-8587500D02*
X27637500Y-8587500D01*
X14200991Y-8519009D02*
X17251000Y-5469000D01*
X17251000Y-5469000D02*
X17526000Y-5469000D01*
X10958938Y-8519009D02*
X14200991Y-8519009D01*
X7519929Y-5080000D02*
X10958938Y-8519009D01*
X3810000Y-5080000D02*
X7519929Y-5080000D01*
X4659999Y-6770001D02*
X3810000Y-7620000D01*
X8219966Y-6770001D02*
X4659999Y-6770001D01*
X10668985Y-9219020D02*
X8219966Y-6770001D01*
X18242980Y-9219020D02*
X10668985Y-9219020D01*
X21993000Y-5469000D02*
X18242980Y-9219020D01*
X23368000Y-5469000D02*
X21993000Y-5469000D01*
X8516387Y-8056384D02*
X10379032Y-9919030D01*
X3810000Y-10160000D02*
X4659999Y-9310001D01*
X4659999Y-9310001D02*
X4659999Y-9231375D01*
X4659999Y-9231375D02*
X6241384Y-7649990D01*
X6241384Y-7649990D02*
X7728616Y-7649990D01*
X7728616Y-7649990D02*
X8135010Y-8056384D01*
X8135010Y-8056384D02*
X8516387Y-8056384D01*
X24484970Y-9919030D02*
X22799030Y-9919030D01*
X28935000Y-5469000D02*
X24484970Y-9919030D01*
X29210000Y-5469000D02*
X28935000Y-5469000D01*
X10379032Y-9919030D02*
X22799030Y-9919030D01*
X10309000Y-15291000D02*
X11409000Y-16391000D01*
X11409000Y-16391000D02*
X11684000Y-16391000D01*
X6322374Y-15291000D02*
X10309000Y-15291000D01*
X4659999Y-13628625D02*
X6322374Y-15291000D01*
X4659999Y-13549999D02*
X4659999Y-13628625D01*
X3810000Y-12700000D02*
X4659999Y-13549999D01*
X3810000Y-15240000D02*
X5649989Y-17079989D01*
X14200990Y-19441010D02*
X17251000Y-16391000D01*
X17251000Y-16391000D02*
X17526000Y-16391000D01*
X10671025Y-19441010D02*
X14200990Y-19441010D01*
X8310004Y-17079989D02*
X10671025Y-19441010D01*
X5649989Y-17079989D02*
X8310004Y-17079989D01*
X23093000Y-16391000D02*
X23368000Y-16391000D01*
X19342980Y-20141020D02*
X23093000Y-16391000D01*
X10381072Y-20141020D02*
X19342980Y-20141020D01*
X8020053Y-17780000D02*
X10381072Y-20141020D01*
X3810000Y-17780000D02*
X8020053Y-17780000D01*
X19632933Y-20841030D02*
X19953963Y-20520000D01*
X5533111Y-20841030D02*
X19632933Y-20841030D01*
X3810000Y-20320000D02*
X5012081Y-20320000D01*
X5012081Y-20320000D02*
X5533111Y-20841030D01*
X28935000Y-16391000D02*
X29210000Y-16391000D01*
X24806000Y-20520000D02*
X28935000Y-16391000D01*
X19953963Y-20520000D02*
X24806000Y-20520000D01*
D24*
G36*
X41633912Y-938550D02*
G01*
X42147487Y-1093607D01*
X42621164Y-1345465D01*
X43036900Y-1684531D01*
X43378860Y-2097889D01*
X43634017Y-2569794D01*
X43792658Y-3082278D01*
X43848734Y-3615813D01*
X43800113Y-4150075D01*
X43648644Y-4664720D01*
X43400099Y-5140141D01*
X43063945Y-5558234D01*
X42652981Y-5903073D01*
X42182866Y-6161521D01*
X41671505Y-6323734D01*
X41127042Y-6384805D01*
X41099118Y-6385000D01*
X38112275Y-6385000D01*
X38100000Y-6383791D01*
X38087725Y-6385000D01*
X38050992Y-6388618D01*
X38003866Y-6402913D01*
X37960436Y-6426127D01*
X37922368Y-6457368D01*
X37891127Y-6495436D01*
X37867913Y-6538866D01*
X37853618Y-6585992D01*
X37848791Y-6635000D01*
X37850000Y-6647275D01*
X37850001Y-16212715D01*
X37848791Y-16225000D01*
X37853618Y-16274008D01*
X37867913Y-16321134D01*
X37891127Y-16364564D01*
X37922368Y-16402632D01*
X37960436Y-16433873D01*
X38003866Y-16457087D01*
X38050992Y-16471382D01*
X38087725Y-16475000D01*
X38100000Y-16476209D01*
X38112275Y-16475000D01*
X41087771Y-16475000D01*
X41633912Y-16528550D01*
X42147487Y-16683607D01*
X42621164Y-16935465D01*
X43036900Y-17274531D01*
X43378860Y-17687889D01*
X43634017Y-18159794D01*
X43792658Y-18672278D01*
X43848734Y-19205813D01*
X43800113Y-19740075D01*
X43648644Y-20254720D01*
X43400099Y-20730141D01*
X43063945Y-21148234D01*
X42652981Y-21493073D01*
X42182866Y-21751521D01*
X41671505Y-21913734D01*
X41127042Y-21974805D01*
X41099118Y-21975000D01*
X-2987771Y-21975000D01*
X-3533912Y-21921450D01*
X-4047487Y-21766393D01*
X-4521163Y-21514535D01*
X-4936900Y-21175469D01*
X-5278860Y-20762111D01*
X-5534017Y-20290206D01*
X-5692659Y-19777719D01*
X-5748735Y-19244192D01*
X-5731079Y-19050178D01*
X-4775000Y-19050178D01*
X-4775000Y-19399822D01*
X-4706787Y-19742748D01*
X-4572984Y-20065778D01*
X-4378732Y-20356496D01*
X-4131496Y-20603732D01*
X-3840778Y-20797984D01*
X-3517748Y-20931787D01*
X-3174822Y-21000000D01*
X-2825178Y-21000000D01*
X-2482252Y-20931787D01*
X-2159222Y-20797984D01*
X-2033647Y-20714077D01*
X-99427Y-20714077D01*
X-87581Y-20753153D01*
X23009Y-21009681D01*
X181520Y-21239705D01*
X381860Y-21434385D01*
X616331Y-21586240D01*
X875922Y-21689434D01*
X1095000Y-21590471D01*
X1095000Y-20495000D01*
X757Y-20495000D01*
X-99427Y-20714077D01*
X-2033647Y-20714077D01*
X-1868504Y-20603732D01*
X-1621268Y-20356496D01*
X-1427016Y-20065778D01*
X-1293213Y-19742748D01*
X-1225000Y-19399822D01*
X-1225000Y-19050178D01*
X-1293213Y-18707252D01*
X-1427016Y-18384222D01*
X-1567430Y-18174077D01*
X-99427Y-18174077D01*
X-87581Y-18213153D01*
X23009Y-18469681D01*
X181520Y-18699705D01*
X381860Y-18894385D01*
X616331Y-19046240D01*
X625790Y-19050000D01*
X616331Y-19053760D01*
X381860Y-19205615D01*
X181520Y-19400295D01*
X23009Y-19630319D01*
X-87581Y-19886847D01*
X-99427Y-19925923D01*
X757Y-20145000D01*
X1095000Y-20145000D01*
X1095000Y-17955000D01*
X757Y-17955000D01*
X-99427Y-18174077D01*
X-1567430Y-18174077D01*
X-1621268Y-18093504D01*
X-1868504Y-17846268D01*
X-2159222Y-17652016D01*
X-2482252Y-17518213D01*
X-2825178Y-17450000D01*
X-3174822Y-17450000D01*
X-3517748Y-17518213D01*
X-3840778Y-17652016D01*
X-4131496Y-17846268D01*
X-4378732Y-18093504D01*
X-4572984Y-18384222D01*
X-4706787Y-18707252D01*
X-4775000Y-19050178D01*
X-5731079Y-19050178D01*
X-5700113Y-18709928D01*
X-5548644Y-18195279D01*
X-5300098Y-17719855D01*
X-4963945Y-17301766D01*
X-4552984Y-16956929D01*
X-4082870Y-16698481D01*
X-3571505Y-16536266D01*
X-3027042Y-16475195D01*
X-2999118Y-16475000D01*
X-12275Y-16475000D01*
X0Y-16476209D01*
X12275Y-16475000D01*
X49008Y-16471382D01*
X96134Y-16457087D01*
X139564Y-16433873D01*
X177632Y-16402632D01*
X208873Y-16364564D01*
X232087Y-16321134D01*
X246382Y-16274008D01*
X250991Y-16227213D01*
X381860Y-16354385D01*
X616331Y-16506240D01*
X625790Y-16510000D01*
X616331Y-16513760D01*
X381860Y-16665615D01*
X181520Y-16860295D01*
X23009Y-17090319D01*
X-87581Y-17346847D01*
X-99427Y-17385923D01*
X757Y-17605000D01*
X1095000Y-17605000D01*
X1095000Y-15415000D01*
X1075000Y-15415000D01*
X1075000Y-15065000D01*
X1095000Y-15065000D01*
X1095000Y-12875000D01*
X1075000Y-12875000D01*
X1075000Y-12525000D01*
X1095000Y-12525000D01*
X1095000Y-10335000D01*
X1075000Y-10335000D01*
X1075000Y-9985000D01*
X1095000Y-9985000D01*
X1095000Y-7795000D01*
X1075000Y-7795000D01*
X1075000Y-7445000D01*
X1095000Y-7445000D01*
X1095000Y-5255000D01*
X757Y-5255000D01*
X-99427Y-5474077D01*
X-87581Y-5513153D01*
X23009Y-5769681D01*
X181520Y-5999705D01*
X381860Y-6194385D01*
X616331Y-6346240D01*
X625790Y-6350000D01*
X616331Y-6353760D01*
X381860Y-6505615D01*
X250991Y-6632787D01*
X246382Y-6585992D01*
X232087Y-6538866D01*
X208873Y-6495436D01*
X177632Y-6457368D01*
X139564Y-6426127D01*
X96134Y-6402913D01*
X49008Y-6388618D01*
X12275Y-6385000D01*
X0Y-6383791D01*
X-12275Y-6385000D01*
X-2987771Y-6385000D01*
X-3533912Y-6331450D01*
X-4047487Y-6176393D01*
X-4521163Y-5924535D01*
X-4936900Y-5585469D01*
X-5278860Y-5172111D01*
X-5534017Y-4700206D01*
X-5692659Y-4187719D01*
X-5748735Y-3654192D01*
X-5731079Y-3460178D01*
X-4775000Y-3460178D01*
X-4775000Y-3809822D01*
X-4706787Y-4152748D01*
X-4572984Y-4475778D01*
X-4378732Y-4766496D01*
X-4131496Y-5013732D01*
X-3840778Y-5207984D01*
X-3517748Y-5341787D01*
X-3174822Y-5410000D01*
X-2825178Y-5410000D01*
X-2482252Y-5341787D01*
X-2159222Y-5207984D01*
X-1868504Y-5013732D01*
X-1621268Y-4766496D01*
X-1427016Y-4475778D01*
X-1293213Y-4152748D01*
X-1225000Y-3809822D01*
X-1225000Y-3460178D01*
X-1293213Y-3117252D01*
X-1369086Y-2934077D01*
X-99427Y-2934077D01*
X-87581Y-2973153D01*
X23009Y-3229681D01*
X181520Y-3459705D01*
X381860Y-3654385D01*
X616331Y-3806240D01*
X625790Y-3810000D01*
X616331Y-3813760D01*
X381860Y-3965615D01*
X181520Y-4160295D01*
X23009Y-4390319D01*
X-87581Y-4646847D01*
X-99427Y-4685923D01*
X757Y-4905000D01*
X1095000Y-4905000D01*
X1095000Y-2715000D01*
X757Y-2715000D01*
X-99427Y-2934077D01*
X-1369086Y-2934077D01*
X-1427016Y-2794222D01*
X-1621268Y-2503504D01*
X-1868504Y-2256268D01*
X-2033646Y-2145923D01*
X-99427Y-2145923D01*
X757Y-2365000D01*
X1095000Y-2365000D01*
X1095000Y-1269529D01*
X1445000Y-1269529D01*
X1445000Y-2365000D01*
X1465000Y-2365000D01*
X1465000Y-2715000D01*
X1445000Y-2715000D01*
X1445000Y-4905000D01*
X1465000Y-4905000D01*
X1465000Y-5255000D01*
X1445000Y-5255000D01*
X1445000Y-7445000D01*
X1465000Y-7445000D01*
X1465000Y-7795000D01*
X1445000Y-7795000D01*
X1445000Y-9985000D01*
X1465000Y-9985000D01*
X1465000Y-10335000D01*
X1445000Y-10335000D01*
X1445000Y-12525000D01*
X1465000Y-12525000D01*
X1465000Y-12875000D01*
X1445000Y-12875000D01*
X1445000Y-15065000D01*
X1465000Y-15065000D01*
X1465000Y-15415000D01*
X1445000Y-15415000D01*
X1445000Y-17605000D01*
X1465000Y-17605000D01*
X1465000Y-17955000D01*
X1445000Y-17955000D01*
X1445000Y-20145000D01*
X1465000Y-20145000D01*
X1465000Y-20495000D01*
X1445000Y-20495000D01*
X1445000Y-21590471D01*
X1664078Y-21689434D01*
X1923669Y-21586240D01*
X2158140Y-21434385D01*
X2358480Y-21239705D01*
X2516991Y-21009681D01*
X2627581Y-20753153D01*
X2639427Y-20714077D01*
X2539244Y-20495002D01*
X2695000Y-20495002D01*
X2695000Y-20476796D01*
X2701278Y-20540538D01*
X2765607Y-20752602D01*
X2870071Y-20948040D01*
X3010656Y-21119344D01*
X3181960Y-21259929D01*
X3377398Y-21364393D01*
X3589462Y-21428722D01*
X3754736Y-21445000D01*
X3865264Y-21445000D01*
X4030538Y-21428722D01*
X4242602Y-21364393D01*
X4438040Y-21259929D01*
X4609344Y-21119344D01*
X4749929Y-20948040D01*
X4801388Y-20851768D01*
X5143644Y-21194025D01*
X5160084Y-21214057D01*
X5240025Y-21279663D01*
X5274066Y-21297858D01*
X5331230Y-21328413D01*
X5430193Y-21358433D01*
X5533111Y-21368570D01*
X5558899Y-21366030D01*
X19607153Y-21366030D01*
X19632933Y-21368569D01*
X19658713Y-21366030D01*
X19658721Y-21366030D01*
X19735851Y-21358433D01*
X19834814Y-21328413D01*
X19926019Y-21279663D01*
X20005960Y-21214057D01*
X20014213Y-21204000D01*
X32574218Y-21204000D01*
X32585320Y-21316720D01*
X32618199Y-21425108D01*
X32671592Y-21524998D01*
X32743446Y-21612554D01*
X32831002Y-21684408D01*
X32930892Y-21737801D01*
X33039280Y-21770680D01*
X33152000Y-21781782D01*
X34733250Y-21779000D01*
X34877000Y-21635250D01*
X34877000Y-19479000D01*
X35227000Y-19479000D01*
X35227000Y-21635250D01*
X35370750Y-21779000D01*
X36952000Y-21781782D01*
X37064720Y-21770680D01*
X37173108Y-21737801D01*
X37272998Y-21684408D01*
X37360554Y-21612554D01*
X37432408Y-21524998D01*
X37485801Y-21425108D01*
X37518680Y-21316720D01*
X37529782Y-21204000D01*
X37527000Y-19622750D01*
X37383250Y-19479000D01*
X35227000Y-19479000D01*
X34877000Y-19479000D01*
X32720750Y-19479000D01*
X32577000Y-19622750D01*
X32574218Y-21204000D01*
X20014213Y-21204000D01*
X20022404Y-21194020D01*
X20171424Y-21045000D01*
X24780220Y-21045000D01*
X24806000Y-21047539D01*
X24831780Y-21045000D01*
X24831788Y-21045000D01*
X24908918Y-21037403D01*
X25007881Y-21007383D01*
X25099086Y-20958633D01*
X25179027Y-20893027D01*
X25195471Y-20872990D01*
X28810493Y-17257970D01*
X28892021Y-17266000D01*
X29527979Y-17266000D01*
X29656530Y-17253339D01*
X29821468Y-17203305D01*
X29973476Y-17122056D01*
X30106712Y-17012712D01*
X30110011Y-17008693D01*
X30110011Y-17212019D01*
X29761520Y-17560510D01*
X29656530Y-17528661D01*
X29527979Y-17516000D01*
X28892021Y-17516000D01*
X28763470Y-17528661D01*
X28598532Y-17578695D01*
X28446524Y-17659944D01*
X28313288Y-17769288D01*
X28203944Y-17902524D01*
X28122695Y-18054532D01*
X28072661Y-18219470D01*
X28055767Y-18391000D01*
X28055993Y-18393291D01*
X27935874Y-18539656D01*
X27794267Y-18804584D01*
X27707066Y-19092048D01*
X27677622Y-19391000D01*
X27707066Y-19689952D01*
X27794267Y-19977416D01*
X27935874Y-20242344D01*
X28126445Y-20474555D01*
X28358656Y-20665126D01*
X28623584Y-20806733D01*
X28911048Y-20893934D01*
X29135089Y-20916000D01*
X30012794Y-20916000D01*
X30087705Y-20923378D01*
X30386657Y-20893934D01*
X30444304Y-20876447D01*
X30674121Y-20806733D01*
X30939049Y-20665126D01*
X31171260Y-20474555D01*
X31219021Y-20416358D01*
X32613565Y-19021815D01*
X32720750Y-19129000D01*
X34877000Y-19129000D01*
X34877000Y-19109000D01*
X35227000Y-19109000D01*
X35227000Y-19129000D01*
X37383250Y-19129000D01*
X37462072Y-19050178D01*
X39325000Y-19050178D01*
X39325000Y-19399822D01*
X39393213Y-19742748D01*
X39527016Y-20065778D01*
X39721268Y-20356496D01*
X39968504Y-20603732D01*
X40259222Y-20797984D01*
X40582252Y-20931787D01*
X40925178Y-21000000D01*
X41274822Y-21000000D01*
X41617748Y-20931787D01*
X41940778Y-20797984D01*
X42231496Y-20603732D01*
X42478732Y-20356496D01*
X42672984Y-20065778D01*
X42806787Y-19742748D01*
X42875000Y-19399822D01*
X42875000Y-19050178D01*
X42806787Y-18707252D01*
X42672984Y-18384222D01*
X42478732Y-18093504D01*
X42231496Y-17846268D01*
X41940778Y-17652016D01*
X41617748Y-17518213D01*
X41274822Y-17450000D01*
X40925178Y-17450000D01*
X40582252Y-17518213D01*
X40259222Y-17652016D01*
X39968504Y-17846268D01*
X39721268Y-18093504D01*
X39527016Y-18384222D01*
X39393213Y-18707252D01*
X39325000Y-19050178D01*
X37462072Y-19050178D01*
X37527000Y-18985250D01*
X37529782Y-17404000D01*
X37518680Y-17291280D01*
X37485801Y-17182892D01*
X37432408Y-17083002D01*
X37360554Y-16995446D01*
X37272998Y-16923592D01*
X37173108Y-16870199D01*
X37064720Y-16837320D01*
X36952000Y-16826218D01*
X36217605Y-16827510D01*
X36601166Y-16622492D01*
X37023715Y-16275716D01*
X37370492Y-15853167D01*
X37628171Y-15371085D01*
X37786848Y-14847995D01*
X37827000Y-14440326D01*
X37827000Y-8419674D01*
X37786848Y-8012005D01*
X37628171Y-7488915D01*
X37370492Y-7006833D01*
X37023716Y-6584284D01*
X36601167Y-6237508D01*
X36217606Y-6032490D01*
X36952000Y-6033782D01*
X37064720Y-6022680D01*
X37173108Y-5989801D01*
X37272998Y-5936408D01*
X37360554Y-5864554D01*
X37432408Y-5776998D01*
X37485801Y-5677108D01*
X37518680Y-5568720D01*
X37529782Y-5456000D01*
X37527000Y-3874750D01*
X37383250Y-3731000D01*
X35227000Y-3731000D01*
X35227000Y-3751000D01*
X34877000Y-3751000D01*
X34877000Y-3731000D01*
X32720750Y-3731000D01*
X32577000Y-3874750D01*
X32574218Y-5456000D01*
X32585320Y-5568720D01*
X32618199Y-5677108D01*
X32671592Y-5776998D01*
X32743446Y-5864554D01*
X32831002Y-5936408D01*
X32930892Y-5989801D01*
X33039280Y-6022680D01*
X33152000Y-6033782D01*
X33886395Y-6032490D01*
X33502834Y-6237508D01*
X33080285Y-6584284D01*
X32733509Y-7006833D01*
X32720591Y-7031000D01*
X30243036Y-7031000D01*
X30216056Y-6980524D01*
X30106712Y-6847288D01*
X29973476Y-6737944D01*
X29821468Y-6656695D01*
X29656530Y-6606661D01*
X29527979Y-6594000D01*
X28892021Y-6594000D01*
X28763470Y-6606661D01*
X28598532Y-6656695D01*
X28446524Y-6737944D01*
X28313288Y-6847288D01*
X28203944Y-6980524D01*
X28122695Y-7132532D01*
X28072661Y-7297470D01*
X28055767Y-7469000D01*
X28055993Y-7471293D01*
X27935875Y-7617657D01*
X27794267Y-7882585D01*
X27775637Y-7944000D01*
X27760780Y-7944000D01*
X27735000Y-7941461D01*
X27709220Y-7944000D01*
X27709212Y-7944000D01*
X27632082Y-7951597D01*
X27533119Y-7981617D01*
X27441914Y-8030367D01*
X27398953Y-8065624D01*
X27353544Y-8070097D01*
X27254581Y-8100117D01*
X27163376Y-8148867D01*
X27103465Y-8198034D01*
X27103461Y-8198038D01*
X27083435Y-8214473D01*
X27067000Y-8234499D01*
X25206503Y-10095000D01*
X25051461Y-10095000D01*
X28810493Y-6335970D01*
X28892021Y-6344000D01*
X29527979Y-6344000D01*
X29656530Y-6331339D01*
X29821468Y-6281305D01*
X29973476Y-6200056D01*
X30106712Y-6090712D01*
X30216056Y-5957476D01*
X30297305Y-5805468D01*
X30347339Y-5640530D01*
X30364233Y-5469000D01*
X30347339Y-5297470D01*
X30297305Y-5132532D01*
X30216056Y-4980524D01*
X30106712Y-4847288D01*
X29973476Y-4737944D01*
X29821468Y-4656695D01*
X29783824Y-4645276D01*
X30085000Y-4646782D01*
X30197720Y-4635680D01*
X30306108Y-4602801D01*
X30405998Y-4549408D01*
X30493554Y-4477554D01*
X30565408Y-4389998D01*
X30618801Y-4290108D01*
X30651680Y-4181720D01*
X30662782Y-4069000D01*
X30660000Y-3787750D01*
X30516250Y-3644000D01*
X29385000Y-3644000D01*
X29385000Y-3664000D01*
X29035000Y-3664000D01*
X29035000Y-3644000D01*
X27903750Y-3644000D01*
X27760000Y-3787750D01*
X27757218Y-4069000D01*
X27768320Y-4181720D01*
X27801199Y-4290108D01*
X27854592Y-4389998D01*
X27926446Y-4477554D01*
X28014002Y-4549408D01*
X28113892Y-4602801D01*
X28222280Y-4635680D01*
X28335000Y-4646782D01*
X28636176Y-4645276D01*
X28598532Y-4656695D01*
X28446524Y-4737944D01*
X28313288Y-4847288D01*
X28203944Y-4980524D01*
X28122695Y-5132532D01*
X28072661Y-5297470D01*
X28055767Y-5469000D01*
X28068030Y-5593507D01*
X24267509Y-9394030D01*
X18810431Y-9394030D01*
X20735461Y-7469000D01*
X22213767Y-7469000D01*
X22230661Y-7640530D01*
X22280695Y-7805468D01*
X22361944Y-7957476D01*
X22471288Y-8090712D01*
X22604524Y-8200056D01*
X22756532Y-8281305D01*
X22921470Y-8331339D01*
X23050021Y-8344000D01*
X23685979Y-8344000D01*
X23814530Y-8331339D01*
X23979468Y-8281305D01*
X24131476Y-8200056D01*
X24264712Y-8090712D01*
X24374056Y-7957476D01*
X24455305Y-7805468D01*
X24505339Y-7640530D01*
X24522233Y-7469000D01*
X24505339Y-7297470D01*
X24455305Y-7132532D01*
X24374056Y-6980524D01*
X24264712Y-6847288D01*
X24131476Y-6737944D01*
X23979468Y-6656695D01*
X23814530Y-6606661D01*
X23685979Y-6594000D01*
X23050021Y-6594000D01*
X22921470Y-6606661D01*
X22756532Y-6656695D01*
X22604524Y-6737944D01*
X22471288Y-6847288D01*
X22361944Y-6980524D01*
X22280695Y-7132532D01*
X22230661Y-7297470D01*
X22213767Y-7469000D01*
X20735461Y-7469000D01*
X22210462Y-5994000D01*
X22391918Y-5994000D01*
X22471288Y-6090712D01*
X22604524Y-6200056D01*
X22756532Y-6281305D01*
X22921470Y-6331339D01*
X23050021Y-6344000D01*
X23685979Y-6344000D01*
X23814530Y-6331339D01*
X23979468Y-6281305D01*
X24131476Y-6200056D01*
X24264712Y-6090712D01*
X24374056Y-5957476D01*
X24455305Y-5805468D01*
X24505339Y-5640530D01*
X24522233Y-5469000D01*
X24505339Y-5297470D01*
X24455305Y-5132532D01*
X24374056Y-4980524D01*
X24264712Y-4847288D01*
X24131476Y-4737944D01*
X23979468Y-4656695D01*
X23941824Y-4645276D01*
X24243000Y-4646782D01*
X24355720Y-4635680D01*
X24464108Y-4602801D01*
X24563998Y-4549408D01*
X24651554Y-4477554D01*
X24723408Y-4389998D01*
X24776801Y-4290108D01*
X24809680Y-4181720D01*
X24820782Y-4069000D01*
X24818000Y-3787750D01*
X24674250Y-3644000D01*
X23543000Y-3644000D01*
X23543000Y-3664000D01*
X23193000Y-3664000D01*
X23193000Y-3644000D01*
X22061750Y-3644000D01*
X21918000Y-3787750D01*
X21915218Y-4069000D01*
X21926320Y-4181720D01*
X21959199Y-4290108D01*
X22012592Y-4389998D01*
X22084446Y-4477554D01*
X22172002Y-4549408D01*
X22271892Y-4602801D01*
X22380280Y-4635680D01*
X22493000Y-4646782D01*
X22794176Y-4645276D01*
X22756532Y-4656695D01*
X22604524Y-4737944D01*
X22471288Y-4847288D01*
X22391918Y-4944000D01*
X22018779Y-4944000D01*
X21992999Y-4941461D01*
X21967219Y-4944000D01*
X21967212Y-4944000D01*
X21890082Y-4951597D01*
X21791119Y-4981617D01*
X21699914Y-5030367D01*
X21619973Y-5095973D01*
X21603535Y-5116003D01*
X18025519Y-8694020D01*
X14768441Y-8694020D01*
X15993461Y-7469000D01*
X16371767Y-7469000D01*
X16388661Y-7640530D01*
X16438695Y-7805468D01*
X16519944Y-7957476D01*
X16629288Y-8090712D01*
X16762524Y-8200056D01*
X16914532Y-8281305D01*
X17079470Y-8331339D01*
X17208021Y-8344000D01*
X17843979Y-8344000D01*
X17972530Y-8331339D01*
X18137468Y-8281305D01*
X18289476Y-8200056D01*
X18422712Y-8090712D01*
X18532056Y-7957476D01*
X18613305Y-7805468D01*
X18663339Y-7640530D01*
X18680233Y-7469000D01*
X18663339Y-7297470D01*
X18613305Y-7132532D01*
X18532056Y-6980524D01*
X18422712Y-6847288D01*
X18289476Y-6737944D01*
X18137468Y-6656695D01*
X17972530Y-6606661D01*
X17843979Y-6594000D01*
X17208021Y-6594000D01*
X17079470Y-6606661D01*
X16914532Y-6656695D01*
X16762524Y-6737944D01*
X16629288Y-6847288D01*
X16519944Y-6980524D01*
X16438695Y-7132532D01*
X16388661Y-7297470D01*
X16371767Y-7469000D01*
X15993461Y-7469000D01*
X17126492Y-6335970D01*
X17208021Y-6344000D01*
X17843979Y-6344000D01*
X17972530Y-6331339D01*
X18137468Y-6281305D01*
X18289476Y-6200056D01*
X18422712Y-6090712D01*
X18532056Y-5957476D01*
X18613305Y-5805468D01*
X18663339Y-5640530D01*
X18680233Y-5469000D01*
X18663339Y-5297470D01*
X18613305Y-5132532D01*
X18532056Y-4980524D01*
X18422712Y-4847288D01*
X18289476Y-4737944D01*
X18137468Y-4656695D01*
X18099824Y-4645276D01*
X18401000Y-4646782D01*
X18513720Y-4635680D01*
X18622108Y-4602801D01*
X18721998Y-4549408D01*
X18809554Y-4477554D01*
X18881408Y-4389998D01*
X18934801Y-4290108D01*
X18967680Y-4181720D01*
X18978782Y-4069000D01*
X18976000Y-3787750D01*
X18832250Y-3644000D01*
X17701000Y-3644000D01*
X17701000Y-3664000D01*
X17351000Y-3664000D01*
X17351000Y-3644000D01*
X16219750Y-3644000D01*
X16076000Y-3787750D01*
X16073218Y-4069000D01*
X16084320Y-4181720D01*
X16117199Y-4290108D01*
X16170592Y-4389998D01*
X16242446Y-4477554D01*
X16330002Y-4549408D01*
X16429892Y-4602801D01*
X16538280Y-4635680D01*
X16651000Y-4646782D01*
X16952176Y-4645276D01*
X16914532Y-4656695D01*
X16762524Y-4737944D01*
X16629288Y-4847288D01*
X16519944Y-4980524D01*
X16438695Y-5132532D01*
X16388661Y-5297470D01*
X16371767Y-5469000D01*
X16384030Y-5593508D01*
X13983530Y-7994009D01*
X12660074Y-7994009D01*
X12690056Y-7957476D01*
X12771305Y-7805468D01*
X12821339Y-7640530D01*
X12838233Y-7469000D01*
X12821339Y-7297470D01*
X12771305Y-7132532D01*
X12690056Y-6980524D01*
X12580712Y-6847288D01*
X12447476Y-6737944D01*
X12295468Y-6656695D01*
X12130530Y-6606661D01*
X12001979Y-6594000D01*
X11366021Y-6594000D01*
X11237470Y-6606661D01*
X11072532Y-6656695D01*
X10920524Y-6737944D01*
X10787288Y-6847288D01*
X10677944Y-6980524D01*
X10596695Y-7132532D01*
X10546661Y-7297470D01*
X10540672Y-7358281D01*
X7909400Y-4727010D01*
X7892956Y-4706973D01*
X7813015Y-4641367D01*
X7721810Y-4592617D01*
X7622847Y-4562597D01*
X7545717Y-4555000D01*
X7545709Y-4555000D01*
X7519929Y-4552461D01*
X7494149Y-4555000D01*
X4805005Y-4555000D01*
X4749929Y-4451960D01*
X4609344Y-4280656D01*
X4438040Y-4140071D01*
X4242602Y-4035607D01*
X4030538Y-3971278D01*
X3865264Y-3955000D01*
X3754736Y-3955000D01*
X3589462Y-3971278D01*
X3377398Y-4035607D01*
X3181960Y-4140071D01*
X3010656Y-4280656D01*
X2870071Y-4451960D01*
X2765607Y-4647398D01*
X2701278Y-4859462D01*
X2695000Y-4923204D01*
X2695000Y-4904998D01*
X2539244Y-4904998D01*
X2639427Y-4685923D01*
X2627581Y-4646847D01*
X2516991Y-4390319D01*
X2358480Y-4160295D01*
X2158140Y-3965615D01*
X1923669Y-3813760D01*
X1914210Y-3810000D01*
X1923669Y-3806240D01*
X2158140Y-3654385D01*
X2358480Y-3459705D01*
X2516991Y-3229681D01*
X2627581Y-2973153D01*
X2639427Y-2934077D01*
X2539244Y-2715002D01*
X2683670Y-2715002D01*
X2683670Y-3390000D01*
X2688980Y-3443909D01*
X2704704Y-3495747D01*
X2730240Y-3543521D01*
X2764605Y-3585395D01*
X2806479Y-3619760D01*
X2854253Y-3645296D01*
X2906091Y-3661020D01*
X2960000Y-3666330D01*
X4660000Y-3666330D01*
X4713909Y-3661020D01*
X4765747Y-3645296D01*
X4813521Y-3619760D01*
X4855395Y-3585395D01*
X4889760Y-3543521D01*
X4915296Y-3495747D01*
X4931020Y-3443909D01*
X4936330Y-3390000D01*
X4936330Y-3065000D01*
X8537539Y-3065000D01*
X9784000Y-4311463D01*
X9784000Y-4343220D01*
X9781461Y-4369000D01*
X9784000Y-4394780D01*
X9784000Y-4394788D01*
X9789631Y-4451960D01*
X9791597Y-4471917D01*
X9821617Y-4570880D01*
X9870367Y-4662085D01*
X9907206Y-4706973D01*
X9935974Y-4742027D01*
X9956005Y-4758466D01*
X10542030Y-5344491D01*
X10529767Y-5469000D01*
X10546661Y-5640530D01*
X10596695Y-5805468D01*
X10677944Y-5957476D01*
X10787288Y-6090712D01*
X10920524Y-6200056D01*
X11072532Y-6281305D01*
X11237470Y-6331339D01*
X11366021Y-6344000D01*
X12001979Y-6344000D01*
X12130530Y-6331339D01*
X12295468Y-6281305D01*
X12447476Y-6200056D01*
X12580712Y-6090712D01*
X12690056Y-5957476D01*
X12771305Y-5805468D01*
X12821339Y-5640530D01*
X12838233Y-5469000D01*
X12821339Y-5297470D01*
X12771305Y-5132532D01*
X12690056Y-4980524D01*
X12580712Y-4847288D01*
X12447476Y-4737944D01*
X12295468Y-4656695D01*
X12257824Y-4645276D01*
X12559000Y-4646782D01*
X12671720Y-4635680D01*
X12780108Y-4602801D01*
X12879998Y-4549408D01*
X12967554Y-4477554D01*
X13039408Y-4389998D01*
X13092801Y-4290108D01*
X13125680Y-4181720D01*
X13136782Y-4069000D01*
X13134000Y-3787750D01*
X12990250Y-3644000D01*
X11859000Y-3644000D01*
X11859000Y-3664000D01*
X11509000Y-3664000D01*
X11509000Y-3644000D01*
X11489000Y-3644000D01*
X11489000Y-3460178D01*
X39325000Y-3460178D01*
X39325000Y-3809822D01*
X39393213Y-4152748D01*
X39527016Y-4475778D01*
X39721268Y-4766496D01*
X39968504Y-5013732D01*
X40259222Y-5207984D01*
X40582252Y-5341787D01*
X40925178Y-5410000D01*
X41274822Y-5410000D01*
X41617748Y-5341787D01*
X41940778Y-5207984D01*
X42231496Y-5013732D01*
X42478732Y-4766496D01*
X42672984Y-4475778D01*
X42806787Y-4152748D01*
X42875000Y-3809822D01*
X42875000Y-3460178D01*
X42806787Y-3117252D01*
X42672984Y-2794222D01*
X42478732Y-2503504D01*
X42231496Y-2256268D01*
X41940778Y-2062016D01*
X41617748Y-1928213D01*
X41274822Y-1860000D01*
X40925178Y-1860000D01*
X40582252Y-1928213D01*
X40259222Y-2062016D01*
X39968504Y-2256268D01*
X39721268Y-2503504D01*
X39527016Y-2794222D01*
X39393213Y-3117252D01*
X39325000Y-3460178D01*
X11489000Y-3460178D01*
X11489000Y-3294000D01*
X11509000Y-3294000D01*
X11509000Y-2437750D01*
X11859000Y-2437750D01*
X11859000Y-3294000D01*
X12990250Y-3294000D01*
X13134000Y-3150250D01*
X13136782Y-2869000D01*
X16073218Y-2869000D01*
X16076000Y-3150250D01*
X16219750Y-3294000D01*
X17351000Y-3294000D01*
X17351000Y-2437750D01*
X17701000Y-2437750D01*
X17701000Y-3294000D01*
X18832250Y-3294000D01*
X18976000Y-3150250D01*
X18978782Y-2869000D01*
X21915218Y-2869000D01*
X21918000Y-3150250D01*
X22061750Y-3294000D01*
X23193000Y-3294000D01*
X23193000Y-2437750D01*
X23543000Y-2437750D01*
X23543000Y-3294000D01*
X24674250Y-3294000D01*
X24818000Y-3150250D01*
X24820782Y-2869000D01*
X27757218Y-2869000D01*
X27760000Y-3150250D01*
X27903750Y-3294000D01*
X29035000Y-3294000D01*
X29035000Y-2437750D01*
X29385000Y-2437750D01*
X29385000Y-3294000D01*
X30516250Y-3294000D01*
X30660000Y-3150250D01*
X30662782Y-2869000D01*
X30651680Y-2756280D01*
X30618801Y-2647892D01*
X30565408Y-2548002D01*
X30493554Y-2460446D01*
X30405998Y-2388592D01*
X30306108Y-2335199D01*
X30197720Y-2302320D01*
X30085000Y-2291218D01*
X29528750Y-2294000D01*
X29385000Y-2437750D01*
X29035000Y-2437750D01*
X28891250Y-2294000D01*
X28335000Y-2291218D01*
X28222280Y-2302320D01*
X28113892Y-2335199D01*
X28014002Y-2388592D01*
X27926446Y-2460446D01*
X27854592Y-2548002D01*
X27801199Y-2647892D01*
X27768320Y-2756280D01*
X27757218Y-2869000D01*
X24820782Y-2869000D01*
X24809680Y-2756280D01*
X24776801Y-2647892D01*
X24723408Y-2548002D01*
X24651554Y-2460446D01*
X24563998Y-2388592D01*
X24464108Y-2335199D01*
X24355720Y-2302320D01*
X24243000Y-2291218D01*
X23686750Y-2294000D01*
X23543000Y-2437750D01*
X23193000Y-2437750D01*
X23049250Y-2294000D01*
X22493000Y-2291218D01*
X22380280Y-2302320D01*
X22271892Y-2335199D01*
X22172002Y-2388592D01*
X22084446Y-2460446D01*
X22012592Y-2548002D01*
X21959199Y-2647892D01*
X21926320Y-2756280D01*
X21915218Y-2869000D01*
X18978782Y-2869000D01*
X18967680Y-2756280D01*
X18934801Y-2647892D01*
X18881408Y-2548002D01*
X18809554Y-2460446D01*
X18721998Y-2388592D01*
X18622108Y-2335199D01*
X18513720Y-2302320D01*
X18401000Y-2291218D01*
X17844750Y-2294000D01*
X17701000Y-2437750D01*
X17351000Y-2437750D01*
X17207250Y-2294000D01*
X16651000Y-2291218D01*
X16538280Y-2302320D01*
X16429892Y-2335199D01*
X16330002Y-2388592D01*
X16242446Y-2460446D01*
X16170592Y-2548002D01*
X16117199Y-2647892D01*
X16084320Y-2756280D01*
X16073218Y-2869000D01*
X13136782Y-2869000D01*
X13125680Y-2756280D01*
X13092801Y-2647892D01*
X13039408Y-2548002D01*
X12967554Y-2460446D01*
X12879998Y-2388592D01*
X12780108Y-2335199D01*
X12671720Y-2302320D01*
X12559000Y-2291218D01*
X12002750Y-2294000D01*
X11859000Y-2437750D01*
X11509000Y-2437750D01*
X11365250Y-2294000D01*
X10809000Y-2291218D01*
X10696280Y-2302320D01*
X10587892Y-2335199D01*
X10488002Y-2388592D01*
X10400446Y-2460446D01*
X10328592Y-2548002D01*
X10275199Y-2647892D01*
X10242320Y-2756280D01*
X10231218Y-2869000D01*
X10234000Y-3150250D01*
X10377748Y-3293998D01*
X10251461Y-3293998D01*
X9144471Y-2187010D01*
X9128027Y-2166973D01*
X9048086Y-2101367D01*
X8956881Y-2052617D01*
X8857918Y-2022597D01*
X8780788Y-2015000D01*
X8780780Y-2015000D01*
X8755000Y-2012461D01*
X8729220Y-2015000D01*
X4936330Y-2015000D01*
X4936330Y-1690000D01*
X4932982Y-1656000D01*
X32574218Y-1656000D01*
X32577000Y-3237250D01*
X32720750Y-3381000D01*
X34877000Y-3381000D01*
X34877000Y-1224750D01*
X35227000Y-1224750D01*
X35227000Y-3381000D01*
X37383250Y-3381000D01*
X37527000Y-3237250D01*
X37529782Y-1656000D01*
X37518680Y-1543280D01*
X37485801Y-1434892D01*
X37432408Y-1335002D01*
X37360554Y-1247446D01*
X37272998Y-1175592D01*
X37173108Y-1122199D01*
X37064720Y-1089320D01*
X36952000Y-1078218D01*
X35370750Y-1081000D01*
X35227000Y-1224750D01*
X34877000Y-1224750D01*
X34733250Y-1081000D01*
X33152000Y-1078218D01*
X33039280Y-1089320D01*
X32930892Y-1122199D01*
X32831002Y-1175592D01*
X32743446Y-1247446D01*
X32671592Y-1335002D01*
X32618199Y-1434892D01*
X32585320Y-1543280D01*
X32574218Y-1656000D01*
X4932982Y-1656000D01*
X4931020Y-1636091D01*
X4915296Y-1584253D01*
X4889760Y-1536479D01*
X4855395Y-1494605D01*
X4813521Y-1460240D01*
X4765747Y-1434704D01*
X4713909Y-1418980D01*
X4660000Y-1413670D01*
X2960000Y-1413670D01*
X2906091Y-1418980D01*
X2854253Y-1434704D01*
X2806479Y-1460240D01*
X2764605Y-1494605D01*
X2730240Y-1536479D01*
X2704704Y-1584253D01*
X2688980Y-1636091D01*
X2683670Y-1690000D01*
X2683670Y-2364998D01*
X2539244Y-2364998D01*
X2639427Y-2145923D01*
X2627581Y-2106847D01*
X2516991Y-1850319D01*
X2358480Y-1620295D01*
X2158140Y-1425615D01*
X1923669Y-1273760D01*
X1664078Y-1170566D01*
X1445000Y-1269529D01*
X1095000Y-1269529D01*
X875922Y-1170566D01*
X616331Y-1273760D01*
X381860Y-1425615D01*
X181520Y-1620295D01*
X23009Y-1850319D01*
X-87581Y-2106847D01*
X-99427Y-2145923D01*
X-2033646Y-2145923D01*
X-2159222Y-2062016D01*
X-2482252Y-1928213D01*
X-2825178Y-1860000D01*
X-3174822Y-1860000D01*
X-3517748Y-1928213D01*
X-3840778Y-2062016D01*
X-4131496Y-2256268D01*
X-4378732Y-2503504D01*
X-4572984Y-2794222D01*
X-4706787Y-3117252D01*
X-4775000Y-3460178D01*
X-5731079Y-3460178D01*
X-5700113Y-3119928D01*
X-5548644Y-2605279D01*
X-5300098Y-2129855D01*
X-4963945Y-1711766D01*
X-4552984Y-1366929D01*
X-4082870Y-1108481D01*
X-3571505Y-946266D01*
X-3027042Y-885195D01*
X-2999118Y-885000D01*
X41087771Y-885000D01*
X41633912Y-938550D01*
X41633912Y-938550D01*
G37*
X41633912Y-938550D02*
X42147487Y-1093607D01*
X42621164Y-1345465D01*
X43036900Y-1684531D01*
X43378860Y-2097889D01*
X43634017Y-2569794D01*
X43792658Y-3082278D01*
X43848734Y-3615813D01*
X43800113Y-4150075D01*
X43648644Y-4664720D01*
X43400099Y-5140141D01*
X43063945Y-5558234D01*
X42652981Y-5903073D01*
X42182866Y-6161521D01*
X41671505Y-6323734D01*
X41127042Y-6384805D01*
X41099118Y-6385000D01*
X38112275Y-6385000D01*
X38100000Y-6383791D01*
X38087725Y-6385000D01*
X38050992Y-6388618D01*
X38003866Y-6402913D01*
X37960436Y-6426127D01*
X37922368Y-6457368D01*
X37891127Y-6495436D01*
X37867913Y-6538866D01*
X37853618Y-6585992D01*
X37848791Y-6635000D01*
X37850000Y-6647275D01*
X37850001Y-16212715D01*
X37848791Y-16225000D01*
X37853618Y-16274008D01*
X37867913Y-16321134D01*
X37891127Y-16364564D01*
X37922368Y-16402632D01*
X37960436Y-16433873D01*
X38003866Y-16457087D01*
X38050992Y-16471382D01*
X38087725Y-16475000D01*
X38100000Y-16476209D01*
X38112275Y-16475000D01*
X41087771Y-16475000D01*
X41633912Y-16528550D01*
X42147487Y-16683607D01*
X42621164Y-16935465D01*
X43036900Y-17274531D01*
X43378860Y-17687889D01*
X43634017Y-18159794D01*
X43792658Y-18672278D01*
X43848734Y-19205813D01*
X43800113Y-19740075D01*
X43648644Y-20254720D01*
X43400099Y-20730141D01*
X43063945Y-21148234D01*
X42652981Y-21493073D01*
X42182866Y-21751521D01*
X41671505Y-21913734D01*
X41127042Y-21974805D01*
X41099118Y-21975000D01*
X-2987771Y-21975000D01*
X-3533912Y-21921450D01*
X-4047487Y-21766393D01*
X-4521163Y-21514535D01*
X-4936900Y-21175469D01*
X-5278860Y-20762111D01*
X-5534017Y-20290206D01*
X-5692659Y-19777719D01*
X-5748735Y-19244192D01*
X-5731079Y-19050178D01*
X-4775000Y-19050178D01*
X-4775000Y-19399822D01*
X-4706787Y-19742748D01*
X-4572984Y-20065778D01*
X-4378732Y-20356496D01*
X-4131496Y-20603732D01*
X-3840778Y-20797984D01*
X-3517748Y-20931787D01*
X-3174822Y-21000000D01*
X-2825178Y-21000000D01*
X-2482252Y-20931787D01*
X-2159222Y-20797984D01*
X-2033647Y-20714077D01*
X-99427Y-20714077D01*
X-87581Y-20753153D01*
X23009Y-21009681D01*
X181520Y-21239705D01*
X381860Y-21434385D01*
X616331Y-21586240D01*
X875922Y-21689434D01*
X1095000Y-21590471D01*
X1095000Y-20495000D01*
X757Y-20495000D01*
X-99427Y-20714077D01*
X-2033647Y-20714077D01*
X-1868504Y-20603732D01*
X-1621268Y-20356496D01*
X-1427016Y-20065778D01*
X-1293213Y-19742748D01*
X-1225000Y-19399822D01*
X-1225000Y-19050178D01*
X-1293213Y-18707252D01*
X-1427016Y-18384222D01*
X-1567430Y-18174077D01*
X-99427Y-18174077D01*
X-87581Y-18213153D01*
X23009Y-18469681D01*
X181520Y-18699705D01*
X381860Y-18894385D01*
X616331Y-19046240D01*
X625790Y-19050000D01*
X616331Y-19053760D01*
X381860Y-19205615D01*
X181520Y-19400295D01*
X23009Y-19630319D01*
X-87581Y-19886847D01*
X-99427Y-19925923D01*
X757Y-20145000D01*
X1095000Y-20145000D01*
X1095000Y-17955000D01*
X757Y-17955000D01*
X-99427Y-18174077D01*
X-1567430Y-18174077D01*
X-1621268Y-18093504D01*
X-1868504Y-17846268D01*
X-2159222Y-17652016D01*
X-2482252Y-17518213D01*
X-2825178Y-17450000D01*
X-3174822Y-17450000D01*
X-3517748Y-17518213D01*
X-3840778Y-17652016D01*
X-4131496Y-17846268D01*
X-4378732Y-18093504D01*
X-4572984Y-18384222D01*
X-4706787Y-18707252D01*
X-4775000Y-19050178D01*
X-5731079Y-19050178D01*
X-5700113Y-18709928D01*
X-5548644Y-18195279D01*
X-5300098Y-17719855D01*
X-4963945Y-17301766D01*
X-4552984Y-16956929D01*
X-4082870Y-16698481D01*
X-3571505Y-16536266D01*
X-3027042Y-16475195D01*
X-2999118Y-16475000D01*
X-12275Y-16475000D01*
X0Y-16476209D01*
X12275Y-16475000D01*
X49008Y-16471382D01*
X96134Y-16457087D01*
X139564Y-16433873D01*
X177632Y-16402632D01*
X208873Y-16364564D01*
X232087Y-16321134D01*
X246382Y-16274008D01*
X250991Y-16227213D01*
X381860Y-16354385D01*
X616331Y-16506240D01*
X625790Y-16510000D01*
X616331Y-16513760D01*
X381860Y-16665615D01*
X181520Y-16860295D01*
X23009Y-17090319D01*
X-87581Y-17346847D01*
X-99427Y-17385923D01*
X757Y-17605000D01*
X1095000Y-17605000D01*
X1095000Y-15415000D01*
X1075000Y-15415000D01*
X1075000Y-15065000D01*
X1095000Y-15065000D01*
X1095000Y-12875000D01*
X1075000Y-12875000D01*
X1075000Y-12525000D01*
X1095000Y-12525000D01*
X1095000Y-10335000D01*
X1075000Y-10335000D01*
X1075000Y-9985000D01*
X1095000Y-9985000D01*
X1095000Y-7795000D01*
X1075000Y-7795000D01*
X1075000Y-7445000D01*
X1095000Y-7445000D01*
X1095000Y-5255000D01*
X757Y-5255000D01*
X-99427Y-5474077D01*
X-87581Y-5513153D01*
X23009Y-5769681D01*
X181520Y-5999705D01*
X381860Y-6194385D01*
X616331Y-6346240D01*
X625790Y-6350000D01*
X616331Y-6353760D01*
X381860Y-6505615D01*
X250991Y-6632787D01*
X246382Y-6585992D01*
X232087Y-6538866D01*
X208873Y-6495436D01*
X177632Y-6457368D01*
X139564Y-6426127D01*
X96134Y-6402913D01*
X49008Y-6388618D01*
X12275Y-6385000D01*
X0Y-6383791D01*
X-12275Y-6385000D01*
X-2987771Y-6385000D01*
X-3533912Y-6331450D01*
X-4047487Y-6176393D01*
X-4521163Y-5924535D01*
X-4936900Y-5585469D01*
X-5278860Y-5172111D01*
X-5534017Y-4700206D01*
X-5692659Y-4187719D01*
X-5748735Y-3654192D01*
X-5731079Y-3460178D01*
X-4775000Y-3460178D01*
X-4775000Y-3809822D01*
X-4706787Y-4152748D01*
X-4572984Y-4475778D01*
X-4378732Y-4766496D01*
X-4131496Y-5013732D01*
X-3840778Y-5207984D01*
X-3517748Y-5341787D01*
X-3174822Y-5410000D01*
X-2825178Y-5410000D01*
X-2482252Y-5341787D01*
X-2159222Y-5207984D01*
X-1868504Y-5013732D01*
X-1621268Y-4766496D01*
X-1427016Y-4475778D01*
X-1293213Y-4152748D01*
X-1225000Y-3809822D01*
X-1225000Y-3460178D01*
X-1293213Y-3117252D01*
X-1369086Y-2934077D01*
X-99427Y-2934077D01*
X-87581Y-2973153D01*
X23009Y-3229681D01*
X181520Y-3459705D01*
X381860Y-3654385D01*
X616331Y-3806240D01*
X625790Y-3810000D01*
X616331Y-3813760D01*
X381860Y-3965615D01*
X181520Y-4160295D01*
X23009Y-4390319D01*
X-87581Y-4646847D01*
X-99427Y-4685923D01*
X757Y-4905000D01*
X1095000Y-4905000D01*
X1095000Y-2715000D01*
X757Y-2715000D01*
X-99427Y-2934077D01*
X-1369086Y-2934077D01*
X-1427016Y-2794222D01*
X-1621268Y-2503504D01*
X-1868504Y-2256268D01*
X-2033646Y-2145923D01*
X-99427Y-2145923D01*
X757Y-2365000D01*
X1095000Y-2365000D01*
X1095000Y-1269529D01*
X1445000Y-1269529D01*
X1445000Y-2365000D01*
X1465000Y-2365000D01*
X1465000Y-2715000D01*
X1445000Y-2715000D01*
X1445000Y-4905000D01*
X1465000Y-4905000D01*
X1465000Y-5255000D01*
X1445000Y-5255000D01*
X1445000Y-7445000D01*
X1465000Y-7445000D01*
X1465000Y-7795000D01*
X1445000Y-7795000D01*
X1445000Y-9985000D01*
X1465000Y-9985000D01*
X1465000Y-10335000D01*
X1445000Y-10335000D01*
X1445000Y-12525000D01*
X1465000Y-12525000D01*
X1465000Y-12875000D01*
X1445000Y-12875000D01*
X1445000Y-15065000D01*
X1465000Y-15065000D01*
X1465000Y-15415000D01*
X1445000Y-15415000D01*
X1445000Y-17605000D01*
X1465000Y-17605000D01*
X1465000Y-17955000D01*
X1445000Y-17955000D01*
X1445000Y-20145000D01*
X1465000Y-20145000D01*
X1465000Y-20495000D01*
X1445000Y-20495000D01*
X1445000Y-21590471D01*
X1664078Y-21689434D01*
X1923669Y-21586240D01*
X2158140Y-21434385D01*
X2358480Y-21239705D01*
X2516991Y-21009681D01*
X2627581Y-20753153D01*
X2639427Y-20714077D01*
X2539244Y-20495002D01*
X2695000Y-20495002D01*
X2695000Y-20476796D01*
X2701278Y-20540538D01*
X2765607Y-20752602D01*
X2870071Y-20948040D01*
X3010656Y-21119344D01*
X3181960Y-21259929D01*
X3377398Y-21364393D01*
X3589462Y-21428722D01*
X3754736Y-21445000D01*
X3865264Y-21445000D01*
X4030538Y-21428722D01*
X4242602Y-21364393D01*
X4438040Y-21259929D01*
X4609344Y-21119344D01*
X4749929Y-20948040D01*
X4801388Y-20851768D01*
X5143644Y-21194025D01*
X5160084Y-21214057D01*
X5240025Y-21279663D01*
X5274066Y-21297858D01*
X5331230Y-21328413D01*
X5430193Y-21358433D01*
X5533111Y-21368570D01*
X5558899Y-21366030D01*
X19607153Y-21366030D01*
X19632933Y-21368569D01*
X19658713Y-21366030D01*
X19658721Y-21366030D01*
X19735851Y-21358433D01*
X19834814Y-21328413D01*
X19926019Y-21279663D01*
X20005960Y-21214057D01*
X20014213Y-21204000D01*
X32574218Y-21204000D01*
X32585320Y-21316720D01*
X32618199Y-21425108D01*
X32671592Y-21524998D01*
X32743446Y-21612554D01*
X32831002Y-21684408D01*
X32930892Y-21737801D01*
X33039280Y-21770680D01*
X33152000Y-21781782D01*
X34733250Y-21779000D01*
X34877000Y-21635250D01*
X34877000Y-19479000D01*
X35227000Y-19479000D01*
X35227000Y-21635250D01*
X35370750Y-21779000D01*
X36952000Y-21781782D01*
X37064720Y-21770680D01*
X37173108Y-21737801D01*
X37272998Y-21684408D01*
X37360554Y-21612554D01*
X37432408Y-21524998D01*
X37485801Y-21425108D01*
X37518680Y-21316720D01*
X37529782Y-21204000D01*
X37527000Y-19622750D01*
X37383250Y-19479000D01*
X35227000Y-19479000D01*
X34877000Y-19479000D01*
X32720750Y-19479000D01*
X32577000Y-19622750D01*
X32574218Y-21204000D01*
X20014213Y-21204000D01*
X20022404Y-21194020D01*
X20171424Y-21045000D01*
X24780220Y-21045000D01*
X24806000Y-21047539D01*
X24831780Y-21045000D01*
X24831788Y-21045000D01*
X24908918Y-21037403D01*
X25007881Y-21007383D01*
X25099086Y-20958633D01*
X25179027Y-20893027D01*
X25195471Y-20872990D01*
X28810493Y-17257970D01*
X28892021Y-17266000D01*
X29527979Y-17266000D01*
X29656530Y-17253339D01*
X29821468Y-17203305D01*
X29973476Y-17122056D01*
X30106712Y-17012712D01*
X30110011Y-17008693D01*
X30110011Y-17212019D01*
X29761520Y-17560510D01*
X29656530Y-17528661D01*
X29527979Y-17516000D01*
X28892021Y-17516000D01*
X28763470Y-17528661D01*
X28598532Y-17578695D01*
X28446524Y-17659944D01*
X28313288Y-17769288D01*
X28203944Y-17902524D01*
X28122695Y-18054532D01*
X28072661Y-18219470D01*
X28055767Y-18391000D01*
X28055993Y-18393291D01*
X27935874Y-18539656D01*
X27794267Y-18804584D01*
X27707066Y-19092048D01*
X27677622Y-19391000D01*
X27707066Y-19689952D01*
X27794267Y-19977416D01*
X27935874Y-20242344D01*
X28126445Y-20474555D01*
X28358656Y-20665126D01*
X28623584Y-20806733D01*
X28911048Y-20893934D01*
X29135089Y-20916000D01*
X30012794Y-20916000D01*
X30087705Y-20923378D01*
X30386657Y-20893934D01*
X30444304Y-20876447D01*
X30674121Y-20806733D01*
X30939049Y-20665126D01*
X31171260Y-20474555D01*
X31219021Y-20416358D01*
X32613565Y-19021815D01*
X32720750Y-19129000D01*
X34877000Y-19129000D01*
X34877000Y-19109000D01*
X35227000Y-19109000D01*
X35227000Y-19129000D01*
X37383250Y-19129000D01*
X37462072Y-19050178D01*
X39325000Y-19050178D01*
X39325000Y-19399822D01*
X39393213Y-19742748D01*
X39527016Y-20065778D01*
X39721268Y-20356496D01*
X39968504Y-20603732D01*
X40259222Y-20797984D01*
X40582252Y-20931787D01*
X40925178Y-21000000D01*
X41274822Y-21000000D01*
X41617748Y-20931787D01*
X41940778Y-20797984D01*
X42231496Y-20603732D01*
X42478732Y-20356496D01*
X42672984Y-20065778D01*
X42806787Y-19742748D01*
X42875000Y-19399822D01*
X42875000Y-19050178D01*
X42806787Y-18707252D01*
X42672984Y-18384222D01*
X42478732Y-18093504D01*
X42231496Y-17846268D01*
X41940778Y-17652016D01*
X41617748Y-17518213D01*
X41274822Y-17450000D01*
X40925178Y-17450000D01*
X40582252Y-17518213D01*
X40259222Y-17652016D01*
X39968504Y-17846268D01*
X39721268Y-18093504D01*
X39527016Y-18384222D01*
X39393213Y-18707252D01*
X39325000Y-19050178D01*
X37462072Y-19050178D01*
X37527000Y-18985250D01*
X37529782Y-17404000D01*
X37518680Y-17291280D01*
X37485801Y-17182892D01*
X37432408Y-17083002D01*
X37360554Y-16995446D01*
X37272998Y-16923592D01*
X37173108Y-16870199D01*
X37064720Y-16837320D01*
X36952000Y-16826218D01*
X36217605Y-16827510D01*
X36601166Y-16622492D01*
X37023715Y-16275716D01*
X37370492Y-15853167D01*
X37628171Y-15371085D01*
X37786848Y-14847995D01*
X37827000Y-14440326D01*
X37827000Y-8419674D01*
X37786848Y-8012005D01*
X37628171Y-7488915D01*
X37370492Y-7006833D01*
X37023716Y-6584284D01*
X36601167Y-6237508D01*
X36217606Y-6032490D01*
X36952000Y-6033782D01*
X37064720Y-6022680D01*
X37173108Y-5989801D01*
X37272998Y-5936408D01*
X37360554Y-5864554D01*
X37432408Y-5776998D01*
X37485801Y-5677108D01*
X37518680Y-5568720D01*
X37529782Y-5456000D01*
X37527000Y-3874750D01*
X37383250Y-3731000D01*
X35227000Y-3731000D01*
X35227000Y-3751000D01*
X34877000Y-3751000D01*
X34877000Y-3731000D01*
X32720750Y-3731000D01*
X32577000Y-3874750D01*
X32574218Y-5456000D01*
X32585320Y-5568720D01*
X32618199Y-5677108D01*
X32671592Y-5776998D01*
X32743446Y-5864554D01*
X32831002Y-5936408D01*
X32930892Y-5989801D01*
X33039280Y-6022680D01*
X33152000Y-6033782D01*
X33886395Y-6032490D01*
X33502834Y-6237508D01*
X33080285Y-6584284D01*
X32733509Y-7006833D01*
X32720591Y-7031000D01*
X30243036Y-7031000D01*
X30216056Y-6980524D01*
X30106712Y-6847288D01*
X29973476Y-6737944D01*
X29821468Y-6656695D01*
X29656530Y-6606661D01*
X29527979Y-6594000D01*
X28892021Y-6594000D01*
X28763470Y-6606661D01*
X28598532Y-6656695D01*
X28446524Y-6737944D01*
X28313288Y-6847288D01*
X28203944Y-6980524D01*
X28122695Y-7132532D01*
X28072661Y-7297470D01*
X28055767Y-7469000D01*
X28055993Y-7471293D01*
X27935875Y-7617657D01*
X27794267Y-7882585D01*
X27775637Y-7944000D01*
X27760780Y-7944000D01*
X27735000Y-7941461D01*
X27709220Y-7944000D01*
X27709212Y-7944000D01*
X27632082Y-7951597D01*
X27533119Y-7981617D01*
X27441914Y-8030367D01*
X27398953Y-8065624D01*
X27353544Y-8070097D01*
X27254581Y-8100117D01*
X27163376Y-8148867D01*
X27103465Y-8198034D01*
X27103461Y-8198038D01*
X27083435Y-8214473D01*
X27067000Y-8234499D01*
X25206503Y-10095000D01*
X25051461Y-10095000D01*
X28810493Y-6335970D01*
X28892021Y-6344000D01*
X29527979Y-6344000D01*
X29656530Y-6331339D01*
X29821468Y-6281305D01*
X29973476Y-6200056D01*
X30106712Y-6090712D01*
X30216056Y-5957476D01*
X30297305Y-5805468D01*
X30347339Y-5640530D01*
X30364233Y-5469000D01*
X30347339Y-5297470D01*
X30297305Y-5132532D01*
X30216056Y-4980524D01*
X30106712Y-4847288D01*
X29973476Y-4737944D01*
X29821468Y-4656695D01*
X29783824Y-4645276D01*
X30085000Y-4646782D01*
X30197720Y-4635680D01*
X30306108Y-4602801D01*
X30405998Y-4549408D01*
X30493554Y-4477554D01*
X30565408Y-4389998D01*
X30618801Y-4290108D01*
X30651680Y-4181720D01*
X30662782Y-4069000D01*
X30660000Y-3787750D01*
X30516250Y-3644000D01*
X29385000Y-3644000D01*
X29385000Y-3664000D01*
X29035000Y-3664000D01*
X29035000Y-3644000D01*
X27903750Y-3644000D01*
X27760000Y-3787750D01*
X27757218Y-4069000D01*
X27768320Y-4181720D01*
X27801199Y-4290108D01*
X27854592Y-4389998D01*
X27926446Y-4477554D01*
X28014002Y-4549408D01*
X28113892Y-4602801D01*
X28222280Y-4635680D01*
X28335000Y-4646782D01*
X28636176Y-4645276D01*
X28598532Y-4656695D01*
X28446524Y-4737944D01*
X28313288Y-4847288D01*
X28203944Y-4980524D01*
X28122695Y-5132532D01*
X28072661Y-5297470D01*
X28055767Y-5469000D01*
X28068030Y-5593507D01*
X24267509Y-9394030D01*
X18810431Y-9394030D01*
X20735461Y-7469000D01*
X22213767Y-7469000D01*
X22230661Y-7640530D01*
X22280695Y-7805468D01*
X22361944Y-7957476D01*
X22471288Y-8090712D01*
X22604524Y-8200056D01*
X22756532Y-8281305D01*
X22921470Y-8331339D01*
X23050021Y-8344000D01*
X23685979Y-8344000D01*
X23814530Y-8331339D01*
X23979468Y-8281305D01*
X24131476Y-8200056D01*
X24264712Y-8090712D01*
X24374056Y-7957476D01*
X24455305Y-7805468D01*
X24505339Y-7640530D01*
X24522233Y-7469000D01*
X24505339Y-7297470D01*
X24455305Y-7132532D01*
X24374056Y-6980524D01*
X24264712Y-6847288D01*
X24131476Y-6737944D01*
X23979468Y-6656695D01*
X23814530Y-6606661D01*
X23685979Y-6594000D01*
X23050021Y-6594000D01*
X22921470Y-6606661D01*
X22756532Y-6656695D01*
X22604524Y-6737944D01*
X22471288Y-6847288D01*
X22361944Y-6980524D01*
X22280695Y-7132532D01*
X22230661Y-7297470D01*
X22213767Y-7469000D01*
X20735461Y-7469000D01*
X22210462Y-5994000D01*
X22391918Y-5994000D01*
X22471288Y-6090712D01*
X22604524Y-6200056D01*
X22756532Y-6281305D01*
X22921470Y-6331339D01*
X23050021Y-6344000D01*
X23685979Y-6344000D01*
X23814530Y-6331339D01*
X23979468Y-6281305D01*
X24131476Y-6200056D01*
X24264712Y-6090712D01*
X24374056Y-5957476D01*
X24455305Y-5805468D01*
X24505339Y-5640530D01*
X24522233Y-5469000D01*
X24505339Y-5297470D01*
X24455305Y-5132532D01*
X24374056Y-4980524D01*
X24264712Y-4847288D01*
X24131476Y-4737944D01*
X23979468Y-4656695D01*
X23941824Y-4645276D01*
X24243000Y-4646782D01*
X24355720Y-4635680D01*
X24464108Y-4602801D01*
X24563998Y-4549408D01*
X24651554Y-4477554D01*
X24723408Y-4389998D01*
X24776801Y-4290108D01*
X24809680Y-4181720D01*
X24820782Y-4069000D01*
X24818000Y-3787750D01*
X24674250Y-3644000D01*
X23543000Y-3644000D01*
X23543000Y-3664000D01*
X23193000Y-3664000D01*
X23193000Y-3644000D01*
X22061750Y-3644000D01*
X21918000Y-3787750D01*
X21915218Y-4069000D01*
X21926320Y-4181720D01*
X21959199Y-4290108D01*
X22012592Y-4389998D01*
X22084446Y-4477554D01*
X22172002Y-4549408D01*
X22271892Y-4602801D01*
X22380280Y-4635680D01*
X22493000Y-4646782D01*
X22794176Y-4645276D01*
X22756532Y-4656695D01*
X22604524Y-4737944D01*
X22471288Y-4847288D01*
X22391918Y-4944000D01*
X22018779Y-4944000D01*
X21992999Y-4941461D01*
X21967219Y-4944000D01*
X21967212Y-4944000D01*
X21890082Y-4951597D01*
X21791119Y-4981617D01*
X21699914Y-5030367D01*
X21619973Y-5095973D01*
X21603535Y-5116003D01*
X18025519Y-8694020D01*
X14768441Y-8694020D01*
X15993461Y-7469000D01*
X16371767Y-7469000D01*
X16388661Y-7640530D01*
X16438695Y-7805468D01*
X16519944Y-7957476D01*
X16629288Y-8090712D01*
X16762524Y-8200056D01*
X16914532Y-8281305D01*
X17079470Y-8331339D01*
X17208021Y-8344000D01*
X17843979Y-8344000D01*
X17972530Y-8331339D01*
X18137468Y-8281305D01*
X18289476Y-8200056D01*
X18422712Y-8090712D01*
X18532056Y-7957476D01*
X18613305Y-7805468D01*
X18663339Y-7640530D01*
X18680233Y-7469000D01*
X18663339Y-7297470D01*
X18613305Y-7132532D01*
X18532056Y-6980524D01*
X18422712Y-6847288D01*
X18289476Y-6737944D01*
X18137468Y-6656695D01*
X17972530Y-6606661D01*
X17843979Y-6594000D01*
X17208021Y-6594000D01*
X17079470Y-6606661D01*
X16914532Y-6656695D01*
X16762524Y-6737944D01*
X16629288Y-6847288D01*
X16519944Y-6980524D01*
X16438695Y-7132532D01*
X16388661Y-7297470D01*
X16371767Y-7469000D01*
X15993461Y-7469000D01*
X17126492Y-6335970D01*
X17208021Y-6344000D01*
X17843979Y-6344000D01*
X17972530Y-6331339D01*
X18137468Y-6281305D01*
X18289476Y-6200056D01*
X18422712Y-6090712D01*
X18532056Y-5957476D01*
X18613305Y-5805468D01*
X18663339Y-5640530D01*
X18680233Y-5469000D01*
X18663339Y-5297470D01*
X18613305Y-5132532D01*
X18532056Y-4980524D01*
X18422712Y-4847288D01*
X18289476Y-4737944D01*
X18137468Y-4656695D01*
X18099824Y-4645276D01*
X18401000Y-4646782D01*
X18513720Y-4635680D01*
X18622108Y-4602801D01*
X18721998Y-4549408D01*
X18809554Y-4477554D01*
X18881408Y-4389998D01*
X18934801Y-4290108D01*
X18967680Y-4181720D01*
X18978782Y-4069000D01*
X18976000Y-3787750D01*
X18832250Y-3644000D01*
X17701000Y-3644000D01*
X17701000Y-3664000D01*
X17351000Y-3664000D01*
X17351000Y-3644000D01*
X16219750Y-3644000D01*
X16076000Y-3787750D01*
X16073218Y-4069000D01*
X16084320Y-4181720D01*
X16117199Y-4290108D01*
X16170592Y-4389998D01*
X16242446Y-4477554D01*
X16330002Y-4549408D01*
X16429892Y-4602801D01*
X16538280Y-4635680D01*
X16651000Y-4646782D01*
X16952176Y-4645276D01*
X16914532Y-4656695D01*
X16762524Y-4737944D01*
X16629288Y-4847288D01*
X16519944Y-4980524D01*
X16438695Y-5132532D01*
X16388661Y-5297470D01*
X16371767Y-5469000D01*
X16384030Y-5593508D01*
X13983530Y-7994009D01*
X12660074Y-7994009D01*
X12690056Y-7957476D01*
X12771305Y-7805468D01*
X12821339Y-7640530D01*
X12838233Y-7469000D01*
X12821339Y-7297470D01*
X12771305Y-7132532D01*
X12690056Y-6980524D01*
X12580712Y-6847288D01*
X12447476Y-6737944D01*
X12295468Y-6656695D01*
X12130530Y-6606661D01*
X12001979Y-6594000D01*
X11366021Y-6594000D01*
X11237470Y-6606661D01*
X11072532Y-6656695D01*
X10920524Y-6737944D01*
X10787288Y-6847288D01*
X10677944Y-6980524D01*
X10596695Y-7132532D01*
X10546661Y-7297470D01*
X10540672Y-7358281D01*
X7909400Y-4727010D01*
X7892956Y-4706973D01*
X7813015Y-4641367D01*
X7721810Y-4592617D01*
X7622847Y-4562597D01*
X7545717Y-4555000D01*
X7545709Y-4555000D01*
X7519929Y-4552461D01*
X7494149Y-4555000D01*
X4805005Y-4555000D01*
X4749929Y-4451960D01*
X4609344Y-4280656D01*
X4438040Y-4140071D01*
X4242602Y-4035607D01*
X4030538Y-3971278D01*
X3865264Y-3955000D01*
X3754736Y-3955000D01*
X3589462Y-3971278D01*
X3377398Y-4035607D01*
X3181960Y-4140071D01*
X3010656Y-4280656D01*
X2870071Y-4451960D01*
X2765607Y-4647398D01*
X2701278Y-4859462D01*
X2695000Y-4923204D01*
X2695000Y-4904998D01*
X2539244Y-4904998D01*
X2639427Y-4685923D01*
X2627581Y-4646847D01*
X2516991Y-4390319D01*
X2358480Y-4160295D01*
X2158140Y-3965615D01*
X1923669Y-3813760D01*
X1914210Y-3810000D01*
X1923669Y-3806240D01*
X2158140Y-3654385D01*
X2358480Y-3459705D01*
X2516991Y-3229681D01*
X2627581Y-2973153D01*
X2639427Y-2934077D01*
X2539244Y-2715002D01*
X2683670Y-2715002D01*
X2683670Y-3390000D01*
X2688980Y-3443909D01*
X2704704Y-3495747D01*
X2730240Y-3543521D01*
X2764605Y-3585395D01*
X2806479Y-3619760D01*
X2854253Y-3645296D01*
X2906091Y-3661020D01*
X2960000Y-3666330D01*
X4660000Y-3666330D01*
X4713909Y-3661020D01*
X4765747Y-3645296D01*
X4813521Y-3619760D01*
X4855395Y-3585395D01*
X4889760Y-3543521D01*
X4915296Y-3495747D01*
X4931020Y-3443909D01*
X4936330Y-3390000D01*
X4936330Y-3065000D01*
X8537539Y-3065000D01*
X9784000Y-4311463D01*
X9784000Y-4343220D01*
X9781461Y-4369000D01*
X9784000Y-4394780D01*
X9784000Y-4394788D01*
X9789631Y-4451960D01*
X9791597Y-4471917D01*
X9821617Y-4570880D01*
X9870367Y-4662085D01*
X9907206Y-4706973D01*
X9935974Y-4742027D01*
X9956005Y-4758466D01*
X10542030Y-5344491D01*
X10529767Y-5469000D01*
X10546661Y-5640530D01*
X10596695Y-5805468D01*
X10677944Y-5957476D01*
X10787288Y-6090712D01*
X10920524Y-6200056D01*
X11072532Y-6281305D01*
X11237470Y-6331339D01*
X11366021Y-6344000D01*
X12001979Y-6344000D01*
X12130530Y-6331339D01*
X12295468Y-6281305D01*
X12447476Y-6200056D01*
X12580712Y-6090712D01*
X12690056Y-5957476D01*
X12771305Y-5805468D01*
X12821339Y-5640530D01*
X12838233Y-5469000D01*
X12821339Y-5297470D01*
X12771305Y-5132532D01*
X12690056Y-4980524D01*
X12580712Y-4847288D01*
X12447476Y-4737944D01*
X12295468Y-4656695D01*
X12257824Y-4645276D01*
X12559000Y-4646782D01*
X12671720Y-4635680D01*
X12780108Y-4602801D01*
X12879998Y-4549408D01*
X12967554Y-4477554D01*
X13039408Y-4389998D01*
X13092801Y-4290108D01*
X13125680Y-4181720D01*
X13136782Y-4069000D01*
X13134000Y-3787750D01*
X12990250Y-3644000D01*
X11859000Y-3644000D01*
X11859000Y-3664000D01*
X11509000Y-3664000D01*
X11509000Y-3644000D01*
X11489000Y-3644000D01*
X11489000Y-3460178D01*
X39325000Y-3460178D01*
X39325000Y-3809822D01*
X39393213Y-4152748D01*
X39527016Y-4475778D01*
X39721268Y-4766496D01*
X39968504Y-5013732D01*
X40259222Y-5207984D01*
X40582252Y-5341787D01*
X40925178Y-5410000D01*
X41274822Y-5410000D01*
X41617748Y-5341787D01*
X41940778Y-5207984D01*
X42231496Y-5013732D01*
X42478732Y-4766496D01*
X42672984Y-4475778D01*
X42806787Y-4152748D01*
X42875000Y-3809822D01*
X42875000Y-3460178D01*
X42806787Y-3117252D01*
X42672984Y-2794222D01*
X42478732Y-2503504D01*
X42231496Y-2256268D01*
X41940778Y-2062016D01*
X41617748Y-1928213D01*
X41274822Y-1860000D01*
X40925178Y-1860000D01*
X40582252Y-1928213D01*
X40259222Y-2062016D01*
X39968504Y-2256268D01*
X39721268Y-2503504D01*
X39527016Y-2794222D01*
X39393213Y-3117252D01*
X39325000Y-3460178D01*
X11489000Y-3460178D01*
X11489000Y-3294000D01*
X11509000Y-3294000D01*
X11509000Y-2437750D01*
X11859000Y-2437750D01*
X11859000Y-3294000D01*
X12990250Y-3294000D01*
X13134000Y-3150250D01*
X13136782Y-2869000D01*
X16073218Y-2869000D01*
X16076000Y-3150250D01*
X16219750Y-3294000D01*
X17351000Y-3294000D01*
X17351000Y-2437750D01*
X17701000Y-2437750D01*
X17701000Y-3294000D01*
X18832250Y-3294000D01*
X18976000Y-3150250D01*
X18978782Y-2869000D01*
X21915218Y-2869000D01*
X21918000Y-3150250D01*
X22061750Y-3294000D01*
X23193000Y-3294000D01*
X23193000Y-2437750D01*
X23543000Y-2437750D01*
X23543000Y-3294000D01*
X24674250Y-3294000D01*
X24818000Y-3150250D01*
X24820782Y-2869000D01*
X27757218Y-2869000D01*
X27760000Y-3150250D01*
X27903750Y-3294000D01*
X29035000Y-3294000D01*
X29035000Y-2437750D01*
X29385000Y-2437750D01*
X29385000Y-3294000D01*
X30516250Y-3294000D01*
X30660000Y-3150250D01*
X30662782Y-2869000D01*
X30651680Y-2756280D01*
X30618801Y-2647892D01*
X30565408Y-2548002D01*
X30493554Y-2460446D01*
X30405998Y-2388592D01*
X30306108Y-2335199D01*
X30197720Y-2302320D01*
X30085000Y-2291218D01*
X29528750Y-2294000D01*
X29385000Y-2437750D01*
X29035000Y-2437750D01*
X28891250Y-2294000D01*
X28335000Y-2291218D01*
X28222280Y-2302320D01*
X28113892Y-2335199D01*
X28014002Y-2388592D01*
X27926446Y-2460446D01*
X27854592Y-2548002D01*
X27801199Y-2647892D01*
X27768320Y-2756280D01*
X27757218Y-2869000D01*
X24820782Y-2869000D01*
X24809680Y-2756280D01*
X24776801Y-2647892D01*
X24723408Y-2548002D01*
X24651554Y-2460446D01*
X24563998Y-2388592D01*
X24464108Y-2335199D01*
X24355720Y-2302320D01*
X24243000Y-2291218D01*
X23686750Y-2294000D01*
X23543000Y-2437750D01*
X23193000Y-2437750D01*
X23049250Y-2294000D01*
X22493000Y-2291218D01*
X22380280Y-2302320D01*
X22271892Y-2335199D01*
X22172002Y-2388592D01*
X22084446Y-2460446D01*
X22012592Y-2548002D01*
X21959199Y-2647892D01*
X21926320Y-2756280D01*
X21915218Y-2869000D01*
X18978782Y-2869000D01*
X18967680Y-2756280D01*
X18934801Y-2647892D01*
X18881408Y-2548002D01*
X18809554Y-2460446D01*
X18721998Y-2388592D01*
X18622108Y-2335199D01*
X18513720Y-2302320D01*
X18401000Y-2291218D01*
X17844750Y-2294000D01*
X17701000Y-2437750D01*
X17351000Y-2437750D01*
X17207250Y-2294000D01*
X16651000Y-2291218D01*
X16538280Y-2302320D01*
X16429892Y-2335199D01*
X16330002Y-2388592D01*
X16242446Y-2460446D01*
X16170592Y-2548002D01*
X16117199Y-2647892D01*
X16084320Y-2756280D01*
X16073218Y-2869000D01*
X13136782Y-2869000D01*
X13125680Y-2756280D01*
X13092801Y-2647892D01*
X13039408Y-2548002D01*
X12967554Y-2460446D01*
X12879998Y-2388592D01*
X12780108Y-2335199D01*
X12671720Y-2302320D01*
X12559000Y-2291218D01*
X12002750Y-2294000D01*
X11859000Y-2437750D01*
X11509000Y-2437750D01*
X11365250Y-2294000D01*
X10809000Y-2291218D01*
X10696280Y-2302320D01*
X10587892Y-2335199D01*
X10488002Y-2388592D01*
X10400446Y-2460446D01*
X10328592Y-2548002D01*
X10275199Y-2647892D01*
X10242320Y-2756280D01*
X10231218Y-2869000D01*
X10234000Y-3150250D01*
X10377748Y-3293998D01*
X10251461Y-3293998D01*
X9144471Y-2187010D01*
X9128027Y-2166973D01*
X9048086Y-2101367D01*
X8956881Y-2052617D01*
X8857918Y-2022597D01*
X8780788Y-2015000D01*
X8780780Y-2015000D01*
X8755000Y-2012461D01*
X8729220Y-2015000D01*
X4936330Y-2015000D01*
X4936330Y-1690000D01*
X4932982Y-1656000D01*
X32574218Y-1656000D01*
X32577000Y-3237250D01*
X32720750Y-3381000D01*
X34877000Y-3381000D01*
X34877000Y-1224750D01*
X35227000Y-1224750D01*
X35227000Y-3381000D01*
X37383250Y-3381000D01*
X37527000Y-3237250D01*
X37529782Y-1656000D01*
X37518680Y-1543280D01*
X37485801Y-1434892D01*
X37432408Y-1335002D01*
X37360554Y-1247446D01*
X37272998Y-1175592D01*
X37173108Y-1122199D01*
X37064720Y-1089320D01*
X36952000Y-1078218D01*
X35370750Y-1081000D01*
X35227000Y-1224750D01*
X34877000Y-1224750D01*
X34733250Y-1081000D01*
X33152000Y-1078218D01*
X33039280Y-1089320D01*
X32930892Y-1122199D01*
X32831002Y-1175592D01*
X32743446Y-1247446D01*
X32671592Y-1335002D01*
X32618199Y-1434892D01*
X32585320Y-1543280D01*
X32574218Y-1656000D01*
X4932982Y-1656000D01*
X4931020Y-1636091D01*
X4915296Y-1584253D01*
X4889760Y-1536479D01*
X4855395Y-1494605D01*
X4813521Y-1460240D01*
X4765747Y-1434704D01*
X4713909Y-1418980D01*
X4660000Y-1413670D01*
X2960000Y-1413670D01*
X2906091Y-1418980D01*
X2854253Y-1434704D01*
X2806479Y-1460240D01*
X2764605Y-1494605D01*
X2730240Y-1536479D01*
X2704704Y-1584253D01*
X2688980Y-1636091D01*
X2683670Y-1690000D01*
X2683670Y-2364998D01*
X2539244Y-2364998D01*
X2639427Y-2145923D01*
X2627581Y-2106847D01*
X2516991Y-1850319D01*
X2358480Y-1620295D01*
X2158140Y-1425615D01*
X1923669Y-1273760D01*
X1664078Y-1170566D01*
X1445000Y-1269529D01*
X1095000Y-1269529D01*
X875922Y-1170566D01*
X616331Y-1273760D01*
X381860Y-1425615D01*
X181520Y-1620295D01*
X23009Y-1850319D01*
X-87581Y-2106847D01*
X-99427Y-2145923D01*
X-2033646Y-2145923D01*
X-2159222Y-2062016D01*
X-2482252Y-1928213D01*
X-2825178Y-1860000D01*
X-3174822Y-1860000D01*
X-3517748Y-1928213D01*
X-3840778Y-2062016D01*
X-4131496Y-2256268D01*
X-4378732Y-2503504D01*
X-4572984Y-2794222D01*
X-4706787Y-3117252D01*
X-4775000Y-3460178D01*
X-5731079Y-3460178D01*
X-5700113Y-3119928D01*
X-5548644Y-2605279D01*
X-5300098Y-2129855D01*
X-4963945Y-1711766D01*
X-4552984Y-1366929D01*
X-4082870Y-1108481D01*
X-3571505Y-946266D01*
X-3027042Y-885195D01*
X-2999118Y-885000D01*
X41087771Y-885000D01*
X41633912Y-938550D01*
G36*
X2701278Y-18000538D02*
G01*
X2765607Y-18212602D01*
X2870071Y-18408040D01*
X3010656Y-18579344D01*
X3181960Y-18719929D01*
X3377398Y-18824393D01*
X3589462Y-18888722D01*
X3754736Y-18905000D01*
X3865264Y-18905000D01*
X4030538Y-18888722D01*
X4242602Y-18824393D01*
X4438040Y-18719929D01*
X4609344Y-18579344D01*
X4749929Y-18408040D01*
X4805005Y-18305000D01*
X7802591Y-18305000D01*
X9813620Y-20316030D01*
X5750573Y-20316030D01*
X5401552Y-19967009D01*
X5385108Y-19946973D01*
X5305167Y-19881367D01*
X5213962Y-19832617D01*
X5114999Y-19802597D01*
X5037869Y-19795000D01*
X5037861Y-19795000D01*
X5012081Y-19792461D01*
X4986301Y-19795000D01*
X4805005Y-19795000D01*
X4749929Y-19691960D01*
X4609344Y-19520656D01*
X4438040Y-19380071D01*
X4242602Y-19275607D01*
X4030538Y-19211278D01*
X3865264Y-19195000D01*
X3754736Y-19195000D01*
X3589462Y-19211278D01*
X3377398Y-19275607D01*
X3181960Y-19380071D01*
X3010656Y-19520656D01*
X2870071Y-19691960D01*
X2765607Y-19887398D01*
X2701278Y-20099462D01*
X2695000Y-20163204D01*
X2695000Y-20144998D01*
X2539244Y-20144998D01*
X2639427Y-19925923D01*
X2627581Y-19886847D01*
X2516991Y-19630319D01*
X2358480Y-19400295D01*
X2158140Y-19205615D01*
X1923669Y-19053760D01*
X1914210Y-19050000D01*
X1923669Y-19046240D01*
X2158140Y-18894385D01*
X2358480Y-18699705D01*
X2516991Y-18469681D01*
X2627581Y-18213153D01*
X2639427Y-18174077D01*
X2539244Y-17955002D01*
X2695000Y-17955002D01*
X2695000Y-17936796D01*
X2701278Y-18000538D01*
X2701278Y-18000538D01*
G37*
X2701278Y-18000538D02*
X2765607Y-18212602D01*
X2870071Y-18408040D01*
X3010656Y-18579344D01*
X3181960Y-18719929D01*
X3377398Y-18824393D01*
X3589462Y-18888722D01*
X3754736Y-18905000D01*
X3865264Y-18905000D01*
X4030538Y-18888722D01*
X4242602Y-18824393D01*
X4438040Y-18719929D01*
X4609344Y-18579344D01*
X4749929Y-18408040D01*
X4805005Y-18305000D01*
X7802591Y-18305000D01*
X9813620Y-20316030D01*
X5750573Y-20316030D01*
X5401552Y-19967009D01*
X5385108Y-19946973D01*
X5305167Y-19881367D01*
X5213962Y-19832617D01*
X5114999Y-19802597D01*
X5037869Y-19795000D01*
X5037861Y-19795000D01*
X5012081Y-19792461D01*
X4986301Y-19795000D01*
X4805005Y-19795000D01*
X4749929Y-19691960D01*
X4609344Y-19520656D01*
X4438040Y-19380071D01*
X4242602Y-19275607D01*
X4030538Y-19211278D01*
X3865264Y-19195000D01*
X3754736Y-19195000D01*
X3589462Y-19211278D01*
X3377398Y-19275607D01*
X3181960Y-19380071D01*
X3010656Y-19520656D01*
X2870071Y-19691960D01*
X2765607Y-19887398D01*
X2701278Y-20099462D01*
X2695000Y-20163204D01*
X2695000Y-20144998D01*
X2539244Y-20144998D01*
X2639427Y-19925923D01*
X2627581Y-19886847D01*
X2516991Y-19630319D01*
X2358480Y-19400295D01*
X2158140Y-19205615D01*
X1923669Y-19053760D01*
X1914210Y-19050000D01*
X1923669Y-19046240D01*
X2158140Y-18894385D01*
X2358480Y-18699705D01*
X2516991Y-18469681D01*
X2627581Y-18213153D01*
X2639427Y-18174077D01*
X2539244Y-17955002D01*
X2695000Y-17955002D01*
X2695000Y-17936796D01*
X2701278Y-18000538D01*
G36*
X6008670Y-8831250D02*
G01*
X6018663Y-8932713D01*
X6048259Y-9030276D01*
X6096319Y-9120191D01*
X6160998Y-9199002D01*
X6239809Y-9263681D01*
X6329724Y-9311741D01*
X6427287Y-9341337D01*
X6528750Y-9351330D01*
X7006368Y-9351330D01*
X7151770Y-9496732D01*
X7168210Y-9516764D01*
X7248151Y-9582370D01*
X7339356Y-9631120D01*
X7438319Y-9661140D01*
X7515449Y-9668737D01*
X7515457Y-9668737D01*
X7541237Y-9671276D01*
X7567017Y-9668737D01*
X8396317Y-9668737D01*
X9700575Y-10972996D01*
X9717014Y-10993027D01*
X9796955Y-11058633D01*
X9888160Y-11107383D01*
X9987123Y-11137403D01*
X10064253Y-11145000D01*
X10064260Y-11145000D01*
X10090040Y-11147539D01*
X10115820Y-11145000D01*
X25398184Y-11145000D01*
X25423964Y-11147539D01*
X25449744Y-11145000D01*
X25449752Y-11145000D01*
X25526882Y-11137403D01*
X25625845Y-11107383D01*
X25717050Y-11058633D01*
X25796991Y-10993027D01*
X25813435Y-10972990D01*
X27675086Y-9111338D01*
X27740418Y-9104903D01*
X27809515Y-9083943D01*
X27935875Y-9320343D01*
X28078693Y-9494367D01*
X28165685Y-9581360D01*
X28213445Y-9639555D01*
X28445656Y-9830126D01*
X28710584Y-9971733D01*
X28998048Y-10058934D01*
X29222089Y-10081000D01*
X29222090Y-10081000D01*
X29297000Y-10088378D01*
X29371911Y-10081000D01*
X32277001Y-10081000D01*
X32277000Y-12776884D01*
X32223573Y-12771622D01*
X32148662Y-12779000D01*
X31924621Y-12801066D01*
X31637157Y-12888267D01*
X31372229Y-13029874D01*
X31140018Y-13220445D01*
X31092260Y-13278638D01*
X30655351Y-13715548D01*
X30651680Y-13678280D01*
X30618801Y-13569892D01*
X30565408Y-13470002D01*
X30493554Y-13382446D01*
X30405998Y-13310592D01*
X30306108Y-13257199D01*
X30197720Y-13224320D01*
X30085000Y-13213218D01*
X29528750Y-13216000D01*
X29385000Y-13359750D01*
X29385000Y-14216000D01*
X29405000Y-14216000D01*
X29405000Y-14566000D01*
X29385000Y-14566000D01*
X29385000Y-14586000D01*
X29035000Y-14586000D01*
X29035000Y-14566000D01*
X27903750Y-14566000D01*
X27760000Y-14709750D01*
X27757218Y-14991000D01*
X27768320Y-15103720D01*
X27801199Y-15212108D01*
X27854592Y-15311998D01*
X27926446Y-15399554D01*
X28014002Y-15471408D01*
X28113892Y-15524801D01*
X28222280Y-15557680D01*
X28335000Y-15568782D01*
X28636176Y-15567276D01*
X28598532Y-15578695D01*
X28446524Y-15659944D01*
X28313288Y-15769288D01*
X28203944Y-15902524D01*
X28122695Y-16054532D01*
X28072661Y-16219470D01*
X28055767Y-16391000D01*
X28068030Y-16515507D01*
X24588539Y-19995000D01*
X20231461Y-19995000D01*
X21835461Y-18391000D01*
X22213767Y-18391000D01*
X22230661Y-18562530D01*
X22280695Y-18727468D01*
X22361944Y-18879476D01*
X22471288Y-19012712D01*
X22604524Y-19122056D01*
X22756532Y-19203305D01*
X22921470Y-19253339D01*
X23050021Y-19266000D01*
X23685979Y-19266000D01*
X23814530Y-19253339D01*
X23979468Y-19203305D01*
X24131476Y-19122056D01*
X24264712Y-19012712D01*
X24374056Y-18879476D01*
X24455305Y-18727468D01*
X24505339Y-18562530D01*
X24522233Y-18391000D01*
X24505339Y-18219470D01*
X24455305Y-18054532D01*
X24374056Y-17902524D01*
X24264712Y-17769288D01*
X24131476Y-17659944D01*
X23979468Y-17578695D01*
X23814530Y-17528661D01*
X23685979Y-17516000D01*
X23050021Y-17516000D01*
X22921470Y-17528661D01*
X22756532Y-17578695D01*
X22604524Y-17659944D01*
X22471288Y-17769288D01*
X22361944Y-17902524D01*
X22280695Y-18054532D01*
X22230661Y-18219470D01*
X22213767Y-18391000D01*
X21835461Y-18391000D01*
X22968492Y-17257970D01*
X23050021Y-17266000D01*
X23685979Y-17266000D01*
X23814530Y-17253339D01*
X23979468Y-17203305D01*
X24131476Y-17122056D01*
X24264712Y-17012712D01*
X24374056Y-16879476D01*
X24455305Y-16727468D01*
X24505339Y-16562530D01*
X24522233Y-16391000D01*
X24505339Y-16219470D01*
X24455305Y-16054532D01*
X24374056Y-15902524D01*
X24264712Y-15769288D01*
X24131476Y-15659944D01*
X23979468Y-15578695D01*
X23941824Y-15567276D01*
X24243000Y-15568782D01*
X24355720Y-15557680D01*
X24464108Y-15524801D01*
X24563998Y-15471408D01*
X24651554Y-15399554D01*
X24723408Y-15311998D01*
X24776801Y-15212108D01*
X24809680Y-15103720D01*
X24820782Y-14991000D01*
X24818000Y-14709750D01*
X24674250Y-14566000D01*
X23543000Y-14566000D01*
X23543000Y-14586000D01*
X23193000Y-14586000D01*
X23193000Y-14566000D01*
X22061750Y-14566000D01*
X21918000Y-14709750D01*
X21915218Y-14991000D01*
X21926320Y-15103720D01*
X21959199Y-15212108D01*
X22012592Y-15311998D01*
X22084446Y-15399554D01*
X22172002Y-15471408D01*
X22271892Y-15524801D01*
X22380280Y-15557680D01*
X22493000Y-15568782D01*
X22794176Y-15567276D01*
X22756532Y-15578695D01*
X22604524Y-15659944D01*
X22471288Y-15769288D01*
X22361944Y-15902524D01*
X22280695Y-16054532D01*
X22230661Y-16219470D01*
X22213767Y-16391000D01*
X22226030Y-16515508D01*
X19125519Y-19616020D01*
X14768441Y-19616020D01*
X15993461Y-18391000D01*
X16371767Y-18391000D01*
X16388661Y-18562530D01*
X16438695Y-18727468D01*
X16519944Y-18879476D01*
X16629288Y-19012712D01*
X16762524Y-19122056D01*
X16914532Y-19203305D01*
X17079470Y-19253339D01*
X17208021Y-19266000D01*
X17843979Y-19266000D01*
X17972530Y-19253339D01*
X18137468Y-19203305D01*
X18289476Y-19122056D01*
X18422712Y-19012712D01*
X18532056Y-18879476D01*
X18613305Y-18727468D01*
X18663339Y-18562530D01*
X18680233Y-18391000D01*
X18663339Y-18219470D01*
X18613305Y-18054532D01*
X18532056Y-17902524D01*
X18422712Y-17769288D01*
X18289476Y-17659944D01*
X18137468Y-17578695D01*
X17972530Y-17528661D01*
X17843979Y-17516000D01*
X17208021Y-17516000D01*
X17079470Y-17528661D01*
X16914532Y-17578695D01*
X16762524Y-17659944D01*
X16629288Y-17769288D01*
X16519944Y-17902524D01*
X16438695Y-18054532D01*
X16388661Y-18219470D01*
X16371767Y-18391000D01*
X15993461Y-18391000D01*
X17126492Y-17257970D01*
X17208021Y-17266000D01*
X17843979Y-17266000D01*
X17972530Y-17253339D01*
X18137468Y-17203305D01*
X18289476Y-17122056D01*
X18422712Y-17012712D01*
X18532056Y-16879476D01*
X18613305Y-16727468D01*
X18663339Y-16562530D01*
X18680233Y-16391000D01*
X18663339Y-16219470D01*
X18613305Y-16054532D01*
X18532056Y-15902524D01*
X18422712Y-15769288D01*
X18289476Y-15659944D01*
X18137468Y-15578695D01*
X18099824Y-15567276D01*
X18401000Y-15568782D01*
X18513720Y-15557680D01*
X18622108Y-15524801D01*
X18721998Y-15471408D01*
X18809554Y-15399554D01*
X18881408Y-15311998D01*
X18934801Y-15212108D01*
X18967680Y-15103720D01*
X18978782Y-14991000D01*
X18976000Y-14709750D01*
X18832250Y-14566000D01*
X17701000Y-14566000D01*
X17701000Y-14586000D01*
X17351000Y-14586000D01*
X17351000Y-14566000D01*
X16219750Y-14566000D01*
X16076000Y-14709750D01*
X16073218Y-14991000D01*
X16084320Y-15103720D01*
X16117199Y-15212108D01*
X16170592Y-15311998D01*
X16242446Y-15399554D01*
X16330002Y-15471408D01*
X16429892Y-15524801D01*
X16538280Y-15557680D01*
X16651000Y-15568782D01*
X16952176Y-15567276D01*
X16914532Y-15578695D01*
X16762524Y-15659944D01*
X16629288Y-15769288D01*
X16519944Y-15902524D01*
X16438695Y-16054532D01*
X16388661Y-16219470D01*
X16371767Y-16391000D01*
X16384030Y-16515508D01*
X13983529Y-18916010D01*
X12660073Y-18916010D01*
X12690056Y-18879476D01*
X12771305Y-18727468D01*
X12821339Y-18562530D01*
X12838233Y-18391000D01*
X12821339Y-18219470D01*
X12771305Y-18054532D01*
X12690056Y-17902524D01*
X12580712Y-17769288D01*
X12447476Y-17659944D01*
X12295468Y-17578695D01*
X12130530Y-17528661D01*
X12001979Y-17516000D01*
X11366021Y-17516000D01*
X11237470Y-17528661D01*
X11072532Y-17578695D01*
X10920524Y-17659944D01*
X10787288Y-17769288D01*
X10677944Y-17902524D01*
X10596695Y-18054532D01*
X10546661Y-18219470D01*
X10529767Y-18391000D01*
X10546661Y-18562530D01*
X10551736Y-18579259D01*
X8699475Y-16726999D01*
X8683031Y-16706962D01*
X8603090Y-16641356D01*
X8511885Y-16592606D01*
X8412922Y-16562586D01*
X8335792Y-16554989D01*
X8335784Y-16554989D01*
X8310004Y-16552450D01*
X8284224Y-16554989D01*
X5867451Y-16554989D01*
X4884806Y-15572344D01*
X4918722Y-15460538D01*
X4940443Y-15240000D01*
X4918722Y-15019462D01*
X4854393Y-14807398D01*
X4749929Y-14611960D01*
X4609344Y-14440656D01*
X4438040Y-14300071D01*
X4242602Y-14195607D01*
X4030538Y-14131278D01*
X3865264Y-14115000D01*
X3754736Y-14115000D01*
X3589462Y-14131278D01*
X3377398Y-14195607D01*
X3181960Y-14300071D01*
X3010656Y-14440656D01*
X2870071Y-14611960D01*
X2765607Y-14807398D01*
X2701278Y-15019462D01*
X2695000Y-15083204D01*
X2695000Y-15064998D01*
X2539244Y-15064998D01*
X2639427Y-14845923D01*
X2627581Y-14806847D01*
X2516991Y-14550319D01*
X2358480Y-14320295D01*
X2158140Y-14125615D01*
X1923669Y-13973760D01*
X1914210Y-13970000D01*
X1923669Y-13966240D01*
X2158140Y-13814385D01*
X2358480Y-13619705D01*
X2516991Y-13389681D01*
X2627581Y-13133153D01*
X2639427Y-13094077D01*
X2539244Y-12875002D01*
X2695000Y-12875002D01*
X2695000Y-12856796D01*
X2701278Y-12920538D01*
X2765607Y-13132602D01*
X2870071Y-13328040D01*
X3010656Y-13499344D01*
X3181960Y-13639929D01*
X3377398Y-13744393D01*
X3589462Y-13808722D01*
X3754736Y-13825000D01*
X3865264Y-13825000D01*
X4030538Y-13808722D01*
X4142344Y-13774806D01*
X4161544Y-13794006D01*
X4172616Y-13830506D01*
X4221366Y-13921711D01*
X4286972Y-14001652D01*
X4307008Y-14018095D01*
X5932908Y-15643996D01*
X5949347Y-15664027D01*
X6029288Y-15729633D01*
X6120493Y-15778383D01*
X6219456Y-15808403D01*
X6296586Y-15816000D01*
X6296593Y-15816000D01*
X6322373Y-15818539D01*
X6348153Y-15816000D01*
X10091539Y-15816000D01*
X10542030Y-16266491D01*
X10529767Y-16391000D01*
X10546661Y-16562530D01*
X10596695Y-16727468D01*
X10677944Y-16879476D01*
X10787288Y-17012712D01*
X10920524Y-17122056D01*
X11072532Y-17203305D01*
X11237470Y-17253339D01*
X11366021Y-17266000D01*
X12001979Y-17266000D01*
X12130530Y-17253339D01*
X12295468Y-17203305D01*
X12447476Y-17122056D01*
X12580712Y-17012712D01*
X12690056Y-16879476D01*
X12771305Y-16727468D01*
X12821339Y-16562530D01*
X12838233Y-16391000D01*
X12821339Y-16219470D01*
X12771305Y-16054532D01*
X12690056Y-15902524D01*
X12580712Y-15769288D01*
X12447476Y-15659944D01*
X12295468Y-15578695D01*
X12257824Y-15567276D01*
X12559000Y-15568782D01*
X12671720Y-15557680D01*
X12780108Y-15524801D01*
X12879998Y-15471408D01*
X12967554Y-15399554D01*
X13039408Y-15311998D01*
X13092801Y-15212108D01*
X13125680Y-15103720D01*
X13136782Y-14991000D01*
X13134000Y-14709750D01*
X12990250Y-14566000D01*
X11859000Y-14566000D01*
X11859000Y-14586000D01*
X11509000Y-14586000D01*
X11509000Y-14566000D01*
X10377750Y-14566000D01*
X10234000Y-14709750D01*
X10233444Y-14766000D01*
X8262191Y-14766000D01*
X8262782Y-14760000D01*
X8260000Y-14591250D01*
X8116250Y-14447500D01*
X7160000Y-14447500D01*
X7160000Y-14467500D01*
X6810000Y-14467500D01*
X6810000Y-14447500D01*
X6790000Y-14447500D01*
X6790000Y-14097500D01*
X6810000Y-14097500D01*
X6810000Y-13353750D01*
X7160000Y-13353750D01*
X7160000Y-14097500D01*
X8116250Y-14097500D01*
X8260000Y-13953750D01*
X8262683Y-13791000D01*
X10231218Y-13791000D01*
X10234000Y-14072250D01*
X10377750Y-14216000D01*
X11509000Y-14216000D01*
X11509000Y-13359750D01*
X11859000Y-13359750D01*
X11859000Y-14216000D01*
X12990250Y-14216000D01*
X13134000Y-14072250D01*
X13136782Y-13791000D01*
X16073218Y-13791000D01*
X16076000Y-14072250D01*
X16219750Y-14216000D01*
X17351000Y-14216000D01*
X17351000Y-13359750D01*
X17701000Y-13359750D01*
X17701000Y-14216000D01*
X18832250Y-14216000D01*
X18976000Y-14072250D01*
X18978782Y-13791000D01*
X21915218Y-13791000D01*
X21918000Y-14072250D01*
X22061750Y-14216000D01*
X23193000Y-14216000D01*
X23193000Y-13359750D01*
X23543000Y-13359750D01*
X23543000Y-14216000D01*
X24674250Y-14216000D01*
X24818000Y-14072250D01*
X24820782Y-13791000D01*
X27757218Y-13791000D01*
X27760000Y-14072250D01*
X27903750Y-14216000D01*
X29035000Y-14216000D01*
X29035000Y-13359750D01*
X28891250Y-13216000D01*
X28335000Y-13213218D01*
X28222280Y-13224320D01*
X28113892Y-13257199D01*
X28014002Y-13310592D01*
X27926446Y-13382446D01*
X27854592Y-13470002D01*
X27801199Y-13569892D01*
X27768320Y-13678280D01*
X27757218Y-13791000D01*
X24820782Y-13791000D01*
X24809680Y-13678280D01*
X24776801Y-13569892D01*
X24723408Y-13470002D01*
X24651554Y-13382446D01*
X24563998Y-13310592D01*
X24464108Y-13257199D01*
X24355720Y-13224320D01*
X24243000Y-13213218D01*
X23686750Y-13216000D01*
X23543000Y-13359750D01*
X23193000Y-13359750D01*
X23049250Y-13216000D01*
X22493000Y-13213218D01*
X22380280Y-13224320D01*
X22271892Y-13257199D01*
X22172002Y-13310592D01*
X22084446Y-13382446D01*
X22012592Y-13470002D01*
X21959199Y-13569892D01*
X21926320Y-13678280D01*
X21915218Y-13791000D01*
X18978782Y-13791000D01*
X18967680Y-13678280D01*
X18934801Y-13569892D01*
X18881408Y-13470002D01*
X18809554Y-13382446D01*
X18721998Y-13310592D01*
X18622108Y-13257199D01*
X18513720Y-13224320D01*
X18401000Y-13213218D01*
X17844750Y-13216000D01*
X17701000Y-13359750D01*
X17351000Y-13359750D01*
X17207250Y-13216000D01*
X16651000Y-13213218D01*
X16538280Y-13224320D01*
X16429892Y-13257199D01*
X16330002Y-13310592D01*
X16242446Y-13382446D01*
X16170592Y-13470002D01*
X16117199Y-13569892D01*
X16084320Y-13678280D01*
X16073218Y-13791000D01*
X13136782Y-13791000D01*
X13125680Y-13678280D01*
X13092801Y-13569892D01*
X13039408Y-13470002D01*
X12967554Y-13382446D01*
X12879998Y-13310592D01*
X12780108Y-13257199D01*
X12671720Y-13224320D01*
X12559000Y-13213218D01*
X12002750Y-13216000D01*
X11859000Y-13359750D01*
X11509000Y-13359750D01*
X11365250Y-13216000D01*
X10809000Y-13213218D01*
X10696280Y-13224320D01*
X10587892Y-13257199D01*
X10488002Y-13310592D01*
X10400446Y-13382446D01*
X10328592Y-13470002D01*
X10275199Y-13569892D01*
X10242320Y-13678280D01*
X10231218Y-13791000D01*
X8262683Y-13791000D01*
X8262782Y-13785000D01*
X8251680Y-13672280D01*
X8218801Y-13563892D01*
X8165408Y-13464002D01*
X8093554Y-13376446D01*
X8005998Y-13304592D01*
X7906108Y-13251199D01*
X7797720Y-13218320D01*
X7685000Y-13207218D01*
X7303750Y-13210000D01*
X7160000Y-13353750D01*
X6810000Y-13353750D01*
X6666250Y-13210000D01*
X6285000Y-13207218D01*
X6172280Y-13218320D01*
X6063892Y-13251199D01*
X5964002Y-13304592D01*
X5876446Y-13376446D01*
X5804592Y-13464002D01*
X5751199Y-13563892D01*
X5718320Y-13672280D01*
X5707218Y-13785000D01*
X5709705Y-13935870D01*
X5158455Y-13384619D01*
X5147382Y-13348118D01*
X5098632Y-13256913D01*
X5033026Y-13176972D01*
X5012995Y-13160533D01*
X4884806Y-13032344D01*
X4918722Y-12920538D01*
X4940443Y-12700000D01*
X4918722Y-12479462D01*
X4854393Y-12267398D01*
X4749929Y-12071960D01*
X4609344Y-11900656D01*
X4438040Y-11760071D01*
X4242602Y-11655607D01*
X4030538Y-11591278D01*
X3865264Y-11575000D01*
X3754736Y-11575000D01*
X3589462Y-11591278D01*
X3377398Y-11655607D01*
X3181960Y-11760071D01*
X3010656Y-11900656D01*
X2870071Y-12071960D01*
X2765607Y-12267398D01*
X2701278Y-12479462D01*
X2695000Y-12543204D01*
X2695000Y-12524998D01*
X2539244Y-12524998D01*
X2639427Y-12305923D01*
X2627581Y-12266847D01*
X2516991Y-12010319D01*
X2358480Y-11780295D01*
X2158140Y-11585615D01*
X1923669Y-11433760D01*
X1914210Y-11430000D01*
X1923669Y-11426240D01*
X2158140Y-11274385D01*
X2358480Y-11079705D01*
X2516991Y-10849681D01*
X2627581Y-10593153D01*
X2639427Y-10554077D01*
X2539244Y-10335002D01*
X2695000Y-10335002D01*
X2695000Y-10316796D01*
X2701278Y-10380538D01*
X2765607Y-10592602D01*
X2870071Y-10788040D01*
X3010656Y-10959344D01*
X3181960Y-11099929D01*
X3377398Y-11204393D01*
X3589462Y-11268722D01*
X3754736Y-11285000D01*
X3865264Y-11285000D01*
X4030538Y-11268722D01*
X4242602Y-11204393D01*
X4438040Y-11099929D01*
X4609344Y-10959344D01*
X4749929Y-10788040D01*
X4854393Y-10592602D01*
X4918722Y-10380538D01*
X4934656Y-10218750D01*
X6008670Y-10218750D01*
X6008670Y-10706250D01*
X6018663Y-10807713D01*
X6048259Y-10905276D01*
X6096319Y-10995191D01*
X6160998Y-11074002D01*
X6239809Y-11138681D01*
X6329724Y-11186741D01*
X6427287Y-11216337D01*
X6460000Y-11219559D01*
X6460001Y-11640441D01*
X6427287Y-11643663D01*
X6329724Y-11673259D01*
X6239809Y-11721319D01*
X6160998Y-11785998D01*
X6096319Y-11864809D01*
X6048259Y-11954724D01*
X6018663Y-12052287D01*
X6008670Y-12153750D01*
X6008670Y-12641250D01*
X6018663Y-12742713D01*
X6048259Y-12840276D01*
X6096319Y-12930191D01*
X6160998Y-13009002D01*
X6239809Y-13073681D01*
X6329724Y-13121741D01*
X6427287Y-13151337D01*
X6528750Y-13161330D01*
X7441250Y-13161330D01*
X7542713Y-13151337D01*
X7640276Y-13121741D01*
X7730191Y-13073681D01*
X7809002Y-13009002D01*
X7873681Y-12930191D01*
X7921741Y-12840276D01*
X7951337Y-12742713D01*
X7961330Y-12641250D01*
X7961330Y-12153750D01*
X7951337Y-12052287D01*
X7921741Y-11954724D01*
X7873681Y-11864809D01*
X7809002Y-11785998D01*
X7730191Y-11721319D01*
X7640276Y-11673259D01*
X7542713Y-11643663D01*
X7510000Y-11640441D01*
X7510000Y-11219559D01*
X7542713Y-11216337D01*
X7640276Y-11186741D01*
X7730191Y-11138681D01*
X7809002Y-11074002D01*
X7873681Y-10995191D01*
X7921741Y-10905276D01*
X7951337Y-10807713D01*
X7961330Y-10706250D01*
X7961330Y-10218750D01*
X7951337Y-10117287D01*
X7921741Y-10019724D01*
X7873681Y-9929809D01*
X7809002Y-9850998D01*
X7730191Y-9786319D01*
X7640276Y-9738259D01*
X7542713Y-9708663D01*
X7441250Y-9698670D01*
X6528750Y-9698670D01*
X6427287Y-9708663D01*
X6329724Y-9738259D01*
X6239809Y-9786319D01*
X6160998Y-9850998D01*
X6096319Y-9929809D01*
X6048259Y-10019724D01*
X6018663Y-10117287D01*
X6008670Y-10218750D01*
X4934656Y-10218750D01*
X4940443Y-10160000D01*
X4918722Y-9939462D01*
X4884806Y-9827656D01*
X5012995Y-9699467D01*
X5033026Y-9683028D01*
X5098632Y-9603087D01*
X5147382Y-9511882D01*
X5158455Y-9475381D01*
X6008670Y-8625166D01*
X6008670Y-8831250D01*
X6008670Y-8831250D01*
G37*
X6008670Y-8831250D02*
X6018663Y-8932713D01*
X6048259Y-9030276D01*
X6096319Y-9120191D01*
X6160998Y-9199002D01*
X6239809Y-9263681D01*
X6329724Y-9311741D01*
X6427287Y-9341337D01*
X6528750Y-9351330D01*
X7006368Y-9351330D01*
X7151770Y-9496732D01*
X7168210Y-9516764D01*
X7248151Y-9582370D01*
X7339356Y-9631120D01*
X7438319Y-9661140D01*
X7515449Y-9668737D01*
X7515457Y-9668737D01*
X7541237Y-9671276D01*
X7567017Y-9668737D01*
X8396317Y-9668737D01*
X9700575Y-10972996D01*
X9717014Y-10993027D01*
X9796955Y-11058633D01*
X9888160Y-11107383D01*
X9987123Y-11137403D01*
X10064253Y-11145000D01*
X10064260Y-11145000D01*
X10090040Y-11147539D01*
X10115820Y-11145000D01*
X25398184Y-11145000D01*
X25423964Y-11147539D01*
X25449744Y-11145000D01*
X25449752Y-11145000D01*
X25526882Y-11137403D01*
X25625845Y-11107383D01*
X25717050Y-11058633D01*
X25796991Y-10993027D01*
X25813435Y-10972990D01*
X27675086Y-9111338D01*
X27740418Y-9104903D01*
X27809515Y-9083943D01*
X27935875Y-9320343D01*
X28078693Y-9494367D01*
X28165685Y-9581360D01*
X28213445Y-9639555D01*
X28445656Y-9830126D01*
X28710584Y-9971733D01*
X28998048Y-10058934D01*
X29222089Y-10081000D01*
X29222090Y-10081000D01*
X29297000Y-10088378D01*
X29371911Y-10081000D01*
X32277001Y-10081000D01*
X32277000Y-12776884D01*
X32223573Y-12771622D01*
X32148662Y-12779000D01*
X31924621Y-12801066D01*
X31637157Y-12888267D01*
X31372229Y-13029874D01*
X31140018Y-13220445D01*
X31092260Y-13278638D01*
X30655351Y-13715548D01*
X30651680Y-13678280D01*
X30618801Y-13569892D01*
X30565408Y-13470002D01*
X30493554Y-13382446D01*
X30405998Y-13310592D01*
X30306108Y-13257199D01*
X30197720Y-13224320D01*
X30085000Y-13213218D01*
X29528750Y-13216000D01*
X29385000Y-13359750D01*
X29385000Y-14216000D01*
X29405000Y-14216000D01*
X29405000Y-14566000D01*
X29385000Y-14566000D01*
X29385000Y-14586000D01*
X29035000Y-14586000D01*
X29035000Y-14566000D01*
X27903750Y-14566000D01*
X27760000Y-14709750D01*
X27757218Y-14991000D01*
X27768320Y-15103720D01*
X27801199Y-15212108D01*
X27854592Y-15311998D01*
X27926446Y-15399554D01*
X28014002Y-15471408D01*
X28113892Y-15524801D01*
X28222280Y-15557680D01*
X28335000Y-15568782D01*
X28636176Y-15567276D01*
X28598532Y-15578695D01*
X28446524Y-15659944D01*
X28313288Y-15769288D01*
X28203944Y-15902524D01*
X28122695Y-16054532D01*
X28072661Y-16219470D01*
X28055767Y-16391000D01*
X28068030Y-16515507D01*
X24588539Y-19995000D01*
X20231461Y-19995000D01*
X21835461Y-18391000D01*
X22213767Y-18391000D01*
X22230661Y-18562530D01*
X22280695Y-18727468D01*
X22361944Y-18879476D01*
X22471288Y-19012712D01*
X22604524Y-19122056D01*
X22756532Y-19203305D01*
X22921470Y-19253339D01*
X23050021Y-19266000D01*
X23685979Y-19266000D01*
X23814530Y-19253339D01*
X23979468Y-19203305D01*
X24131476Y-19122056D01*
X24264712Y-19012712D01*
X24374056Y-18879476D01*
X24455305Y-18727468D01*
X24505339Y-18562530D01*
X24522233Y-18391000D01*
X24505339Y-18219470D01*
X24455305Y-18054532D01*
X24374056Y-17902524D01*
X24264712Y-17769288D01*
X24131476Y-17659944D01*
X23979468Y-17578695D01*
X23814530Y-17528661D01*
X23685979Y-17516000D01*
X23050021Y-17516000D01*
X22921470Y-17528661D01*
X22756532Y-17578695D01*
X22604524Y-17659944D01*
X22471288Y-17769288D01*
X22361944Y-17902524D01*
X22280695Y-18054532D01*
X22230661Y-18219470D01*
X22213767Y-18391000D01*
X21835461Y-18391000D01*
X22968492Y-17257970D01*
X23050021Y-17266000D01*
X23685979Y-17266000D01*
X23814530Y-17253339D01*
X23979468Y-17203305D01*
X24131476Y-17122056D01*
X24264712Y-17012712D01*
X24374056Y-16879476D01*
X24455305Y-16727468D01*
X24505339Y-16562530D01*
X24522233Y-16391000D01*
X24505339Y-16219470D01*
X24455305Y-16054532D01*
X24374056Y-15902524D01*
X24264712Y-15769288D01*
X24131476Y-15659944D01*
X23979468Y-15578695D01*
X23941824Y-15567276D01*
X24243000Y-15568782D01*
X24355720Y-15557680D01*
X24464108Y-15524801D01*
X24563998Y-15471408D01*
X24651554Y-15399554D01*
X24723408Y-15311998D01*
X24776801Y-15212108D01*
X24809680Y-15103720D01*
X24820782Y-14991000D01*
X24818000Y-14709750D01*
X24674250Y-14566000D01*
X23543000Y-14566000D01*
X23543000Y-14586000D01*
X23193000Y-14586000D01*
X23193000Y-14566000D01*
X22061750Y-14566000D01*
X21918000Y-14709750D01*
X21915218Y-14991000D01*
X21926320Y-15103720D01*
X21959199Y-15212108D01*
X22012592Y-15311998D01*
X22084446Y-15399554D01*
X22172002Y-15471408D01*
X22271892Y-15524801D01*
X22380280Y-15557680D01*
X22493000Y-15568782D01*
X22794176Y-15567276D01*
X22756532Y-15578695D01*
X22604524Y-15659944D01*
X22471288Y-15769288D01*
X22361944Y-15902524D01*
X22280695Y-16054532D01*
X22230661Y-16219470D01*
X22213767Y-16391000D01*
X22226030Y-16515508D01*
X19125519Y-19616020D01*
X14768441Y-19616020D01*
X15993461Y-18391000D01*
X16371767Y-18391000D01*
X16388661Y-18562530D01*
X16438695Y-18727468D01*
X16519944Y-18879476D01*
X16629288Y-19012712D01*
X16762524Y-19122056D01*
X16914532Y-19203305D01*
X17079470Y-19253339D01*
X17208021Y-19266000D01*
X17843979Y-19266000D01*
X17972530Y-19253339D01*
X18137468Y-19203305D01*
X18289476Y-19122056D01*
X18422712Y-19012712D01*
X18532056Y-18879476D01*
X18613305Y-18727468D01*
X18663339Y-18562530D01*
X18680233Y-18391000D01*
X18663339Y-18219470D01*
X18613305Y-18054532D01*
X18532056Y-17902524D01*
X18422712Y-17769288D01*
X18289476Y-17659944D01*
X18137468Y-17578695D01*
X17972530Y-17528661D01*
X17843979Y-17516000D01*
X17208021Y-17516000D01*
X17079470Y-17528661D01*
X16914532Y-17578695D01*
X16762524Y-17659944D01*
X16629288Y-17769288D01*
X16519944Y-17902524D01*
X16438695Y-18054532D01*
X16388661Y-18219470D01*
X16371767Y-18391000D01*
X15993461Y-18391000D01*
X17126492Y-17257970D01*
X17208021Y-17266000D01*
X17843979Y-17266000D01*
X17972530Y-17253339D01*
X18137468Y-17203305D01*
X18289476Y-17122056D01*
X18422712Y-17012712D01*
X18532056Y-16879476D01*
X18613305Y-16727468D01*
X18663339Y-16562530D01*
X18680233Y-16391000D01*
X18663339Y-16219470D01*
X18613305Y-16054532D01*
X18532056Y-15902524D01*
X18422712Y-15769288D01*
X18289476Y-15659944D01*
X18137468Y-15578695D01*
X18099824Y-15567276D01*
X18401000Y-15568782D01*
X18513720Y-15557680D01*
X18622108Y-15524801D01*
X18721998Y-15471408D01*
X18809554Y-15399554D01*
X18881408Y-15311998D01*
X18934801Y-15212108D01*
X18967680Y-15103720D01*
X18978782Y-14991000D01*
X18976000Y-14709750D01*
X18832250Y-14566000D01*
X17701000Y-14566000D01*
X17701000Y-14586000D01*
X17351000Y-14586000D01*
X17351000Y-14566000D01*
X16219750Y-14566000D01*
X16076000Y-14709750D01*
X16073218Y-14991000D01*
X16084320Y-15103720D01*
X16117199Y-15212108D01*
X16170592Y-15311998D01*
X16242446Y-15399554D01*
X16330002Y-15471408D01*
X16429892Y-15524801D01*
X16538280Y-15557680D01*
X16651000Y-15568782D01*
X16952176Y-15567276D01*
X16914532Y-15578695D01*
X16762524Y-15659944D01*
X16629288Y-15769288D01*
X16519944Y-15902524D01*
X16438695Y-16054532D01*
X16388661Y-16219470D01*
X16371767Y-16391000D01*
X16384030Y-16515508D01*
X13983529Y-18916010D01*
X12660073Y-18916010D01*
X12690056Y-18879476D01*
X12771305Y-18727468D01*
X12821339Y-18562530D01*
X12838233Y-18391000D01*
X12821339Y-18219470D01*
X12771305Y-18054532D01*
X12690056Y-17902524D01*
X12580712Y-17769288D01*
X12447476Y-17659944D01*
X12295468Y-17578695D01*
X12130530Y-17528661D01*
X12001979Y-17516000D01*
X11366021Y-17516000D01*
X11237470Y-17528661D01*
X11072532Y-17578695D01*
X10920524Y-17659944D01*
X10787288Y-17769288D01*
X10677944Y-17902524D01*
X10596695Y-18054532D01*
X10546661Y-18219470D01*
X10529767Y-18391000D01*
X10546661Y-18562530D01*
X10551736Y-18579259D01*
X8699475Y-16726999D01*
X8683031Y-16706962D01*
X8603090Y-16641356D01*
X8511885Y-16592606D01*
X8412922Y-16562586D01*
X8335792Y-16554989D01*
X8335784Y-16554989D01*
X8310004Y-16552450D01*
X8284224Y-16554989D01*
X5867451Y-16554989D01*
X4884806Y-15572344D01*
X4918722Y-15460538D01*
X4940443Y-15240000D01*
X4918722Y-15019462D01*
X4854393Y-14807398D01*
X4749929Y-14611960D01*
X4609344Y-14440656D01*
X4438040Y-14300071D01*
X4242602Y-14195607D01*
X4030538Y-14131278D01*
X3865264Y-14115000D01*
X3754736Y-14115000D01*
X3589462Y-14131278D01*
X3377398Y-14195607D01*
X3181960Y-14300071D01*
X3010656Y-14440656D01*
X2870071Y-14611960D01*
X2765607Y-14807398D01*
X2701278Y-15019462D01*
X2695000Y-15083204D01*
X2695000Y-15064998D01*
X2539244Y-15064998D01*
X2639427Y-14845923D01*
X2627581Y-14806847D01*
X2516991Y-14550319D01*
X2358480Y-14320295D01*
X2158140Y-14125615D01*
X1923669Y-13973760D01*
X1914210Y-13970000D01*
X1923669Y-13966240D01*
X2158140Y-13814385D01*
X2358480Y-13619705D01*
X2516991Y-13389681D01*
X2627581Y-13133153D01*
X2639427Y-13094077D01*
X2539244Y-12875002D01*
X2695000Y-12875002D01*
X2695000Y-12856796D01*
X2701278Y-12920538D01*
X2765607Y-13132602D01*
X2870071Y-13328040D01*
X3010656Y-13499344D01*
X3181960Y-13639929D01*
X3377398Y-13744393D01*
X3589462Y-13808722D01*
X3754736Y-13825000D01*
X3865264Y-13825000D01*
X4030538Y-13808722D01*
X4142344Y-13774806D01*
X4161544Y-13794006D01*
X4172616Y-13830506D01*
X4221366Y-13921711D01*
X4286972Y-14001652D01*
X4307008Y-14018095D01*
X5932908Y-15643996D01*
X5949347Y-15664027D01*
X6029288Y-15729633D01*
X6120493Y-15778383D01*
X6219456Y-15808403D01*
X6296586Y-15816000D01*
X6296593Y-15816000D01*
X6322373Y-15818539D01*
X6348153Y-15816000D01*
X10091539Y-15816000D01*
X10542030Y-16266491D01*
X10529767Y-16391000D01*
X10546661Y-16562530D01*
X10596695Y-16727468D01*
X10677944Y-16879476D01*
X10787288Y-17012712D01*
X10920524Y-17122056D01*
X11072532Y-17203305D01*
X11237470Y-17253339D01*
X11366021Y-17266000D01*
X12001979Y-17266000D01*
X12130530Y-17253339D01*
X12295468Y-17203305D01*
X12447476Y-17122056D01*
X12580712Y-17012712D01*
X12690056Y-16879476D01*
X12771305Y-16727468D01*
X12821339Y-16562530D01*
X12838233Y-16391000D01*
X12821339Y-16219470D01*
X12771305Y-16054532D01*
X12690056Y-15902524D01*
X12580712Y-15769288D01*
X12447476Y-15659944D01*
X12295468Y-15578695D01*
X12257824Y-15567276D01*
X12559000Y-15568782D01*
X12671720Y-15557680D01*
X12780108Y-15524801D01*
X12879998Y-15471408D01*
X12967554Y-15399554D01*
X13039408Y-15311998D01*
X13092801Y-15212108D01*
X13125680Y-15103720D01*
X13136782Y-14991000D01*
X13134000Y-14709750D01*
X12990250Y-14566000D01*
X11859000Y-14566000D01*
X11859000Y-14586000D01*
X11509000Y-14586000D01*
X11509000Y-14566000D01*
X10377750Y-14566000D01*
X10234000Y-14709750D01*
X10233444Y-14766000D01*
X8262191Y-14766000D01*
X8262782Y-14760000D01*
X8260000Y-14591250D01*
X8116250Y-14447500D01*
X7160000Y-14447500D01*
X7160000Y-14467500D01*
X6810000Y-14467500D01*
X6810000Y-14447500D01*
X6790000Y-14447500D01*
X6790000Y-14097500D01*
X6810000Y-14097500D01*
X6810000Y-13353750D01*
X7160000Y-13353750D01*
X7160000Y-14097500D01*
X8116250Y-14097500D01*
X8260000Y-13953750D01*
X8262683Y-13791000D01*
X10231218Y-13791000D01*
X10234000Y-14072250D01*
X10377750Y-14216000D01*
X11509000Y-14216000D01*
X11509000Y-13359750D01*
X11859000Y-13359750D01*
X11859000Y-14216000D01*
X12990250Y-14216000D01*
X13134000Y-14072250D01*
X13136782Y-13791000D01*
X16073218Y-13791000D01*
X16076000Y-14072250D01*
X16219750Y-14216000D01*
X17351000Y-14216000D01*
X17351000Y-13359750D01*
X17701000Y-13359750D01*
X17701000Y-14216000D01*
X18832250Y-14216000D01*
X18976000Y-14072250D01*
X18978782Y-13791000D01*
X21915218Y-13791000D01*
X21918000Y-14072250D01*
X22061750Y-14216000D01*
X23193000Y-14216000D01*
X23193000Y-13359750D01*
X23543000Y-13359750D01*
X23543000Y-14216000D01*
X24674250Y-14216000D01*
X24818000Y-14072250D01*
X24820782Y-13791000D01*
X27757218Y-13791000D01*
X27760000Y-14072250D01*
X27903750Y-14216000D01*
X29035000Y-14216000D01*
X29035000Y-13359750D01*
X28891250Y-13216000D01*
X28335000Y-13213218D01*
X28222280Y-13224320D01*
X28113892Y-13257199D01*
X28014002Y-13310592D01*
X27926446Y-13382446D01*
X27854592Y-13470002D01*
X27801199Y-13569892D01*
X27768320Y-13678280D01*
X27757218Y-13791000D01*
X24820782Y-13791000D01*
X24809680Y-13678280D01*
X24776801Y-13569892D01*
X24723408Y-13470002D01*
X24651554Y-13382446D01*
X24563998Y-13310592D01*
X24464108Y-13257199D01*
X24355720Y-13224320D01*
X24243000Y-13213218D01*
X23686750Y-13216000D01*
X23543000Y-13359750D01*
X23193000Y-13359750D01*
X23049250Y-13216000D01*
X22493000Y-13213218D01*
X22380280Y-13224320D01*
X22271892Y-13257199D01*
X22172002Y-13310592D01*
X22084446Y-13382446D01*
X22012592Y-13470002D01*
X21959199Y-13569892D01*
X21926320Y-13678280D01*
X21915218Y-13791000D01*
X18978782Y-13791000D01*
X18967680Y-13678280D01*
X18934801Y-13569892D01*
X18881408Y-13470002D01*
X18809554Y-13382446D01*
X18721998Y-13310592D01*
X18622108Y-13257199D01*
X18513720Y-13224320D01*
X18401000Y-13213218D01*
X17844750Y-13216000D01*
X17701000Y-13359750D01*
X17351000Y-13359750D01*
X17207250Y-13216000D01*
X16651000Y-13213218D01*
X16538280Y-13224320D01*
X16429892Y-13257199D01*
X16330002Y-13310592D01*
X16242446Y-13382446D01*
X16170592Y-13470002D01*
X16117199Y-13569892D01*
X16084320Y-13678280D01*
X16073218Y-13791000D01*
X13136782Y-13791000D01*
X13125680Y-13678280D01*
X13092801Y-13569892D01*
X13039408Y-13470002D01*
X12967554Y-13382446D01*
X12879998Y-13310592D01*
X12780108Y-13257199D01*
X12671720Y-13224320D01*
X12559000Y-13213218D01*
X12002750Y-13216000D01*
X11859000Y-13359750D01*
X11509000Y-13359750D01*
X11365250Y-13216000D01*
X10809000Y-13213218D01*
X10696280Y-13224320D01*
X10587892Y-13257199D01*
X10488002Y-13310592D01*
X10400446Y-13382446D01*
X10328592Y-13470002D01*
X10275199Y-13569892D01*
X10242320Y-13678280D01*
X10231218Y-13791000D01*
X8262683Y-13791000D01*
X8262782Y-13785000D01*
X8251680Y-13672280D01*
X8218801Y-13563892D01*
X8165408Y-13464002D01*
X8093554Y-13376446D01*
X8005998Y-13304592D01*
X7906108Y-13251199D01*
X7797720Y-13218320D01*
X7685000Y-13207218D01*
X7303750Y-13210000D01*
X7160000Y-13353750D01*
X6810000Y-13353750D01*
X6666250Y-13210000D01*
X6285000Y-13207218D01*
X6172280Y-13218320D01*
X6063892Y-13251199D01*
X5964002Y-13304592D01*
X5876446Y-13376446D01*
X5804592Y-13464002D01*
X5751199Y-13563892D01*
X5718320Y-13672280D01*
X5707218Y-13785000D01*
X5709705Y-13935870D01*
X5158455Y-13384619D01*
X5147382Y-13348118D01*
X5098632Y-13256913D01*
X5033026Y-13176972D01*
X5012995Y-13160533D01*
X4884806Y-13032344D01*
X4918722Y-12920538D01*
X4940443Y-12700000D01*
X4918722Y-12479462D01*
X4854393Y-12267398D01*
X4749929Y-12071960D01*
X4609344Y-11900656D01*
X4438040Y-11760071D01*
X4242602Y-11655607D01*
X4030538Y-11591278D01*
X3865264Y-11575000D01*
X3754736Y-11575000D01*
X3589462Y-11591278D01*
X3377398Y-11655607D01*
X3181960Y-11760071D01*
X3010656Y-11900656D01*
X2870071Y-12071960D01*
X2765607Y-12267398D01*
X2701278Y-12479462D01*
X2695000Y-12543204D01*
X2695000Y-12524998D01*
X2539244Y-12524998D01*
X2639427Y-12305923D01*
X2627581Y-12266847D01*
X2516991Y-12010319D01*
X2358480Y-11780295D01*
X2158140Y-11585615D01*
X1923669Y-11433760D01*
X1914210Y-11430000D01*
X1923669Y-11426240D01*
X2158140Y-11274385D01*
X2358480Y-11079705D01*
X2516991Y-10849681D01*
X2627581Y-10593153D01*
X2639427Y-10554077D01*
X2539244Y-10335002D01*
X2695000Y-10335002D01*
X2695000Y-10316796D01*
X2701278Y-10380538D01*
X2765607Y-10592602D01*
X2870071Y-10788040D01*
X3010656Y-10959344D01*
X3181960Y-11099929D01*
X3377398Y-11204393D01*
X3589462Y-11268722D01*
X3754736Y-11285000D01*
X3865264Y-11285000D01*
X4030538Y-11268722D01*
X4242602Y-11204393D01*
X4438040Y-11099929D01*
X4609344Y-10959344D01*
X4749929Y-10788040D01*
X4854393Y-10592602D01*
X4918722Y-10380538D01*
X4934656Y-10218750D01*
X6008670Y-10218750D01*
X6008670Y-10706250D01*
X6018663Y-10807713D01*
X6048259Y-10905276D01*
X6096319Y-10995191D01*
X6160998Y-11074002D01*
X6239809Y-11138681D01*
X6329724Y-11186741D01*
X6427287Y-11216337D01*
X6460000Y-11219559D01*
X6460001Y-11640441D01*
X6427287Y-11643663D01*
X6329724Y-11673259D01*
X6239809Y-11721319D01*
X6160998Y-11785998D01*
X6096319Y-11864809D01*
X6048259Y-11954724D01*
X6018663Y-12052287D01*
X6008670Y-12153750D01*
X6008670Y-12641250D01*
X6018663Y-12742713D01*
X6048259Y-12840276D01*
X6096319Y-12930191D01*
X6160998Y-13009002D01*
X6239809Y-13073681D01*
X6329724Y-13121741D01*
X6427287Y-13151337D01*
X6528750Y-13161330D01*
X7441250Y-13161330D01*
X7542713Y-13151337D01*
X7640276Y-13121741D01*
X7730191Y-13073681D01*
X7809002Y-13009002D01*
X7873681Y-12930191D01*
X7921741Y-12840276D01*
X7951337Y-12742713D01*
X7961330Y-12641250D01*
X7961330Y-12153750D01*
X7951337Y-12052287D01*
X7921741Y-11954724D01*
X7873681Y-11864809D01*
X7809002Y-11785998D01*
X7730191Y-11721319D01*
X7640276Y-11673259D01*
X7542713Y-11643663D01*
X7510000Y-11640441D01*
X7510000Y-11219559D01*
X7542713Y-11216337D01*
X7640276Y-11186741D01*
X7730191Y-11138681D01*
X7809002Y-11074002D01*
X7873681Y-10995191D01*
X7921741Y-10905276D01*
X7951337Y-10807713D01*
X7961330Y-10706250D01*
X7961330Y-10218750D01*
X7951337Y-10117287D01*
X7921741Y-10019724D01*
X7873681Y-9929809D01*
X7809002Y-9850998D01*
X7730191Y-9786319D01*
X7640276Y-9738259D01*
X7542713Y-9708663D01*
X7441250Y-9698670D01*
X6528750Y-9698670D01*
X6427287Y-9708663D01*
X6329724Y-9738259D01*
X6239809Y-9786319D01*
X6160998Y-9850998D01*
X6096319Y-9929809D01*
X6048259Y-10019724D01*
X6018663Y-10117287D01*
X6008670Y-10218750D01*
X4934656Y-10218750D01*
X4940443Y-10160000D01*
X4918722Y-9939462D01*
X4884806Y-9827656D01*
X5012995Y-9699467D01*
X5033026Y-9683028D01*
X5098632Y-9603087D01*
X5147382Y-9511882D01*
X5158455Y-9475381D01*
X6008670Y-8625166D01*
X6008670Y-8831250D01*
G36*
X2701278Y-15460538D02*
G01*
X2765607Y-15672602D01*
X2870071Y-15868040D01*
X3010656Y-16039344D01*
X3181960Y-16179929D01*
X3377398Y-16284393D01*
X3589462Y-16348722D01*
X3754736Y-16365000D01*
X3865264Y-16365000D01*
X4030538Y-16348722D01*
X4142344Y-16314806D01*
X5082538Y-17255000D01*
X4805005Y-17255000D01*
X4749929Y-17151960D01*
X4609344Y-16980656D01*
X4438040Y-16840071D01*
X4242602Y-16735607D01*
X4030538Y-16671278D01*
X3865264Y-16655000D01*
X3754736Y-16655000D01*
X3589462Y-16671278D01*
X3377398Y-16735607D01*
X3181960Y-16840071D01*
X3010656Y-16980656D01*
X2870071Y-17151960D01*
X2765607Y-17347398D01*
X2701278Y-17559462D01*
X2695000Y-17623204D01*
X2695000Y-17604998D01*
X2539244Y-17604998D01*
X2639427Y-17385923D01*
X2627581Y-17346847D01*
X2516991Y-17090319D01*
X2358480Y-16860295D01*
X2158140Y-16665615D01*
X1923669Y-16513760D01*
X1914210Y-16510000D01*
X1923669Y-16506240D01*
X2158140Y-16354385D01*
X2358480Y-16159705D01*
X2516991Y-15929681D01*
X2627581Y-15673153D01*
X2639427Y-15634077D01*
X2539244Y-15415002D01*
X2695000Y-15415002D01*
X2695000Y-15396796D01*
X2701278Y-15460538D01*
X2701278Y-15460538D01*
G37*
X2701278Y-15460538D02*
X2765607Y-15672602D01*
X2870071Y-15868040D01*
X3010656Y-16039344D01*
X3181960Y-16179929D01*
X3377398Y-16284393D01*
X3589462Y-16348722D01*
X3754736Y-16365000D01*
X3865264Y-16365000D01*
X4030538Y-16348722D01*
X4142344Y-16314806D01*
X5082538Y-17255000D01*
X4805005Y-17255000D01*
X4749929Y-17151960D01*
X4609344Y-16980656D01*
X4438040Y-16840071D01*
X4242602Y-16735607D01*
X4030538Y-16671278D01*
X3865264Y-16655000D01*
X3754736Y-16655000D01*
X3589462Y-16671278D01*
X3377398Y-16735607D01*
X3181960Y-16840071D01*
X3010656Y-16980656D01*
X2870071Y-17151960D01*
X2765607Y-17347398D01*
X2701278Y-17559462D01*
X2695000Y-17623204D01*
X2695000Y-17604998D01*
X2539244Y-17604998D01*
X2639427Y-17385923D01*
X2627581Y-17346847D01*
X2516991Y-17090319D01*
X2358480Y-16860295D01*
X2158140Y-16665615D01*
X1923669Y-16513760D01*
X1914210Y-16510000D01*
X1923669Y-16506240D01*
X2158140Y-16354385D01*
X2358480Y-16159705D01*
X2516991Y-15929681D01*
X2627581Y-15673153D01*
X2639427Y-15634077D01*
X2539244Y-15415002D01*
X2695000Y-15415002D01*
X2695000Y-15396796D01*
X2701278Y-15460538D01*
G36*
X5851918Y-7296994D02*
G01*
X4307008Y-8841905D01*
X4286972Y-8858348D01*
X4221366Y-8938289D01*
X4172616Y-9029494D01*
X4161544Y-9065994D01*
X4142344Y-9085194D01*
X4030538Y-9051278D01*
X3865264Y-9035000D01*
X3754736Y-9035000D01*
X3589462Y-9051278D01*
X3377398Y-9115607D01*
X3181960Y-9220071D01*
X3010656Y-9360656D01*
X2870071Y-9531960D01*
X2765607Y-9727398D01*
X2701278Y-9939462D01*
X2695000Y-10003204D01*
X2695000Y-9984998D01*
X2539244Y-9984998D01*
X2639427Y-9765923D01*
X2627581Y-9726847D01*
X2516991Y-9470319D01*
X2358480Y-9240295D01*
X2158140Y-9045615D01*
X1923669Y-8893760D01*
X1914210Y-8890000D01*
X1923669Y-8886240D01*
X2158140Y-8734385D01*
X2358480Y-8539705D01*
X2516991Y-8309681D01*
X2627581Y-8053153D01*
X2639427Y-8014077D01*
X2539244Y-7795002D01*
X2695000Y-7795002D01*
X2695000Y-7776796D01*
X2701278Y-7840538D01*
X2765607Y-8052602D01*
X2870071Y-8248040D01*
X3010656Y-8419344D01*
X3181960Y-8559929D01*
X3377398Y-8664393D01*
X3589462Y-8728722D01*
X3754736Y-8745000D01*
X3865264Y-8745000D01*
X4030538Y-8728722D01*
X4242602Y-8664393D01*
X4438040Y-8559929D01*
X4609344Y-8419344D01*
X4749929Y-8248040D01*
X4854393Y-8052602D01*
X4918722Y-7840538D01*
X4940443Y-7620000D01*
X4918722Y-7399462D01*
X4887034Y-7295001D01*
X5853554Y-7295001D01*
X5851918Y-7296994D01*
X5851918Y-7296994D01*
G37*
X5851918Y-7296994D02*
X4307008Y-8841905D01*
X4286972Y-8858348D01*
X4221366Y-8938289D01*
X4172616Y-9029494D01*
X4161544Y-9065994D01*
X4142344Y-9085194D01*
X4030538Y-9051278D01*
X3865264Y-9035000D01*
X3754736Y-9035000D01*
X3589462Y-9051278D01*
X3377398Y-9115607D01*
X3181960Y-9220071D01*
X3010656Y-9360656D01*
X2870071Y-9531960D01*
X2765607Y-9727398D01*
X2701278Y-9939462D01*
X2695000Y-10003204D01*
X2695000Y-9984998D01*
X2539244Y-9984998D01*
X2639427Y-9765923D01*
X2627581Y-9726847D01*
X2516991Y-9470319D01*
X2358480Y-9240295D01*
X2158140Y-9045615D01*
X1923669Y-8893760D01*
X1914210Y-8890000D01*
X1923669Y-8886240D01*
X2158140Y-8734385D01*
X2358480Y-8539705D01*
X2516991Y-8309681D01*
X2627581Y-8053153D01*
X2639427Y-8014077D01*
X2539244Y-7795002D01*
X2695000Y-7795002D01*
X2695000Y-7776796D01*
X2701278Y-7840538D01*
X2765607Y-8052602D01*
X2870071Y-8248040D01*
X3010656Y-8419344D01*
X3181960Y-8559929D01*
X3377398Y-8664393D01*
X3589462Y-8728722D01*
X3754736Y-8745000D01*
X3865264Y-8745000D01*
X4030538Y-8728722D01*
X4242602Y-8664393D01*
X4438040Y-8559929D01*
X4609344Y-8419344D01*
X4749929Y-8248040D01*
X4854393Y-8052602D01*
X4918722Y-7840538D01*
X4940443Y-7620000D01*
X4918722Y-7399462D01*
X4887034Y-7295001D01*
X5853554Y-7295001D01*
X5851918Y-7296994D01*
G36*
X2701278Y-5300538D02*
G01*
X2765607Y-5512602D01*
X2870071Y-5708040D01*
X3010656Y-5879344D01*
X3181960Y-6019929D01*
X3377398Y-6124393D01*
X3589462Y-6188722D01*
X3754736Y-6205000D01*
X3865264Y-6205000D01*
X4030538Y-6188722D01*
X4242602Y-6124393D01*
X4438040Y-6019929D01*
X4609344Y-5879344D01*
X4749929Y-5708040D01*
X4805005Y-5605000D01*
X7302468Y-5605000D01*
X7942469Y-6245001D01*
X4685778Y-6245001D01*
X4659998Y-6242462D01*
X4634218Y-6245001D01*
X4634211Y-6245001D01*
X4557081Y-6252598D01*
X4458118Y-6282618D01*
X4366913Y-6331368D01*
X4286972Y-6396974D01*
X4270533Y-6417005D01*
X4142344Y-6545194D01*
X4030538Y-6511278D01*
X3865264Y-6495000D01*
X3754736Y-6495000D01*
X3589462Y-6511278D01*
X3377398Y-6575607D01*
X3181960Y-6680071D01*
X3010656Y-6820656D01*
X2870071Y-6991960D01*
X2765607Y-7187398D01*
X2701278Y-7399462D01*
X2695000Y-7463204D01*
X2695000Y-7444998D01*
X2539244Y-7444998D01*
X2639427Y-7225923D01*
X2627581Y-7186847D01*
X2516991Y-6930319D01*
X2358480Y-6700295D01*
X2158140Y-6505615D01*
X1923669Y-6353760D01*
X1914210Y-6350000D01*
X1923669Y-6346240D01*
X2158140Y-6194385D01*
X2358480Y-5999705D01*
X2516991Y-5769681D01*
X2627581Y-5513153D01*
X2639427Y-5474077D01*
X2539244Y-5255002D01*
X2695000Y-5255002D01*
X2695000Y-5236796D01*
X2701278Y-5300538D01*
X2701278Y-5300538D01*
G37*
X2701278Y-5300538D02*
X2765607Y-5512602D01*
X2870071Y-5708040D01*
X3010656Y-5879344D01*
X3181960Y-6019929D01*
X3377398Y-6124393D01*
X3589462Y-6188722D01*
X3754736Y-6205000D01*
X3865264Y-6205000D01*
X4030538Y-6188722D01*
X4242602Y-6124393D01*
X4438040Y-6019929D01*
X4609344Y-5879344D01*
X4749929Y-5708040D01*
X4805005Y-5605000D01*
X7302468Y-5605000D01*
X7942469Y-6245001D01*
X4685778Y-6245001D01*
X4659998Y-6242462D01*
X4634218Y-6245001D01*
X4634211Y-6245001D01*
X4557081Y-6252598D01*
X4458118Y-6282618D01*
X4366913Y-6331368D01*
X4286972Y-6396974D01*
X4270533Y-6417005D01*
X4142344Y-6545194D01*
X4030538Y-6511278D01*
X3865264Y-6495000D01*
X3754736Y-6495000D01*
X3589462Y-6511278D01*
X3377398Y-6575607D01*
X3181960Y-6680071D01*
X3010656Y-6820656D01*
X2870071Y-6991960D01*
X2765607Y-7187398D01*
X2701278Y-7399462D01*
X2695000Y-7463204D01*
X2695000Y-7444998D01*
X2539244Y-7444998D01*
X2639427Y-7225923D01*
X2627581Y-7186847D01*
X2516991Y-6930319D01*
X2358480Y-6700295D01*
X2158140Y-6505615D01*
X1923669Y-6353760D01*
X1914210Y-6350000D01*
X1923669Y-6346240D01*
X2158140Y-6194385D01*
X2358480Y-5999705D01*
X2516991Y-5769681D01*
X2627581Y-5513153D01*
X2639427Y-5474077D01*
X2539244Y-5255002D01*
X2695000Y-5255002D01*
X2695000Y-5236796D01*
X2701278Y-5300538D01*
M02*
