G04 #@! TF.GenerationSoftware,KiCad,Pcbnew,(5.1.4)-1*
G04 #@! TF.CreationDate,2021-11-14T18:33:35-06:00*
G04 #@! TF.ProjectId,FadecandyHatV1.0,46616465-6361-46e6-9479-48617456312e,rev?*
G04 #@! TF.SameCoordinates,Original*
G04 #@! TF.FileFunction,Legend,Top*
G04 #@! TF.FilePolarity,Positive*
%FSLAX46Y46*%
G04 Gerber Fmt 4.6, Leading zero omitted, Abs format (unit mm)*
G04 Created by KiCad (PCBNEW (5.1.4)-1) date 2021-11-14 18:33:35*
%MOMM*%
%LPD*%
G04 APERTURE LIST*
%ADD10C,0.300000*%
%ADD11C,0.120000*%
%ADD12C,0.150000*%
G04 APERTURE END LIST*
D10*
X6699285Y-15688571D02*
X5985000Y-15688571D01*
X5913571Y-16402857D01*
X5985000Y-16331428D01*
X6127857Y-16260000D01*
X6485000Y-16260000D01*
X6627857Y-16331428D01*
X6699285Y-16402857D01*
X6770714Y-16545714D01*
X6770714Y-16902857D01*
X6699285Y-17045714D01*
X6627857Y-17117142D01*
X6485000Y-17188571D01*
X6127857Y-17188571D01*
X5985000Y-17117142D01*
X5913571Y-17045714D01*
X7199285Y-15688571D02*
X7699285Y-17188571D01*
X8199285Y-15688571D01*
X31250000Y-956571D02*
X32178571Y-956571D01*
X31678571Y-1528000D01*
X31892857Y-1528000D01*
X32035714Y-1599428D01*
X32107142Y-1670857D01*
X32178571Y-1813714D01*
X32178571Y-2170857D01*
X32107142Y-2313714D01*
X32035714Y-2385142D01*
X31892857Y-2456571D01*
X31464285Y-2456571D01*
X31321428Y-2385142D01*
X31250000Y-2313714D01*
X31250000Y-20387571D02*
X32250000Y-20387571D01*
X31607142Y-21887571D01*
X8035714Y-20506571D02*
X8035714Y-21506571D01*
X7678571Y-19935142D02*
X7321428Y-21006571D01*
X8250000Y-21006571D01*
X7821428Y-1178571D02*
X7678571Y-1178571D01*
X7535714Y-1250000D01*
X7464285Y-1321428D01*
X7392857Y-1464285D01*
X7321428Y-1750000D01*
X7321428Y-2107142D01*
X7392857Y-2392857D01*
X7464285Y-2535714D01*
X7535714Y-2607142D01*
X7678571Y-2678571D01*
X7821428Y-2678571D01*
X7964285Y-2607142D01*
X8035714Y-2535714D01*
X8107142Y-2392857D01*
X8178571Y-2107142D01*
X8178571Y-1750000D01*
X8107142Y-1464285D01*
X8035714Y-1321428D01*
X7964285Y-1250000D01*
X7821428Y-1178571D01*
D11*
X31320000Y-12031000D02*
X30070000Y-12031000D01*
X31320000Y-13281000D02*
X31320000Y-12031000D01*
X26910000Y-17391000D02*
X27410000Y-17391000D01*
X27410000Y-17491000D02*
X26910000Y-17491000D01*
X27410000Y-17291000D02*
X27410000Y-17491000D01*
X26910000Y-17291000D02*
X27410000Y-17291000D01*
X26910000Y-15391000D02*
X27410000Y-15391000D01*
X27410000Y-15491000D02*
X26910000Y-15491000D01*
X27410000Y-15291000D02*
X27410000Y-15491000D01*
X26910000Y-15291000D02*
X27410000Y-15291000D01*
X28410000Y-20451000D02*
X28410000Y-19841000D01*
X29710000Y-20451000D02*
X29710000Y-19841000D01*
X28410000Y-12331000D02*
X28410000Y-12941000D01*
X29710000Y-12331000D02*
X29710000Y-12941000D01*
X30410000Y-17891000D02*
X31020000Y-17891000D01*
X30410000Y-19841000D02*
X30410000Y-17891000D01*
X26910000Y-19841000D02*
X30410000Y-19841000D01*
X26910000Y-12941000D02*
X26910000Y-19841000D01*
X30410000Y-12941000D02*
X26910000Y-12941000D01*
X30410000Y-14891000D02*
X30410000Y-12941000D01*
X31020000Y-14891000D02*
X30410000Y-14891000D01*
X31120000Y-14091000D02*
X31120000Y-13791000D01*
X31220000Y-13791000D02*
X31020000Y-13791000D01*
X31220000Y-14091000D02*
X31220000Y-13791000D01*
X31020000Y-14091000D02*
X31220000Y-14091000D01*
X31020000Y-20451000D02*
X31020000Y-12331000D01*
X26300000Y-20451000D02*
X31020000Y-20451000D01*
X26300000Y-12331000D02*
X26300000Y-20451000D01*
X31020000Y-12331000D02*
X26300000Y-12331000D01*
X25478000Y-12031000D02*
X24228000Y-12031000D01*
X25478000Y-13281000D02*
X25478000Y-12031000D01*
X21068000Y-17391000D02*
X21568000Y-17391000D01*
X21568000Y-17491000D02*
X21068000Y-17491000D01*
X21568000Y-17291000D02*
X21568000Y-17491000D01*
X21068000Y-17291000D02*
X21568000Y-17291000D01*
X21068000Y-15391000D02*
X21568000Y-15391000D01*
X21568000Y-15491000D02*
X21068000Y-15491000D01*
X21568000Y-15291000D02*
X21568000Y-15491000D01*
X21068000Y-15291000D02*
X21568000Y-15291000D01*
X22568000Y-20451000D02*
X22568000Y-19841000D01*
X23868000Y-20451000D02*
X23868000Y-19841000D01*
X22568000Y-12331000D02*
X22568000Y-12941000D01*
X23868000Y-12331000D02*
X23868000Y-12941000D01*
X24568000Y-17891000D02*
X25178000Y-17891000D01*
X24568000Y-19841000D02*
X24568000Y-17891000D01*
X21068000Y-19841000D02*
X24568000Y-19841000D01*
X21068000Y-12941000D02*
X21068000Y-19841000D01*
X24568000Y-12941000D02*
X21068000Y-12941000D01*
X24568000Y-14891000D02*
X24568000Y-12941000D01*
X25178000Y-14891000D02*
X24568000Y-14891000D01*
X25278000Y-14091000D02*
X25278000Y-13791000D01*
X25378000Y-13791000D02*
X25178000Y-13791000D01*
X25378000Y-14091000D02*
X25378000Y-13791000D01*
X25178000Y-14091000D02*
X25378000Y-14091000D01*
X25178000Y-20451000D02*
X25178000Y-12331000D01*
X20458000Y-20451000D02*
X25178000Y-20451000D01*
X20458000Y-12331000D02*
X20458000Y-20451000D01*
X25178000Y-12331000D02*
X20458000Y-12331000D01*
X19636000Y-12031000D02*
X18386000Y-12031000D01*
X19636000Y-13281000D02*
X19636000Y-12031000D01*
X15226000Y-17391000D02*
X15726000Y-17391000D01*
X15726000Y-17491000D02*
X15226000Y-17491000D01*
X15726000Y-17291000D02*
X15726000Y-17491000D01*
X15226000Y-17291000D02*
X15726000Y-17291000D01*
X15226000Y-15391000D02*
X15726000Y-15391000D01*
X15726000Y-15491000D02*
X15226000Y-15491000D01*
X15726000Y-15291000D02*
X15726000Y-15491000D01*
X15226000Y-15291000D02*
X15726000Y-15291000D01*
X16726000Y-20451000D02*
X16726000Y-19841000D01*
X18026000Y-20451000D02*
X18026000Y-19841000D01*
X16726000Y-12331000D02*
X16726000Y-12941000D01*
X18026000Y-12331000D02*
X18026000Y-12941000D01*
X18726000Y-17891000D02*
X19336000Y-17891000D01*
X18726000Y-19841000D02*
X18726000Y-17891000D01*
X15226000Y-19841000D02*
X18726000Y-19841000D01*
X15226000Y-12941000D02*
X15226000Y-19841000D01*
X18726000Y-12941000D02*
X15226000Y-12941000D01*
X18726000Y-14891000D02*
X18726000Y-12941000D01*
X19336000Y-14891000D02*
X18726000Y-14891000D01*
X19436000Y-14091000D02*
X19436000Y-13791000D01*
X19536000Y-13791000D02*
X19336000Y-13791000D01*
X19536000Y-14091000D02*
X19536000Y-13791000D01*
X19336000Y-14091000D02*
X19536000Y-14091000D01*
X19336000Y-20451000D02*
X19336000Y-12331000D01*
X14616000Y-20451000D02*
X19336000Y-20451000D01*
X14616000Y-12331000D02*
X14616000Y-20451000D01*
X19336000Y-12331000D02*
X14616000Y-12331000D01*
X13794000Y-12031000D02*
X12544000Y-12031000D01*
X13794000Y-13281000D02*
X13794000Y-12031000D01*
X9384000Y-17391000D02*
X9884000Y-17391000D01*
X9884000Y-17491000D02*
X9384000Y-17491000D01*
X9884000Y-17291000D02*
X9884000Y-17491000D01*
X9384000Y-17291000D02*
X9884000Y-17291000D01*
X9384000Y-15391000D02*
X9884000Y-15391000D01*
X9884000Y-15491000D02*
X9384000Y-15491000D01*
X9884000Y-15291000D02*
X9884000Y-15491000D01*
X9384000Y-15291000D02*
X9884000Y-15291000D01*
X10884000Y-20451000D02*
X10884000Y-19841000D01*
X12184000Y-20451000D02*
X12184000Y-19841000D01*
X10884000Y-12331000D02*
X10884000Y-12941000D01*
X12184000Y-12331000D02*
X12184000Y-12941000D01*
X12884000Y-17891000D02*
X13494000Y-17891000D01*
X12884000Y-19841000D02*
X12884000Y-17891000D01*
X9384000Y-19841000D02*
X12884000Y-19841000D01*
X9384000Y-12941000D02*
X9384000Y-19841000D01*
X12884000Y-12941000D02*
X9384000Y-12941000D01*
X12884000Y-14891000D02*
X12884000Y-12941000D01*
X13494000Y-14891000D02*
X12884000Y-14891000D01*
X13594000Y-14091000D02*
X13594000Y-13791000D01*
X13694000Y-13791000D02*
X13494000Y-13791000D01*
X13694000Y-14091000D02*
X13694000Y-13791000D01*
X13494000Y-14091000D02*
X13694000Y-14091000D01*
X13494000Y-20451000D02*
X13494000Y-12331000D01*
X8774000Y-20451000D02*
X13494000Y-20451000D01*
X8774000Y-12331000D02*
X8774000Y-20451000D01*
X13494000Y-12331000D02*
X8774000Y-12331000D01*
X31320000Y-1109000D02*
X30070000Y-1109000D01*
X31320000Y-2359000D02*
X31320000Y-1109000D01*
X26910000Y-6469000D02*
X27410000Y-6469000D01*
X27410000Y-6569000D02*
X26910000Y-6569000D01*
X27410000Y-6369000D02*
X27410000Y-6569000D01*
X26910000Y-6369000D02*
X27410000Y-6369000D01*
X26910000Y-4469000D02*
X27410000Y-4469000D01*
X27410000Y-4569000D02*
X26910000Y-4569000D01*
X27410000Y-4369000D02*
X27410000Y-4569000D01*
X26910000Y-4369000D02*
X27410000Y-4369000D01*
X28410000Y-9529000D02*
X28410000Y-8919000D01*
X29710000Y-9529000D02*
X29710000Y-8919000D01*
X28410000Y-1409000D02*
X28410000Y-2019000D01*
X29710000Y-1409000D02*
X29710000Y-2019000D01*
X30410000Y-6969000D02*
X31020000Y-6969000D01*
X30410000Y-8919000D02*
X30410000Y-6969000D01*
X26910000Y-8919000D02*
X30410000Y-8919000D01*
X26910000Y-2019000D02*
X26910000Y-8919000D01*
X30410000Y-2019000D02*
X26910000Y-2019000D01*
X30410000Y-3969000D02*
X30410000Y-2019000D01*
X31020000Y-3969000D02*
X30410000Y-3969000D01*
X31120000Y-3169000D02*
X31120000Y-2869000D01*
X31220000Y-2869000D02*
X31020000Y-2869000D01*
X31220000Y-3169000D02*
X31220000Y-2869000D01*
X31020000Y-3169000D02*
X31220000Y-3169000D01*
X31020000Y-9529000D02*
X31020000Y-1409000D01*
X26300000Y-9529000D02*
X31020000Y-9529000D01*
X26300000Y-1409000D02*
X26300000Y-9529000D01*
X31020000Y-1409000D02*
X26300000Y-1409000D01*
X25478000Y-1109000D02*
X24228000Y-1109000D01*
X25478000Y-2359000D02*
X25478000Y-1109000D01*
X21068000Y-6469000D02*
X21568000Y-6469000D01*
X21568000Y-6569000D02*
X21068000Y-6569000D01*
X21568000Y-6369000D02*
X21568000Y-6569000D01*
X21068000Y-6369000D02*
X21568000Y-6369000D01*
X21068000Y-4469000D02*
X21568000Y-4469000D01*
X21568000Y-4569000D02*
X21068000Y-4569000D01*
X21568000Y-4369000D02*
X21568000Y-4569000D01*
X21068000Y-4369000D02*
X21568000Y-4369000D01*
X22568000Y-9529000D02*
X22568000Y-8919000D01*
X23868000Y-9529000D02*
X23868000Y-8919000D01*
X22568000Y-1409000D02*
X22568000Y-2019000D01*
X23868000Y-1409000D02*
X23868000Y-2019000D01*
X24568000Y-6969000D02*
X25178000Y-6969000D01*
X24568000Y-8919000D02*
X24568000Y-6969000D01*
X21068000Y-8919000D02*
X24568000Y-8919000D01*
X21068000Y-2019000D02*
X21068000Y-8919000D01*
X24568000Y-2019000D02*
X21068000Y-2019000D01*
X24568000Y-3969000D02*
X24568000Y-2019000D01*
X25178000Y-3969000D02*
X24568000Y-3969000D01*
X25278000Y-3169000D02*
X25278000Y-2869000D01*
X25378000Y-2869000D02*
X25178000Y-2869000D01*
X25378000Y-3169000D02*
X25378000Y-2869000D01*
X25178000Y-3169000D02*
X25378000Y-3169000D01*
X25178000Y-9529000D02*
X25178000Y-1409000D01*
X20458000Y-9529000D02*
X25178000Y-9529000D01*
X20458000Y-1409000D02*
X20458000Y-9529000D01*
X25178000Y-1409000D02*
X20458000Y-1409000D01*
X19636000Y-1109000D02*
X18386000Y-1109000D01*
X19636000Y-2359000D02*
X19636000Y-1109000D01*
X15226000Y-6469000D02*
X15726000Y-6469000D01*
X15726000Y-6569000D02*
X15226000Y-6569000D01*
X15726000Y-6369000D02*
X15726000Y-6569000D01*
X15226000Y-6369000D02*
X15726000Y-6369000D01*
X15226000Y-4469000D02*
X15726000Y-4469000D01*
X15726000Y-4569000D02*
X15226000Y-4569000D01*
X15726000Y-4369000D02*
X15726000Y-4569000D01*
X15226000Y-4369000D02*
X15726000Y-4369000D01*
X16726000Y-9529000D02*
X16726000Y-8919000D01*
X18026000Y-9529000D02*
X18026000Y-8919000D01*
X16726000Y-1409000D02*
X16726000Y-2019000D01*
X18026000Y-1409000D02*
X18026000Y-2019000D01*
X18726000Y-6969000D02*
X19336000Y-6969000D01*
X18726000Y-8919000D02*
X18726000Y-6969000D01*
X15226000Y-8919000D02*
X18726000Y-8919000D01*
X15226000Y-2019000D02*
X15226000Y-8919000D01*
X18726000Y-2019000D02*
X15226000Y-2019000D01*
X18726000Y-3969000D02*
X18726000Y-2019000D01*
X19336000Y-3969000D02*
X18726000Y-3969000D01*
X19436000Y-3169000D02*
X19436000Y-2869000D01*
X19536000Y-2869000D02*
X19336000Y-2869000D01*
X19536000Y-3169000D02*
X19536000Y-2869000D01*
X19336000Y-3169000D02*
X19536000Y-3169000D01*
X19336000Y-9529000D02*
X19336000Y-1409000D01*
X14616000Y-9529000D02*
X19336000Y-9529000D01*
X14616000Y-1409000D02*
X14616000Y-9529000D01*
X19336000Y-1409000D02*
X14616000Y-1409000D01*
X13794000Y-1109000D02*
X12544000Y-1109000D01*
X13794000Y-2359000D02*
X13794000Y-1109000D01*
X9384000Y-6469000D02*
X9884000Y-6469000D01*
X9884000Y-6569000D02*
X9384000Y-6569000D01*
X9884000Y-6369000D02*
X9884000Y-6569000D01*
X9384000Y-6369000D02*
X9884000Y-6369000D01*
X9384000Y-4469000D02*
X9884000Y-4469000D01*
X9884000Y-4569000D02*
X9384000Y-4569000D01*
X9884000Y-4369000D02*
X9884000Y-4569000D01*
X9384000Y-4369000D02*
X9884000Y-4369000D01*
X10884000Y-9529000D02*
X10884000Y-8919000D01*
X12184000Y-9529000D02*
X12184000Y-8919000D01*
X10884000Y-1409000D02*
X10884000Y-2019000D01*
X12184000Y-1409000D02*
X12184000Y-2019000D01*
X12884000Y-6969000D02*
X13494000Y-6969000D01*
X12884000Y-8919000D02*
X12884000Y-6969000D01*
X9384000Y-8919000D02*
X12884000Y-8919000D01*
X9384000Y-2019000D02*
X9384000Y-8919000D01*
X12884000Y-2019000D02*
X9384000Y-2019000D01*
X12884000Y-3969000D02*
X12884000Y-2019000D01*
X13494000Y-3969000D02*
X12884000Y-3969000D01*
X13594000Y-3169000D02*
X13594000Y-2869000D01*
X13694000Y-2869000D02*
X13494000Y-2869000D01*
X13694000Y-3169000D02*
X13694000Y-2869000D01*
X13494000Y-3169000D02*
X13694000Y-3169000D01*
X13494000Y-9529000D02*
X13494000Y-1409000D01*
X8774000Y-9529000D02*
X13494000Y-9529000D01*
X8774000Y-1409000D02*
X8774000Y-9529000D01*
X13494000Y-1409000D02*
X8774000Y-1409000D01*
X36462000Y-846000D02*
X33642000Y-846000D01*
X33642000Y-846000D02*
X32342000Y-2546000D01*
X36462000Y-846000D02*
X37762000Y-2546000D01*
X32342000Y-2546000D02*
X32342000Y-11266000D01*
X37762000Y-11266000D02*
X32342000Y-11266000D01*
X37762000Y-2546000D02*
X37762000Y-11266000D01*
X6025000Y-12335000D02*
X6025000Y-15020000D01*
X6025000Y-15020000D02*
X7945000Y-15020000D01*
X7945000Y-15020000D02*
X7945000Y-12335000D01*
X32342000Y-20314000D02*
X32342000Y-11594000D01*
X32342000Y-11594000D02*
X37762000Y-11594000D01*
X37762000Y-20314000D02*
X37762000Y-11594000D01*
X33642000Y-22014000D02*
X32342000Y-20314000D01*
X36462000Y-22014000D02*
X37762000Y-20314000D01*
X33642000Y-22014000D02*
X36462000Y-22014000D01*
X6275000Y-9266422D02*
X6275000Y-9783578D01*
X7695000Y-9266422D02*
X7695000Y-9783578D01*
D12*
X35159142Y-127428D02*
X35159142Y1015428D01*
X35159142Y-13127428D02*
X35159142Y-11984571D01*
X35730571Y-12556000D02*
X34587714Y-12556000D01*
M02*
