G04 #@! TF.GenerationSoftware,KiCad,Pcbnew,(5.1.4)-1*
G04 #@! TF.CreationDate,2021-11-14T18:33:35-06:00*
G04 #@! TF.ProjectId,FadecandyHatV1.0,46616465-6361-46e6-9479-48617456312e,rev?*
G04 #@! TF.SameCoordinates,Original*
G04 #@! TF.FileFunction,Copper,L2,Bot*
G04 #@! TF.FilePolarity,Positive*
%FSLAX46Y46*%
G04 Gerber Fmt 4.6, Leading zero omitted, Abs format (unit mm)*
G04 Created by KiCad (PCBNEW (5.1.4)-1) date 2021-11-14 18:33:35*
%MOMM*%
%LPD*%
G04 APERTURE LIST*
%ADD10O,1.750000X1.200000*%
%ADD11C,0.100000*%
%ADD12C,1.200000*%
%ADD13C,3.800000*%
%ADD14R,3.800000X3.800000*%
%ADD15C,4.000000*%
%ADD16R,1.700000X1.700000*%
%ADD17O,1.700000X1.700000*%
%ADD18C,0.800000*%
%ADD19C,0.500000*%
%ADD20C,5.000000*%
%ADD21C,2.500000*%
%ADD22C,0.150000*%
G04 APERTURE END LIST*
D10*
X29210000Y-18391000D03*
X29210000Y-16391000D03*
D11*
G36*
X29859505Y-13792204D02*
G01*
X29883773Y-13795804D01*
X29907572Y-13801765D01*
X29930671Y-13810030D01*
X29952850Y-13820520D01*
X29973893Y-13833132D01*
X29993599Y-13847747D01*
X30011777Y-13864223D01*
X30028253Y-13882401D01*
X30042868Y-13902107D01*
X30055480Y-13923150D01*
X30065970Y-13945329D01*
X30074235Y-13968428D01*
X30080196Y-13992227D01*
X30083796Y-14016495D01*
X30085000Y-14040999D01*
X30085000Y-14741001D01*
X30083796Y-14765505D01*
X30080196Y-14789773D01*
X30074235Y-14813572D01*
X30065970Y-14836671D01*
X30055480Y-14858850D01*
X30042868Y-14879893D01*
X30028253Y-14899599D01*
X30011777Y-14917777D01*
X29993599Y-14934253D01*
X29973893Y-14948868D01*
X29952850Y-14961480D01*
X29930671Y-14971970D01*
X29907572Y-14980235D01*
X29883773Y-14986196D01*
X29859505Y-14989796D01*
X29835001Y-14991000D01*
X28584999Y-14991000D01*
X28560495Y-14989796D01*
X28536227Y-14986196D01*
X28512428Y-14980235D01*
X28489329Y-14971970D01*
X28467150Y-14961480D01*
X28446107Y-14948868D01*
X28426401Y-14934253D01*
X28408223Y-14917777D01*
X28391747Y-14899599D01*
X28377132Y-14879893D01*
X28364520Y-14858850D01*
X28354030Y-14836671D01*
X28345765Y-14813572D01*
X28339804Y-14789773D01*
X28336204Y-14765505D01*
X28335000Y-14741001D01*
X28335000Y-14040999D01*
X28336204Y-14016495D01*
X28339804Y-13992227D01*
X28345765Y-13968428D01*
X28354030Y-13945329D01*
X28364520Y-13923150D01*
X28377132Y-13902107D01*
X28391747Y-13882401D01*
X28408223Y-13864223D01*
X28426401Y-13847747D01*
X28446107Y-13833132D01*
X28467150Y-13820520D01*
X28489329Y-13810030D01*
X28512428Y-13801765D01*
X28536227Y-13795804D01*
X28560495Y-13792204D01*
X28584999Y-13791000D01*
X29835001Y-13791000D01*
X29859505Y-13792204D01*
X29859505Y-13792204D01*
G37*
D12*
X29210000Y-14391000D03*
D10*
X23368000Y-18391000D03*
X23368000Y-16391000D03*
D11*
G36*
X24017505Y-13792204D02*
G01*
X24041773Y-13795804D01*
X24065572Y-13801765D01*
X24088671Y-13810030D01*
X24110850Y-13820520D01*
X24131893Y-13833132D01*
X24151599Y-13847747D01*
X24169777Y-13864223D01*
X24186253Y-13882401D01*
X24200868Y-13902107D01*
X24213480Y-13923150D01*
X24223970Y-13945329D01*
X24232235Y-13968428D01*
X24238196Y-13992227D01*
X24241796Y-14016495D01*
X24243000Y-14040999D01*
X24243000Y-14741001D01*
X24241796Y-14765505D01*
X24238196Y-14789773D01*
X24232235Y-14813572D01*
X24223970Y-14836671D01*
X24213480Y-14858850D01*
X24200868Y-14879893D01*
X24186253Y-14899599D01*
X24169777Y-14917777D01*
X24151599Y-14934253D01*
X24131893Y-14948868D01*
X24110850Y-14961480D01*
X24088671Y-14971970D01*
X24065572Y-14980235D01*
X24041773Y-14986196D01*
X24017505Y-14989796D01*
X23993001Y-14991000D01*
X22742999Y-14991000D01*
X22718495Y-14989796D01*
X22694227Y-14986196D01*
X22670428Y-14980235D01*
X22647329Y-14971970D01*
X22625150Y-14961480D01*
X22604107Y-14948868D01*
X22584401Y-14934253D01*
X22566223Y-14917777D01*
X22549747Y-14899599D01*
X22535132Y-14879893D01*
X22522520Y-14858850D01*
X22512030Y-14836671D01*
X22503765Y-14813572D01*
X22497804Y-14789773D01*
X22494204Y-14765505D01*
X22493000Y-14741001D01*
X22493000Y-14040999D01*
X22494204Y-14016495D01*
X22497804Y-13992227D01*
X22503765Y-13968428D01*
X22512030Y-13945329D01*
X22522520Y-13923150D01*
X22535132Y-13902107D01*
X22549747Y-13882401D01*
X22566223Y-13864223D01*
X22584401Y-13847747D01*
X22604107Y-13833132D01*
X22625150Y-13820520D01*
X22647329Y-13810030D01*
X22670428Y-13801765D01*
X22694227Y-13795804D01*
X22718495Y-13792204D01*
X22742999Y-13791000D01*
X23993001Y-13791000D01*
X24017505Y-13792204D01*
X24017505Y-13792204D01*
G37*
D12*
X23368000Y-14391000D03*
D10*
X17526000Y-18391000D03*
X17526000Y-16391000D03*
D11*
G36*
X18175505Y-13792204D02*
G01*
X18199773Y-13795804D01*
X18223572Y-13801765D01*
X18246671Y-13810030D01*
X18268850Y-13820520D01*
X18289893Y-13833132D01*
X18309599Y-13847747D01*
X18327777Y-13864223D01*
X18344253Y-13882401D01*
X18358868Y-13902107D01*
X18371480Y-13923150D01*
X18381970Y-13945329D01*
X18390235Y-13968428D01*
X18396196Y-13992227D01*
X18399796Y-14016495D01*
X18401000Y-14040999D01*
X18401000Y-14741001D01*
X18399796Y-14765505D01*
X18396196Y-14789773D01*
X18390235Y-14813572D01*
X18381970Y-14836671D01*
X18371480Y-14858850D01*
X18358868Y-14879893D01*
X18344253Y-14899599D01*
X18327777Y-14917777D01*
X18309599Y-14934253D01*
X18289893Y-14948868D01*
X18268850Y-14961480D01*
X18246671Y-14971970D01*
X18223572Y-14980235D01*
X18199773Y-14986196D01*
X18175505Y-14989796D01*
X18151001Y-14991000D01*
X16900999Y-14991000D01*
X16876495Y-14989796D01*
X16852227Y-14986196D01*
X16828428Y-14980235D01*
X16805329Y-14971970D01*
X16783150Y-14961480D01*
X16762107Y-14948868D01*
X16742401Y-14934253D01*
X16724223Y-14917777D01*
X16707747Y-14899599D01*
X16693132Y-14879893D01*
X16680520Y-14858850D01*
X16670030Y-14836671D01*
X16661765Y-14813572D01*
X16655804Y-14789773D01*
X16652204Y-14765505D01*
X16651000Y-14741001D01*
X16651000Y-14040999D01*
X16652204Y-14016495D01*
X16655804Y-13992227D01*
X16661765Y-13968428D01*
X16670030Y-13945329D01*
X16680520Y-13923150D01*
X16693132Y-13902107D01*
X16707747Y-13882401D01*
X16724223Y-13864223D01*
X16742401Y-13847747D01*
X16762107Y-13833132D01*
X16783150Y-13820520D01*
X16805329Y-13810030D01*
X16828428Y-13801765D01*
X16852227Y-13795804D01*
X16876495Y-13792204D01*
X16900999Y-13791000D01*
X18151001Y-13791000D01*
X18175505Y-13792204D01*
X18175505Y-13792204D01*
G37*
D12*
X17526000Y-14391000D03*
D10*
X11684000Y-18391000D03*
X11684000Y-16391000D03*
D11*
G36*
X12333505Y-13792204D02*
G01*
X12357773Y-13795804D01*
X12381572Y-13801765D01*
X12404671Y-13810030D01*
X12426850Y-13820520D01*
X12447893Y-13833132D01*
X12467599Y-13847747D01*
X12485777Y-13864223D01*
X12502253Y-13882401D01*
X12516868Y-13902107D01*
X12529480Y-13923150D01*
X12539970Y-13945329D01*
X12548235Y-13968428D01*
X12554196Y-13992227D01*
X12557796Y-14016495D01*
X12559000Y-14040999D01*
X12559000Y-14741001D01*
X12557796Y-14765505D01*
X12554196Y-14789773D01*
X12548235Y-14813572D01*
X12539970Y-14836671D01*
X12529480Y-14858850D01*
X12516868Y-14879893D01*
X12502253Y-14899599D01*
X12485777Y-14917777D01*
X12467599Y-14934253D01*
X12447893Y-14948868D01*
X12426850Y-14961480D01*
X12404671Y-14971970D01*
X12381572Y-14980235D01*
X12357773Y-14986196D01*
X12333505Y-14989796D01*
X12309001Y-14991000D01*
X11058999Y-14991000D01*
X11034495Y-14989796D01*
X11010227Y-14986196D01*
X10986428Y-14980235D01*
X10963329Y-14971970D01*
X10941150Y-14961480D01*
X10920107Y-14948868D01*
X10900401Y-14934253D01*
X10882223Y-14917777D01*
X10865747Y-14899599D01*
X10851132Y-14879893D01*
X10838520Y-14858850D01*
X10828030Y-14836671D01*
X10819765Y-14813572D01*
X10813804Y-14789773D01*
X10810204Y-14765505D01*
X10809000Y-14741001D01*
X10809000Y-14040999D01*
X10810204Y-14016495D01*
X10813804Y-13992227D01*
X10819765Y-13968428D01*
X10828030Y-13945329D01*
X10838520Y-13923150D01*
X10851132Y-13902107D01*
X10865747Y-13882401D01*
X10882223Y-13864223D01*
X10900401Y-13847747D01*
X10920107Y-13833132D01*
X10941150Y-13820520D01*
X10963329Y-13810030D01*
X10986428Y-13801765D01*
X11010227Y-13795804D01*
X11034495Y-13792204D01*
X11058999Y-13791000D01*
X12309001Y-13791000D01*
X12333505Y-13792204D01*
X12333505Y-13792204D01*
G37*
D12*
X11684000Y-14391000D03*
D10*
X29210000Y-7469000D03*
X29210000Y-5469000D03*
D11*
G36*
X29859505Y-2870204D02*
G01*
X29883773Y-2873804D01*
X29907572Y-2879765D01*
X29930671Y-2888030D01*
X29952850Y-2898520D01*
X29973893Y-2911132D01*
X29993599Y-2925747D01*
X30011777Y-2942223D01*
X30028253Y-2960401D01*
X30042868Y-2980107D01*
X30055480Y-3001150D01*
X30065970Y-3023329D01*
X30074235Y-3046428D01*
X30080196Y-3070227D01*
X30083796Y-3094495D01*
X30085000Y-3118999D01*
X30085000Y-3819001D01*
X30083796Y-3843505D01*
X30080196Y-3867773D01*
X30074235Y-3891572D01*
X30065970Y-3914671D01*
X30055480Y-3936850D01*
X30042868Y-3957893D01*
X30028253Y-3977599D01*
X30011777Y-3995777D01*
X29993599Y-4012253D01*
X29973893Y-4026868D01*
X29952850Y-4039480D01*
X29930671Y-4049970D01*
X29907572Y-4058235D01*
X29883773Y-4064196D01*
X29859505Y-4067796D01*
X29835001Y-4069000D01*
X28584999Y-4069000D01*
X28560495Y-4067796D01*
X28536227Y-4064196D01*
X28512428Y-4058235D01*
X28489329Y-4049970D01*
X28467150Y-4039480D01*
X28446107Y-4026868D01*
X28426401Y-4012253D01*
X28408223Y-3995777D01*
X28391747Y-3977599D01*
X28377132Y-3957893D01*
X28364520Y-3936850D01*
X28354030Y-3914671D01*
X28345765Y-3891572D01*
X28339804Y-3867773D01*
X28336204Y-3843505D01*
X28335000Y-3819001D01*
X28335000Y-3118999D01*
X28336204Y-3094495D01*
X28339804Y-3070227D01*
X28345765Y-3046428D01*
X28354030Y-3023329D01*
X28364520Y-3001150D01*
X28377132Y-2980107D01*
X28391747Y-2960401D01*
X28408223Y-2942223D01*
X28426401Y-2925747D01*
X28446107Y-2911132D01*
X28467150Y-2898520D01*
X28489329Y-2888030D01*
X28512428Y-2879765D01*
X28536227Y-2873804D01*
X28560495Y-2870204D01*
X28584999Y-2869000D01*
X29835001Y-2869000D01*
X29859505Y-2870204D01*
X29859505Y-2870204D01*
G37*
D12*
X29210000Y-3469000D03*
D10*
X23368000Y-7469000D03*
X23368000Y-5469000D03*
D11*
G36*
X24017505Y-2870204D02*
G01*
X24041773Y-2873804D01*
X24065572Y-2879765D01*
X24088671Y-2888030D01*
X24110850Y-2898520D01*
X24131893Y-2911132D01*
X24151599Y-2925747D01*
X24169777Y-2942223D01*
X24186253Y-2960401D01*
X24200868Y-2980107D01*
X24213480Y-3001150D01*
X24223970Y-3023329D01*
X24232235Y-3046428D01*
X24238196Y-3070227D01*
X24241796Y-3094495D01*
X24243000Y-3118999D01*
X24243000Y-3819001D01*
X24241796Y-3843505D01*
X24238196Y-3867773D01*
X24232235Y-3891572D01*
X24223970Y-3914671D01*
X24213480Y-3936850D01*
X24200868Y-3957893D01*
X24186253Y-3977599D01*
X24169777Y-3995777D01*
X24151599Y-4012253D01*
X24131893Y-4026868D01*
X24110850Y-4039480D01*
X24088671Y-4049970D01*
X24065572Y-4058235D01*
X24041773Y-4064196D01*
X24017505Y-4067796D01*
X23993001Y-4069000D01*
X22742999Y-4069000D01*
X22718495Y-4067796D01*
X22694227Y-4064196D01*
X22670428Y-4058235D01*
X22647329Y-4049970D01*
X22625150Y-4039480D01*
X22604107Y-4026868D01*
X22584401Y-4012253D01*
X22566223Y-3995777D01*
X22549747Y-3977599D01*
X22535132Y-3957893D01*
X22522520Y-3936850D01*
X22512030Y-3914671D01*
X22503765Y-3891572D01*
X22497804Y-3867773D01*
X22494204Y-3843505D01*
X22493000Y-3819001D01*
X22493000Y-3118999D01*
X22494204Y-3094495D01*
X22497804Y-3070227D01*
X22503765Y-3046428D01*
X22512030Y-3023329D01*
X22522520Y-3001150D01*
X22535132Y-2980107D01*
X22549747Y-2960401D01*
X22566223Y-2942223D01*
X22584401Y-2925747D01*
X22604107Y-2911132D01*
X22625150Y-2898520D01*
X22647329Y-2888030D01*
X22670428Y-2879765D01*
X22694227Y-2873804D01*
X22718495Y-2870204D01*
X22742999Y-2869000D01*
X23993001Y-2869000D01*
X24017505Y-2870204D01*
X24017505Y-2870204D01*
G37*
D12*
X23368000Y-3469000D03*
D10*
X17526000Y-7469000D03*
X17526000Y-5469000D03*
D11*
G36*
X18175505Y-2870204D02*
G01*
X18199773Y-2873804D01*
X18223572Y-2879765D01*
X18246671Y-2888030D01*
X18268850Y-2898520D01*
X18289893Y-2911132D01*
X18309599Y-2925747D01*
X18327777Y-2942223D01*
X18344253Y-2960401D01*
X18358868Y-2980107D01*
X18371480Y-3001150D01*
X18381970Y-3023329D01*
X18390235Y-3046428D01*
X18396196Y-3070227D01*
X18399796Y-3094495D01*
X18401000Y-3118999D01*
X18401000Y-3819001D01*
X18399796Y-3843505D01*
X18396196Y-3867773D01*
X18390235Y-3891572D01*
X18381970Y-3914671D01*
X18371480Y-3936850D01*
X18358868Y-3957893D01*
X18344253Y-3977599D01*
X18327777Y-3995777D01*
X18309599Y-4012253D01*
X18289893Y-4026868D01*
X18268850Y-4039480D01*
X18246671Y-4049970D01*
X18223572Y-4058235D01*
X18199773Y-4064196D01*
X18175505Y-4067796D01*
X18151001Y-4069000D01*
X16900999Y-4069000D01*
X16876495Y-4067796D01*
X16852227Y-4064196D01*
X16828428Y-4058235D01*
X16805329Y-4049970D01*
X16783150Y-4039480D01*
X16762107Y-4026868D01*
X16742401Y-4012253D01*
X16724223Y-3995777D01*
X16707747Y-3977599D01*
X16693132Y-3957893D01*
X16680520Y-3936850D01*
X16670030Y-3914671D01*
X16661765Y-3891572D01*
X16655804Y-3867773D01*
X16652204Y-3843505D01*
X16651000Y-3819001D01*
X16651000Y-3118999D01*
X16652204Y-3094495D01*
X16655804Y-3070227D01*
X16661765Y-3046428D01*
X16670030Y-3023329D01*
X16680520Y-3001150D01*
X16693132Y-2980107D01*
X16707747Y-2960401D01*
X16724223Y-2942223D01*
X16742401Y-2925747D01*
X16762107Y-2911132D01*
X16783150Y-2898520D01*
X16805329Y-2888030D01*
X16828428Y-2879765D01*
X16852227Y-2873804D01*
X16876495Y-2870204D01*
X16900999Y-2869000D01*
X18151001Y-2869000D01*
X18175505Y-2870204D01*
X18175505Y-2870204D01*
G37*
D12*
X17526000Y-3469000D03*
D10*
X11684000Y-7469000D03*
X11684000Y-5469000D03*
D11*
G36*
X12333505Y-2870204D02*
G01*
X12357773Y-2873804D01*
X12381572Y-2879765D01*
X12404671Y-2888030D01*
X12426850Y-2898520D01*
X12447893Y-2911132D01*
X12467599Y-2925747D01*
X12485777Y-2942223D01*
X12502253Y-2960401D01*
X12516868Y-2980107D01*
X12529480Y-3001150D01*
X12539970Y-3023329D01*
X12548235Y-3046428D01*
X12554196Y-3070227D01*
X12557796Y-3094495D01*
X12559000Y-3118999D01*
X12559000Y-3819001D01*
X12557796Y-3843505D01*
X12554196Y-3867773D01*
X12548235Y-3891572D01*
X12539970Y-3914671D01*
X12529480Y-3936850D01*
X12516868Y-3957893D01*
X12502253Y-3977599D01*
X12485777Y-3995777D01*
X12467599Y-4012253D01*
X12447893Y-4026868D01*
X12426850Y-4039480D01*
X12404671Y-4049970D01*
X12381572Y-4058235D01*
X12357773Y-4064196D01*
X12333505Y-4067796D01*
X12309001Y-4069000D01*
X11058999Y-4069000D01*
X11034495Y-4067796D01*
X11010227Y-4064196D01*
X10986428Y-4058235D01*
X10963329Y-4049970D01*
X10941150Y-4039480D01*
X10920107Y-4026868D01*
X10900401Y-4012253D01*
X10882223Y-3995777D01*
X10865747Y-3977599D01*
X10851132Y-3957893D01*
X10838520Y-3936850D01*
X10828030Y-3914671D01*
X10819765Y-3891572D01*
X10813804Y-3867773D01*
X10810204Y-3843505D01*
X10809000Y-3819001D01*
X10809000Y-3118999D01*
X10810204Y-3094495D01*
X10813804Y-3070227D01*
X10819765Y-3046428D01*
X10828030Y-3023329D01*
X10838520Y-3001150D01*
X10851132Y-2980107D01*
X10865747Y-2960401D01*
X10882223Y-2942223D01*
X10900401Y-2925747D01*
X10920107Y-2911132D01*
X10941150Y-2898520D01*
X10963329Y-2888030D01*
X10986428Y-2879765D01*
X11010227Y-2873804D01*
X11034495Y-2870204D01*
X11058999Y-2869000D01*
X12309001Y-2869000D01*
X12333505Y-2870204D01*
X12333505Y-2870204D01*
G37*
D12*
X11684000Y-3469000D03*
D13*
X35052000Y-8556000D03*
D14*
X35052000Y-3556000D03*
X35052000Y-19304000D03*
D15*
X35052000Y-14304000D03*
D16*
X3810000Y-2540000D03*
D17*
X1270000Y-2540000D03*
X3810000Y-5080000D03*
X1270000Y-5080000D03*
X3810000Y-7620000D03*
X1270000Y-7620000D03*
X3810000Y-10160000D03*
X1270000Y-10160000D03*
X3810000Y-12700000D03*
X1270000Y-12700000D03*
X3810000Y-15240000D03*
X1270000Y-15240000D03*
X3810000Y-17780000D03*
X1270000Y-17780000D03*
X3810000Y-20320000D03*
X1270000Y-20320000D03*
D18*
X31220000Y-11500000D03*
X29320000Y-11500000D03*
X31630000Y-21340000D03*
X2700000Y-6400000D03*
X2690000Y-8910000D03*
X2730000Y-11430000D03*
X2710000Y-13950000D03*
X2720000Y-16500000D03*
X2720000Y-19050000D03*
X2550000Y-3940000D03*
D19*
X1270000Y-5080000D02*
X1410000Y-5080000D01*
X1410000Y-5080000D02*
X2550000Y-3940000D01*
D20*
X35052000Y-14304000D02*
X35052000Y-8556000D01*
D21*
X11684000Y-19391000D02*
X17526000Y-19391000D01*
X17526000Y-19391000D02*
X23368000Y-19391000D01*
X23368000Y-19391000D02*
X29210000Y-19391000D01*
X11684000Y-8469000D02*
X17526000Y-8469000D01*
X23368000Y-8469000D02*
X29210000Y-8469000D01*
X17526000Y-8469000D02*
X23368000Y-8469000D01*
D19*
X29085000Y-16891000D02*
X29210000Y-16891000D01*
D22*
G36*
X41633912Y-938550D02*
G01*
X42147487Y-1093607D01*
X42621164Y-1345465D01*
X43036900Y-1684531D01*
X43378860Y-2097889D01*
X43634017Y-2569794D01*
X43792658Y-3082278D01*
X43848734Y-3615813D01*
X43800113Y-4150075D01*
X43648644Y-4664720D01*
X43400099Y-5140141D01*
X43063945Y-5558234D01*
X42652981Y-5903073D01*
X42182866Y-6161521D01*
X41671505Y-6323734D01*
X41127042Y-6384805D01*
X41099118Y-6385000D01*
X38112275Y-6385000D01*
X38100000Y-6383791D01*
X38087725Y-6385000D01*
X38050992Y-6388618D01*
X38003866Y-6402913D01*
X37960436Y-6426127D01*
X37922368Y-6457368D01*
X37891127Y-6495436D01*
X37867913Y-6538866D01*
X37853618Y-6585992D01*
X37848791Y-6635000D01*
X37850000Y-6647275D01*
X37850001Y-16212715D01*
X37848791Y-16225000D01*
X37853618Y-16274008D01*
X37867913Y-16321134D01*
X37891127Y-16364564D01*
X37922368Y-16402632D01*
X37960436Y-16433873D01*
X38003866Y-16457087D01*
X38050992Y-16471382D01*
X38087725Y-16475000D01*
X38100000Y-16476209D01*
X38112275Y-16475000D01*
X41087771Y-16475000D01*
X41633912Y-16528550D01*
X42147487Y-16683607D01*
X42621164Y-16935465D01*
X43036900Y-17274531D01*
X43378860Y-17687889D01*
X43634017Y-18159794D01*
X43792658Y-18672278D01*
X43848734Y-19205813D01*
X43800113Y-19740075D01*
X43648644Y-20254720D01*
X43400099Y-20730141D01*
X43063945Y-21148234D01*
X42652981Y-21493073D01*
X42182866Y-21751521D01*
X41671505Y-21913734D01*
X41127042Y-21974805D01*
X41099118Y-21975000D01*
X-2987771Y-21975000D01*
X-3533912Y-21921450D01*
X-4047487Y-21766393D01*
X-4521163Y-21514535D01*
X-4936900Y-21175469D01*
X-5278860Y-20762111D01*
X-5534017Y-20290206D01*
X-5692659Y-19777719D01*
X-5748735Y-19244192D01*
X-5731079Y-19050178D01*
X-4775000Y-19050178D01*
X-4775000Y-19399822D01*
X-4706787Y-19742748D01*
X-4572984Y-20065778D01*
X-4378732Y-20356496D01*
X-4131496Y-20603732D01*
X-3840778Y-20797984D01*
X-3517748Y-20931787D01*
X-3174822Y-21000000D01*
X-2825178Y-21000000D01*
X-2482252Y-20931787D01*
X-2159222Y-20797984D01*
X-2033647Y-20714077D01*
X-99427Y-20714077D01*
X-87581Y-20753153D01*
X23009Y-21009681D01*
X181520Y-21239705D01*
X381860Y-21434385D01*
X616331Y-21586240D01*
X875922Y-21689434D01*
X1095000Y-21590471D01*
X1095000Y-20495000D01*
X757Y-20495000D01*
X-99427Y-20714077D01*
X-2033647Y-20714077D01*
X-1868504Y-20603732D01*
X-1621268Y-20356496D01*
X-1427016Y-20065778D01*
X-1293213Y-19742748D01*
X-1225000Y-19399822D01*
X-1225000Y-19050178D01*
X-1293213Y-18707252D01*
X-1427016Y-18384222D01*
X-1567430Y-18174077D01*
X-99427Y-18174077D01*
X-87581Y-18213153D01*
X23009Y-18469681D01*
X181520Y-18699705D01*
X381860Y-18894385D01*
X616331Y-19046240D01*
X625790Y-19050000D01*
X616331Y-19053760D01*
X381860Y-19205615D01*
X181520Y-19400295D01*
X23009Y-19630319D01*
X-87581Y-19886847D01*
X-99427Y-19925923D01*
X757Y-20145000D01*
X1095000Y-20145000D01*
X1095000Y-17955000D01*
X757Y-17955000D01*
X-99427Y-18174077D01*
X-1567430Y-18174077D01*
X-1621268Y-18093504D01*
X-1868504Y-17846268D01*
X-2159222Y-17652016D01*
X-2482252Y-17518213D01*
X-2825178Y-17450000D01*
X-3174822Y-17450000D01*
X-3517748Y-17518213D01*
X-3840778Y-17652016D01*
X-4131496Y-17846268D01*
X-4378732Y-18093504D01*
X-4572984Y-18384222D01*
X-4706787Y-18707252D01*
X-4775000Y-19050178D01*
X-5731079Y-19050178D01*
X-5700113Y-18709928D01*
X-5548644Y-18195279D01*
X-5300098Y-17719855D01*
X-4963945Y-17301766D01*
X-4552984Y-16956929D01*
X-4082870Y-16698481D01*
X-3571505Y-16536266D01*
X-3027042Y-16475195D01*
X-2999118Y-16475000D01*
X-12275Y-16475000D01*
X0Y-16476209D01*
X12275Y-16475000D01*
X49008Y-16471382D01*
X96134Y-16457087D01*
X139564Y-16433873D01*
X177632Y-16402632D01*
X208873Y-16364564D01*
X232087Y-16321134D01*
X246382Y-16274008D01*
X250991Y-16227213D01*
X381860Y-16354385D01*
X616331Y-16506240D01*
X625790Y-16510000D01*
X616331Y-16513760D01*
X381860Y-16665615D01*
X181520Y-16860295D01*
X23009Y-17090319D01*
X-87581Y-17346847D01*
X-99427Y-17385923D01*
X757Y-17605000D01*
X1095000Y-17605000D01*
X1095000Y-15415000D01*
X1075000Y-15415000D01*
X1075000Y-15065000D01*
X1095000Y-15065000D01*
X1095000Y-12875000D01*
X1075000Y-12875000D01*
X1075000Y-12525000D01*
X1095000Y-12525000D01*
X1095000Y-10335000D01*
X1075000Y-10335000D01*
X1075000Y-9985000D01*
X1095000Y-9985000D01*
X1095000Y-7795000D01*
X1075000Y-7795000D01*
X1075000Y-7445000D01*
X1095000Y-7445000D01*
X1095000Y-5255000D01*
X757Y-5255000D01*
X-99427Y-5474077D01*
X-87581Y-5513153D01*
X23009Y-5769681D01*
X181520Y-5999705D01*
X381860Y-6194385D01*
X616331Y-6346240D01*
X625790Y-6350000D01*
X616331Y-6353760D01*
X381860Y-6505615D01*
X250991Y-6632787D01*
X246382Y-6585992D01*
X232087Y-6538866D01*
X208873Y-6495436D01*
X177632Y-6457368D01*
X139564Y-6426127D01*
X96134Y-6402913D01*
X49008Y-6388618D01*
X12275Y-6385000D01*
X0Y-6383791D01*
X-12275Y-6385000D01*
X-2987771Y-6385000D01*
X-3533912Y-6331450D01*
X-4047487Y-6176393D01*
X-4521163Y-5924535D01*
X-4936900Y-5585469D01*
X-5278860Y-5172111D01*
X-5534017Y-4700206D01*
X-5692659Y-4187719D01*
X-5748735Y-3654192D01*
X-5731079Y-3460178D01*
X-4775000Y-3460178D01*
X-4775000Y-3809822D01*
X-4706787Y-4152748D01*
X-4572984Y-4475778D01*
X-4378732Y-4766496D01*
X-4131496Y-5013732D01*
X-3840778Y-5207984D01*
X-3517748Y-5341787D01*
X-3174822Y-5410000D01*
X-2825178Y-5410000D01*
X-2482252Y-5341787D01*
X-2159222Y-5207984D01*
X-1868504Y-5013732D01*
X-1621268Y-4766496D01*
X-1427016Y-4475778D01*
X-1293213Y-4152748D01*
X-1225000Y-3809822D01*
X-1225000Y-3460178D01*
X-1293213Y-3117252D01*
X-1369086Y-2934077D01*
X-99427Y-2934077D01*
X-87581Y-2973153D01*
X23009Y-3229681D01*
X181520Y-3459705D01*
X381860Y-3654385D01*
X616331Y-3806240D01*
X625790Y-3810000D01*
X616331Y-3813760D01*
X381860Y-3965615D01*
X181520Y-4160295D01*
X23009Y-4390319D01*
X-87581Y-4646847D01*
X-99427Y-4685923D01*
X757Y-4905000D01*
X1095000Y-4905000D01*
X1095000Y-2715000D01*
X757Y-2715000D01*
X-99427Y-2934077D01*
X-1369086Y-2934077D01*
X-1427016Y-2794222D01*
X-1621268Y-2503504D01*
X-1868504Y-2256268D01*
X-2033646Y-2145923D01*
X-99427Y-2145923D01*
X757Y-2365000D01*
X1095000Y-2365000D01*
X1095000Y-1269529D01*
X1445000Y-1269529D01*
X1445000Y-2365000D01*
X1465000Y-2365000D01*
X1465000Y-2715000D01*
X1445000Y-2715000D01*
X1445000Y-4905000D01*
X1465000Y-4905000D01*
X1465000Y-5255000D01*
X1445000Y-5255000D01*
X1445000Y-7445000D01*
X1465000Y-7445000D01*
X1465000Y-7795000D01*
X1445000Y-7795000D01*
X1445000Y-9985000D01*
X1465000Y-9985000D01*
X1465000Y-10335000D01*
X1445000Y-10335000D01*
X1445000Y-12525000D01*
X1465000Y-12525000D01*
X1465000Y-12875000D01*
X1445000Y-12875000D01*
X1445000Y-15065000D01*
X1465000Y-15065000D01*
X1465000Y-15415000D01*
X1445000Y-15415000D01*
X1445000Y-17605000D01*
X1465000Y-17605000D01*
X1465000Y-17955000D01*
X1445000Y-17955000D01*
X1445000Y-20145000D01*
X1465000Y-20145000D01*
X1465000Y-20495000D01*
X1445000Y-20495000D01*
X1445000Y-21590471D01*
X1664078Y-21689434D01*
X1923669Y-21586240D01*
X2158140Y-21434385D01*
X2358480Y-21239705D01*
X2516991Y-21009681D01*
X2627581Y-20753153D01*
X2639427Y-20714077D01*
X2539244Y-20495002D01*
X2695000Y-20495002D01*
X2695000Y-20476796D01*
X2701278Y-20540538D01*
X2765607Y-20752602D01*
X2870071Y-20948040D01*
X3010656Y-21119344D01*
X3181960Y-21259929D01*
X3377398Y-21364393D01*
X3589462Y-21428722D01*
X3754736Y-21445000D01*
X3865264Y-21445000D01*
X4030538Y-21428722D01*
X4242602Y-21364393D01*
X4438040Y-21259929D01*
X4506189Y-21204000D01*
X32574218Y-21204000D01*
X32585320Y-21316720D01*
X32618199Y-21425108D01*
X32671592Y-21524998D01*
X32743446Y-21612554D01*
X32831002Y-21684408D01*
X32930892Y-21737801D01*
X33039280Y-21770680D01*
X33152000Y-21781782D01*
X34733250Y-21779000D01*
X34877000Y-21635250D01*
X34877000Y-19479000D01*
X35227000Y-19479000D01*
X35227000Y-21635250D01*
X35370750Y-21779000D01*
X36952000Y-21781782D01*
X37064720Y-21770680D01*
X37173108Y-21737801D01*
X37272998Y-21684408D01*
X37360554Y-21612554D01*
X37432408Y-21524998D01*
X37485801Y-21425108D01*
X37518680Y-21316720D01*
X37529782Y-21204000D01*
X37527000Y-19622750D01*
X37383250Y-19479000D01*
X35227000Y-19479000D01*
X34877000Y-19479000D01*
X32720750Y-19479000D01*
X32577000Y-19622750D01*
X32574218Y-21204000D01*
X4506189Y-21204000D01*
X4609344Y-21119344D01*
X4749929Y-20948040D01*
X4854393Y-20752602D01*
X4918722Y-20540538D01*
X4940443Y-20320000D01*
X4918722Y-20099462D01*
X4854393Y-19887398D01*
X4749929Y-19691960D01*
X4609344Y-19520656D01*
X4451358Y-19391000D01*
X10151622Y-19391000D01*
X10181066Y-19689952D01*
X10268267Y-19977416D01*
X10409874Y-20242344D01*
X10600445Y-20474555D01*
X10832656Y-20665126D01*
X11097584Y-20806733D01*
X11385048Y-20893934D01*
X11609089Y-20916000D01*
X29284911Y-20916000D01*
X29508952Y-20893934D01*
X29796416Y-20806733D01*
X30061344Y-20665126D01*
X30293555Y-20474555D01*
X30484126Y-20242344D01*
X30625733Y-19977416D01*
X30712934Y-19689952D01*
X30742378Y-19391000D01*
X30712934Y-19092048D01*
X30625733Y-18804584D01*
X30484126Y-18539656D01*
X30364007Y-18393291D01*
X30364233Y-18391000D01*
X30347339Y-18219470D01*
X30297305Y-18054532D01*
X30216056Y-17902524D01*
X30106712Y-17769288D01*
X29973476Y-17659944D01*
X29821468Y-17578695D01*
X29656530Y-17528661D01*
X29527979Y-17516000D01*
X28892021Y-17516000D01*
X28763470Y-17528661D01*
X28598532Y-17578695D01*
X28446524Y-17659944D01*
X28313288Y-17769288D01*
X28233918Y-17866000D01*
X24344082Y-17866000D01*
X24264712Y-17769288D01*
X24131476Y-17659944D01*
X23979468Y-17578695D01*
X23814530Y-17528661D01*
X23685979Y-17516000D01*
X23050021Y-17516000D01*
X22921470Y-17528661D01*
X22756532Y-17578695D01*
X22604524Y-17659944D01*
X22471288Y-17769288D01*
X22391918Y-17866000D01*
X18502082Y-17866000D01*
X18422712Y-17769288D01*
X18289476Y-17659944D01*
X18137468Y-17578695D01*
X17972530Y-17528661D01*
X17843979Y-17516000D01*
X17208021Y-17516000D01*
X17079470Y-17528661D01*
X16914532Y-17578695D01*
X16762524Y-17659944D01*
X16629288Y-17769288D01*
X16549918Y-17866000D01*
X12660082Y-17866000D01*
X12580712Y-17769288D01*
X12447476Y-17659944D01*
X12295468Y-17578695D01*
X12130530Y-17528661D01*
X12001979Y-17516000D01*
X11366021Y-17516000D01*
X11237470Y-17528661D01*
X11072532Y-17578695D01*
X10920524Y-17659944D01*
X10787288Y-17769288D01*
X10677944Y-17902524D01*
X10596695Y-18054532D01*
X10546661Y-18219470D01*
X10529767Y-18391000D01*
X10529993Y-18393291D01*
X10409874Y-18539656D01*
X10268267Y-18804584D01*
X10181066Y-19092048D01*
X10151622Y-19391000D01*
X4451358Y-19391000D01*
X4438040Y-19380071D01*
X4242602Y-19275607D01*
X4030538Y-19211278D01*
X3865264Y-19195000D01*
X3754736Y-19195000D01*
X3589462Y-19211278D01*
X3377398Y-19275607D01*
X3181960Y-19380071D01*
X3010656Y-19520656D01*
X2870071Y-19691960D01*
X2765607Y-19887398D01*
X2701278Y-20099462D01*
X2695000Y-20163204D01*
X2695000Y-20144998D01*
X2539244Y-20144998D01*
X2639427Y-19925923D01*
X2627581Y-19886847D01*
X2516991Y-19630319D01*
X2358480Y-19400295D01*
X2158140Y-19205615D01*
X1923669Y-19053760D01*
X1914210Y-19050000D01*
X1923669Y-19046240D01*
X2158140Y-18894385D01*
X2358480Y-18699705D01*
X2516991Y-18469681D01*
X2627581Y-18213153D01*
X2639427Y-18174077D01*
X2539244Y-17955002D01*
X2695000Y-17955002D01*
X2695000Y-17936796D01*
X2701278Y-18000538D01*
X2765607Y-18212602D01*
X2870071Y-18408040D01*
X3010656Y-18579344D01*
X3181960Y-18719929D01*
X3377398Y-18824393D01*
X3589462Y-18888722D01*
X3754736Y-18905000D01*
X3865264Y-18905000D01*
X4030538Y-18888722D01*
X4242602Y-18824393D01*
X4438040Y-18719929D01*
X4609344Y-18579344D01*
X4749929Y-18408040D01*
X4854393Y-18212602D01*
X4918722Y-18000538D01*
X4940443Y-17780000D01*
X4918722Y-17559462D01*
X4854393Y-17347398D01*
X4749929Y-17151960D01*
X4609344Y-16980656D01*
X4438040Y-16840071D01*
X4242602Y-16735607D01*
X4030538Y-16671278D01*
X3865264Y-16655000D01*
X3754736Y-16655000D01*
X3589462Y-16671278D01*
X3377398Y-16735607D01*
X3181960Y-16840071D01*
X3010656Y-16980656D01*
X2870071Y-17151960D01*
X2765607Y-17347398D01*
X2701278Y-17559462D01*
X2695000Y-17623204D01*
X2695000Y-17604998D01*
X2539244Y-17604998D01*
X2639427Y-17385923D01*
X2627581Y-17346847D01*
X2516991Y-17090319D01*
X2358480Y-16860295D01*
X2158140Y-16665615D01*
X1923669Y-16513760D01*
X1914210Y-16510000D01*
X1923669Y-16506240D01*
X2158140Y-16354385D01*
X2358480Y-16159705D01*
X2516991Y-15929681D01*
X2627581Y-15673153D01*
X2639427Y-15634077D01*
X2539244Y-15415002D01*
X2695000Y-15415002D01*
X2695000Y-15396796D01*
X2701278Y-15460538D01*
X2765607Y-15672602D01*
X2870071Y-15868040D01*
X3010656Y-16039344D01*
X3181960Y-16179929D01*
X3377398Y-16284393D01*
X3589462Y-16348722D01*
X3754736Y-16365000D01*
X3865264Y-16365000D01*
X4030538Y-16348722D01*
X4242602Y-16284393D01*
X4438040Y-16179929D01*
X4609344Y-16039344D01*
X4749929Y-15868040D01*
X4854393Y-15672602D01*
X4918722Y-15460538D01*
X4940443Y-15240000D01*
X4918722Y-15019462D01*
X4910089Y-14991000D01*
X10231218Y-14991000D01*
X10242320Y-15103720D01*
X10275199Y-15212108D01*
X10328592Y-15311998D01*
X10400446Y-15399554D01*
X10488002Y-15471408D01*
X10587892Y-15524801D01*
X10696280Y-15557680D01*
X10809000Y-15568782D01*
X11110176Y-15567276D01*
X11072532Y-15578695D01*
X10920524Y-15659944D01*
X10787288Y-15769288D01*
X10677944Y-15902524D01*
X10596695Y-16054532D01*
X10546661Y-16219470D01*
X10529767Y-16391000D01*
X10546661Y-16562530D01*
X10596695Y-16727468D01*
X10677944Y-16879476D01*
X10787288Y-17012712D01*
X10920524Y-17122056D01*
X11072532Y-17203305D01*
X11237470Y-17253339D01*
X11366021Y-17266000D01*
X12001979Y-17266000D01*
X12130530Y-17253339D01*
X12295468Y-17203305D01*
X12447476Y-17122056D01*
X12580712Y-17012712D01*
X12690056Y-16879476D01*
X12771305Y-16727468D01*
X12821339Y-16562530D01*
X12838233Y-16391000D01*
X12821339Y-16219470D01*
X12771305Y-16054532D01*
X12690056Y-15902524D01*
X12580712Y-15769288D01*
X12447476Y-15659944D01*
X12295468Y-15578695D01*
X12257824Y-15567276D01*
X12559000Y-15568782D01*
X12671720Y-15557680D01*
X12780108Y-15524801D01*
X12879998Y-15471408D01*
X12967554Y-15399554D01*
X13039408Y-15311998D01*
X13092801Y-15212108D01*
X13125680Y-15103720D01*
X13136782Y-14991000D01*
X16073218Y-14991000D01*
X16084320Y-15103720D01*
X16117199Y-15212108D01*
X16170592Y-15311998D01*
X16242446Y-15399554D01*
X16330002Y-15471408D01*
X16429892Y-15524801D01*
X16538280Y-15557680D01*
X16651000Y-15568782D01*
X16952176Y-15567276D01*
X16914532Y-15578695D01*
X16762524Y-15659944D01*
X16629288Y-15769288D01*
X16519944Y-15902524D01*
X16438695Y-16054532D01*
X16388661Y-16219470D01*
X16371767Y-16391000D01*
X16388661Y-16562530D01*
X16438695Y-16727468D01*
X16519944Y-16879476D01*
X16629288Y-17012712D01*
X16762524Y-17122056D01*
X16914532Y-17203305D01*
X17079470Y-17253339D01*
X17208021Y-17266000D01*
X17843979Y-17266000D01*
X17972530Y-17253339D01*
X18137468Y-17203305D01*
X18289476Y-17122056D01*
X18422712Y-17012712D01*
X18532056Y-16879476D01*
X18613305Y-16727468D01*
X18663339Y-16562530D01*
X18680233Y-16391000D01*
X18663339Y-16219470D01*
X18613305Y-16054532D01*
X18532056Y-15902524D01*
X18422712Y-15769288D01*
X18289476Y-15659944D01*
X18137468Y-15578695D01*
X18099824Y-15567276D01*
X18401000Y-15568782D01*
X18513720Y-15557680D01*
X18622108Y-15524801D01*
X18721998Y-15471408D01*
X18809554Y-15399554D01*
X18881408Y-15311998D01*
X18934801Y-15212108D01*
X18967680Y-15103720D01*
X18978782Y-14991000D01*
X21915218Y-14991000D01*
X21926320Y-15103720D01*
X21959199Y-15212108D01*
X22012592Y-15311998D01*
X22084446Y-15399554D01*
X22172002Y-15471408D01*
X22271892Y-15524801D01*
X22380280Y-15557680D01*
X22493000Y-15568782D01*
X22794176Y-15567276D01*
X22756532Y-15578695D01*
X22604524Y-15659944D01*
X22471288Y-15769288D01*
X22361944Y-15902524D01*
X22280695Y-16054532D01*
X22230661Y-16219470D01*
X22213767Y-16391000D01*
X22230661Y-16562530D01*
X22280695Y-16727468D01*
X22361944Y-16879476D01*
X22471288Y-17012712D01*
X22604524Y-17122056D01*
X22756532Y-17203305D01*
X22921470Y-17253339D01*
X23050021Y-17266000D01*
X23685979Y-17266000D01*
X23814530Y-17253339D01*
X23979468Y-17203305D01*
X24131476Y-17122056D01*
X24264712Y-17012712D01*
X24374056Y-16879476D01*
X24455305Y-16727468D01*
X24505339Y-16562530D01*
X24522233Y-16391000D01*
X24505339Y-16219470D01*
X24455305Y-16054532D01*
X24374056Y-15902524D01*
X24264712Y-15769288D01*
X24131476Y-15659944D01*
X23979468Y-15578695D01*
X23941824Y-15567276D01*
X24243000Y-15568782D01*
X24355720Y-15557680D01*
X24464108Y-15524801D01*
X24563998Y-15471408D01*
X24651554Y-15399554D01*
X24723408Y-15311998D01*
X24776801Y-15212108D01*
X24809680Y-15103720D01*
X24820782Y-14991000D01*
X27757218Y-14991000D01*
X27768320Y-15103720D01*
X27801199Y-15212108D01*
X27854592Y-15311998D01*
X27926446Y-15399554D01*
X28014002Y-15471408D01*
X28113892Y-15524801D01*
X28222280Y-15557680D01*
X28335000Y-15568782D01*
X28636176Y-15567276D01*
X28598532Y-15578695D01*
X28446524Y-15659944D01*
X28313288Y-15769288D01*
X28203944Y-15902524D01*
X28122695Y-16054532D01*
X28072661Y-16219470D01*
X28055767Y-16391000D01*
X28072661Y-16562530D01*
X28122695Y-16727468D01*
X28203944Y-16879476D01*
X28313288Y-17012712D01*
X28446524Y-17122056D01*
X28598532Y-17203305D01*
X28683224Y-17228996D01*
X28711973Y-17264027D01*
X28791914Y-17329633D01*
X28883119Y-17378383D01*
X28982082Y-17408403D01*
X29059212Y-17416000D01*
X29235788Y-17416000D01*
X29312918Y-17408403D01*
X29411881Y-17378383D01*
X29503086Y-17329633D01*
X29583027Y-17264027D01*
X29586106Y-17260275D01*
X29656530Y-17253339D01*
X29821468Y-17203305D01*
X29973476Y-17122056D01*
X30106712Y-17012712D01*
X30216056Y-16879476D01*
X30297305Y-16727468D01*
X30347339Y-16562530D01*
X30364233Y-16391000D01*
X30347339Y-16219470D01*
X30297305Y-16054532D01*
X30216056Y-15902524D01*
X30106712Y-15769288D01*
X29973476Y-15659944D01*
X29821468Y-15578695D01*
X29783824Y-15567276D01*
X30085000Y-15568782D01*
X30197720Y-15557680D01*
X30306108Y-15524801D01*
X30405998Y-15471408D01*
X30493554Y-15399554D01*
X30565408Y-15311998D01*
X30618801Y-15212108D01*
X30651680Y-15103720D01*
X30662782Y-14991000D01*
X30660000Y-14709750D01*
X30516250Y-14566000D01*
X29385000Y-14566000D01*
X29385000Y-14586000D01*
X29035000Y-14586000D01*
X29035000Y-14566000D01*
X27903750Y-14566000D01*
X27760000Y-14709750D01*
X27757218Y-14991000D01*
X24820782Y-14991000D01*
X24818000Y-14709750D01*
X24674250Y-14566000D01*
X23543000Y-14566000D01*
X23543000Y-14586000D01*
X23193000Y-14586000D01*
X23193000Y-14566000D01*
X22061750Y-14566000D01*
X21918000Y-14709750D01*
X21915218Y-14991000D01*
X18978782Y-14991000D01*
X18976000Y-14709750D01*
X18832250Y-14566000D01*
X17701000Y-14566000D01*
X17701000Y-14586000D01*
X17351000Y-14586000D01*
X17351000Y-14566000D01*
X16219750Y-14566000D01*
X16076000Y-14709750D01*
X16073218Y-14991000D01*
X13136782Y-14991000D01*
X13134000Y-14709750D01*
X12990250Y-14566000D01*
X11859000Y-14566000D01*
X11859000Y-14586000D01*
X11509000Y-14586000D01*
X11509000Y-14566000D01*
X10377750Y-14566000D01*
X10234000Y-14709750D01*
X10231218Y-14991000D01*
X4910089Y-14991000D01*
X4854393Y-14807398D01*
X4749929Y-14611960D01*
X4609344Y-14440656D01*
X4608941Y-14440325D01*
X32277000Y-14440325D01*
X32317152Y-14847994D01*
X32475829Y-15371084D01*
X32733508Y-15853166D01*
X33080284Y-16275715D01*
X33502833Y-16622492D01*
X33886394Y-16827510D01*
X33152000Y-16826218D01*
X33039280Y-16837320D01*
X32930892Y-16870199D01*
X32831002Y-16923592D01*
X32743446Y-16995446D01*
X32671592Y-17083002D01*
X32618199Y-17182892D01*
X32585320Y-17291280D01*
X32574218Y-17404000D01*
X32577000Y-18985250D01*
X32720750Y-19129000D01*
X34877000Y-19129000D01*
X34877000Y-19109000D01*
X35227000Y-19109000D01*
X35227000Y-19129000D01*
X37383250Y-19129000D01*
X37462072Y-19050178D01*
X39325000Y-19050178D01*
X39325000Y-19399822D01*
X39393213Y-19742748D01*
X39527016Y-20065778D01*
X39721268Y-20356496D01*
X39968504Y-20603732D01*
X40259222Y-20797984D01*
X40582252Y-20931787D01*
X40925178Y-21000000D01*
X41274822Y-21000000D01*
X41617748Y-20931787D01*
X41940778Y-20797984D01*
X42231496Y-20603732D01*
X42478732Y-20356496D01*
X42672984Y-20065778D01*
X42806787Y-19742748D01*
X42875000Y-19399822D01*
X42875000Y-19050178D01*
X42806787Y-18707252D01*
X42672984Y-18384222D01*
X42478732Y-18093504D01*
X42231496Y-17846268D01*
X41940778Y-17652016D01*
X41617748Y-17518213D01*
X41274822Y-17450000D01*
X40925178Y-17450000D01*
X40582252Y-17518213D01*
X40259222Y-17652016D01*
X39968504Y-17846268D01*
X39721268Y-18093504D01*
X39527016Y-18384222D01*
X39393213Y-18707252D01*
X39325000Y-19050178D01*
X37462072Y-19050178D01*
X37527000Y-18985250D01*
X37529782Y-17404000D01*
X37518680Y-17291280D01*
X37485801Y-17182892D01*
X37432408Y-17083002D01*
X37360554Y-16995446D01*
X37272998Y-16923592D01*
X37173108Y-16870199D01*
X37064720Y-16837320D01*
X36952000Y-16826218D01*
X36217605Y-16827510D01*
X36601166Y-16622492D01*
X37023715Y-16275716D01*
X37370492Y-15853167D01*
X37628171Y-15371085D01*
X37786848Y-14847995D01*
X37827000Y-14440326D01*
X37827000Y-8419674D01*
X37786848Y-8012005D01*
X37628171Y-7488915D01*
X37370492Y-7006833D01*
X37023716Y-6584284D01*
X36601167Y-6237508D01*
X36217606Y-6032490D01*
X36952000Y-6033782D01*
X37064720Y-6022680D01*
X37173108Y-5989801D01*
X37272998Y-5936408D01*
X37360554Y-5864554D01*
X37432408Y-5776998D01*
X37485801Y-5677108D01*
X37518680Y-5568720D01*
X37529782Y-5456000D01*
X37527000Y-3874750D01*
X37383250Y-3731000D01*
X35227000Y-3731000D01*
X35227000Y-3751000D01*
X34877000Y-3751000D01*
X34877000Y-3731000D01*
X32720750Y-3731000D01*
X32577000Y-3874750D01*
X32574218Y-5456000D01*
X32585320Y-5568720D01*
X32618199Y-5677108D01*
X32671592Y-5776998D01*
X32743446Y-5864554D01*
X32831002Y-5936408D01*
X32930892Y-5989801D01*
X33039280Y-6022680D01*
X33152000Y-6033782D01*
X33886395Y-6032490D01*
X33502834Y-6237508D01*
X33080285Y-6584284D01*
X32733509Y-7006833D01*
X32475830Y-7488915D01*
X32317153Y-8012005D01*
X32277001Y-8419674D01*
X32277000Y-14440325D01*
X4608941Y-14440325D01*
X4438040Y-14300071D01*
X4242602Y-14195607D01*
X4030538Y-14131278D01*
X3865264Y-14115000D01*
X3754736Y-14115000D01*
X3589462Y-14131278D01*
X3377398Y-14195607D01*
X3181960Y-14300071D01*
X3010656Y-14440656D01*
X2870071Y-14611960D01*
X2765607Y-14807398D01*
X2701278Y-15019462D01*
X2695000Y-15083204D01*
X2695000Y-15064998D01*
X2539244Y-15064998D01*
X2639427Y-14845923D01*
X2627581Y-14806847D01*
X2516991Y-14550319D01*
X2358480Y-14320295D01*
X2158140Y-14125615D01*
X1923669Y-13973760D01*
X1914210Y-13970000D01*
X1923669Y-13966240D01*
X2158140Y-13814385D01*
X2358480Y-13619705D01*
X2516991Y-13389681D01*
X2627581Y-13133153D01*
X2639427Y-13094077D01*
X2539244Y-12875002D01*
X2695000Y-12875002D01*
X2695000Y-12856796D01*
X2701278Y-12920538D01*
X2765607Y-13132602D01*
X2870071Y-13328040D01*
X3010656Y-13499344D01*
X3181960Y-13639929D01*
X3377398Y-13744393D01*
X3589462Y-13808722D01*
X3754736Y-13825000D01*
X3865264Y-13825000D01*
X4030538Y-13808722D01*
X4088959Y-13791000D01*
X10231218Y-13791000D01*
X10234000Y-14072250D01*
X10377750Y-14216000D01*
X11509000Y-14216000D01*
X11509000Y-13359750D01*
X11859000Y-13359750D01*
X11859000Y-14216000D01*
X12990250Y-14216000D01*
X13134000Y-14072250D01*
X13136782Y-13791000D01*
X16073218Y-13791000D01*
X16076000Y-14072250D01*
X16219750Y-14216000D01*
X17351000Y-14216000D01*
X17351000Y-13359750D01*
X17701000Y-13359750D01*
X17701000Y-14216000D01*
X18832250Y-14216000D01*
X18976000Y-14072250D01*
X18978782Y-13791000D01*
X21915218Y-13791000D01*
X21918000Y-14072250D01*
X22061750Y-14216000D01*
X23193000Y-14216000D01*
X23193000Y-13359750D01*
X23543000Y-13359750D01*
X23543000Y-14216000D01*
X24674250Y-14216000D01*
X24818000Y-14072250D01*
X24820782Y-13791000D01*
X27757218Y-13791000D01*
X27760000Y-14072250D01*
X27903750Y-14216000D01*
X29035000Y-14216000D01*
X29035000Y-13359750D01*
X29385000Y-13359750D01*
X29385000Y-14216000D01*
X30516250Y-14216000D01*
X30660000Y-14072250D01*
X30662782Y-13791000D01*
X30651680Y-13678280D01*
X30618801Y-13569892D01*
X30565408Y-13470002D01*
X30493554Y-13382446D01*
X30405998Y-13310592D01*
X30306108Y-13257199D01*
X30197720Y-13224320D01*
X30085000Y-13213218D01*
X29528750Y-13216000D01*
X29385000Y-13359750D01*
X29035000Y-13359750D01*
X28891250Y-13216000D01*
X28335000Y-13213218D01*
X28222280Y-13224320D01*
X28113892Y-13257199D01*
X28014002Y-13310592D01*
X27926446Y-13382446D01*
X27854592Y-13470002D01*
X27801199Y-13569892D01*
X27768320Y-13678280D01*
X27757218Y-13791000D01*
X24820782Y-13791000D01*
X24809680Y-13678280D01*
X24776801Y-13569892D01*
X24723408Y-13470002D01*
X24651554Y-13382446D01*
X24563998Y-13310592D01*
X24464108Y-13257199D01*
X24355720Y-13224320D01*
X24243000Y-13213218D01*
X23686750Y-13216000D01*
X23543000Y-13359750D01*
X23193000Y-13359750D01*
X23049250Y-13216000D01*
X22493000Y-13213218D01*
X22380280Y-13224320D01*
X22271892Y-13257199D01*
X22172002Y-13310592D01*
X22084446Y-13382446D01*
X22012592Y-13470002D01*
X21959199Y-13569892D01*
X21926320Y-13678280D01*
X21915218Y-13791000D01*
X18978782Y-13791000D01*
X18967680Y-13678280D01*
X18934801Y-13569892D01*
X18881408Y-13470002D01*
X18809554Y-13382446D01*
X18721998Y-13310592D01*
X18622108Y-13257199D01*
X18513720Y-13224320D01*
X18401000Y-13213218D01*
X17844750Y-13216000D01*
X17701000Y-13359750D01*
X17351000Y-13359750D01*
X17207250Y-13216000D01*
X16651000Y-13213218D01*
X16538280Y-13224320D01*
X16429892Y-13257199D01*
X16330002Y-13310592D01*
X16242446Y-13382446D01*
X16170592Y-13470002D01*
X16117199Y-13569892D01*
X16084320Y-13678280D01*
X16073218Y-13791000D01*
X13136782Y-13791000D01*
X13125680Y-13678280D01*
X13092801Y-13569892D01*
X13039408Y-13470002D01*
X12967554Y-13382446D01*
X12879998Y-13310592D01*
X12780108Y-13257199D01*
X12671720Y-13224320D01*
X12559000Y-13213218D01*
X12002750Y-13216000D01*
X11859000Y-13359750D01*
X11509000Y-13359750D01*
X11365250Y-13216000D01*
X10809000Y-13213218D01*
X10696280Y-13224320D01*
X10587892Y-13257199D01*
X10488002Y-13310592D01*
X10400446Y-13382446D01*
X10328592Y-13470002D01*
X10275199Y-13569892D01*
X10242320Y-13678280D01*
X10231218Y-13791000D01*
X4088959Y-13791000D01*
X4242602Y-13744393D01*
X4438040Y-13639929D01*
X4609344Y-13499344D01*
X4749929Y-13328040D01*
X4854393Y-13132602D01*
X4918722Y-12920538D01*
X4940443Y-12700000D01*
X4918722Y-12479462D01*
X4854393Y-12267398D01*
X4749929Y-12071960D01*
X4609344Y-11900656D01*
X4438040Y-11760071D01*
X4242602Y-11655607D01*
X4030538Y-11591278D01*
X3865264Y-11575000D01*
X3754736Y-11575000D01*
X3589462Y-11591278D01*
X3377398Y-11655607D01*
X3181960Y-11760071D01*
X3010656Y-11900656D01*
X2870071Y-12071960D01*
X2765607Y-12267398D01*
X2701278Y-12479462D01*
X2695000Y-12543204D01*
X2695000Y-12524998D01*
X2539244Y-12524998D01*
X2639427Y-12305923D01*
X2627581Y-12266847D01*
X2516991Y-12010319D01*
X2358480Y-11780295D01*
X2158140Y-11585615D01*
X1923669Y-11433760D01*
X1914210Y-11430000D01*
X1923669Y-11426240D01*
X2158140Y-11274385D01*
X2358480Y-11079705D01*
X2516991Y-10849681D01*
X2627581Y-10593153D01*
X2639427Y-10554077D01*
X2539244Y-10335002D01*
X2695000Y-10335002D01*
X2695000Y-10316796D01*
X2701278Y-10380538D01*
X2765607Y-10592602D01*
X2870071Y-10788040D01*
X3010656Y-10959344D01*
X3181960Y-11099929D01*
X3377398Y-11204393D01*
X3589462Y-11268722D01*
X3754736Y-11285000D01*
X3865264Y-11285000D01*
X4030538Y-11268722D01*
X4242602Y-11204393D01*
X4438040Y-11099929D01*
X4609344Y-10959344D01*
X4749929Y-10788040D01*
X4854393Y-10592602D01*
X4918722Y-10380538D01*
X4940443Y-10160000D01*
X4918722Y-9939462D01*
X4854393Y-9727398D01*
X4749929Y-9531960D01*
X4609344Y-9360656D01*
X4438040Y-9220071D01*
X4242602Y-9115607D01*
X4030538Y-9051278D01*
X3865264Y-9035000D01*
X3754736Y-9035000D01*
X3589462Y-9051278D01*
X3377398Y-9115607D01*
X3181960Y-9220071D01*
X3010656Y-9360656D01*
X2870071Y-9531960D01*
X2765607Y-9727398D01*
X2701278Y-9939462D01*
X2695000Y-10003204D01*
X2695000Y-9984998D01*
X2539244Y-9984998D01*
X2639427Y-9765923D01*
X2627581Y-9726847D01*
X2516991Y-9470319D01*
X2358480Y-9240295D01*
X2158140Y-9045615D01*
X1923669Y-8893760D01*
X1914210Y-8890000D01*
X1923669Y-8886240D01*
X2158140Y-8734385D01*
X2358480Y-8539705D01*
X2516991Y-8309681D01*
X2627581Y-8053153D01*
X2639427Y-8014077D01*
X2539244Y-7795002D01*
X2695000Y-7795002D01*
X2695000Y-7776796D01*
X2701278Y-7840538D01*
X2765607Y-8052602D01*
X2870071Y-8248040D01*
X3010656Y-8419344D01*
X3181960Y-8559929D01*
X3377398Y-8664393D01*
X3589462Y-8728722D01*
X3754736Y-8745000D01*
X3865264Y-8745000D01*
X4030538Y-8728722D01*
X4242602Y-8664393D01*
X4438040Y-8559929D01*
X4548837Y-8469000D01*
X10151622Y-8469000D01*
X10181066Y-8767952D01*
X10268267Y-9055416D01*
X10409874Y-9320344D01*
X10600445Y-9552555D01*
X10832656Y-9743126D01*
X11097584Y-9884733D01*
X11385048Y-9971934D01*
X11609089Y-9994000D01*
X29284911Y-9994000D01*
X29508952Y-9971934D01*
X29796416Y-9884733D01*
X30061344Y-9743126D01*
X30293555Y-9552555D01*
X30484126Y-9320344D01*
X30625733Y-9055416D01*
X30712934Y-8767952D01*
X30742378Y-8469000D01*
X30712934Y-8170048D01*
X30625733Y-7882584D01*
X30484126Y-7617656D01*
X30364007Y-7471291D01*
X30364233Y-7469000D01*
X30347339Y-7297470D01*
X30297305Y-7132532D01*
X30216056Y-6980524D01*
X30106712Y-6847288D01*
X29973476Y-6737944D01*
X29821468Y-6656695D01*
X29656530Y-6606661D01*
X29527979Y-6594000D01*
X28892021Y-6594000D01*
X28763470Y-6606661D01*
X28598532Y-6656695D01*
X28446524Y-6737944D01*
X28313288Y-6847288D01*
X28233918Y-6944000D01*
X24344082Y-6944000D01*
X24264712Y-6847288D01*
X24131476Y-6737944D01*
X23979468Y-6656695D01*
X23814530Y-6606661D01*
X23685979Y-6594000D01*
X23050021Y-6594000D01*
X22921470Y-6606661D01*
X22756532Y-6656695D01*
X22604524Y-6737944D01*
X22471288Y-6847288D01*
X22391918Y-6944000D01*
X18502082Y-6944000D01*
X18422712Y-6847288D01*
X18289476Y-6737944D01*
X18137468Y-6656695D01*
X17972530Y-6606661D01*
X17843979Y-6594000D01*
X17208021Y-6594000D01*
X17079470Y-6606661D01*
X16914532Y-6656695D01*
X16762524Y-6737944D01*
X16629288Y-6847288D01*
X16549918Y-6944000D01*
X12660082Y-6944000D01*
X12580712Y-6847288D01*
X12447476Y-6737944D01*
X12295468Y-6656695D01*
X12130530Y-6606661D01*
X12001979Y-6594000D01*
X11366021Y-6594000D01*
X11237470Y-6606661D01*
X11072532Y-6656695D01*
X10920524Y-6737944D01*
X10787288Y-6847288D01*
X10677944Y-6980524D01*
X10596695Y-7132532D01*
X10546661Y-7297470D01*
X10529767Y-7469000D01*
X10529993Y-7471291D01*
X10409874Y-7617656D01*
X10268267Y-7882584D01*
X10181066Y-8170048D01*
X10151622Y-8469000D01*
X4548837Y-8469000D01*
X4609344Y-8419344D01*
X4749929Y-8248040D01*
X4854393Y-8052602D01*
X4918722Y-7840538D01*
X4940443Y-7620000D01*
X4918722Y-7399462D01*
X4854393Y-7187398D01*
X4749929Y-6991960D01*
X4609344Y-6820656D01*
X4438040Y-6680071D01*
X4242602Y-6575607D01*
X4030538Y-6511278D01*
X3865264Y-6495000D01*
X3754736Y-6495000D01*
X3589462Y-6511278D01*
X3377398Y-6575607D01*
X3181960Y-6680071D01*
X3010656Y-6820656D01*
X2870071Y-6991960D01*
X2765607Y-7187398D01*
X2701278Y-7399462D01*
X2695000Y-7463204D01*
X2695000Y-7444998D01*
X2539244Y-7444998D01*
X2639427Y-7225923D01*
X2627581Y-7186847D01*
X2516991Y-6930319D01*
X2358480Y-6700295D01*
X2158140Y-6505615D01*
X1923669Y-6353760D01*
X1914210Y-6350000D01*
X1923669Y-6346240D01*
X2158140Y-6194385D01*
X2358480Y-5999705D01*
X2516991Y-5769681D01*
X2627581Y-5513153D01*
X2639427Y-5474077D01*
X2539244Y-5255002D01*
X2695000Y-5255002D01*
X2695000Y-5236796D01*
X2701278Y-5300538D01*
X2765607Y-5512602D01*
X2870071Y-5708040D01*
X3010656Y-5879344D01*
X3181960Y-6019929D01*
X3377398Y-6124393D01*
X3589462Y-6188722D01*
X3754736Y-6205000D01*
X3865264Y-6205000D01*
X4030538Y-6188722D01*
X4242602Y-6124393D01*
X4438040Y-6019929D01*
X4609344Y-5879344D01*
X4749929Y-5708040D01*
X4854393Y-5512602D01*
X4918722Y-5300538D01*
X4940443Y-5080000D01*
X4918722Y-4859462D01*
X4854393Y-4647398D01*
X4749929Y-4451960D01*
X4609344Y-4280656D01*
X4438040Y-4140071D01*
X4305076Y-4069000D01*
X10231218Y-4069000D01*
X10242320Y-4181720D01*
X10275199Y-4290108D01*
X10328592Y-4389998D01*
X10400446Y-4477554D01*
X10488002Y-4549408D01*
X10587892Y-4602801D01*
X10696280Y-4635680D01*
X10809000Y-4646782D01*
X11110176Y-4645276D01*
X11072532Y-4656695D01*
X10920524Y-4737944D01*
X10787288Y-4847288D01*
X10677944Y-4980524D01*
X10596695Y-5132532D01*
X10546661Y-5297470D01*
X10529767Y-5469000D01*
X10546661Y-5640530D01*
X10596695Y-5805468D01*
X10677944Y-5957476D01*
X10787288Y-6090712D01*
X10920524Y-6200056D01*
X11072532Y-6281305D01*
X11237470Y-6331339D01*
X11366021Y-6344000D01*
X12001979Y-6344000D01*
X12130530Y-6331339D01*
X12295468Y-6281305D01*
X12447476Y-6200056D01*
X12580712Y-6090712D01*
X12690056Y-5957476D01*
X12771305Y-5805468D01*
X12821339Y-5640530D01*
X12838233Y-5469000D01*
X12821339Y-5297470D01*
X12771305Y-5132532D01*
X12690056Y-4980524D01*
X12580712Y-4847288D01*
X12447476Y-4737944D01*
X12295468Y-4656695D01*
X12257824Y-4645276D01*
X12559000Y-4646782D01*
X12671720Y-4635680D01*
X12780108Y-4602801D01*
X12879998Y-4549408D01*
X12967554Y-4477554D01*
X13039408Y-4389998D01*
X13092801Y-4290108D01*
X13125680Y-4181720D01*
X13136782Y-4069000D01*
X16073218Y-4069000D01*
X16084320Y-4181720D01*
X16117199Y-4290108D01*
X16170592Y-4389998D01*
X16242446Y-4477554D01*
X16330002Y-4549408D01*
X16429892Y-4602801D01*
X16538280Y-4635680D01*
X16651000Y-4646782D01*
X16952176Y-4645276D01*
X16914532Y-4656695D01*
X16762524Y-4737944D01*
X16629288Y-4847288D01*
X16519944Y-4980524D01*
X16438695Y-5132532D01*
X16388661Y-5297470D01*
X16371767Y-5469000D01*
X16388661Y-5640530D01*
X16438695Y-5805468D01*
X16519944Y-5957476D01*
X16629288Y-6090712D01*
X16762524Y-6200056D01*
X16914532Y-6281305D01*
X17079470Y-6331339D01*
X17208021Y-6344000D01*
X17843979Y-6344000D01*
X17972530Y-6331339D01*
X18137468Y-6281305D01*
X18289476Y-6200056D01*
X18422712Y-6090712D01*
X18532056Y-5957476D01*
X18613305Y-5805468D01*
X18663339Y-5640530D01*
X18680233Y-5469000D01*
X18663339Y-5297470D01*
X18613305Y-5132532D01*
X18532056Y-4980524D01*
X18422712Y-4847288D01*
X18289476Y-4737944D01*
X18137468Y-4656695D01*
X18099824Y-4645276D01*
X18401000Y-4646782D01*
X18513720Y-4635680D01*
X18622108Y-4602801D01*
X18721998Y-4549408D01*
X18809554Y-4477554D01*
X18881408Y-4389998D01*
X18934801Y-4290108D01*
X18967680Y-4181720D01*
X18978782Y-4069000D01*
X21915218Y-4069000D01*
X21926320Y-4181720D01*
X21959199Y-4290108D01*
X22012592Y-4389998D01*
X22084446Y-4477554D01*
X22172002Y-4549408D01*
X22271892Y-4602801D01*
X22380280Y-4635680D01*
X22493000Y-4646782D01*
X22794176Y-4645276D01*
X22756532Y-4656695D01*
X22604524Y-4737944D01*
X22471288Y-4847288D01*
X22361944Y-4980524D01*
X22280695Y-5132532D01*
X22230661Y-5297470D01*
X22213767Y-5469000D01*
X22230661Y-5640530D01*
X22280695Y-5805468D01*
X22361944Y-5957476D01*
X22471288Y-6090712D01*
X22604524Y-6200056D01*
X22756532Y-6281305D01*
X22921470Y-6331339D01*
X23050021Y-6344000D01*
X23685979Y-6344000D01*
X23814530Y-6331339D01*
X23979468Y-6281305D01*
X24131476Y-6200056D01*
X24264712Y-6090712D01*
X24374056Y-5957476D01*
X24455305Y-5805468D01*
X24505339Y-5640530D01*
X24522233Y-5469000D01*
X24505339Y-5297470D01*
X24455305Y-5132532D01*
X24374056Y-4980524D01*
X24264712Y-4847288D01*
X24131476Y-4737944D01*
X23979468Y-4656695D01*
X23941824Y-4645276D01*
X24243000Y-4646782D01*
X24355720Y-4635680D01*
X24464108Y-4602801D01*
X24563998Y-4549408D01*
X24651554Y-4477554D01*
X24723408Y-4389998D01*
X24776801Y-4290108D01*
X24809680Y-4181720D01*
X24820782Y-4069000D01*
X27757218Y-4069000D01*
X27768320Y-4181720D01*
X27801199Y-4290108D01*
X27854592Y-4389998D01*
X27926446Y-4477554D01*
X28014002Y-4549408D01*
X28113892Y-4602801D01*
X28222280Y-4635680D01*
X28335000Y-4646782D01*
X28636176Y-4645276D01*
X28598532Y-4656695D01*
X28446524Y-4737944D01*
X28313288Y-4847288D01*
X28203944Y-4980524D01*
X28122695Y-5132532D01*
X28072661Y-5297470D01*
X28055767Y-5469000D01*
X28072661Y-5640530D01*
X28122695Y-5805468D01*
X28203944Y-5957476D01*
X28313288Y-6090712D01*
X28446524Y-6200056D01*
X28598532Y-6281305D01*
X28763470Y-6331339D01*
X28892021Y-6344000D01*
X29527979Y-6344000D01*
X29656530Y-6331339D01*
X29821468Y-6281305D01*
X29973476Y-6200056D01*
X30106712Y-6090712D01*
X30216056Y-5957476D01*
X30297305Y-5805468D01*
X30347339Y-5640530D01*
X30364233Y-5469000D01*
X30347339Y-5297470D01*
X30297305Y-5132532D01*
X30216056Y-4980524D01*
X30106712Y-4847288D01*
X29973476Y-4737944D01*
X29821468Y-4656695D01*
X29783824Y-4645276D01*
X30085000Y-4646782D01*
X30197720Y-4635680D01*
X30306108Y-4602801D01*
X30405998Y-4549408D01*
X30493554Y-4477554D01*
X30565408Y-4389998D01*
X30618801Y-4290108D01*
X30651680Y-4181720D01*
X30662782Y-4069000D01*
X30660000Y-3787750D01*
X30516250Y-3644000D01*
X29385000Y-3644000D01*
X29385000Y-3664000D01*
X29035000Y-3664000D01*
X29035000Y-3644000D01*
X27903750Y-3644000D01*
X27760000Y-3787750D01*
X27757218Y-4069000D01*
X24820782Y-4069000D01*
X24818000Y-3787750D01*
X24674250Y-3644000D01*
X23543000Y-3644000D01*
X23543000Y-3664000D01*
X23193000Y-3664000D01*
X23193000Y-3644000D01*
X22061750Y-3644000D01*
X21918000Y-3787750D01*
X21915218Y-4069000D01*
X18978782Y-4069000D01*
X18976000Y-3787750D01*
X18832250Y-3644000D01*
X17701000Y-3644000D01*
X17701000Y-3664000D01*
X17351000Y-3664000D01*
X17351000Y-3644000D01*
X16219750Y-3644000D01*
X16076000Y-3787750D01*
X16073218Y-4069000D01*
X13136782Y-4069000D01*
X13134000Y-3787750D01*
X12990250Y-3644000D01*
X11859000Y-3644000D01*
X11859000Y-3664000D01*
X11509000Y-3664000D01*
X11509000Y-3644000D01*
X10377750Y-3644000D01*
X10234000Y-3787750D01*
X10231218Y-4069000D01*
X4305076Y-4069000D01*
X4242602Y-4035607D01*
X4030538Y-3971278D01*
X3865264Y-3955000D01*
X3754736Y-3955000D01*
X3589462Y-3971278D01*
X3377398Y-4035607D01*
X3181960Y-4140071D01*
X3010656Y-4280656D01*
X2870071Y-4451960D01*
X2765607Y-4647398D01*
X2701278Y-4859462D01*
X2695000Y-4923204D01*
X2695000Y-4904998D01*
X2539244Y-4904998D01*
X2639427Y-4685923D01*
X2627581Y-4646847D01*
X2516991Y-4390319D01*
X2358480Y-4160295D01*
X2158140Y-3965615D01*
X1923669Y-3813760D01*
X1914210Y-3810000D01*
X1923669Y-3806240D01*
X2158140Y-3654385D01*
X2358480Y-3459705D01*
X2516991Y-3229681D01*
X2627581Y-2973153D01*
X2639427Y-2934077D01*
X2539244Y-2715002D01*
X2683670Y-2715002D01*
X2683670Y-3390000D01*
X2688980Y-3443909D01*
X2704704Y-3495747D01*
X2730240Y-3543521D01*
X2764605Y-3585395D01*
X2806479Y-3619760D01*
X2854253Y-3645296D01*
X2906091Y-3661020D01*
X2960000Y-3666330D01*
X4660000Y-3666330D01*
X4713909Y-3661020D01*
X4765747Y-3645296D01*
X4813521Y-3619760D01*
X4855395Y-3585395D01*
X4889760Y-3543521D01*
X4915296Y-3495747D01*
X4926085Y-3460178D01*
X39325000Y-3460178D01*
X39325000Y-3809822D01*
X39393213Y-4152748D01*
X39527016Y-4475778D01*
X39721268Y-4766496D01*
X39968504Y-5013732D01*
X40259222Y-5207984D01*
X40582252Y-5341787D01*
X40925178Y-5410000D01*
X41274822Y-5410000D01*
X41617748Y-5341787D01*
X41940778Y-5207984D01*
X42231496Y-5013732D01*
X42478732Y-4766496D01*
X42672984Y-4475778D01*
X42806787Y-4152748D01*
X42875000Y-3809822D01*
X42875000Y-3460178D01*
X42806787Y-3117252D01*
X42672984Y-2794222D01*
X42478732Y-2503504D01*
X42231496Y-2256268D01*
X41940778Y-2062016D01*
X41617748Y-1928213D01*
X41274822Y-1860000D01*
X40925178Y-1860000D01*
X40582252Y-1928213D01*
X40259222Y-2062016D01*
X39968504Y-2256268D01*
X39721268Y-2503504D01*
X39527016Y-2794222D01*
X39393213Y-3117252D01*
X39325000Y-3460178D01*
X4926085Y-3460178D01*
X4931020Y-3443909D01*
X4936330Y-3390000D01*
X4936330Y-2869000D01*
X10231218Y-2869000D01*
X10234000Y-3150250D01*
X10377750Y-3294000D01*
X11509000Y-3294000D01*
X11509000Y-2437750D01*
X11859000Y-2437750D01*
X11859000Y-3294000D01*
X12990250Y-3294000D01*
X13134000Y-3150250D01*
X13136782Y-2869000D01*
X16073218Y-2869000D01*
X16076000Y-3150250D01*
X16219750Y-3294000D01*
X17351000Y-3294000D01*
X17351000Y-2437750D01*
X17701000Y-2437750D01*
X17701000Y-3294000D01*
X18832250Y-3294000D01*
X18976000Y-3150250D01*
X18978782Y-2869000D01*
X21915218Y-2869000D01*
X21918000Y-3150250D01*
X22061750Y-3294000D01*
X23193000Y-3294000D01*
X23193000Y-2437750D01*
X23543000Y-2437750D01*
X23543000Y-3294000D01*
X24674250Y-3294000D01*
X24818000Y-3150250D01*
X24820782Y-2869000D01*
X27757218Y-2869000D01*
X27760000Y-3150250D01*
X27903750Y-3294000D01*
X29035000Y-3294000D01*
X29035000Y-2437750D01*
X29385000Y-2437750D01*
X29385000Y-3294000D01*
X30516250Y-3294000D01*
X30660000Y-3150250D01*
X30662782Y-2869000D01*
X30651680Y-2756280D01*
X30618801Y-2647892D01*
X30565408Y-2548002D01*
X30493554Y-2460446D01*
X30405998Y-2388592D01*
X30306108Y-2335199D01*
X30197720Y-2302320D01*
X30085000Y-2291218D01*
X29528750Y-2294000D01*
X29385000Y-2437750D01*
X29035000Y-2437750D01*
X28891250Y-2294000D01*
X28335000Y-2291218D01*
X28222280Y-2302320D01*
X28113892Y-2335199D01*
X28014002Y-2388592D01*
X27926446Y-2460446D01*
X27854592Y-2548002D01*
X27801199Y-2647892D01*
X27768320Y-2756280D01*
X27757218Y-2869000D01*
X24820782Y-2869000D01*
X24809680Y-2756280D01*
X24776801Y-2647892D01*
X24723408Y-2548002D01*
X24651554Y-2460446D01*
X24563998Y-2388592D01*
X24464108Y-2335199D01*
X24355720Y-2302320D01*
X24243000Y-2291218D01*
X23686750Y-2294000D01*
X23543000Y-2437750D01*
X23193000Y-2437750D01*
X23049250Y-2294000D01*
X22493000Y-2291218D01*
X22380280Y-2302320D01*
X22271892Y-2335199D01*
X22172002Y-2388592D01*
X22084446Y-2460446D01*
X22012592Y-2548002D01*
X21959199Y-2647892D01*
X21926320Y-2756280D01*
X21915218Y-2869000D01*
X18978782Y-2869000D01*
X18967680Y-2756280D01*
X18934801Y-2647892D01*
X18881408Y-2548002D01*
X18809554Y-2460446D01*
X18721998Y-2388592D01*
X18622108Y-2335199D01*
X18513720Y-2302320D01*
X18401000Y-2291218D01*
X17844750Y-2294000D01*
X17701000Y-2437750D01*
X17351000Y-2437750D01*
X17207250Y-2294000D01*
X16651000Y-2291218D01*
X16538280Y-2302320D01*
X16429892Y-2335199D01*
X16330002Y-2388592D01*
X16242446Y-2460446D01*
X16170592Y-2548002D01*
X16117199Y-2647892D01*
X16084320Y-2756280D01*
X16073218Y-2869000D01*
X13136782Y-2869000D01*
X13125680Y-2756280D01*
X13092801Y-2647892D01*
X13039408Y-2548002D01*
X12967554Y-2460446D01*
X12879998Y-2388592D01*
X12780108Y-2335199D01*
X12671720Y-2302320D01*
X12559000Y-2291218D01*
X12002750Y-2294000D01*
X11859000Y-2437750D01*
X11509000Y-2437750D01*
X11365250Y-2294000D01*
X10809000Y-2291218D01*
X10696280Y-2302320D01*
X10587892Y-2335199D01*
X10488002Y-2388592D01*
X10400446Y-2460446D01*
X10328592Y-2548002D01*
X10275199Y-2647892D01*
X10242320Y-2756280D01*
X10231218Y-2869000D01*
X4936330Y-2869000D01*
X4936330Y-1690000D01*
X4932982Y-1656000D01*
X32574218Y-1656000D01*
X32577000Y-3237250D01*
X32720750Y-3381000D01*
X34877000Y-3381000D01*
X34877000Y-1224750D01*
X35227000Y-1224750D01*
X35227000Y-3381000D01*
X37383250Y-3381000D01*
X37527000Y-3237250D01*
X37529782Y-1656000D01*
X37518680Y-1543280D01*
X37485801Y-1434892D01*
X37432408Y-1335002D01*
X37360554Y-1247446D01*
X37272998Y-1175592D01*
X37173108Y-1122199D01*
X37064720Y-1089320D01*
X36952000Y-1078218D01*
X35370750Y-1081000D01*
X35227000Y-1224750D01*
X34877000Y-1224750D01*
X34733250Y-1081000D01*
X33152000Y-1078218D01*
X33039280Y-1089320D01*
X32930892Y-1122199D01*
X32831002Y-1175592D01*
X32743446Y-1247446D01*
X32671592Y-1335002D01*
X32618199Y-1434892D01*
X32585320Y-1543280D01*
X32574218Y-1656000D01*
X4932982Y-1656000D01*
X4931020Y-1636091D01*
X4915296Y-1584253D01*
X4889760Y-1536479D01*
X4855395Y-1494605D01*
X4813521Y-1460240D01*
X4765747Y-1434704D01*
X4713909Y-1418980D01*
X4660000Y-1413670D01*
X2960000Y-1413670D01*
X2906091Y-1418980D01*
X2854253Y-1434704D01*
X2806479Y-1460240D01*
X2764605Y-1494605D01*
X2730240Y-1536479D01*
X2704704Y-1584253D01*
X2688980Y-1636091D01*
X2683670Y-1690000D01*
X2683670Y-2364998D01*
X2539244Y-2364998D01*
X2639427Y-2145923D01*
X2627581Y-2106847D01*
X2516991Y-1850319D01*
X2358480Y-1620295D01*
X2158140Y-1425615D01*
X1923669Y-1273760D01*
X1664078Y-1170566D01*
X1445000Y-1269529D01*
X1095000Y-1269529D01*
X875922Y-1170566D01*
X616331Y-1273760D01*
X381860Y-1425615D01*
X181520Y-1620295D01*
X23009Y-1850319D01*
X-87581Y-2106847D01*
X-99427Y-2145923D01*
X-2033646Y-2145923D01*
X-2159222Y-2062016D01*
X-2482252Y-1928213D01*
X-2825178Y-1860000D01*
X-3174822Y-1860000D01*
X-3517748Y-1928213D01*
X-3840778Y-2062016D01*
X-4131496Y-2256268D01*
X-4378732Y-2503504D01*
X-4572984Y-2794222D01*
X-4706787Y-3117252D01*
X-4775000Y-3460178D01*
X-5731079Y-3460178D01*
X-5700113Y-3119928D01*
X-5548644Y-2605279D01*
X-5300098Y-2129855D01*
X-4963945Y-1711766D01*
X-4552984Y-1366929D01*
X-4082870Y-1108481D01*
X-3571505Y-946266D01*
X-3027042Y-885195D01*
X-2999118Y-885000D01*
X41087771Y-885000D01*
X41633912Y-938550D01*
X41633912Y-938550D01*
G37*
X41633912Y-938550D02*
X42147487Y-1093607D01*
X42621164Y-1345465D01*
X43036900Y-1684531D01*
X43378860Y-2097889D01*
X43634017Y-2569794D01*
X43792658Y-3082278D01*
X43848734Y-3615813D01*
X43800113Y-4150075D01*
X43648644Y-4664720D01*
X43400099Y-5140141D01*
X43063945Y-5558234D01*
X42652981Y-5903073D01*
X42182866Y-6161521D01*
X41671505Y-6323734D01*
X41127042Y-6384805D01*
X41099118Y-6385000D01*
X38112275Y-6385000D01*
X38100000Y-6383791D01*
X38087725Y-6385000D01*
X38050992Y-6388618D01*
X38003866Y-6402913D01*
X37960436Y-6426127D01*
X37922368Y-6457368D01*
X37891127Y-6495436D01*
X37867913Y-6538866D01*
X37853618Y-6585992D01*
X37848791Y-6635000D01*
X37850000Y-6647275D01*
X37850001Y-16212715D01*
X37848791Y-16225000D01*
X37853618Y-16274008D01*
X37867913Y-16321134D01*
X37891127Y-16364564D01*
X37922368Y-16402632D01*
X37960436Y-16433873D01*
X38003866Y-16457087D01*
X38050992Y-16471382D01*
X38087725Y-16475000D01*
X38100000Y-16476209D01*
X38112275Y-16475000D01*
X41087771Y-16475000D01*
X41633912Y-16528550D01*
X42147487Y-16683607D01*
X42621164Y-16935465D01*
X43036900Y-17274531D01*
X43378860Y-17687889D01*
X43634017Y-18159794D01*
X43792658Y-18672278D01*
X43848734Y-19205813D01*
X43800113Y-19740075D01*
X43648644Y-20254720D01*
X43400099Y-20730141D01*
X43063945Y-21148234D01*
X42652981Y-21493073D01*
X42182866Y-21751521D01*
X41671505Y-21913734D01*
X41127042Y-21974805D01*
X41099118Y-21975000D01*
X-2987771Y-21975000D01*
X-3533912Y-21921450D01*
X-4047487Y-21766393D01*
X-4521163Y-21514535D01*
X-4936900Y-21175469D01*
X-5278860Y-20762111D01*
X-5534017Y-20290206D01*
X-5692659Y-19777719D01*
X-5748735Y-19244192D01*
X-5731079Y-19050178D01*
X-4775000Y-19050178D01*
X-4775000Y-19399822D01*
X-4706787Y-19742748D01*
X-4572984Y-20065778D01*
X-4378732Y-20356496D01*
X-4131496Y-20603732D01*
X-3840778Y-20797984D01*
X-3517748Y-20931787D01*
X-3174822Y-21000000D01*
X-2825178Y-21000000D01*
X-2482252Y-20931787D01*
X-2159222Y-20797984D01*
X-2033647Y-20714077D01*
X-99427Y-20714077D01*
X-87581Y-20753153D01*
X23009Y-21009681D01*
X181520Y-21239705D01*
X381860Y-21434385D01*
X616331Y-21586240D01*
X875922Y-21689434D01*
X1095000Y-21590471D01*
X1095000Y-20495000D01*
X757Y-20495000D01*
X-99427Y-20714077D01*
X-2033647Y-20714077D01*
X-1868504Y-20603732D01*
X-1621268Y-20356496D01*
X-1427016Y-20065778D01*
X-1293213Y-19742748D01*
X-1225000Y-19399822D01*
X-1225000Y-19050178D01*
X-1293213Y-18707252D01*
X-1427016Y-18384222D01*
X-1567430Y-18174077D01*
X-99427Y-18174077D01*
X-87581Y-18213153D01*
X23009Y-18469681D01*
X181520Y-18699705D01*
X381860Y-18894385D01*
X616331Y-19046240D01*
X625790Y-19050000D01*
X616331Y-19053760D01*
X381860Y-19205615D01*
X181520Y-19400295D01*
X23009Y-19630319D01*
X-87581Y-19886847D01*
X-99427Y-19925923D01*
X757Y-20145000D01*
X1095000Y-20145000D01*
X1095000Y-17955000D01*
X757Y-17955000D01*
X-99427Y-18174077D01*
X-1567430Y-18174077D01*
X-1621268Y-18093504D01*
X-1868504Y-17846268D01*
X-2159222Y-17652016D01*
X-2482252Y-17518213D01*
X-2825178Y-17450000D01*
X-3174822Y-17450000D01*
X-3517748Y-17518213D01*
X-3840778Y-17652016D01*
X-4131496Y-17846268D01*
X-4378732Y-18093504D01*
X-4572984Y-18384222D01*
X-4706787Y-18707252D01*
X-4775000Y-19050178D01*
X-5731079Y-19050178D01*
X-5700113Y-18709928D01*
X-5548644Y-18195279D01*
X-5300098Y-17719855D01*
X-4963945Y-17301766D01*
X-4552984Y-16956929D01*
X-4082870Y-16698481D01*
X-3571505Y-16536266D01*
X-3027042Y-16475195D01*
X-2999118Y-16475000D01*
X-12275Y-16475000D01*
X0Y-16476209D01*
X12275Y-16475000D01*
X49008Y-16471382D01*
X96134Y-16457087D01*
X139564Y-16433873D01*
X177632Y-16402632D01*
X208873Y-16364564D01*
X232087Y-16321134D01*
X246382Y-16274008D01*
X250991Y-16227213D01*
X381860Y-16354385D01*
X616331Y-16506240D01*
X625790Y-16510000D01*
X616331Y-16513760D01*
X381860Y-16665615D01*
X181520Y-16860295D01*
X23009Y-17090319D01*
X-87581Y-17346847D01*
X-99427Y-17385923D01*
X757Y-17605000D01*
X1095000Y-17605000D01*
X1095000Y-15415000D01*
X1075000Y-15415000D01*
X1075000Y-15065000D01*
X1095000Y-15065000D01*
X1095000Y-12875000D01*
X1075000Y-12875000D01*
X1075000Y-12525000D01*
X1095000Y-12525000D01*
X1095000Y-10335000D01*
X1075000Y-10335000D01*
X1075000Y-9985000D01*
X1095000Y-9985000D01*
X1095000Y-7795000D01*
X1075000Y-7795000D01*
X1075000Y-7445000D01*
X1095000Y-7445000D01*
X1095000Y-5255000D01*
X757Y-5255000D01*
X-99427Y-5474077D01*
X-87581Y-5513153D01*
X23009Y-5769681D01*
X181520Y-5999705D01*
X381860Y-6194385D01*
X616331Y-6346240D01*
X625790Y-6350000D01*
X616331Y-6353760D01*
X381860Y-6505615D01*
X250991Y-6632787D01*
X246382Y-6585992D01*
X232087Y-6538866D01*
X208873Y-6495436D01*
X177632Y-6457368D01*
X139564Y-6426127D01*
X96134Y-6402913D01*
X49008Y-6388618D01*
X12275Y-6385000D01*
X0Y-6383791D01*
X-12275Y-6385000D01*
X-2987771Y-6385000D01*
X-3533912Y-6331450D01*
X-4047487Y-6176393D01*
X-4521163Y-5924535D01*
X-4936900Y-5585469D01*
X-5278860Y-5172111D01*
X-5534017Y-4700206D01*
X-5692659Y-4187719D01*
X-5748735Y-3654192D01*
X-5731079Y-3460178D01*
X-4775000Y-3460178D01*
X-4775000Y-3809822D01*
X-4706787Y-4152748D01*
X-4572984Y-4475778D01*
X-4378732Y-4766496D01*
X-4131496Y-5013732D01*
X-3840778Y-5207984D01*
X-3517748Y-5341787D01*
X-3174822Y-5410000D01*
X-2825178Y-5410000D01*
X-2482252Y-5341787D01*
X-2159222Y-5207984D01*
X-1868504Y-5013732D01*
X-1621268Y-4766496D01*
X-1427016Y-4475778D01*
X-1293213Y-4152748D01*
X-1225000Y-3809822D01*
X-1225000Y-3460178D01*
X-1293213Y-3117252D01*
X-1369086Y-2934077D01*
X-99427Y-2934077D01*
X-87581Y-2973153D01*
X23009Y-3229681D01*
X181520Y-3459705D01*
X381860Y-3654385D01*
X616331Y-3806240D01*
X625790Y-3810000D01*
X616331Y-3813760D01*
X381860Y-3965615D01*
X181520Y-4160295D01*
X23009Y-4390319D01*
X-87581Y-4646847D01*
X-99427Y-4685923D01*
X757Y-4905000D01*
X1095000Y-4905000D01*
X1095000Y-2715000D01*
X757Y-2715000D01*
X-99427Y-2934077D01*
X-1369086Y-2934077D01*
X-1427016Y-2794222D01*
X-1621268Y-2503504D01*
X-1868504Y-2256268D01*
X-2033646Y-2145923D01*
X-99427Y-2145923D01*
X757Y-2365000D01*
X1095000Y-2365000D01*
X1095000Y-1269529D01*
X1445000Y-1269529D01*
X1445000Y-2365000D01*
X1465000Y-2365000D01*
X1465000Y-2715000D01*
X1445000Y-2715000D01*
X1445000Y-4905000D01*
X1465000Y-4905000D01*
X1465000Y-5255000D01*
X1445000Y-5255000D01*
X1445000Y-7445000D01*
X1465000Y-7445000D01*
X1465000Y-7795000D01*
X1445000Y-7795000D01*
X1445000Y-9985000D01*
X1465000Y-9985000D01*
X1465000Y-10335000D01*
X1445000Y-10335000D01*
X1445000Y-12525000D01*
X1465000Y-12525000D01*
X1465000Y-12875000D01*
X1445000Y-12875000D01*
X1445000Y-15065000D01*
X1465000Y-15065000D01*
X1465000Y-15415000D01*
X1445000Y-15415000D01*
X1445000Y-17605000D01*
X1465000Y-17605000D01*
X1465000Y-17955000D01*
X1445000Y-17955000D01*
X1445000Y-20145000D01*
X1465000Y-20145000D01*
X1465000Y-20495000D01*
X1445000Y-20495000D01*
X1445000Y-21590471D01*
X1664078Y-21689434D01*
X1923669Y-21586240D01*
X2158140Y-21434385D01*
X2358480Y-21239705D01*
X2516991Y-21009681D01*
X2627581Y-20753153D01*
X2639427Y-20714077D01*
X2539244Y-20495002D01*
X2695000Y-20495002D01*
X2695000Y-20476796D01*
X2701278Y-20540538D01*
X2765607Y-20752602D01*
X2870071Y-20948040D01*
X3010656Y-21119344D01*
X3181960Y-21259929D01*
X3377398Y-21364393D01*
X3589462Y-21428722D01*
X3754736Y-21445000D01*
X3865264Y-21445000D01*
X4030538Y-21428722D01*
X4242602Y-21364393D01*
X4438040Y-21259929D01*
X4506189Y-21204000D01*
X32574218Y-21204000D01*
X32585320Y-21316720D01*
X32618199Y-21425108D01*
X32671592Y-21524998D01*
X32743446Y-21612554D01*
X32831002Y-21684408D01*
X32930892Y-21737801D01*
X33039280Y-21770680D01*
X33152000Y-21781782D01*
X34733250Y-21779000D01*
X34877000Y-21635250D01*
X34877000Y-19479000D01*
X35227000Y-19479000D01*
X35227000Y-21635250D01*
X35370750Y-21779000D01*
X36952000Y-21781782D01*
X37064720Y-21770680D01*
X37173108Y-21737801D01*
X37272998Y-21684408D01*
X37360554Y-21612554D01*
X37432408Y-21524998D01*
X37485801Y-21425108D01*
X37518680Y-21316720D01*
X37529782Y-21204000D01*
X37527000Y-19622750D01*
X37383250Y-19479000D01*
X35227000Y-19479000D01*
X34877000Y-19479000D01*
X32720750Y-19479000D01*
X32577000Y-19622750D01*
X32574218Y-21204000D01*
X4506189Y-21204000D01*
X4609344Y-21119344D01*
X4749929Y-20948040D01*
X4854393Y-20752602D01*
X4918722Y-20540538D01*
X4940443Y-20320000D01*
X4918722Y-20099462D01*
X4854393Y-19887398D01*
X4749929Y-19691960D01*
X4609344Y-19520656D01*
X4451358Y-19391000D01*
X10151622Y-19391000D01*
X10181066Y-19689952D01*
X10268267Y-19977416D01*
X10409874Y-20242344D01*
X10600445Y-20474555D01*
X10832656Y-20665126D01*
X11097584Y-20806733D01*
X11385048Y-20893934D01*
X11609089Y-20916000D01*
X29284911Y-20916000D01*
X29508952Y-20893934D01*
X29796416Y-20806733D01*
X30061344Y-20665126D01*
X30293555Y-20474555D01*
X30484126Y-20242344D01*
X30625733Y-19977416D01*
X30712934Y-19689952D01*
X30742378Y-19391000D01*
X30712934Y-19092048D01*
X30625733Y-18804584D01*
X30484126Y-18539656D01*
X30364007Y-18393291D01*
X30364233Y-18391000D01*
X30347339Y-18219470D01*
X30297305Y-18054532D01*
X30216056Y-17902524D01*
X30106712Y-17769288D01*
X29973476Y-17659944D01*
X29821468Y-17578695D01*
X29656530Y-17528661D01*
X29527979Y-17516000D01*
X28892021Y-17516000D01*
X28763470Y-17528661D01*
X28598532Y-17578695D01*
X28446524Y-17659944D01*
X28313288Y-17769288D01*
X28233918Y-17866000D01*
X24344082Y-17866000D01*
X24264712Y-17769288D01*
X24131476Y-17659944D01*
X23979468Y-17578695D01*
X23814530Y-17528661D01*
X23685979Y-17516000D01*
X23050021Y-17516000D01*
X22921470Y-17528661D01*
X22756532Y-17578695D01*
X22604524Y-17659944D01*
X22471288Y-17769288D01*
X22391918Y-17866000D01*
X18502082Y-17866000D01*
X18422712Y-17769288D01*
X18289476Y-17659944D01*
X18137468Y-17578695D01*
X17972530Y-17528661D01*
X17843979Y-17516000D01*
X17208021Y-17516000D01*
X17079470Y-17528661D01*
X16914532Y-17578695D01*
X16762524Y-17659944D01*
X16629288Y-17769288D01*
X16549918Y-17866000D01*
X12660082Y-17866000D01*
X12580712Y-17769288D01*
X12447476Y-17659944D01*
X12295468Y-17578695D01*
X12130530Y-17528661D01*
X12001979Y-17516000D01*
X11366021Y-17516000D01*
X11237470Y-17528661D01*
X11072532Y-17578695D01*
X10920524Y-17659944D01*
X10787288Y-17769288D01*
X10677944Y-17902524D01*
X10596695Y-18054532D01*
X10546661Y-18219470D01*
X10529767Y-18391000D01*
X10529993Y-18393291D01*
X10409874Y-18539656D01*
X10268267Y-18804584D01*
X10181066Y-19092048D01*
X10151622Y-19391000D01*
X4451358Y-19391000D01*
X4438040Y-19380071D01*
X4242602Y-19275607D01*
X4030538Y-19211278D01*
X3865264Y-19195000D01*
X3754736Y-19195000D01*
X3589462Y-19211278D01*
X3377398Y-19275607D01*
X3181960Y-19380071D01*
X3010656Y-19520656D01*
X2870071Y-19691960D01*
X2765607Y-19887398D01*
X2701278Y-20099462D01*
X2695000Y-20163204D01*
X2695000Y-20144998D01*
X2539244Y-20144998D01*
X2639427Y-19925923D01*
X2627581Y-19886847D01*
X2516991Y-19630319D01*
X2358480Y-19400295D01*
X2158140Y-19205615D01*
X1923669Y-19053760D01*
X1914210Y-19050000D01*
X1923669Y-19046240D01*
X2158140Y-18894385D01*
X2358480Y-18699705D01*
X2516991Y-18469681D01*
X2627581Y-18213153D01*
X2639427Y-18174077D01*
X2539244Y-17955002D01*
X2695000Y-17955002D01*
X2695000Y-17936796D01*
X2701278Y-18000538D01*
X2765607Y-18212602D01*
X2870071Y-18408040D01*
X3010656Y-18579344D01*
X3181960Y-18719929D01*
X3377398Y-18824393D01*
X3589462Y-18888722D01*
X3754736Y-18905000D01*
X3865264Y-18905000D01*
X4030538Y-18888722D01*
X4242602Y-18824393D01*
X4438040Y-18719929D01*
X4609344Y-18579344D01*
X4749929Y-18408040D01*
X4854393Y-18212602D01*
X4918722Y-18000538D01*
X4940443Y-17780000D01*
X4918722Y-17559462D01*
X4854393Y-17347398D01*
X4749929Y-17151960D01*
X4609344Y-16980656D01*
X4438040Y-16840071D01*
X4242602Y-16735607D01*
X4030538Y-16671278D01*
X3865264Y-16655000D01*
X3754736Y-16655000D01*
X3589462Y-16671278D01*
X3377398Y-16735607D01*
X3181960Y-16840071D01*
X3010656Y-16980656D01*
X2870071Y-17151960D01*
X2765607Y-17347398D01*
X2701278Y-17559462D01*
X2695000Y-17623204D01*
X2695000Y-17604998D01*
X2539244Y-17604998D01*
X2639427Y-17385923D01*
X2627581Y-17346847D01*
X2516991Y-17090319D01*
X2358480Y-16860295D01*
X2158140Y-16665615D01*
X1923669Y-16513760D01*
X1914210Y-16510000D01*
X1923669Y-16506240D01*
X2158140Y-16354385D01*
X2358480Y-16159705D01*
X2516991Y-15929681D01*
X2627581Y-15673153D01*
X2639427Y-15634077D01*
X2539244Y-15415002D01*
X2695000Y-15415002D01*
X2695000Y-15396796D01*
X2701278Y-15460538D01*
X2765607Y-15672602D01*
X2870071Y-15868040D01*
X3010656Y-16039344D01*
X3181960Y-16179929D01*
X3377398Y-16284393D01*
X3589462Y-16348722D01*
X3754736Y-16365000D01*
X3865264Y-16365000D01*
X4030538Y-16348722D01*
X4242602Y-16284393D01*
X4438040Y-16179929D01*
X4609344Y-16039344D01*
X4749929Y-15868040D01*
X4854393Y-15672602D01*
X4918722Y-15460538D01*
X4940443Y-15240000D01*
X4918722Y-15019462D01*
X4910089Y-14991000D01*
X10231218Y-14991000D01*
X10242320Y-15103720D01*
X10275199Y-15212108D01*
X10328592Y-15311998D01*
X10400446Y-15399554D01*
X10488002Y-15471408D01*
X10587892Y-15524801D01*
X10696280Y-15557680D01*
X10809000Y-15568782D01*
X11110176Y-15567276D01*
X11072532Y-15578695D01*
X10920524Y-15659944D01*
X10787288Y-15769288D01*
X10677944Y-15902524D01*
X10596695Y-16054532D01*
X10546661Y-16219470D01*
X10529767Y-16391000D01*
X10546661Y-16562530D01*
X10596695Y-16727468D01*
X10677944Y-16879476D01*
X10787288Y-17012712D01*
X10920524Y-17122056D01*
X11072532Y-17203305D01*
X11237470Y-17253339D01*
X11366021Y-17266000D01*
X12001979Y-17266000D01*
X12130530Y-17253339D01*
X12295468Y-17203305D01*
X12447476Y-17122056D01*
X12580712Y-17012712D01*
X12690056Y-16879476D01*
X12771305Y-16727468D01*
X12821339Y-16562530D01*
X12838233Y-16391000D01*
X12821339Y-16219470D01*
X12771305Y-16054532D01*
X12690056Y-15902524D01*
X12580712Y-15769288D01*
X12447476Y-15659944D01*
X12295468Y-15578695D01*
X12257824Y-15567276D01*
X12559000Y-15568782D01*
X12671720Y-15557680D01*
X12780108Y-15524801D01*
X12879998Y-15471408D01*
X12967554Y-15399554D01*
X13039408Y-15311998D01*
X13092801Y-15212108D01*
X13125680Y-15103720D01*
X13136782Y-14991000D01*
X16073218Y-14991000D01*
X16084320Y-15103720D01*
X16117199Y-15212108D01*
X16170592Y-15311998D01*
X16242446Y-15399554D01*
X16330002Y-15471408D01*
X16429892Y-15524801D01*
X16538280Y-15557680D01*
X16651000Y-15568782D01*
X16952176Y-15567276D01*
X16914532Y-15578695D01*
X16762524Y-15659944D01*
X16629288Y-15769288D01*
X16519944Y-15902524D01*
X16438695Y-16054532D01*
X16388661Y-16219470D01*
X16371767Y-16391000D01*
X16388661Y-16562530D01*
X16438695Y-16727468D01*
X16519944Y-16879476D01*
X16629288Y-17012712D01*
X16762524Y-17122056D01*
X16914532Y-17203305D01*
X17079470Y-17253339D01*
X17208021Y-17266000D01*
X17843979Y-17266000D01*
X17972530Y-17253339D01*
X18137468Y-17203305D01*
X18289476Y-17122056D01*
X18422712Y-17012712D01*
X18532056Y-16879476D01*
X18613305Y-16727468D01*
X18663339Y-16562530D01*
X18680233Y-16391000D01*
X18663339Y-16219470D01*
X18613305Y-16054532D01*
X18532056Y-15902524D01*
X18422712Y-15769288D01*
X18289476Y-15659944D01*
X18137468Y-15578695D01*
X18099824Y-15567276D01*
X18401000Y-15568782D01*
X18513720Y-15557680D01*
X18622108Y-15524801D01*
X18721998Y-15471408D01*
X18809554Y-15399554D01*
X18881408Y-15311998D01*
X18934801Y-15212108D01*
X18967680Y-15103720D01*
X18978782Y-14991000D01*
X21915218Y-14991000D01*
X21926320Y-15103720D01*
X21959199Y-15212108D01*
X22012592Y-15311998D01*
X22084446Y-15399554D01*
X22172002Y-15471408D01*
X22271892Y-15524801D01*
X22380280Y-15557680D01*
X22493000Y-15568782D01*
X22794176Y-15567276D01*
X22756532Y-15578695D01*
X22604524Y-15659944D01*
X22471288Y-15769288D01*
X22361944Y-15902524D01*
X22280695Y-16054532D01*
X22230661Y-16219470D01*
X22213767Y-16391000D01*
X22230661Y-16562530D01*
X22280695Y-16727468D01*
X22361944Y-16879476D01*
X22471288Y-17012712D01*
X22604524Y-17122056D01*
X22756532Y-17203305D01*
X22921470Y-17253339D01*
X23050021Y-17266000D01*
X23685979Y-17266000D01*
X23814530Y-17253339D01*
X23979468Y-17203305D01*
X24131476Y-17122056D01*
X24264712Y-17012712D01*
X24374056Y-16879476D01*
X24455305Y-16727468D01*
X24505339Y-16562530D01*
X24522233Y-16391000D01*
X24505339Y-16219470D01*
X24455305Y-16054532D01*
X24374056Y-15902524D01*
X24264712Y-15769288D01*
X24131476Y-15659944D01*
X23979468Y-15578695D01*
X23941824Y-15567276D01*
X24243000Y-15568782D01*
X24355720Y-15557680D01*
X24464108Y-15524801D01*
X24563998Y-15471408D01*
X24651554Y-15399554D01*
X24723408Y-15311998D01*
X24776801Y-15212108D01*
X24809680Y-15103720D01*
X24820782Y-14991000D01*
X27757218Y-14991000D01*
X27768320Y-15103720D01*
X27801199Y-15212108D01*
X27854592Y-15311998D01*
X27926446Y-15399554D01*
X28014002Y-15471408D01*
X28113892Y-15524801D01*
X28222280Y-15557680D01*
X28335000Y-15568782D01*
X28636176Y-15567276D01*
X28598532Y-15578695D01*
X28446524Y-15659944D01*
X28313288Y-15769288D01*
X28203944Y-15902524D01*
X28122695Y-16054532D01*
X28072661Y-16219470D01*
X28055767Y-16391000D01*
X28072661Y-16562530D01*
X28122695Y-16727468D01*
X28203944Y-16879476D01*
X28313288Y-17012712D01*
X28446524Y-17122056D01*
X28598532Y-17203305D01*
X28683224Y-17228996D01*
X28711973Y-17264027D01*
X28791914Y-17329633D01*
X28883119Y-17378383D01*
X28982082Y-17408403D01*
X29059212Y-17416000D01*
X29235788Y-17416000D01*
X29312918Y-17408403D01*
X29411881Y-17378383D01*
X29503086Y-17329633D01*
X29583027Y-17264027D01*
X29586106Y-17260275D01*
X29656530Y-17253339D01*
X29821468Y-17203305D01*
X29973476Y-17122056D01*
X30106712Y-17012712D01*
X30216056Y-16879476D01*
X30297305Y-16727468D01*
X30347339Y-16562530D01*
X30364233Y-16391000D01*
X30347339Y-16219470D01*
X30297305Y-16054532D01*
X30216056Y-15902524D01*
X30106712Y-15769288D01*
X29973476Y-15659944D01*
X29821468Y-15578695D01*
X29783824Y-15567276D01*
X30085000Y-15568782D01*
X30197720Y-15557680D01*
X30306108Y-15524801D01*
X30405998Y-15471408D01*
X30493554Y-15399554D01*
X30565408Y-15311998D01*
X30618801Y-15212108D01*
X30651680Y-15103720D01*
X30662782Y-14991000D01*
X30660000Y-14709750D01*
X30516250Y-14566000D01*
X29385000Y-14566000D01*
X29385000Y-14586000D01*
X29035000Y-14586000D01*
X29035000Y-14566000D01*
X27903750Y-14566000D01*
X27760000Y-14709750D01*
X27757218Y-14991000D01*
X24820782Y-14991000D01*
X24818000Y-14709750D01*
X24674250Y-14566000D01*
X23543000Y-14566000D01*
X23543000Y-14586000D01*
X23193000Y-14586000D01*
X23193000Y-14566000D01*
X22061750Y-14566000D01*
X21918000Y-14709750D01*
X21915218Y-14991000D01*
X18978782Y-14991000D01*
X18976000Y-14709750D01*
X18832250Y-14566000D01*
X17701000Y-14566000D01*
X17701000Y-14586000D01*
X17351000Y-14586000D01*
X17351000Y-14566000D01*
X16219750Y-14566000D01*
X16076000Y-14709750D01*
X16073218Y-14991000D01*
X13136782Y-14991000D01*
X13134000Y-14709750D01*
X12990250Y-14566000D01*
X11859000Y-14566000D01*
X11859000Y-14586000D01*
X11509000Y-14586000D01*
X11509000Y-14566000D01*
X10377750Y-14566000D01*
X10234000Y-14709750D01*
X10231218Y-14991000D01*
X4910089Y-14991000D01*
X4854393Y-14807398D01*
X4749929Y-14611960D01*
X4609344Y-14440656D01*
X4608941Y-14440325D01*
X32277000Y-14440325D01*
X32317152Y-14847994D01*
X32475829Y-15371084D01*
X32733508Y-15853166D01*
X33080284Y-16275715D01*
X33502833Y-16622492D01*
X33886394Y-16827510D01*
X33152000Y-16826218D01*
X33039280Y-16837320D01*
X32930892Y-16870199D01*
X32831002Y-16923592D01*
X32743446Y-16995446D01*
X32671592Y-17083002D01*
X32618199Y-17182892D01*
X32585320Y-17291280D01*
X32574218Y-17404000D01*
X32577000Y-18985250D01*
X32720750Y-19129000D01*
X34877000Y-19129000D01*
X34877000Y-19109000D01*
X35227000Y-19109000D01*
X35227000Y-19129000D01*
X37383250Y-19129000D01*
X37462072Y-19050178D01*
X39325000Y-19050178D01*
X39325000Y-19399822D01*
X39393213Y-19742748D01*
X39527016Y-20065778D01*
X39721268Y-20356496D01*
X39968504Y-20603732D01*
X40259222Y-20797984D01*
X40582252Y-20931787D01*
X40925178Y-21000000D01*
X41274822Y-21000000D01*
X41617748Y-20931787D01*
X41940778Y-20797984D01*
X42231496Y-20603732D01*
X42478732Y-20356496D01*
X42672984Y-20065778D01*
X42806787Y-19742748D01*
X42875000Y-19399822D01*
X42875000Y-19050178D01*
X42806787Y-18707252D01*
X42672984Y-18384222D01*
X42478732Y-18093504D01*
X42231496Y-17846268D01*
X41940778Y-17652016D01*
X41617748Y-17518213D01*
X41274822Y-17450000D01*
X40925178Y-17450000D01*
X40582252Y-17518213D01*
X40259222Y-17652016D01*
X39968504Y-17846268D01*
X39721268Y-18093504D01*
X39527016Y-18384222D01*
X39393213Y-18707252D01*
X39325000Y-19050178D01*
X37462072Y-19050178D01*
X37527000Y-18985250D01*
X37529782Y-17404000D01*
X37518680Y-17291280D01*
X37485801Y-17182892D01*
X37432408Y-17083002D01*
X37360554Y-16995446D01*
X37272998Y-16923592D01*
X37173108Y-16870199D01*
X37064720Y-16837320D01*
X36952000Y-16826218D01*
X36217605Y-16827510D01*
X36601166Y-16622492D01*
X37023715Y-16275716D01*
X37370492Y-15853167D01*
X37628171Y-15371085D01*
X37786848Y-14847995D01*
X37827000Y-14440326D01*
X37827000Y-8419674D01*
X37786848Y-8012005D01*
X37628171Y-7488915D01*
X37370492Y-7006833D01*
X37023716Y-6584284D01*
X36601167Y-6237508D01*
X36217606Y-6032490D01*
X36952000Y-6033782D01*
X37064720Y-6022680D01*
X37173108Y-5989801D01*
X37272998Y-5936408D01*
X37360554Y-5864554D01*
X37432408Y-5776998D01*
X37485801Y-5677108D01*
X37518680Y-5568720D01*
X37529782Y-5456000D01*
X37527000Y-3874750D01*
X37383250Y-3731000D01*
X35227000Y-3731000D01*
X35227000Y-3751000D01*
X34877000Y-3751000D01*
X34877000Y-3731000D01*
X32720750Y-3731000D01*
X32577000Y-3874750D01*
X32574218Y-5456000D01*
X32585320Y-5568720D01*
X32618199Y-5677108D01*
X32671592Y-5776998D01*
X32743446Y-5864554D01*
X32831002Y-5936408D01*
X32930892Y-5989801D01*
X33039280Y-6022680D01*
X33152000Y-6033782D01*
X33886395Y-6032490D01*
X33502834Y-6237508D01*
X33080285Y-6584284D01*
X32733509Y-7006833D01*
X32475830Y-7488915D01*
X32317153Y-8012005D01*
X32277001Y-8419674D01*
X32277000Y-14440325D01*
X4608941Y-14440325D01*
X4438040Y-14300071D01*
X4242602Y-14195607D01*
X4030538Y-14131278D01*
X3865264Y-14115000D01*
X3754736Y-14115000D01*
X3589462Y-14131278D01*
X3377398Y-14195607D01*
X3181960Y-14300071D01*
X3010656Y-14440656D01*
X2870071Y-14611960D01*
X2765607Y-14807398D01*
X2701278Y-15019462D01*
X2695000Y-15083204D01*
X2695000Y-15064998D01*
X2539244Y-15064998D01*
X2639427Y-14845923D01*
X2627581Y-14806847D01*
X2516991Y-14550319D01*
X2358480Y-14320295D01*
X2158140Y-14125615D01*
X1923669Y-13973760D01*
X1914210Y-13970000D01*
X1923669Y-13966240D01*
X2158140Y-13814385D01*
X2358480Y-13619705D01*
X2516991Y-13389681D01*
X2627581Y-13133153D01*
X2639427Y-13094077D01*
X2539244Y-12875002D01*
X2695000Y-12875002D01*
X2695000Y-12856796D01*
X2701278Y-12920538D01*
X2765607Y-13132602D01*
X2870071Y-13328040D01*
X3010656Y-13499344D01*
X3181960Y-13639929D01*
X3377398Y-13744393D01*
X3589462Y-13808722D01*
X3754736Y-13825000D01*
X3865264Y-13825000D01*
X4030538Y-13808722D01*
X4088959Y-13791000D01*
X10231218Y-13791000D01*
X10234000Y-14072250D01*
X10377750Y-14216000D01*
X11509000Y-14216000D01*
X11509000Y-13359750D01*
X11859000Y-13359750D01*
X11859000Y-14216000D01*
X12990250Y-14216000D01*
X13134000Y-14072250D01*
X13136782Y-13791000D01*
X16073218Y-13791000D01*
X16076000Y-14072250D01*
X16219750Y-14216000D01*
X17351000Y-14216000D01*
X17351000Y-13359750D01*
X17701000Y-13359750D01*
X17701000Y-14216000D01*
X18832250Y-14216000D01*
X18976000Y-14072250D01*
X18978782Y-13791000D01*
X21915218Y-13791000D01*
X21918000Y-14072250D01*
X22061750Y-14216000D01*
X23193000Y-14216000D01*
X23193000Y-13359750D01*
X23543000Y-13359750D01*
X23543000Y-14216000D01*
X24674250Y-14216000D01*
X24818000Y-14072250D01*
X24820782Y-13791000D01*
X27757218Y-13791000D01*
X27760000Y-14072250D01*
X27903750Y-14216000D01*
X29035000Y-14216000D01*
X29035000Y-13359750D01*
X29385000Y-13359750D01*
X29385000Y-14216000D01*
X30516250Y-14216000D01*
X30660000Y-14072250D01*
X30662782Y-13791000D01*
X30651680Y-13678280D01*
X30618801Y-13569892D01*
X30565408Y-13470002D01*
X30493554Y-13382446D01*
X30405998Y-13310592D01*
X30306108Y-13257199D01*
X30197720Y-13224320D01*
X30085000Y-13213218D01*
X29528750Y-13216000D01*
X29385000Y-13359750D01*
X29035000Y-13359750D01*
X28891250Y-13216000D01*
X28335000Y-13213218D01*
X28222280Y-13224320D01*
X28113892Y-13257199D01*
X28014002Y-13310592D01*
X27926446Y-13382446D01*
X27854592Y-13470002D01*
X27801199Y-13569892D01*
X27768320Y-13678280D01*
X27757218Y-13791000D01*
X24820782Y-13791000D01*
X24809680Y-13678280D01*
X24776801Y-13569892D01*
X24723408Y-13470002D01*
X24651554Y-13382446D01*
X24563998Y-13310592D01*
X24464108Y-13257199D01*
X24355720Y-13224320D01*
X24243000Y-13213218D01*
X23686750Y-13216000D01*
X23543000Y-13359750D01*
X23193000Y-13359750D01*
X23049250Y-13216000D01*
X22493000Y-13213218D01*
X22380280Y-13224320D01*
X22271892Y-13257199D01*
X22172002Y-13310592D01*
X22084446Y-13382446D01*
X22012592Y-13470002D01*
X21959199Y-13569892D01*
X21926320Y-13678280D01*
X21915218Y-13791000D01*
X18978782Y-13791000D01*
X18967680Y-13678280D01*
X18934801Y-13569892D01*
X18881408Y-13470002D01*
X18809554Y-13382446D01*
X18721998Y-13310592D01*
X18622108Y-13257199D01*
X18513720Y-13224320D01*
X18401000Y-13213218D01*
X17844750Y-13216000D01*
X17701000Y-13359750D01*
X17351000Y-13359750D01*
X17207250Y-13216000D01*
X16651000Y-13213218D01*
X16538280Y-13224320D01*
X16429892Y-13257199D01*
X16330002Y-13310592D01*
X16242446Y-13382446D01*
X16170592Y-13470002D01*
X16117199Y-13569892D01*
X16084320Y-13678280D01*
X16073218Y-13791000D01*
X13136782Y-13791000D01*
X13125680Y-13678280D01*
X13092801Y-13569892D01*
X13039408Y-13470002D01*
X12967554Y-13382446D01*
X12879998Y-13310592D01*
X12780108Y-13257199D01*
X12671720Y-13224320D01*
X12559000Y-13213218D01*
X12002750Y-13216000D01*
X11859000Y-13359750D01*
X11509000Y-13359750D01*
X11365250Y-13216000D01*
X10809000Y-13213218D01*
X10696280Y-13224320D01*
X10587892Y-13257199D01*
X10488002Y-13310592D01*
X10400446Y-13382446D01*
X10328592Y-13470002D01*
X10275199Y-13569892D01*
X10242320Y-13678280D01*
X10231218Y-13791000D01*
X4088959Y-13791000D01*
X4242602Y-13744393D01*
X4438040Y-13639929D01*
X4609344Y-13499344D01*
X4749929Y-13328040D01*
X4854393Y-13132602D01*
X4918722Y-12920538D01*
X4940443Y-12700000D01*
X4918722Y-12479462D01*
X4854393Y-12267398D01*
X4749929Y-12071960D01*
X4609344Y-11900656D01*
X4438040Y-11760071D01*
X4242602Y-11655607D01*
X4030538Y-11591278D01*
X3865264Y-11575000D01*
X3754736Y-11575000D01*
X3589462Y-11591278D01*
X3377398Y-11655607D01*
X3181960Y-11760071D01*
X3010656Y-11900656D01*
X2870071Y-12071960D01*
X2765607Y-12267398D01*
X2701278Y-12479462D01*
X2695000Y-12543204D01*
X2695000Y-12524998D01*
X2539244Y-12524998D01*
X2639427Y-12305923D01*
X2627581Y-12266847D01*
X2516991Y-12010319D01*
X2358480Y-11780295D01*
X2158140Y-11585615D01*
X1923669Y-11433760D01*
X1914210Y-11430000D01*
X1923669Y-11426240D01*
X2158140Y-11274385D01*
X2358480Y-11079705D01*
X2516991Y-10849681D01*
X2627581Y-10593153D01*
X2639427Y-10554077D01*
X2539244Y-10335002D01*
X2695000Y-10335002D01*
X2695000Y-10316796D01*
X2701278Y-10380538D01*
X2765607Y-10592602D01*
X2870071Y-10788040D01*
X3010656Y-10959344D01*
X3181960Y-11099929D01*
X3377398Y-11204393D01*
X3589462Y-11268722D01*
X3754736Y-11285000D01*
X3865264Y-11285000D01*
X4030538Y-11268722D01*
X4242602Y-11204393D01*
X4438040Y-11099929D01*
X4609344Y-10959344D01*
X4749929Y-10788040D01*
X4854393Y-10592602D01*
X4918722Y-10380538D01*
X4940443Y-10160000D01*
X4918722Y-9939462D01*
X4854393Y-9727398D01*
X4749929Y-9531960D01*
X4609344Y-9360656D01*
X4438040Y-9220071D01*
X4242602Y-9115607D01*
X4030538Y-9051278D01*
X3865264Y-9035000D01*
X3754736Y-9035000D01*
X3589462Y-9051278D01*
X3377398Y-9115607D01*
X3181960Y-9220071D01*
X3010656Y-9360656D01*
X2870071Y-9531960D01*
X2765607Y-9727398D01*
X2701278Y-9939462D01*
X2695000Y-10003204D01*
X2695000Y-9984998D01*
X2539244Y-9984998D01*
X2639427Y-9765923D01*
X2627581Y-9726847D01*
X2516991Y-9470319D01*
X2358480Y-9240295D01*
X2158140Y-9045615D01*
X1923669Y-8893760D01*
X1914210Y-8890000D01*
X1923669Y-8886240D01*
X2158140Y-8734385D01*
X2358480Y-8539705D01*
X2516991Y-8309681D01*
X2627581Y-8053153D01*
X2639427Y-8014077D01*
X2539244Y-7795002D01*
X2695000Y-7795002D01*
X2695000Y-7776796D01*
X2701278Y-7840538D01*
X2765607Y-8052602D01*
X2870071Y-8248040D01*
X3010656Y-8419344D01*
X3181960Y-8559929D01*
X3377398Y-8664393D01*
X3589462Y-8728722D01*
X3754736Y-8745000D01*
X3865264Y-8745000D01*
X4030538Y-8728722D01*
X4242602Y-8664393D01*
X4438040Y-8559929D01*
X4548837Y-8469000D01*
X10151622Y-8469000D01*
X10181066Y-8767952D01*
X10268267Y-9055416D01*
X10409874Y-9320344D01*
X10600445Y-9552555D01*
X10832656Y-9743126D01*
X11097584Y-9884733D01*
X11385048Y-9971934D01*
X11609089Y-9994000D01*
X29284911Y-9994000D01*
X29508952Y-9971934D01*
X29796416Y-9884733D01*
X30061344Y-9743126D01*
X30293555Y-9552555D01*
X30484126Y-9320344D01*
X30625733Y-9055416D01*
X30712934Y-8767952D01*
X30742378Y-8469000D01*
X30712934Y-8170048D01*
X30625733Y-7882584D01*
X30484126Y-7617656D01*
X30364007Y-7471291D01*
X30364233Y-7469000D01*
X30347339Y-7297470D01*
X30297305Y-7132532D01*
X30216056Y-6980524D01*
X30106712Y-6847288D01*
X29973476Y-6737944D01*
X29821468Y-6656695D01*
X29656530Y-6606661D01*
X29527979Y-6594000D01*
X28892021Y-6594000D01*
X28763470Y-6606661D01*
X28598532Y-6656695D01*
X28446524Y-6737944D01*
X28313288Y-6847288D01*
X28233918Y-6944000D01*
X24344082Y-6944000D01*
X24264712Y-6847288D01*
X24131476Y-6737944D01*
X23979468Y-6656695D01*
X23814530Y-6606661D01*
X23685979Y-6594000D01*
X23050021Y-6594000D01*
X22921470Y-6606661D01*
X22756532Y-6656695D01*
X22604524Y-6737944D01*
X22471288Y-6847288D01*
X22391918Y-6944000D01*
X18502082Y-6944000D01*
X18422712Y-6847288D01*
X18289476Y-6737944D01*
X18137468Y-6656695D01*
X17972530Y-6606661D01*
X17843979Y-6594000D01*
X17208021Y-6594000D01*
X17079470Y-6606661D01*
X16914532Y-6656695D01*
X16762524Y-6737944D01*
X16629288Y-6847288D01*
X16549918Y-6944000D01*
X12660082Y-6944000D01*
X12580712Y-6847288D01*
X12447476Y-6737944D01*
X12295468Y-6656695D01*
X12130530Y-6606661D01*
X12001979Y-6594000D01*
X11366021Y-6594000D01*
X11237470Y-6606661D01*
X11072532Y-6656695D01*
X10920524Y-6737944D01*
X10787288Y-6847288D01*
X10677944Y-6980524D01*
X10596695Y-7132532D01*
X10546661Y-7297470D01*
X10529767Y-7469000D01*
X10529993Y-7471291D01*
X10409874Y-7617656D01*
X10268267Y-7882584D01*
X10181066Y-8170048D01*
X10151622Y-8469000D01*
X4548837Y-8469000D01*
X4609344Y-8419344D01*
X4749929Y-8248040D01*
X4854393Y-8052602D01*
X4918722Y-7840538D01*
X4940443Y-7620000D01*
X4918722Y-7399462D01*
X4854393Y-7187398D01*
X4749929Y-6991960D01*
X4609344Y-6820656D01*
X4438040Y-6680071D01*
X4242602Y-6575607D01*
X4030538Y-6511278D01*
X3865264Y-6495000D01*
X3754736Y-6495000D01*
X3589462Y-6511278D01*
X3377398Y-6575607D01*
X3181960Y-6680071D01*
X3010656Y-6820656D01*
X2870071Y-6991960D01*
X2765607Y-7187398D01*
X2701278Y-7399462D01*
X2695000Y-7463204D01*
X2695000Y-7444998D01*
X2539244Y-7444998D01*
X2639427Y-7225923D01*
X2627581Y-7186847D01*
X2516991Y-6930319D01*
X2358480Y-6700295D01*
X2158140Y-6505615D01*
X1923669Y-6353760D01*
X1914210Y-6350000D01*
X1923669Y-6346240D01*
X2158140Y-6194385D01*
X2358480Y-5999705D01*
X2516991Y-5769681D01*
X2627581Y-5513153D01*
X2639427Y-5474077D01*
X2539244Y-5255002D01*
X2695000Y-5255002D01*
X2695000Y-5236796D01*
X2701278Y-5300538D01*
X2765607Y-5512602D01*
X2870071Y-5708040D01*
X3010656Y-5879344D01*
X3181960Y-6019929D01*
X3377398Y-6124393D01*
X3589462Y-6188722D01*
X3754736Y-6205000D01*
X3865264Y-6205000D01*
X4030538Y-6188722D01*
X4242602Y-6124393D01*
X4438040Y-6019929D01*
X4609344Y-5879344D01*
X4749929Y-5708040D01*
X4854393Y-5512602D01*
X4918722Y-5300538D01*
X4940443Y-5080000D01*
X4918722Y-4859462D01*
X4854393Y-4647398D01*
X4749929Y-4451960D01*
X4609344Y-4280656D01*
X4438040Y-4140071D01*
X4305076Y-4069000D01*
X10231218Y-4069000D01*
X10242320Y-4181720D01*
X10275199Y-4290108D01*
X10328592Y-4389998D01*
X10400446Y-4477554D01*
X10488002Y-4549408D01*
X10587892Y-4602801D01*
X10696280Y-4635680D01*
X10809000Y-4646782D01*
X11110176Y-4645276D01*
X11072532Y-4656695D01*
X10920524Y-4737944D01*
X10787288Y-4847288D01*
X10677944Y-4980524D01*
X10596695Y-5132532D01*
X10546661Y-5297470D01*
X10529767Y-5469000D01*
X10546661Y-5640530D01*
X10596695Y-5805468D01*
X10677944Y-5957476D01*
X10787288Y-6090712D01*
X10920524Y-6200056D01*
X11072532Y-6281305D01*
X11237470Y-6331339D01*
X11366021Y-6344000D01*
X12001979Y-6344000D01*
X12130530Y-6331339D01*
X12295468Y-6281305D01*
X12447476Y-6200056D01*
X12580712Y-6090712D01*
X12690056Y-5957476D01*
X12771305Y-5805468D01*
X12821339Y-5640530D01*
X12838233Y-5469000D01*
X12821339Y-5297470D01*
X12771305Y-5132532D01*
X12690056Y-4980524D01*
X12580712Y-4847288D01*
X12447476Y-4737944D01*
X12295468Y-4656695D01*
X12257824Y-4645276D01*
X12559000Y-4646782D01*
X12671720Y-4635680D01*
X12780108Y-4602801D01*
X12879998Y-4549408D01*
X12967554Y-4477554D01*
X13039408Y-4389998D01*
X13092801Y-4290108D01*
X13125680Y-4181720D01*
X13136782Y-4069000D01*
X16073218Y-4069000D01*
X16084320Y-4181720D01*
X16117199Y-4290108D01*
X16170592Y-4389998D01*
X16242446Y-4477554D01*
X16330002Y-4549408D01*
X16429892Y-4602801D01*
X16538280Y-4635680D01*
X16651000Y-4646782D01*
X16952176Y-4645276D01*
X16914532Y-4656695D01*
X16762524Y-4737944D01*
X16629288Y-4847288D01*
X16519944Y-4980524D01*
X16438695Y-5132532D01*
X16388661Y-5297470D01*
X16371767Y-5469000D01*
X16388661Y-5640530D01*
X16438695Y-5805468D01*
X16519944Y-5957476D01*
X16629288Y-6090712D01*
X16762524Y-6200056D01*
X16914532Y-6281305D01*
X17079470Y-6331339D01*
X17208021Y-6344000D01*
X17843979Y-6344000D01*
X17972530Y-6331339D01*
X18137468Y-6281305D01*
X18289476Y-6200056D01*
X18422712Y-6090712D01*
X18532056Y-5957476D01*
X18613305Y-5805468D01*
X18663339Y-5640530D01*
X18680233Y-5469000D01*
X18663339Y-5297470D01*
X18613305Y-5132532D01*
X18532056Y-4980524D01*
X18422712Y-4847288D01*
X18289476Y-4737944D01*
X18137468Y-4656695D01*
X18099824Y-4645276D01*
X18401000Y-4646782D01*
X18513720Y-4635680D01*
X18622108Y-4602801D01*
X18721998Y-4549408D01*
X18809554Y-4477554D01*
X18881408Y-4389998D01*
X18934801Y-4290108D01*
X18967680Y-4181720D01*
X18978782Y-4069000D01*
X21915218Y-4069000D01*
X21926320Y-4181720D01*
X21959199Y-4290108D01*
X22012592Y-4389998D01*
X22084446Y-4477554D01*
X22172002Y-4549408D01*
X22271892Y-4602801D01*
X22380280Y-4635680D01*
X22493000Y-4646782D01*
X22794176Y-4645276D01*
X22756532Y-4656695D01*
X22604524Y-4737944D01*
X22471288Y-4847288D01*
X22361944Y-4980524D01*
X22280695Y-5132532D01*
X22230661Y-5297470D01*
X22213767Y-5469000D01*
X22230661Y-5640530D01*
X22280695Y-5805468D01*
X22361944Y-5957476D01*
X22471288Y-6090712D01*
X22604524Y-6200056D01*
X22756532Y-6281305D01*
X22921470Y-6331339D01*
X23050021Y-6344000D01*
X23685979Y-6344000D01*
X23814530Y-6331339D01*
X23979468Y-6281305D01*
X24131476Y-6200056D01*
X24264712Y-6090712D01*
X24374056Y-5957476D01*
X24455305Y-5805468D01*
X24505339Y-5640530D01*
X24522233Y-5469000D01*
X24505339Y-5297470D01*
X24455305Y-5132532D01*
X24374056Y-4980524D01*
X24264712Y-4847288D01*
X24131476Y-4737944D01*
X23979468Y-4656695D01*
X23941824Y-4645276D01*
X24243000Y-4646782D01*
X24355720Y-4635680D01*
X24464108Y-4602801D01*
X24563998Y-4549408D01*
X24651554Y-4477554D01*
X24723408Y-4389998D01*
X24776801Y-4290108D01*
X24809680Y-4181720D01*
X24820782Y-4069000D01*
X27757218Y-4069000D01*
X27768320Y-4181720D01*
X27801199Y-4290108D01*
X27854592Y-4389998D01*
X27926446Y-4477554D01*
X28014002Y-4549408D01*
X28113892Y-4602801D01*
X28222280Y-4635680D01*
X28335000Y-4646782D01*
X28636176Y-4645276D01*
X28598532Y-4656695D01*
X28446524Y-4737944D01*
X28313288Y-4847288D01*
X28203944Y-4980524D01*
X28122695Y-5132532D01*
X28072661Y-5297470D01*
X28055767Y-5469000D01*
X28072661Y-5640530D01*
X28122695Y-5805468D01*
X28203944Y-5957476D01*
X28313288Y-6090712D01*
X28446524Y-6200056D01*
X28598532Y-6281305D01*
X28763470Y-6331339D01*
X28892021Y-6344000D01*
X29527979Y-6344000D01*
X29656530Y-6331339D01*
X29821468Y-6281305D01*
X29973476Y-6200056D01*
X30106712Y-6090712D01*
X30216056Y-5957476D01*
X30297305Y-5805468D01*
X30347339Y-5640530D01*
X30364233Y-5469000D01*
X30347339Y-5297470D01*
X30297305Y-5132532D01*
X30216056Y-4980524D01*
X30106712Y-4847288D01*
X29973476Y-4737944D01*
X29821468Y-4656695D01*
X29783824Y-4645276D01*
X30085000Y-4646782D01*
X30197720Y-4635680D01*
X30306108Y-4602801D01*
X30405998Y-4549408D01*
X30493554Y-4477554D01*
X30565408Y-4389998D01*
X30618801Y-4290108D01*
X30651680Y-4181720D01*
X30662782Y-4069000D01*
X30660000Y-3787750D01*
X30516250Y-3644000D01*
X29385000Y-3644000D01*
X29385000Y-3664000D01*
X29035000Y-3664000D01*
X29035000Y-3644000D01*
X27903750Y-3644000D01*
X27760000Y-3787750D01*
X27757218Y-4069000D01*
X24820782Y-4069000D01*
X24818000Y-3787750D01*
X24674250Y-3644000D01*
X23543000Y-3644000D01*
X23543000Y-3664000D01*
X23193000Y-3664000D01*
X23193000Y-3644000D01*
X22061750Y-3644000D01*
X21918000Y-3787750D01*
X21915218Y-4069000D01*
X18978782Y-4069000D01*
X18976000Y-3787750D01*
X18832250Y-3644000D01*
X17701000Y-3644000D01*
X17701000Y-3664000D01*
X17351000Y-3664000D01*
X17351000Y-3644000D01*
X16219750Y-3644000D01*
X16076000Y-3787750D01*
X16073218Y-4069000D01*
X13136782Y-4069000D01*
X13134000Y-3787750D01*
X12990250Y-3644000D01*
X11859000Y-3644000D01*
X11859000Y-3664000D01*
X11509000Y-3664000D01*
X11509000Y-3644000D01*
X10377750Y-3644000D01*
X10234000Y-3787750D01*
X10231218Y-4069000D01*
X4305076Y-4069000D01*
X4242602Y-4035607D01*
X4030538Y-3971278D01*
X3865264Y-3955000D01*
X3754736Y-3955000D01*
X3589462Y-3971278D01*
X3377398Y-4035607D01*
X3181960Y-4140071D01*
X3010656Y-4280656D01*
X2870071Y-4451960D01*
X2765607Y-4647398D01*
X2701278Y-4859462D01*
X2695000Y-4923204D01*
X2695000Y-4904998D01*
X2539244Y-4904998D01*
X2639427Y-4685923D01*
X2627581Y-4646847D01*
X2516991Y-4390319D01*
X2358480Y-4160295D01*
X2158140Y-3965615D01*
X1923669Y-3813760D01*
X1914210Y-3810000D01*
X1923669Y-3806240D01*
X2158140Y-3654385D01*
X2358480Y-3459705D01*
X2516991Y-3229681D01*
X2627581Y-2973153D01*
X2639427Y-2934077D01*
X2539244Y-2715002D01*
X2683670Y-2715002D01*
X2683670Y-3390000D01*
X2688980Y-3443909D01*
X2704704Y-3495747D01*
X2730240Y-3543521D01*
X2764605Y-3585395D01*
X2806479Y-3619760D01*
X2854253Y-3645296D01*
X2906091Y-3661020D01*
X2960000Y-3666330D01*
X4660000Y-3666330D01*
X4713909Y-3661020D01*
X4765747Y-3645296D01*
X4813521Y-3619760D01*
X4855395Y-3585395D01*
X4889760Y-3543521D01*
X4915296Y-3495747D01*
X4926085Y-3460178D01*
X39325000Y-3460178D01*
X39325000Y-3809822D01*
X39393213Y-4152748D01*
X39527016Y-4475778D01*
X39721268Y-4766496D01*
X39968504Y-5013732D01*
X40259222Y-5207984D01*
X40582252Y-5341787D01*
X40925178Y-5410000D01*
X41274822Y-5410000D01*
X41617748Y-5341787D01*
X41940778Y-5207984D01*
X42231496Y-5013732D01*
X42478732Y-4766496D01*
X42672984Y-4475778D01*
X42806787Y-4152748D01*
X42875000Y-3809822D01*
X42875000Y-3460178D01*
X42806787Y-3117252D01*
X42672984Y-2794222D01*
X42478732Y-2503504D01*
X42231496Y-2256268D01*
X41940778Y-2062016D01*
X41617748Y-1928213D01*
X41274822Y-1860000D01*
X40925178Y-1860000D01*
X40582252Y-1928213D01*
X40259222Y-2062016D01*
X39968504Y-2256268D01*
X39721268Y-2503504D01*
X39527016Y-2794222D01*
X39393213Y-3117252D01*
X39325000Y-3460178D01*
X4926085Y-3460178D01*
X4931020Y-3443909D01*
X4936330Y-3390000D01*
X4936330Y-2869000D01*
X10231218Y-2869000D01*
X10234000Y-3150250D01*
X10377750Y-3294000D01*
X11509000Y-3294000D01*
X11509000Y-2437750D01*
X11859000Y-2437750D01*
X11859000Y-3294000D01*
X12990250Y-3294000D01*
X13134000Y-3150250D01*
X13136782Y-2869000D01*
X16073218Y-2869000D01*
X16076000Y-3150250D01*
X16219750Y-3294000D01*
X17351000Y-3294000D01*
X17351000Y-2437750D01*
X17701000Y-2437750D01*
X17701000Y-3294000D01*
X18832250Y-3294000D01*
X18976000Y-3150250D01*
X18978782Y-2869000D01*
X21915218Y-2869000D01*
X21918000Y-3150250D01*
X22061750Y-3294000D01*
X23193000Y-3294000D01*
X23193000Y-2437750D01*
X23543000Y-2437750D01*
X23543000Y-3294000D01*
X24674250Y-3294000D01*
X24818000Y-3150250D01*
X24820782Y-2869000D01*
X27757218Y-2869000D01*
X27760000Y-3150250D01*
X27903750Y-3294000D01*
X29035000Y-3294000D01*
X29035000Y-2437750D01*
X29385000Y-2437750D01*
X29385000Y-3294000D01*
X30516250Y-3294000D01*
X30660000Y-3150250D01*
X30662782Y-2869000D01*
X30651680Y-2756280D01*
X30618801Y-2647892D01*
X30565408Y-2548002D01*
X30493554Y-2460446D01*
X30405998Y-2388592D01*
X30306108Y-2335199D01*
X30197720Y-2302320D01*
X30085000Y-2291218D01*
X29528750Y-2294000D01*
X29385000Y-2437750D01*
X29035000Y-2437750D01*
X28891250Y-2294000D01*
X28335000Y-2291218D01*
X28222280Y-2302320D01*
X28113892Y-2335199D01*
X28014002Y-2388592D01*
X27926446Y-2460446D01*
X27854592Y-2548002D01*
X27801199Y-2647892D01*
X27768320Y-2756280D01*
X27757218Y-2869000D01*
X24820782Y-2869000D01*
X24809680Y-2756280D01*
X24776801Y-2647892D01*
X24723408Y-2548002D01*
X24651554Y-2460446D01*
X24563998Y-2388592D01*
X24464108Y-2335199D01*
X24355720Y-2302320D01*
X24243000Y-2291218D01*
X23686750Y-2294000D01*
X23543000Y-2437750D01*
X23193000Y-2437750D01*
X23049250Y-2294000D01*
X22493000Y-2291218D01*
X22380280Y-2302320D01*
X22271892Y-2335199D01*
X22172002Y-2388592D01*
X22084446Y-2460446D01*
X22012592Y-2548002D01*
X21959199Y-2647892D01*
X21926320Y-2756280D01*
X21915218Y-2869000D01*
X18978782Y-2869000D01*
X18967680Y-2756280D01*
X18934801Y-2647892D01*
X18881408Y-2548002D01*
X18809554Y-2460446D01*
X18721998Y-2388592D01*
X18622108Y-2335199D01*
X18513720Y-2302320D01*
X18401000Y-2291218D01*
X17844750Y-2294000D01*
X17701000Y-2437750D01*
X17351000Y-2437750D01*
X17207250Y-2294000D01*
X16651000Y-2291218D01*
X16538280Y-2302320D01*
X16429892Y-2335199D01*
X16330002Y-2388592D01*
X16242446Y-2460446D01*
X16170592Y-2548002D01*
X16117199Y-2647892D01*
X16084320Y-2756280D01*
X16073218Y-2869000D01*
X13136782Y-2869000D01*
X13125680Y-2756280D01*
X13092801Y-2647892D01*
X13039408Y-2548002D01*
X12967554Y-2460446D01*
X12879998Y-2388592D01*
X12780108Y-2335199D01*
X12671720Y-2302320D01*
X12559000Y-2291218D01*
X12002750Y-2294000D01*
X11859000Y-2437750D01*
X11509000Y-2437750D01*
X11365250Y-2294000D01*
X10809000Y-2291218D01*
X10696280Y-2302320D01*
X10587892Y-2335199D01*
X10488002Y-2388592D01*
X10400446Y-2460446D01*
X10328592Y-2548002D01*
X10275199Y-2647892D01*
X10242320Y-2756280D01*
X10231218Y-2869000D01*
X4936330Y-2869000D01*
X4936330Y-1690000D01*
X4932982Y-1656000D01*
X32574218Y-1656000D01*
X32577000Y-3237250D01*
X32720750Y-3381000D01*
X34877000Y-3381000D01*
X34877000Y-1224750D01*
X35227000Y-1224750D01*
X35227000Y-3381000D01*
X37383250Y-3381000D01*
X37527000Y-3237250D01*
X37529782Y-1656000D01*
X37518680Y-1543280D01*
X37485801Y-1434892D01*
X37432408Y-1335002D01*
X37360554Y-1247446D01*
X37272998Y-1175592D01*
X37173108Y-1122199D01*
X37064720Y-1089320D01*
X36952000Y-1078218D01*
X35370750Y-1081000D01*
X35227000Y-1224750D01*
X34877000Y-1224750D01*
X34733250Y-1081000D01*
X33152000Y-1078218D01*
X33039280Y-1089320D01*
X32930892Y-1122199D01*
X32831002Y-1175592D01*
X32743446Y-1247446D01*
X32671592Y-1335002D01*
X32618199Y-1434892D01*
X32585320Y-1543280D01*
X32574218Y-1656000D01*
X4932982Y-1656000D01*
X4931020Y-1636091D01*
X4915296Y-1584253D01*
X4889760Y-1536479D01*
X4855395Y-1494605D01*
X4813521Y-1460240D01*
X4765747Y-1434704D01*
X4713909Y-1418980D01*
X4660000Y-1413670D01*
X2960000Y-1413670D01*
X2906091Y-1418980D01*
X2854253Y-1434704D01*
X2806479Y-1460240D01*
X2764605Y-1494605D01*
X2730240Y-1536479D01*
X2704704Y-1584253D01*
X2688980Y-1636091D01*
X2683670Y-1690000D01*
X2683670Y-2364998D01*
X2539244Y-2364998D01*
X2639427Y-2145923D01*
X2627581Y-2106847D01*
X2516991Y-1850319D01*
X2358480Y-1620295D01*
X2158140Y-1425615D01*
X1923669Y-1273760D01*
X1664078Y-1170566D01*
X1445000Y-1269529D01*
X1095000Y-1269529D01*
X875922Y-1170566D01*
X616331Y-1273760D01*
X381860Y-1425615D01*
X181520Y-1620295D01*
X23009Y-1850319D01*
X-87581Y-2106847D01*
X-99427Y-2145923D01*
X-2033646Y-2145923D01*
X-2159222Y-2062016D01*
X-2482252Y-1928213D01*
X-2825178Y-1860000D01*
X-3174822Y-1860000D01*
X-3517748Y-1928213D01*
X-3840778Y-2062016D01*
X-4131496Y-2256268D01*
X-4378732Y-2503504D01*
X-4572984Y-2794222D01*
X-4706787Y-3117252D01*
X-4775000Y-3460178D01*
X-5731079Y-3460178D01*
X-5700113Y-3119928D01*
X-5548644Y-2605279D01*
X-5300098Y-2129855D01*
X-4963945Y-1711766D01*
X-4552984Y-1366929D01*
X-4082870Y-1108481D01*
X-3571505Y-946266D01*
X-3027042Y-885195D01*
X-2999118Y-885000D01*
X41087771Y-885000D01*
X41633912Y-938550D01*
M02*
