M48
; DRILL file {KiCad (5.1.4)-1} date 11/14/2021 6:33:34 PM
; FORMAT={2:4/ absolute / inch / suppress leading zeros}
; #@! TF.CreationDate,2021-11-14T18:33:34-06:00
; #@! TF.GenerationSoftware,Kicad,Pcbnew,(5.1.4)-1
FMAT,2
INCH,TZ
T1C0.0157
T2C0.0295
T3C0.0394
T4C0.1063
T5C0.1181
%
G90
G05
T1
X1004Y-1551
X1059Y-3508
X1063Y-2520
X1067Y-5492
X1071Y-6496
X1071Y-7500
X1075Y-4500
X11543Y-4528
X12291Y-4528
X12453Y-8402
T2
X4600Y-1366
X4600Y-2153
X4600Y-2941
X11500Y-1366
X11500Y-2153
X11500Y-2941
X6900Y-5666
X6900Y-6453
X6900Y-7241
X6900Y-1366
X6900Y-2153
X6900Y-2941
X11500Y-5666
X11500Y-6453
X11500Y-7241
X9200Y-1366
X9200Y-2153
X9200Y-2941
X4600Y-5666
X4600Y-6453
X4600Y-7241
X9200Y-5666
X9200Y-6453
X9200Y-7241
T3
X500Y-1000
X500Y-2000
X500Y-3000
X500Y-4000
X500Y-5000
X500Y-6000
X500Y-7000
X500Y-8000
X1500Y-1000
X1500Y-2000
X1500Y-3000
X1500Y-4000
X1500Y-5000
X1500Y-6000
X1500Y-7000
X1500Y-8000
T4
X13800Y-5631
X13800Y-7600
X13800Y-1400
X13800Y-3369
T5
X16181Y-7569
X-1181Y-7569
X-1181Y-1431
X16181Y-1431
T0
M30
