G04 #@! TF.GenerationSoftware,KiCad,Pcbnew,(5.1.4)-1*
G04 #@! TF.CreationDate,2021-11-14T18:14:48-06:00*
G04 #@! TF.ProjectId,RascalHat,52617363-616c-4486-9174-2e6b69636164,rev?*
G04 #@! TF.SameCoordinates,Original*
G04 #@! TF.FileFunction,Legend,Top*
G04 #@! TF.FilePolarity,Positive*
%FSLAX46Y46*%
G04 Gerber Fmt 4.6, Leading zero omitted, Abs format (unit mm)*
G04 Created by KiCad (PCBNEW (5.1.4)-1) date 2021-11-14 18:14:48*
%MOMM*%
%LPD*%
G04 APERTURE LIST*
%ADD10C,0.300000*%
%ADD11C,0.120000*%
%ADD12C,0.150000*%
G04 APERTURE END LIST*
D10*
X58217142Y-22865714D02*
X58288571Y-22651428D01*
X58288571Y-22294285D01*
X58217142Y-22151428D01*
X58145714Y-22079999D01*
X58002857Y-22008571D01*
X57860000Y-22008571D01*
X57717142Y-22079999D01*
X57645714Y-22151428D01*
X57574285Y-22294285D01*
X57502857Y-22579999D01*
X57431428Y-22722857D01*
X57360000Y-22794285D01*
X57217142Y-22865714D01*
X57074285Y-22865714D01*
X56931428Y-22794285D01*
X56860000Y-22722857D01*
X56788571Y-22579999D01*
X56788571Y-22222857D01*
X56860000Y-22008571D01*
X57502857Y-21365714D02*
X57502857Y-20865714D01*
X58288571Y-20651428D02*
X58288571Y-21365714D01*
X56788571Y-21365714D01*
X56788571Y-20651428D01*
X58288571Y-19151428D02*
X57574285Y-19651428D01*
X58288571Y-20008571D02*
X56788571Y-20008571D01*
X56788571Y-19437142D01*
X56860000Y-19294285D01*
X56931428Y-19222857D01*
X57074285Y-19151428D01*
X57288571Y-19151428D01*
X57431428Y-19222857D01*
X57502857Y-19294285D01*
X57574285Y-19437142D01*
X57574285Y-20008571D01*
X56788571Y-18722857D02*
X58288571Y-18222857D01*
X56788571Y-17722857D01*
X56788571Y-16937142D02*
X56788571Y-16651428D01*
X56860000Y-16508571D01*
X57002857Y-16365714D01*
X57288571Y-16294285D01*
X57788571Y-16294285D01*
X58074285Y-16365714D01*
X58217142Y-16508571D01*
X58288571Y-16651428D01*
X58288571Y-16937142D01*
X58217142Y-17080000D01*
X58074285Y-17222857D01*
X57788571Y-17294285D01*
X57288571Y-17294285D01*
X57002857Y-17222857D01*
X56860000Y-17080000D01*
X56788571Y-16937142D01*
X28664285Y-20172857D02*
X29164285Y-20172857D01*
X29378571Y-20958571D02*
X28664285Y-20958571D01*
X28664285Y-19458571D01*
X29378571Y-19458571D01*
X29950000Y-20887142D02*
X30164285Y-20958571D01*
X30521428Y-20958571D01*
X30664285Y-20887142D01*
X30735714Y-20815714D01*
X30807142Y-20672857D01*
X30807142Y-20530000D01*
X30735714Y-20387142D01*
X30664285Y-20315714D01*
X30521428Y-20244285D01*
X30235714Y-20172857D01*
X30092857Y-20101428D01*
X30021428Y-20030000D01*
X29950000Y-19887142D01*
X29950000Y-19744285D01*
X30021428Y-19601428D01*
X30092857Y-19530000D01*
X30235714Y-19458571D01*
X30592857Y-19458571D01*
X30807142Y-19530000D01*
X32307142Y-20815714D02*
X32235714Y-20887142D01*
X32021428Y-20958571D01*
X31878571Y-20958571D01*
X31664285Y-20887142D01*
X31521428Y-20744285D01*
X31450000Y-20601428D01*
X31378571Y-20315714D01*
X31378571Y-20101428D01*
X31450000Y-19815714D01*
X31521428Y-19672857D01*
X31664285Y-19530000D01*
X31878571Y-19458571D01*
X32021428Y-19458571D01*
X32235714Y-19530000D01*
X32307142Y-19601428D01*
X38802857Y-19912857D02*
X39302857Y-19912857D01*
X39517142Y-20698571D02*
X38802857Y-20698571D01*
X38802857Y-19198571D01*
X39517142Y-19198571D01*
X40160000Y-19698571D02*
X40160000Y-20698571D01*
X40160000Y-19841428D02*
X40231428Y-19770000D01*
X40374285Y-19698571D01*
X40588571Y-19698571D01*
X40731428Y-19770000D01*
X40802857Y-19912857D01*
X40802857Y-20698571D01*
X42160000Y-20627142D02*
X42017142Y-20698571D01*
X41731428Y-20698571D01*
X41588571Y-20627142D01*
X41517142Y-20555714D01*
X41445714Y-20412857D01*
X41445714Y-19984285D01*
X41517142Y-19841428D01*
X41588571Y-19770000D01*
X41731428Y-19698571D01*
X42017142Y-19698571D01*
X42160000Y-19770000D01*
X43017142Y-20698571D02*
X42874285Y-20627142D01*
X42802857Y-20555714D01*
X42731428Y-20412857D01*
X42731428Y-19984285D01*
X42802857Y-19841428D01*
X42874285Y-19770000D01*
X43017142Y-19698571D01*
X43231428Y-19698571D01*
X43374285Y-19770000D01*
X43445714Y-19841428D01*
X43517142Y-19984285D01*
X43517142Y-20412857D01*
X43445714Y-20555714D01*
X43374285Y-20627142D01*
X43231428Y-20698571D01*
X43017142Y-20698571D01*
X44802857Y-20698571D02*
X44802857Y-19198571D01*
X44802857Y-20627142D02*
X44660000Y-20698571D01*
X44374285Y-20698571D01*
X44231428Y-20627142D01*
X44160000Y-20555714D01*
X44088571Y-20412857D01*
X44088571Y-19984285D01*
X44160000Y-19841428D01*
X44231428Y-19770000D01*
X44374285Y-19698571D01*
X44660000Y-19698571D01*
X44802857Y-19770000D01*
X46088571Y-20627142D02*
X45945714Y-20698571D01*
X45660000Y-20698571D01*
X45517142Y-20627142D01*
X45445714Y-20484285D01*
X45445714Y-19912857D01*
X45517142Y-19770000D01*
X45660000Y-19698571D01*
X45945714Y-19698571D01*
X46088571Y-19770000D01*
X46160000Y-19912857D01*
X46160000Y-20055714D01*
X45445714Y-20198571D01*
X46802857Y-20698571D02*
X46802857Y-19698571D01*
X46802857Y-19984285D02*
X46874285Y-19841428D01*
X46945714Y-19770000D01*
X47088571Y-19698571D01*
X47231428Y-19698571D01*
X26897142Y-49458571D02*
X26897142Y-47958571D01*
X27468571Y-47958571D01*
X27611428Y-48030000D01*
X27682857Y-48101428D01*
X27754285Y-48244285D01*
X27754285Y-48458571D01*
X27682857Y-48601428D01*
X27611428Y-48672857D01*
X27468571Y-48744285D01*
X26897142Y-48744285D01*
X28397142Y-49458571D02*
X28397142Y-48458571D01*
X28397142Y-48744285D02*
X28468571Y-48601428D01*
X28540000Y-48530000D01*
X28682857Y-48458571D01*
X28825714Y-48458571D01*
X29325714Y-49458571D02*
X29325714Y-48458571D01*
X29325714Y-47958571D02*
X29254285Y-48030000D01*
X29325714Y-48101428D01*
X29397142Y-48030000D01*
X29325714Y-47958571D01*
X29325714Y-48101428D01*
X30040000Y-49458571D02*
X30040000Y-48458571D01*
X30040000Y-48601428D02*
X30111428Y-48530000D01*
X30254285Y-48458571D01*
X30468571Y-48458571D01*
X30611428Y-48530000D01*
X30682857Y-48672857D01*
X30682857Y-49458571D01*
X30682857Y-48672857D02*
X30754285Y-48530000D01*
X30897142Y-48458571D01*
X31111428Y-48458571D01*
X31254285Y-48530000D01*
X31325714Y-48672857D01*
X31325714Y-49458571D01*
X32611428Y-49387142D02*
X32468571Y-49458571D01*
X32182857Y-49458571D01*
X32040000Y-49387142D01*
X31968571Y-49244285D01*
X31968571Y-48672857D01*
X32040000Y-48530000D01*
X32182857Y-48458571D01*
X32468571Y-48458571D01*
X32611428Y-48530000D01*
X32682857Y-48672857D01*
X32682857Y-48815714D01*
X31968571Y-48958571D01*
X34468571Y-49458571D02*
X34468571Y-47958571D01*
X34968571Y-49030000D01*
X35468571Y-47958571D01*
X35468571Y-49458571D01*
X36397142Y-49458571D02*
X36254285Y-49387142D01*
X36182857Y-49315714D01*
X36111428Y-49172857D01*
X36111428Y-48744285D01*
X36182857Y-48601428D01*
X36254285Y-48530000D01*
X36397142Y-48458571D01*
X36611428Y-48458571D01*
X36754285Y-48530000D01*
X36825714Y-48601428D01*
X36897142Y-48744285D01*
X36897142Y-49172857D01*
X36825714Y-49315714D01*
X36754285Y-49387142D01*
X36611428Y-49458571D01*
X36397142Y-49458571D01*
X37397142Y-48458571D02*
X37754285Y-49458571D01*
X38111428Y-48458571D01*
X39254285Y-49387142D02*
X39111428Y-49458571D01*
X38825714Y-49458571D01*
X38682857Y-49387142D01*
X38611428Y-49244285D01*
X38611428Y-48672857D01*
X38682857Y-48530000D01*
X38825714Y-48458571D01*
X39111428Y-48458571D01*
X39254285Y-48530000D01*
X39325714Y-48672857D01*
X39325714Y-48815714D01*
X38611428Y-48958571D01*
X39968571Y-49458571D02*
X39968571Y-48458571D01*
X39968571Y-48744285D02*
X40040000Y-48601428D01*
X40111428Y-48530000D01*
X40254285Y-48458571D01*
X40397142Y-48458571D01*
X41825714Y-47958571D02*
X42325714Y-49458571D01*
X42825714Y-47958571D01*
X44111428Y-49458571D02*
X43254285Y-49458571D01*
X43682857Y-49458571D02*
X43682857Y-47958571D01*
X43540000Y-48172857D01*
X43397142Y-48315714D01*
X43254285Y-48387142D01*
X44754285Y-49315714D02*
X44825714Y-49387142D01*
X44754285Y-49458571D01*
X44682857Y-49387142D01*
X44754285Y-49315714D01*
X44754285Y-49458571D01*
X46254285Y-49458571D02*
X45397142Y-49458571D01*
X45825714Y-49458571D02*
X45825714Y-47958571D01*
X45682857Y-48172857D01*
X45540000Y-48315714D01*
X45397142Y-48387142D01*
X1328571Y-28800000D02*
X1185714Y-28728571D01*
X971428Y-28728571D01*
X757142Y-28800000D01*
X614285Y-28942857D01*
X542857Y-29085714D01*
X471428Y-29371428D01*
X471428Y-29585714D01*
X542857Y-29871428D01*
X614285Y-30014285D01*
X757142Y-30157142D01*
X971428Y-30228571D01*
X1114285Y-30228571D01*
X1328571Y-30157142D01*
X1399999Y-30085714D01*
X1399999Y-29585714D01*
X1114285Y-29585714D01*
X2042857Y-30228571D02*
X2042857Y-28728571D01*
X2614285Y-28728571D01*
X2757142Y-28800000D01*
X2828571Y-28871428D01*
X2899999Y-29014285D01*
X2899999Y-29228571D01*
X2828571Y-29371428D01*
X2757142Y-29442857D01*
X2614285Y-29514285D01*
X2042857Y-29514285D01*
X3471428Y-30157142D02*
X3685714Y-30228571D01*
X4042857Y-30228571D01*
X4185714Y-30157142D01*
X4257142Y-30085714D01*
X4328571Y-29942857D01*
X4328571Y-29800000D01*
X4257142Y-29657142D01*
X4185714Y-29585714D01*
X4042857Y-29514285D01*
X3757142Y-29442857D01*
X3614285Y-29371428D01*
X3542857Y-29300000D01*
X3471428Y-29157142D01*
X3471428Y-29014285D01*
X3542857Y-28871428D01*
X3614285Y-28800000D01*
X3757142Y-28728571D01*
X4114285Y-28728571D01*
X4328571Y-28800000D01*
X53280571Y-43378142D02*
X54780571Y-42878142D01*
X53280571Y-42378142D01*
X53994857Y-41378142D02*
X54066285Y-41163857D01*
X54137714Y-41092428D01*
X54280571Y-41021000D01*
X54494857Y-41021000D01*
X54637714Y-41092428D01*
X54709142Y-41163857D01*
X54780571Y-41306714D01*
X54780571Y-41878142D01*
X53280571Y-41878142D01*
X53280571Y-41378142D01*
X53352000Y-41235285D01*
X53423428Y-41163857D01*
X53566285Y-41092428D01*
X53709142Y-41092428D01*
X53852000Y-41163857D01*
X53923428Y-41235285D01*
X53994857Y-41378142D01*
X53994857Y-41878142D01*
X54780571Y-39735285D02*
X53994857Y-39735285D01*
X53852000Y-39806714D01*
X53780571Y-39949571D01*
X53780571Y-40235285D01*
X53852000Y-40378142D01*
X54709142Y-39735285D02*
X54780571Y-39878142D01*
X54780571Y-40235285D01*
X54709142Y-40378142D01*
X54566285Y-40449571D01*
X54423428Y-40449571D01*
X54280571Y-40378142D01*
X54209142Y-40235285D01*
X54209142Y-39878142D01*
X54137714Y-39735285D01*
X53780571Y-39235285D02*
X53780571Y-38663857D01*
X53280571Y-39021000D02*
X54566285Y-39021000D01*
X54709142Y-38949571D01*
X54780571Y-38806714D01*
X54780571Y-38663857D01*
X58233571Y-42497142D02*
X58233571Y-41568571D01*
X58805000Y-42068571D01*
X58805000Y-41854285D01*
X58876428Y-41711428D01*
X58947857Y-41640000D01*
X59090714Y-41568571D01*
X59447857Y-41568571D01*
X59590714Y-41640000D01*
X59662142Y-41711428D01*
X59733571Y-41854285D01*
X59733571Y-42282857D01*
X59662142Y-42425714D01*
X59590714Y-42497142D01*
X58233571Y-41140000D02*
X59733571Y-40640000D01*
X58233571Y-40140000D01*
X58233571Y-39782857D02*
X58233571Y-38854285D01*
X58805000Y-39354285D01*
X58805000Y-39140000D01*
X58876428Y-38997142D01*
X58947857Y-38925714D01*
X59090714Y-38854285D01*
X59447857Y-38854285D01*
X59590714Y-38925714D01*
X59662142Y-38997142D01*
X59733571Y-39140000D01*
X59733571Y-39568571D01*
X59662142Y-39711428D01*
X59590714Y-39782857D01*
X55820571Y-40925714D02*
X55820571Y-41640000D01*
X56534857Y-41711428D01*
X56463428Y-41640000D01*
X56392000Y-41497142D01*
X56392000Y-41140000D01*
X56463428Y-40997142D01*
X56534857Y-40925714D01*
X56677714Y-40854285D01*
X57034857Y-40854285D01*
X57177714Y-40925714D01*
X57249142Y-40997142D01*
X57320571Y-41140000D01*
X57320571Y-41497142D01*
X57249142Y-41640000D01*
X57177714Y-41711428D01*
X55820571Y-40425714D02*
X57320571Y-39925714D01*
X55820571Y-39425714D01*
X63568571Y-28587142D02*
X62068571Y-28587142D01*
X62068571Y-28015714D01*
X62140000Y-27872857D01*
X62211428Y-27801428D01*
X62354285Y-27730000D01*
X62568571Y-27730000D01*
X62711428Y-27801428D01*
X62782857Y-27872857D01*
X62854285Y-28015714D01*
X62854285Y-28587142D01*
X62068571Y-27230000D02*
X63568571Y-26872857D01*
X62497142Y-26587142D01*
X63568571Y-26301428D01*
X62068571Y-25944285D01*
X63568571Y-25372857D02*
X62068571Y-25372857D01*
X63140000Y-24872857D01*
X62068571Y-24372857D01*
X63568571Y-24372857D01*
X63748571Y-46407142D02*
X63748571Y-47121428D01*
X62248571Y-47121428D01*
X63748571Y-45907142D02*
X62748571Y-45907142D01*
X62248571Y-45907142D02*
X62320000Y-45978571D01*
X62391428Y-45907142D01*
X62320000Y-45835714D01*
X62248571Y-45907142D01*
X62391428Y-45907142D01*
X62748571Y-45192857D02*
X63748571Y-45192857D01*
X62891428Y-45192857D02*
X62820000Y-45121428D01*
X62748571Y-44978571D01*
X62748571Y-44764285D01*
X62820000Y-44621428D01*
X62962857Y-44550000D01*
X63748571Y-44550000D01*
X63677142Y-43264285D02*
X63748571Y-43407142D01*
X63748571Y-43692857D01*
X63677142Y-43835714D01*
X63534285Y-43907142D01*
X62962857Y-43907142D01*
X62820000Y-43835714D01*
X62748571Y-43692857D01*
X62748571Y-43407142D01*
X62820000Y-43264285D01*
X62962857Y-43192857D01*
X63105714Y-43192857D01*
X63248571Y-43907142D01*
X62248571Y-41621428D02*
X62248571Y-40764285D01*
X63748571Y-41192857D02*
X62248571Y-41192857D01*
X63748571Y-40264285D02*
X62748571Y-40264285D01*
X63034285Y-40264285D02*
X62891428Y-40192857D01*
X62820000Y-40121428D01*
X62748571Y-39978571D01*
X62748571Y-39835714D01*
X63748571Y-38692857D02*
X62962857Y-38692857D01*
X62820000Y-38764285D01*
X62748571Y-38907142D01*
X62748571Y-39192857D01*
X62820000Y-39335714D01*
X63677142Y-38692857D02*
X63748571Y-38835714D01*
X63748571Y-39192857D01*
X63677142Y-39335714D01*
X63534285Y-39407142D01*
X63391428Y-39407142D01*
X63248571Y-39335714D01*
X63177142Y-39192857D01*
X63177142Y-38835714D01*
X63105714Y-38692857D01*
X63677142Y-37335714D02*
X63748571Y-37478571D01*
X63748571Y-37764285D01*
X63677142Y-37907142D01*
X63605714Y-37978571D01*
X63462857Y-38050000D01*
X63034285Y-38050000D01*
X62891428Y-37978571D01*
X62820000Y-37907142D01*
X62748571Y-37764285D01*
X62748571Y-37478571D01*
X62820000Y-37335714D01*
X63748571Y-36692857D02*
X62248571Y-36692857D01*
X63177142Y-36550000D02*
X63748571Y-36121428D01*
X62748571Y-36121428D02*
X63320000Y-36692857D01*
X63677142Y-34907142D02*
X63748571Y-35050000D01*
X63748571Y-35335714D01*
X63677142Y-35478571D01*
X63534285Y-35550000D01*
X62962857Y-35550000D01*
X62820000Y-35478571D01*
X62748571Y-35335714D01*
X62748571Y-35050000D01*
X62820000Y-34907142D01*
X62962857Y-34835714D01*
X63105714Y-34835714D01*
X63248571Y-35550000D01*
X63748571Y-34192857D02*
X62748571Y-34192857D01*
X63034285Y-34192857D02*
X62891428Y-34121428D01*
X62820000Y-34050000D01*
X62748571Y-33907142D01*
X62748571Y-33764285D01*
X5448571Y-49160000D02*
X5448571Y-49874285D01*
X6162857Y-49945714D01*
X6091428Y-49874285D01*
X6020000Y-49731428D01*
X6020000Y-49374285D01*
X6091428Y-49231428D01*
X6162857Y-49160000D01*
X6305714Y-49088571D01*
X6662857Y-49088571D01*
X6805714Y-49160000D01*
X6877142Y-49231428D01*
X6948571Y-49374285D01*
X6948571Y-49731428D01*
X6877142Y-49874285D01*
X6805714Y-49945714D01*
X5448571Y-48660000D02*
X6948571Y-48160000D01*
X5448571Y-47660000D01*
X5520000Y-45231428D02*
X5448571Y-45374285D01*
X5448571Y-45588571D01*
X5520000Y-45802857D01*
X5662857Y-45945714D01*
X5805714Y-46017142D01*
X6091428Y-46088571D01*
X6305714Y-46088571D01*
X6591428Y-46017142D01*
X6734285Y-45945714D01*
X6877142Y-45802857D01*
X6948571Y-45588571D01*
X6948571Y-45445714D01*
X6877142Y-45231428D01*
X6805714Y-45160000D01*
X6305714Y-45160000D01*
X6305714Y-45445714D01*
X6948571Y-44517142D02*
X5448571Y-44517142D01*
X5448571Y-43945714D01*
X5520000Y-43802857D01*
X5591428Y-43731428D01*
X5734285Y-43660000D01*
X5948571Y-43660000D01*
X6091428Y-43731428D01*
X6162857Y-43802857D01*
X6234285Y-43945714D01*
X6234285Y-44517142D01*
X6948571Y-43017142D02*
X5448571Y-43017142D01*
X5448571Y-42017142D02*
X5448571Y-41731428D01*
X5520000Y-41588571D01*
X5662857Y-41445714D01*
X5948571Y-41374285D01*
X6448571Y-41374285D01*
X6734285Y-41445714D01*
X6877142Y-41588571D01*
X6948571Y-41731428D01*
X6948571Y-42017142D01*
X6877142Y-42160000D01*
X6734285Y-42302857D01*
X6448571Y-42374285D01*
X5948571Y-42374285D01*
X5662857Y-42302857D01*
X5520000Y-42160000D01*
X5448571Y-42017142D01*
X7392857Y-19298571D02*
X7392857Y-20512857D01*
X7464285Y-20655714D01*
X7535714Y-20727142D01*
X7678571Y-20798571D01*
X7964285Y-20798571D01*
X8107142Y-20727142D01*
X8178571Y-20655714D01*
X8250000Y-20512857D01*
X8250000Y-19298571D01*
X9178571Y-20798571D02*
X9035714Y-20727142D01*
X8964285Y-20584285D01*
X8964285Y-19298571D01*
X9535714Y-19798571D02*
X10107142Y-19798571D01*
X9750000Y-19298571D02*
X9750000Y-20584285D01*
X9821428Y-20727142D01*
X9964285Y-20798571D01*
X10107142Y-20798571D01*
X10607142Y-20798571D02*
X10607142Y-19798571D01*
X10607142Y-20084285D02*
X10678571Y-19941428D01*
X10750000Y-19870000D01*
X10892857Y-19798571D01*
X11035714Y-19798571D01*
X12178571Y-20798571D02*
X12178571Y-20012857D01*
X12107142Y-19870000D01*
X11964285Y-19798571D01*
X11678571Y-19798571D01*
X11535714Y-19870000D01*
X12178571Y-20727142D02*
X12035714Y-20798571D01*
X11678571Y-20798571D01*
X11535714Y-20727142D01*
X11464285Y-20584285D01*
X11464285Y-20441428D01*
X11535714Y-20298571D01*
X11678571Y-20227142D01*
X12035714Y-20227142D01*
X12178571Y-20155714D01*
X12821428Y-20727142D02*
X12964285Y-20798571D01*
X13250000Y-20798571D01*
X13392857Y-20727142D01*
X13464285Y-20584285D01*
X13464285Y-20512857D01*
X13392857Y-20370000D01*
X13250000Y-20298571D01*
X13035714Y-20298571D01*
X12892857Y-20227142D01*
X12821428Y-20084285D01*
X12821428Y-20012857D01*
X12892857Y-19870000D01*
X13035714Y-19798571D01*
X13250000Y-19798571D01*
X13392857Y-19870000D01*
X14321428Y-20798571D02*
X14178571Y-20727142D01*
X14107142Y-20655714D01*
X14035714Y-20512857D01*
X14035714Y-20084285D01*
X14107142Y-19941428D01*
X14178571Y-19870000D01*
X14321428Y-19798571D01*
X14535714Y-19798571D01*
X14678571Y-19870000D01*
X14750000Y-19941428D01*
X14821428Y-20084285D01*
X14821428Y-20512857D01*
X14750000Y-20655714D01*
X14678571Y-20727142D01*
X14535714Y-20798571D01*
X14321428Y-20798571D01*
X15464285Y-19798571D02*
X15464285Y-20798571D01*
X15464285Y-19941428D02*
X15535714Y-19870000D01*
X15678571Y-19798571D01*
X15892857Y-19798571D01*
X16035714Y-19870000D01*
X16107142Y-20012857D01*
X16107142Y-20798571D01*
X16821428Y-20798571D02*
X16821428Y-19798571D01*
X16821428Y-19298571D02*
X16750000Y-19370000D01*
X16821428Y-19441428D01*
X16892857Y-19370000D01*
X16821428Y-19298571D01*
X16821428Y-19441428D01*
X18178571Y-20727142D02*
X18035714Y-20798571D01*
X17750000Y-20798571D01*
X17607142Y-20727142D01*
X17535714Y-20655714D01*
X17464285Y-20512857D01*
X17464285Y-20084285D01*
X17535714Y-19941428D01*
X17607142Y-19870000D01*
X17750000Y-19798571D01*
X18035714Y-19798571D01*
X18178571Y-19870000D01*
X21317142Y-20142857D02*
X20817142Y-20142857D01*
X20817142Y-20928571D02*
X20817142Y-19428571D01*
X21531428Y-19428571D01*
X22745714Y-20928571D02*
X22745714Y-20142857D01*
X22674285Y-20000000D01*
X22531428Y-19928571D01*
X22245714Y-19928571D01*
X22102857Y-20000000D01*
X22745714Y-20857142D02*
X22602857Y-20928571D01*
X22245714Y-20928571D01*
X22102857Y-20857142D01*
X22031428Y-20714285D01*
X22031428Y-20571428D01*
X22102857Y-20428571D01*
X22245714Y-20357142D01*
X22602857Y-20357142D01*
X22745714Y-20285714D01*
X23460000Y-19928571D02*
X23460000Y-20928571D01*
X23460000Y-20071428D02*
X23531428Y-20000000D01*
X23674285Y-19928571D01*
X23888571Y-19928571D01*
X24031428Y-20000000D01*
X24102857Y-20142857D01*
X24102857Y-20928571D01*
X18823714Y-11080142D02*
X18895142Y-11151571D01*
X18966571Y-11365857D01*
X18966571Y-11508714D01*
X18895142Y-11723000D01*
X18752285Y-11865857D01*
X18609428Y-11937285D01*
X18323714Y-12008714D01*
X18109428Y-12008714D01*
X17823714Y-11937285D01*
X17680857Y-11865857D01*
X17538000Y-11723000D01*
X17466571Y-11508714D01*
X17466571Y-11365857D01*
X17538000Y-11151571D01*
X17609428Y-11080142D01*
X18966571Y-10437285D02*
X17466571Y-10437285D01*
X18966571Y-9794428D02*
X18180857Y-9794428D01*
X18038000Y-9865857D01*
X17966571Y-10008714D01*
X17966571Y-10223000D01*
X18038000Y-10365857D01*
X18109428Y-10437285D01*
X18966571Y-8437285D02*
X18180857Y-8437285D01*
X18038000Y-8508714D01*
X17966571Y-8651571D01*
X17966571Y-8937285D01*
X18038000Y-9080142D01*
X18895142Y-8437285D02*
X18966571Y-8580142D01*
X18966571Y-8937285D01*
X18895142Y-9080142D01*
X18752285Y-9151571D01*
X18609428Y-9151571D01*
X18466571Y-9080142D01*
X18395142Y-8937285D01*
X18395142Y-8580142D01*
X18323714Y-8437285D01*
X18966571Y-7723000D02*
X17966571Y-7723000D01*
X18252285Y-7723000D02*
X18109428Y-7651571D01*
X18038000Y-7580142D01*
X17966571Y-7437285D01*
X17966571Y-7294428D01*
X17966571Y-6151571D02*
X19180857Y-6151571D01*
X19323714Y-6223000D01*
X19395142Y-6294428D01*
X19466571Y-6437285D01*
X19466571Y-6651571D01*
X19395142Y-6794428D01*
X18895142Y-6151571D02*
X18966571Y-6294428D01*
X18966571Y-6580142D01*
X18895142Y-6723000D01*
X18823714Y-6794428D01*
X18680857Y-6865857D01*
X18252285Y-6865857D01*
X18109428Y-6794428D01*
X18038000Y-6723000D01*
X17966571Y-6580142D01*
X17966571Y-6294428D01*
X18038000Y-6151571D01*
X18895142Y-4865857D02*
X18966571Y-5008714D01*
X18966571Y-5294428D01*
X18895142Y-5437285D01*
X18752285Y-5508714D01*
X18180857Y-5508714D01*
X18038000Y-5437285D01*
X17966571Y-5294428D01*
X17966571Y-5008714D01*
X18038000Y-4865857D01*
X18180857Y-4794428D01*
X18323714Y-4794428D01*
X18466571Y-5508714D01*
X18966571Y-4151571D02*
X17966571Y-4151571D01*
X18252285Y-4151571D02*
X18109428Y-4080142D01*
X18038000Y-4008714D01*
X17966571Y-3865857D01*
X17966571Y-3723000D01*
X18966571Y-2080142D02*
X17466571Y-2080142D01*
X18966571Y-1365857D02*
X17466571Y-1365857D01*
X18966571Y-508714D01*
X17466571Y-508714D01*
X30568571Y-8024285D02*
X32068571Y-7524285D01*
X30568571Y-7024285D01*
X32068571Y-6524285D02*
X30568571Y-6524285D01*
X31140000Y-6524285D02*
X31068571Y-6381428D01*
X31068571Y-6095714D01*
X31140000Y-5952857D01*
X31211428Y-5881428D01*
X31354285Y-5810000D01*
X31782857Y-5810000D01*
X31925714Y-5881428D01*
X31997142Y-5952857D01*
X32068571Y-6095714D01*
X32068571Y-6381428D01*
X31997142Y-6524285D01*
X32068571Y-4524285D02*
X31282857Y-4524285D01*
X31140000Y-4595714D01*
X31068571Y-4738571D01*
X31068571Y-5024285D01*
X31140000Y-5167142D01*
X31997142Y-4524285D02*
X32068571Y-4667142D01*
X32068571Y-5024285D01*
X31997142Y-5167142D01*
X31854285Y-5238571D01*
X31711428Y-5238571D01*
X31568571Y-5167142D01*
X31497142Y-5024285D01*
X31497142Y-4667142D01*
X31425714Y-4524285D01*
X31068571Y-4024285D02*
X31068571Y-3452857D01*
X30568571Y-3810000D02*
X31854285Y-3810000D01*
X31997142Y-3738571D01*
X32068571Y-3595714D01*
X32068571Y-3452857D01*
X31068571Y-3167142D02*
X31068571Y-2595714D01*
X30568571Y-2952857D02*
X31854285Y-2952857D01*
X31997142Y-2881428D01*
X32068571Y-2738571D01*
X32068571Y-2595714D01*
X43628571Y-11342000D02*
X45128571Y-10842000D01*
X43628571Y-10342000D01*
X44342857Y-9342000D02*
X44414285Y-9127714D01*
X44485714Y-9056285D01*
X44628571Y-8984857D01*
X44842857Y-8984857D01*
X44985714Y-9056285D01*
X45057142Y-9127714D01*
X45128571Y-9270571D01*
X45128571Y-9842000D01*
X43628571Y-9842000D01*
X43628571Y-9342000D01*
X43700000Y-9199142D01*
X43771428Y-9127714D01*
X43914285Y-9056285D01*
X44057142Y-9056285D01*
X44200000Y-9127714D01*
X44271428Y-9199142D01*
X44342857Y-9342000D01*
X44342857Y-9842000D01*
X45128571Y-7699142D02*
X44342857Y-7699142D01*
X44200000Y-7770571D01*
X44128571Y-7913428D01*
X44128571Y-8199142D01*
X44200000Y-8342000D01*
X45057142Y-7699142D02*
X45128571Y-7842000D01*
X45128571Y-8199142D01*
X45057142Y-8342000D01*
X44914285Y-8413428D01*
X44771428Y-8413428D01*
X44628571Y-8342000D01*
X44557142Y-8199142D01*
X44557142Y-7842000D01*
X44485714Y-7699142D01*
X44128571Y-7199142D02*
X44128571Y-6627714D01*
X43628571Y-6984857D02*
X44914285Y-6984857D01*
X45057142Y-6913428D01*
X45128571Y-6770571D01*
X45128571Y-6627714D01*
X44128571Y-6342000D02*
X44128571Y-5770571D01*
X43628571Y-6127714D02*
X44914285Y-6127714D01*
X45057142Y-6056285D01*
X45128571Y-5913428D01*
X45128571Y-5770571D01*
X43628571Y-3842000D02*
X43628571Y-3556285D01*
X43700000Y-3413428D01*
X43842857Y-3270571D01*
X44128571Y-3199142D01*
X44628571Y-3199142D01*
X44914285Y-3270571D01*
X45057142Y-3413428D01*
X45128571Y-3556285D01*
X45128571Y-3842000D01*
X45057142Y-3984857D01*
X44914285Y-4127714D01*
X44628571Y-4199142D01*
X44128571Y-4199142D01*
X43842857Y-4127714D01*
X43700000Y-3984857D01*
X43628571Y-3842000D01*
X43628571Y-2556285D02*
X44842857Y-2556285D01*
X44985714Y-2484857D01*
X45057142Y-2413428D01*
X45128571Y-2270571D01*
X45128571Y-1984857D01*
X45057142Y-1842000D01*
X44985714Y-1770571D01*
X44842857Y-1699142D01*
X43628571Y-1699142D01*
X43628571Y-1199142D02*
X43628571Y-342000D01*
X45128571Y-770571D02*
X43628571Y-770571D01*
X56608571Y-5010000D02*
X56608571Y-5724285D01*
X57322857Y-5795714D01*
X57251428Y-5724285D01*
X57180000Y-5581428D01*
X57180000Y-5224285D01*
X57251428Y-5081428D01*
X57322857Y-5010000D01*
X57465714Y-4938571D01*
X57822857Y-4938571D01*
X57965714Y-5010000D01*
X58037142Y-5081428D01*
X58108571Y-5224285D01*
X58108571Y-5581428D01*
X58037142Y-5724285D01*
X57965714Y-5795714D01*
X56608571Y-4510000D02*
X58108571Y-4010000D01*
X56608571Y-3510000D01*
X58108571Y-1867142D02*
X56608571Y-1867142D01*
X58108571Y-1152857D02*
X56608571Y-1152857D01*
X58108571Y-295714D01*
X56608571Y-295714D01*
D11*
X25300000Y-21600000D02*
X45300000Y-21600000D01*
X22800000Y-24100000D02*
G75*
G02X25300000Y-21600000I2500000J0D01*
G01*
X22800000Y-44100000D02*
X22800000Y-24100000D01*
X25300000Y-46600000D02*
G75*
G02X22800000Y-44100000I0J2500000D01*
G01*
X45300000Y-21600000D02*
G75*
G02X47800000Y-24100000I0J-2500000D01*
G01*
X47800000Y-24100000D02*
X47800000Y-44100000D01*
X45300000Y-46600000D02*
X25300000Y-46600000D01*
X47800000Y-44100000D02*
G75*
G02X45300000Y-46600000I-2500000J0D01*
G01*
X69301000Y-15219000D02*
X68051000Y-15219000D01*
X69301000Y-16469000D02*
X69301000Y-15219000D01*
X64891000Y-28579000D02*
X65391000Y-28579000D01*
X65391000Y-28679000D02*
X64891000Y-28679000D01*
X65391000Y-28479000D02*
X65391000Y-28679000D01*
X64891000Y-28479000D02*
X65391000Y-28479000D01*
X64891000Y-26579000D02*
X65391000Y-26579000D01*
X65391000Y-26679000D02*
X64891000Y-26679000D01*
X65391000Y-26479000D02*
X65391000Y-26679000D01*
X64891000Y-26479000D02*
X65391000Y-26479000D01*
X64891000Y-24579000D02*
X65391000Y-24579000D01*
X65391000Y-24679000D02*
X64891000Y-24679000D01*
X65391000Y-24479000D02*
X65391000Y-24679000D01*
X64891000Y-24479000D02*
X65391000Y-24479000D01*
X64891000Y-22579000D02*
X65391000Y-22579000D01*
X65391000Y-22679000D02*
X64891000Y-22679000D01*
X65391000Y-22479000D02*
X65391000Y-22679000D01*
X64891000Y-22479000D02*
X65391000Y-22479000D01*
X64891000Y-20579000D02*
X65391000Y-20579000D01*
X65391000Y-20679000D02*
X64891000Y-20679000D01*
X65391000Y-20479000D02*
X65391000Y-20679000D01*
X64891000Y-20479000D02*
X65391000Y-20479000D01*
X64891000Y-18579000D02*
X65391000Y-18579000D01*
X65391000Y-18679000D02*
X64891000Y-18679000D01*
X65391000Y-18479000D02*
X65391000Y-18679000D01*
X64891000Y-18479000D02*
X65391000Y-18479000D01*
X66391000Y-31639000D02*
X66391000Y-31029000D01*
X67691000Y-31639000D02*
X67691000Y-31029000D01*
X66391000Y-15519000D02*
X66391000Y-16129000D01*
X67691000Y-15519000D02*
X67691000Y-16129000D01*
X68391000Y-29079000D02*
X69001000Y-29079000D01*
X68391000Y-31029000D02*
X68391000Y-29079000D01*
X64891000Y-31029000D02*
X68391000Y-31029000D01*
X64891000Y-16129000D02*
X64891000Y-31029000D01*
X68391000Y-16129000D02*
X64891000Y-16129000D01*
X68391000Y-18079000D02*
X68391000Y-16129000D01*
X69001000Y-18079000D02*
X68391000Y-18079000D01*
X69101000Y-17279000D02*
X69101000Y-16979000D01*
X69201000Y-16979000D02*
X69001000Y-16979000D01*
X69201000Y-17279000D02*
X69201000Y-16979000D01*
X69001000Y-17279000D02*
X69201000Y-17279000D01*
X69001000Y-31639000D02*
X69001000Y-15519000D01*
X64281000Y-31639000D02*
X69001000Y-31639000D01*
X64281000Y-15519000D02*
X64281000Y-31639000D01*
X69001000Y-15519000D02*
X64281000Y-15519000D01*
X74850000Y-15219000D02*
X73600000Y-15219000D01*
X74850000Y-16469000D02*
X74850000Y-15219000D01*
X70440000Y-28579000D02*
X70940000Y-28579000D01*
X70940000Y-28679000D02*
X70440000Y-28679000D01*
X70940000Y-28479000D02*
X70940000Y-28679000D01*
X70440000Y-28479000D02*
X70940000Y-28479000D01*
X70440000Y-26579000D02*
X70940000Y-26579000D01*
X70940000Y-26679000D02*
X70440000Y-26679000D01*
X70940000Y-26479000D02*
X70940000Y-26679000D01*
X70440000Y-26479000D02*
X70940000Y-26479000D01*
X70440000Y-24579000D02*
X70940000Y-24579000D01*
X70940000Y-24679000D02*
X70440000Y-24679000D01*
X70940000Y-24479000D02*
X70940000Y-24679000D01*
X70440000Y-24479000D02*
X70940000Y-24479000D01*
X70440000Y-22579000D02*
X70940000Y-22579000D01*
X70940000Y-22679000D02*
X70440000Y-22679000D01*
X70940000Y-22479000D02*
X70940000Y-22679000D01*
X70440000Y-22479000D02*
X70940000Y-22479000D01*
X70440000Y-20579000D02*
X70940000Y-20579000D01*
X70940000Y-20679000D02*
X70440000Y-20679000D01*
X70940000Y-20479000D02*
X70940000Y-20679000D01*
X70440000Y-20479000D02*
X70940000Y-20479000D01*
X70440000Y-18579000D02*
X70940000Y-18579000D01*
X70940000Y-18679000D02*
X70440000Y-18679000D01*
X70940000Y-18479000D02*
X70940000Y-18679000D01*
X70440000Y-18479000D02*
X70940000Y-18479000D01*
X71940000Y-31639000D02*
X71940000Y-31029000D01*
X73240000Y-31639000D02*
X73240000Y-31029000D01*
X71940000Y-15519000D02*
X71940000Y-16129000D01*
X73240000Y-15519000D02*
X73240000Y-16129000D01*
X73940000Y-29079000D02*
X74550000Y-29079000D01*
X73940000Y-31029000D02*
X73940000Y-29079000D01*
X70440000Y-31029000D02*
X73940000Y-31029000D01*
X70440000Y-16129000D02*
X70440000Y-31029000D01*
X73940000Y-16129000D02*
X70440000Y-16129000D01*
X73940000Y-18079000D02*
X73940000Y-16129000D01*
X74550000Y-18079000D02*
X73940000Y-18079000D01*
X74650000Y-17279000D02*
X74650000Y-16979000D01*
X74750000Y-16979000D02*
X74550000Y-16979000D01*
X74750000Y-17279000D02*
X74750000Y-16979000D01*
X74550000Y-17279000D02*
X74750000Y-17279000D01*
X74550000Y-31639000D02*
X74550000Y-15519000D01*
X69830000Y-31639000D02*
X74550000Y-31639000D01*
X69830000Y-15519000D02*
X69830000Y-31639000D01*
X74550000Y-15519000D02*
X69830000Y-15519000D01*
X51640000Y-19140000D02*
X51640000Y-17890000D01*
X50390000Y-19140000D02*
X51640000Y-19140000D01*
X38280000Y-14730000D02*
X38280000Y-15230000D01*
X38180000Y-15230000D02*
X38180000Y-14730000D01*
X38380000Y-15230000D02*
X38180000Y-15230000D01*
X38380000Y-14730000D02*
X38380000Y-15230000D01*
X40280000Y-14730000D02*
X40280000Y-15230000D01*
X40180000Y-15230000D02*
X40180000Y-14730000D01*
X40380000Y-15230000D02*
X40180000Y-15230000D01*
X40380000Y-14730000D02*
X40380000Y-15230000D01*
X42280000Y-14730000D02*
X42280000Y-15230000D01*
X42180000Y-15230000D02*
X42180000Y-14730000D01*
X42380000Y-15230000D02*
X42180000Y-15230000D01*
X42380000Y-14730000D02*
X42380000Y-15230000D01*
X44280000Y-14730000D02*
X44280000Y-15230000D01*
X44180000Y-15230000D02*
X44180000Y-14730000D01*
X44380000Y-15230000D02*
X44180000Y-15230000D01*
X44380000Y-14730000D02*
X44380000Y-15230000D01*
X46280000Y-14730000D02*
X46280000Y-15230000D01*
X46180000Y-15230000D02*
X46180000Y-14730000D01*
X46380000Y-15230000D02*
X46180000Y-15230000D01*
X46380000Y-14730000D02*
X46380000Y-15230000D01*
X48280000Y-14730000D02*
X48280000Y-15230000D01*
X48180000Y-15230000D02*
X48180000Y-14730000D01*
X48380000Y-15230000D02*
X48180000Y-15230000D01*
X48380000Y-14730000D02*
X48380000Y-15230000D01*
X35220000Y-16230000D02*
X35830000Y-16230000D01*
X35220000Y-17530000D02*
X35830000Y-17530000D01*
X51340000Y-16230000D02*
X50730000Y-16230000D01*
X51340000Y-17530000D02*
X50730000Y-17530000D01*
X37780000Y-18230000D02*
X37780000Y-18840000D01*
X35830000Y-18230000D02*
X37780000Y-18230000D01*
X35830000Y-14730000D02*
X35830000Y-18230000D01*
X50730000Y-14730000D02*
X35830000Y-14730000D01*
X50730000Y-18230000D02*
X50730000Y-14730000D01*
X48780000Y-18230000D02*
X50730000Y-18230000D01*
X48780000Y-18840000D02*
X48780000Y-18230000D01*
X49580000Y-18940000D02*
X49880000Y-18940000D01*
X49880000Y-19040000D02*
X49880000Y-18840000D01*
X49580000Y-19040000D02*
X49880000Y-19040000D01*
X49580000Y-18840000D02*
X49580000Y-19040000D01*
X35220000Y-18840000D02*
X51340000Y-18840000D01*
X35220000Y-14120000D02*
X35220000Y-18840000D01*
X51340000Y-14120000D02*
X35220000Y-14120000D01*
X51340000Y-18840000D02*
X51340000Y-14120000D01*
X25720000Y-19140000D02*
X25720000Y-17890000D01*
X24470000Y-19140000D02*
X25720000Y-19140000D01*
X22360000Y-14730000D02*
X22360000Y-15230000D01*
X22260000Y-15230000D02*
X22260000Y-14730000D01*
X22460000Y-15230000D02*
X22260000Y-15230000D01*
X22460000Y-14730000D02*
X22460000Y-15230000D01*
X19300000Y-16230000D02*
X19910000Y-16230000D01*
X19300000Y-17530000D02*
X19910000Y-17530000D01*
X25420000Y-16230000D02*
X24810000Y-16230000D01*
X25420000Y-17530000D02*
X24810000Y-17530000D01*
X21860000Y-18230000D02*
X21860000Y-18840000D01*
X19910000Y-18230000D02*
X21860000Y-18230000D01*
X19910000Y-14730000D02*
X19910000Y-18230000D01*
X24810000Y-14730000D02*
X19910000Y-14730000D01*
X24810000Y-18230000D02*
X24810000Y-14730000D01*
X22860000Y-18230000D02*
X24810000Y-18230000D01*
X22860000Y-18840000D02*
X22860000Y-18230000D01*
X23660000Y-18940000D02*
X23960000Y-18940000D01*
X23960000Y-19040000D02*
X23960000Y-18840000D01*
X23660000Y-19040000D02*
X23960000Y-19040000D01*
X23660000Y-18840000D02*
X23660000Y-19040000D01*
X19300000Y-18840000D02*
X25420000Y-18840000D01*
X19300000Y-14120000D02*
X19300000Y-18840000D01*
X25420000Y-14120000D02*
X19300000Y-14120000D01*
X25420000Y-18840000D02*
X25420000Y-14120000D01*
X21890000Y-51490000D02*
X21890000Y-50240000D01*
X20640000Y-51490000D02*
X21890000Y-51490000D01*
X10530000Y-47080000D02*
X10530000Y-47580000D01*
X10430000Y-47580000D02*
X10430000Y-47080000D01*
X10630000Y-47580000D02*
X10430000Y-47580000D01*
X10630000Y-47080000D02*
X10630000Y-47580000D01*
X12530000Y-47080000D02*
X12530000Y-47580000D01*
X12430000Y-47580000D02*
X12430000Y-47080000D01*
X12630000Y-47580000D02*
X12430000Y-47580000D01*
X12630000Y-47080000D02*
X12630000Y-47580000D01*
X14530000Y-47080000D02*
X14530000Y-47580000D01*
X14430000Y-47580000D02*
X14430000Y-47080000D01*
X14630000Y-47580000D02*
X14430000Y-47580000D01*
X14630000Y-47080000D02*
X14630000Y-47580000D01*
X16530000Y-47080000D02*
X16530000Y-47580000D01*
X16430000Y-47580000D02*
X16430000Y-47080000D01*
X16630000Y-47580000D02*
X16430000Y-47580000D01*
X16630000Y-47080000D02*
X16630000Y-47580000D01*
X18530000Y-47080000D02*
X18530000Y-47580000D01*
X18430000Y-47580000D02*
X18430000Y-47080000D01*
X18630000Y-47580000D02*
X18430000Y-47580000D01*
X18630000Y-47080000D02*
X18630000Y-47580000D01*
X7470000Y-48580000D02*
X8080000Y-48580000D01*
X7470000Y-49880000D02*
X8080000Y-49880000D01*
X21590000Y-48580000D02*
X20980000Y-48580000D01*
X21590000Y-49880000D02*
X20980000Y-49880000D01*
X10030000Y-50580000D02*
X10030000Y-51190000D01*
X8080000Y-50580000D02*
X10030000Y-50580000D01*
X8080000Y-47080000D02*
X8080000Y-50580000D01*
X20980000Y-47080000D02*
X8080000Y-47080000D01*
X20980000Y-50580000D02*
X20980000Y-47080000D01*
X19030000Y-50580000D02*
X20980000Y-50580000D01*
X19030000Y-51190000D02*
X19030000Y-50580000D01*
X19830000Y-51290000D02*
X20130000Y-51290000D01*
X20130000Y-51390000D02*
X20130000Y-51190000D01*
X19830000Y-51390000D02*
X20130000Y-51390000D01*
X19830000Y-51190000D02*
X19830000Y-51390000D01*
X7470000Y-51190000D02*
X21590000Y-51190000D01*
X7470000Y-46470000D02*
X7470000Y-51190000D01*
X21590000Y-46470000D02*
X7470000Y-46470000D01*
X21590000Y-51190000D02*
X21590000Y-46470000D01*
X69310000Y-32182000D02*
X68060000Y-32182000D01*
X69310000Y-33432000D02*
X69310000Y-32182000D01*
X64900000Y-45542000D02*
X65400000Y-45542000D01*
X65400000Y-45642000D02*
X64900000Y-45642000D01*
X65400000Y-45442000D02*
X65400000Y-45642000D01*
X64900000Y-45442000D02*
X65400000Y-45442000D01*
X64900000Y-43542000D02*
X65400000Y-43542000D01*
X65400000Y-43642000D02*
X64900000Y-43642000D01*
X65400000Y-43442000D02*
X65400000Y-43642000D01*
X64900000Y-43442000D02*
X65400000Y-43442000D01*
X64900000Y-41542000D02*
X65400000Y-41542000D01*
X65400000Y-41642000D02*
X64900000Y-41642000D01*
X65400000Y-41442000D02*
X65400000Y-41642000D01*
X64900000Y-41442000D02*
X65400000Y-41442000D01*
X64900000Y-39542000D02*
X65400000Y-39542000D01*
X65400000Y-39642000D02*
X64900000Y-39642000D01*
X65400000Y-39442000D02*
X65400000Y-39642000D01*
X64900000Y-39442000D02*
X65400000Y-39442000D01*
X64900000Y-37542000D02*
X65400000Y-37542000D01*
X65400000Y-37642000D02*
X64900000Y-37642000D01*
X65400000Y-37442000D02*
X65400000Y-37642000D01*
X64900000Y-37442000D02*
X65400000Y-37442000D01*
X64900000Y-35542000D02*
X65400000Y-35542000D01*
X65400000Y-35642000D02*
X64900000Y-35642000D01*
X65400000Y-35442000D02*
X65400000Y-35642000D01*
X64900000Y-35442000D02*
X65400000Y-35442000D01*
X66400000Y-48602000D02*
X66400000Y-47992000D01*
X67700000Y-48602000D02*
X67700000Y-47992000D01*
X66400000Y-32482000D02*
X66400000Y-33092000D01*
X67700000Y-32482000D02*
X67700000Y-33092000D01*
X68400000Y-46042000D02*
X69010000Y-46042000D01*
X68400000Y-47992000D02*
X68400000Y-46042000D01*
X64900000Y-47992000D02*
X68400000Y-47992000D01*
X64900000Y-33092000D02*
X64900000Y-47992000D01*
X68400000Y-33092000D02*
X64900000Y-33092000D01*
X68400000Y-35042000D02*
X68400000Y-33092000D01*
X69010000Y-35042000D02*
X68400000Y-35042000D01*
X69110000Y-34242000D02*
X69110000Y-33942000D01*
X69210000Y-33942000D02*
X69010000Y-33942000D01*
X69210000Y-34242000D02*
X69210000Y-33942000D01*
X69010000Y-34242000D02*
X69210000Y-34242000D01*
X69010000Y-48602000D02*
X69010000Y-32482000D01*
X64290000Y-48602000D02*
X69010000Y-48602000D01*
X64290000Y-32482000D02*
X64290000Y-48602000D01*
X69010000Y-32482000D02*
X64290000Y-32482000D01*
X74850000Y-32177000D02*
X73600000Y-32177000D01*
X74850000Y-33427000D02*
X74850000Y-32177000D01*
X70440000Y-45537000D02*
X70940000Y-45537000D01*
X70940000Y-45637000D02*
X70440000Y-45637000D01*
X70940000Y-45437000D02*
X70940000Y-45637000D01*
X70440000Y-45437000D02*
X70940000Y-45437000D01*
X70440000Y-43537000D02*
X70940000Y-43537000D01*
X70940000Y-43637000D02*
X70440000Y-43637000D01*
X70940000Y-43437000D02*
X70940000Y-43637000D01*
X70440000Y-43437000D02*
X70940000Y-43437000D01*
X70440000Y-41537000D02*
X70940000Y-41537000D01*
X70940000Y-41637000D02*
X70440000Y-41637000D01*
X70940000Y-41437000D02*
X70940000Y-41637000D01*
X70440000Y-41437000D02*
X70940000Y-41437000D01*
X70440000Y-39537000D02*
X70940000Y-39537000D01*
X70940000Y-39637000D02*
X70440000Y-39637000D01*
X70940000Y-39437000D02*
X70940000Y-39637000D01*
X70440000Y-39437000D02*
X70940000Y-39437000D01*
X70440000Y-37537000D02*
X70940000Y-37537000D01*
X70940000Y-37637000D02*
X70440000Y-37637000D01*
X70940000Y-37437000D02*
X70940000Y-37637000D01*
X70440000Y-37437000D02*
X70940000Y-37437000D01*
X70440000Y-35537000D02*
X70940000Y-35537000D01*
X70940000Y-35637000D02*
X70440000Y-35637000D01*
X70940000Y-35437000D02*
X70940000Y-35637000D01*
X70440000Y-35437000D02*
X70940000Y-35437000D01*
X71940000Y-48597000D02*
X71940000Y-47987000D01*
X73240000Y-48597000D02*
X73240000Y-47987000D01*
X71940000Y-32477000D02*
X71940000Y-33087000D01*
X73240000Y-32477000D02*
X73240000Y-33087000D01*
X73940000Y-46037000D02*
X74550000Y-46037000D01*
X73940000Y-47987000D02*
X73940000Y-46037000D01*
X70440000Y-47987000D02*
X73940000Y-47987000D01*
X70440000Y-33087000D02*
X70440000Y-47987000D01*
X73940000Y-33087000D02*
X70440000Y-33087000D01*
X73940000Y-35037000D02*
X73940000Y-33087000D01*
X74550000Y-35037000D02*
X73940000Y-35037000D01*
X74650000Y-34237000D02*
X74650000Y-33937000D01*
X74750000Y-33937000D02*
X74550000Y-33937000D01*
X74750000Y-34237000D02*
X74750000Y-33937000D01*
X74550000Y-34237000D02*
X74750000Y-34237000D01*
X74550000Y-48597000D02*
X74550000Y-32477000D01*
X69830000Y-48597000D02*
X74550000Y-48597000D01*
X69830000Y-32477000D02*
X69830000Y-48597000D01*
X74550000Y-32477000D02*
X69830000Y-32477000D01*
X63760000Y-15220000D02*
X62510000Y-15220000D01*
X63760000Y-16470000D02*
X63760000Y-15220000D01*
X59350000Y-20580000D02*
X59850000Y-20580000D01*
X59850000Y-20680000D02*
X59350000Y-20680000D01*
X59850000Y-20480000D02*
X59850000Y-20680000D01*
X59350000Y-20480000D02*
X59850000Y-20480000D01*
X59350000Y-18580000D02*
X59850000Y-18580000D01*
X59850000Y-18680000D02*
X59350000Y-18680000D01*
X59850000Y-18480000D02*
X59850000Y-18680000D01*
X59350000Y-18480000D02*
X59850000Y-18480000D01*
X60850000Y-23640000D02*
X60850000Y-23030000D01*
X62150000Y-23640000D02*
X62150000Y-23030000D01*
X60850000Y-15520000D02*
X60850000Y-16130000D01*
X62150000Y-15520000D02*
X62150000Y-16130000D01*
X62850000Y-21080000D02*
X63460000Y-21080000D01*
X62850000Y-23030000D02*
X62850000Y-21080000D01*
X59350000Y-23030000D02*
X62850000Y-23030000D01*
X59350000Y-16130000D02*
X59350000Y-23030000D01*
X62850000Y-16130000D02*
X59350000Y-16130000D01*
X62850000Y-18080000D02*
X62850000Y-16130000D01*
X63460000Y-18080000D02*
X62850000Y-18080000D01*
X63560000Y-17280000D02*
X63560000Y-16980000D01*
X63660000Y-16980000D02*
X63460000Y-16980000D01*
X63660000Y-17280000D02*
X63660000Y-16980000D01*
X63460000Y-17280000D02*
X63660000Y-17280000D01*
X63460000Y-23640000D02*
X63460000Y-15520000D01*
X58740000Y-23640000D02*
X63460000Y-23640000D01*
X58740000Y-15520000D02*
X58740000Y-23640000D01*
X63460000Y-15520000D02*
X58740000Y-15520000D01*
X34700000Y-19140000D02*
X34700000Y-17890000D01*
X33450000Y-19140000D02*
X34700000Y-19140000D01*
X29340000Y-14730000D02*
X29340000Y-15230000D01*
X29240000Y-15230000D02*
X29240000Y-14730000D01*
X29440000Y-15230000D02*
X29240000Y-15230000D01*
X29440000Y-14730000D02*
X29440000Y-15230000D01*
X31340000Y-14730000D02*
X31340000Y-15230000D01*
X31240000Y-15230000D02*
X31240000Y-14730000D01*
X31440000Y-15230000D02*
X31240000Y-15230000D01*
X31440000Y-14730000D02*
X31440000Y-15230000D01*
X26280000Y-16230000D02*
X26890000Y-16230000D01*
X26280000Y-17530000D02*
X26890000Y-17530000D01*
X34400000Y-16230000D02*
X33790000Y-16230000D01*
X34400000Y-17530000D02*
X33790000Y-17530000D01*
X28840000Y-18230000D02*
X28840000Y-18840000D01*
X26890000Y-18230000D02*
X28840000Y-18230000D01*
X26890000Y-14730000D02*
X26890000Y-18230000D01*
X33790000Y-14730000D02*
X26890000Y-14730000D01*
X33790000Y-18230000D02*
X33790000Y-14730000D01*
X31840000Y-18230000D02*
X33790000Y-18230000D01*
X31840000Y-18840000D02*
X31840000Y-18230000D01*
X32640000Y-18940000D02*
X32940000Y-18940000D01*
X32940000Y-19040000D02*
X32940000Y-18840000D01*
X32640000Y-19040000D02*
X32940000Y-19040000D01*
X32640000Y-18840000D02*
X32640000Y-19040000D01*
X26280000Y-18840000D02*
X34400000Y-18840000D01*
X26280000Y-14120000D02*
X26280000Y-18840000D01*
X34400000Y-14120000D02*
X26280000Y-14120000D01*
X34400000Y-18840000D02*
X34400000Y-14120000D01*
X18743000Y-19128000D02*
X18743000Y-17878000D01*
X17493000Y-19128000D02*
X18743000Y-19128000D01*
X11383000Y-14718000D02*
X11383000Y-15218000D01*
X11283000Y-15218000D02*
X11283000Y-14718000D01*
X11483000Y-15218000D02*
X11283000Y-15218000D01*
X11483000Y-14718000D02*
X11483000Y-15218000D01*
X13383000Y-14718000D02*
X13383000Y-15218000D01*
X13283000Y-15218000D02*
X13283000Y-14718000D01*
X13483000Y-15218000D02*
X13283000Y-15218000D01*
X13483000Y-14718000D02*
X13483000Y-15218000D01*
X15383000Y-14718000D02*
X15383000Y-15218000D01*
X15283000Y-15218000D02*
X15283000Y-14718000D01*
X15483000Y-15218000D02*
X15283000Y-15218000D01*
X15483000Y-14718000D02*
X15483000Y-15218000D01*
X8323000Y-16218000D02*
X8933000Y-16218000D01*
X8323000Y-17518000D02*
X8933000Y-17518000D01*
X18443000Y-16218000D02*
X17833000Y-16218000D01*
X18443000Y-17518000D02*
X17833000Y-17518000D01*
X10883000Y-18218000D02*
X10883000Y-18828000D01*
X8933000Y-18218000D02*
X10883000Y-18218000D01*
X8933000Y-14718000D02*
X8933000Y-18218000D01*
X17833000Y-14718000D02*
X8933000Y-14718000D01*
X17833000Y-18218000D02*
X17833000Y-14718000D01*
X15883000Y-18218000D02*
X17833000Y-18218000D01*
X15883000Y-18828000D02*
X15883000Y-18218000D01*
X16683000Y-18928000D02*
X16983000Y-18928000D01*
X16983000Y-19028000D02*
X16983000Y-18828000D01*
X16683000Y-19028000D02*
X16983000Y-19028000D01*
X16683000Y-18828000D02*
X16683000Y-19028000D01*
X8323000Y-18828000D02*
X18443000Y-18828000D01*
X8323000Y-14108000D02*
X8323000Y-18828000D01*
X18443000Y-14108000D02*
X8323000Y-14108000D01*
X18443000Y-18828000D02*
X18443000Y-14108000D01*
X17900000Y-45960000D02*
X17900000Y-44710000D01*
X16650000Y-45960000D02*
X17900000Y-45960000D01*
X10540000Y-41550000D02*
X10540000Y-42050000D01*
X10440000Y-42050000D02*
X10440000Y-41550000D01*
X10640000Y-42050000D02*
X10440000Y-42050000D01*
X10640000Y-41550000D02*
X10640000Y-42050000D01*
X12540000Y-41550000D02*
X12540000Y-42050000D01*
X12440000Y-42050000D02*
X12440000Y-41550000D01*
X12640000Y-42050000D02*
X12440000Y-42050000D01*
X12640000Y-41550000D02*
X12640000Y-42050000D01*
X14540000Y-41550000D02*
X14540000Y-42050000D01*
X14440000Y-42050000D02*
X14440000Y-41550000D01*
X14640000Y-42050000D02*
X14440000Y-42050000D01*
X14640000Y-41550000D02*
X14640000Y-42050000D01*
X7480000Y-43050000D02*
X8090000Y-43050000D01*
X7480000Y-44350000D02*
X8090000Y-44350000D01*
X17600000Y-43050000D02*
X16990000Y-43050000D01*
X17600000Y-44350000D02*
X16990000Y-44350000D01*
X10040000Y-45050000D02*
X10040000Y-45660000D01*
X8090000Y-45050000D02*
X10040000Y-45050000D01*
X8090000Y-41550000D02*
X8090000Y-45050000D01*
X16990000Y-41550000D02*
X8090000Y-41550000D01*
X16990000Y-45050000D02*
X16990000Y-41550000D01*
X15040000Y-45050000D02*
X16990000Y-45050000D01*
X15040000Y-45660000D02*
X15040000Y-45050000D01*
X15840000Y-45760000D02*
X16140000Y-45760000D01*
X16140000Y-45860000D02*
X16140000Y-45660000D01*
X15840000Y-45860000D02*
X16140000Y-45860000D01*
X15840000Y-45660000D02*
X15840000Y-45860000D01*
X7480000Y-45660000D02*
X17600000Y-45660000D01*
X7480000Y-40940000D02*
X7480000Y-45660000D01*
X17600000Y-40940000D02*
X7480000Y-40940000D01*
X17600000Y-45660000D02*
X17600000Y-40940000D01*
X4904000Y-7292000D02*
X3654000Y-7292000D01*
X4904000Y-8542000D02*
X4904000Y-7292000D01*
X494000Y-24652000D02*
X994000Y-24652000D01*
X994000Y-24752000D02*
X494000Y-24752000D01*
X994000Y-24552000D02*
X994000Y-24752000D01*
X494000Y-24552000D02*
X994000Y-24552000D01*
X494000Y-22652000D02*
X994000Y-22652000D01*
X994000Y-22752000D02*
X494000Y-22752000D01*
X994000Y-22552000D02*
X994000Y-22752000D01*
X494000Y-22552000D02*
X994000Y-22552000D01*
X494000Y-20652000D02*
X994000Y-20652000D01*
X994000Y-20752000D02*
X494000Y-20752000D01*
X994000Y-20552000D02*
X994000Y-20752000D01*
X494000Y-20552000D02*
X994000Y-20552000D01*
X494000Y-18652000D02*
X994000Y-18652000D01*
X994000Y-18752000D02*
X494000Y-18752000D01*
X994000Y-18552000D02*
X994000Y-18752000D01*
X494000Y-18552000D02*
X994000Y-18552000D01*
X494000Y-16652000D02*
X994000Y-16652000D01*
X994000Y-16752000D02*
X494000Y-16752000D01*
X994000Y-16552000D02*
X994000Y-16752000D01*
X494000Y-16552000D02*
X994000Y-16552000D01*
X494000Y-14652000D02*
X994000Y-14652000D01*
X994000Y-14752000D02*
X494000Y-14752000D01*
X994000Y-14552000D02*
X994000Y-14752000D01*
X494000Y-14552000D02*
X994000Y-14552000D01*
X494000Y-12652000D02*
X994000Y-12652000D01*
X994000Y-12752000D02*
X494000Y-12752000D01*
X994000Y-12552000D02*
X994000Y-12752000D01*
X494000Y-12552000D02*
X994000Y-12552000D01*
X494000Y-10652000D02*
X994000Y-10652000D01*
X994000Y-10752000D02*
X494000Y-10752000D01*
X994000Y-10552000D02*
X994000Y-10752000D01*
X494000Y-10552000D02*
X994000Y-10552000D01*
X1994000Y-27712000D02*
X1994000Y-27102000D01*
X3294000Y-27712000D02*
X3294000Y-27102000D01*
X1994000Y-7592000D02*
X1994000Y-8202000D01*
X3294000Y-7592000D02*
X3294000Y-8202000D01*
X3994000Y-25152000D02*
X4604000Y-25152000D01*
X3994000Y-27102000D02*
X3994000Y-25152000D01*
X494000Y-27102000D02*
X3994000Y-27102000D01*
X494000Y-8202000D02*
X494000Y-27102000D01*
X3994000Y-8202000D02*
X494000Y-8202000D01*
X3994000Y-10152000D02*
X3994000Y-8202000D01*
X4604000Y-10152000D02*
X3994000Y-10152000D01*
X4704000Y-9352000D02*
X4704000Y-9052000D01*
X4804000Y-9052000D02*
X4604000Y-9052000D01*
X4804000Y-9352000D02*
X4804000Y-9052000D01*
X4604000Y-9352000D02*
X4804000Y-9352000D01*
X4604000Y-27712000D02*
X4604000Y-7592000D01*
X-116000Y-27712000D02*
X4604000Y-27712000D01*
X-116000Y-7592000D02*
X-116000Y-27712000D01*
X4604000Y-7592000D02*
X-116000Y-7592000D01*
X61923922Y-14750000D02*
X62441078Y-14750000D01*
X61923922Y-13330000D02*
X62441078Y-13330000D01*
X63012500Y-13102500D02*
X63637500Y-13102500D01*
X63325000Y-13415000D02*
X63325000Y-12790000D01*
X66705563Y-12550000D02*
X67770000Y-11485563D01*
X63314437Y-12550000D02*
X62250000Y-11485563D01*
X63314437Y-12550000D02*
X63950000Y-12550000D01*
X66705563Y-12550000D02*
X66070000Y-12550000D01*
X67770000Y-11485563D02*
X67770000Y-7030000D01*
X62250000Y-11485563D02*
X62250000Y-7030000D01*
X62250000Y-7030000D02*
X63950000Y-7030000D01*
X67770000Y-7030000D02*
X66070000Y-7030000D01*
X12820000Y-22361422D02*
X12820000Y-22878578D01*
X14240000Y-22361422D02*
X14240000Y-22878578D01*
X57162500Y-13102500D02*
X57787500Y-13102500D01*
X57475000Y-13415000D02*
X57475000Y-12790000D01*
X60855563Y-12550000D02*
X61920000Y-11485563D01*
X57464437Y-12550000D02*
X56400000Y-11485563D01*
X57464437Y-12550000D02*
X58100000Y-12550000D01*
X60855563Y-12550000D02*
X60220000Y-12550000D01*
X61920000Y-11485563D02*
X61920000Y-7030000D01*
X56400000Y-11485563D02*
X56400000Y-7030000D01*
X56400000Y-7030000D02*
X58100000Y-7030000D01*
X61920000Y-7030000D02*
X60220000Y-7030000D01*
X17302500Y-27772500D02*
X17927500Y-27772500D01*
X17615000Y-28085000D02*
X17615000Y-27460000D01*
X20995563Y-27220000D02*
X22060000Y-26155563D01*
X17604437Y-27220000D02*
X16540000Y-26155563D01*
X17604437Y-27220000D02*
X18240000Y-27220000D01*
X20995563Y-27220000D02*
X20360000Y-27220000D01*
X22060000Y-26155563D02*
X22060000Y-21700000D01*
X16540000Y-26155563D02*
X16540000Y-21700000D01*
X16540000Y-21700000D02*
X18240000Y-21700000D01*
X22060000Y-21700000D02*
X20360000Y-21700000D01*
D12*
X15388000Y-32699000D02*
X15388000Y-38674000D01*
X8488000Y-34224000D02*
X8488000Y-38674000D01*
D11*
X54812000Y-32888422D02*
X54812000Y-33405578D01*
X53392000Y-32888422D02*
X53392000Y-33405578D01*
X57225000Y-32888422D02*
X57225000Y-33405578D01*
X55805000Y-32888422D02*
X55805000Y-33405578D01*
X59638000Y-32888422D02*
X59638000Y-33405578D01*
X58218000Y-32888422D02*
X58218000Y-33405578D01*
X53142000Y-35576000D02*
X53142000Y-38261000D01*
X53142000Y-38261000D02*
X55062000Y-38261000D01*
X55062000Y-38261000D02*
X55062000Y-35576000D01*
X55555000Y-35576000D02*
X55555000Y-38261000D01*
X55555000Y-38261000D02*
X57475000Y-38261000D01*
X57475000Y-38261000D02*
X57475000Y-35576000D01*
X57968000Y-35576000D02*
X57968000Y-38261000D01*
X57968000Y-38261000D02*
X59888000Y-38261000D01*
X59888000Y-38261000D02*
X59888000Y-35576000D01*
X58596000Y-44955578D02*
X58596000Y-44438422D01*
X60016000Y-44955578D02*
X60016000Y-44438422D01*
X9981000Y-30992578D02*
X9981000Y-30475422D01*
X8561000Y-30992578D02*
X8561000Y-30475422D01*
X12013000Y-30992578D02*
X12013000Y-30475422D01*
X10593000Y-30992578D02*
X10593000Y-30475422D01*
X14045000Y-30992578D02*
X14045000Y-30475422D01*
X12625000Y-30992578D02*
X12625000Y-30475422D01*
X16077000Y-30992578D02*
X16077000Y-30475422D01*
X14657000Y-30992578D02*
X14657000Y-30475422D01*
X58596000Y-47915922D02*
X58596000Y-48433078D01*
X60016000Y-47915922D02*
X60016000Y-48433078D01*
X56564000Y-44438422D02*
X56564000Y-44955578D01*
X57984000Y-44438422D02*
X57984000Y-44955578D01*
X58124000Y-46607000D02*
X58124000Y-49757000D01*
X56424000Y-46607000D02*
X56424000Y-49757000D01*
X58124000Y-46607000D02*
X56424000Y-46607000D01*
X9981000Y-27563578D02*
X9981000Y-27046422D01*
X8561000Y-27563578D02*
X8561000Y-27046422D01*
X12013000Y-27563578D02*
X12013000Y-27046422D01*
X10593000Y-27563578D02*
X10593000Y-27046422D01*
X14045000Y-27563578D02*
X14045000Y-27046422D01*
X12625000Y-27563578D02*
X12625000Y-27046422D01*
X16077000Y-27563578D02*
X16077000Y-27046422D01*
X14657000Y-27563578D02*
X14657000Y-27046422D01*
X54873577Y-20904999D02*
X54356421Y-20904999D01*
X54873577Y-22324999D02*
X54356421Y-22324999D01*
X54871078Y-20320000D02*
X54353922Y-20320000D01*
X54871078Y-18900000D02*
X54353922Y-18900000D01*
D12*
X13720476Y-51732380D02*
X13720476Y-52446666D01*
X13672857Y-52589523D01*
X13577619Y-52684761D01*
X13434761Y-52732380D01*
X13339523Y-52732380D01*
X14720476Y-52732380D02*
X14149047Y-52732380D01*
X14434761Y-52732380D02*
X14434761Y-51732380D01*
X14339523Y-51875238D01*
X14244285Y-51970476D01*
X14149047Y-52018095D01*
X15577619Y-51732380D02*
X15387142Y-51732380D01*
X15291904Y-51780000D01*
X15244285Y-51827619D01*
X15149047Y-51970476D01*
X15101428Y-52160952D01*
X15101428Y-52541904D01*
X15149047Y-52637142D01*
X15196666Y-52684761D01*
X15291904Y-52732380D01*
X15482380Y-52732380D01*
X15577619Y-52684761D01*
X15625238Y-52637142D01*
X15672857Y-52541904D01*
X15672857Y-52303809D01*
X15625238Y-52208571D01*
X15577619Y-52160952D01*
X15482380Y-52113333D01*
X15291904Y-52113333D01*
X15196666Y-52160952D01*
X15149047Y-52208571D01*
X15101428Y-52303809D01*
X64002380Y-20389523D02*
X64716666Y-20389523D01*
X64859523Y-20437142D01*
X64954761Y-20532380D01*
X65002380Y-20675238D01*
X65002380Y-20770476D01*
X65002380Y-19389523D02*
X65002380Y-19960952D01*
X65002380Y-19675238D02*
X64002380Y-19675238D01*
X64145238Y-19770476D01*
X64240476Y-19865714D01*
X64288095Y-19960952D01*
X64097619Y-19008571D02*
X64050000Y-18960952D01*
X64002380Y-18865714D01*
X64002380Y-18627619D01*
X64050000Y-18532380D01*
X64097619Y-18484761D01*
X64192857Y-18437142D01*
X64288095Y-18437142D01*
X64430952Y-18484761D01*
X65002380Y-19056190D01*
X65002380Y-18437142D01*
X17982380Y-44473333D02*
X18696666Y-44473333D01*
X18839523Y-44520952D01*
X18934761Y-44616190D01*
X18982380Y-44759047D01*
X18982380Y-44854285D01*
X18315714Y-43568571D02*
X18982380Y-43568571D01*
X17934761Y-43806666D02*
X18649047Y-44044761D01*
X18649047Y-43425714D01*
X5146380Y-17985333D02*
X5860666Y-17985333D01*
X6003523Y-18032952D01*
X6098761Y-18128190D01*
X6146380Y-18271047D01*
X6146380Y-18366285D01*
X5241619Y-17556761D02*
X5194000Y-17509142D01*
X5146380Y-17413904D01*
X5146380Y-17175809D01*
X5194000Y-17080571D01*
X5241619Y-17032952D01*
X5336857Y-16985333D01*
X5432095Y-16985333D01*
X5574952Y-17032952D01*
X6146380Y-17604380D01*
X6146380Y-16985333D01*
X24558666Y-10120380D02*
X24558666Y-10834666D01*
X24511047Y-10977523D01*
X24415809Y-11072761D01*
X24272952Y-11120380D01*
X24177714Y-11120380D01*
X25177714Y-10548952D02*
X25082476Y-10501333D01*
X25034857Y-10453714D01*
X24987238Y-10358476D01*
X24987238Y-10310857D01*
X25034857Y-10215619D01*
X25082476Y-10168000D01*
X25177714Y-10120380D01*
X25368190Y-10120380D01*
X25463428Y-10168000D01*
X25511047Y-10215619D01*
X25558666Y-10310857D01*
X25558666Y-10358476D01*
X25511047Y-10453714D01*
X25463428Y-10501333D01*
X25368190Y-10548952D01*
X25177714Y-10548952D01*
X25082476Y-10596571D01*
X25034857Y-10644190D01*
X24987238Y-10739428D01*
X24987238Y-10929904D01*
X25034857Y-11025142D01*
X25082476Y-11072761D01*
X25177714Y-11120380D01*
X25368190Y-11120380D01*
X25463428Y-11072761D01*
X25511047Y-11025142D01*
X25558666Y-10929904D01*
X25558666Y-10739428D01*
X25511047Y-10644190D01*
X25463428Y-10596571D01*
X25368190Y-10548952D01*
X64687142Y-14867142D02*
X64639523Y-14914761D01*
X64496666Y-14962380D01*
X64401428Y-14962380D01*
X64258571Y-14914761D01*
X64163333Y-14819523D01*
X64115714Y-14724285D01*
X64068095Y-14533809D01*
X64068095Y-14390952D01*
X64115714Y-14200476D01*
X64163333Y-14105238D01*
X64258571Y-14010000D01*
X64401428Y-13962380D01*
X64496666Y-13962380D01*
X64639523Y-14010000D01*
X64687142Y-14057619D01*
X65639523Y-14962380D02*
X65068095Y-14962380D01*
X65353809Y-14962380D02*
X65353809Y-13962380D01*
X65258571Y-14105238D01*
X65163333Y-14200476D01*
X65068095Y-14248095D01*
X66591904Y-14962380D02*
X66020476Y-14962380D01*
X66306190Y-14962380D02*
X66306190Y-13962380D01*
X66210952Y-14105238D01*
X66115714Y-14200476D01*
X66020476Y-14248095D01*
X66903333Y-6587142D02*
X66855714Y-6634761D01*
X66712857Y-6682380D01*
X66617619Y-6682380D01*
X66474761Y-6634761D01*
X66379523Y-6539523D01*
X66331904Y-6444285D01*
X66284285Y-6253809D01*
X66284285Y-6110952D01*
X66331904Y-5920476D01*
X66379523Y-5825238D01*
X66474761Y-5730000D01*
X66617619Y-5682380D01*
X66712857Y-5682380D01*
X66855714Y-5730000D01*
X66903333Y-5777619D01*
X67379523Y-6682380D02*
X67570000Y-6682380D01*
X67665238Y-6634761D01*
X67712857Y-6587142D01*
X67808095Y-6444285D01*
X67855714Y-6253809D01*
X67855714Y-5872857D01*
X67808095Y-5777619D01*
X67760476Y-5730000D01*
X67665238Y-5682380D01*
X67474761Y-5682380D01*
X67379523Y-5730000D01*
X67331904Y-5777619D01*
X67284285Y-5872857D01*
X67284285Y-6110952D01*
X67331904Y-6206190D01*
X67379523Y-6253809D01*
X67474761Y-6301428D01*
X67665238Y-6301428D01*
X67760476Y-6253809D01*
X67808095Y-6206190D01*
X67855714Y-6110952D01*
X15537142Y-22786666D02*
X15584761Y-22834285D01*
X15632380Y-22977142D01*
X15632380Y-23072380D01*
X15584761Y-23215238D01*
X15489523Y-23310476D01*
X15394285Y-23358095D01*
X15203809Y-23405714D01*
X15060952Y-23405714D01*
X14870476Y-23358095D01*
X14775238Y-23310476D01*
X14680000Y-23215238D01*
X14632380Y-23072380D01*
X14632380Y-22977142D01*
X14680000Y-22834285D01*
X14727619Y-22786666D01*
X15060952Y-22215238D02*
X15013333Y-22310476D01*
X14965714Y-22358095D01*
X14870476Y-22405714D01*
X14822857Y-22405714D01*
X14727619Y-22358095D01*
X14680000Y-22310476D01*
X14632380Y-22215238D01*
X14632380Y-22024761D01*
X14680000Y-21929523D01*
X14727619Y-21881904D01*
X14822857Y-21834285D01*
X14870476Y-21834285D01*
X14965714Y-21881904D01*
X15013333Y-21929523D01*
X15060952Y-22024761D01*
X15060952Y-22215238D01*
X15108571Y-22310476D01*
X15156190Y-22358095D01*
X15251428Y-22405714D01*
X15441904Y-22405714D01*
X15537142Y-22358095D01*
X15584761Y-22310476D01*
X15632380Y-22215238D01*
X15632380Y-22024761D01*
X15584761Y-21929523D01*
X15537142Y-21881904D01*
X15441904Y-21834285D01*
X15251428Y-21834285D01*
X15156190Y-21881904D01*
X15108571Y-21929523D01*
X15060952Y-22024761D01*
X56477142Y-12736666D02*
X56524761Y-12784285D01*
X56572380Y-12927142D01*
X56572380Y-13022380D01*
X56524761Y-13165238D01*
X56429523Y-13260476D01*
X56334285Y-13308095D01*
X56143809Y-13355714D01*
X56000952Y-13355714D01*
X55810476Y-13308095D01*
X55715238Y-13260476D01*
X55620000Y-13165238D01*
X55572380Y-13022380D01*
X55572380Y-12927142D01*
X55620000Y-12784285D01*
X55667619Y-12736666D01*
X55572380Y-12403333D02*
X55572380Y-11736666D01*
X56572380Y-12165238D01*
X21173333Y-28477142D02*
X21125714Y-28524761D01*
X20982857Y-28572380D01*
X20887619Y-28572380D01*
X20744761Y-28524761D01*
X20649523Y-28429523D01*
X20601904Y-28334285D01*
X20554285Y-28143809D01*
X20554285Y-28000952D01*
X20601904Y-27810476D01*
X20649523Y-27715238D01*
X20744761Y-27620000D01*
X20887619Y-27572380D01*
X20982857Y-27572380D01*
X21125714Y-27620000D01*
X21173333Y-27667619D01*
X22078095Y-27572380D02*
X21601904Y-27572380D01*
X21554285Y-28048571D01*
X21601904Y-28000952D01*
X21697142Y-27953333D01*
X21935238Y-27953333D01*
X22030476Y-28000952D01*
X22078095Y-28048571D01*
X22125714Y-28143809D01*
X22125714Y-28381904D01*
X22078095Y-28477142D01*
X22030476Y-28524761D01*
X21935238Y-28572380D01*
X21697142Y-28572380D01*
X21601904Y-28524761D01*
X21554285Y-28477142D01*
X11477666Y-10120380D02*
X11477666Y-10834666D01*
X11430047Y-10977523D01*
X11334809Y-11072761D01*
X11191952Y-11120380D01*
X11096714Y-11120380D01*
X11858619Y-10120380D02*
X12477666Y-10120380D01*
X12144333Y-10501333D01*
X12287190Y-10501333D01*
X12382428Y-10548952D01*
X12430047Y-10596571D01*
X12477666Y-10691809D01*
X12477666Y-10929904D01*
X12430047Y-11025142D01*
X12382428Y-11072761D01*
X12287190Y-11120380D01*
X12001476Y-11120380D01*
X11906238Y-11072761D01*
X11858619Y-11025142D01*
X15690380Y-37210904D02*
X16499904Y-37210904D01*
X16595142Y-37163285D01*
X16642761Y-37115666D01*
X16690380Y-37020428D01*
X16690380Y-36829952D01*
X16642761Y-36734714D01*
X16595142Y-36687095D01*
X16499904Y-36639476D01*
X15690380Y-36639476D01*
X15690380Y-35687095D02*
X15690380Y-36163285D01*
X16166571Y-36210904D01*
X16118952Y-36163285D01*
X16071333Y-36068047D01*
X16071333Y-35829952D01*
X16118952Y-35734714D01*
X16166571Y-35687095D01*
X16261809Y-35639476D01*
X16499904Y-35639476D01*
X16595142Y-35687095D01*
X16642761Y-35734714D01*
X16690380Y-35829952D01*
X16690380Y-36068047D01*
X16642761Y-36163285D01*
X16595142Y-36210904D01*
X53205142Y-31313380D02*
X52871809Y-30837190D01*
X52633714Y-31313380D02*
X52633714Y-30313380D01*
X53014666Y-30313380D01*
X53109904Y-30361000D01*
X53157523Y-30408619D01*
X53205142Y-30503857D01*
X53205142Y-30646714D01*
X53157523Y-30741952D01*
X53109904Y-30789571D01*
X53014666Y-30837190D01*
X52633714Y-30837190D01*
X54157523Y-31313380D02*
X53586095Y-31313380D01*
X53871809Y-31313380D02*
X53871809Y-30313380D01*
X53776571Y-30456238D01*
X53681333Y-30551476D01*
X53586095Y-30599095D01*
X54776571Y-30313380D02*
X54871809Y-30313380D01*
X54967047Y-30361000D01*
X55014666Y-30408619D01*
X55062285Y-30503857D01*
X55109904Y-30694333D01*
X55109904Y-30932428D01*
X55062285Y-31122904D01*
X55014666Y-31218142D01*
X54967047Y-31265761D01*
X54871809Y-31313380D01*
X54776571Y-31313380D01*
X54681333Y-31265761D01*
X54633714Y-31218142D01*
X54586095Y-31122904D01*
X54538476Y-30932428D01*
X54538476Y-30694333D01*
X54586095Y-30503857D01*
X54633714Y-30408619D01*
X54681333Y-30361000D01*
X54776571Y-30313380D01*
X56348333Y-31313380D02*
X56015000Y-30837190D01*
X55776904Y-31313380D02*
X55776904Y-30313380D01*
X56157857Y-30313380D01*
X56253095Y-30361000D01*
X56300714Y-30408619D01*
X56348333Y-30503857D01*
X56348333Y-30646714D01*
X56300714Y-30741952D01*
X56253095Y-30789571D01*
X56157857Y-30837190D01*
X55776904Y-30837190D01*
X56824523Y-31313380D02*
X57015000Y-31313380D01*
X57110238Y-31265761D01*
X57157857Y-31218142D01*
X57253095Y-31075285D01*
X57300714Y-30884809D01*
X57300714Y-30503857D01*
X57253095Y-30408619D01*
X57205476Y-30361000D01*
X57110238Y-30313380D01*
X56919761Y-30313380D01*
X56824523Y-30361000D01*
X56776904Y-30408619D01*
X56729285Y-30503857D01*
X56729285Y-30741952D01*
X56776904Y-30837190D01*
X56824523Y-30884809D01*
X56919761Y-30932428D01*
X57110238Y-30932428D01*
X57205476Y-30884809D01*
X57253095Y-30837190D01*
X57300714Y-30741952D01*
X58761333Y-31313380D02*
X58428000Y-30837190D01*
X58189904Y-31313380D02*
X58189904Y-30313380D01*
X58570857Y-30313380D01*
X58666095Y-30361000D01*
X58713714Y-30408619D01*
X58761333Y-30503857D01*
X58761333Y-30646714D01*
X58713714Y-30741952D01*
X58666095Y-30789571D01*
X58570857Y-30837190D01*
X58189904Y-30837190D01*
X59332761Y-30741952D02*
X59237523Y-30694333D01*
X59189904Y-30646714D01*
X59142285Y-30551476D01*
X59142285Y-30503857D01*
X59189904Y-30408619D01*
X59237523Y-30361000D01*
X59332761Y-30313380D01*
X59523238Y-30313380D01*
X59618476Y-30361000D01*
X59666095Y-30408619D01*
X59713714Y-30503857D01*
X59713714Y-30551476D01*
X59666095Y-30646714D01*
X59618476Y-30694333D01*
X59523238Y-30741952D01*
X59332761Y-30741952D01*
X59237523Y-30789571D01*
X59189904Y-30837190D01*
X59142285Y-30932428D01*
X59142285Y-31122904D01*
X59189904Y-31218142D01*
X59237523Y-31265761D01*
X59332761Y-31313380D01*
X59523238Y-31313380D01*
X59618476Y-31265761D01*
X59666095Y-31218142D01*
X59713714Y-31122904D01*
X59713714Y-30932428D01*
X59666095Y-30837190D01*
X59618476Y-30789571D01*
X59523238Y-30741952D01*
X37512666Y-9993380D02*
X37512666Y-10707666D01*
X37465047Y-10850523D01*
X37369809Y-10945761D01*
X37226952Y-10993380D01*
X37131714Y-10993380D01*
X38417428Y-9993380D02*
X38226952Y-9993380D01*
X38131714Y-10041000D01*
X38084095Y-10088619D01*
X37988857Y-10231476D01*
X37941238Y-10421952D01*
X37941238Y-10802904D01*
X37988857Y-10898142D01*
X38036476Y-10945761D01*
X38131714Y-10993380D01*
X38322190Y-10993380D01*
X38417428Y-10945761D01*
X38465047Y-10898142D01*
X38512666Y-10802904D01*
X38512666Y-10564809D01*
X38465047Y-10469571D01*
X38417428Y-10421952D01*
X38322190Y-10374333D01*
X38131714Y-10374333D01*
X38036476Y-10421952D01*
X37988857Y-10469571D01*
X37941238Y-10564809D01*
X61317142Y-44896666D02*
X61364761Y-44944285D01*
X61412380Y-45087142D01*
X61412380Y-45182380D01*
X61364761Y-45325238D01*
X61269523Y-45420476D01*
X61174285Y-45468095D01*
X60983809Y-45515714D01*
X60840952Y-45515714D01*
X60650476Y-45468095D01*
X60555238Y-45420476D01*
X60460000Y-45325238D01*
X60412380Y-45182380D01*
X60412380Y-45087142D01*
X60460000Y-44944285D01*
X60507619Y-44896666D01*
X60412380Y-44039523D02*
X60412380Y-44230000D01*
X60460000Y-44325238D01*
X60507619Y-44372857D01*
X60650476Y-44468095D01*
X60840952Y-44515714D01*
X61221904Y-44515714D01*
X61317142Y-44468095D01*
X61364761Y-44420476D01*
X61412380Y-44325238D01*
X61412380Y-44134761D01*
X61364761Y-44039523D01*
X61317142Y-43991904D01*
X61221904Y-43944285D01*
X60983809Y-43944285D01*
X60888571Y-43991904D01*
X60840952Y-44039523D01*
X60793333Y-44134761D01*
X60793333Y-44325238D01*
X60840952Y-44420476D01*
X60888571Y-44468095D01*
X60983809Y-44515714D01*
X8073380Y-30900666D02*
X7597190Y-31234000D01*
X8073380Y-31472095D02*
X7073380Y-31472095D01*
X7073380Y-31091142D01*
X7121000Y-30995904D01*
X7168619Y-30948285D01*
X7263857Y-30900666D01*
X7406714Y-30900666D01*
X7501952Y-30948285D01*
X7549571Y-30995904D01*
X7597190Y-31091142D01*
X7597190Y-31472095D01*
X7073380Y-30567333D02*
X7073380Y-29900666D01*
X8073380Y-30329238D01*
X17572380Y-30806666D02*
X17096190Y-31140000D01*
X17572380Y-31378095D02*
X16572380Y-31378095D01*
X16572380Y-30997142D01*
X16620000Y-30901904D01*
X16667619Y-30854285D01*
X16762857Y-30806666D01*
X16905714Y-30806666D01*
X17000952Y-30854285D01*
X17048571Y-30901904D01*
X17096190Y-30997142D01*
X17096190Y-31378095D01*
X16905714Y-29949523D02*
X17572380Y-29949523D01*
X16524761Y-30187619D02*
X17239047Y-30425714D01*
X17239047Y-29806666D01*
X61462380Y-48546666D02*
X60986190Y-48880000D01*
X61462380Y-49118095D02*
X60462380Y-49118095D01*
X60462380Y-48737142D01*
X60510000Y-48641904D01*
X60557619Y-48594285D01*
X60652857Y-48546666D01*
X60795714Y-48546666D01*
X60890952Y-48594285D01*
X60938571Y-48641904D01*
X60986190Y-48737142D01*
X60986190Y-49118095D01*
X60462380Y-48213333D02*
X60462380Y-47594285D01*
X60843333Y-47927619D01*
X60843333Y-47784761D01*
X60890952Y-47689523D01*
X60938571Y-47641904D01*
X61033809Y-47594285D01*
X61271904Y-47594285D01*
X61367142Y-47641904D01*
X61414761Y-47689523D01*
X61462380Y-47784761D01*
X61462380Y-48070476D01*
X61414761Y-48165714D01*
X61367142Y-48213333D01*
X56092380Y-44896666D02*
X55616190Y-45230000D01*
X56092380Y-45468095D02*
X55092380Y-45468095D01*
X55092380Y-45087142D01*
X55140000Y-44991904D01*
X55187619Y-44944285D01*
X55282857Y-44896666D01*
X55425714Y-44896666D01*
X55520952Y-44944285D01*
X55568571Y-44991904D01*
X55616190Y-45087142D01*
X55616190Y-45468095D01*
X55187619Y-44515714D02*
X55140000Y-44468095D01*
X55092380Y-44372857D01*
X55092380Y-44134761D01*
X55140000Y-44039523D01*
X55187619Y-43991904D01*
X55282857Y-43944285D01*
X55378095Y-43944285D01*
X55520952Y-43991904D01*
X56092380Y-44563333D01*
X56092380Y-43944285D01*
X56132380Y-48878095D02*
X55132380Y-48878095D01*
X55132380Y-48640000D01*
X55180000Y-48497142D01*
X55275238Y-48401904D01*
X55370476Y-48354285D01*
X55560952Y-48306666D01*
X55703809Y-48306666D01*
X55894285Y-48354285D01*
X55989523Y-48401904D01*
X56084761Y-48497142D01*
X56132380Y-48640000D01*
X56132380Y-48878095D01*
X56132380Y-47354285D02*
X56132380Y-47925714D01*
X56132380Y-47640000D02*
X55132380Y-47640000D01*
X55275238Y-47735238D01*
X55370476Y-47830476D01*
X55418095Y-47925714D01*
X7978142Y-27471666D02*
X8025761Y-27519285D01*
X8073380Y-27662142D01*
X8073380Y-27757380D01*
X8025761Y-27900238D01*
X7930523Y-27995476D01*
X7835285Y-28043095D01*
X7644809Y-28090714D01*
X7501952Y-28090714D01*
X7311476Y-28043095D01*
X7216238Y-27995476D01*
X7121000Y-27900238D01*
X7073380Y-27757380D01*
X7073380Y-27662142D01*
X7121000Y-27519285D01*
X7168619Y-27471666D01*
X7406714Y-26614523D02*
X8073380Y-26614523D01*
X7025761Y-26852619D02*
X7740047Y-27090714D01*
X7740047Y-26471666D01*
X10553333Y-25357142D02*
X10505714Y-25404761D01*
X10362857Y-25452380D01*
X10267619Y-25452380D01*
X10124761Y-25404761D01*
X10029523Y-25309523D01*
X9981904Y-25214285D01*
X9934285Y-25023809D01*
X9934285Y-24880952D01*
X9981904Y-24690476D01*
X10029523Y-24595238D01*
X10124761Y-24500000D01*
X10267619Y-24452380D01*
X10362857Y-24452380D01*
X10505714Y-24500000D01*
X10553333Y-24547619D01*
X10886666Y-24452380D02*
X11505714Y-24452380D01*
X11172380Y-24833333D01*
X11315238Y-24833333D01*
X11410476Y-24880952D01*
X11458095Y-24928571D01*
X11505714Y-25023809D01*
X11505714Y-25261904D01*
X11458095Y-25357142D01*
X11410476Y-25404761D01*
X11315238Y-25452380D01*
X11029523Y-25452380D01*
X10934285Y-25404761D01*
X10886666Y-25357142D01*
X13133333Y-25227142D02*
X13085714Y-25274761D01*
X12942857Y-25322380D01*
X12847619Y-25322380D01*
X12704761Y-25274761D01*
X12609523Y-25179523D01*
X12561904Y-25084285D01*
X12514285Y-24893809D01*
X12514285Y-24750952D01*
X12561904Y-24560476D01*
X12609523Y-24465238D01*
X12704761Y-24370000D01*
X12847619Y-24322380D01*
X12942857Y-24322380D01*
X13085714Y-24370000D01*
X13133333Y-24417619D01*
X13514285Y-24417619D02*
X13561904Y-24370000D01*
X13657142Y-24322380D01*
X13895238Y-24322380D01*
X13990476Y-24370000D01*
X14038095Y-24417619D01*
X14085714Y-24512857D01*
X14085714Y-24608095D01*
X14038095Y-24750952D01*
X13466666Y-25322380D01*
X14085714Y-25322380D01*
X15657142Y-24836666D02*
X15704761Y-24884285D01*
X15752380Y-25027142D01*
X15752380Y-25122380D01*
X15704761Y-25265238D01*
X15609523Y-25360476D01*
X15514285Y-25408095D01*
X15323809Y-25455714D01*
X15180952Y-25455714D01*
X14990476Y-25408095D01*
X14895238Y-25360476D01*
X14800000Y-25265238D01*
X14752380Y-25122380D01*
X14752380Y-25027142D01*
X14800000Y-24884285D01*
X14847619Y-24836666D01*
X15752380Y-23884285D02*
X15752380Y-24455714D01*
X15752380Y-24170000D02*
X14752380Y-24170000D01*
X14895238Y-24265238D01*
X14990476Y-24360476D01*
X15038095Y-24455714D01*
X53972141Y-23717379D02*
X53638808Y-23241189D01*
X53400713Y-23717379D02*
X53400713Y-22717379D01*
X53781665Y-22717379D01*
X53876903Y-22764999D01*
X53924522Y-22812618D01*
X53972141Y-22907856D01*
X53972141Y-23050713D01*
X53924522Y-23145951D01*
X53876903Y-23193570D01*
X53781665Y-23241189D01*
X53400713Y-23241189D01*
X54924522Y-23717379D02*
X54353094Y-23717379D01*
X54638808Y-23717379D02*
X54638808Y-22717379D01*
X54543570Y-22860237D01*
X54448332Y-22955475D01*
X54353094Y-23003094D01*
X55876903Y-23717379D02*
X55305475Y-23717379D01*
X55591189Y-23717379D02*
X55591189Y-22717379D01*
X55495951Y-22860237D01*
X55400713Y-22955475D01*
X55305475Y-23003094D01*
X53957142Y-18412380D02*
X53623809Y-17936190D01*
X53385714Y-18412380D02*
X53385714Y-17412380D01*
X53766666Y-17412380D01*
X53861904Y-17460000D01*
X53909523Y-17507619D01*
X53957142Y-17602857D01*
X53957142Y-17745714D01*
X53909523Y-17840952D01*
X53861904Y-17888571D01*
X53766666Y-17936190D01*
X53385714Y-17936190D01*
X54909523Y-18412380D02*
X54338095Y-18412380D01*
X54623809Y-18412380D02*
X54623809Y-17412380D01*
X54528571Y-17555238D01*
X54433333Y-17650476D01*
X54338095Y-17698095D01*
X55290476Y-17507619D02*
X55338095Y-17460000D01*
X55433333Y-17412380D01*
X55671428Y-17412380D01*
X55766666Y-17460000D01*
X55814285Y-17507619D01*
X55861904Y-17602857D01*
X55861904Y-17698095D01*
X55814285Y-17840952D01*
X55242857Y-18412380D01*
X55861904Y-18412380D01*
M02*
