G04 #@! TF.GenerationSoftware,KiCad,Pcbnew,(5.1.4)-1*
G04 #@! TF.CreationDate,2021-11-19T08:14:28-06:00*
G04 #@! TF.ProjectId,RascalHat,52617363-616c-4486-9174-2e6b69636164,rev?*
G04 #@! TF.SameCoordinates,Original*
G04 #@! TF.FileFunction,Soldermask,Bot*
G04 #@! TF.FilePolarity,Negative*
%FSLAX46Y46*%
G04 Gerber Fmt 4.6, Leading zero omitted, Abs format (unit mm)*
G04 Created by KiCad (PCBNEW (5.1.4)-1) date 2021-11-19 08:14:28*
%MOMM*%
%LPD*%
G04 APERTURE LIST*
%ADD10C,0.100000*%
G04 APERTURE END LIST*
D10*
G36*
X56720442Y-53795518D02*
G01*
X56786627Y-53802037D01*
X56956466Y-53853557D01*
X57112991Y-53937222D01*
X57148729Y-53966552D01*
X57250186Y-54049814D01*
X57333448Y-54151271D01*
X57362778Y-54187009D01*
X57362779Y-54187011D01*
X57413775Y-54282416D01*
X57446443Y-54343534D01*
X57497963Y-54513373D01*
X57515359Y-54690000D01*
X57497963Y-54866627D01*
X57446443Y-55036466D01*
X57362778Y-55192991D01*
X57333448Y-55228729D01*
X57250186Y-55330186D01*
X57148729Y-55413448D01*
X57112991Y-55442778D01*
X56956466Y-55526443D01*
X56786627Y-55577963D01*
X56720443Y-55584481D01*
X56654260Y-55591000D01*
X56565740Y-55591000D01*
X56499557Y-55584481D01*
X56433373Y-55577963D01*
X56263534Y-55526443D01*
X56107009Y-55442778D01*
X56071271Y-55413448D01*
X55969814Y-55330186D01*
X55886552Y-55228729D01*
X55857222Y-55192991D01*
X55773557Y-55036466D01*
X55722037Y-54866627D01*
X55704641Y-54690000D01*
X55722037Y-54513373D01*
X55773557Y-54343534D01*
X55806226Y-54282416D01*
X55857221Y-54187011D01*
X55857222Y-54187009D01*
X55886552Y-54151271D01*
X55969814Y-54049814D01*
X56071271Y-53966552D01*
X56107009Y-53937222D01*
X56263534Y-53853557D01*
X56433373Y-53802037D01*
X56499558Y-53795518D01*
X56565740Y-53789000D01*
X56654260Y-53789000D01*
X56720442Y-53795518D01*
X56720442Y-53795518D01*
G37*
G36*
X28780442Y-53795518D02*
G01*
X28846627Y-53802037D01*
X29016466Y-53853557D01*
X29172991Y-53937222D01*
X29208729Y-53966552D01*
X29310186Y-54049814D01*
X29393448Y-54151271D01*
X29422778Y-54187009D01*
X29422779Y-54187011D01*
X29473775Y-54282416D01*
X29506443Y-54343534D01*
X29557963Y-54513373D01*
X29575359Y-54690000D01*
X29557963Y-54866627D01*
X29506443Y-55036466D01*
X29422778Y-55192991D01*
X29393448Y-55228729D01*
X29310186Y-55330186D01*
X29208729Y-55413448D01*
X29172991Y-55442778D01*
X29016466Y-55526443D01*
X28846627Y-55577963D01*
X28780443Y-55584481D01*
X28714260Y-55591000D01*
X28625740Y-55591000D01*
X28559557Y-55584481D01*
X28493373Y-55577963D01*
X28323534Y-55526443D01*
X28167009Y-55442778D01*
X28131271Y-55413448D01*
X28029814Y-55330186D01*
X27946552Y-55228729D01*
X27917222Y-55192991D01*
X27833557Y-55036466D01*
X27782037Y-54866627D01*
X27764641Y-54690000D01*
X27782037Y-54513373D01*
X27833557Y-54343534D01*
X27866226Y-54282416D01*
X27917221Y-54187011D01*
X27917222Y-54187009D01*
X27946552Y-54151271D01*
X28029814Y-54049814D01*
X28131271Y-53966552D01*
X28167009Y-53937222D01*
X28323534Y-53853557D01*
X28493373Y-53802037D01*
X28559558Y-53795518D01*
X28625740Y-53789000D01*
X28714260Y-53789000D01*
X28780442Y-53795518D01*
X28780442Y-53795518D01*
G37*
G36*
X8460442Y-53795518D02*
G01*
X8526627Y-53802037D01*
X8696466Y-53853557D01*
X8852991Y-53937222D01*
X8888729Y-53966552D01*
X8990186Y-54049814D01*
X9073448Y-54151271D01*
X9102778Y-54187009D01*
X9102779Y-54187011D01*
X9153775Y-54282416D01*
X9186443Y-54343534D01*
X9237963Y-54513373D01*
X9255359Y-54690000D01*
X9237963Y-54866627D01*
X9186443Y-55036466D01*
X9102778Y-55192991D01*
X9073448Y-55228729D01*
X8990186Y-55330186D01*
X8888729Y-55413448D01*
X8852991Y-55442778D01*
X8696466Y-55526443D01*
X8526627Y-55577963D01*
X8460443Y-55584481D01*
X8394260Y-55591000D01*
X8305740Y-55591000D01*
X8239557Y-55584481D01*
X8173373Y-55577963D01*
X8003534Y-55526443D01*
X7847009Y-55442778D01*
X7811271Y-55413448D01*
X7709814Y-55330186D01*
X7626552Y-55228729D01*
X7597222Y-55192991D01*
X7513557Y-55036466D01*
X7462037Y-54866627D01*
X7444641Y-54690000D01*
X7462037Y-54513373D01*
X7513557Y-54343534D01*
X7546226Y-54282416D01*
X7597221Y-54187011D01*
X7597222Y-54187009D01*
X7626552Y-54151271D01*
X7709814Y-54049814D01*
X7811271Y-53966552D01*
X7847009Y-53937222D01*
X8003534Y-53853557D01*
X8173373Y-53802037D01*
X8239558Y-53795518D01*
X8305740Y-53789000D01*
X8394260Y-53789000D01*
X8460442Y-53795518D01*
X8460442Y-53795518D01*
G37*
G36*
X11000442Y-53795518D02*
G01*
X11066627Y-53802037D01*
X11236466Y-53853557D01*
X11392991Y-53937222D01*
X11428729Y-53966552D01*
X11530186Y-54049814D01*
X11613448Y-54151271D01*
X11642778Y-54187009D01*
X11642779Y-54187011D01*
X11693775Y-54282416D01*
X11726443Y-54343534D01*
X11777963Y-54513373D01*
X11795359Y-54690000D01*
X11777963Y-54866627D01*
X11726443Y-55036466D01*
X11642778Y-55192991D01*
X11613448Y-55228729D01*
X11530186Y-55330186D01*
X11428729Y-55413448D01*
X11392991Y-55442778D01*
X11236466Y-55526443D01*
X11066627Y-55577963D01*
X11000443Y-55584481D01*
X10934260Y-55591000D01*
X10845740Y-55591000D01*
X10779557Y-55584481D01*
X10713373Y-55577963D01*
X10543534Y-55526443D01*
X10387009Y-55442778D01*
X10351271Y-55413448D01*
X10249814Y-55330186D01*
X10166552Y-55228729D01*
X10137222Y-55192991D01*
X10053557Y-55036466D01*
X10002037Y-54866627D01*
X9984641Y-54690000D01*
X10002037Y-54513373D01*
X10053557Y-54343534D01*
X10086226Y-54282416D01*
X10137221Y-54187011D01*
X10137222Y-54187009D01*
X10166552Y-54151271D01*
X10249814Y-54049814D01*
X10351271Y-53966552D01*
X10387009Y-53937222D01*
X10543534Y-53853557D01*
X10713373Y-53802037D01*
X10779558Y-53795518D01*
X10845740Y-53789000D01*
X10934260Y-53789000D01*
X11000442Y-53795518D01*
X11000442Y-53795518D01*
G37*
G36*
X13540442Y-53795518D02*
G01*
X13606627Y-53802037D01*
X13776466Y-53853557D01*
X13932991Y-53937222D01*
X13968729Y-53966552D01*
X14070186Y-54049814D01*
X14153448Y-54151271D01*
X14182778Y-54187009D01*
X14182779Y-54187011D01*
X14233775Y-54282416D01*
X14266443Y-54343534D01*
X14317963Y-54513373D01*
X14335359Y-54690000D01*
X14317963Y-54866627D01*
X14266443Y-55036466D01*
X14182778Y-55192991D01*
X14153448Y-55228729D01*
X14070186Y-55330186D01*
X13968729Y-55413448D01*
X13932991Y-55442778D01*
X13776466Y-55526443D01*
X13606627Y-55577963D01*
X13540443Y-55584481D01*
X13474260Y-55591000D01*
X13385740Y-55591000D01*
X13319557Y-55584481D01*
X13253373Y-55577963D01*
X13083534Y-55526443D01*
X12927009Y-55442778D01*
X12891271Y-55413448D01*
X12789814Y-55330186D01*
X12706552Y-55228729D01*
X12677222Y-55192991D01*
X12593557Y-55036466D01*
X12542037Y-54866627D01*
X12524641Y-54690000D01*
X12542037Y-54513373D01*
X12593557Y-54343534D01*
X12626226Y-54282416D01*
X12677221Y-54187011D01*
X12677222Y-54187009D01*
X12706552Y-54151271D01*
X12789814Y-54049814D01*
X12891271Y-53966552D01*
X12927009Y-53937222D01*
X13083534Y-53853557D01*
X13253373Y-53802037D01*
X13319558Y-53795518D01*
X13385740Y-53789000D01*
X13474260Y-53789000D01*
X13540442Y-53795518D01*
X13540442Y-53795518D01*
G37*
G36*
X16080442Y-53795518D02*
G01*
X16146627Y-53802037D01*
X16316466Y-53853557D01*
X16472991Y-53937222D01*
X16508729Y-53966552D01*
X16610186Y-54049814D01*
X16693448Y-54151271D01*
X16722778Y-54187009D01*
X16722779Y-54187011D01*
X16773775Y-54282416D01*
X16806443Y-54343534D01*
X16857963Y-54513373D01*
X16875359Y-54690000D01*
X16857963Y-54866627D01*
X16806443Y-55036466D01*
X16722778Y-55192991D01*
X16693448Y-55228729D01*
X16610186Y-55330186D01*
X16508729Y-55413448D01*
X16472991Y-55442778D01*
X16316466Y-55526443D01*
X16146627Y-55577963D01*
X16080443Y-55584481D01*
X16014260Y-55591000D01*
X15925740Y-55591000D01*
X15859557Y-55584481D01*
X15793373Y-55577963D01*
X15623534Y-55526443D01*
X15467009Y-55442778D01*
X15431271Y-55413448D01*
X15329814Y-55330186D01*
X15246552Y-55228729D01*
X15217222Y-55192991D01*
X15133557Y-55036466D01*
X15082037Y-54866627D01*
X15064641Y-54690000D01*
X15082037Y-54513373D01*
X15133557Y-54343534D01*
X15166226Y-54282416D01*
X15217221Y-54187011D01*
X15217222Y-54187009D01*
X15246552Y-54151271D01*
X15329814Y-54049814D01*
X15431271Y-53966552D01*
X15467009Y-53937222D01*
X15623534Y-53853557D01*
X15793373Y-53802037D01*
X15859558Y-53795518D01*
X15925740Y-53789000D01*
X16014260Y-53789000D01*
X16080442Y-53795518D01*
X16080442Y-53795518D01*
G37*
G36*
X18620442Y-53795518D02*
G01*
X18686627Y-53802037D01*
X18856466Y-53853557D01*
X19012991Y-53937222D01*
X19048729Y-53966552D01*
X19150186Y-54049814D01*
X19233448Y-54151271D01*
X19262778Y-54187009D01*
X19262779Y-54187011D01*
X19313775Y-54282416D01*
X19346443Y-54343534D01*
X19397963Y-54513373D01*
X19415359Y-54690000D01*
X19397963Y-54866627D01*
X19346443Y-55036466D01*
X19262778Y-55192991D01*
X19233448Y-55228729D01*
X19150186Y-55330186D01*
X19048729Y-55413448D01*
X19012991Y-55442778D01*
X18856466Y-55526443D01*
X18686627Y-55577963D01*
X18620443Y-55584481D01*
X18554260Y-55591000D01*
X18465740Y-55591000D01*
X18399557Y-55584481D01*
X18333373Y-55577963D01*
X18163534Y-55526443D01*
X18007009Y-55442778D01*
X17971271Y-55413448D01*
X17869814Y-55330186D01*
X17786552Y-55228729D01*
X17757222Y-55192991D01*
X17673557Y-55036466D01*
X17622037Y-54866627D01*
X17604641Y-54690000D01*
X17622037Y-54513373D01*
X17673557Y-54343534D01*
X17706226Y-54282416D01*
X17757221Y-54187011D01*
X17757222Y-54187009D01*
X17786552Y-54151271D01*
X17869814Y-54049814D01*
X17971271Y-53966552D01*
X18007009Y-53937222D01*
X18163534Y-53853557D01*
X18333373Y-53802037D01*
X18399558Y-53795518D01*
X18465740Y-53789000D01*
X18554260Y-53789000D01*
X18620442Y-53795518D01*
X18620442Y-53795518D01*
G37*
G36*
X21160442Y-53795518D02*
G01*
X21226627Y-53802037D01*
X21396466Y-53853557D01*
X21552991Y-53937222D01*
X21588729Y-53966552D01*
X21690186Y-54049814D01*
X21773448Y-54151271D01*
X21802778Y-54187009D01*
X21802779Y-54187011D01*
X21853775Y-54282416D01*
X21886443Y-54343534D01*
X21937963Y-54513373D01*
X21955359Y-54690000D01*
X21937963Y-54866627D01*
X21886443Y-55036466D01*
X21802778Y-55192991D01*
X21773448Y-55228729D01*
X21690186Y-55330186D01*
X21588729Y-55413448D01*
X21552991Y-55442778D01*
X21396466Y-55526443D01*
X21226627Y-55577963D01*
X21160443Y-55584481D01*
X21094260Y-55591000D01*
X21005740Y-55591000D01*
X20939557Y-55584481D01*
X20873373Y-55577963D01*
X20703534Y-55526443D01*
X20547009Y-55442778D01*
X20511271Y-55413448D01*
X20409814Y-55330186D01*
X20326552Y-55228729D01*
X20297222Y-55192991D01*
X20213557Y-55036466D01*
X20162037Y-54866627D01*
X20144641Y-54690000D01*
X20162037Y-54513373D01*
X20213557Y-54343534D01*
X20246226Y-54282416D01*
X20297221Y-54187011D01*
X20297222Y-54187009D01*
X20326552Y-54151271D01*
X20409814Y-54049814D01*
X20511271Y-53966552D01*
X20547009Y-53937222D01*
X20703534Y-53853557D01*
X20873373Y-53802037D01*
X20939558Y-53795518D01*
X21005740Y-53789000D01*
X21094260Y-53789000D01*
X21160442Y-53795518D01*
X21160442Y-53795518D01*
G37*
G36*
X23700442Y-53795518D02*
G01*
X23766627Y-53802037D01*
X23936466Y-53853557D01*
X24092991Y-53937222D01*
X24128729Y-53966552D01*
X24230186Y-54049814D01*
X24313448Y-54151271D01*
X24342778Y-54187009D01*
X24342779Y-54187011D01*
X24393775Y-54282416D01*
X24426443Y-54343534D01*
X24477963Y-54513373D01*
X24495359Y-54690000D01*
X24477963Y-54866627D01*
X24426443Y-55036466D01*
X24342778Y-55192991D01*
X24313448Y-55228729D01*
X24230186Y-55330186D01*
X24128729Y-55413448D01*
X24092991Y-55442778D01*
X23936466Y-55526443D01*
X23766627Y-55577963D01*
X23700443Y-55584481D01*
X23634260Y-55591000D01*
X23545740Y-55591000D01*
X23479557Y-55584481D01*
X23413373Y-55577963D01*
X23243534Y-55526443D01*
X23087009Y-55442778D01*
X23051271Y-55413448D01*
X22949814Y-55330186D01*
X22866552Y-55228729D01*
X22837222Y-55192991D01*
X22753557Y-55036466D01*
X22702037Y-54866627D01*
X22684641Y-54690000D01*
X22702037Y-54513373D01*
X22753557Y-54343534D01*
X22786226Y-54282416D01*
X22837221Y-54187011D01*
X22837222Y-54187009D01*
X22866552Y-54151271D01*
X22949814Y-54049814D01*
X23051271Y-53966552D01*
X23087009Y-53937222D01*
X23243534Y-53853557D01*
X23413373Y-53802037D01*
X23479558Y-53795518D01*
X23545740Y-53789000D01*
X23634260Y-53789000D01*
X23700442Y-53795518D01*
X23700442Y-53795518D01*
G37*
G36*
X26240442Y-53795518D02*
G01*
X26306627Y-53802037D01*
X26476466Y-53853557D01*
X26632991Y-53937222D01*
X26668729Y-53966552D01*
X26770186Y-54049814D01*
X26853448Y-54151271D01*
X26882778Y-54187009D01*
X26882779Y-54187011D01*
X26933775Y-54282416D01*
X26966443Y-54343534D01*
X27017963Y-54513373D01*
X27035359Y-54690000D01*
X27017963Y-54866627D01*
X26966443Y-55036466D01*
X26882778Y-55192991D01*
X26853448Y-55228729D01*
X26770186Y-55330186D01*
X26668729Y-55413448D01*
X26632991Y-55442778D01*
X26476466Y-55526443D01*
X26306627Y-55577963D01*
X26240443Y-55584481D01*
X26174260Y-55591000D01*
X26085740Y-55591000D01*
X26019557Y-55584481D01*
X25953373Y-55577963D01*
X25783534Y-55526443D01*
X25627009Y-55442778D01*
X25591271Y-55413448D01*
X25489814Y-55330186D01*
X25406552Y-55228729D01*
X25377222Y-55192991D01*
X25293557Y-55036466D01*
X25242037Y-54866627D01*
X25224641Y-54690000D01*
X25242037Y-54513373D01*
X25293557Y-54343534D01*
X25326226Y-54282416D01*
X25377221Y-54187011D01*
X25377222Y-54187009D01*
X25406552Y-54151271D01*
X25489814Y-54049814D01*
X25591271Y-53966552D01*
X25627009Y-53937222D01*
X25783534Y-53853557D01*
X25953373Y-53802037D01*
X26019558Y-53795518D01*
X26085740Y-53789000D01*
X26174260Y-53789000D01*
X26240442Y-53795518D01*
X26240442Y-53795518D01*
G37*
G36*
X46560442Y-53795518D02*
G01*
X46626627Y-53802037D01*
X46796466Y-53853557D01*
X46952991Y-53937222D01*
X46988729Y-53966552D01*
X47090186Y-54049814D01*
X47173448Y-54151271D01*
X47202778Y-54187009D01*
X47202779Y-54187011D01*
X47253775Y-54282416D01*
X47286443Y-54343534D01*
X47337963Y-54513373D01*
X47355359Y-54690000D01*
X47337963Y-54866627D01*
X47286443Y-55036466D01*
X47202778Y-55192991D01*
X47173448Y-55228729D01*
X47090186Y-55330186D01*
X46988729Y-55413448D01*
X46952991Y-55442778D01*
X46796466Y-55526443D01*
X46626627Y-55577963D01*
X46560443Y-55584481D01*
X46494260Y-55591000D01*
X46405740Y-55591000D01*
X46339557Y-55584481D01*
X46273373Y-55577963D01*
X46103534Y-55526443D01*
X45947009Y-55442778D01*
X45911271Y-55413448D01*
X45809814Y-55330186D01*
X45726552Y-55228729D01*
X45697222Y-55192991D01*
X45613557Y-55036466D01*
X45562037Y-54866627D01*
X45544641Y-54690000D01*
X45562037Y-54513373D01*
X45613557Y-54343534D01*
X45646226Y-54282416D01*
X45697221Y-54187011D01*
X45697222Y-54187009D01*
X45726552Y-54151271D01*
X45809814Y-54049814D01*
X45911271Y-53966552D01*
X45947009Y-53937222D01*
X46103534Y-53853557D01*
X46273373Y-53802037D01*
X46339558Y-53795518D01*
X46405740Y-53789000D01*
X46494260Y-53789000D01*
X46560442Y-53795518D01*
X46560442Y-53795518D01*
G37*
G36*
X33860442Y-53795518D02*
G01*
X33926627Y-53802037D01*
X34096466Y-53853557D01*
X34252991Y-53937222D01*
X34288729Y-53966552D01*
X34390186Y-54049814D01*
X34473448Y-54151271D01*
X34502778Y-54187009D01*
X34502779Y-54187011D01*
X34553775Y-54282416D01*
X34586443Y-54343534D01*
X34637963Y-54513373D01*
X34655359Y-54690000D01*
X34637963Y-54866627D01*
X34586443Y-55036466D01*
X34502778Y-55192991D01*
X34473448Y-55228729D01*
X34390186Y-55330186D01*
X34288729Y-55413448D01*
X34252991Y-55442778D01*
X34096466Y-55526443D01*
X33926627Y-55577963D01*
X33860443Y-55584481D01*
X33794260Y-55591000D01*
X33705740Y-55591000D01*
X33639557Y-55584481D01*
X33573373Y-55577963D01*
X33403534Y-55526443D01*
X33247009Y-55442778D01*
X33211271Y-55413448D01*
X33109814Y-55330186D01*
X33026552Y-55228729D01*
X32997222Y-55192991D01*
X32913557Y-55036466D01*
X32862037Y-54866627D01*
X32844641Y-54690000D01*
X32862037Y-54513373D01*
X32913557Y-54343534D01*
X32946226Y-54282416D01*
X32997221Y-54187011D01*
X32997222Y-54187009D01*
X33026552Y-54151271D01*
X33109814Y-54049814D01*
X33211271Y-53966552D01*
X33247009Y-53937222D01*
X33403534Y-53853557D01*
X33573373Y-53802037D01*
X33639558Y-53795518D01*
X33705740Y-53789000D01*
X33794260Y-53789000D01*
X33860442Y-53795518D01*
X33860442Y-53795518D01*
G37*
G36*
X31320442Y-53795518D02*
G01*
X31386627Y-53802037D01*
X31556466Y-53853557D01*
X31712991Y-53937222D01*
X31748729Y-53966552D01*
X31850186Y-54049814D01*
X31933448Y-54151271D01*
X31962778Y-54187009D01*
X31962779Y-54187011D01*
X32013775Y-54282416D01*
X32046443Y-54343534D01*
X32097963Y-54513373D01*
X32115359Y-54690000D01*
X32097963Y-54866627D01*
X32046443Y-55036466D01*
X31962778Y-55192991D01*
X31933448Y-55228729D01*
X31850186Y-55330186D01*
X31748729Y-55413448D01*
X31712991Y-55442778D01*
X31556466Y-55526443D01*
X31386627Y-55577963D01*
X31320443Y-55584481D01*
X31254260Y-55591000D01*
X31165740Y-55591000D01*
X31099557Y-55584481D01*
X31033373Y-55577963D01*
X30863534Y-55526443D01*
X30707009Y-55442778D01*
X30671271Y-55413448D01*
X30569814Y-55330186D01*
X30486552Y-55228729D01*
X30457222Y-55192991D01*
X30373557Y-55036466D01*
X30322037Y-54866627D01*
X30304641Y-54690000D01*
X30322037Y-54513373D01*
X30373557Y-54343534D01*
X30406226Y-54282416D01*
X30457221Y-54187011D01*
X30457222Y-54187009D01*
X30486552Y-54151271D01*
X30569814Y-54049814D01*
X30671271Y-53966552D01*
X30707009Y-53937222D01*
X30863534Y-53853557D01*
X31033373Y-53802037D01*
X31099558Y-53795518D01*
X31165740Y-53789000D01*
X31254260Y-53789000D01*
X31320442Y-53795518D01*
X31320442Y-53795518D01*
G37*
G36*
X54180442Y-53795518D02*
G01*
X54246627Y-53802037D01*
X54416466Y-53853557D01*
X54572991Y-53937222D01*
X54608729Y-53966552D01*
X54710186Y-54049814D01*
X54793448Y-54151271D01*
X54822778Y-54187009D01*
X54822779Y-54187011D01*
X54873775Y-54282416D01*
X54906443Y-54343534D01*
X54957963Y-54513373D01*
X54975359Y-54690000D01*
X54957963Y-54866627D01*
X54906443Y-55036466D01*
X54822778Y-55192991D01*
X54793448Y-55228729D01*
X54710186Y-55330186D01*
X54608729Y-55413448D01*
X54572991Y-55442778D01*
X54416466Y-55526443D01*
X54246627Y-55577963D01*
X54180443Y-55584481D01*
X54114260Y-55591000D01*
X54025740Y-55591000D01*
X53959557Y-55584481D01*
X53893373Y-55577963D01*
X53723534Y-55526443D01*
X53567009Y-55442778D01*
X53531271Y-55413448D01*
X53429814Y-55330186D01*
X53346552Y-55228729D01*
X53317222Y-55192991D01*
X53233557Y-55036466D01*
X53182037Y-54866627D01*
X53164641Y-54690000D01*
X53182037Y-54513373D01*
X53233557Y-54343534D01*
X53266226Y-54282416D01*
X53317221Y-54187011D01*
X53317222Y-54187009D01*
X53346552Y-54151271D01*
X53429814Y-54049814D01*
X53531271Y-53966552D01*
X53567009Y-53937222D01*
X53723534Y-53853557D01*
X53893373Y-53802037D01*
X53959558Y-53795518D01*
X54025740Y-53789000D01*
X54114260Y-53789000D01*
X54180442Y-53795518D01*
X54180442Y-53795518D01*
G37*
G36*
X51640442Y-53795518D02*
G01*
X51706627Y-53802037D01*
X51876466Y-53853557D01*
X52032991Y-53937222D01*
X52068729Y-53966552D01*
X52170186Y-54049814D01*
X52253448Y-54151271D01*
X52282778Y-54187009D01*
X52282779Y-54187011D01*
X52333775Y-54282416D01*
X52366443Y-54343534D01*
X52417963Y-54513373D01*
X52435359Y-54690000D01*
X52417963Y-54866627D01*
X52366443Y-55036466D01*
X52282778Y-55192991D01*
X52253448Y-55228729D01*
X52170186Y-55330186D01*
X52068729Y-55413448D01*
X52032991Y-55442778D01*
X51876466Y-55526443D01*
X51706627Y-55577963D01*
X51640443Y-55584481D01*
X51574260Y-55591000D01*
X51485740Y-55591000D01*
X51419557Y-55584481D01*
X51353373Y-55577963D01*
X51183534Y-55526443D01*
X51027009Y-55442778D01*
X50991271Y-55413448D01*
X50889814Y-55330186D01*
X50806552Y-55228729D01*
X50777222Y-55192991D01*
X50693557Y-55036466D01*
X50642037Y-54866627D01*
X50624641Y-54690000D01*
X50642037Y-54513373D01*
X50693557Y-54343534D01*
X50726226Y-54282416D01*
X50777221Y-54187011D01*
X50777222Y-54187009D01*
X50806552Y-54151271D01*
X50889814Y-54049814D01*
X50991271Y-53966552D01*
X51027009Y-53937222D01*
X51183534Y-53853557D01*
X51353373Y-53802037D01*
X51419558Y-53795518D01*
X51485740Y-53789000D01*
X51574260Y-53789000D01*
X51640442Y-53795518D01*
X51640442Y-53795518D01*
G37*
G36*
X49100442Y-53795518D02*
G01*
X49166627Y-53802037D01*
X49336466Y-53853557D01*
X49492991Y-53937222D01*
X49528729Y-53966552D01*
X49630186Y-54049814D01*
X49713448Y-54151271D01*
X49742778Y-54187009D01*
X49742779Y-54187011D01*
X49793775Y-54282416D01*
X49826443Y-54343534D01*
X49877963Y-54513373D01*
X49895359Y-54690000D01*
X49877963Y-54866627D01*
X49826443Y-55036466D01*
X49742778Y-55192991D01*
X49713448Y-55228729D01*
X49630186Y-55330186D01*
X49528729Y-55413448D01*
X49492991Y-55442778D01*
X49336466Y-55526443D01*
X49166627Y-55577963D01*
X49100443Y-55584481D01*
X49034260Y-55591000D01*
X48945740Y-55591000D01*
X48879557Y-55584481D01*
X48813373Y-55577963D01*
X48643534Y-55526443D01*
X48487009Y-55442778D01*
X48451271Y-55413448D01*
X48349814Y-55330186D01*
X48266552Y-55228729D01*
X48237222Y-55192991D01*
X48153557Y-55036466D01*
X48102037Y-54866627D01*
X48084641Y-54690000D01*
X48102037Y-54513373D01*
X48153557Y-54343534D01*
X48186226Y-54282416D01*
X48237221Y-54187011D01*
X48237222Y-54187009D01*
X48266552Y-54151271D01*
X48349814Y-54049814D01*
X48451271Y-53966552D01*
X48487009Y-53937222D01*
X48643534Y-53853557D01*
X48813373Y-53802037D01*
X48879558Y-53795518D01*
X48945740Y-53789000D01*
X49034260Y-53789000D01*
X49100442Y-53795518D01*
X49100442Y-53795518D01*
G37*
G36*
X41480442Y-53795518D02*
G01*
X41546627Y-53802037D01*
X41716466Y-53853557D01*
X41872991Y-53937222D01*
X41908729Y-53966552D01*
X42010186Y-54049814D01*
X42093448Y-54151271D01*
X42122778Y-54187009D01*
X42122779Y-54187011D01*
X42173775Y-54282416D01*
X42206443Y-54343534D01*
X42257963Y-54513373D01*
X42275359Y-54690000D01*
X42257963Y-54866627D01*
X42206443Y-55036466D01*
X42122778Y-55192991D01*
X42093448Y-55228729D01*
X42010186Y-55330186D01*
X41908729Y-55413448D01*
X41872991Y-55442778D01*
X41716466Y-55526443D01*
X41546627Y-55577963D01*
X41480443Y-55584481D01*
X41414260Y-55591000D01*
X41325740Y-55591000D01*
X41259557Y-55584481D01*
X41193373Y-55577963D01*
X41023534Y-55526443D01*
X40867009Y-55442778D01*
X40831271Y-55413448D01*
X40729814Y-55330186D01*
X40646552Y-55228729D01*
X40617222Y-55192991D01*
X40533557Y-55036466D01*
X40482037Y-54866627D01*
X40464641Y-54690000D01*
X40482037Y-54513373D01*
X40533557Y-54343534D01*
X40566226Y-54282416D01*
X40617221Y-54187011D01*
X40617222Y-54187009D01*
X40646552Y-54151271D01*
X40729814Y-54049814D01*
X40831271Y-53966552D01*
X40867009Y-53937222D01*
X41023534Y-53853557D01*
X41193373Y-53802037D01*
X41259558Y-53795518D01*
X41325740Y-53789000D01*
X41414260Y-53789000D01*
X41480442Y-53795518D01*
X41480442Y-53795518D01*
G37*
G36*
X38940442Y-53795518D02*
G01*
X39006627Y-53802037D01*
X39176466Y-53853557D01*
X39332991Y-53937222D01*
X39368729Y-53966552D01*
X39470186Y-54049814D01*
X39553448Y-54151271D01*
X39582778Y-54187009D01*
X39582779Y-54187011D01*
X39633775Y-54282416D01*
X39666443Y-54343534D01*
X39717963Y-54513373D01*
X39735359Y-54690000D01*
X39717963Y-54866627D01*
X39666443Y-55036466D01*
X39582778Y-55192991D01*
X39553448Y-55228729D01*
X39470186Y-55330186D01*
X39368729Y-55413448D01*
X39332991Y-55442778D01*
X39176466Y-55526443D01*
X39006627Y-55577963D01*
X38940443Y-55584481D01*
X38874260Y-55591000D01*
X38785740Y-55591000D01*
X38719557Y-55584481D01*
X38653373Y-55577963D01*
X38483534Y-55526443D01*
X38327009Y-55442778D01*
X38291271Y-55413448D01*
X38189814Y-55330186D01*
X38106552Y-55228729D01*
X38077222Y-55192991D01*
X37993557Y-55036466D01*
X37942037Y-54866627D01*
X37924641Y-54690000D01*
X37942037Y-54513373D01*
X37993557Y-54343534D01*
X38026226Y-54282416D01*
X38077221Y-54187011D01*
X38077222Y-54187009D01*
X38106552Y-54151271D01*
X38189814Y-54049814D01*
X38291271Y-53966552D01*
X38327009Y-53937222D01*
X38483534Y-53853557D01*
X38653373Y-53802037D01*
X38719558Y-53795518D01*
X38785740Y-53789000D01*
X38874260Y-53789000D01*
X38940442Y-53795518D01*
X38940442Y-53795518D01*
G37*
G36*
X36400442Y-53795518D02*
G01*
X36466627Y-53802037D01*
X36636466Y-53853557D01*
X36792991Y-53937222D01*
X36828729Y-53966552D01*
X36930186Y-54049814D01*
X37013448Y-54151271D01*
X37042778Y-54187009D01*
X37042779Y-54187011D01*
X37093775Y-54282416D01*
X37126443Y-54343534D01*
X37177963Y-54513373D01*
X37195359Y-54690000D01*
X37177963Y-54866627D01*
X37126443Y-55036466D01*
X37042778Y-55192991D01*
X37013448Y-55228729D01*
X36930186Y-55330186D01*
X36828729Y-55413448D01*
X36792991Y-55442778D01*
X36636466Y-55526443D01*
X36466627Y-55577963D01*
X36400443Y-55584481D01*
X36334260Y-55591000D01*
X36245740Y-55591000D01*
X36179557Y-55584481D01*
X36113373Y-55577963D01*
X35943534Y-55526443D01*
X35787009Y-55442778D01*
X35751271Y-55413448D01*
X35649814Y-55330186D01*
X35566552Y-55228729D01*
X35537222Y-55192991D01*
X35453557Y-55036466D01*
X35402037Y-54866627D01*
X35384641Y-54690000D01*
X35402037Y-54513373D01*
X35453557Y-54343534D01*
X35486226Y-54282416D01*
X35537221Y-54187011D01*
X35537222Y-54187009D01*
X35566552Y-54151271D01*
X35649814Y-54049814D01*
X35751271Y-53966552D01*
X35787009Y-53937222D01*
X35943534Y-53853557D01*
X36113373Y-53802037D01*
X36179558Y-53795518D01*
X36245740Y-53789000D01*
X36334260Y-53789000D01*
X36400442Y-53795518D01*
X36400442Y-53795518D01*
G37*
G36*
X44020442Y-53795518D02*
G01*
X44086627Y-53802037D01*
X44256466Y-53853557D01*
X44412991Y-53937222D01*
X44448729Y-53966552D01*
X44550186Y-54049814D01*
X44633448Y-54151271D01*
X44662778Y-54187009D01*
X44662779Y-54187011D01*
X44713775Y-54282416D01*
X44746443Y-54343534D01*
X44797963Y-54513373D01*
X44815359Y-54690000D01*
X44797963Y-54866627D01*
X44746443Y-55036466D01*
X44662778Y-55192991D01*
X44633448Y-55228729D01*
X44550186Y-55330186D01*
X44448729Y-55413448D01*
X44412991Y-55442778D01*
X44256466Y-55526443D01*
X44086627Y-55577963D01*
X44020443Y-55584481D01*
X43954260Y-55591000D01*
X43865740Y-55591000D01*
X43799557Y-55584481D01*
X43733373Y-55577963D01*
X43563534Y-55526443D01*
X43407009Y-55442778D01*
X43371271Y-55413448D01*
X43269814Y-55330186D01*
X43186552Y-55228729D01*
X43157222Y-55192991D01*
X43073557Y-55036466D01*
X43022037Y-54866627D01*
X43004641Y-54690000D01*
X43022037Y-54513373D01*
X43073557Y-54343534D01*
X43106226Y-54282416D01*
X43157221Y-54187011D01*
X43157222Y-54187009D01*
X43186552Y-54151271D01*
X43269814Y-54049814D01*
X43371271Y-53966552D01*
X43407009Y-53937222D01*
X43563534Y-53853557D01*
X43733373Y-53802037D01*
X43799558Y-53795518D01*
X43865740Y-53789000D01*
X43954260Y-53789000D01*
X44020442Y-53795518D01*
X44020442Y-53795518D01*
G37*
G36*
X62375256Y-51391298D02*
G01*
X62481579Y-51412447D01*
X62694037Y-51500450D01*
X62716644Y-51509814D01*
X62782042Y-51536903D01*
X63052451Y-51717585D01*
X63282415Y-51947549D01*
X63463097Y-52217958D01*
X63578460Y-52496468D01*
X63587553Y-52518422D01*
X63641611Y-52790186D01*
X63651000Y-52837391D01*
X63651000Y-53162609D01*
X63587553Y-53481579D01*
X63463097Y-53782042D01*
X63282415Y-54052451D01*
X63052451Y-54282415D01*
X62782042Y-54463097D01*
X62481579Y-54587553D01*
X62375256Y-54608702D01*
X62162611Y-54651000D01*
X61837389Y-54651000D01*
X61624744Y-54608702D01*
X61518421Y-54587553D01*
X61217958Y-54463097D01*
X60947549Y-54282415D01*
X60717585Y-54052451D01*
X60536903Y-53782042D01*
X60412447Y-53481579D01*
X60349000Y-53162609D01*
X60349000Y-52837391D01*
X60358390Y-52790186D01*
X60412447Y-52518422D01*
X60421541Y-52496468D01*
X60536903Y-52217958D01*
X60717585Y-51947549D01*
X60947549Y-51717585D01*
X61217958Y-51536903D01*
X61283357Y-51509814D01*
X61305963Y-51500450D01*
X61518421Y-51412447D01*
X61624744Y-51391298D01*
X61837389Y-51349000D01*
X62162611Y-51349000D01*
X62375256Y-51391298D01*
X62375256Y-51391298D01*
G37*
G36*
X3375256Y-51391298D02*
G01*
X3481579Y-51412447D01*
X3694037Y-51500450D01*
X3716644Y-51509814D01*
X3782042Y-51536903D01*
X4052451Y-51717585D01*
X4282415Y-51947549D01*
X4463097Y-52217958D01*
X4578460Y-52496468D01*
X4587553Y-52518422D01*
X4641611Y-52790186D01*
X4651000Y-52837391D01*
X4651000Y-53162609D01*
X4587553Y-53481579D01*
X4463097Y-53782042D01*
X4282415Y-54052451D01*
X4052451Y-54282415D01*
X3782042Y-54463097D01*
X3481579Y-54587553D01*
X3375256Y-54608702D01*
X3162611Y-54651000D01*
X2837389Y-54651000D01*
X2624744Y-54608702D01*
X2518421Y-54587553D01*
X2217958Y-54463097D01*
X1947549Y-54282415D01*
X1717585Y-54052451D01*
X1536903Y-53782042D01*
X1412447Y-53481579D01*
X1349000Y-53162609D01*
X1349000Y-52837391D01*
X1358390Y-52790186D01*
X1412447Y-52518422D01*
X1421541Y-52496468D01*
X1536903Y-52217958D01*
X1717585Y-51947549D01*
X1947549Y-51717585D01*
X2217958Y-51536903D01*
X2283357Y-51509814D01*
X2305963Y-51500450D01*
X2518421Y-51412447D01*
X2624744Y-51391298D01*
X2837389Y-51349000D01*
X3162611Y-51349000D01*
X3375256Y-51391298D01*
X3375256Y-51391298D01*
G37*
G36*
X49100443Y-51255519D02*
G01*
X49166627Y-51262037D01*
X49336466Y-51313557D01*
X49492991Y-51397222D01*
X49528729Y-51426552D01*
X49630186Y-51509814D01*
X49713448Y-51611271D01*
X49742778Y-51647009D01*
X49826443Y-51803534D01*
X49877963Y-51973373D01*
X49895359Y-52150000D01*
X49877963Y-52326627D01*
X49826443Y-52496466D01*
X49742778Y-52652991D01*
X49713448Y-52688729D01*
X49630186Y-52790186D01*
X49528729Y-52873448D01*
X49492991Y-52902778D01*
X49336466Y-52986443D01*
X49166627Y-53037963D01*
X49100442Y-53044482D01*
X49034260Y-53051000D01*
X48945740Y-53051000D01*
X48879558Y-53044482D01*
X48813373Y-53037963D01*
X48643534Y-52986443D01*
X48487009Y-52902778D01*
X48451271Y-52873448D01*
X48349814Y-52790186D01*
X48266552Y-52688729D01*
X48237222Y-52652991D01*
X48153557Y-52496466D01*
X48102037Y-52326627D01*
X48084641Y-52150000D01*
X48102037Y-51973373D01*
X48153557Y-51803534D01*
X48237222Y-51647009D01*
X48266552Y-51611271D01*
X48349814Y-51509814D01*
X48451271Y-51426552D01*
X48487009Y-51397222D01*
X48643534Y-51313557D01*
X48813373Y-51262037D01*
X48879558Y-51255518D01*
X48945740Y-51249000D01*
X49034260Y-51249000D01*
X49100443Y-51255519D01*
X49100443Y-51255519D01*
G37*
G36*
X57511000Y-53051000D02*
G01*
X55709000Y-53051000D01*
X55709000Y-51249000D01*
X57511000Y-51249000D01*
X57511000Y-53051000D01*
X57511000Y-53051000D01*
G37*
G36*
X28780443Y-51255519D02*
G01*
X28846627Y-51262037D01*
X29016466Y-51313557D01*
X29172991Y-51397222D01*
X29208729Y-51426552D01*
X29310186Y-51509814D01*
X29393448Y-51611271D01*
X29422778Y-51647009D01*
X29506443Y-51803534D01*
X29557963Y-51973373D01*
X29575359Y-52150000D01*
X29557963Y-52326627D01*
X29506443Y-52496466D01*
X29422778Y-52652991D01*
X29393448Y-52688729D01*
X29310186Y-52790186D01*
X29208729Y-52873448D01*
X29172991Y-52902778D01*
X29016466Y-52986443D01*
X28846627Y-53037963D01*
X28780442Y-53044482D01*
X28714260Y-53051000D01*
X28625740Y-53051000D01*
X28559558Y-53044482D01*
X28493373Y-53037963D01*
X28323534Y-52986443D01*
X28167009Y-52902778D01*
X28131271Y-52873448D01*
X28029814Y-52790186D01*
X27946552Y-52688729D01*
X27917222Y-52652991D01*
X27833557Y-52496466D01*
X27782037Y-52326627D01*
X27764641Y-52150000D01*
X27782037Y-51973373D01*
X27833557Y-51803534D01*
X27917222Y-51647009D01*
X27946552Y-51611271D01*
X28029814Y-51509814D01*
X28131271Y-51426552D01*
X28167009Y-51397222D01*
X28323534Y-51313557D01*
X28493373Y-51262037D01*
X28559558Y-51255518D01*
X28625740Y-51249000D01*
X28714260Y-51249000D01*
X28780443Y-51255519D01*
X28780443Y-51255519D01*
G37*
G36*
X46560443Y-51255519D02*
G01*
X46626627Y-51262037D01*
X46796466Y-51313557D01*
X46952991Y-51397222D01*
X46988729Y-51426552D01*
X47090186Y-51509814D01*
X47173448Y-51611271D01*
X47202778Y-51647009D01*
X47286443Y-51803534D01*
X47337963Y-51973373D01*
X47355359Y-52150000D01*
X47337963Y-52326627D01*
X47286443Y-52496466D01*
X47202778Y-52652991D01*
X47173448Y-52688729D01*
X47090186Y-52790186D01*
X46988729Y-52873448D01*
X46952991Y-52902778D01*
X46796466Y-52986443D01*
X46626627Y-53037963D01*
X46560442Y-53044482D01*
X46494260Y-53051000D01*
X46405740Y-53051000D01*
X46339558Y-53044482D01*
X46273373Y-53037963D01*
X46103534Y-52986443D01*
X45947009Y-52902778D01*
X45911271Y-52873448D01*
X45809814Y-52790186D01*
X45726552Y-52688729D01*
X45697222Y-52652991D01*
X45613557Y-52496466D01*
X45562037Y-52326627D01*
X45544641Y-52150000D01*
X45562037Y-51973373D01*
X45613557Y-51803534D01*
X45697222Y-51647009D01*
X45726552Y-51611271D01*
X45809814Y-51509814D01*
X45911271Y-51426552D01*
X45947009Y-51397222D01*
X46103534Y-51313557D01*
X46273373Y-51262037D01*
X46339558Y-51255518D01*
X46405740Y-51249000D01*
X46494260Y-51249000D01*
X46560443Y-51255519D01*
X46560443Y-51255519D01*
G37*
G36*
X26240443Y-51255519D02*
G01*
X26306627Y-51262037D01*
X26476466Y-51313557D01*
X26632991Y-51397222D01*
X26668729Y-51426552D01*
X26770186Y-51509814D01*
X26853448Y-51611271D01*
X26882778Y-51647009D01*
X26966443Y-51803534D01*
X27017963Y-51973373D01*
X27035359Y-52150000D01*
X27017963Y-52326627D01*
X26966443Y-52496466D01*
X26882778Y-52652991D01*
X26853448Y-52688729D01*
X26770186Y-52790186D01*
X26668729Y-52873448D01*
X26632991Y-52902778D01*
X26476466Y-52986443D01*
X26306627Y-53037963D01*
X26240442Y-53044482D01*
X26174260Y-53051000D01*
X26085740Y-53051000D01*
X26019558Y-53044482D01*
X25953373Y-53037963D01*
X25783534Y-52986443D01*
X25627009Y-52902778D01*
X25591271Y-52873448D01*
X25489814Y-52790186D01*
X25406552Y-52688729D01*
X25377222Y-52652991D01*
X25293557Y-52496466D01*
X25242037Y-52326627D01*
X25224641Y-52150000D01*
X25242037Y-51973373D01*
X25293557Y-51803534D01*
X25377222Y-51647009D01*
X25406552Y-51611271D01*
X25489814Y-51509814D01*
X25591271Y-51426552D01*
X25627009Y-51397222D01*
X25783534Y-51313557D01*
X25953373Y-51262037D01*
X26019558Y-51255518D01*
X26085740Y-51249000D01*
X26174260Y-51249000D01*
X26240443Y-51255519D01*
X26240443Y-51255519D01*
G37*
G36*
X23700443Y-51255519D02*
G01*
X23766627Y-51262037D01*
X23936466Y-51313557D01*
X24092991Y-51397222D01*
X24128729Y-51426552D01*
X24230186Y-51509814D01*
X24313448Y-51611271D01*
X24342778Y-51647009D01*
X24426443Y-51803534D01*
X24477963Y-51973373D01*
X24495359Y-52150000D01*
X24477963Y-52326627D01*
X24426443Y-52496466D01*
X24342778Y-52652991D01*
X24313448Y-52688729D01*
X24230186Y-52790186D01*
X24128729Y-52873448D01*
X24092991Y-52902778D01*
X23936466Y-52986443D01*
X23766627Y-53037963D01*
X23700442Y-53044482D01*
X23634260Y-53051000D01*
X23545740Y-53051000D01*
X23479558Y-53044482D01*
X23413373Y-53037963D01*
X23243534Y-52986443D01*
X23087009Y-52902778D01*
X23051271Y-52873448D01*
X22949814Y-52790186D01*
X22866552Y-52688729D01*
X22837222Y-52652991D01*
X22753557Y-52496466D01*
X22702037Y-52326627D01*
X22684641Y-52150000D01*
X22702037Y-51973373D01*
X22753557Y-51803534D01*
X22837222Y-51647009D01*
X22866552Y-51611271D01*
X22949814Y-51509814D01*
X23051271Y-51426552D01*
X23087009Y-51397222D01*
X23243534Y-51313557D01*
X23413373Y-51262037D01*
X23479558Y-51255518D01*
X23545740Y-51249000D01*
X23634260Y-51249000D01*
X23700443Y-51255519D01*
X23700443Y-51255519D01*
G37*
G36*
X41480443Y-51255519D02*
G01*
X41546627Y-51262037D01*
X41716466Y-51313557D01*
X41872991Y-51397222D01*
X41908729Y-51426552D01*
X42010186Y-51509814D01*
X42093448Y-51611271D01*
X42122778Y-51647009D01*
X42206443Y-51803534D01*
X42257963Y-51973373D01*
X42275359Y-52150000D01*
X42257963Y-52326627D01*
X42206443Y-52496466D01*
X42122778Y-52652991D01*
X42093448Y-52688729D01*
X42010186Y-52790186D01*
X41908729Y-52873448D01*
X41872991Y-52902778D01*
X41716466Y-52986443D01*
X41546627Y-53037963D01*
X41480442Y-53044482D01*
X41414260Y-53051000D01*
X41325740Y-53051000D01*
X41259558Y-53044482D01*
X41193373Y-53037963D01*
X41023534Y-52986443D01*
X40867009Y-52902778D01*
X40831271Y-52873448D01*
X40729814Y-52790186D01*
X40646552Y-52688729D01*
X40617222Y-52652991D01*
X40533557Y-52496466D01*
X40482037Y-52326627D01*
X40464641Y-52150000D01*
X40482037Y-51973373D01*
X40533557Y-51803534D01*
X40617222Y-51647009D01*
X40646552Y-51611271D01*
X40729814Y-51509814D01*
X40831271Y-51426552D01*
X40867009Y-51397222D01*
X41023534Y-51313557D01*
X41193373Y-51262037D01*
X41259558Y-51255518D01*
X41325740Y-51249000D01*
X41414260Y-51249000D01*
X41480443Y-51255519D01*
X41480443Y-51255519D01*
G37*
G36*
X21160443Y-51255519D02*
G01*
X21226627Y-51262037D01*
X21396466Y-51313557D01*
X21552991Y-51397222D01*
X21588729Y-51426552D01*
X21690186Y-51509814D01*
X21773448Y-51611271D01*
X21802778Y-51647009D01*
X21886443Y-51803534D01*
X21937963Y-51973373D01*
X21955359Y-52150000D01*
X21937963Y-52326627D01*
X21886443Y-52496466D01*
X21802778Y-52652991D01*
X21773448Y-52688729D01*
X21690186Y-52790186D01*
X21588729Y-52873448D01*
X21552991Y-52902778D01*
X21396466Y-52986443D01*
X21226627Y-53037963D01*
X21160442Y-53044482D01*
X21094260Y-53051000D01*
X21005740Y-53051000D01*
X20939558Y-53044482D01*
X20873373Y-53037963D01*
X20703534Y-52986443D01*
X20547009Y-52902778D01*
X20511271Y-52873448D01*
X20409814Y-52790186D01*
X20326552Y-52688729D01*
X20297222Y-52652991D01*
X20213557Y-52496466D01*
X20162037Y-52326627D01*
X20144641Y-52150000D01*
X20162037Y-51973373D01*
X20213557Y-51803534D01*
X20297222Y-51647009D01*
X20326552Y-51611271D01*
X20409814Y-51509814D01*
X20511271Y-51426552D01*
X20547009Y-51397222D01*
X20703534Y-51313557D01*
X20873373Y-51262037D01*
X20939558Y-51255518D01*
X21005740Y-51249000D01*
X21094260Y-51249000D01*
X21160443Y-51255519D01*
X21160443Y-51255519D01*
G37*
G36*
X33860443Y-51255519D02*
G01*
X33926627Y-51262037D01*
X34096466Y-51313557D01*
X34252991Y-51397222D01*
X34288729Y-51426552D01*
X34390186Y-51509814D01*
X34473448Y-51611271D01*
X34502778Y-51647009D01*
X34586443Y-51803534D01*
X34637963Y-51973373D01*
X34655359Y-52150000D01*
X34637963Y-52326627D01*
X34586443Y-52496466D01*
X34502778Y-52652991D01*
X34473448Y-52688729D01*
X34390186Y-52790186D01*
X34288729Y-52873448D01*
X34252991Y-52902778D01*
X34096466Y-52986443D01*
X33926627Y-53037963D01*
X33860442Y-53044482D01*
X33794260Y-53051000D01*
X33705740Y-53051000D01*
X33639558Y-53044482D01*
X33573373Y-53037963D01*
X33403534Y-52986443D01*
X33247009Y-52902778D01*
X33211271Y-52873448D01*
X33109814Y-52790186D01*
X33026552Y-52688729D01*
X32997222Y-52652991D01*
X32913557Y-52496466D01*
X32862037Y-52326627D01*
X32844641Y-52150000D01*
X32862037Y-51973373D01*
X32913557Y-51803534D01*
X32997222Y-51647009D01*
X33026552Y-51611271D01*
X33109814Y-51509814D01*
X33211271Y-51426552D01*
X33247009Y-51397222D01*
X33403534Y-51313557D01*
X33573373Y-51262037D01*
X33639558Y-51255518D01*
X33705740Y-51249000D01*
X33794260Y-51249000D01*
X33860443Y-51255519D01*
X33860443Y-51255519D01*
G37*
G36*
X31320443Y-51255519D02*
G01*
X31386627Y-51262037D01*
X31556466Y-51313557D01*
X31712991Y-51397222D01*
X31748729Y-51426552D01*
X31850186Y-51509814D01*
X31933448Y-51611271D01*
X31962778Y-51647009D01*
X32046443Y-51803534D01*
X32097963Y-51973373D01*
X32115359Y-52150000D01*
X32097963Y-52326627D01*
X32046443Y-52496466D01*
X31962778Y-52652991D01*
X31933448Y-52688729D01*
X31850186Y-52790186D01*
X31748729Y-52873448D01*
X31712991Y-52902778D01*
X31556466Y-52986443D01*
X31386627Y-53037963D01*
X31320442Y-53044482D01*
X31254260Y-53051000D01*
X31165740Y-53051000D01*
X31099558Y-53044482D01*
X31033373Y-53037963D01*
X30863534Y-52986443D01*
X30707009Y-52902778D01*
X30671271Y-52873448D01*
X30569814Y-52790186D01*
X30486552Y-52688729D01*
X30457222Y-52652991D01*
X30373557Y-52496466D01*
X30322037Y-52326627D01*
X30304641Y-52150000D01*
X30322037Y-51973373D01*
X30373557Y-51803534D01*
X30457222Y-51647009D01*
X30486552Y-51611271D01*
X30569814Y-51509814D01*
X30671271Y-51426552D01*
X30707009Y-51397222D01*
X30863534Y-51313557D01*
X31033373Y-51262037D01*
X31099558Y-51255518D01*
X31165740Y-51249000D01*
X31254260Y-51249000D01*
X31320443Y-51255519D01*
X31320443Y-51255519D01*
G37*
G36*
X16080443Y-51255519D02*
G01*
X16146627Y-51262037D01*
X16316466Y-51313557D01*
X16472991Y-51397222D01*
X16508729Y-51426552D01*
X16610186Y-51509814D01*
X16693448Y-51611271D01*
X16722778Y-51647009D01*
X16806443Y-51803534D01*
X16857963Y-51973373D01*
X16875359Y-52150000D01*
X16857963Y-52326627D01*
X16806443Y-52496466D01*
X16722778Y-52652991D01*
X16693448Y-52688729D01*
X16610186Y-52790186D01*
X16508729Y-52873448D01*
X16472991Y-52902778D01*
X16316466Y-52986443D01*
X16146627Y-53037963D01*
X16080442Y-53044482D01*
X16014260Y-53051000D01*
X15925740Y-53051000D01*
X15859558Y-53044482D01*
X15793373Y-53037963D01*
X15623534Y-52986443D01*
X15467009Y-52902778D01*
X15431271Y-52873448D01*
X15329814Y-52790186D01*
X15246552Y-52688729D01*
X15217222Y-52652991D01*
X15133557Y-52496466D01*
X15082037Y-52326627D01*
X15064641Y-52150000D01*
X15082037Y-51973373D01*
X15133557Y-51803534D01*
X15217222Y-51647009D01*
X15246552Y-51611271D01*
X15329814Y-51509814D01*
X15431271Y-51426552D01*
X15467009Y-51397222D01*
X15623534Y-51313557D01*
X15793373Y-51262037D01*
X15859557Y-51255519D01*
X15925740Y-51249000D01*
X16014260Y-51249000D01*
X16080443Y-51255519D01*
X16080443Y-51255519D01*
G37*
G36*
X18620443Y-51255519D02*
G01*
X18686627Y-51262037D01*
X18856466Y-51313557D01*
X19012991Y-51397222D01*
X19048729Y-51426552D01*
X19150186Y-51509814D01*
X19233448Y-51611271D01*
X19262778Y-51647009D01*
X19346443Y-51803534D01*
X19397963Y-51973373D01*
X19415359Y-52150000D01*
X19397963Y-52326627D01*
X19346443Y-52496466D01*
X19262778Y-52652991D01*
X19233448Y-52688729D01*
X19150186Y-52790186D01*
X19048729Y-52873448D01*
X19012991Y-52902778D01*
X18856466Y-52986443D01*
X18686627Y-53037963D01*
X18620442Y-53044482D01*
X18554260Y-53051000D01*
X18465740Y-53051000D01*
X18399558Y-53044482D01*
X18333373Y-53037963D01*
X18163534Y-52986443D01*
X18007009Y-52902778D01*
X17971271Y-52873448D01*
X17869814Y-52790186D01*
X17786552Y-52688729D01*
X17757222Y-52652991D01*
X17673557Y-52496466D01*
X17622037Y-52326627D01*
X17604641Y-52150000D01*
X17622037Y-51973373D01*
X17673557Y-51803534D01*
X17757222Y-51647009D01*
X17786552Y-51611271D01*
X17869814Y-51509814D01*
X17971271Y-51426552D01*
X18007009Y-51397222D01*
X18163534Y-51313557D01*
X18333373Y-51262037D01*
X18399558Y-51255518D01*
X18465740Y-51249000D01*
X18554260Y-51249000D01*
X18620443Y-51255519D01*
X18620443Y-51255519D01*
G37*
G36*
X38940443Y-51255519D02*
G01*
X39006627Y-51262037D01*
X39176466Y-51313557D01*
X39332991Y-51397222D01*
X39368729Y-51426552D01*
X39470186Y-51509814D01*
X39553448Y-51611271D01*
X39582778Y-51647009D01*
X39666443Y-51803534D01*
X39717963Y-51973373D01*
X39735359Y-52150000D01*
X39717963Y-52326627D01*
X39666443Y-52496466D01*
X39582778Y-52652991D01*
X39553448Y-52688729D01*
X39470186Y-52790186D01*
X39368729Y-52873448D01*
X39332991Y-52902778D01*
X39176466Y-52986443D01*
X39006627Y-53037963D01*
X38940442Y-53044482D01*
X38874260Y-53051000D01*
X38785740Y-53051000D01*
X38719558Y-53044482D01*
X38653373Y-53037963D01*
X38483534Y-52986443D01*
X38327009Y-52902778D01*
X38291271Y-52873448D01*
X38189814Y-52790186D01*
X38106552Y-52688729D01*
X38077222Y-52652991D01*
X37993557Y-52496466D01*
X37942037Y-52326627D01*
X37924641Y-52150000D01*
X37942037Y-51973373D01*
X37993557Y-51803534D01*
X38077222Y-51647009D01*
X38106552Y-51611271D01*
X38189814Y-51509814D01*
X38291271Y-51426552D01*
X38327009Y-51397222D01*
X38483534Y-51313557D01*
X38653373Y-51262037D01*
X38719558Y-51255518D01*
X38785740Y-51249000D01*
X38874260Y-51249000D01*
X38940443Y-51255519D01*
X38940443Y-51255519D01*
G37*
G36*
X8460443Y-51255519D02*
G01*
X8526627Y-51262037D01*
X8696466Y-51313557D01*
X8852991Y-51397222D01*
X8888729Y-51426552D01*
X8990186Y-51509814D01*
X9073448Y-51611271D01*
X9102778Y-51647009D01*
X9186443Y-51803534D01*
X9237963Y-51973373D01*
X9255359Y-52150000D01*
X9237963Y-52326627D01*
X9186443Y-52496466D01*
X9102778Y-52652991D01*
X9073448Y-52688729D01*
X8990186Y-52790186D01*
X8888729Y-52873448D01*
X8852991Y-52902778D01*
X8696466Y-52986443D01*
X8526627Y-53037963D01*
X8460442Y-53044482D01*
X8394260Y-53051000D01*
X8305740Y-53051000D01*
X8239558Y-53044482D01*
X8173373Y-53037963D01*
X8003534Y-52986443D01*
X7847009Y-52902778D01*
X7811271Y-52873448D01*
X7709814Y-52790186D01*
X7626552Y-52688729D01*
X7597222Y-52652991D01*
X7513557Y-52496466D01*
X7462037Y-52326627D01*
X7444641Y-52150000D01*
X7462037Y-51973373D01*
X7513557Y-51803534D01*
X7597222Y-51647009D01*
X7626552Y-51611271D01*
X7709814Y-51509814D01*
X7811271Y-51426552D01*
X7847009Y-51397222D01*
X8003534Y-51313557D01*
X8173373Y-51262037D01*
X8239557Y-51255519D01*
X8305740Y-51249000D01*
X8394260Y-51249000D01*
X8460443Y-51255519D01*
X8460443Y-51255519D01*
G37*
G36*
X54180443Y-51255519D02*
G01*
X54246627Y-51262037D01*
X54416466Y-51313557D01*
X54572991Y-51397222D01*
X54608729Y-51426552D01*
X54710186Y-51509814D01*
X54793448Y-51611271D01*
X54822778Y-51647009D01*
X54906443Y-51803534D01*
X54957963Y-51973373D01*
X54975359Y-52150000D01*
X54957963Y-52326627D01*
X54906443Y-52496466D01*
X54822778Y-52652991D01*
X54793448Y-52688729D01*
X54710186Y-52790186D01*
X54608729Y-52873448D01*
X54572991Y-52902778D01*
X54416466Y-52986443D01*
X54246627Y-53037963D01*
X54180442Y-53044482D01*
X54114260Y-53051000D01*
X54025740Y-53051000D01*
X53959558Y-53044482D01*
X53893373Y-53037963D01*
X53723534Y-52986443D01*
X53567009Y-52902778D01*
X53531271Y-52873448D01*
X53429814Y-52790186D01*
X53346552Y-52688729D01*
X53317222Y-52652991D01*
X53233557Y-52496466D01*
X53182037Y-52326627D01*
X53164641Y-52150000D01*
X53182037Y-51973373D01*
X53233557Y-51803534D01*
X53317222Y-51647009D01*
X53346552Y-51611271D01*
X53429814Y-51509814D01*
X53531271Y-51426552D01*
X53567009Y-51397222D01*
X53723534Y-51313557D01*
X53893373Y-51262037D01*
X53959558Y-51255518D01*
X54025740Y-51249000D01*
X54114260Y-51249000D01*
X54180443Y-51255519D01*
X54180443Y-51255519D01*
G37*
G36*
X11000443Y-51255519D02*
G01*
X11066627Y-51262037D01*
X11236466Y-51313557D01*
X11392991Y-51397222D01*
X11428729Y-51426552D01*
X11530186Y-51509814D01*
X11613448Y-51611271D01*
X11642778Y-51647009D01*
X11726443Y-51803534D01*
X11777963Y-51973373D01*
X11795359Y-52150000D01*
X11777963Y-52326627D01*
X11726443Y-52496466D01*
X11642778Y-52652991D01*
X11613448Y-52688729D01*
X11530186Y-52790186D01*
X11428729Y-52873448D01*
X11392991Y-52902778D01*
X11236466Y-52986443D01*
X11066627Y-53037963D01*
X11000442Y-53044482D01*
X10934260Y-53051000D01*
X10845740Y-53051000D01*
X10779558Y-53044482D01*
X10713373Y-53037963D01*
X10543534Y-52986443D01*
X10387009Y-52902778D01*
X10351271Y-52873448D01*
X10249814Y-52790186D01*
X10166552Y-52688729D01*
X10137222Y-52652991D01*
X10053557Y-52496466D01*
X10002037Y-52326627D01*
X9984641Y-52150000D01*
X10002037Y-51973373D01*
X10053557Y-51803534D01*
X10137222Y-51647009D01*
X10166552Y-51611271D01*
X10249814Y-51509814D01*
X10351271Y-51426552D01*
X10387009Y-51397222D01*
X10543534Y-51313557D01*
X10713373Y-51262037D01*
X10779557Y-51255519D01*
X10845740Y-51249000D01*
X10934260Y-51249000D01*
X11000443Y-51255519D01*
X11000443Y-51255519D01*
G37*
G36*
X36400443Y-51255519D02*
G01*
X36466627Y-51262037D01*
X36636466Y-51313557D01*
X36792991Y-51397222D01*
X36828729Y-51426552D01*
X36930186Y-51509814D01*
X37013448Y-51611271D01*
X37042778Y-51647009D01*
X37126443Y-51803534D01*
X37177963Y-51973373D01*
X37195359Y-52150000D01*
X37177963Y-52326627D01*
X37126443Y-52496466D01*
X37042778Y-52652991D01*
X37013448Y-52688729D01*
X36930186Y-52790186D01*
X36828729Y-52873448D01*
X36792991Y-52902778D01*
X36636466Y-52986443D01*
X36466627Y-53037963D01*
X36400442Y-53044482D01*
X36334260Y-53051000D01*
X36245740Y-53051000D01*
X36179558Y-53044482D01*
X36113373Y-53037963D01*
X35943534Y-52986443D01*
X35787009Y-52902778D01*
X35751271Y-52873448D01*
X35649814Y-52790186D01*
X35566552Y-52688729D01*
X35537222Y-52652991D01*
X35453557Y-52496466D01*
X35402037Y-52326627D01*
X35384641Y-52150000D01*
X35402037Y-51973373D01*
X35453557Y-51803534D01*
X35537222Y-51647009D01*
X35566552Y-51611271D01*
X35649814Y-51509814D01*
X35751271Y-51426552D01*
X35787009Y-51397222D01*
X35943534Y-51313557D01*
X36113373Y-51262037D01*
X36179558Y-51255518D01*
X36245740Y-51249000D01*
X36334260Y-51249000D01*
X36400443Y-51255519D01*
X36400443Y-51255519D01*
G37*
G36*
X13540443Y-51255519D02*
G01*
X13606627Y-51262037D01*
X13776466Y-51313557D01*
X13932991Y-51397222D01*
X13968729Y-51426552D01*
X14070186Y-51509814D01*
X14153448Y-51611271D01*
X14182778Y-51647009D01*
X14266443Y-51803534D01*
X14317963Y-51973373D01*
X14335359Y-52150000D01*
X14317963Y-52326627D01*
X14266443Y-52496466D01*
X14182778Y-52652991D01*
X14153448Y-52688729D01*
X14070186Y-52790186D01*
X13968729Y-52873448D01*
X13932991Y-52902778D01*
X13776466Y-52986443D01*
X13606627Y-53037963D01*
X13540442Y-53044482D01*
X13474260Y-53051000D01*
X13385740Y-53051000D01*
X13319558Y-53044482D01*
X13253373Y-53037963D01*
X13083534Y-52986443D01*
X12927009Y-52902778D01*
X12891271Y-52873448D01*
X12789814Y-52790186D01*
X12706552Y-52688729D01*
X12677222Y-52652991D01*
X12593557Y-52496466D01*
X12542037Y-52326627D01*
X12524641Y-52150000D01*
X12542037Y-51973373D01*
X12593557Y-51803534D01*
X12677222Y-51647009D01*
X12706552Y-51611271D01*
X12789814Y-51509814D01*
X12891271Y-51426552D01*
X12927009Y-51397222D01*
X13083534Y-51313557D01*
X13253373Y-51262037D01*
X13319557Y-51255519D01*
X13385740Y-51249000D01*
X13474260Y-51249000D01*
X13540443Y-51255519D01*
X13540443Y-51255519D01*
G37*
G36*
X51640443Y-51255519D02*
G01*
X51706627Y-51262037D01*
X51876466Y-51313557D01*
X52032991Y-51397222D01*
X52068729Y-51426552D01*
X52170186Y-51509814D01*
X52253448Y-51611271D01*
X52282778Y-51647009D01*
X52366443Y-51803534D01*
X52417963Y-51973373D01*
X52435359Y-52150000D01*
X52417963Y-52326627D01*
X52366443Y-52496466D01*
X52282778Y-52652991D01*
X52253448Y-52688729D01*
X52170186Y-52790186D01*
X52068729Y-52873448D01*
X52032991Y-52902778D01*
X51876466Y-52986443D01*
X51706627Y-53037963D01*
X51640442Y-53044482D01*
X51574260Y-53051000D01*
X51485740Y-53051000D01*
X51419558Y-53044482D01*
X51353373Y-53037963D01*
X51183534Y-52986443D01*
X51027009Y-52902778D01*
X50991271Y-52873448D01*
X50889814Y-52790186D01*
X50806552Y-52688729D01*
X50777222Y-52652991D01*
X50693557Y-52496466D01*
X50642037Y-52326627D01*
X50624641Y-52150000D01*
X50642037Y-51973373D01*
X50693557Y-51803534D01*
X50777222Y-51647009D01*
X50806552Y-51611271D01*
X50889814Y-51509814D01*
X50991271Y-51426552D01*
X51027009Y-51397222D01*
X51183534Y-51313557D01*
X51353373Y-51262037D01*
X51419558Y-51255518D01*
X51485740Y-51249000D01*
X51574260Y-51249000D01*
X51640443Y-51255519D01*
X51640443Y-51255519D01*
G37*
G36*
X44020443Y-51255519D02*
G01*
X44086627Y-51262037D01*
X44256466Y-51313557D01*
X44412991Y-51397222D01*
X44448729Y-51426552D01*
X44550186Y-51509814D01*
X44633448Y-51611271D01*
X44662778Y-51647009D01*
X44746443Y-51803534D01*
X44797963Y-51973373D01*
X44815359Y-52150000D01*
X44797963Y-52326627D01*
X44746443Y-52496466D01*
X44662778Y-52652991D01*
X44633448Y-52688729D01*
X44550186Y-52790186D01*
X44448729Y-52873448D01*
X44412991Y-52902778D01*
X44256466Y-52986443D01*
X44086627Y-53037963D01*
X44020442Y-53044482D01*
X43954260Y-53051000D01*
X43865740Y-53051000D01*
X43799558Y-53044482D01*
X43733373Y-53037963D01*
X43563534Y-52986443D01*
X43407009Y-52902778D01*
X43371271Y-52873448D01*
X43269814Y-52790186D01*
X43186552Y-52688729D01*
X43157222Y-52652991D01*
X43073557Y-52496466D01*
X43022037Y-52326627D01*
X43004641Y-52150000D01*
X43022037Y-51973373D01*
X43073557Y-51803534D01*
X43157222Y-51647009D01*
X43186552Y-51611271D01*
X43269814Y-51509814D01*
X43371271Y-51426552D01*
X43407009Y-51397222D01*
X43563534Y-51313557D01*
X43733373Y-51262037D01*
X43799558Y-51255518D01*
X43865740Y-51249000D01*
X43954260Y-51249000D01*
X44020443Y-51255519D01*
X44020443Y-51255519D01*
G37*
G36*
X13657618Y-48463420D02*
G01*
X13738400Y-48487925D01*
X13780336Y-48500646D01*
X13893425Y-48561094D01*
X13992554Y-48642446D01*
X14073906Y-48741575D01*
X14134354Y-48854664D01*
X14134355Y-48854668D01*
X14171580Y-48977382D01*
X14181000Y-49073027D01*
X14181000Y-49686973D01*
X14171580Y-49782618D01*
X14144040Y-49873404D01*
X14134354Y-49905336D01*
X14073906Y-50018425D01*
X13992554Y-50117553D01*
X13893424Y-50198906D01*
X13780335Y-50259354D01*
X13748403Y-50269040D01*
X13657617Y-50296580D01*
X13530000Y-50309149D01*
X13402382Y-50296580D01*
X13311596Y-50269040D01*
X13279664Y-50259354D01*
X13166575Y-50198906D01*
X13067447Y-50117554D01*
X12986094Y-50018424D01*
X12925646Y-49905335D01*
X12915960Y-49873403D01*
X12888420Y-49782617D01*
X12879000Y-49686972D01*
X12879000Y-49073027D01*
X12888420Y-48977382D01*
X12923349Y-48862236D01*
X12925645Y-48854667D01*
X12961813Y-48787003D01*
X12986095Y-48741574D01*
X13000733Y-48723738D01*
X13067447Y-48642446D01*
X13166576Y-48561094D01*
X13279665Y-48500646D01*
X13321601Y-48487925D01*
X13402383Y-48463420D01*
X13530000Y-48450851D01*
X13657618Y-48463420D01*
X13657618Y-48463420D01*
G37*
G36*
X15657618Y-48463420D02*
G01*
X15738400Y-48487925D01*
X15780336Y-48500646D01*
X15893425Y-48561094D01*
X15992554Y-48642446D01*
X16073906Y-48741575D01*
X16134354Y-48854664D01*
X16134355Y-48854668D01*
X16171580Y-48977382D01*
X16181000Y-49073027D01*
X16181000Y-49686973D01*
X16171580Y-49782618D01*
X16144040Y-49873404D01*
X16134354Y-49905336D01*
X16073906Y-50018425D01*
X15992554Y-50117553D01*
X15893424Y-50198906D01*
X15780335Y-50259354D01*
X15748403Y-50269040D01*
X15657617Y-50296580D01*
X15530000Y-50309149D01*
X15402382Y-50296580D01*
X15311596Y-50269040D01*
X15279664Y-50259354D01*
X15166575Y-50198906D01*
X15067447Y-50117554D01*
X14986094Y-50018424D01*
X14925646Y-49905335D01*
X14915960Y-49873403D01*
X14888420Y-49782617D01*
X14879000Y-49686972D01*
X14879000Y-49073027D01*
X14888420Y-48977382D01*
X14923349Y-48862236D01*
X14925645Y-48854667D01*
X14961813Y-48787003D01*
X14986095Y-48741574D01*
X15000733Y-48723738D01*
X15067447Y-48642446D01*
X15166576Y-48561094D01*
X15279665Y-48500646D01*
X15321601Y-48487925D01*
X15402383Y-48463420D01*
X15530000Y-48450851D01*
X15657618Y-48463420D01*
X15657618Y-48463420D01*
G37*
G36*
X17657618Y-48463420D02*
G01*
X17738400Y-48487925D01*
X17780336Y-48500646D01*
X17893425Y-48561094D01*
X17992554Y-48642446D01*
X18073906Y-48741575D01*
X18134354Y-48854664D01*
X18134355Y-48854668D01*
X18171580Y-48977382D01*
X18181000Y-49073027D01*
X18181000Y-49686973D01*
X18171580Y-49782618D01*
X18144040Y-49873404D01*
X18134354Y-49905336D01*
X18073906Y-50018425D01*
X17992554Y-50117553D01*
X17893424Y-50198906D01*
X17780335Y-50259354D01*
X17748403Y-50269040D01*
X17657617Y-50296580D01*
X17530000Y-50309149D01*
X17402382Y-50296580D01*
X17311596Y-50269040D01*
X17279664Y-50259354D01*
X17166575Y-50198906D01*
X17067447Y-50117554D01*
X16986094Y-50018424D01*
X16925646Y-49905335D01*
X16915960Y-49873403D01*
X16888420Y-49782617D01*
X16879000Y-49686972D01*
X16879000Y-49073027D01*
X16888420Y-48977382D01*
X16923349Y-48862236D01*
X16925645Y-48854667D01*
X16961813Y-48787003D01*
X16986095Y-48741574D01*
X17000733Y-48723738D01*
X17067447Y-48642446D01*
X17166576Y-48561094D01*
X17279665Y-48500646D01*
X17321601Y-48487925D01*
X17402383Y-48463420D01*
X17530000Y-48450851D01*
X17657618Y-48463420D01*
X17657618Y-48463420D01*
G37*
G36*
X11657618Y-48463420D02*
G01*
X11738400Y-48487925D01*
X11780336Y-48500646D01*
X11893425Y-48561094D01*
X11992554Y-48642446D01*
X12073906Y-48741575D01*
X12134354Y-48854664D01*
X12134355Y-48854668D01*
X12171580Y-48977382D01*
X12181000Y-49073027D01*
X12181000Y-49686973D01*
X12171580Y-49782618D01*
X12144040Y-49873404D01*
X12134354Y-49905336D01*
X12073906Y-50018425D01*
X11992554Y-50117553D01*
X11893424Y-50198906D01*
X11780335Y-50259354D01*
X11748403Y-50269040D01*
X11657617Y-50296580D01*
X11530000Y-50309149D01*
X11402382Y-50296580D01*
X11311596Y-50269040D01*
X11279664Y-50259354D01*
X11166575Y-50198906D01*
X11067447Y-50117554D01*
X10986094Y-50018424D01*
X10925646Y-49905335D01*
X10915960Y-49873403D01*
X10888420Y-49782617D01*
X10879000Y-49686972D01*
X10879000Y-49073027D01*
X10888420Y-48977382D01*
X10923349Y-48862236D01*
X10925645Y-48854667D01*
X10961813Y-48787003D01*
X10986095Y-48741574D01*
X11000733Y-48723738D01*
X11067447Y-48642446D01*
X11166576Y-48561094D01*
X11279665Y-48500646D01*
X11321601Y-48487925D01*
X11402383Y-48463420D01*
X11530000Y-48450851D01*
X11657618Y-48463420D01*
X11657618Y-48463420D01*
G37*
G36*
X9657618Y-48463420D02*
G01*
X9738400Y-48487925D01*
X9780336Y-48500646D01*
X9893425Y-48561094D01*
X9992554Y-48642446D01*
X10073906Y-48741575D01*
X10134354Y-48854664D01*
X10134355Y-48854668D01*
X10171580Y-48977382D01*
X10181000Y-49073027D01*
X10181000Y-49686973D01*
X10171580Y-49782618D01*
X10144040Y-49873404D01*
X10134354Y-49905336D01*
X10073906Y-50018425D01*
X9992554Y-50117553D01*
X9893424Y-50198906D01*
X9780335Y-50259354D01*
X9748403Y-50269040D01*
X9657617Y-50296580D01*
X9530000Y-50309149D01*
X9402382Y-50296580D01*
X9311596Y-50269040D01*
X9279664Y-50259354D01*
X9166575Y-50198906D01*
X9067447Y-50117554D01*
X8986094Y-50018424D01*
X8925646Y-49905335D01*
X8915960Y-49873403D01*
X8888420Y-49782617D01*
X8879000Y-49686972D01*
X8879000Y-49073027D01*
X8888420Y-48977382D01*
X8923349Y-48862236D01*
X8925645Y-48854667D01*
X8961813Y-48787003D01*
X8986095Y-48741574D01*
X9000733Y-48723738D01*
X9067447Y-48642446D01*
X9166576Y-48561094D01*
X9279665Y-48500646D01*
X9321601Y-48487925D01*
X9402383Y-48463420D01*
X9530000Y-48450851D01*
X9657618Y-48463420D01*
X9657618Y-48463420D01*
G37*
G36*
X20021242Y-48458404D02*
G01*
X20058337Y-48469657D01*
X20092515Y-48487925D01*
X20122481Y-48512519D01*
X20147075Y-48542485D01*
X20165343Y-48576663D01*
X20176596Y-48613758D01*
X20181000Y-48658474D01*
X20181000Y-50101526D01*
X20176596Y-50146242D01*
X20165343Y-50183337D01*
X20147075Y-50217515D01*
X20122481Y-50247481D01*
X20092515Y-50272075D01*
X20058337Y-50290343D01*
X20021242Y-50301596D01*
X19976526Y-50306000D01*
X19083474Y-50306000D01*
X19038758Y-50301596D01*
X19001663Y-50290343D01*
X18967485Y-50272075D01*
X18937519Y-50247481D01*
X18912925Y-50217515D01*
X18894657Y-50183337D01*
X18883404Y-50146242D01*
X18879000Y-50101526D01*
X18879000Y-48658474D01*
X18883404Y-48613758D01*
X18894657Y-48576663D01*
X18912925Y-48542485D01*
X18937519Y-48512519D01*
X18967485Y-48487925D01*
X19001663Y-48469657D01*
X19038758Y-48458404D01*
X19083474Y-48454000D01*
X19976526Y-48454000D01*
X20021242Y-48458404D01*
X20021242Y-48458404D01*
G37*
G36*
X64115928Y-48165764D02*
G01*
X64137009Y-48172160D01*
X64156445Y-48182548D01*
X64173476Y-48196524D01*
X64187452Y-48213555D01*
X64197840Y-48232991D01*
X64204236Y-48254072D01*
X64207000Y-48282140D01*
X64207000Y-48745860D01*
X64204236Y-48773928D01*
X64197840Y-48795009D01*
X64187452Y-48814445D01*
X64173476Y-48831476D01*
X64156445Y-48845452D01*
X64137009Y-48855840D01*
X64115928Y-48862236D01*
X64087860Y-48865000D01*
X62274140Y-48865000D01*
X62246072Y-48862236D01*
X62224991Y-48855840D01*
X62205555Y-48845452D01*
X62188524Y-48831476D01*
X62174548Y-48814445D01*
X62164160Y-48795009D01*
X62157764Y-48773928D01*
X62155000Y-48745860D01*
X62155000Y-48282140D01*
X62157764Y-48254072D01*
X62164160Y-48232991D01*
X62174548Y-48213555D01*
X62188524Y-48196524D01*
X62205555Y-48182548D01*
X62224991Y-48172160D01*
X62246072Y-48165764D01*
X62274140Y-48163000D01*
X64087860Y-48163000D01*
X64115928Y-48165764D01*
X64115928Y-48165764D01*
G37*
G36*
X59165928Y-48165764D02*
G01*
X59187009Y-48172160D01*
X59206445Y-48182548D01*
X59223476Y-48196524D01*
X59237452Y-48213555D01*
X59247840Y-48232991D01*
X59254236Y-48254072D01*
X59257000Y-48282140D01*
X59257000Y-48745860D01*
X59254236Y-48773928D01*
X59247840Y-48795009D01*
X59237452Y-48814445D01*
X59223476Y-48831476D01*
X59206445Y-48845452D01*
X59187009Y-48855840D01*
X59165928Y-48862236D01*
X59137860Y-48865000D01*
X57324140Y-48865000D01*
X57296072Y-48862236D01*
X57274991Y-48855840D01*
X57255555Y-48845452D01*
X57238524Y-48831476D01*
X57224548Y-48814445D01*
X57214160Y-48795009D01*
X57207764Y-48773928D01*
X57205000Y-48745860D01*
X57205000Y-48282140D01*
X57207764Y-48254072D01*
X57214160Y-48232991D01*
X57224548Y-48213555D01*
X57238524Y-48196524D01*
X57255555Y-48182548D01*
X57274991Y-48172160D01*
X57296072Y-48165764D01*
X57324140Y-48163000D01*
X59137860Y-48163000D01*
X59165928Y-48165764D01*
X59165928Y-48165764D01*
G37*
G36*
X59165928Y-46895764D02*
G01*
X59187009Y-46902160D01*
X59206445Y-46912548D01*
X59223476Y-46926524D01*
X59237452Y-46943555D01*
X59247840Y-46962991D01*
X59254236Y-46984072D01*
X59257000Y-47012140D01*
X59257000Y-47475860D01*
X59254236Y-47503928D01*
X59247840Y-47525009D01*
X59237452Y-47544445D01*
X59223476Y-47561476D01*
X59206445Y-47575452D01*
X59187009Y-47585840D01*
X59165928Y-47592236D01*
X59137860Y-47595000D01*
X57324140Y-47595000D01*
X57296072Y-47592236D01*
X57274991Y-47585840D01*
X57255555Y-47575452D01*
X57238524Y-47561476D01*
X57224548Y-47544445D01*
X57214160Y-47525009D01*
X57207764Y-47503928D01*
X57205000Y-47475860D01*
X57205000Y-47012140D01*
X57207764Y-46984072D01*
X57214160Y-46962991D01*
X57224548Y-46943555D01*
X57238524Y-46926524D01*
X57255555Y-46912548D01*
X57274991Y-46902160D01*
X57296072Y-46895764D01*
X57324140Y-46893000D01*
X59137860Y-46893000D01*
X59165928Y-46895764D01*
X59165928Y-46895764D01*
G37*
G36*
X64115928Y-46895764D02*
G01*
X64137009Y-46902160D01*
X64156445Y-46912548D01*
X64173476Y-46926524D01*
X64187452Y-46943555D01*
X64197840Y-46962991D01*
X64204236Y-46984072D01*
X64207000Y-47012140D01*
X64207000Y-47475860D01*
X64204236Y-47503928D01*
X64197840Y-47525009D01*
X64187452Y-47544445D01*
X64173476Y-47561476D01*
X64156445Y-47575452D01*
X64137009Y-47585840D01*
X64115928Y-47592236D01*
X64087860Y-47595000D01*
X62274140Y-47595000D01*
X62246072Y-47592236D01*
X62224991Y-47585840D01*
X62205555Y-47575452D01*
X62188524Y-47561476D01*
X62174548Y-47544445D01*
X62164160Y-47525009D01*
X62157764Y-47503928D01*
X62155000Y-47475860D01*
X62155000Y-47012140D01*
X62157764Y-46984072D01*
X62164160Y-46962991D01*
X62174548Y-46943555D01*
X62188524Y-46926524D01*
X62205555Y-46912548D01*
X62224991Y-46902160D01*
X62246072Y-46895764D01*
X62274140Y-46893000D01*
X64087860Y-46893000D01*
X64115928Y-46895764D01*
X64115928Y-46895764D01*
G37*
G36*
X50437142Y-45888242D02*
G01*
X50585101Y-45949529D01*
X50718255Y-46038499D01*
X50831501Y-46151745D01*
X50920471Y-46284899D01*
X50981758Y-46432858D01*
X51013000Y-46589925D01*
X51013000Y-46750075D01*
X50981758Y-46907142D01*
X50920471Y-47055101D01*
X50831501Y-47188255D01*
X50718255Y-47301501D01*
X50585101Y-47390471D01*
X50437142Y-47451758D01*
X50280075Y-47483000D01*
X50119925Y-47483000D01*
X49962858Y-47451758D01*
X49814899Y-47390471D01*
X49681745Y-47301501D01*
X49568499Y-47188255D01*
X49479529Y-47055101D01*
X49418242Y-46907142D01*
X49387000Y-46750075D01*
X49387000Y-46589925D01*
X49418242Y-46432858D01*
X49479529Y-46284899D01*
X49568499Y-46151745D01*
X49681745Y-46038499D01*
X49814899Y-45949529D01*
X49962858Y-45888242D01*
X50119925Y-45857000D01*
X50280075Y-45857000D01*
X50437142Y-45888242D01*
X50437142Y-45888242D01*
G37*
G36*
X67538855Y-45894140D02*
G01*
X67602618Y-45900420D01*
X67693404Y-45927960D01*
X67725336Y-45937646D01*
X67838425Y-45998094D01*
X67937554Y-46079446D01*
X68018906Y-46178575D01*
X68079354Y-46291664D01*
X68079355Y-46291668D01*
X68116580Y-46414382D01*
X68129149Y-46542000D01*
X68116580Y-46669618D01*
X68089040Y-46760404D01*
X68079354Y-46792336D01*
X68018906Y-46905425D01*
X67937554Y-47004554D01*
X67838425Y-47085906D01*
X67725336Y-47146354D01*
X67693404Y-47156040D01*
X67602618Y-47183580D01*
X67538855Y-47189860D01*
X67506974Y-47193000D01*
X66893026Y-47193000D01*
X66861145Y-47189860D01*
X66797382Y-47183580D01*
X66706596Y-47156040D01*
X66674664Y-47146354D01*
X66561575Y-47085906D01*
X66462446Y-47004554D01*
X66381094Y-46905425D01*
X66320646Y-46792336D01*
X66310960Y-46760404D01*
X66283420Y-46669618D01*
X66270851Y-46542000D01*
X66283420Y-46414382D01*
X66320645Y-46291668D01*
X66320646Y-46291664D01*
X66381094Y-46178575D01*
X66462446Y-46079446D01*
X66561575Y-45998094D01*
X66674664Y-45937646D01*
X66706596Y-45927960D01*
X66797382Y-45900420D01*
X66861145Y-45894140D01*
X66893026Y-45891000D01*
X67506974Y-45891000D01*
X67538855Y-45894140D01*
X67538855Y-45894140D01*
G37*
G36*
X73069737Y-45888242D02*
G01*
X73142618Y-45895420D01*
X73233404Y-45922960D01*
X73265336Y-45932646D01*
X73378425Y-45993094D01*
X73477554Y-46074446D01*
X73558906Y-46173575D01*
X73619354Y-46286664D01*
X73620871Y-46291664D01*
X73656580Y-46409382D01*
X73669149Y-46537000D01*
X73656580Y-46664618D01*
X73655063Y-46669618D01*
X73619354Y-46787336D01*
X73558906Y-46900425D01*
X73477554Y-46999554D01*
X73378425Y-47080906D01*
X73265336Y-47141354D01*
X73233404Y-47151040D01*
X73142618Y-47178580D01*
X73091851Y-47183580D01*
X73046974Y-47188000D01*
X72433026Y-47188000D01*
X72388149Y-47183580D01*
X72337382Y-47178580D01*
X72246596Y-47151040D01*
X72214664Y-47141354D01*
X72101575Y-47080906D01*
X72002446Y-46999554D01*
X71921094Y-46900425D01*
X71860646Y-46787336D01*
X71824937Y-46669618D01*
X71823420Y-46664618D01*
X71810851Y-46537000D01*
X71823420Y-46409382D01*
X71859129Y-46291664D01*
X71860646Y-46286664D01*
X71921094Y-46173575D01*
X72002446Y-46074446D01*
X72101575Y-45993094D01*
X72214664Y-45932646D01*
X72246596Y-45922960D01*
X72337382Y-45895420D01*
X72410263Y-45888242D01*
X72433026Y-45886000D01*
X73046974Y-45886000D01*
X73069737Y-45888242D01*
X73069737Y-45888242D01*
G37*
G36*
X64115928Y-45625764D02*
G01*
X64137009Y-45632160D01*
X64156445Y-45642548D01*
X64173476Y-45656524D01*
X64187452Y-45673555D01*
X64197840Y-45692991D01*
X64204236Y-45714072D01*
X64207000Y-45742140D01*
X64207000Y-46205860D01*
X64204236Y-46233928D01*
X64197840Y-46255009D01*
X64187452Y-46274445D01*
X64173476Y-46291476D01*
X64156445Y-46305452D01*
X64137009Y-46315840D01*
X64115928Y-46322236D01*
X64087860Y-46325000D01*
X62274140Y-46325000D01*
X62246072Y-46322236D01*
X62224991Y-46315840D01*
X62205555Y-46305452D01*
X62188524Y-46291476D01*
X62174548Y-46274445D01*
X62164160Y-46255009D01*
X62157764Y-46233928D01*
X62155000Y-46205860D01*
X62155000Y-45742140D01*
X62157764Y-45714072D01*
X62164160Y-45692991D01*
X62174548Y-45673555D01*
X62188524Y-45656524D01*
X62205555Y-45642548D01*
X62224991Y-45632160D01*
X62246072Y-45625764D01*
X62274140Y-45623000D01*
X64087860Y-45623000D01*
X64115928Y-45625764D01*
X64115928Y-45625764D01*
G37*
G36*
X59165928Y-45625764D02*
G01*
X59187009Y-45632160D01*
X59206445Y-45642548D01*
X59223476Y-45656524D01*
X59237452Y-45673555D01*
X59247840Y-45692991D01*
X59254236Y-45714072D01*
X59257000Y-45742140D01*
X59257000Y-46205860D01*
X59254236Y-46233928D01*
X59247840Y-46255009D01*
X59237452Y-46274445D01*
X59223476Y-46291476D01*
X59206445Y-46305452D01*
X59187009Y-46315840D01*
X59165928Y-46322236D01*
X59137860Y-46325000D01*
X57324140Y-46325000D01*
X57296072Y-46322236D01*
X57274991Y-46315840D01*
X57255555Y-46305452D01*
X57238524Y-46291476D01*
X57224548Y-46274445D01*
X57214160Y-46255009D01*
X57207764Y-46233928D01*
X57205000Y-46205860D01*
X57205000Y-45742140D01*
X57207764Y-45714072D01*
X57214160Y-45692991D01*
X57224548Y-45673555D01*
X57238524Y-45656524D01*
X57255555Y-45642548D01*
X57274991Y-45632160D01*
X57296072Y-45625764D01*
X57324140Y-45623000D01*
X59137860Y-45623000D01*
X59165928Y-45625764D01*
X59165928Y-45625764D01*
G37*
G36*
X37396869Y-22230000D02*
G01*
X38815147Y-22512113D01*
X41008289Y-23420542D01*
X42982065Y-24739377D01*
X44660623Y-26417935D01*
X45979458Y-28391711D01*
X46887887Y-30584853D01*
X47027406Y-31286262D01*
X47351000Y-32913079D01*
X47351000Y-35286921D01*
X47127728Y-36409384D01*
X46887887Y-37615147D01*
X45979458Y-39808289D01*
X44660623Y-41782065D01*
X42982065Y-43460623D01*
X41008289Y-44779458D01*
X38815147Y-45687887D01*
X37964958Y-45857000D01*
X36486921Y-46151000D01*
X34113079Y-46151000D01*
X32635042Y-45857000D01*
X31784853Y-45687887D01*
X29591711Y-44779458D01*
X27617935Y-43460623D01*
X25939377Y-41782065D01*
X24620542Y-39808289D01*
X23712113Y-37615147D01*
X23472272Y-36409384D01*
X23249000Y-35286921D01*
X23249000Y-32913079D01*
X23572594Y-31286262D01*
X23712113Y-30584853D01*
X24620542Y-28391711D01*
X25939377Y-26417935D01*
X27617935Y-24739377D01*
X29591711Y-23420542D01*
X31784853Y-22512113D01*
X33203131Y-22230000D01*
X34113079Y-22049000D01*
X36486921Y-22049000D01*
X37396869Y-22230000D01*
X37396869Y-22230000D01*
G37*
G36*
X25558890Y-42286664D02*
G01*
X25833500Y-42341287D01*
X25907063Y-42371758D01*
X26166355Y-42479160D01*
X26315120Y-42578562D01*
X26465920Y-42679323D01*
X26720677Y-42934080D01*
X26785500Y-43031095D01*
X26920840Y-43233645D01*
X26958541Y-43324664D01*
X27048990Y-43543026D01*
X27058713Y-43566501D01*
X27129000Y-43919858D01*
X27129000Y-44280142D01*
X27110065Y-44375335D01*
X27058713Y-44633500D01*
X27044047Y-44668906D01*
X26920840Y-44966355D01*
X26895389Y-45004445D01*
X26720677Y-45265920D01*
X26465920Y-45520677D01*
X26315120Y-45621438D01*
X26166355Y-45720840D01*
X25971373Y-45801604D01*
X25833500Y-45858713D01*
X25696318Y-45886000D01*
X25480142Y-45929000D01*
X25119858Y-45929000D01*
X24903682Y-45886000D01*
X24766500Y-45858713D01*
X24628627Y-45801604D01*
X24433645Y-45720840D01*
X24284880Y-45621438D01*
X24134080Y-45520677D01*
X23879323Y-45265920D01*
X23704611Y-45004445D01*
X23679160Y-44966355D01*
X23555953Y-44668906D01*
X23541287Y-44633500D01*
X23489935Y-44375335D01*
X23471000Y-44280142D01*
X23471000Y-43919858D01*
X23541287Y-43566501D01*
X23551011Y-43543026D01*
X23641459Y-43324664D01*
X23679160Y-43233645D01*
X23814500Y-43031095D01*
X23879323Y-42934080D01*
X24134080Y-42679323D01*
X24284880Y-42578562D01*
X24433645Y-42479160D01*
X24692937Y-42371758D01*
X24766500Y-42341287D01*
X25041110Y-42286664D01*
X25119858Y-42271000D01*
X25480142Y-42271000D01*
X25558890Y-42286664D01*
X25558890Y-42286664D01*
G37*
G36*
X45558890Y-42286664D02*
G01*
X45833500Y-42341287D01*
X45907063Y-42371758D01*
X46166355Y-42479160D01*
X46315120Y-42578562D01*
X46465920Y-42679323D01*
X46720677Y-42934080D01*
X46785500Y-43031095D01*
X46920840Y-43233645D01*
X46958541Y-43324664D01*
X47048990Y-43543026D01*
X47058713Y-43566501D01*
X47129000Y-43919858D01*
X47129000Y-44280142D01*
X47110065Y-44375335D01*
X47058713Y-44633500D01*
X47044047Y-44668906D01*
X46920840Y-44966355D01*
X46895389Y-45004445D01*
X46720677Y-45265920D01*
X46465920Y-45520677D01*
X46315120Y-45621438D01*
X46166355Y-45720840D01*
X45971373Y-45801604D01*
X45833500Y-45858713D01*
X45696318Y-45886000D01*
X45480142Y-45929000D01*
X45119858Y-45929000D01*
X44903682Y-45886000D01*
X44766500Y-45858713D01*
X44628627Y-45801604D01*
X44433645Y-45720840D01*
X44284880Y-45621438D01*
X44134080Y-45520677D01*
X43879323Y-45265920D01*
X43704611Y-45004445D01*
X43679160Y-44966355D01*
X43555953Y-44668906D01*
X43541287Y-44633500D01*
X43489935Y-44375335D01*
X43471000Y-44280142D01*
X43471000Y-43919858D01*
X43541287Y-43566501D01*
X43551011Y-43543026D01*
X43641459Y-43324664D01*
X43679160Y-43233645D01*
X43814500Y-43031095D01*
X43879323Y-42934080D01*
X44134080Y-42679323D01*
X44284880Y-42578562D01*
X44433645Y-42479160D01*
X44692937Y-42371758D01*
X44766500Y-42341287D01*
X45041110Y-42286664D01*
X45119858Y-42271000D01*
X45480142Y-42271000D01*
X45558890Y-42286664D01*
X45558890Y-42286664D01*
G37*
G36*
X67525828Y-43892857D02*
G01*
X67602618Y-43900420D01*
X67693404Y-43927960D01*
X67725336Y-43937646D01*
X67838425Y-43998094D01*
X67937554Y-44079446D01*
X68018906Y-44178575D01*
X68079354Y-44291664D01*
X68079355Y-44291668D01*
X68116580Y-44414382D01*
X68129149Y-44542000D01*
X68116580Y-44669618D01*
X68094600Y-44742075D01*
X68079354Y-44792336D01*
X68018906Y-44905425D01*
X67937554Y-45004554D01*
X67838425Y-45085906D01*
X67725336Y-45146354D01*
X67693404Y-45156040D01*
X67602618Y-45183580D01*
X67538855Y-45189860D01*
X67506974Y-45193000D01*
X66893026Y-45193000D01*
X66861145Y-45189860D01*
X66797382Y-45183580D01*
X66706596Y-45156040D01*
X66674664Y-45146354D01*
X66561575Y-45085906D01*
X66462446Y-45004554D01*
X66381094Y-44905425D01*
X66320646Y-44792336D01*
X66305400Y-44742075D01*
X66283420Y-44669618D01*
X66270851Y-44542000D01*
X66283420Y-44414382D01*
X66320645Y-44291668D01*
X66320646Y-44291664D01*
X66381094Y-44178575D01*
X66462446Y-44079446D01*
X66561575Y-43998094D01*
X66674664Y-43937646D01*
X66706596Y-43927960D01*
X66797382Y-43900420D01*
X66874172Y-43892857D01*
X66893026Y-43891000D01*
X67506974Y-43891000D01*
X67525828Y-43892857D01*
X67525828Y-43892857D01*
G37*
G36*
X73078855Y-43889140D02*
G01*
X73142618Y-43895420D01*
X73223179Y-43919858D01*
X73265336Y-43932646D01*
X73378425Y-43993094D01*
X73477554Y-44074446D01*
X73558906Y-44173575D01*
X73619354Y-44286664D01*
X73619355Y-44286668D01*
X73656580Y-44409382D01*
X73669149Y-44537000D01*
X73656580Y-44664618D01*
X73640544Y-44717481D01*
X73619354Y-44787336D01*
X73558906Y-44900425D01*
X73477554Y-44999554D01*
X73378425Y-45080906D01*
X73265336Y-45141354D01*
X73233404Y-45151040D01*
X73142618Y-45178580D01*
X73091851Y-45183580D01*
X73046974Y-45188000D01*
X72433026Y-45188000D01*
X72388149Y-45183580D01*
X72337382Y-45178580D01*
X72246596Y-45151040D01*
X72214664Y-45141354D01*
X72101575Y-45080906D01*
X72002446Y-44999554D01*
X71921094Y-44900425D01*
X71860646Y-44787336D01*
X71839456Y-44717481D01*
X71823420Y-44664618D01*
X71810851Y-44537000D01*
X71823420Y-44409382D01*
X71860645Y-44286668D01*
X71860646Y-44286664D01*
X71921094Y-44173575D01*
X72002446Y-44074446D01*
X72101575Y-43993094D01*
X72214664Y-43932646D01*
X72256821Y-43919858D01*
X72337382Y-43895420D01*
X72401145Y-43889140D01*
X72433026Y-43886000D01*
X73046974Y-43886000D01*
X73078855Y-43889140D01*
X73078855Y-43889140D01*
G37*
G36*
X64115928Y-44355764D02*
G01*
X64137009Y-44362160D01*
X64156445Y-44372548D01*
X64173476Y-44386524D01*
X64187452Y-44403555D01*
X64197840Y-44422991D01*
X64204236Y-44444072D01*
X64207000Y-44472140D01*
X64207000Y-44935860D01*
X64204236Y-44963928D01*
X64197840Y-44985009D01*
X64187452Y-45004445D01*
X64173476Y-45021476D01*
X64156445Y-45035452D01*
X64137009Y-45045840D01*
X64115928Y-45052236D01*
X64087860Y-45055000D01*
X62274140Y-45055000D01*
X62246072Y-45052236D01*
X62224991Y-45045840D01*
X62205555Y-45035452D01*
X62188524Y-45021476D01*
X62174548Y-45004445D01*
X62164160Y-44985009D01*
X62157764Y-44963928D01*
X62155000Y-44935860D01*
X62155000Y-44472140D01*
X62157764Y-44444072D01*
X62164160Y-44422991D01*
X62174548Y-44403555D01*
X62188524Y-44386524D01*
X62205555Y-44372548D01*
X62224991Y-44362160D01*
X62246072Y-44355764D01*
X62274140Y-44353000D01*
X64087860Y-44353000D01*
X64115928Y-44355764D01*
X64115928Y-44355764D01*
G37*
G36*
X59165928Y-44355764D02*
G01*
X59187009Y-44362160D01*
X59206445Y-44372548D01*
X59223476Y-44386524D01*
X59237452Y-44403555D01*
X59247840Y-44422991D01*
X59254236Y-44444072D01*
X59257000Y-44472140D01*
X59257000Y-44935860D01*
X59254236Y-44963928D01*
X59247840Y-44985009D01*
X59237452Y-45004445D01*
X59223476Y-45021476D01*
X59206445Y-45035452D01*
X59187009Y-45045840D01*
X59165928Y-45052236D01*
X59137860Y-45055000D01*
X57324140Y-45055000D01*
X57296072Y-45052236D01*
X57274991Y-45045840D01*
X57255555Y-45035452D01*
X57238524Y-45021476D01*
X57224548Y-45004445D01*
X57214160Y-44985009D01*
X57207764Y-44963928D01*
X57205000Y-44935860D01*
X57205000Y-44472140D01*
X57207764Y-44444072D01*
X57214160Y-44422991D01*
X57224548Y-44403555D01*
X57238524Y-44386524D01*
X57255555Y-44372548D01*
X57274991Y-44362160D01*
X57296072Y-44355764D01*
X57324140Y-44353000D01*
X59137860Y-44353000D01*
X59165928Y-44355764D01*
X59165928Y-44355764D01*
G37*
G36*
X50437142Y-43348242D02*
G01*
X50585101Y-43409529D01*
X50718255Y-43498499D01*
X50831501Y-43611745D01*
X50920471Y-43744899D01*
X50981758Y-43892858D01*
X51013000Y-44049925D01*
X51013000Y-44210075D01*
X50981758Y-44367142D01*
X50920471Y-44515101D01*
X50831501Y-44648255D01*
X50718255Y-44761501D01*
X50585101Y-44850471D01*
X50437142Y-44911758D01*
X50280075Y-44943000D01*
X50119925Y-44943000D01*
X49962858Y-44911758D01*
X49814899Y-44850471D01*
X49681745Y-44761501D01*
X49568499Y-44648255D01*
X49479529Y-44515101D01*
X49418242Y-44367142D01*
X49387000Y-44210075D01*
X49387000Y-44049925D01*
X49418242Y-43892858D01*
X49479529Y-43744899D01*
X49568499Y-43611745D01*
X49681745Y-43498499D01*
X49814899Y-43409529D01*
X49962858Y-43348242D01*
X50119925Y-43317000D01*
X50280075Y-43317000D01*
X50437142Y-43348242D01*
X50437142Y-43348242D01*
G37*
G36*
X9667618Y-42933420D02*
G01*
X9748400Y-42957925D01*
X9790336Y-42970646D01*
X9903425Y-43031094D01*
X10002554Y-43112446D01*
X10083906Y-43211575D01*
X10144354Y-43324664D01*
X10144355Y-43324668D01*
X10181580Y-43447382D01*
X10191000Y-43543027D01*
X10191000Y-44156973D01*
X10181580Y-44252618D01*
X10171252Y-44286664D01*
X10144354Y-44375336D01*
X10083906Y-44488425D01*
X10002554Y-44587553D01*
X9903424Y-44668906D01*
X9790335Y-44729354D01*
X9758403Y-44739040D01*
X9667617Y-44766580D01*
X9540000Y-44779149D01*
X9412382Y-44766580D01*
X9321596Y-44739040D01*
X9289664Y-44729354D01*
X9176575Y-44668906D01*
X9077447Y-44587554D01*
X8996094Y-44488424D01*
X8935646Y-44375335D01*
X8910265Y-44291664D01*
X8898420Y-44252617D01*
X8889000Y-44156972D01*
X8889000Y-43543027D01*
X8898420Y-43447382D01*
X8923237Y-43365573D01*
X8935645Y-43324667D01*
X8984298Y-43233645D01*
X8996095Y-43211574D01*
X9009493Y-43195249D01*
X9077447Y-43112446D01*
X9176576Y-43031094D01*
X9289665Y-42970646D01*
X9331601Y-42957925D01*
X9412383Y-42933420D01*
X9540000Y-42920851D01*
X9667618Y-42933420D01*
X9667618Y-42933420D01*
G37*
G36*
X13667618Y-42933420D02*
G01*
X13748400Y-42957925D01*
X13790336Y-42970646D01*
X13903425Y-43031094D01*
X14002554Y-43112446D01*
X14083906Y-43211575D01*
X14144354Y-43324664D01*
X14144355Y-43324668D01*
X14181580Y-43447382D01*
X14191000Y-43543027D01*
X14191000Y-44156973D01*
X14181580Y-44252618D01*
X14171252Y-44286664D01*
X14144354Y-44375336D01*
X14083906Y-44488425D01*
X14002554Y-44587553D01*
X13903424Y-44668906D01*
X13790335Y-44729354D01*
X13758403Y-44739040D01*
X13667617Y-44766580D01*
X13540000Y-44779149D01*
X13412382Y-44766580D01*
X13321596Y-44739040D01*
X13289664Y-44729354D01*
X13176575Y-44668906D01*
X13077447Y-44587554D01*
X12996094Y-44488424D01*
X12935646Y-44375335D01*
X12910265Y-44291664D01*
X12898420Y-44252617D01*
X12889000Y-44156972D01*
X12889000Y-43543027D01*
X12898420Y-43447382D01*
X12923237Y-43365573D01*
X12935645Y-43324667D01*
X12984298Y-43233645D01*
X12996095Y-43211574D01*
X13009493Y-43195249D01*
X13077447Y-43112446D01*
X13176576Y-43031094D01*
X13289665Y-42970646D01*
X13331601Y-42957925D01*
X13412383Y-42933420D01*
X13540000Y-42920851D01*
X13667618Y-42933420D01*
X13667618Y-42933420D01*
G37*
G36*
X11667618Y-42933420D02*
G01*
X11748400Y-42957925D01*
X11790336Y-42970646D01*
X11903425Y-43031094D01*
X12002554Y-43112446D01*
X12083906Y-43211575D01*
X12144354Y-43324664D01*
X12144355Y-43324668D01*
X12181580Y-43447382D01*
X12191000Y-43543027D01*
X12191000Y-44156973D01*
X12181580Y-44252618D01*
X12171252Y-44286664D01*
X12144354Y-44375336D01*
X12083906Y-44488425D01*
X12002554Y-44587553D01*
X11903424Y-44668906D01*
X11790335Y-44729354D01*
X11758403Y-44739040D01*
X11667617Y-44766580D01*
X11540000Y-44779149D01*
X11412382Y-44766580D01*
X11321596Y-44739040D01*
X11289664Y-44729354D01*
X11176575Y-44668906D01*
X11077447Y-44587554D01*
X10996094Y-44488424D01*
X10935646Y-44375335D01*
X10910265Y-44291664D01*
X10898420Y-44252617D01*
X10889000Y-44156972D01*
X10889000Y-43543027D01*
X10898420Y-43447382D01*
X10923237Y-43365573D01*
X10935645Y-43324667D01*
X10984298Y-43233645D01*
X10996095Y-43211574D01*
X11009493Y-43195249D01*
X11077447Y-43112446D01*
X11176576Y-43031094D01*
X11289665Y-42970646D01*
X11331601Y-42957925D01*
X11412383Y-42933420D01*
X11540000Y-42920851D01*
X11667618Y-42933420D01*
X11667618Y-42933420D01*
G37*
G36*
X16031242Y-42928404D02*
G01*
X16068337Y-42939657D01*
X16102515Y-42957925D01*
X16132481Y-42982519D01*
X16157075Y-43012485D01*
X16175343Y-43046663D01*
X16186596Y-43083758D01*
X16191000Y-43128474D01*
X16191000Y-44571526D01*
X16186596Y-44616242D01*
X16175343Y-44653337D01*
X16157075Y-44687515D01*
X16132481Y-44717481D01*
X16102515Y-44742075D01*
X16068337Y-44760343D01*
X16031242Y-44771596D01*
X15986526Y-44776000D01*
X15093474Y-44776000D01*
X15048758Y-44771596D01*
X15011663Y-44760343D01*
X14977485Y-44742075D01*
X14947519Y-44717481D01*
X14922925Y-44687515D01*
X14904657Y-44653337D01*
X14893404Y-44616242D01*
X14889000Y-44571526D01*
X14889000Y-43128474D01*
X14893404Y-43083758D01*
X14904657Y-43046663D01*
X14922925Y-43012485D01*
X14947519Y-42982519D01*
X14977485Y-42957925D01*
X15011663Y-42939657D01*
X15048758Y-42928404D01*
X15093474Y-42924000D01*
X15986526Y-42924000D01*
X16031242Y-42928404D01*
X16031242Y-42928404D01*
G37*
G36*
X59165928Y-43085764D02*
G01*
X59187009Y-43092160D01*
X59206445Y-43102548D01*
X59223476Y-43116524D01*
X59237452Y-43133555D01*
X59247840Y-43152991D01*
X59254236Y-43174072D01*
X59257000Y-43202140D01*
X59257000Y-43665860D01*
X59254236Y-43693928D01*
X59247840Y-43715009D01*
X59237452Y-43734445D01*
X59223476Y-43751476D01*
X59206445Y-43765452D01*
X59187009Y-43775840D01*
X59165928Y-43782236D01*
X59137860Y-43785000D01*
X57324140Y-43785000D01*
X57296072Y-43782236D01*
X57274991Y-43775840D01*
X57255555Y-43765452D01*
X57238524Y-43751476D01*
X57224548Y-43734445D01*
X57214160Y-43715009D01*
X57207764Y-43693928D01*
X57205000Y-43665860D01*
X57205000Y-43202140D01*
X57207764Y-43174072D01*
X57214160Y-43152991D01*
X57224548Y-43133555D01*
X57238524Y-43116524D01*
X57255555Y-43102548D01*
X57274991Y-43092160D01*
X57296072Y-43085764D01*
X57324140Y-43083000D01*
X59137860Y-43083000D01*
X59165928Y-43085764D01*
X59165928Y-43085764D01*
G37*
G36*
X64115928Y-43085764D02*
G01*
X64137009Y-43092160D01*
X64156445Y-43102548D01*
X64173476Y-43116524D01*
X64187452Y-43133555D01*
X64197840Y-43152991D01*
X64204236Y-43174072D01*
X64207000Y-43202140D01*
X64207000Y-43665860D01*
X64204236Y-43693928D01*
X64197840Y-43715009D01*
X64187452Y-43734445D01*
X64173476Y-43751476D01*
X64156445Y-43765452D01*
X64137009Y-43775840D01*
X64115928Y-43782236D01*
X64087860Y-43785000D01*
X62274140Y-43785000D01*
X62246072Y-43782236D01*
X62224991Y-43775840D01*
X62205555Y-43765452D01*
X62188524Y-43751476D01*
X62174548Y-43734445D01*
X62164160Y-43715009D01*
X62157764Y-43693928D01*
X62155000Y-43665860D01*
X62155000Y-43202140D01*
X62157764Y-43174072D01*
X62164160Y-43152991D01*
X62174548Y-43133555D01*
X62188524Y-43116524D01*
X62205555Y-43102548D01*
X62224991Y-43092160D01*
X62246072Y-43085764D01*
X62274140Y-43083000D01*
X64087860Y-43083000D01*
X64115928Y-43085764D01*
X64115928Y-43085764D01*
G37*
G36*
X67538855Y-41894140D02*
G01*
X67602618Y-41900420D01*
X67671578Y-41921339D01*
X67725336Y-41937646D01*
X67838425Y-41998094D01*
X67937554Y-42079446D01*
X68018906Y-42178575D01*
X68079354Y-42291664D01*
X68079355Y-42291668D01*
X68116580Y-42414382D01*
X68129149Y-42542000D01*
X68116580Y-42669618D01*
X68089040Y-42760404D01*
X68079354Y-42792336D01*
X68018906Y-42905425D01*
X67937554Y-43004554D01*
X67838425Y-43085906D01*
X67725336Y-43146354D01*
X67703456Y-43152991D01*
X67602618Y-43183580D01*
X67538855Y-43189860D01*
X67506974Y-43193000D01*
X66893026Y-43193000D01*
X66861145Y-43189860D01*
X66797382Y-43183580D01*
X66696544Y-43152991D01*
X66674664Y-43146354D01*
X66561575Y-43085906D01*
X66462446Y-43004554D01*
X66381094Y-42905425D01*
X66320646Y-42792336D01*
X66310960Y-42760404D01*
X66283420Y-42669618D01*
X66270851Y-42542000D01*
X66283420Y-42414382D01*
X66320645Y-42291668D01*
X66320646Y-42291664D01*
X66381094Y-42178575D01*
X66462446Y-42079446D01*
X66561575Y-41998094D01*
X66674664Y-41937646D01*
X66728422Y-41921339D01*
X66797382Y-41900420D01*
X66861145Y-41894140D01*
X66893026Y-41891000D01*
X67506974Y-41891000D01*
X67538855Y-41894140D01*
X67538855Y-41894140D01*
G37*
G36*
X73078855Y-41889140D02*
G01*
X73142618Y-41895420D01*
X73228061Y-41921339D01*
X73265336Y-41932646D01*
X73378425Y-41993094D01*
X73477554Y-42074446D01*
X73558906Y-42173575D01*
X73619354Y-42286664D01*
X73619355Y-42286668D01*
X73656580Y-42409382D01*
X73669149Y-42537000D01*
X73656580Y-42664618D01*
X73652119Y-42679323D01*
X73619354Y-42787336D01*
X73558906Y-42900425D01*
X73477554Y-42999554D01*
X73378425Y-43080906D01*
X73265336Y-43141354D01*
X73233404Y-43151040D01*
X73142618Y-43178580D01*
X73091851Y-43183580D01*
X73046974Y-43188000D01*
X72433026Y-43188000D01*
X72388149Y-43183580D01*
X72337382Y-43178580D01*
X72246596Y-43151040D01*
X72214664Y-43141354D01*
X72101575Y-43080906D01*
X72002446Y-42999554D01*
X71921094Y-42900425D01*
X71860646Y-42787336D01*
X71827881Y-42679323D01*
X71823420Y-42664618D01*
X71810851Y-42537000D01*
X71823420Y-42409382D01*
X71860645Y-42286668D01*
X71860646Y-42286664D01*
X71921094Y-42173575D01*
X72002446Y-42074446D01*
X72101575Y-41993094D01*
X72214664Y-41932646D01*
X72251939Y-41921339D01*
X72337382Y-41895420D01*
X72401145Y-41889140D01*
X72433026Y-41886000D01*
X73046974Y-41886000D01*
X73078855Y-41889140D01*
X73078855Y-41889140D01*
G37*
G36*
X64115928Y-41815764D02*
G01*
X64137009Y-41822160D01*
X64156445Y-41832548D01*
X64173476Y-41846524D01*
X64187452Y-41863555D01*
X64197840Y-41882991D01*
X64204236Y-41904072D01*
X64207000Y-41932140D01*
X64207000Y-42395860D01*
X64204236Y-42423928D01*
X64197840Y-42445009D01*
X64187452Y-42464445D01*
X64173476Y-42481476D01*
X64156445Y-42495452D01*
X64137009Y-42505840D01*
X64115928Y-42512236D01*
X64087860Y-42515000D01*
X62274140Y-42515000D01*
X62246072Y-42512236D01*
X62224991Y-42505840D01*
X62205555Y-42495452D01*
X62188524Y-42481476D01*
X62174548Y-42464445D01*
X62164160Y-42445009D01*
X62157764Y-42423928D01*
X62155000Y-42395860D01*
X62155000Y-41932140D01*
X62157764Y-41904072D01*
X62164160Y-41882991D01*
X62174548Y-41863555D01*
X62188524Y-41846524D01*
X62205555Y-41832548D01*
X62224991Y-41822160D01*
X62246072Y-41815764D01*
X62274140Y-41813000D01*
X64087860Y-41813000D01*
X64115928Y-41815764D01*
X64115928Y-41815764D01*
G37*
G36*
X59165928Y-41815764D02*
G01*
X59187009Y-41822160D01*
X59206445Y-41832548D01*
X59223476Y-41846524D01*
X59237452Y-41863555D01*
X59247840Y-41882991D01*
X59254236Y-41904072D01*
X59257000Y-41932140D01*
X59257000Y-42395860D01*
X59254236Y-42423928D01*
X59247840Y-42445009D01*
X59237452Y-42464445D01*
X59223476Y-42481476D01*
X59206445Y-42495452D01*
X59187009Y-42505840D01*
X59165928Y-42512236D01*
X59137860Y-42515000D01*
X57324140Y-42515000D01*
X57296072Y-42512236D01*
X57274991Y-42505840D01*
X57255555Y-42495452D01*
X57238524Y-42481476D01*
X57224548Y-42464445D01*
X57214160Y-42445009D01*
X57207764Y-42423928D01*
X57205000Y-42395860D01*
X57205000Y-41932140D01*
X57207764Y-41904072D01*
X57214160Y-41882991D01*
X57224548Y-41863555D01*
X57238524Y-41846524D01*
X57255555Y-41832548D01*
X57274991Y-41822160D01*
X57296072Y-41815764D01*
X57324140Y-41813000D01*
X59137860Y-41813000D01*
X59165928Y-41815764D01*
X59165928Y-41815764D01*
G37*
G36*
X50437142Y-40808242D02*
G01*
X50585101Y-40869529D01*
X50718255Y-40958499D01*
X50831501Y-41071745D01*
X50920471Y-41204899D01*
X50981758Y-41352858D01*
X51013000Y-41509925D01*
X51013000Y-41670075D01*
X50981758Y-41827142D01*
X50920471Y-41975101D01*
X50831501Y-42108255D01*
X50718255Y-42221501D01*
X50585101Y-42310471D01*
X50437142Y-42371758D01*
X50280075Y-42403000D01*
X50119925Y-42403000D01*
X49962858Y-42371758D01*
X49814899Y-42310471D01*
X49681745Y-42221501D01*
X49568499Y-42108255D01*
X49479529Y-41975101D01*
X49418242Y-41827142D01*
X49387000Y-41670075D01*
X49387000Y-41509925D01*
X49418242Y-41352858D01*
X49479529Y-41204899D01*
X49568499Y-41071745D01*
X49681745Y-40958499D01*
X49814899Y-40869529D01*
X49962858Y-40808242D01*
X50119925Y-40777000D01*
X50280075Y-40777000D01*
X50437142Y-40808242D01*
X50437142Y-40808242D01*
G37*
G36*
X59165928Y-40545764D02*
G01*
X59187009Y-40552160D01*
X59206445Y-40562548D01*
X59223476Y-40576524D01*
X59237452Y-40593555D01*
X59247840Y-40612991D01*
X59254236Y-40634072D01*
X59257000Y-40662140D01*
X59257000Y-41125860D01*
X59254236Y-41153928D01*
X59247840Y-41175009D01*
X59237452Y-41194445D01*
X59223476Y-41211476D01*
X59206445Y-41225452D01*
X59187009Y-41235840D01*
X59165928Y-41242236D01*
X59137860Y-41245000D01*
X57324140Y-41245000D01*
X57296072Y-41242236D01*
X57274991Y-41235840D01*
X57255555Y-41225452D01*
X57238524Y-41211476D01*
X57224548Y-41194445D01*
X57214160Y-41175009D01*
X57207764Y-41153928D01*
X57205000Y-41125860D01*
X57205000Y-40662140D01*
X57207764Y-40634072D01*
X57214160Y-40612991D01*
X57224548Y-40593555D01*
X57238524Y-40576524D01*
X57255555Y-40562548D01*
X57274991Y-40552160D01*
X57296072Y-40545764D01*
X57324140Y-40543000D01*
X59137860Y-40543000D01*
X59165928Y-40545764D01*
X59165928Y-40545764D01*
G37*
G36*
X64115928Y-40545764D02*
G01*
X64137009Y-40552160D01*
X64156445Y-40562548D01*
X64173476Y-40576524D01*
X64187452Y-40593555D01*
X64197840Y-40612991D01*
X64204236Y-40634072D01*
X64207000Y-40662140D01*
X64207000Y-41125860D01*
X64204236Y-41153928D01*
X64197840Y-41175009D01*
X64187452Y-41194445D01*
X64173476Y-41211476D01*
X64156445Y-41225452D01*
X64137009Y-41235840D01*
X64115928Y-41242236D01*
X64087860Y-41245000D01*
X62274140Y-41245000D01*
X62246072Y-41242236D01*
X62224991Y-41235840D01*
X62205555Y-41225452D01*
X62188524Y-41211476D01*
X62174548Y-41194445D01*
X62164160Y-41175009D01*
X62157764Y-41153928D01*
X62155000Y-41125860D01*
X62155000Y-40662140D01*
X62157764Y-40634072D01*
X62164160Y-40612991D01*
X62174548Y-40593555D01*
X62188524Y-40576524D01*
X62205555Y-40562548D01*
X62224991Y-40552160D01*
X62246072Y-40545764D01*
X62274140Y-40543000D01*
X64087860Y-40543000D01*
X64115928Y-40545764D01*
X64115928Y-40545764D01*
G37*
G36*
X67538855Y-39894140D02*
G01*
X67602618Y-39900420D01*
X67693404Y-39927960D01*
X67725336Y-39937646D01*
X67838425Y-39998094D01*
X67937554Y-40079446D01*
X68018906Y-40178575D01*
X68079354Y-40291664D01*
X68079355Y-40291668D01*
X68116580Y-40414382D01*
X68129149Y-40542000D01*
X68116580Y-40669618D01*
X68089040Y-40760404D01*
X68079354Y-40792336D01*
X68018906Y-40905425D01*
X67937554Y-41004554D01*
X67838425Y-41085906D01*
X67725336Y-41146354D01*
X67700367Y-41153928D01*
X67602618Y-41183580D01*
X67538855Y-41189860D01*
X67506974Y-41193000D01*
X66893026Y-41193000D01*
X66861145Y-41189860D01*
X66797382Y-41183580D01*
X66699633Y-41153928D01*
X66674664Y-41146354D01*
X66561575Y-41085906D01*
X66462446Y-41004554D01*
X66381094Y-40905425D01*
X66320646Y-40792336D01*
X66310960Y-40760404D01*
X66283420Y-40669618D01*
X66270851Y-40542000D01*
X66283420Y-40414382D01*
X66320645Y-40291668D01*
X66320646Y-40291664D01*
X66381094Y-40178575D01*
X66462446Y-40079446D01*
X66561575Y-39998094D01*
X66674664Y-39937646D01*
X66706596Y-39927960D01*
X66797382Y-39900420D01*
X66861145Y-39894140D01*
X66893026Y-39891000D01*
X67506974Y-39891000D01*
X67538855Y-39894140D01*
X67538855Y-39894140D01*
G37*
G36*
X73078855Y-39889140D02*
G01*
X73142618Y-39895420D01*
X73233404Y-39922960D01*
X73265336Y-39932646D01*
X73378425Y-39993094D01*
X73477554Y-40074446D01*
X73558906Y-40173575D01*
X73619354Y-40286664D01*
X73619355Y-40286668D01*
X73656580Y-40409382D01*
X73669149Y-40537000D01*
X73656580Y-40664618D01*
X73655063Y-40669618D01*
X73619354Y-40787336D01*
X73558906Y-40900425D01*
X73477554Y-40999554D01*
X73378425Y-41080906D01*
X73265336Y-41141354D01*
X73233404Y-41151040D01*
X73142618Y-41178580D01*
X73091851Y-41183580D01*
X73046974Y-41188000D01*
X72433026Y-41188000D01*
X72388149Y-41183580D01*
X72337382Y-41178580D01*
X72246596Y-41151040D01*
X72214664Y-41141354D01*
X72101575Y-41080906D01*
X72002446Y-40999554D01*
X71921094Y-40900425D01*
X71860646Y-40787336D01*
X71824937Y-40669618D01*
X71823420Y-40664618D01*
X71810851Y-40537000D01*
X71823420Y-40409382D01*
X71860645Y-40286668D01*
X71860646Y-40286664D01*
X71921094Y-40173575D01*
X72002446Y-40074446D01*
X72101575Y-39993094D01*
X72214664Y-39932646D01*
X72246596Y-39922960D01*
X72337382Y-39895420D01*
X72401145Y-39889140D01*
X72433026Y-39886000D01*
X73046974Y-39886000D01*
X73078855Y-39889140D01*
X73078855Y-39889140D01*
G37*
G36*
X21479544Y-37432083D02*
G01*
X21591616Y-37466080D01*
X21694894Y-37521283D01*
X21785422Y-37595578D01*
X21859717Y-37686106D01*
X21914920Y-37789384D01*
X21948917Y-37901456D01*
X21961000Y-38024140D01*
X21961000Y-39457860D01*
X21948917Y-39580544D01*
X21914920Y-39692616D01*
X21859717Y-39795894D01*
X21785422Y-39886422D01*
X21694894Y-39960717D01*
X21591616Y-40015920D01*
X21479544Y-40049917D01*
X21356860Y-40062000D01*
X17383140Y-40062000D01*
X17260456Y-40049917D01*
X17148384Y-40015920D01*
X17045106Y-39960717D01*
X16954578Y-39886422D01*
X16880283Y-39795894D01*
X16825080Y-39692616D01*
X16791083Y-39580544D01*
X16779000Y-39457860D01*
X16779000Y-38024140D01*
X16791083Y-37901456D01*
X16825080Y-37789384D01*
X16880283Y-37686106D01*
X16954578Y-37595578D01*
X17045106Y-37521283D01*
X17148384Y-37466080D01*
X17260456Y-37432083D01*
X17383140Y-37420000D01*
X21356860Y-37420000D01*
X21479544Y-37432083D01*
X21479544Y-37432083D01*
G37*
G36*
X10679544Y-37432083D02*
G01*
X10791616Y-37466080D01*
X10894894Y-37521283D01*
X10985422Y-37595578D01*
X11059717Y-37686106D01*
X11114920Y-37789384D01*
X11148917Y-37901456D01*
X11161000Y-38024140D01*
X11161000Y-39457860D01*
X11148917Y-39580544D01*
X11114920Y-39692616D01*
X11059717Y-39795894D01*
X10985422Y-39886422D01*
X10894894Y-39960717D01*
X10791616Y-40015920D01*
X10679544Y-40049917D01*
X10556860Y-40062000D01*
X6583140Y-40062000D01*
X6460456Y-40049917D01*
X6348384Y-40015920D01*
X6245106Y-39960717D01*
X6154578Y-39886422D01*
X6080283Y-39795894D01*
X6025080Y-39692616D01*
X5991083Y-39580544D01*
X5979000Y-39457860D01*
X5979000Y-38024140D01*
X5991083Y-37901456D01*
X6025080Y-37789384D01*
X6080283Y-37686106D01*
X6154578Y-37595578D01*
X6245106Y-37521283D01*
X6348384Y-37466080D01*
X6460456Y-37432083D01*
X6583140Y-37420000D01*
X10556860Y-37420000D01*
X10679544Y-37432083D01*
X10679544Y-37432083D01*
G37*
G36*
X59165928Y-39275764D02*
G01*
X59187009Y-39282160D01*
X59206445Y-39292548D01*
X59223476Y-39306524D01*
X59237452Y-39323555D01*
X59247840Y-39342991D01*
X59254236Y-39364072D01*
X59257000Y-39392140D01*
X59257000Y-39855860D01*
X59254236Y-39883928D01*
X59247840Y-39905009D01*
X59237452Y-39924445D01*
X59223476Y-39941476D01*
X59206445Y-39955452D01*
X59187009Y-39965840D01*
X59165928Y-39972236D01*
X59137860Y-39975000D01*
X57324140Y-39975000D01*
X57296072Y-39972236D01*
X57274991Y-39965840D01*
X57255555Y-39955452D01*
X57238524Y-39941476D01*
X57224548Y-39924445D01*
X57214160Y-39905009D01*
X57207764Y-39883928D01*
X57205000Y-39855860D01*
X57205000Y-39392140D01*
X57207764Y-39364072D01*
X57214160Y-39342991D01*
X57224548Y-39323555D01*
X57238524Y-39306524D01*
X57255555Y-39292548D01*
X57274991Y-39282160D01*
X57296072Y-39275764D01*
X57324140Y-39273000D01*
X59137860Y-39273000D01*
X59165928Y-39275764D01*
X59165928Y-39275764D01*
G37*
G36*
X64115928Y-39275764D02*
G01*
X64137009Y-39282160D01*
X64156445Y-39292548D01*
X64173476Y-39306524D01*
X64187452Y-39323555D01*
X64197840Y-39342991D01*
X64204236Y-39364072D01*
X64207000Y-39392140D01*
X64207000Y-39855860D01*
X64204236Y-39883928D01*
X64197840Y-39905009D01*
X64187452Y-39924445D01*
X64173476Y-39941476D01*
X64156445Y-39955452D01*
X64137009Y-39965840D01*
X64115928Y-39972236D01*
X64087860Y-39975000D01*
X62274140Y-39975000D01*
X62246072Y-39972236D01*
X62224991Y-39965840D01*
X62205555Y-39955452D01*
X62188524Y-39941476D01*
X62174548Y-39924445D01*
X62164160Y-39905009D01*
X62157764Y-39883928D01*
X62155000Y-39855860D01*
X62155000Y-39392140D01*
X62157764Y-39364072D01*
X62164160Y-39342991D01*
X62174548Y-39323555D01*
X62188524Y-39306524D01*
X62205555Y-39292548D01*
X62224991Y-39282160D01*
X62246072Y-39275764D01*
X62274140Y-39273000D01*
X64087860Y-39273000D01*
X64115928Y-39275764D01*
X64115928Y-39275764D01*
G37*
G36*
X50437142Y-38268242D02*
G01*
X50585101Y-38329529D01*
X50718255Y-38418499D01*
X50831501Y-38531745D01*
X50920471Y-38664899D01*
X50981758Y-38812858D01*
X51013000Y-38969925D01*
X51013000Y-39130075D01*
X50981758Y-39287142D01*
X50920471Y-39435101D01*
X50831501Y-39568255D01*
X50718255Y-39681501D01*
X50585101Y-39770471D01*
X50437142Y-39831758D01*
X50280075Y-39863000D01*
X50119925Y-39863000D01*
X49962858Y-39831758D01*
X49814899Y-39770471D01*
X49681745Y-39681501D01*
X49568499Y-39568255D01*
X49479529Y-39435101D01*
X49418242Y-39287142D01*
X49387000Y-39130075D01*
X49387000Y-38969925D01*
X49418242Y-38812858D01*
X49479529Y-38664899D01*
X49568499Y-38531745D01*
X49681745Y-38418499D01*
X49814899Y-38329529D01*
X49962858Y-38268242D01*
X50119925Y-38237000D01*
X50280075Y-38237000D01*
X50437142Y-38268242D01*
X50437142Y-38268242D01*
G37*
G36*
X67538855Y-37894140D02*
G01*
X67602618Y-37900420D01*
X67693404Y-37927960D01*
X67725336Y-37937646D01*
X67838425Y-37998094D01*
X67937554Y-38079446D01*
X68018906Y-38178575D01*
X68079354Y-38291664D01*
X68079355Y-38291668D01*
X68116580Y-38414382D01*
X68129149Y-38542000D01*
X68116580Y-38669618D01*
X68089040Y-38760404D01*
X68079354Y-38792336D01*
X68018906Y-38905425D01*
X67937554Y-39004554D01*
X67838425Y-39085906D01*
X67725336Y-39146354D01*
X67693404Y-39156040D01*
X67602618Y-39183580D01*
X67538855Y-39189860D01*
X67506974Y-39193000D01*
X66893026Y-39193000D01*
X66861145Y-39189860D01*
X66797382Y-39183580D01*
X66706596Y-39156040D01*
X66674664Y-39146354D01*
X66561575Y-39085906D01*
X66462446Y-39004554D01*
X66381094Y-38905425D01*
X66320646Y-38792336D01*
X66310960Y-38760404D01*
X66283420Y-38669618D01*
X66270851Y-38542000D01*
X66283420Y-38414382D01*
X66320645Y-38291668D01*
X66320646Y-38291664D01*
X66381094Y-38178575D01*
X66462446Y-38079446D01*
X66561575Y-37998094D01*
X66674664Y-37937646D01*
X66706596Y-37927960D01*
X66797382Y-37900420D01*
X66861145Y-37894140D01*
X66893026Y-37891000D01*
X67506974Y-37891000D01*
X67538855Y-37894140D01*
X67538855Y-37894140D01*
G37*
G36*
X73078855Y-37889140D02*
G01*
X73142618Y-37895420D01*
X73233404Y-37922960D01*
X73265336Y-37932646D01*
X73378425Y-37993094D01*
X73477554Y-38074446D01*
X73558906Y-38173575D01*
X73619354Y-38286664D01*
X73619355Y-38286668D01*
X73656580Y-38409382D01*
X73669149Y-38537000D01*
X73656580Y-38664618D01*
X73655063Y-38669618D01*
X73619354Y-38787336D01*
X73558906Y-38900425D01*
X73477554Y-38999554D01*
X73378425Y-39080906D01*
X73265336Y-39141354D01*
X73233404Y-39151040D01*
X73142618Y-39178580D01*
X73091851Y-39183580D01*
X73046974Y-39188000D01*
X72433026Y-39188000D01*
X72388149Y-39183580D01*
X72337382Y-39178580D01*
X72246596Y-39151040D01*
X72214664Y-39141354D01*
X72101575Y-39080906D01*
X72002446Y-38999554D01*
X71921094Y-38900425D01*
X71860646Y-38787336D01*
X71824937Y-38669618D01*
X71823420Y-38664618D01*
X71810851Y-38537000D01*
X71823420Y-38409382D01*
X71860645Y-38286668D01*
X71860646Y-38286664D01*
X71921094Y-38173575D01*
X72002446Y-38074446D01*
X72101575Y-37993094D01*
X72214664Y-37932646D01*
X72246596Y-37922960D01*
X72337382Y-37895420D01*
X72401145Y-37889140D01*
X72433026Y-37886000D01*
X73046974Y-37886000D01*
X73078855Y-37889140D01*
X73078855Y-37889140D01*
G37*
G36*
X64115928Y-37497764D02*
G01*
X64137009Y-37504160D01*
X64156445Y-37514548D01*
X64173476Y-37528524D01*
X64187452Y-37545555D01*
X64197840Y-37564991D01*
X64204236Y-37586072D01*
X64207000Y-37614140D01*
X64207000Y-38077860D01*
X64204236Y-38105928D01*
X64197840Y-38127009D01*
X64187452Y-38146445D01*
X64173476Y-38163476D01*
X64156445Y-38177452D01*
X64137009Y-38187840D01*
X64115928Y-38194236D01*
X64087860Y-38197000D01*
X62274140Y-38197000D01*
X62246072Y-38194236D01*
X62224991Y-38187840D01*
X62205555Y-38177452D01*
X62188524Y-38163476D01*
X62174548Y-38146445D01*
X62164160Y-38127009D01*
X62157764Y-38105928D01*
X62155000Y-38077860D01*
X62155000Y-37614140D01*
X62157764Y-37586072D01*
X62164160Y-37564991D01*
X62174548Y-37545555D01*
X62188524Y-37528524D01*
X62205555Y-37514548D01*
X62224991Y-37504160D01*
X62246072Y-37497764D01*
X62274140Y-37495000D01*
X64087860Y-37495000D01*
X64115928Y-37497764D01*
X64115928Y-37497764D01*
G37*
G36*
X59165928Y-37497764D02*
G01*
X59187009Y-37504160D01*
X59206445Y-37514548D01*
X59223476Y-37528524D01*
X59237452Y-37545555D01*
X59247840Y-37564991D01*
X59254236Y-37586072D01*
X59257000Y-37614140D01*
X59257000Y-38077860D01*
X59254236Y-38105928D01*
X59247840Y-38127009D01*
X59237452Y-38146445D01*
X59223476Y-38163476D01*
X59206445Y-38177452D01*
X59187009Y-38187840D01*
X59165928Y-38194236D01*
X59137860Y-38197000D01*
X57324140Y-38197000D01*
X57296072Y-38194236D01*
X57274991Y-38187840D01*
X57255555Y-38177452D01*
X57238524Y-38163476D01*
X57224548Y-38146445D01*
X57214160Y-38127009D01*
X57207764Y-38105928D01*
X57205000Y-38077860D01*
X57205000Y-37614140D01*
X57207764Y-37586072D01*
X57214160Y-37564991D01*
X57224548Y-37545555D01*
X57238524Y-37528524D01*
X57255555Y-37514548D01*
X57274991Y-37504160D01*
X57296072Y-37497764D01*
X57324140Y-37495000D01*
X59137860Y-37495000D01*
X59165928Y-37497764D01*
X59165928Y-37497764D01*
G37*
G36*
X50437142Y-35728242D02*
G01*
X50585101Y-35789529D01*
X50718255Y-35878499D01*
X50831501Y-35991745D01*
X50920471Y-36124899D01*
X50981758Y-36272858D01*
X51013000Y-36429925D01*
X51013000Y-36590075D01*
X50981758Y-36747142D01*
X50920471Y-36895101D01*
X50831501Y-37028255D01*
X50718255Y-37141501D01*
X50585101Y-37230471D01*
X50437142Y-37291758D01*
X50280075Y-37323000D01*
X50119925Y-37323000D01*
X49962858Y-37291758D01*
X49814899Y-37230471D01*
X49681745Y-37141501D01*
X49568499Y-37028255D01*
X49479529Y-36895101D01*
X49418242Y-36747142D01*
X49387000Y-36590075D01*
X49387000Y-36429925D01*
X49418242Y-36272858D01*
X49479529Y-36124899D01*
X49568499Y-35991745D01*
X49681745Y-35878499D01*
X49814899Y-35789529D01*
X49962858Y-35728242D01*
X50119925Y-35697000D01*
X50280075Y-35697000D01*
X50437142Y-35728242D01*
X50437142Y-35728242D01*
G37*
G36*
X67538855Y-35894140D02*
G01*
X67602618Y-35900420D01*
X67693404Y-35927960D01*
X67725336Y-35937646D01*
X67838425Y-35998094D01*
X67937554Y-36079446D01*
X68018906Y-36178575D01*
X68079354Y-36291664D01*
X68079355Y-36291668D01*
X68116580Y-36414382D01*
X68129149Y-36542000D01*
X68116580Y-36669618D01*
X68093063Y-36747142D01*
X68079354Y-36792336D01*
X68018906Y-36905425D01*
X67937554Y-37004554D01*
X67838425Y-37085906D01*
X67725336Y-37146354D01*
X67693404Y-37156040D01*
X67602618Y-37183580D01*
X67538855Y-37189860D01*
X67506974Y-37193000D01*
X66893026Y-37193000D01*
X66861145Y-37189860D01*
X66797382Y-37183580D01*
X66706596Y-37156040D01*
X66674664Y-37146354D01*
X66561575Y-37085906D01*
X66462446Y-37004554D01*
X66381094Y-36905425D01*
X66320646Y-36792336D01*
X66306937Y-36747142D01*
X66283420Y-36669618D01*
X66270851Y-36542000D01*
X66283420Y-36414382D01*
X66320645Y-36291668D01*
X66320646Y-36291664D01*
X66381094Y-36178575D01*
X66462446Y-36079446D01*
X66561575Y-35998094D01*
X66674664Y-35937646D01*
X66706596Y-35927960D01*
X66797382Y-35900420D01*
X66861145Y-35894140D01*
X66893026Y-35891000D01*
X67506974Y-35891000D01*
X67538855Y-35894140D01*
X67538855Y-35894140D01*
G37*
G36*
X73078855Y-35889140D02*
G01*
X73142618Y-35895420D01*
X73233404Y-35922960D01*
X73265336Y-35932646D01*
X73378425Y-35993094D01*
X73477554Y-36074446D01*
X73558906Y-36173575D01*
X73619354Y-36286664D01*
X73619355Y-36286668D01*
X73656580Y-36409382D01*
X73669149Y-36537000D01*
X73656580Y-36664618D01*
X73631546Y-36747143D01*
X73619354Y-36787336D01*
X73558906Y-36900425D01*
X73477554Y-36999554D01*
X73378425Y-37080906D01*
X73265336Y-37141354D01*
X73233404Y-37151040D01*
X73142618Y-37178580D01*
X73091851Y-37183580D01*
X73046974Y-37188000D01*
X72433026Y-37188000D01*
X72388149Y-37183580D01*
X72337382Y-37178580D01*
X72246596Y-37151040D01*
X72214664Y-37141354D01*
X72101575Y-37080906D01*
X72002446Y-36999554D01*
X71921094Y-36900425D01*
X71860646Y-36787336D01*
X71848454Y-36747143D01*
X71823420Y-36664618D01*
X71810851Y-36537000D01*
X71823420Y-36409382D01*
X71860645Y-36286668D01*
X71860646Y-36286664D01*
X71921094Y-36173575D01*
X72002446Y-36074446D01*
X72101575Y-35993094D01*
X72214664Y-35932646D01*
X72246596Y-35922960D01*
X72337382Y-35895420D01*
X72401145Y-35889140D01*
X72433026Y-35886000D01*
X73046974Y-35886000D01*
X73078855Y-35889140D01*
X73078855Y-35889140D01*
G37*
G36*
X64115928Y-36227764D02*
G01*
X64137009Y-36234160D01*
X64156445Y-36244548D01*
X64173476Y-36258524D01*
X64187452Y-36275555D01*
X64197840Y-36294991D01*
X64204236Y-36316072D01*
X64207000Y-36344140D01*
X64207000Y-36807860D01*
X64204236Y-36835928D01*
X64197840Y-36857009D01*
X64187452Y-36876445D01*
X64173476Y-36893476D01*
X64156445Y-36907452D01*
X64137009Y-36917840D01*
X64115928Y-36924236D01*
X64087860Y-36927000D01*
X62274140Y-36927000D01*
X62246072Y-36924236D01*
X62224991Y-36917840D01*
X62205555Y-36907452D01*
X62188524Y-36893476D01*
X62174548Y-36876445D01*
X62164160Y-36857009D01*
X62157764Y-36835928D01*
X62155000Y-36807860D01*
X62155000Y-36344140D01*
X62157764Y-36316072D01*
X62164160Y-36294991D01*
X62174548Y-36275555D01*
X62188524Y-36258524D01*
X62205555Y-36244548D01*
X62224991Y-36234160D01*
X62246072Y-36227764D01*
X62274140Y-36225000D01*
X64087860Y-36225000D01*
X64115928Y-36227764D01*
X64115928Y-36227764D01*
G37*
G36*
X59165928Y-36227764D02*
G01*
X59187009Y-36234160D01*
X59206445Y-36244548D01*
X59223476Y-36258524D01*
X59237452Y-36275555D01*
X59247840Y-36294991D01*
X59254236Y-36316072D01*
X59257000Y-36344140D01*
X59257000Y-36807860D01*
X59254236Y-36835928D01*
X59247840Y-36857009D01*
X59237452Y-36876445D01*
X59223476Y-36893476D01*
X59206445Y-36907452D01*
X59187009Y-36917840D01*
X59165928Y-36924236D01*
X59137860Y-36927000D01*
X57324140Y-36927000D01*
X57296072Y-36924236D01*
X57274991Y-36917840D01*
X57255555Y-36907452D01*
X57238524Y-36893476D01*
X57224548Y-36876445D01*
X57214160Y-36857009D01*
X57207764Y-36835928D01*
X57205000Y-36807860D01*
X57205000Y-36344140D01*
X57207764Y-36316072D01*
X57214160Y-36294991D01*
X57224548Y-36275555D01*
X57238524Y-36258524D01*
X57255555Y-36244548D01*
X57274991Y-36234160D01*
X57296072Y-36227764D01*
X57324140Y-36225000D01*
X59137860Y-36225000D01*
X59165928Y-36227764D01*
X59165928Y-36227764D01*
G37*
G36*
X64115928Y-34957764D02*
G01*
X64137009Y-34964160D01*
X64156445Y-34974548D01*
X64173476Y-34988524D01*
X64187452Y-35005555D01*
X64197840Y-35024991D01*
X64204236Y-35046072D01*
X64207000Y-35074140D01*
X64207000Y-35537860D01*
X64204236Y-35565928D01*
X64197840Y-35587009D01*
X64187452Y-35606445D01*
X64173476Y-35623476D01*
X64156445Y-35637452D01*
X64137009Y-35647840D01*
X64115928Y-35654236D01*
X64087860Y-35657000D01*
X62274140Y-35657000D01*
X62246072Y-35654236D01*
X62224991Y-35647840D01*
X62205555Y-35637452D01*
X62188524Y-35623476D01*
X62174548Y-35606445D01*
X62164160Y-35587009D01*
X62157764Y-35565928D01*
X62155000Y-35537860D01*
X62155000Y-35074140D01*
X62157764Y-35046072D01*
X62164160Y-35024991D01*
X62174548Y-35005555D01*
X62188524Y-34988524D01*
X62205555Y-34974548D01*
X62224991Y-34964160D01*
X62246072Y-34957764D01*
X62274140Y-34955000D01*
X64087860Y-34955000D01*
X64115928Y-34957764D01*
X64115928Y-34957764D01*
G37*
G36*
X59165928Y-34957764D02*
G01*
X59187009Y-34964160D01*
X59206445Y-34974548D01*
X59223476Y-34988524D01*
X59237452Y-35005555D01*
X59247840Y-35024991D01*
X59254236Y-35046072D01*
X59257000Y-35074140D01*
X59257000Y-35537860D01*
X59254236Y-35565928D01*
X59247840Y-35587009D01*
X59237452Y-35606445D01*
X59223476Y-35623476D01*
X59206445Y-35637452D01*
X59187009Y-35647840D01*
X59165928Y-35654236D01*
X59137860Y-35657000D01*
X57324140Y-35657000D01*
X57296072Y-35654236D01*
X57274991Y-35647840D01*
X57255555Y-35637452D01*
X57238524Y-35623476D01*
X57224548Y-35606445D01*
X57214160Y-35587009D01*
X57207764Y-35565928D01*
X57205000Y-35537860D01*
X57205000Y-35074140D01*
X57207764Y-35046072D01*
X57214160Y-35024991D01*
X57224548Y-35005555D01*
X57238524Y-34988524D01*
X57255555Y-34974548D01*
X57274991Y-34964160D01*
X57296072Y-34957764D01*
X57324140Y-34955000D01*
X59137860Y-34955000D01*
X59165928Y-34957764D01*
X59165928Y-34957764D01*
G37*
G36*
X67966242Y-33895404D02*
G01*
X68003337Y-33906657D01*
X68037515Y-33924925D01*
X68067481Y-33949519D01*
X68092075Y-33979485D01*
X68110343Y-34013663D01*
X68121596Y-34050758D01*
X68126000Y-34095474D01*
X68126000Y-34988526D01*
X68121596Y-35033242D01*
X68110343Y-35070337D01*
X68092075Y-35104515D01*
X68067481Y-35134481D01*
X68037515Y-35159075D01*
X68003337Y-35177343D01*
X67966242Y-35188596D01*
X67921526Y-35193000D01*
X66478474Y-35193000D01*
X66433758Y-35188596D01*
X66396663Y-35177343D01*
X66362485Y-35159075D01*
X66332519Y-35134481D01*
X66307925Y-35104515D01*
X66289657Y-35070337D01*
X66278404Y-35033242D01*
X66274000Y-34988526D01*
X66274000Y-34095474D01*
X66278404Y-34050758D01*
X66289657Y-34013663D01*
X66307925Y-33979485D01*
X66332519Y-33949519D01*
X66362485Y-33924925D01*
X66396663Y-33906657D01*
X66433758Y-33895404D01*
X66478474Y-33891000D01*
X67921526Y-33891000D01*
X67966242Y-33895404D01*
X67966242Y-33895404D01*
G37*
G36*
X73506242Y-33890404D02*
G01*
X73543337Y-33901657D01*
X73577515Y-33919925D01*
X73607481Y-33944519D01*
X73632075Y-33974485D01*
X73650343Y-34008663D01*
X73661596Y-34045758D01*
X73666000Y-34090474D01*
X73666000Y-34983526D01*
X73661596Y-35028242D01*
X73650343Y-35065337D01*
X73632075Y-35099515D01*
X73607481Y-35129481D01*
X73577515Y-35154075D01*
X73543337Y-35172343D01*
X73506242Y-35183596D01*
X73461526Y-35188000D01*
X72018474Y-35188000D01*
X71973758Y-35183596D01*
X71936663Y-35172343D01*
X71902485Y-35154075D01*
X71872519Y-35129481D01*
X71847925Y-35099515D01*
X71829657Y-35065337D01*
X71818404Y-35028242D01*
X71814000Y-34983526D01*
X71814000Y-34090474D01*
X71818404Y-34045758D01*
X71829657Y-34008663D01*
X71847925Y-33974485D01*
X71872519Y-33944519D01*
X71902485Y-33919925D01*
X71936663Y-33901657D01*
X71973758Y-33890404D01*
X72018474Y-33886000D01*
X73461526Y-33886000D01*
X73506242Y-33890404D01*
X73506242Y-33890404D01*
G37*
G36*
X50437142Y-33188242D02*
G01*
X50585101Y-33249529D01*
X50718255Y-33338499D01*
X50831501Y-33451745D01*
X50920471Y-33584899D01*
X50981758Y-33732858D01*
X51013000Y-33889925D01*
X51013000Y-34050075D01*
X50981758Y-34207142D01*
X50920471Y-34355101D01*
X50831501Y-34488255D01*
X50718255Y-34601501D01*
X50585101Y-34690471D01*
X50437142Y-34751758D01*
X50280075Y-34783000D01*
X50119925Y-34783000D01*
X49962858Y-34751758D01*
X49814899Y-34690471D01*
X49681745Y-34601501D01*
X49568499Y-34488255D01*
X49479529Y-34355101D01*
X49418242Y-34207142D01*
X49387000Y-34050075D01*
X49387000Y-33889925D01*
X49418242Y-33732858D01*
X49479529Y-33584899D01*
X49568499Y-33451745D01*
X49681745Y-33338499D01*
X49814899Y-33249529D01*
X49962858Y-33188242D01*
X50119925Y-33157000D01*
X50280075Y-33157000D01*
X50437142Y-33188242D01*
X50437142Y-33188242D01*
G37*
G36*
X64115928Y-33687764D02*
G01*
X64137009Y-33694160D01*
X64156445Y-33704548D01*
X64173476Y-33718524D01*
X64187452Y-33735555D01*
X64197840Y-33754991D01*
X64204236Y-33776072D01*
X64207000Y-33804140D01*
X64207000Y-34267860D01*
X64204236Y-34295928D01*
X64197840Y-34317009D01*
X64187452Y-34336445D01*
X64173476Y-34353476D01*
X64156445Y-34367452D01*
X64137009Y-34377840D01*
X64115928Y-34384236D01*
X64087860Y-34387000D01*
X62274140Y-34387000D01*
X62246072Y-34384236D01*
X62224991Y-34377840D01*
X62205555Y-34367452D01*
X62188524Y-34353476D01*
X62174548Y-34336445D01*
X62164160Y-34317009D01*
X62157764Y-34295928D01*
X62155000Y-34267860D01*
X62155000Y-33804140D01*
X62157764Y-33776072D01*
X62164160Y-33754991D01*
X62174548Y-33735555D01*
X62188524Y-33718524D01*
X62205555Y-33704548D01*
X62224991Y-33694160D01*
X62246072Y-33687764D01*
X62274140Y-33685000D01*
X64087860Y-33685000D01*
X64115928Y-33687764D01*
X64115928Y-33687764D01*
G37*
G36*
X59165928Y-33687764D02*
G01*
X59187009Y-33694160D01*
X59206445Y-33704548D01*
X59223476Y-33718524D01*
X59237452Y-33735555D01*
X59247840Y-33754991D01*
X59254236Y-33776072D01*
X59257000Y-33804140D01*
X59257000Y-34267860D01*
X59254236Y-34295928D01*
X59247840Y-34317009D01*
X59237452Y-34336445D01*
X59223476Y-34353476D01*
X59206445Y-34367452D01*
X59187009Y-34377840D01*
X59165928Y-34384236D01*
X59137860Y-34387000D01*
X57324140Y-34387000D01*
X57296072Y-34384236D01*
X57274991Y-34377840D01*
X57255555Y-34367452D01*
X57238524Y-34353476D01*
X57224548Y-34336445D01*
X57214160Y-34317009D01*
X57207764Y-34295928D01*
X57205000Y-34267860D01*
X57205000Y-33804140D01*
X57207764Y-33776072D01*
X57214160Y-33754991D01*
X57224548Y-33735555D01*
X57238524Y-33718524D01*
X57255555Y-33704548D01*
X57274991Y-33694160D01*
X57296072Y-33687764D01*
X57324140Y-33685000D01*
X59137860Y-33685000D01*
X59165928Y-33687764D01*
X59165928Y-33687764D01*
G37*
G36*
X64115928Y-32417764D02*
G01*
X64137009Y-32424160D01*
X64156445Y-32434548D01*
X64173476Y-32448524D01*
X64187452Y-32465555D01*
X64197840Y-32484991D01*
X64204236Y-32506072D01*
X64207000Y-32534140D01*
X64207000Y-32997860D01*
X64204236Y-33025928D01*
X64197840Y-33047009D01*
X64187452Y-33066445D01*
X64173476Y-33083476D01*
X64156445Y-33097452D01*
X64137009Y-33107840D01*
X64115928Y-33114236D01*
X64087860Y-33117000D01*
X62274140Y-33117000D01*
X62246072Y-33114236D01*
X62224991Y-33107840D01*
X62205555Y-33097452D01*
X62188524Y-33083476D01*
X62174548Y-33066445D01*
X62164160Y-33047009D01*
X62157764Y-33025928D01*
X62155000Y-32997860D01*
X62155000Y-32534140D01*
X62157764Y-32506072D01*
X62164160Y-32484991D01*
X62174548Y-32465555D01*
X62188524Y-32448524D01*
X62205555Y-32434548D01*
X62224991Y-32424160D01*
X62246072Y-32417764D01*
X62274140Y-32415000D01*
X64087860Y-32415000D01*
X64115928Y-32417764D01*
X64115928Y-32417764D01*
G37*
G36*
X59165928Y-32417764D02*
G01*
X59187009Y-32424160D01*
X59206445Y-32434548D01*
X59223476Y-32448524D01*
X59237452Y-32465555D01*
X59247840Y-32484991D01*
X59254236Y-32506072D01*
X59257000Y-32534140D01*
X59257000Y-32997860D01*
X59254236Y-33025928D01*
X59247840Y-33047009D01*
X59237452Y-33066445D01*
X59223476Y-33083476D01*
X59206445Y-33097452D01*
X59187009Y-33107840D01*
X59165928Y-33114236D01*
X59137860Y-33117000D01*
X57324140Y-33117000D01*
X57296072Y-33114236D01*
X57274991Y-33107840D01*
X57255555Y-33097452D01*
X57238524Y-33083476D01*
X57224548Y-33066445D01*
X57214160Y-33047009D01*
X57207764Y-33025928D01*
X57205000Y-32997860D01*
X57205000Y-32534140D01*
X57207764Y-32506072D01*
X57214160Y-32484991D01*
X57224548Y-32465555D01*
X57238524Y-32448524D01*
X57255555Y-32434548D01*
X57274991Y-32424160D01*
X57296072Y-32417764D01*
X57324140Y-32415000D01*
X59137860Y-32415000D01*
X59165928Y-32417764D01*
X59165928Y-32417764D01*
G37*
G36*
X50437142Y-30648242D02*
G01*
X50585101Y-30709529D01*
X50718255Y-30798499D01*
X50831501Y-30911745D01*
X50920471Y-31044899D01*
X50981758Y-31192858D01*
X51013000Y-31349925D01*
X51013000Y-31510075D01*
X50981758Y-31667142D01*
X50920471Y-31815101D01*
X50831501Y-31948255D01*
X50718255Y-32061501D01*
X50585101Y-32150471D01*
X50437142Y-32211758D01*
X50280075Y-32243000D01*
X50119925Y-32243000D01*
X49962858Y-32211758D01*
X49814899Y-32150471D01*
X49681745Y-32061501D01*
X49568499Y-31948255D01*
X49479529Y-31815101D01*
X49418242Y-31667142D01*
X49387000Y-31510075D01*
X49387000Y-31349925D01*
X49418242Y-31192858D01*
X49479529Y-31044899D01*
X49568499Y-30911745D01*
X49681745Y-30798499D01*
X49814899Y-30709529D01*
X49962858Y-30648242D01*
X50119925Y-30617000D01*
X50280075Y-30617000D01*
X50437142Y-30648242D01*
X50437142Y-30648242D01*
G37*
G36*
X64115928Y-31147764D02*
G01*
X64137009Y-31154160D01*
X64156445Y-31164548D01*
X64173476Y-31178524D01*
X64187452Y-31195555D01*
X64197840Y-31214991D01*
X64204236Y-31236072D01*
X64207000Y-31264140D01*
X64207000Y-31727860D01*
X64204236Y-31755928D01*
X64197840Y-31777009D01*
X64187452Y-31796445D01*
X64173476Y-31813476D01*
X64156445Y-31827452D01*
X64137009Y-31837840D01*
X64115928Y-31844236D01*
X64087860Y-31847000D01*
X62274140Y-31847000D01*
X62246072Y-31844236D01*
X62224991Y-31837840D01*
X62205555Y-31827452D01*
X62188524Y-31813476D01*
X62174548Y-31796445D01*
X62164160Y-31777009D01*
X62157764Y-31755928D01*
X62155000Y-31727860D01*
X62155000Y-31264140D01*
X62157764Y-31236072D01*
X62164160Y-31214991D01*
X62174548Y-31195555D01*
X62188524Y-31178524D01*
X62205555Y-31164548D01*
X62224991Y-31154160D01*
X62246072Y-31147764D01*
X62274140Y-31145000D01*
X64087860Y-31145000D01*
X64115928Y-31147764D01*
X64115928Y-31147764D01*
G37*
G36*
X59165928Y-31147764D02*
G01*
X59187009Y-31154160D01*
X59206445Y-31164548D01*
X59223476Y-31178524D01*
X59237452Y-31195555D01*
X59247840Y-31214991D01*
X59254236Y-31236072D01*
X59257000Y-31264140D01*
X59257000Y-31727860D01*
X59254236Y-31755928D01*
X59247840Y-31777009D01*
X59237452Y-31796445D01*
X59223476Y-31813476D01*
X59206445Y-31827452D01*
X59187009Y-31837840D01*
X59165928Y-31844236D01*
X59137860Y-31847000D01*
X57324140Y-31847000D01*
X57296072Y-31844236D01*
X57274991Y-31837840D01*
X57255555Y-31827452D01*
X57238524Y-31813476D01*
X57224548Y-31796445D01*
X57214160Y-31777009D01*
X57207764Y-31755928D01*
X57205000Y-31727860D01*
X57205000Y-31264140D01*
X57207764Y-31236072D01*
X57214160Y-31214991D01*
X57224548Y-31195555D01*
X57238524Y-31178524D01*
X57255555Y-31164548D01*
X57274991Y-31154160D01*
X57296072Y-31147764D01*
X57324140Y-31145000D01*
X59137860Y-31145000D01*
X59165928Y-31147764D01*
X59165928Y-31147764D01*
G37*
G36*
X64115928Y-29877764D02*
G01*
X64137009Y-29884160D01*
X64156445Y-29894548D01*
X64173476Y-29908524D01*
X64187452Y-29925555D01*
X64197840Y-29944991D01*
X64204236Y-29966072D01*
X64207000Y-29994140D01*
X64207000Y-30457860D01*
X64204236Y-30485928D01*
X64197840Y-30507009D01*
X64187452Y-30526445D01*
X64173476Y-30543476D01*
X64156445Y-30557452D01*
X64137009Y-30567840D01*
X64115928Y-30574236D01*
X64087860Y-30577000D01*
X62274140Y-30577000D01*
X62246072Y-30574236D01*
X62224991Y-30567840D01*
X62205555Y-30557452D01*
X62188524Y-30543476D01*
X62174548Y-30526445D01*
X62164160Y-30507009D01*
X62157764Y-30485928D01*
X62155000Y-30457860D01*
X62155000Y-29994140D01*
X62157764Y-29966072D01*
X62164160Y-29944991D01*
X62174548Y-29925555D01*
X62188524Y-29908524D01*
X62205555Y-29894548D01*
X62224991Y-29884160D01*
X62246072Y-29877764D01*
X62274140Y-29875000D01*
X64087860Y-29875000D01*
X64115928Y-29877764D01*
X64115928Y-29877764D01*
G37*
G36*
X59165928Y-29877764D02*
G01*
X59187009Y-29884160D01*
X59206445Y-29894548D01*
X59223476Y-29908524D01*
X59237452Y-29925555D01*
X59247840Y-29944991D01*
X59254236Y-29966072D01*
X59257000Y-29994140D01*
X59257000Y-30457860D01*
X59254236Y-30485928D01*
X59247840Y-30507009D01*
X59237452Y-30526445D01*
X59223476Y-30543476D01*
X59206445Y-30557452D01*
X59187009Y-30567840D01*
X59165928Y-30574236D01*
X59137860Y-30577000D01*
X57324140Y-30577000D01*
X57296072Y-30574236D01*
X57274991Y-30567840D01*
X57255555Y-30557452D01*
X57238524Y-30543476D01*
X57224548Y-30526445D01*
X57214160Y-30507009D01*
X57207764Y-30485928D01*
X57205000Y-30457860D01*
X57205000Y-29994140D01*
X57207764Y-29966072D01*
X57214160Y-29944991D01*
X57224548Y-29925555D01*
X57238524Y-29908524D01*
X57255555Y-29894548D01*
X57274991Y-29884160D01*
X57296072Y-29877764D01*
X57324140Y-29875000D01*
X59137860Y-29875000D01*
X59165928Y-29877764D01*
X59165928Y-29877764D01*
G37*
G36*
X73078855Y-28931140D02*
G01*
X73142618Y-28937420D01*
X73233404Y-28964960D01*
X73265336Y-28974646D01*
X73378425Y-29035094D01*
X73477554Y-29116446D01*
X73558906Y-29215575D01*
X73619354Y-29328664D01*
X73619355Y-29328668D01*
X73656580Y-29451382D01*
X73669149Y-29579000D01*
X73656580Y-29706618D01*
X73629040Y-29797404D01*
X73619354Y-29829336D01*
X73558906Y-29942425D01*
X73477554Y-30041554D01*
X73378425Y-30122906D01*
X73265336Y-30183354D01*
X73233404Y-30193040D01*
X73142618Y-30220580D01*
X73078855Y-30226860D01*
X73046974Y-30230000D01*
X72433026Y-30230000D01*
X72401145Y-30226860D01*
X72337382Y-30220580D01*
X72246596Y-30193040D01*
X72214664Y-30183354D01*
X72101575Y-30122906D01*
X72002446Y-30041554D01*
X71921094Y-29942425D01*
X71860646Y-29829336D01*
X71850960Y-29797404D01*
X71823420Y-29706618D01*
X71810851Y-29579000D01*
X71823420Y-29451382D01*
X71860645Y-29328668D01*
X71860646Y-29328664D01*
X71921094Y-29215575D01*
X72002446Y-29116446D01*
X72101575Y-29035094D01*
X72214664Y-28974646D01*
X72246596Y-28964960D01*
X72337382Y-28937420D01*
X72401145Y-28931140D01*
X72433026Y-28928000D01*
X73046974Y-28928000D01*
X73078855Y-28931140D01*
X73078855Y-28931140D01*
G37*
G36*
X67529855Y-28931140D02*
G01*
X67593618Y-28937420D01*
X67684404Y-28964960D01*
X67716336Y-28974646D01*
X67829425Y-29035094D01*
X67928554Y-29116446D01*
X68009906Y-29215575D01*
X68070354Y-29328664D01*
X68070355Y-29328668D01*
X68107580Y-29451382D01*
X68120149Y-29579000D01*
X68107580Y-29706618D01*
X68080040Y-29797404D01*
X68070354Y-29829336D01*
X68009906Y-29942425D01*
X67928554Y-30041554D01*
X67829425Y-30122906D01*
X67716336Y-30183354D01*
X67684404Y-30193040D01*
X67593618Y-30220580D01*
X67529855Y-30226860D01*
X67497974Y-30230000D01*
X66884026Y-30230000D01*
X66852145Y-30226860D01*
X66788382Y-30220580D01*
X66697596Y-30193040D01*
X66665664Y-30183354D01*
X66552575Y-30122906D01*
X66453446Y-30041554D01*
X66372094Y-29942425D01*
X66311646Y-29829336D01*
X66301960Y-29797404D01*
X66274420Y-29706618D01*
X66261851Y-29579000D01*
X66274420Y-29451382D01*
X66311645Y-29328668D01*
X66311646Y-29328664D01*
X66372094Y-29215575D01*
X66453446Y-29116446D01*
X66552575Y-29035094D01*
X66665664Y-28974646D01*
X66697596Y-28964960D01*
X66788382Y-28937420D01*
X66852145Y-28931140D01*
X66884026Y-28928000D01*
X67497974Y-28928000D01*
X67529855Y-28931140D01*
X67529855Y-28931140D01*
G37*
G36*
X50437142Y-28108242D02*
G01*
X50585101Y-28169529D01*
X50718255Y-28258499D01*
X50831501Y-28371745D01*
X50920471Y-28504899D01*
X50981758Y-28652858D01*
X51013000Y-28809925D01*
X51013000Y-28970075D01*
X50981758Y-29127142D01*
X50920471Y-29275101D01*
X50831501Y-29408255D01*
X50718255Y-29521501D01*
X50585101Y-29610471D01*
X50437142Y-29671758D01*
X50280075Y-29703000D01*
X50119925Y-29703000D01*
X49962858Y-29671758D01*
X49814899Y-29610471D01*
X49681745Y-29521501D01*
X49568499Y-29408255D01*
X49479529Y-29275101D01*
X49418242Y-29127142D01*
X49387000Y-28970075D01*
X49387000Y-28809925D01*
X49418242Y-28652858D01*
X49479529Y-28504899D01*
X49568499Y-28371745D01*
X49681745Y-28258499D01*
X49814899Y-28169529D01*
X49962858Y-28108242D01*
X50119925Y-28077000D01*
X50280075Y-28077000D01*
X50437142Y-28108242D01*
X50437142Y-28108242D01*
G37*
G36*
X64115928Y-28607764D02*
G01*
X64137009Y-28614160D01*
X64156445Y-28624548D01*
X64173476Y-28638524D01*
X64187452Y-28655555D01*
X64197840Y-28674991D01*
X64204236Y-28696072D01*
X64207000Y-28724140D01*
X64207000Y-29187860D01*
X64204236Y-29215928D01*
X64197840Y-29237009D01*
X64187452Y-29256445D01*
X64173476Y-29273476D01*
X64156445Y-29287452D01*
X64137009Y-29297840D01*
X64115928Y-29304236D01*
X64087860Y-29307000D01*
X62274140Y-29307000D01*
X62246072Y-29304236D01*
X62224991Y-29297840D01*
X62205555Y-29287452D01*
X62188524Y-29273476D01*
X62174548Y-29256445D01*
X62164160Y-29237009D01*
X62157764Y-29215928D01*
X62155000Y-29187860D01*
X62155000Y-28724140D01*
X62157764Y-28696072D01*
X62164160Y-28674991D01*
X62174548Y-28655555D01*
X62188524Y-28638524D01*
X62205555Y-28624548D01*
X62224991Y-28614160D01*
X62246072Y-28607764D01*
X62274140Y-28605000D01*
X64087860Y-28605000D01*
X64115928Y-28607764D01*
X64115928Y-28607764D01*
G37*
G36*
X59165928Y-28607764D02*
G01*
X59187009Y-28614160D01*
X59206445Y-28624548D01*
X59223476Y-28638524D01*
X59237452Y-28655555D01*
X59247840Y-28674991D01*
X59254236Y-28696072D01*
X59257000Y-28724140D01*
X59257000Y-29187860D01*
X59254236Y-29215928D01*
X59247840Y-29237009D01*
X59237452Y-29256445D01*
X59223476Y-29273476D01*
X59206445Y-29287452D01*
X59187009Y-29297840D01*
X59165928Y-29304236D01*
X59137860Y-29307000D01*
X57324140Y-29307000D01*
X57296072Y-29304236D01*
X57274991Y-29297840D01*
X57255555Y-29287452D01*
X57238524Y-29273476D01*
X57224548Y-29256445D01*
X57214160Y-29237009D01*
X57207764Y-29215928D01*
X57205000Y-29187860D01*
X57205000Y-28724140D01*
X57207764Y-28696072D01*
X57214160Y-28674991D01*
X57224548Y-28655555D01*
X57238524Y-28638524D01*
X57255555Y-28624548D01*
X57274991Y-28614160D01*
X57296072Y-28607764D01*
X57324140Y-28605000D01*
X59137860Y-28605000D01*
X59165928Y-28607764D01*
X59165928Y-28607764D01*
G37*
G36*
X73078855Y-26931140D02*
G01*
X73142618Y-26937420D01*
X73233404Y-26964960D01*
X73265336Y-26974646D01*
X73378425Y-27035094D01*
X73477554Y-27116446D01*
X73558906Y-27215575D01*
X73619354Y-27328664D01*
X73619355Y-27328668D01*
X73656580Y-27451382D01*
X73669149Y-27579000D01*
X73656580Y-27706618D01*
X73629040Y-27797404D01*
X73619354Y-27829336D01*
X73558906Y-27942425D01*
X73477554Y-28041554D01*
X73378425Y-28122906D01*
X73265336Y-28183354D01*
X73233404Y-28193040D01*
X73142618Y-28220580D01*
X73078855Y-28226860D01*
X73046974Y-28230000D01*
X72433026Y-28230000D01*
X72401145Y-28226860D01*
X72337382Y-28220580D01*
X72246596Y-28193040D01*
X72214664Y-28183354D01*
X72101575Y-28122906D01*
X72002446Y-28041554D01*
X71921094Y-27942425D01*
X71860646Y-27829336D01*
X71850960Y-27797404D01*
X71823420Y-27706618D01*
X71810851Y-27579000D01*
X71823420Y-27451382D01*
X71860645Y-27328668D01*
X71860646Y-27328664D01*
X71921094Y-27215575D01*
X72002446Y-27116446D01*
X72101575Y-27035094D01*
X72214664Y-26974646D01*
X72246596Y-26964960D01*
X72337382Y-26937420D01*
X72401145Y-26931140D01*
X72433026Y-26928000D01*
X73046974Y-26928000D01*
X73078855Y-26931140D01*
X73078855Y-26931140D01*
G37*
G36*
X67529855Y-26931140D02*
G01*
X67593618Y-26937420D01*
X67684404Y-26964960D01*
X67716336Y-26974646D01*
X67829425Y-27035094D01*
X67928554Y-27116446D01*
X68009906Y-27215575D01*
X68070354Y-27328664D01*
X68070355Y-27328668D01*
X68107580Y-27451382D01*
X68120149Y-27579000D01*
X68107580Y-27706618D01*
X68080040Y-27797404D01*
X68070354Y-27829336D01*
X68009906Y-27942425D01*
X67928554Y-28041554D01*
X67829425Y-28122906D01*
X67716336Y-28183354D01*
X67684404Y-28193040D01*
X67593618Y-28220580D01*
X67529855Y-28226860D01*
X67497974Y-28230000D01*
X66884026Y-28230000D01*
X66852145Y-28226860D01*
X66788382Y-28220580D01*
X66697596Y-28193040D01*
X66665664Y-28183354D01*
X66552575Y-28122906D01*
X66453446Y-28041554D01*
X66372094Y-27942425D01*
X66311646Y-27829336D01*
X66301960Y-27797404D01*
X66274420Y-27706618D01*
X66261851Y-27579000D01*
X66274420Y-27451382D01*
X66311645Y-27328668D01*
X66311646Y-27328664D01*
X66372094Y-27215575D01*
X66453446Y-27116446D01*
X66552575Y-27035094D01*
X66665664Y-26974646D01*
X66697596Y-26964960D01*
X66788382Y-26937420D01*
X66852145Y-26931140D01*
X66884026Y-26928000D01*
X67497974Y-26928000D01*
X67529855Y-26931140D01*
X67529855Y-26931140D01*
G37*
G36*
X3132855Y-25004140D02*
G01*
X3196618Y-25010420D01*
X3277957Y-25035094D01*
X3319336Y-25047646D01*
X3432425Y-25108094D01*
X3531554Y-25189446D01*
X3612906Y-25288575D01*
X3673354Y-25401664D01*
X3673355Y-25401668D01*
X3710580Y-25524382D01*
X3723149Y-25652000D01*
X3710580Y-25779618D01*
X3695499Y-25829332D01*
X3673354Y-25902336D01*
X3612906Y-26015425D01*
X3531554Y-26114554D01*
X3432425Y-26195906D01*
X3319336Y-26256354D01*
X3287404Y-26266040D01*
X3196618Y-26293580D01*
X3132855Y-26299860D01*
X3100974Y-26303000D01*
X2487026Y-26303000D01*
X2455145Y-26299860D01*
X2391382Y-26293580D01*
X2300596Y-26266040D01*
X2268664Y-26256354D01*
X2155575Y-26195906D01*
X2056446Y-26114554D01*
X1975094Y-26015425D01*
X1914646Y-25902336D01*
X1892501Y-25829332D01*
X1877420Y-25779618D01*
X1864851Y-25652000D01*
X1877420Y-25524382D01*
X1914645Y-25401668D01*
X1914646Y-25401664D01*
X1975094Y-25288575D01*
X2056446Y-25189446D01*
X2155575Y-25108094D01*
X2268664Y-25047646D01*
X2310043Y-25035094D01*
X2391382Y-25010420D01*
X2455145Y-25004140D01*
X2487026Y-25001000D01*
X3100974Y-25001000D01*
X3132855Y-25004140D01*
X3132855Y-25004140D01*
G37*
G36*
X67529855Y-24931140D02*
G01*
X67593618Y-24937420D01*
X67684404Y-24964960D01*
X67716336Y-24974646D01*
X67829425Y-25035094D01*
X67928554Y-25116446D01*
X68009906Y-25215575D01*
X68070354Y-25328664D01*
X68070355Y-25328668D01*
X68107580Y-25451382D01*
X68120149Y-25579000D01*
X68107580Y-25706618D01*
X68085436Y-25779616D01*
X68070354Y-25829336D01*
X68009906Y-25942425D01*
X67928554Y-26041554D01*
X67829425Y-26122906D01*
X67716336Y-26183354D01*
X67684404Y-26193040D01*
X67593618Y-26220580D01*
X67529855Y-26226860D01*
X67497974Y-26230000D01*
X66884026Y-26230000D01*
X66852145Y-26226860D01*
X66788382Y-26220580D01*
X66697596Y-26193040D01*
X66665664Y-26183354D01*
X66552575Y-26122906D01*
X66453446Y-26041554D01*
X66372094Y-25942425D01*
X66311646Y-25829336D01*
X66296564Y-25779616D01*
X66274420Y-25706618D01*
X66261851Y-25579000D01*
X66274420Y-25451382D01*
X66311645Y-25328668D01*
X66311646Y-25328664D01*
X66372094Y-25215575D01*
X66453446Y-25116446D01*
X66552575Y-25035094D01*
X66665664Y-24974646D01*
X66697596Y-24964960D01*
X66788382Y-24937420D01*
X66852145Y-24931140D01*
X66884026Y-24928000D01*
X67497974Y-24928000D01*
X67529855Y-24931140D01*
X67529855Y-24931140D01*
G37*
G36*
X73078855Y-24931140D02*
G01*
X73142618Y-24937420D01*
X73233404Y-24964960D01*
X73265336Y-24974646D01*
X73378425Y-25035094D01*
X73477554Y-25116446D01*
X73558906Y-25215575D01*
X73619354Y-25328664D01*
X73619355Y-25328668D01*
X73656580Y-25451382D01*
X73669149Y-25579000D01*
X73656580Y-25706618D01*
X73634436Y-25779616D01*
X73619354Y-25829336D01*
X73558906Y-25942425D01*
X73477554Y-26041554D01*
X73378425Y-26122906D01*
X73265336Y-26183354D01*
X73233404Y-26193040D01*
X73142618Y-26220580D01*
X73078855Y-26226860D01*
X73046974Y-26230000D01*
X72433026Y-26230000D01*
X72401145Y-26226860D01*
X72337382Y-26220580D01*
X72246596Y-26193040D01*
X72214664Y-26183354D01*
X72101575Y-26122906D01*
X72002446Y-26041554D01*
X71921094Y-25942425D01*
X71860646Y-25829336D01*
X71845564Y-25779616D01*
X71823420Y-25706618D01*
X71810851Y-25579000D01*
X71823420Y-25451382D01*
X71860645Y-25328668D01*
X71860646Y-25328664D01*
X71921094Y-25215575D01*
X72002446Y-25116446D01*
X72101575Y-25035094D01*
X72214664Y-24974646D01*
X72246596Y-24964960D01*
X72337382Y-24937420D01*
X72401145Y-24931140D01*
X72433026Y-24928000D01*
X73046974Y-24928000D01*
X73078855Y-24931140D01*
X73078855Y-24931140D01*
G37*
G36*
X45593659Y-22293580D02*
G01*
X45833500Y-22341287D01*
X45971373Y-22398396D01*
X46166355Y-22479160D01*
X46315120Y-22578562D01*
X46465920Y-22679323D01*
X46720677Y-22934080D01*
X46788172Y-23035094D01*
X46920840Y-23233645D01*
X47058713Y-23566501D01*
X47129000Y-23919858D01*
X47129000Y-24280142D01*
X47058713Y-24633499D01*
X46920840Y-24966355D01*
X46866523Y-25047646D01*
X46720677Y-25265920D01*
X46465920Y-25520677D01*
X46460375Y-25524382D01*
X46166355Y-25720840D01*
X45971373Y-25801604D01*
X45833500Y-25858713D01*
X45656820Y-25893857D01*
X45480142Y-25929000D01*
X45119858Y-25929000D01*
X44943180Y-25893857D01*
X44766500Y-25858713D01*
X44628627Y-25801604D01*
X44433645Y-25720840D01*
X44139625Y-25524382D01*
X44134080Y-25520677D01*
X43879323Y-25265920D01*
X43733477Y-25047646D01*
X43679160Y-24966355D01*
X43541287Y-24633499D01*
X43471000Y-24280142D01*
X43471000Y-23919858D01*
X43541287Y-23566501D01*
X43679160Y-23233645D01*
X43811828Y-23035094D01*
X43879323Y-22934080D01*
X44134080Y-22679323D01*
X44284880Y-22578562D01*
X44433645Y-22479160D01*
X44628627Y-22398396D01*
X44766500Y-22341287D01*
X45006341Y-22293580D01*
X45119858Y-22271000D01*
X45480142Y-22271000D01*
X45593659Y-22293580D01*
X45593659Y-22293580D01*
G37*
G36*
X25593659Y-22293580D02*
G01*
X25833500Y-22341287D01*
X25971373Y-22398396D01*
X26166355Y-22479160D01*
X26315120Y-22578562D01*
X26465920Y-22679323D01*
X26720677Y-22934080D01*
X26788172Y-23035094D01*
X26920840Y-23233645D01*
X27058713Y-23566501D01*
X27129000Y-23919858D01*
X27129000Y-24280142D01*
X27058713Y-24633499D01*
X26920840Y-24966355D01*
X26866523Y-25047646D01*
X26720677Y-25265920D01*
X26465920Y-25520677D01*
X26460375Y-25524382D01*
X26166355Y-25720840D01*
X25971373Y-25801604D01*
X25833500Y-25858713D01*
X25656820Y-25893857D01*
X25480142Y-25929000D01*
X25119858Y-25929000D01*
X24943180Y-25893857D01*
X24766500Y-25858713D01*
X24628627Y-25801604D01*
X24433645Y-25720840D01*
X24139625Y-25524382D01*
X24134080Y-25520677D01*
X23879323Y-25265920D01*
X23733477Y-25047646D01*
X23679160Y-24966355D01*
X23541287Y-24633499D01*
X23471000Y-24280142D01*
X23471000Y-23919858D01*
X23541287Y-23566501D01*
X23679160Y-23233645D01*
X23811828Y-23035094D01*
X23879323Y-22934080D01*
X24134080Y-22679323D01*
X24284880Y-22578562D01*
X24433645Y-22479160D01*
X24628627Y-22398396D01*
X24766500Y-22341287D01*
X25006341Y-22293580D01*
X25119858Y-22271000D01*
X25480142Y-22271000D01*
X25593659Y-22293580D01*
X25593659Y-22293580D01*
G37*
G36*
X3132855Y-23004140D02*
G01*
X3196618Y-23010420D01*
X3277957Y-23035094D01*
X3319336Y-23047646D01*
X3432425Y-23108094D01*
X3531554Y-23189446D01*
X3612906Y-23288575D01*
X3673354Y-23401664D01*
X3673355Y-23401668D01*
X3710580Y-23524382D01*
X3723149Y-23652000D01*
X3710580Y-23779618D01*
X3695499Y-23829332D01*
X3673354Y-23902336D01*
X3612906Y-24015425D01*
X3531554Y-24114554D01*
X3432425Y-24195906D01*
X3319336Y-24256354D01*
X3287404Y-24266040D01*
X3196618Y-24293580D01*
X3132855Y-24299860D01*
X3100974Y-24303000D01*
X2487026Y-24303000D01*
X2455145Y-24299860D01*
X2391382Y-24293580D01*
X2300596Y-24266040D01*
X2268664Y-24256354D01*
X2155575Y-24195906D01*
X2056446Y-24114554D01*
X1975094Y-24015425D01*
X1914646Y-23902336D01*
X1892501Y-23829332D01*
X1877420Y-23779618D01*
X1864851Y-23652000D01*
X1877420Y-23524382D01*
X1914645Y-23401668D01*
X1914646Y-23401664D01*
X1975094Y-23288575D01*
X2056446Y-23189446D01*
X2155575Y-23108094D01*
X2268664Y-23047646D01*
X2310043Y-23035094D01*
X2391382Y-23010420D01*
X2455145Y-23004140D01*
X2487026Y-23001000D01*
X3100974Y-23001000D01*
X3132855Y-23004140D01*
X3132855Y-23004140D01*
G37*
G36*
X67529855Y-22931140D02*
G01*
X67593618Y-22937420D01*
X67684404Y-22964960D01*
X67716336Y-22974646D01*
X67829425Y-23035094D01*
X67928554Y-23116446D01*
X68009906Y-23215575D01*
X68070354Y-23328664D01*
X68070355Y-23328668D01*
X68107580Y-23451382D01*
X68120149Y-23579000D01*
X68107580Y-23706618D01*
X68085436Y-23779616D01*
X68070354Y-23829336D01*
X68009906Y-23942425D01*
X67928554Y-24041554D01*
X67829425Y-24122906D01*
X67716336Y-24183354D01*
X67684404Y-24193040D01*
X67593618Y-24220580D01*
X67529855Y-24226860D01*
X67497974Y-24230000D01*
X66884026Y-24230000D01*
X66852145Y-24226860D01*
X66788382Y-24220580D01*
X66697596Y-24193040D01*
X66665664Y-24183354D01*
X66552575Y-24122906D01*
X66453446Y-24041554D01*
X66372094Y-23942425D01*
X66311646Y-23829336D01*
X66296564Y-23779616D01*
X66274420Y-23706618D01*
X66261851Y-23579000D01*
X66274420Y-23451382D01*
X66311645Y-23328668D01*
X66311646Y-23328664D01*
X66372094Y-23215575D01*
X66453446Y-23116446D01*
X66552575Y-23035094D01*
X66665664Y-22974646D01*
X66697596Y-22964960D01*
X66788382Y-22937420D01*
X66852145Y-22931140D01*
X66884026Y-22928000D01*
X67497974Y-22928000D01*
X67529855Y-22931140D01*
X67529855Y-22931140D01*
G37*
G36*
X73078855Y-22931140D02*
G01*
X73142618Y-22937420D01*
X73233404Y-22964960D01*
X73265336Y-22974646D01*
X73378425Y-23035094D01*
X73477554Y-23116446D01*
X73558906Y-23215575D01*
X73619354Y-23328664D01*
X73619355Y-23328668D01*
X73656580Y-23451382D01*
X73669149Y-23579000D01*
X73656580Y-23706618D01*
X73634436Y-23779616D01*
X73619354Y-23829336D01*
X73558906Y-23942425D01*
X73477554Y-24041554D01*
X73378425Y-24122906D01*
X73265336Y-24183354D01*
X73233404Y-24193040D01*
X73142618Y-24220580D01*
X73078855Y-24226860D01*
X73046974Y-24230000D01*
X72433026Y-24230000D01*
X72401145Y-24226860D01*
X72337382Y-24220580D01*
X72246596Y-24193040D01*
X72214664Y-24183354D01*
X72101575Y-24122906D01*
X72002446Y-24041554D01*
X71921094Y-23942425D01*
X71860646Y-23829336D01*
X71845564Y-23779616D01*
X71823420Y-23706618D01*
X71810851Y-23579000D01*
X71823420Y-23451382D01*
X71860645Y-23328668D01*
X71860646Y-23328664D01*
X71921094Y-23215575D01*
X72002446Y-23116446D01*
X72101575Y-23035094D01*
X72214664Y-22974646D01*
X72246596Y-22964960D01*
X72337382Y-22937420D01*
X72401145Y-22931140D01*
X72433026Y-22928000D01*
X73046974Y-22928000D01*
X73078855Y-22931140D01*
X73078855Y-22931140D01*
G37*
G36*
X57045000Y-23526000D02*
G01*
X55843000Y-23526000D01*
X55843000Y-14574000D01*
X57045000Y-14574000D01*
X57045000Y-23526000D01*
X57045000Y-23526000D01*
G37*
G36*
X51345000Y-23526000D02*
G01*
X50143000Y-23526000D01*
X50143000Y-17906445D01*
X50140598Y-17882059D01*
X50133485Y-17858610D01*
X50121934Y-17836999D01*
X50106389Y-17818057D01*
X50087447Y-17802512D01*
X50065836Y-17790961D01*
X50042387Y-17783848D01*
X50018001Y-17781446D01*
X49993615Y-17783848D01*
X49970166Y-17790961D01*
X49948555Y-17802512D01*
X49929613Y-17818057D01*
X49907762Y-17847521D01*
X49897075Y-17867515D01*
X49872481Y-17897481D01*
X49842515Y-17922075D01*
X49808337Y-17940343D01*
X49771242Y-17951596D01*
X49726526Y-17956000D01*
X48833474Y-17956000D01*
X48788758Y-17951596D01*
X48751663Y-17940343D01*
X48717485Y-17922075D01*
X48687519Y-17897481D01*
X48662925Y-17867515D01*
X48644657Y-17833337D01*
X48633404Y-17796242D01*
X48629000Y-17751526D01*
X48629000Y-16308474D01*
X48633404Y-16263758D01*
X48644657Y-16226663D01*
X48662925Y-16192485D01*
X48687519Y-16162519D01*
X48717485Y-16137925D01*
X48751663Y-16119657D01*
X48788758Y-16108404D01*
X48833474Y-16104000D01*
X49726526Y-16104000D01*
X49771242Y-16108404D01*
X49808337Y-16119657D01*
X49842515Y-16137925D01*
X49872481Y-16162519D01*
X49897075Y-16192485D01*
X49907762Y-16212479D01*
X49921376Y-16232854D01*
X49938703Y-16250181D01*
X49959077Y-16263794D01*
X49981716Y-16273172D01*
X50005749Y-16277952D01*
X50030253Y-16277952D01*
X50054287Y-16273171D01*
X50076925Y-16263794D01*
X50097300Y-16250180D01*
X50114627Y-16232853D01*
X50128240Y-16212479D01*
X50137618Y-16189840D01*
X50143000Y-16153555D01*
X50143000Y-14574000D01*
X51345000Y-14574000D01*
X51345000Y-23526000D01*
X51345000Y-23526000D01*
G37*
G36*
X3132855Y-21004140D02*
G01*
X3196618Y-21010420D01*
X3281257Y-21036095D01*
X3319336Y-21047646D01*
X3432425Y-21108094D01*
X3531554Y-21189446D01*
X3612906Y-21288575D01*
X3673354Y-21401664D01*
X3673355Y-21401668D01*
X3710580Y-21524382D01*
X3723149Y-21652000D01*
X3710580Y-21779618D01*
X3695499Y-21829332D01*
X3673354Y-21902336D01*
X3612906Y-22015425D01*
X3531554Y-22114554D01*
X3432425Y-22195906D01*
X3319336Y-22256354D01*
X3287404Y-22266040D01*
X3196618Y-22293580D01*
X3132855Y-22299860D01*
X3100974Y-22303000D01*
X2487026Y-22303000D01*
X2455145Y-22299860D01*
X2391382Y-22293580D01*
X2300596Y-22266040D01*
X2268664Y-22256354D01*
X2155575Y-22195906D01*
X2056446Y-22114554D01*
X1975094Y-22015425D01*
X1914646Y-21902336D01*
X1892501Y-21829332D01*
X1877420Y-21779618D01*
X1864851Y-21652000D01*
X1877420Y-21524382D01*
X1914645Y-21401668D01*
X1914646Y-21401664D01*
X1975094Y-21288575D01*
X2056446Y-21189446D01*
X2155575Y-21108094D01*
X2268664Y-21047646D01*
X2306743Y-21036095D01*
X2391382Y-21010420D01*
X2455145Y-21004140D01*
X2487026Y-21001000D01*
X3100974Y-21001000D01*
X3132855Y-21004140D01*
X3132855Y-21004140D01*
G37*
G36*
X61988855Y-20932140D02*
G01*
X62052618Y-20938420D01*
X62143404Y-20965960D01*
X62175336Y-20975646D01*
X62288425Y-21036094D01*
X62387554Y-21117446D01*
X62468906Y-21216575D01*
X62529354Y-21329664D01*
X62529355Y-21329668D01*
X62566580Y-21452382D01*
X62579149Y-21580000D01*
X62566580Y-21707618D01*
X62544739Y-21779618D01*
X62529354Y-21830336D01*
X62468906Y-21943425D01*
X62387554Y-22042554D01*
X62288425Y-22123906D01*
X62175336Y-22184354D01*
X62143404Y-22194040D01*
X62052618Y-22221580D01*
X61988855Y-22227860D01*
X61956974Y-22231000D01*
X61343026Y-22231000D01*
X61311145Y-22227860D01*
X61247382Y-22221580D01*
X61156596Y-22194040D01*
X61124664Y-22184354D01*
X61011575Y-22123906D01*
X60912446Y-22042554D01*
X60831094Y-21943425D01*
X60770646Y-21830336D01*
X60755261Y-21779618D01*
X60733420Y-21707618D01*
X60720851Y-21580000D01*
X60733420Y-21452382D01*
X60770645Y-21329668D01*
X60770646Y-21329664D01*
X60831094Y-21216575D01*
X60912446Y-21117446D01*
X61011575Y-21036094D01*
X61124664Y-20975646D01*
X61156596Y-20965960D01*
X61247382Y-20938420D01*
X61311145Y-20932140D01*
X61343026Y-20929000D01*
X61956974Y-20929000D01*
X61988855Y-20932140D01*
X61988855Y-20932140D01*
G37*
G36*
X67529855Y-20931140D02*
G01*
X67593618Y-20937420D01*
X67684404Y-20964960D01*
X67716336Y-20974646D01*
X67829425Y-21035094D01*
X67928554Y-21116446D01*
X68009906Y-21215575D01*
X68070354Y-21328664D01*
X68078119Y-21354262D01*
X68107580Y-21451382D01*
X68120149Y-21579000D01*
X68107580Y-21706618D01*
X68094445Y-21749917D01*
X68070354Y-21829336D01*
X68009906Y-21942425D01*
X67928554Y-22041554D01*
X67829425Y-22122906D01*
X67716336Y-22183354D01*
X67684404Y-22193040D01*
X67593618Y-22220580D01*
X67529855Y-22226860D01*
X67497974Y-22230000D01*
X66884026Y-22230000D01*
X66852145Y-22226860D01*
X66788382Y-22220580D01*
X66697596Y-22193040D01*
X66665664Y-22183354D01*
X66552575Y-22122906D01*
X66453446Y-22041554D01*
X66372094Y-21942425D01*
X66311646Y-21829336D01*
X66287555Y-21749917D01*
X66274420Y-21706618D01*
X66261851Y-21579000D01*
X66274420Y-21451382D01*
X66303881Y-21354262D01*
X66311646Y-21328664D01*
X66372094Y-21215575D01*
X66453446Y-21116446D01*
X66552575Y-21035094D01*
X66665664Y-20974646D01*
X66697596Y-20964960D01*
X66788382Y-20937420D01*
X66852145Y-20931140D01*
X66884026Y-20928000D01*
X67497974Y-20928000D01*
X67529855Y-20931140D01*
X67529855Y-20931140D01*
G37*
G36*
X73078855Y-20931140D02*
G01*
X73142618Y-20937420D01*
X73233404Y-20964960D01*
X73265336Y-20974646D01*
X73378425Y-21035094D01*
X73477554Y-21116446D01*
X73558906Y-21215575D01*
X73619354Y-21328664D01*
X73627119Y-21354262D01*
X73656580Y-21451382D01*
X73669149Y-21579000D01*
X73656580Y-21706618D01*
X73643445Y-21749917D01*
X73619354Y-21829336D01*
X73558906Y-21942425D01*
X73477554Y-22041554D01*
X73378425Y-22122906D01*
X73265336Y-22183354D01*
X73233404Y-22193040D01*
X73142618Y-22220580D01*
X73078855Y-22226860D01*
X73046974Y-22230000D01*
X72433026Y-22230000D01*
X72401145Y-22226860D01*
X72337382Y-22220580D01*
X72246596Y-22193040D01*
X72214664Y-22183354D01*
X72101575Y-22122906D01*
X72002446Y-22041554D01*
X71921094Y-21942425D01*
X71860646Y-21829336D01*
X71836555Y-21749917D01*
X71823420Y-21706618D01*
X71810851Y-21579000D01*
X71823420Y-21451382D01*
X71852881Y-21354262D01*
X71860646Y-21328664D01*
X71921094Y-21215575D01*
X72002446Y-21116446D01*
X72101575Y-21035094D01*
X72214664Y-20974646D01*
X72246596Y-20964960D01*
X72337382Y-20937420D01*
X72401145Y-20931140D01*
X72433026Y-20928000D01*
X73046974Y-20928000D01*
X73078855Y-20931140D01*
X73078855Y-20931140D01*
G37*
G36*
X10679544Y-19132083D02*
G01*
X10791616Y-19166080D01*
X10894894Y-19221283D01*
X10985422Y-19295578D01*
X11059717Y-19386106D01*
X11114920Y-19489384D01*
X11148917Y-19601456D01*
X11161000Y-19724140D01*
X11161000Y-21157860D01*
X11148917Y-21280544D01*
X11114920Y-21392616D01*
X11059717Y-21495894D01*
X10985422Y-21586422D01*
X10894894Y-21660717D01*
X10791616Y-21715920D01*
X10679544Y-21749917D01*
X10556860Y-21762000D01*
X6583140Y-21762000D01*
X6460456Y-21749917D01*
X6348384Y-21715920D01*
X6245106Y-21660717D01*
X6154578Y-21586422D01*
X6080283Y-21495894D01*
X6025080Y-21392616D01*
X5991083Y-21280544D01*
X5979000Y-21157860D01*
X5979000Y-19724140D01*
X5991083Y-19601456D01*
X6025080Y-19489384D01*
X6080283Y-19386106D01*
X6154578Y-19295578D01*
X6245106Y-19221283D01*
X6348384Y-19166080D01*
X6460456Y-19132083D01*
X6583140Y-19120000D01*
X10556860Y-19120000D01*
X10679544Y-19132083D01*
X10679544Y-19132083D01*
G37*
G36*
X21479544Y-19132083D02*
G01*
X21591616Y-19166080D01*
X21694894Y-19221283D01*
X21785422Y-19295578D01*
X21859717Y-19386106D01*
X21914920Y-19489384D01*
X21948917Y-19601456D01*
X21961000Y-19724140D01*
X21961000Y-21157860D01*
X21948917Y-21280544D01*
X21914920Y-21392616D01*
X21859717Y-21495894D01*
X21785422Y-21586422D01*
X21694894Y-21660717D01*
X21591616Y-21715920D01*
X21479544Y-21749917D01*
X21356860Y-21762000D01*
X17383140Y-21762000D01*
X17260456Y-21749917D01*
X17148384Y-21715920D01*
X17045106Y-21660717D01*
X16954578Y-21586422D01*
X16880283Y-21495894D01*
X16825080Y-21392616D01*
X16791083Y-21280544D01*
X16779000Y-21157860D01*
X16779000Y-19724140D01*
X16791083Y-19601456D01*
X16825080Y-19489384D01*
X16880283Y-19386106D01*
X16954578Y-19295578D01*
X17045106Y-19221283D01*
X17148384Y-19166080D01*
X17260456Y-19132083D01*
X17383140Y-19120000D01*
X21356860Y-19120000D01*
X21479544Y-19132083D01*
X21479544Y-19132083D01*
G37*
G36*
X3132855Y-19004140D02*
G01*
X3196618Y-19010420D01*
X3281257Y-19036095D01*
X3319336Y-19047646D01*
X3432425Y-19108094D01*
X3531554Y-19189446D01*
X3612906Y-19288575D01*
X3673354Y-19401664D01*
X3673355Y-19401668D01*
X3710580Y-19524382D01*
X3723149Y-19652000D01*
X3710580Y-19779618D01*
X3710312Y-19780500D01*
X3673354Y-19902336D01*
X3612906Y-20015425D01*
X3531554Y-20114554D01*
X3432425Y-20195906D01*
X3319336Y-20256354D01*
X3287404Y-20266040D01*
X3196618Y-20293580D01*
X3132855Y-20299860D01*
X3100974Y-20303000D01*
X2487026Y-20303000D01*
X2455145Y-20299860D01*
X2391382Y-20293580D01*
X2300596Y-20266040D01*
X2268664Y-20256354D01*
X2155575Y-20195906D01*
X2056446Y-20114554D01*
X1975094Y-20015425D01*
X1914646Y-19902336D01*
X1877688Y-19780500D01*
X1877420Y-19779618D01*
X1864851Y-19652000D01*
X1877420Y-19524382D01*
X1914645Y-19401668D01*
X1914646Y-19401664D01*
X1975094Y-19288575D01*
X2056446Y-19189446D01*
X2155575Y-19108094D01*
X2268664Y-19047646D01*
X2306743Y-19036095D01*
X2391382Y-19010420D01*
X2455145Y-19004140D01*
X2487026Y-19001000D01*
X3100974Y-19001000D01*
X3132855Y-19004140D01*
X3132855Y-19004140D01*
G37*
G36*
X61988855Y-18932140D02*
G01*
X62052618Y-18938420D01*
X62143404Y-18965960D01*
X62175336Y-18975646D01*
X62288425Y-19036094D01*
X62387554Y-19117446D01*
X62468906Y-19216575D01*
X62529354Y-19329664D01*
X62529355Y-19329668D01*
X62566580Y-19452382D01*
X62579149Y-19580000D01*
X62566580Y-19707618D01*
X62544739Y-19779618D01*
X62529354Y-19830336D01*
X62468906Y-19943425D01*
X62387554Y-20042554D01*
X62288425Y-20123906D01*
X62175336Y-20184354D01*
X62143404Y-20194040D01*
X62052618Y-20221580D01*
X61988855Y-20227860D01*
X61956974Y-20231000D01*
X61343026Y-20231000D01*
X61311145Y-20227860D01*
X61247382Y-20221580D01*
X61156596Y-20194040D01*
X61124664Y-20184354D01*
X61011575Y-20123906D01*
X60912446Y-20042554D01*
X60831094Y-19943425D01*
X60770646Y-19830336D01*
X60755261Y-19779618D01*
X60733420Y-19707618D01*
X60720851Y-19580000D01*
X60733420Y-19452382D01*
X60770645Y-19329668D01*
X60770646Y-19329664D01*
X60831094Y-19216575D01*
X60912446Y-19117446D01*
X61011575Y-19036094D01*
X61124664Y-18975646D01*
X61156596Y-18965960D01*
X61247382Y-18938420D01*
X61311145Y-18932140D01*
X61343026Y-18929000D01*
X61956974Y-18929000D01*
X61988855Y-18932140D01*
X61988855Y-18932140D01*
G37*
G36*
X67529855Y-18931140D02*
G01*
X67593618Y-18937420D01*
X67684404Y-18964960D01*
X67716336Y-18974646D01*
X67829425Y-19035094D01*
X67928554Y-19116446D01*
X68009906Y-19215575D01*
X68070354Y-19328664D01*
X68080040Y-19360596D01*
X68107580Y-19451382D01*
X68120149Y-19579000D01*
X68107580Y-19706618D01*
X68087140Y-19774000D01*
X68070354Y-19829336D01*
X68009906Y-19942425D01*
X67928554Y-20041554D01*
X67829425Y-20122906D01*
X67716336Y-20183354D01*
X67684404Y-20193040D01*
X67593618Y-20220580D01*
X67529855Y-20226860D01*
X67497974Y-20230000D01*
X66884026Y-20230000D01*
X66852145Y-20226860D01*
X66788382Y-20220580D01*
X66697596Y-20193040D01*
X66665664Y-20183354D01*
X66552575Y-20122906D01*
X66453446Y-20041554D01*
X66372094Y-19942425D01*
X66311646Y-19829336D01*
X66294860Y-19774000D01*
X66274420Y-19706618D01*
X66261851Y-19579000D01*
X66274420Y-19451382D01*
X66301960Y-19360596D01*
X66311646Y-19328664D01*
X66372094Y-19215575D01*
X66453446Y-19116446D01*
X66552575Y-19035094D01*
X66665664Y-18974646D01*
X66697596Y-18964960D01*
X66788382Y-18937420D01*
X66852145Y-18931140D01*
X66884026Y-18928000D01*
X67497974Y-18928000D01*
X67529855Y-18931140D01*
X67529855Y-18931140D01*
G37*
G36*
X73078855Y-18931140D02*
G01*
X73142618Y-18937420D01*
X73233404Y-18964960D01*
X73265336Y-18974646D01*
X73378425Y-19035094D01*
X73477554Y-19116446D01*
X73558906Y-19215575D01*
X73619354Y-19328664D01*
X73629040Y-19360596D01*
X73656580Y-19451382D01*
X73669149Y-19579000D01*
X73656580Y-19706618D01*
X73636140Y-19774000D01*
X73619354Y-19829336D01*
X73558906Y-19942425D01*
X73477554Y-20041554D01*
X73378425Y-20122906D01*
X73265336Y-20183354D01*
X73233404Y-20193040D01*
X73142618Y-20220580D01*
X73078855Y-20226860D01*
X73046974Y-20230000D01*
X72433026Y-20230000D01*
X72401145Y-20226860D01*
X72337382Y-20220580D01*
X72246596Y-20193040D01*
X72214664Y-20183354D01*
X72101575Y-20122906D01*
X72002446Y-20041554D01*
X71921094Y-19942425D01*
X71860646Y-19829336D01*
X71843860Y-19774000D01*
X71823420Y-19706618D01*
X71810851Y-19579000D01*
X71823420Y-19451382D01*
X71850960Y-19360596D01*
X71860646Y-19328664D01*
X71921094Y-19215575D01*
X72002446Y-19116446D01*
X72101575Y-19035094D01*
X72214664Y-18974646D01*
X72246596Y-18964960D01*
X72337382Y-18937420D01*
X72401145Y-18931140D01*
X72433026Y-18928000D01*
X73046974Y-18928000D01*
X73078855Y-18931140D01*
X73078855Y-18931140D01*
G37*
G36*
X3132855Y-17004140D02*
G01*
X3196618Y-17010420D01*
X3287404Y-17037960D01*
X3319336Y-17047646D01*
X3432425Y-17108094D01*
X3531554Y-17189446D01*
X3612906Y-17288575D01*
X3673354Y-17401664D01*
X3682743Y-17432615D01*
X3710580Y-17524382D01*
X3723149Y-17652000D01*
X3710580Y-17779618D01*
X3689982Y-17847521D01*
X3673354Y-17902336D01*
X3612906Y-18015425D01*
X3531554Y-18114554D01*
X3432425Y-18195906D01*
X3319336Y-18256354D01*
X3287404Y-18266040D01*
X3196618Y-18293580D01*
X3132855Y-18299860D01*
X3100974Y-18303000D01*
X2487026Y-18303000D01*
X2455145Y-18299860D01*
X2391382Y-18293580D01*
X2300596Y-18266040D01*
X2268664Y-18256354D01*
X2155575Y-18195906D01*
X2056446Y-18114554D01*
X1975094Y-18015425D01*
X1914646Y-17902336D01*
X1898018Y-17847521D01*
X1877420Y-17779618D01*
X1864851Y-17652000D01*
X1877420Y-17524382D01*
X1905257Y-17432615D01*
X1914646Y-17401664D01*
X1975094Y-17288575D01*
X2056446Y-17189446D01*
X2155575Y-17108094D01*
X2268664Y-17047646D01*
X2300596Y-17037960D01*
X2391382Y-17010420D01*
X2455145Y-17004140D01*
X2487026Y-17001000D01*
X3100974Y-17001000D01*
X3132855Y-17004140D01*
X3132855Y-17004140D01*
G37*
G36*
X62416242Y-16933404D02*
G01*
X62453337Y-16944657D01*
X62487515Y-16962925D01*
X62517481Y-16987519D01*
X62542075Y-17017485D01*
X62560343Y-17051663D01*
X62571596Y-17088758D01*
X62576000Y-17133474D01*
X62576000Y-18026526D01*
X62571596Y-18071242D01*
X62560343Y-18108337D01*
X62542075Y-18142515D01*
X62517481Y-18172481D01*
X62487515Y-18197075D01*
X62453337Y-18215343D01*
X62416242Y-18226596D01*
X62371526Y-18231000D01*
X60928474Y-18231000D01*
X60883758Y-18226596D01*
X60846663Y-18215343D01*
X60812485Y-18197075D01*
X60782519Y-18172481D01*
X60757925Y-18142515D01*
X60739657Y-18108337D01*
X60728404Y-18071242D01*
X60724000Y-18026526D01*
X60724000Y-17133474D01*
X60728404Y-17088758D01*
X60739657Y-17051663D01*
X60757925Y-17017485D01*
X60782519Y-16987519D01*
X60812485Y-16962925D01*
X60846663Y-16944657D01*
X60883758Y-16933404D01*
X60928474Y-16929000D01*
X62371526Y-16929000D01*
X62416242Y-16933404D01*
X62416242Y-16933404D01*
G37*
G36*
X73506242Y-16932404D02*
G01*
X73543337Y-16943657D01*
X73577515Y-16961925D01*
X73607481Y-16986519D01*
X73632075Y-17016485D01*
X73650343Y-17050663D01*
X73661596Y-17087758D01*
X73666000Y-17132474D01*
X73666000Y-18025526D01*
X73661596Y-18070242D01*
X73650343Y-18107337D01*
X73632075Y-18141515D01*
X73607481Y-18171481D01*
X73577515Y-18196075D01*
X73543337Y-18214343D01*
X73506242Y-18225596D01*
X73461526Y-18230000D01*
X72018474Y-18230000D01*
X71973758Y-18225596D01*
X71936663Y-18214343D01*
X71902485Y-18196075D01*
X71872519Y-18171481D01*
X71847925Y-18141515D01*
X71829657Y-18107337D01*
X71818404Y-18070242D01*
X71814000Y-18025526D01*
X71814000Y-17132474D01*
X71818404Y-17087758D01*
X71829657Y-17050663D01*
X71847925Y-17016485D01*
X71872519Y-16986519D01*
X71902485Y-16961925D01*
X71936663Y-16943657D01*
X71973758Y-16932404D01*
X72018474Y-16928000D01*
X73461526Y-16928000D01*
X73506242Y-16932404D01*
X73506242Y-16932404D01*
G37*
G36*
X67957242Y-16932404D02*
G01*
X67994337Y-16943657D01*
X68028515Y-16961925D01*
X68058481Y-16986519D01*
X68083075Y-17016485D01*
X68101343Y-17050663D01*
X68112596Y-17087758D01*
X68117000Y-17132474D01*
X68117000Y-18025526D01*
X68112596Y-18070242D01*
X68101343Y-18107337D01*
X68083075Y-18141515D01*
X68058481Y-18171481D01*
X68028515Y-18196075D01*
X67994337Y-18214343D01*
X67957242Y-18225596D01*
X67912526Y-18230000D01*
X66469474Y-18230000D01*
X66424758Y-18225596D01*
X66387663Y-18214343D01*
X66353485Y-18196075D01*
X66323519Y-18171481D01*
X66298925Y-18141515D01*
X66280657Y-18107337D01*
X66269404Y-18070242D01*
X66265000Y-18025526D01*
X66265000Y-17132474D01*
X66269404Y-17087758D01*
X66280657Y-17050663D01*
X66298925Y-17016485D01*
X66323519Y-16986519D01*
X66353485Y-16961925D01*
X66387663Y-16943657D01*
X66424758Y-16932404D01*
X66469474Y-16928000D01*
X67912526Y-16928000D01*
X67957242Y-16932404D01*
X67957242Y-16932404D01*
G37*
G36*
X37407618Y-16113420D02*
G01*
X37487704Y-16137714D01*
X37530336Y-16150646D01*
X37643425Y-16211094D01*
X37742554Y-16292446D01*
X37823906Y-16391575D01*
X37884354Y-16504664D01*
X37884355Y-16504668D01*
X37921580Y-16627382D01*
X37931000Y-16723027D01*
X37931000Y-17336973D01*
X37921580Y-17432618D01*
X37894040Y-17523404D01*
X37884354Y-17555336D01*
X37823906Y-17668425D01*
X37742554Y-17767553D01*
X37643424Y-17848906D01*
X37530335Y-17909354D01*
X37498403Y-17919040D01*
X37407617Y-17946580D01*
X37280000Y-17959149D01*
X37152382Y-17946580D01*
X37061596Y-17919040D01*
X37029664Y-17909354D01*
X36916575Y-17848906D01*
X36817447Y-17767554D01*
X36736094Y-17668424D01*
X36675646Y-17555335D01*
X36665960Y-17523403D01*
X36638420Y-17432617D01*
X36629000Y-17336972D01*
X36629000Y-16723027D01*
X36638420Y-16627382D01*
X36675645Y-16504668D01*
X36675645Y-16504667D01*
X36707957Y-16444217D01*
X36736095Y-16391574D01*
X36743389Y-16382686D01*
X36817447Y-16292446D01*
X36916576Y-16211094D01*
X37029665Y-16150646D01*
X37072297Y-16137714D01*
X37152383Y-16113420D01*
X37280000Y-16100851D01*
X37407618Y-16113420D01*
X37407618Y-16113420D01*
G37*
G36*
X28467618Y-16113420D02*
G01*
X28547704Y-16137714D01*
X28590336Y-16150646D01*
X28703425Y-16211094D01*
X28802554Y-16292446D01*
X28883906Y-16391575D01*
X28944354Y-16504664D01*
X28944355Y-16504668D01*
X28981580Y-16627382D01*
X28991000Y-16723027D01*
X28991000Y-17336973D01*
X28981580Y-17432618D01*
X28954040Y-17523404D01*
X28944354Y-17555336D01*
X28883906Y-17668425D01*
X28802554Y-17767553D01*
X28703424Y-17848906D01*
X28590335Y-17909354D01*
X28558403Y-17919040D01*
X28467617Y-17946580D01*
X28340000Y-17959149D01*
X28212382Y-17946580D01*
X28121596Y-17919040D01*
X28089664Y-17909354D01*
X27976575Y-17848906D01*
X27877447Y-17767554D01*
X27796094Y-17668424D01*
X27735646Y-17555335D01*
X27725960Y-17523403D01*
X27698420Y-17432617D01*
X27689000Y-17336972D01*
X27689000Y-16723027D01*
X27698420Y-16627382D01*
X27735645Y-16504668D01*
X27735645Y-16504667D01*
X27767957Y-16444217D01*
X27796095Y-16391574D01*
X27803389Y-16382686D01*
X27877447Y-16292446D01*
X27976576Y-16211094D01*
X28089665Y-16150646D01*
X28132297Y-16137714D01*
X28212383Y-16113420D01*
X28340000Y-16100851D01*
X28467618Y-16113420D01*
X28467618Y-16113420D01*
G37*
G36*
X39407618Y-16113420D02*
G01*
X39487704Y-16137714D01*
X39530336Y-16150646D01*
X39643425Y-16211094D01*
X39742554Y-16292446D01*
X39823906Y-16391575D01*
X39884354Y-16504664D01*
X39884355Y-16504668D01*
X39921580Y-16627382D01*
X39931000Y-16723027D01*
X39931000Y-17336973D01*
X39921580Y-17432618D01*
X39894040Y-17523404D01*
X39884354Y-17555336D01*
X39823906Y-17668425D01*
X39742554Y-17767553D01*
X39643424Y-17848906D01*
X39530335Y-17909354D01*
X39498403Y-17919040D01*
X39407617Y-17946580D01*
X39280000Y-17959149D01*
X39152382Y-17946580D01*
X39061596Y-17919040D01*
X39029664Y-17909354D01*
X38916575Y-17848906D01*
X38817447Y-17767554D01*
X38736094Y-17668424D01*
X38675646Y-17555335D01*
X38665960Y-17523403D01*
X38638420Y-17432617D01*
X38629000Y-17336972D01*
X38629000Y-16723027D01*
X38638420Y-16627382D01*
X38675645Y-16504668D01*
X38675645Y-16504667D01*
X38707957Y-16444217D01*
X38736095Y-16391574D01*
X38743389Y-16382686D01*
X38817447Y-16292446D01*
X38916576Y-16211094D01*
X39029665Y-16150646D01*
X39072297Y-16137714D01*
X39152383Y-16113420D01*
X39280000Y-16100851D01*
X39407618Y-16113420D01*
X39407618Y-16113420D01*
G37*
G36*
X21487618Y-16113420D02*
G01*
X21567704Y-16137714D01*
X21610336Y-16150646D01*
X21723425Y-16211094D01*
X21822554Y-16292446D01*
X21903906Y-16391575D01*
X21964354Y-16504664D01*
X21964355Y-16504668D01*
X22001580Y-16627382D01*
X22011000Y-16723027D01*
X22011000Y-17336973D01*
X22001580Y-17432618D01*
X21974040Y-17523404D01*
X21964354Y-17555336D01*
X21903906Y-17668425D01*
X21822554Y-17767553D01*
X21723424Y-17848906D01*
X21610335Y-17909354D01*
X21578403Y-17919040D01*
X21487617Y-17946580D01*
X21360000Y-17959149D01*
X21232382Y-17946580D01*
X21141596Y-17919040D01*
X21109664Y-17909354D01*
X20996575Y-17848906D01*
X20897447Y-17767554D01*
X20816094Y-17668424D01*
X20755646Y-17555335D01*
X20745960Y-17523403D01*
X20718420Y-17432617D01*
X20709000Y-17336972D01*
X20709000Y-16723027D01*
X20718420Y-16627382D01*
X20755645Y-16504668D01*
X20755645Y-16504667D01*
X20787957Y-16444217D01*
X20816095Y-16391574D01*
X20823389Y-16382686D01*
X20897447Y-16292446D01*
X20996576Y-16211094D01*
X21109665Y-16150646D01*
X21152297Y-16137714D01*
X21232383Y-16113420D01*
X21360000Y-16100851D01*
X21487618Y-16113420D01*
X21487618Y-16113420D01*
G37*
G36*
X47407618Y-16113420D02*
G01*
X47487704Y-16137714D01*
X47530336Y-16150646D01*
X47643425Y-16211094D01*
X47742554Y-16292446D01*
X47823906Y-16391575D01*
X47884354Y-16504664D01*
X47884355Y-16504668D01*
X47921580Y-16627382D01*
X47931000Y-16723027D01*
X47931000Y-17336973D01*
X47921580Y-17432618D01*
X47894040Y-17523404D01*
X47884354Y-17555336D01*
X47823906Y-17668425D01*
X47742554Y-17767553D01*
X47643424Y-17848906D01*
X47530335Y-17909354D01*
X47498403Y-17919040D01*
X47407617Y-17946580D01*
X47280000Y-17959149D01*
X47152382Y-17946580D01*
X47061596Y-17919040D01*
X47029664Y-17909354D01*
X46916575Y-17848906D01*
X46817447Y-17767554D01*
X46736094Y-17668424D01*
X46675646Y-17555335D01*
X46665960Y-17523403D01*
X46638420Y-17432617D01*
X46629000Y-17336972D01*
X46629000Y-16723027D01*
X46638420Y-16627382D01*
X46675645Y-16504668D01*
X46675645Y-16504667D01*
X46707957Y-16444217D01*
X46736095Y-16391574D01*
X46743389Y-16382686D01*
X46817447Y-16292446D01*
X46916576Y-16211094D01*
X47029665Y-16150646D01*
X47072297Y-16137714D01*
X47152383Y-16113420D01*
X47280000Y-16100851D01*
X47407618Y-16113420D01*
X47407618Y-16113420D01*
G37*
G36*
X45407618Y-16113420D02*
G01*
X45487704Y-16137714D01*
X45530336Y-16150646D01*
X45643425Y-16211094D01*
X45742554Y-16292446D01*
X45823906Y-16391575D01*
X45884354Y-16504664D01*
X45884355Y-16504668D01*
X45921580Y-16627382D01*
X45931000Y-16723027D01*
X45931000Y-17336973D01*
X45921580Y-17432618D01*
X45894040Y-17523404D01*
X45884354Y-17555336D01*
X45823906Y-17668425D01*
X45742554Y-17767553D01*
X45643424Y-17848906D01*
X45530335Y-17909354D01*
X45498403Y-17919040D01*
X45407617Y-17946580D01*
X45280000Y-17959149D01*
X45152382Y-17946580D01*
X45061596Y-17919040D01*
X45029664Y-17909354D01*
X44916575Y-17848906D01*
X44817447Y-17767554D01*
X44736094Y-17668424D01*
X44675646Y-17555335D01*
X44665960Y-17523403D01*
X44638420Y-17432617D01*
X44629000Y-17336972D01*
X44629000Y-16723027D01*
X44638420Y-16627382D01*
X44675645Y-16504668D01*
X44675645Y-16504667D01*
X44707957Y-16444217D01*
X44736095Y-16391574D01*
X44743389Y-16382686D01*
X44817447Y-16292446D01*
X44916576Y-16211094D01*
X45029665Y-16150646D01*
X45072297Y-16137714D01*
X45152383Y-16113420D01*
X45280000Y-16100851D01*
X45407618Y-16113420D01*
X45407618Y-16113420D01*
G37*
G36*
X43407618Y-16113420D02*
G01*
X43487704Y-16137714D01*
X43530336Y-16150646D01*
X43643425Y-16211094D01*
X43742554Y-16292446D01*
X43823906Y-16391575D01*
X43884354Y-16504664D01*
X43884355Y-16504668D01*
X43921580Y-16627382D01*
X43931000Y-16723027D01*
X43931000Y-17336973D01*
X43921580Y-17432618D01*
X43894040Y-17523404D01*
X43884354Y-17555336D01*
X43823906Y-17668425D01*
X43742554Y-17767553D01*
X43643424Y-17848906D01*
X43530335Y-17909354D01*
X43498403Y-17919040D01*
X43407617Y-17946580D01*
X43280000Y-17959149D01*
X43152382Y-17946580D01*
X43061596Y-17919040D01*
X43029664Y-17909354D01*
X42916575Y-17848906D01*
X42817447Y-17767554D01*
X42736094Y-17668424D01*
X42675646Y-17555335D01*
X42665960Y-17523403D01*
X42638420Y-17432617D01*
X42629000Y-17336972D01*
X42629000Y-16723027D01*
X42638420Y-16627382D01*
X42675645Y-16504668D01*
X42675645Y-16504667D01*
X42707957Y-16444217D01*
X42736095Y-16391574D01*
X42743389Y-16382686D01*
X42817447Y-16292446D01*
X42916576Y-16211094D01*
X43029665Y-16150646D01*
X43072297Y-16137714D01*
X43152383Y-16113420D01*
X43280000Y-16100851D01*
X43407618Y-16113420D01*
X43407618Y-16113420D01*
G37*
G36*
X41407618Y-16113420D02*
G01*
X41487704Y-16137714D01*
X41530336Y-16150646D01*
X41643425Y-16211094D01*
X41742554Y-16292446D01*
X41823906Y-16391575D01*
X41884354Y-16504664D01*
X41884355Y-16504668D01*
X41921580Y-16627382D01*
X41931000Y-16723027D01*
X41931000Y-17336973D01*
X41921580Y-17432618D01*
X41894040Y-17523404D01*
X41884354Y-17555336D01*
X41823906Y-17668425D01*
X41742554Y-17767553D01*
X41643424Y-17848906D01*
X41530335Y-17909354D01*
X41498403Y-17919040D01*
X41407617Y-17946580D01*
X41280000Y-17959149D01*
X41152382Y-17946580D01*
X41061596Y-17919040D01*
X41029664Y-17909354D01*
X40916575Y-17848906D01*
X40817447Y-17767554D01*
X40736094Y-17668424D01*
X40675646Y-17555335D01*
X40665960Y-17523403D01*
X40638420Y-17432617D01*
X40629000Y-17336972D01*
X40629000Y-16723027D01*
X40638420Y-16627382D01*
X40675645Y-16504668D01*
X40675645Y-16504667D01*
X40707957Y-16444217D01*
X40736095Y-16391574D01*
X40743389Y-16382686D01*
X40817447Y-16292446D01*
X40916576Y-16211094D01*
X41029665Y-16150646D01*
X41072297Y-16137714D01*
X41152383Y-16113420D01*
X41280000Y-16100851D01*
X41407618Y-16113420D01*
X41407618Y-16113420D01*
G37*
G36*
X30467618Y-16113420D02*
G01*
X30547704Y-16137714D01*
X30590336Y-16150646D01*
X30703425Y-16211094D01*
X30802554Y-16292446D01*
X30883906Y-16391575D01*
X30944354Y-16504664D01*
X30944355Y-16504668D01*
X30981580Y-16627382D01*
X30991000Y-16723027D01*
X30991000Y-17336973D01*
X30981580Y-17432618D01*
X30954040Y-17523404D01*
X30944354Y-17555336D01*
X30883906Y-17668425D01*
X30802554Y-17767553D01*
X30703424Y-17848906D01*
X30590335Y-17909354D01*
X30558403Y-17919040D01*
X30467617Y-17946580D01*
X30340000Y-17959149D01*
X30212382Y-17946580D01*
X30121596Y-17919040D01*
X30089664Y-17909354D01*
X29976575Y-17848906D01*
X29877447Y-17767554D01*
X29796094Y-17668424D01*
X29735646Y-17555335D01*
X29725960Y-17523403D01*
X29698420Y-17432617D01*
X29689000Y-17336972D01*
X29689000Y-16723027D01*
X29698420Y-16627382D01*
X29735645Y-16504668D01*
X29735645Y-16504667D01*
X29767957Y-16444217D01*
X29796095Y-16391574D01*
X29803389Y-16382686D01*
X29877447Y-16292446D01*
X29976576Y-16211094D01*
X30089665Y-16150646D01*
X30132297Y-16137714D01*
X30212383Y-16113420D01*
X30340000Y-16100851D01*
X30467618Y-16113420D01*
X30467618Y-16113420D01*
G37*
G36*
X23851242Y-16108404D02*
G01*
X23888337Y-16119657D01*
X23922515Y-16137925D01*
X23952481Y-16162519D01*
X23977075Y-16192485D01*
X23995343Y-16226663D01*
X24006596Y-16263758D01*
X24011000Y-16308474D01*
X24011000Y-17751526D01*
X24006596Y-17796242D01*
X23995343Y-17833337D01*
X23977075Y-17867515D01*
X23952481Y-17897481D01*
X23922515Y-17922075D01*
X23888337Y-17940343D01*
X23851242Y-17951596D01*
X23806526Y-17956000D01*
X22913474Y-17956000D01*
X22868758Y-17951596D01*
X22831663Y-17940343D01*
X22797485Y-17922075D01*
X22767519Y-17897481D01*
X22742925Y-17867515D01*
X22724657Y-17833337D01*
X22713404Y-17796242D01*
X22709000Y-17751526D01*
X22709000Y-16308474D01*
X22713404Y-16263758D01*
X22724657Y-16226663D01*
X22742925Y-16192485D01*
X22767519Y-16162519D01*
X22797485Y-16137925D01*
X22831663Y-16119657D01*
X22868758Y-16108404D01*
X22913474Y-16104000D01*
X23806526Y-16104000D01*
X23851242Y-16108404D01*
X23851242Y-16108404D01*
G37*
G36*
X32831242Y-16108404D02*
G01*
X32868337Y-16119657D01*
X32902515Y-16137925D01*
X32932481Y-16162519D01*
X32957075Y-16192485D01*
X32975343Y-16226663D01*
X32986596Y-16263758D01*
X32991000Y-16308474D01*
X32991000Y-17751526D01*
X32986596Y-17796242D01*
X32975343Y-17833337D01*
X32957075Y-17867515D01*
X32932481Y-17897481D01*
X32902515Y-17922075D01*
X32868337Y-17940343D01*
X32831242Y-17951596D01*
X32786526Y-17956000D01*
X31893474Y-17956000D01*
X31848758Y-17951596D01*
X31811663Y-17940343D01*
X31777485Y-17922075D01*
X31747519Y-17897481D01*
X31722925Y-17867515D01*
X31704657Y-17833337D01*
X31693404Y-17796242D01*
X31689000Y-17751526D01*
X31689000Y-16308474D01*
X31693404Y-16263758D01*
X31704657Y-16226663D01*
X31722925Y-16192485D01*
X31747519Y-16162519D01*
X31777485Y-16137925D01*
X31811663Y-16119657D01*
X31848758Y-16108404D01*
X31893474Y-16104000D01*
X32786526Y-16104000D01*
X32831242Y-16108404D01*
X32831242Y-16108404D01*
G37*
G36*
X12510618Y-16101420D02*
G01*
X12587190Y-16124648D01*
X12633336Y-16138646D01*
X12746425Y-16199094D01*
X12845554Y-16280446D01*
X12926906Y-16379575D01*
X12987354Y-16492664D01*
X12987355Y-16492668D01*
X13024580Y-16615382D01*
X13034000Y-16711027D01*
X13034000Y-17324973D01*
X13024580Y-17420618D01*
X12997040Y-17511404D01*
X12987354Y-17543336D01*
X12926906Y-17656425D01*
X12845554Y-17755553D01*
X12746424Y-17836906D01*
X12633335Y-17897354D01*
X12616924Y-17902332D01*
X12510617Y-17934580D01*
X12383000Y-17947149D01*
X12255382Y-17934580D01*
X12149075Y-17902332D01*
X12132664Y-17897354D01*
X12019575Y-17836906D01*
X11920447Y-17755554D01*
X11839094Y-17656424D01*
X11778646Y-17543335D01*
X11768960Y-17511403D01*
X11741420Y-17420617D01*
X11732000Y-17324972D01*
X11732000Y-16711027D01*
X11741420Y-16615382D01*
X11766237Y-16533573D01*
X11778645Y-16492667D01*
X11810957Y-16432217D01*
X11839095Y-16379574D01*
X11852493Y-16363249D01*
X11920447Y-16280446D01*
X12019576Y-16199094D01*
X12132665Y-16138646D01*
X12178811Y-16124648D01*
X12255383Y-16101420D01*
X12383000Y-16088851D01*
X12510618Y-16101420D01*
X12510618Y-16101420D01*
G37*
G36*
X14510618Y-16101420D02*
G01*
X14587190Y-16124648D01*
X14633336Y-16138646D01*
X14746425Y-16199094D01*
X14845554Y-16280446D01*
X14926906Y-16379575D01*
X14987354Y-16492664D01*
X14987355Y-16492668D01*
X15024580Y-16615382D01*
X15034000Y-16711027D01*
X15034000Y-17324973D01*
X15024580Y-17420618D01*
X14997040Y-17511404D01*
X14987354Y-17543336D01*
X14926906Y-17656425D01*
X14845554Y-17755553D01*
X14746424Y-17836906D01*
X14633335Y-17897354D01*
X14616924Y-17902332D01*
X14510617Y-17934580D01*
X14383000Y-17947149D01*
X14255382Y-17934580D01*
X14149075Y-17902332D01*
X14132664Y-17897354D01*
X14019575Y-17836906D01*
X13920447Y-17755554D01*
X13839094Y-17656424D01*
X13778646Y-17543335D01*
X13768960Y-17511403D01*
X13741420Y-17420617D01*
X13732000Y-17324972D01*
X13732000Y-16711027D01*
X13741420Y-16615382D01*
X13766237Y-16533573D01*
X13778645Y-16492667D01*
X13810957Y-16432217D01*
X13839095Y-16379574D01*
X13852493Y-16363249D01*
X13920447Y-16280446D01*
X14019576Y-16199094D01*
X14132665Y-16138646D01*
X14178811Y-16124648D01*
X14255383Y-16101420D01*
X14383000Y-16088851D01*
X14510618Y-16101420D01*
X14510618Y-16101420D01*
G37*
G36*
X10510618Y-16101420D02*
G01*
X10587190Y-16124648D01*
X10633336Y-16138646D01*
X10746425Y-16199094D01*
X10845554Y-16280446D01*
X10926906Y-16379575D01*
X10987354Y-16492664D01*
X10987355Y-16492668D01*
X11024580Y-16615382D01*
X11034000Y-16711027D01*
X11034000Y-17324973D01*
X11024580Y-17420618D01*
X10997040Y-17511404D01*
X10987354Y-17543336D01*
X10926906Y-17656425D01*
X10845554Y-17755553D01*
X10746424Y-17836906D01*
X10633335Y-17897354D01*
X10616924Y-17902332D01*
X10510617Y-17934580D01*
X10383000Y-17947149D01*
X10255382Y-17934580D01*
X10149075Y-17902332D01*
X10132664Y-17897354D01*
X10019575Y-17836906D01*
X9920447Y-17755554D01*
X9839094Y-17656424D01*
X9778646Y-17543335D01*
X9768960Y-17511403D01*
X9741420Y-17420617D01*
X9732000Y-17324972D01*
X9732000Y-16711027D01*
X9741420Y-16615382D01*
X9766237Y-16533573D01*
X9778645Y-16492667D01*
X9810957Y-16432217D01*
X9839095Y-16379574D01*
X9852493Y-16363249D01*
X9920447Y-16280446D01*
X10019576Y-16199094D01*
X10132665Y-16138646D01*
X10178811Y-16124648D01*
X10255383Y-16101420D01*
X10383000Y-16088851D01*
X10510618Y-16101420D01*
X10510618Y-16101420D01*
G37*
G36*
X16874242Y-16096404D02*
G01*
X16911337Y-16107657D01*
X16945515Y-16125925D01*
X16975481Y-16150519D01*
X17000075Y-16180485D01*
X17018343Y-16214663D01*
X17029596Y-16251758D01*
X17034000Y-16296474D01*
X17034000Y-17739526D01*
X17029596Y-17784242D01*
X17018343Y-17821337D01*
X17000075Y-17855515D01*
X16975481Y-17885481D01*
X16945515Y-17910075D01*
X16911337Y-17928343D01*
X16874242Y-17939596D01*
X16829526Y-17944000D01*
X15936474Y-17944000D01*
X15891758Y-17939596D01*
X15854663Y-17928343D01*
X15820485Y-17910075D01*
X15790519Y-17885481D01*
X15765925Y-17855515D01*
X15747657Y-17821337D01*
X15736404Y-17784242D01*
X15732000Y-17739526D01*
X15732000Y-16296474D01*
X15736404Y-16251758D01*
X15747657Y-16214663D01*
X15765925Y-16180485D01*
X15790519Y-16150519D01*
X15820485Y-16125925D01*
X15854663Y-16107657D01*
X15891758Y-16096404D01*
X15936474Y-16092000D01*
X16829526Y-16092000D01*
X16874242Y-16096404D01*
X16874242Y-16096404D01*
G37*
G36*
X3132855Y-15004140D02*
G01*
X3196618Y-15010420D01*
X3287404Y-15037960D01*
X3319336Y-15047646D01*
X3432425Y-15108094D01*
X3531554Y-15189446D01*
X3612906Y-15288575D01*
X3673354Y-15401664D01*
X3673355Y-15401668D01*
X3710580Y-15524382D01*
X3723149Y-15652000D01*
X3710580Y-15779618D01*
X3683040Y-15870404D01*
X3673354Y-15902336D01*
X3612906Y-16015425D01*
X3531554Y-16114554D01*
X3432425Y-16195906D01*
X3319336Y-16256354D01*
X3294928Y-16263758D01*
X3196618Y-16293580D01*
X3132855Y-16299860D01*
X3100974Y-16303000D01*
X2487026Y-16303000D01*
X2455145Y-16299860D01*
X2391382Y-16293580D01*
X2293072Y-16263758D01*
X2268664Y-16256354D01*
X2155575Y-16195906D01*
X2056446Y-16114554D01*
X1975094Y-16015425D01*
X1914646Y-15902336D01*
X1904960Y-15870404D01*
X1877420Y-15779618D01*
X1864851Y-15652000D01*
X1877420Y-15524382D01*
X1914645Y-15401668D01*
X1914646Y-15401664D01*
X1975094Y-15288575D01*
X2056446Y-15189446D01*
X2155575Y-15108094D01*
X2268664Y-15047646D01*
X2300596Y-15037960D01*
X2391382Y-15010420D01*
X2455145Y-15004140D01*
X2487026Y-15001000D01*
X3100974Y-15001000D01*
X3132855Y-15004140D01*
X3132855Y-15004140D01*
G37*
G36*
X16964468Y-14393565D02*
G01*
X17003138Y-14405296D01*
X17038777Y-14424346D01*
X17070017Y-14449983D01*
X17095654Y-14481223D01*
X17114704Y-14516862D01*
X17126435Y-14555532D01*
X17131000Y-14601888D01*
X17131000Y-15253112D01*
X17126435Y-15299468D01*
X17114704Y-15338138D01*
X17095654Y-15373777D01*
X17070017Y-15405017D01*
X17038777Y-15430654D01*
X17003138Y-15449704D01*
X16964468Y-15461435D01*
X16918112Y-15466000D01*
X15841888Y-15466000D01*
X15795532Y-15461435D01*
X15756862Y-15449704D01*
X15721223Y-15430654D01*
X15689983Y-15405017D01*
X15664346Y-15373777D01*
X15645296Y-15338138D01*
X15633565Y-15299468D01*
X15629000Y-15253112D01*
X15629000Y-14601888D01*
X15633565Y-14555532D01*
X15645296Y-14516862D01*
X15664346Y-14481223D01*
X15689983Y-14449983D01*
X15721223Y-14424346D01*
X15756862Y-14405296D01*
X15795532Y-14393565D01*
X15841888Y-14389000D01*
X16918112Y-14389000D01*
X16964468Y-14393565D01*
X16964468Y-14393565D01*
G37*
G36*
X71819943Y-8566248D02*
G01*
X72375189Y-8796238D01*
X72375190Y-8796239D01*
X72874899Y-9130134D01*
X73299866Y-9555101D01*
X73299867Y-9555103D01*
X73633762Y-10054811D01*
X73863752Y-10610057D01*
X73981000Y-11199501D01*
X73981000Y-11800499D01*
X73863752Y-12389943D01*
X73633762Y-12945189D01*
X73633761Y-12945190D01*
X73299866Y-13444899D01*
X72874899Y-13869866D01*
X72826310Y-13902332D01*
X72375189Y-14203762D01*
X71819943Y-14433752D01*
X71230499Y-14551000D01*
X70629501Y-14551000D01*
X70040057Y-14433752D01*
X69484811Y-14203762D01*
X69033690Y-13902332D01*
X68985101Y-13869866D01*
X68560134Y-13444899D01*
X68226239Y-12945190D01*
X68226238Y-12945189D01*
X67996248Y-12389943D01*
X67879000Y-11800499D01*
X67879000Y-11199501D01*
X67996248Y-10610057D01*
X68226238Y-10054811D01*
X68560133Y-9555103D01*
X68560134Y-9555101D01*
X68985101Y-9130134D01*
X69484810Y-8796239D01*
X69484811Y-8796238D01*
X70040057Y-8566248D01*
X70629501Y-8449000D01*
X71230499Y-8449000D01*
X71819943Y-8566248D01*
X71819943Y-8566248D01*
G37*
G36*
X3132855Y-13004140D02*
G01*
X3196618Y-13010420D01*
X3287404Y-13037960D01*
X3319336Y-13047646D01*
X3432425Y-13108094D01*
X3531554Y-13189446D01*
X3612906Y-13288575D01*
X3673354Y-13401664D01*
X3673355Y-13401668D01*
X3710580Y-13524382D01*
X3723149Y-13652000D01*
X3710580Y-13779618D01*
X3683203Y-13869866D01*
X3673354Y-13902336D01*
X3612906Y-14015425D01*
X3531554Y-14114554D01*
X3432425Y-14195906D01*
X3319336Y-14256354D01*
X3287404Y-14266040D01*
X3196618Y-14293580D01*
X3132855Y-14299860D01*
X3100974Y-14303000D01*
X2487026Y-14303000D01*
X2455145Y-14299860D01*
X2391382Y-14293580D01*
X2300596Y-14266040D01*
X2268664Y-14256354D01*
X2155575Y-14195906D01*
X2056446Y-14114554D01*
X1975094Y-14015425D01*
X1914646Y-13902336D01*
X1904797Y-13869866D01*
X1877420Y-13779618D01*
X1864851Y-13652000D01*
X1877420Y-13524382D01*
X1914645Y-13401668D01*
X1914646Y-13401664D01*
X1975094Y-13288575D01*
X2056446Y-13189446D01*
X2155575Y-13108094D01*
X2268664Y-13047646D01*
X2300596Y-13037960D01*
X2391382Y-13010420D01*
X2455145Y-13004140D01*
X2487026Y-13001000D01*
X3100974Y-13001000D01*
X3132855Y-13004140D01*
X3132855Y-13004140D01*
G37*
G36*
X15902546Y-9803134D02*
G01*
X15937010Y-9813589D01*
X15968761Y-9830560D01*
X15996597Y-9853403D01*
X16019440Y-9881239D01*
X16036411Y-9912990D01*
X16046866Y-9947454D01*
X16051000Y-9989425D01*
X16051000Y-12210575D01*
X16046866Y-12252546D01*
X16036411Y-12287010D01*
X16013912Y-12329103D01*
X16013257Y-12330084D01*
X16003881Y-12352724D01*
X15999102Y-12376757D01*
X15999104Y-12401261D01*
X16003886Y-12425294D01*
X16013265Y-12447932D01*
X16026880Y-12468306D01*
X16044208Y-12485632D01*
X16064583Y-12499244D01*
X16087223Y-12508620D01*
X16123500Y-12514000D01*
X16918112Y-12514000D01*
X16964468Y-12518565D01*
X17003138Y-12530296D01*
X17038777Y-12549346D01*
X17070017Y-12574983D01*
X17095654Y-12606223D01*
X17114704Y-12641862D01*
X17126435Y-12680532D01*
X17131000Y-12726888D01*
X17131000Y-13378112D01*
X17126435Y-13424468D01*
X17114704Y-13463138D01*
X17095654Y-13498777D01*
X17070017Y-13530017D01*
X17038777Y-13555654D01*
X17003138Y-13574704D01*
X16964468Y-13586435D01*
X16918112Y-13591000D01*
X15841888Y-13591000D01*
X15795532Y-13586435D01*
X15756862Y-13574704D01*
X15721223Y-13555654D01*
X15689983Y-13530017D01*
X15664346Y-13498777D01*
X15645296Y-13463138D01*
X15633565Y-13424468D01*
X15629000Y-13378112D01*
X15629000Y-12726888D01*
X15633565Y-12680532D01*
X15645296Y-12641862D01*
X15664346Y-12606223D01*
X15665104Y-12605299D01*
X15678718Y-12584925D01*
X15688096Y-12562286D01*
X15692877Y-12538253D01*
X15692877Y-12513749D01*
X15688097Y-12489716D01*
X15678720Y-12467077D01*
X15665107Y-12446702D01*
X15647780Y-12429375D01*
X15627406Y-12415761D01*
X15604767Y-12406383D01*
X15580734Y-12401602D01*
X15568480Y-12401000D01*
X14639425Y-12401000D01*
X14597454Y-12396866D01*
X14562990Y-12386411D01*
X14531239Y-12369440D01*
X14503403Y-12346597D01*
X14480560Y-12318761D01*
X14463589Y-12287010D01*
X14453134Y-12252546D01*
X14449000Y-12210575D01*
X14449000Y-9989425D01*
X14453134Y-9947454D01*
X14463589Y-9912990D01*
X14480560Y-9881239D01*
X14503403Y-9853403D01*
X14531239Y-9830560D01*
X14562990Y-9813589D01*
X14597454Y-9803134D01*
X14639425Y-9799000D01*
X15860575Y-9799000D01*
X15902546Y-9803134D01*
X15902546Y-9803134D01*
G37*
G36*
X9202546Y-9803134D02*
G01*
X9237010Y-9813589D01*
X9268761Y-9830560D01*
X9296597Y-9853403D01*
X9319440Y-9881239D01*
X9336411Y-9912990D01*
X9346866Y-9947454D01*
X9351000Y-9989425D01*
X9351000Y-12210575D01*
X9346866Y-12252546D01*
X9336411Y-12287010D01*
X9319440Y-12318761D01*
X9296597Y-12346597D01*
X9268761Y-12369440D01*
X9237010Y-12386411D01*
X9202546Y-12396866D01*
X9160575Y-12401000D01*
X7939425Y-12401000D01*
X7897454Y-12396866D01*
X7862990Y-12386411D01*
X7831239Y-12369440D01*
X7803403Y-12346597D01*
X7780560Y-12318761D01*
X7763589Y-12287010D01*
X7753134Y-12252546D01*
X7749000Y-12210575D01*
X7749000Y-9989425D01*
X7753134Y-9947454D01*
X7763589Y-9912990D01*
X7780560Y-9881239D01*
X7803403Y-9853403D01*
X7831239Y-9830560D01*
X7862990Y-9813589D01*
X7897454Y-9803134D01*
X7939425Y-9799000D01*
X9160575Y-9799000D01*
X9202546Y-9803134D01*
X9202546Y-9803134D01*
G37*
G36*
X28902546Y-9803134D02*
G01*
X28937010Y-9813589D01*
X28968761Y-9830560D01*
X28996597Y-9853403D01*
X29019440Y-9881239D01*
X29036411Y-9912990D01*
X29046866Y-9947454D01*
X29051000Y-9989425D01*
X29051000Y-12210575D01*
X29046866Y-12252546D01*
X29036411Y-12287010D01*
X29019440Y-12318761D01*
X28996597Y-12346597D01*
X28968761Y-12369440D01*
X28937010Y-12386411D01*
X28902546Y-12396866D01*
X28860575Y-12401000D01*
X27639425Y-12401000D01*
X27597454Y-12396866D01*
X27562990Y-12386411D01*
X27531239Y-12369440D01*
X27503403Y-12346597D01*
X27480560Y-12318761D01*
X27463589Y-12287010D01*
X27453134Y-12252546D01*
X27449000Y-12210575D01*
X27449000Y-9989425D01*
X27453134Y-9947454D01*
X27463589Y-9912990D01*
X27480560Y-9881239D01*
X27503403Y-9853403D01*
X27531239Y-9830560D01*
X27562990Y-9813589D01*
X27597454Y-9803134D01*
X27639425Y-9799000D01*
X28860575Y-9799000D01*
X28902546Y-9803134D01*
X28902546Y-9803134D01*
G37*
G36*
X22202546Y-9803134D02*
G01*
X22237010Y-9813589D01*
X22268761Y-9830560D01*
X22296597Y-9853403D01*
X22319440Y-9881239D01*
X22336411Y-9912990D01*
X22346866Y-9947454D01*
X22351000Y-9989425D01*
X22351000Y-12210575D01*
X22346866Y-12252546D01*
X22336411Y-12287010D01*
X22319440Y-12318761D01*
X22296597Y-12346597D01*
X22268761Y-12369440D01*
X22237010Y-12386411D01*
X22202546Y-12396866D01*
X22160575Y-12401000D01*
X20939425Y-12401000D01*
X20897454Y-12396866D01*
X20862990Y-12386411D01*
X20831239Y-12369440D01*
X20803403Y-12346597D01*
X20780560Y-12318761D01*
X20763589Y-12287010D01*
X20753134Y-12252546D01*
X20749000Y-12210575D01*
X20749000Y-9989425D01*
X20753134Y-9947454D01*
X20763589Y-9912990D01*
X20780560Y-9881239D01*
X20803403Y-9853403D01*
X20831239Y-9830560D01*
X20862990Y-9813589D01*
X20897454Y-9803134D01*
X20939425Y-9799000D01*
X22160575Y-9799000D01*
X22202546Y-9803134D01*
X22202546Y-9803134D01*
G37*
G36*
X41902546Y-9803134D02*
G01*
X41937010Y-9813589D01*
X41968761Y-9830560D01*
X41996597Y-9853403D01*
X42019440Y-9881239D01*
X42036411Y-9912990D01*
X42046866Y-9947454D01*
X42051000Y-9989425D01*
X42051000Y-12210575D01*
X42046866Y-12252546D01*
X42036411Y-12287010D01*
X42019440Y-12318761D01*
X41996597Y-12346597D01*
X41968761Y-12369440D01*
X41937010Y-12386411D01*
X41902546Y-12396866D01*
X41860575Y-12401000D01*
X40639425Y-12401000D01*
X40597454Y-12396866D01*
X40562990Y-12386411D01*
X40531239Y-12369440D01*
X40503403Y-12346597D01*
X40480560Y-12318761D01*
X40463589Y-12287010D01*
X40453134Y-12252546D01*
X40449000Y-12210575D01*
X40449000Y-9989425D01*
X40453134Y-9947454D01*
X40463589Y-9912990D01*
X40480560Y-9881239D01*
X40503403Y-9853403D01*
X40531239Y-9830560D01*
X40562990Y-9813589D01*
X40597454Y-9803134D01*
X40639425Y-9799000D01*
X41860575Y-9799000D01*
X41902546Y-9803134D01*
X41902546Y-9803134D01*
G37*
G36*
X35202546Y-9803134D02*
G01*
X35237010Y-9813589D01*
X35268761Y-9830560D01*
X35296597Y-9853403D01*
X35319440Y-9881239D01*
X35336411Y-9912990D01*
X35346866Y-9947454D01*
X35351000Y-9989425D01*
X35351000Y-12210575D01*
X35346866Y-12252546D01*
X35336411Y-12287010D01*
X35319440Y-12318761D01*
X35296597Y-12346597D01*
X35268761Y-12369440D01*
X35237010Y-12386411D01*
X35202546Y-12396866D01*
X35160575Y-12401000D01*
X33939425Y-12401000D01*
X33897454Y-12396866D01*
X33862990Y-12386411D01*
X33831239Y-12369440D01*
X33803403Y-12346597D01*
X33780560Y-12318761D01*
X33763589Y-12287010D01*
X33753134Y-12252546D01*
X33749000Y-12210575D01*
X33749000Y-9989425D01*
X33753134Y-9947454D01*
X33763589Y-9912990D01*
X33780560Y-9881239D01*
X33803403Y-9853403D01*
X33831239Y-9830560D01*
X33862990Y-9813589D01*
X33897454Y-9803134D01*
X33939425Y-9799000D01*
X35160575Y-9799000D01*
X35202546Y-9803134D01*
X35202546Y-9803134D01*
G37*
G36*
X48202546Y-9803134D02*
G01*
X48237010Y-9813589D01*
X48268761Y-9830560D01*
X48296597Y-9853403D01*
X48319440Y-9881239D01*
X48336411Y-9912990D01*
X48346866Y-9947454D01*
X48351000Y-9989425D01*
X48351000Y-12210575D01*
X48346866Y-12252546D01*
X48336411Y-12287010D01*
X48319440Y-12318761D01*
X48296597Y-12346597D01*
X48268761Y-12369440D01*
X48237010Y-12386411D01*
X48202546Y-12396866D01*
X48160575Y-12401000D01*
X46939425Y-12401000D01*
X46897454Y-12396866D01*
X46862990Y-12386411D01*
X46831239Y-12369440D01*
X46803403Y-12346597D01*
X46780560Y-12318761D01*
X46763589Y-12287010D01*
X46753134Y-12252546D01*
X46749000Y-12210575D01*
X46749000Y-9989425D01*
X46753134Y-9947454D01*
X46763589Y-9912990D01*
X46780560Y-9881239D01*
X46803403Y-9853403D01*
X46831239Y-9830560D01*
X46862990Y-9813589D01*
X46897454Y-9803134D01*
X46939425Y-9799000D01*
X48160575Y-9799000D01*
X48202546Y-9803134D01*
X48202546Y-9803134D01*
G37*
G36*
X54902546Y-9803134D02*
G01*
X54937010Y-9813589D01*
X54968761Y-9830560D01*
X54996597Y-9853403D01*
X55019440Y-9881239D01*
X55036411Y-9912990D01*
X55046866Y-9947454D01*
X55051000Y-9989425D01*
X55051000Y-12210575D01*
X55046866Y-12252546D01*
X55036411Y-12287010D01*
X55019440Y-12318761D01*
X54996597Y-12346597D01*
X54968761Y-12369440D01*
X54937010Y-12386411D01*
X54902546Y-12396866D01*
X54860575Y-12401000D01*
X53639425Y-12401000D01*
X53597454Y-12396866D01*
X53562990Y-12386411D01*
X53531239Y-12369440D01*
X53503403Y-12346597D01*
X53480560Y-12318761D01*
X53463589Y-12287010D01*
X53453134Y-12252546D01*
X53449000Y-12210575D01*
X53449000Y-9989425D01*
X53453134Y-9947454D01*
X53463589Y-9912990D01*
X53480560Y-9881239D01*
X53503403Y-9853403D01*
X53531239Y-9830560D01*
X53562990Y-9813589D01*
X53597454Y-9803134D01*
X53639425Y-9799000D01*
X54860575Y-9799000D01*
X54902546Y-9803134D01*
X54902546Y-9803134D01*
G37*
G36*
X3132855Y-11004140D02*
G01*
X3196618Y-11010420D01*
X3287404Y-11037960D01*
X3319336Y-11047646D01*
X3432425Y-11108094D01*
X3531554Y-11189446D01*
X3612906Y-11288575D01*
X3673354Y-11401664D01*
X3673355Y-11401668D01*
X3710580Y-11524382D01*
X3723149Y-11652000D01*
X3710580Y-11779618D01*
X3683040Y-11870404D01*
X3673354Y-11902336D01*
X3612906Y-12015425D01*
X3531554Y-12114554D01*
X3432425Y-12195906D01*
X3319336Y-12256354D01*
X3287404Y-12266040D01*
X3196618Y-12293580D01*
X3132855Y-12299860D01*
X3100974Y-12303000D01*
X2487026Y-12303000D01*
X2455145Y-12299860D01*
X2391382Y-12293580D01*
X2300596Y-12266040D01*
X2268664Y-12256354D01*
X2155575Y-12195906D01*
X2056446Y-12114554D01*
X1975094Y-12015425D01*
X1914646Y-11902336D01*
X1904960Y-11870404D01*
X1877420Y-11779618D01*
X1864851Y-11652000D01*
X1877420Y-11524382D01*
X1914645Y-11401668D01*
X1914646Y-11401664D01*
X1975094Y-11288575D01*
X2056446Y-11189446D01*
X2155575Y-11108094D01*
X2268664Y-11047646D01*
X2300596Y-11037960D01*
X2391382Y-11010420D01*
X2455145Y-11004140D01*
X2487026Y-11001000D01*
X3100974Y-11001000D01*
X3132855Y-11004140D01*
X3132855Y-11004140D01*
G37*
G36*
X3560242Y-9005404D02*
G01*
X3597337Y-9016657D01*
X3631515Y-9034925D01*
X3661481Y-9059519D01*
X3686075Y-9089485D01*
X3704343Y-9123663D01*
X3715596Y-9160758D01*
X3720000Y-9205474D01*
X3720000Y-10098526D01*
X3715596Y-10143242D01*
X3704343Y-10180337D01*
X3686075Y-10214515D01*
X3661481Y-10244481D01*
X3631515Y-10269075D01*
X3597337Y-10287343D01*
X3560242Y-10298596D01*
X3515526Y-10303000D01*
X2072474Y-10303000D01*
X2027758Y-10298596D01*
X1990663Y-10287343D01*
X1956485Y-10269075D01*
X1926519Y-10244481D01*
X1901925Y-10214515D01*
X1883657Y-10180337D01*
X1872404Y-10143242D01*
X1868000Y-10098526D01*
X1868000Y-9205474D01*
X1872404Y-9160758D01*
X1883657Y-9123663D01*
X1901925Y-9089485D01*
X1926519Y-9059519D01*
X1956485Y-9034925D01*
X1990663Y-9016657D01*
X2027758Y-9005404D01*
X2072474Y-9001000D01*
X3515526Y-9001000D01*
X3560242Y-9005404D01*
X3560242Y-9005404D01*
G37*
G36*
X71819943Y-1366248D02*
G01*
X72375189Y-1596238D01*
X72375190Y-1596239D01*
X72874899Y-1930134D01*
X73299866Y-2355101D01*
X73299867Y-2355103D01*
X73633762Y-2854811D01*
X73863752Y-3410057D01*
X73981000Y-3999501D01*
X73981000Y-4600499D01*
X73863752Y-5189943D01*
X73633762Y-5745189D01*
X73633761Y-5745190D01*
X73299866Y-6244899D01*
X72874899Y-6669866D01*
X72623347Y-6837948D01*
X72375189Y-7003762D01*
X71819943Y-7233752D01*
X71230499Y-7351000D01*
X70629501Y-7351000D01*
X70040057Y-7233752D01*
X69484811Y-7003762D01*
X69236653Y-6837948D01*
X68985101Y-6669866D01*
X68560134Y-6244899D01*
X68226239Y-5745190D01*
X68226238Y-5745189D01*
X67996248Y-5189943D01*
X67879000Y-4600499D01*
X67879000Y-3999501D01*
X67996248Y-3410057D01*
X68226238Y-2854811D01*
X68560133Y-2355103D01*
X68560134Y-2355101D01*
X68985101Y-1930134D01*
X69484810Y-1596239D01*
X69484811Y-1596238D01*
X70040057Y-1366248D01*
X70629501Y-1249000D01*
X71230499Y-1249000D01*
X71819943Y-1366248D01*
X71819943Y-1366248D01*
G37*
G36*
X3375256Y-1391298D02*
G01*
X3481579Y-1412447D01*
X3782042Y-1536903D01*
X4052451Y-1717585D01*
X4282415Y-1947549D01*
X4463097Y-2217958D01*
X4587553Y-2518421D01*
X4651000Y-2837391D01*
X4651000Y-3162609D01*
X4587553Y-3481579D01*
X4463097Y-3782042D01*
X4282415Y-4052451D01*
X4052451Y-4282415D01*
X3782042Y-4463097D01*
X3481579Y-4587553D01*
X3416505Y-4600497D01*
X3162611Y-4651000D01*
X2837389Y-4651000D01*
X2583495Y-4600497D01*
X2518421Y-4587553D01*
X2217958Y-4463097D01*
X1947549Y-4282415D01*
X1717585Y-4052451D01*
X1536903Y-3782042D01*
X1412447Y-3481579D01*
X1349000Y-3162609D01*
X1349000Y-2837391D01*
X1412447Y-2518421D01*
X1536903Y-2217958D01*
X1717585Y-1947549D01*
X1947549Y-1717585D01*
X2217958Y-1536903D01*
X2518421Y-1412447D01*
X2624744Y-1391298D01*
X2837389Y-1349000D01*
X3162611Y-1349000D01*
X3375256Y-1391298D01*
X3375256Y-1391298D01*
G37*
G36*
X62375256Y-1391298D02*
G01*
X62481579Y-1412447D01*
X62782042Y-1536903D01*
X63052451Y-1717585D01*
X63282415Y-1947549D01*
X63463097Y-2217958D01*
X63587553Y-2518421D01*
X63651000Y-2837391D01*
X63651000Y-3162609D01*
X63587553Y-3481579D01*
X63463097Y-3782042D01*
X63282415Y-4052451D01*
X63052451Y-4282415D01*
X62782042Y-4463097D01*
X62481579Y-4587553D01*
X62416505Y-4600497D01*
X62162611Y-4651000D01*
X61837389Y-4651000D01*
X61583495Y-4600497D01*
X61518421Y-4587553D01*
X61217958Y-4463097D01*
X60947549Y-4282415D01*
X60717585Y-4052451D01*
X60536903Y-3782042D01*
X60412447Y-3481579D01*
X60349000Y-3162609D01*
X60349000Y-2837391D01*
X60412447Y-2518421D01*
X60536903Y-2217958D01*
X60717585Y-1947549D01*
X60947549Y-1717585D01*
X61217958Y-1536903D01*
X61518421Y-1412447D01*
X61624744Y-1391298D01*
X61837389Y-1349000D01*
X62162611Y-1349000D01*
X62375256Y-1391298D01*
X62375256Y-1391298D01*
G37*
M02*
