G04 #@! TF.GenerationSoftware,KiCad,Pcbnew,(5.1.4)-1*
G04 #@! TF.CreationDate,2021-11-14T18:14:48-06:00*
G04 #@! TF.ProjectId,RascalHat,52617363-616c-4486-9174-2e6b69636164,rev?*
G04 #@! TF.SameCoordinates,Original*
G04 #@! TF.FileFunction,Profile,NP*
%FSLAX46Y46*%
G04 Gerber Fmt 4.6, Leading zero omitted, Abs format (unit mm)*
G04 Created by KiCad (PCBNEW (5.1.4)-1) date 2021-11-14 18:14:48*
%MOMM*%
%LPD*%
G04 APERTURE LIST*
%ADD10C,0.050000*%
%ADD11C,0.120000*%
G04 APERTURE END LIST*
D10*
X72000000Y0D02*
X56250000Y0D01*
X43250000Y0D02*
X45550000Y0D01*
X30250000Y0D02*
X32560000Y0D01*
X17250000Y0D02*
X19550000Y0D01*
X3000000Y0D02*
X6550000Y0D01*
X75000000Y-53000000D02*
X75000000Y-3000000D01*
X72000000Y0D02*
G75*
G02X75000000Y-3000000I0J-3000000D01*
G01*
X75000000Y-53000000D02*
G75*
G02X72000000Y-56000000I-3000000J0D01*
G01*
X3000000Y-56000000D02*
G75*
G02X0Y-53000000I0J3000000D01*
G01*
X0Y-3000000D02*
G75*
G02X3000000Y0I3000000J0D01*
G01*
X0Y-3000000D02*
X0Y-53000000D01*
X3000000Y-56000000D02*
X72000000Y-56000000D01*
D11*
X26100000Y-9200000D02*
X23700000Y-9200000D01*
X23700000Y-12200000D02*
X23700000Y-9200000D01*
X22300000Y-12200000D02*
G75*
G03X23700000Y-12200000I700000J0D01*
G01*
X22300000Y-9860000D02*
X22300000Y-12200000D01*
X21200000Y-9860000D02*
X22300000Y-9860000D01*
X20950000Y-9200000D02*
X20950000Y-9610000D01*
X20950000Y-9610000D02*
G75*
G03X21200000Y-9860000I250000J0D01*
G01*
X26100000Y-12200000D02*
X26100000Y-9200000D01*
X27500000Y-12200000D02*
G75*
G02X26100000Y-12200000I-700000J0D01*
G01*
X27500000Y-9860000D02*
X27500000Y-12200000D01*
X28600000Y-9860000D02*
X27500000Y-9860000D01*
X28850000Y-9610000D02*
G75*
G02X28600000Y-9860000I-250000J0D01*
G01*
X28850000Y-9200000D02*
X28850000Y-9610000D01*
X20950000Y-9200000D02*
X19800000Y-9200000D01*
X30000000Y-9200000D02*
X28850000Y-9200000D01*
X30250000Y-8950000D02*
G75*
G02X30000000Y-9200000I-250000J0D01*
G01*
X19800000Y-9200000D02*
G75*
G02X19550000Y-8950000I0J250000D01*
G01*
X19550000Y1500000D02*
G75*
G02X19800000Y1750000I250000J0D01*
G01*
X30000000Y1750000D02*
G75*
G02X30250000Y1500000I0J-250000D01*
G01*
X30000000Y1750000D02*
X19800000Y1750000D01*
X19550000Y-8950000D02*
X19550000Y1500000D01*
X30250000Y1500000D02*
X30250000Y-8950000D01*
X13100000Y-9200000D02*
X10700000Y-9200000D01*
X10700000Y-12200000D02*
X10700000Y-9200000D01*
X9300000Y-12200000D02*
G75*
G03X10700000Y-12200000I700000J0D01*
G01*
X9300000Y-9860000D02*
X9300000Y-12200000D01*
X8200000Y-9860000D02*
X9300000Y-9860000D01*
X7950000Y-9200000D02*
X7950000Y-9610000D01*
X7950000Y-9610000D02*
G75*
G03X8200000Y-9860000I250000J0D01*
G01*
X13100000Y-12200000D02*
X13100000Y-9200000D01*
X14500000Y-12200000D02*
G75*
G02X13100000Y-12200000I-700000J0D01*
G01*
X14500000Y-9860000D02*
X14500000Y-12200000D01*
X15600000Y-9860000D02*
X14500000Y-9860000D01*
X15850000Y-9610000D02*
G75*
G02X15600000Y-9860000I-250000J0D01*
G01*
X15850000Y-9200000D02*
X15850000Y-9610000D01*
X7950000Y-9200000D02*
X6800000Y-9200000D01*
X17000000Y-9200000D02*
X15850000Y-9200000D01*
X17250000Y-8950000D02*
G75*
G02X17000000Y-9200000I-250000J0D01*
G01*
X6800000Y-9200000D02*
G75*
G02X6550000Y-8950000I0J250000D01*
G01*
X6550000Y1500000D02*
G75*
G02X6800000Y1750000I250000J0D01*
G01*
X17000000Y1750000D02*
G75*
G02X17250000Y1500000I0J-250000D01*
G01*
X17000000Y1750000D02*
X6800000Y1750000D01*
X6550000Y-8950000D02*
X6550000Y1500000D01*
X17250000Y1500000D02*
X17250000Y-8950000D01*
X49700000Y-9200000D02*
X52100000Y-9200000D01*
X52100000Y-12200000D02*
X52100000Y-9200000D01*
X53500000Y-12200000D02*
G75*
G02X52100000Y-12200000I-700000J0D01*
G01*
X53500000Y-9860000D02*
X53500000Y-12200000D01*
X54600000Y-9860000D02*
X53500000Y-9860000D01*
X54850000Y-9200000D02*
X54850000Y-9610000D01*
X54850000Y-9610000D02*
G75*
G02X54600000Y-9860000I-250000J0D01*
G01*
X49700000Y-12200000D02*
X49700000Y-9200000D01*
X48300000Y-12200000D02*
G75*
G03X49700000Y-12200000I700000J0D01*
G01*
X48300000Y-9860000D02*
X48300000Y-12200000D01*
X47200000Y-9860000D02*
X48300000Y-9860000D01*
X46950000Y-9610000D02*
G75*
G03X47200000Y-9860000I250000J0D01*
G01*
X46950000Y-9200000D02*
X46950000Y-9610000D01*
X54850000Y-9200000D02*
X56000000Y-9200000D01*
X45800000Y-9200000D02*
X46950000Y-9200000D01*
X45550000Y-8950000D02*
G75*
G03X45800000Y-9200000I250000J0D01*
G01*
X56000000Y-9200000D02*
G75*
G03X56250000Y-8950000I0J250000D01*
G01*
X56250000Y200000D02*
G75*
G03X56000000Y450000I-250000J0D01*
G01*
X45800000Y450000D02*
G75*
G03X45550000Y200000I0J-250000D01*
G01*
X45800000Y450000D02*
X56000000Y450000D01*
X56250000Y-8950000D02*
X56250000Y200000D01*
X45550000Y200000D02*
X45550000Y-8950000D01*
X39100000Y-9200000D02*
X36700000Y-9200000D01*
X36700000Y-12200000D02*
X36700000Y-9200000D01*
X35300000Y-12200000D02*
G75*
G03X36700000Y-12200000I700000J0D01*
G01*
X35300000Y-9860000D02*
X35300000Y-12200000D01*
X34200000Y-9860000D02*
X35300000Y-9860000D01*
X33950000Y-9200000D02*
X33950000Y-9610000D01*
X33950000Y-9610000D02*
G75*
G03X34200000Y-9860000I250000J0D01*
G01*
X39100000Y-12200000D02*
X39100000Y-9200000D01*
X40500000Y-12200000D02*
G75*
G02X39100000Y-12200000I-700000J0D01*
G01*
X40500000Y-9860000D02*
X40500000Y-12200000D01*
X41600000Y-9860000D02*
X40500000Y-9860000D01*
X41850000Y-9610000D02*
G75*
G02X41600000Y-9860000I-250000J0D01*
G01*
X41850000Y-9200000D02*
X41850000Y-9610000D01*
X33950000Y-9200000D02*
X32800000Y-9200000D01*
X43000000Y-9200000D02*
X41850000Y-9200000D01*
X43250000Y-8950000D02*
G75*
G02X43000000Y-9200000I-250000J0D01*
G01*
X32800000Y-9200000D02*
G75*
G02X32550000Y-8950000I0J250000D01*
G01*
X32550000Y1500000D02*
G75*
G02X32800000Y1750000I250000J0D01*
G01*
X43000000Y1750000D02*
G75*
G02X43250000Y1500000I0J-250000D01*
G01*
X43000000Y1750000D02*
X32800000Y1750000D01*
X32550000Y-8950000D02*
X32550000Y1500000D01*
X43250000Y1500000D02*
X43250000Y-8950000D01*
M02*
