M48
; DRILL file {KiCad (5.1.4)-1} date 11/14/2021 6:14:50 PM
; FORMAT={2:4/ absolute / inch / suppress leading zeros}
; #@! TF.CreationDate,2021-11-14T18:14:50-06:00
; #@! TF.GenerationSoftware,Kicad,Pcbnew,(5.1.4)-1
FMAT,2
INCH,TZ
T1C0.0118
T2C0.0295
T3C0.0325
T4C0.0394
T5C0.1772
T6C0.1260
T7C0.1400
T8C0.9449
%
G90
G05
T1
X295Y-12563
X374Y-6161
X429Y-15193
X453Y-2913
X669Y-19224
X900Y-13950
X1213Y-14137
X1661Y-11272
X1772Y-18024
X1900Y-12750
X1988Y-18642
X2012Y-17535
X2075Y-12217
X2102Y-13748
X2126Y-12984
X2126Y-13402
X2146Y-15268
X2224Y-4028
X2244Y-9984
X2386Y-9047
X2598Y-6020
X2685Y-21189
X2862Y-10039
X2945Y-9386
X3126Y-13843
X3158Y-20036
X3161Y-13500
X3185Y-8815
X3198Y-9792
X3224Y-12890
X3366Y-4370
X3374Y-8048
X3457Y-14186
X3587Y-16083
X3747Y-13766
X3976Y-16472
X4024Y-10748
X4055Y-16075
X4091Y-7343
X4106Y-9831
X4469Y-16130
X4555Y-15049
X4559Y-4748
X4756Y-8157
X4798Y-20105
X5260Y-16587
X5445Y-15049
X5448Y-13864
X5547Y-10685
X5619Y-13581
X5760Y-9465
X5823Y-15077
X5890Y-7189
X5898Y-14620
X5902Y-7701
X6004Y-4370
X6116Y-12884
X6123Y-14155
X6323Y-13522
X6406Y-15638
X6612Y-13852
X6677Y-12689
X6895Y-13769
X6976Y-14138
X7117Y-6228
X7146Y-11327
X7181Y-4394
X7233Y-16228
X7240Y-12299
X7248Y-13697
X7626Y-8048
X7626Y-9571
X8043Y-11287
X8077Y-17132
X8146Y-14583
X8169Y-13354
X8366Y-15854
X8411Y-12230
X8469Y-10638
X8484Y-4370
X8539Y-11925
X8550Y-11550
X8732Y-17004
X9065Y-18571
X9130Y-19840
X9165Y-15795
X9201Y-16382
X9311Y-18846
X9394Y-16031
X9461Y-7661
X9630Y-6276
X9737Y-19014
X9846Y-4724
X10154Y-6378
X10303Y-18480
X10825Y-20311
X11130Y-18868
X11642Y-19989
X11794Y-19723
X12417Y-4701
X13602Y-4370
X14898Y-4748
X15039Y-8028
X15306Y-18601
X15394Y-7941
X16039Y-18273
X16161Y-18706
X16240Y-4370
X16315Y-7913
X16593Y-18455
X16660Y-17652
X16888Y-18451
X17441Y-18441
X17528Y-7878
X17891Y-8157
X18118Y-16118
X18323Y-5457
X18376Y-15947
X18437Y-7913
X18453Y-11280
X18460Y-16530
X18492Y-8661
X18673Y-19631
X18687Y-8883
X18720Y-4370
X18892Y-18508
X18943Y-17122
X18951Y-17471
X18967Y-10996
X19091Y-16154
X19169Y-6053
X19264Y-15606
X19339Y-16697
X19682Y-7391
X19738Y-6094
X19770Y-9419
X20063Y-11878
X20242Y-16561
X20244Y-16886
X20272Y-10004
X20441Y-6594
X20449Y-7161
X20489Y-10220
X20601Y-7545
X20602Y-8161
X20728Y-5492
X20755Y-18326
X20841Y-8938
X20846Y-14826
X20906Y-19945
X20933Y-7073
X21020Y-17762
X21020Y-10184
X21083Y-9236
X21114Y-12110
X21300Y-12681
X21325Y-17631
X21350Y-15488
X21358Y-4370
X21461Y-7205
X21598Y-10933
X21697Y-6646
X21807Y-18866
X21878Y-11890
X21915Y-16995
X21970Y-13036
X22020Y-19760
X22035Y-18287
X22079Y-10843
X22125Y-15379
X22306Y-16178
X22370Y-3358
X22457Y-9504
X22622Y-366
X22749Y-14273
X22926Y-16100
X22957Y-9740
X22998Y-9407
X23039Y-9078
X23138Y-21764
X23250Y-2400
X23286Y-19555
X23291Y-4720
X23565Y-12117
X23575Y-16213
X23583Y-11421
X23874Y-17272
X24028Y-9913
X24100Y-13264
X24146Y-16043
X24184Y-18539
X24185Y-18244
X24223Y-15630
X24240Y-12811
X24260Y-16456
X24307Y-14243
X24313Y-14913
X24461Y-9878
X24760Y-6264
X24776Y-19512
X25118Y-8236
X25134Y-8594
X25245Y-11490
X25311Y-12758
X25400Y-12400
X25400Y-19400
X25450Y-11800
X25453Y-10006
X25484Y-8618
X25518Y-10294
X25568Y-12904
X25776Y-21331
X25780Y-327
X27295Y-16598
X27339Y-18256
X27386Y-19587
X27516Y-9051
X27571Y-7106
X27583Y-21201
X28358Y-457
T2
X14677Y-6705
X15465Y-6705
X16252Y-6705
X17039Y-6705
X17827Y-6705
X18614Y-6705
X19402Y-6705
X28638Y-6921
X28638Y-7708
X28638Y-8496
X28638Y-9283
X28638Y-10070
X28638Y-10858
X28638Y-11645
X1100Y-3800
X1100Y-4587
X1100Y-5375
X1100Y-6162
X1100Y-6950
X1100Y-7737
X1100Y-8524
X1100Y-9312
X1100Y-10099
X26453Y-6921
X26453Y-7708
X26453Y-8496
X26453Y-9283
X26453Y-10070
X26453Y-10858
X26453Y-11645
X3756Y-17264
X4543Y-17264
X5331Y-17264
X6118Y-17264
X28638Y-13597
X28638Y-14385
X28638Y-15172
X28638Y-15959
X28638Y-16747
X28638Y-17534
X28638Y-18322
X8409Y-6705
X9197Y-6705
X11157Y-6705
X11945Y-6705
X12732Y-6705
X4088Y-6700
X4875Y-6700
X5663Y-6700
X6450Y-6700
X24272Y-6921
X24272Y-7709
X24272Y-8496
X3752Y-19441
X4539Y-19441
X5327Y-19441
X6114Y-19441
X6902Y-19441
X7689Y-19441
X26457Y-13599
X26457Y-14387
X26457Y-15174
X26457Y-15961
X26457Y-16749
X26457Y-17536
X26457Y-18324
T3
X19764Y-11374
X19764Y-12374
X19764Y-13374
X19764Y-14374
X19764Y-15374
X19764Y-16374
X19764Y-17374
X19764Y-18374
T4
X3287Y-20531
X3287Y-21531
X4287Y-20531
X4287Y-21531
X5287Y-20531
X5287Y-21531
X6287Y-20531
X6287Y-21531
X7287Y-20531
X7287Y-21531
X8287Y-20531
X8287Y-21531
X9287Y-20531
X9287Y-21531
X10287Y-20531
X10287Y-21531
X11287Y-20531
X11287Y-21531
X12287Y-20531
X12287Y-21531
X13287Y-20531
X13287Y-21531
X14287Y-20531
X14287Y-21531
X15287Y-20531
X15287Y-21531
X16287Y-20531
X16287Y-21531
X17287Y-20531
X17287Y-21531
X18287Y-20531
X18287Y-21531
X19287Y-20531
X19287Y-21531
X20287Y-20531
X20287Y-21531
X21287Y-20531
X21287Y-21531
X22287Y-20531
X22287Y-21531
T5
X27925Y-1693
X27925Y-4528
T6
X24409Y-1181
X1181Y-20866
X24409Y-20866
X1181Y-1181
T7
X9961Y-9488
X9961Y-17362
X17835Y-9488
X17835Y-17362
T8
X13898Y-13425
T0
M30
