G04 #@! TF.GenerationSoftware,KiCad,Pcbnew,(5.1.4)-1*
G04 #@! TF.CreationDate,2021-11-14T18:14:48-06:00*
G04 #@! TF.ProjectId,RascalHat,52617363-616c-4486-9174-2e6b69636164,rev?*
G04 #@! TF.SameCoordinates,Original*
G04 #@! TF.FileFunction,Paste,Bot*
G04 #@! TF.FilePolarity,Positive*
%FSLAX46Y46*%
G04 Gerber Fmt 4.6, Leading zero omitted, Abs format (unit mm)*
G04 Created by KiCad (PCBNEW (5.1.4)-1) date 2021-11-14 18:14:48*
%MOMM*%
%LPD*%
G04 APERTURE LIST*
%ADD10C,0.100000*%
%ADD11C,1.500000*%
%ADD12C,0.975000*%
%ADD13C,0.600000*%
%ADD14C,2.540000*%
%ADD15R,1.100000X0.400000*%
G04 APERTURE END LIST*
D10*
G36*
X22074053Y-9851206D02*
G01*
X22098370Y-9854813D01*
X22122216Y-9860786D01*
X22145362Y-9869068D01*
X22167585Y-9879579D01*
X22188670Y-9892217D01*
X22208416Y-9906861D01*
X22226630Y-9923370D01*
X22243139Y-9941584D01*
X22257783Y-9961330D01*
X22270421Y-9982415D01*
X22280932Y-10004638D01*
X22289214Y-10027784D01*
X22295187Y-10051630D01*
X22298794Y-10075947D01*
X22300000Y-10100500D01*
X22300000Y-12099500D01*
X22298794Y-12124053D01*
X22295187Y-12148370D01*
X22289214Y-12172216D01*
X22280932Y-12195362D01*
X22270421Y-12217585D01*
X22257783Y-12238670D01*
X22243139Y-12258416D01*
X22226630Y-12276630D01*
X22208416Y-12293139D01*
X22188670Y-12307783D01*
X22167585Y-12320421D01*
X22145362Y-12330932D01*
X22122216Y-12339214D01*
X22098370Y-12345187D01*
X22074053Y-12348794D01*
X22049500Y-12350000D01*
X21050500Y-12350000D01*
X21025947Y-12348794D01*
X21001630Y-12345187D01*
X20977784Y-12339214D01*
X20954638Y-12330932D01*
X20932415Y-12320421D01*
X20911330Y-12307783D01*
X20891584Y-12293139D01*
X20873370Y-12276630D01*
X20856861Y-12258416D01*
X20842217Y-12238670D01*
X20829579Y-12217585D01*
X20819068Y-12195362D01*
X20810786Y-12172216D01*
X20804813Y-12148370D01*
X20801206Y-12124053D01*
X20800000Y-12099500D01*
X20800000Y-10100500D01*
X20801206Y-10075947D01*
X20804813Y-10051630D01*
X20810786Y-10027784D01*
X20819068Y-10004638D01*
X20829579Y-9982415D01*
X20842217Y-9961330D01*
X20856861Y-9941584D01*
X20873370Y-9923370D01*
X20891584Y-9906861D01*
X20911330Y-9892217D01*
X20932415Y-9879579D01*
X20954638Y-9869068D01*
X20977784Y-9860786D01*
X21001630Y-9854813D01*
X21025947Y-9851206D01*
X21050500Y-9850000D01*
X22049500Y-9850000D01*
X22074053Y-9851206D01*
X22074053Y-9851206D01*
G37*
D11*
X21550000Y-11100000D03*
D10*
G36*
X28774053Y-9851206D02*
G01*
X28798370Y-9854813D01*
X28822216Y-9860786D01*
X28845362Y-9869068D01*
X28867585Y-9879579D01*
X28888670Y-9892217D01*
X28908416Y-9906861D01*
X28926630Y-9923370D01*
X28943139Y-9941584D01*
X28957783Y-9961330D01*
X28970421Y-9982415D01*
X28980932Y-10004638D01*
X28989214Y-10027784D01*
X28995187Y-10051630D01*
X28998794Y-10075947D01*
X29000000Y-10100500D01*
X29000000Y-12099500D01*
X28998794Y-12124053D01*
X28995187Y-12148370D01*
X28989214Y-12172216D01*
X28980932Y-12195362D01*
X28970421Y-12217585D01*
X28957783Y-12238670D01*
X28943139Y-12258416D01*
X28926630Y-12276630D01*
X28908416Y-12293139D01*
X28888670Y-12307783D01*
X28867585Y-12320421D01*
X28845362Y-12330932D01*
X28822216Y-12339214D01*
X28798370Y-12345187D01*
X28774053Y-12348794D01*
X28749500Y-12350000D01*
X27750500Y-12350000D01*
X27725947Y-12348794D01*
X27701630Y-12345187D01*
X27677784Y-12339214D01*
X27654638Y-12330932D01*
X27632415Y-12320421D01*
X27611330Y-12307783D01*
X27591584Y-12293139D01*
X27573370Y-12276630D01*
X27556861Y-12258416D01*
X27542217Y-12238670D01*
X27529579Y-12217585D01*
X27519068Y-12195362D01*
X27510786Y-12172216D01*
X27504813Y-12148370D01*
X27501206Y-12124053D01*
X27500000Y-12099500D01*
X27500000Y-10100500D01*
X27501206Y-10075947D01*
X27504813Y-10051630D01*
X27510786Y-10027784D01*
X27519068Y-10004638D01*
X27529579Y-9982415D01*
X27542217Y-9961330D01*
X27556861Y-9941584D01*
X27573370Y-9923370D01*
X27591584Y-9906861D01*
X27611330Y-9892217D01*
X27632415Y-9879579D01*
X27654638Y-9869068D01*
X27677784Y-9860786D01*
X27701630Y-9854813D01*
X27725947Y-9851206D01*
X27750500Y-9850000D01*
X28749500Y-9850000D01*
X28774053Y-9851206D01*
X28774053Y-9851206D01*
G37*
D11*
X28250000Y-11100000D03*
D10*
G36*
X16860142Y-12566174D02*
G01*
X16883803Y-12569684D01*
X16907007Y-12575496D01*
X16929529Y-12583554D01*
X16951153Y-12593782D01*
X16971670Y-12606079D01*
X16990883Y-12620329D01*
X17008607Y-12636393D01*
X17024671Y-12654117D01*
X17038921Y-12673330D01*
X17051218Y-12693847D01*
X17061446Y-12715471D01*
X17069504Y-12737993D01*
X17075316Y-12761197D01*
X17078826Y-12784858D01*
X17080000Y-12808750D01*
X17080000Y-13296250D01*
X17078826Y-13320142D01*
X17075316Y-13343803D01*
X17069504Y-13367007D01*
X17061446Y-13389529D01*
X17051218Y-13411153D01*
X17038921Y-13431670D01*
X17024671Y-13450883D01*
X17008607Y-13468607D01*
X16990883Y-13484671D01*
X16971670Y-13498921D01*
X16951153Y-13511218D01*
X16929529Y-13521446D01*
X16907007Y-13529504D01*
X16883803Y-13535316D01*
X16860142Y-13538826D01*
X16836250Y-13540000D01*
X15923750Y-13540000D01*
X15899858Y-13538826D01*
X15876197Y-13535316D01*
X15852993Y-13529504D01*
X15830471Y-13521446D01*
X15808847Y-13511218D01*
X15788330Y-13498921D01*
X15769117Y-13484671D01*
X15751393Y-13468607D01*
X15735329Y-13450883D01*
X15721079Y-13431670D01*
X15708782Y-13411153D01*
X15698554Y-13389529D01*
X15690496Y-13367007D01*
X15684684Y-13343803D01*
X15681174Y-13320142D01*
X15680000Y-13296250D01*
X15680000Y-12808750D01*
X15681174Y-12784858D01*
X15684684Y-12761197D01*
X15690496Y-12737993D01*
X15698554Y-12715471D01*
X15708782Y-12693847D01*
X15721079Y-12673330D01*
X15735329Y-12654117D01*
X15751393Y-12636393D01*
X15769117Y-12620329D01*
X15788330Y-12606079D01*
X15808847Y-12593782D01*
X15830471Y-12583554D01*
X15852993Y-12575496D01*
X15876197Y-12569684D01*
X15899858Y-12566174D01*
X15923750Y-12565000D01*
X16836250Y-12565000D01*
X16860142Y-12566174D01*
X16860142Y-12566174D01*
G37*
D12*
X16380000Y-13052500D03*
D10*
G36*
X16860142Y-14441174D02*
G01*
X16883803Y-14444684D01*
X16907007Y-14450496D01*
X16929529Y-14458554D01*
X16951153Y-14468782D01*
X16971670Y-14481079D01*
X16990883Y-14495329D01*
X17008607Y-14511393D01*
X17024671Y-14529117D01*
X17038921Y-14548330D01*
X17051218Y-14568847D01*
X17061446Y-14590471D01*
X17069504Y-14612993D01*
X17075316Y-14636197D01*
X17078826Y-14659858D01*
X17080000Y-14683750D01*
X17080000Y-15171250D01*
X17078826Y-15195142D01*
X17075316Y-15218803D01*
X17069504Y-15242007D01*
X17061446Y-15264529D01*
X17051218Y-15286153D01*
X17038921Y-15306670D01*
X17024671Y-15325883D01*
X17008607Y-15343607D01*
X16990883Y-15359671D01*
X16971670Y-15373921D01*
X16951153Y-15386218D01*
X16929529Y-15396446D01*
X16907007Y-15404504D01*
X16883803Y-15410316D01*
X16860142Y-15413826D01*
X16836250Y-15415000D01*
X15923750Y-15415000D01*
X15899858Y-15413826D01*
X15876197Y-15410316D01*
X15852993Y-15404504D01*
X15830471Y-15396446D01*
X15808847Y-15386218D01*
X15788330Y-15373921D01*
X15769117Y-15359671D01*
X15751393Y-15343607D01*
X15735329Y-15325883D01*
X15721079Y-15306670D01*
X15708782Y-15286153D01*
X15698554Y-15264529D01*
X15690496Y-15242007D01*
X15684684Y-15218803D01*
X15681174Y-15195142D01*
X15680000Y-15171250D01*
X15680000Y-14683750D01*
X15681174Y-14659858D01*
X15684684Y-14636197D01*
X15690496Y-14612993D01*
X15698554Y-14590471D01*
X15708782Y-14568847D01*
X15721079Y-14548330D01*
X15735329Y-14529117D01*
X15751393Y-14511393D01*
X15769117Y-14495329D01*
X15788330Y-14481079D01*
X15808847Y-14468782D01*
X15830471Y-14458554D01*
X15852993Y-14450496D01*
X15876197Y-14444684D01*
X15899858Y-14441174D01*
X15923750Y-14440000D01*
X16836250Y-14440000D01*
X16860142Y-14441174D01*
X16860142Y-14441174D01*
G37*
D12*
X16380000Y-14927500D03*
D10*
G36*
X9074053Y-9851206D02*
G01*
X9098370Y-9854813D01*
X9122216Y-9860786D01*
X9145362Y-9869068D01*
X9167585Y-9879579D01*
X9188670Y-9892217D01*
X9208416Y-9906861D01*
X9226630Y-9923370D01*
X9243139Y-9941584D01*
X9257783Y-9961330D01*
X9270421Y-9982415D01*
X9280932Y-10004638D01*
X9289214Y-10027784D01*
X9295187Y-10051630D01*
X9298794Y-10075947D01*
X9300000Y-10100500D01*
X9300000Y-12099500D01*
X9298794Y-12124053D01*
X9295187Y-12148370D01*
X9289214Y-12172216D01*
X9280932Y-12195362D01*
X9270421Y-12217585D01*
X9257783Y-12238670D01*
X9243139Y-12258416D01*
X9226630Y-12276630D01*
X9208416Y-12293139D01*
X9188670Y-12307783D01*
X9167585Y-12320421D01*
X9145362Y-12330932D01*
X9122216Y-12339214D01*
X9098370Y-12345187D01*
X9074053Y-12348794D01*
X9049500Y-12350000D01*
X8050500Y-12350000D01*
X8025947Y-12348794D01*
X8001630Y-12345187D01*
X7977784Y-12339214D01*
X7954638Y-12330932D01*
X7932415Y-12320421D01*
X7911330Y-12307783D01*
X7891584Y-12293139D01*
X7873370Y-12276630D01*
X7856861Y-12258416D01*
X7842217Y-12238670D01*
X7829579Y-12217585D01*
X7819068Y-12195362D01*
X7810786Y-12172216D01*
X7804813Y-12148370D01*
X7801206Y-12124053D01*
X7800000Y-12099500D01*
X7800000Y-10100500D01*
X7801206Y-10075947D01*
X7804813Y-10051630D01*
X7810786Y-10027784D01*
X7819068Y-10004638D01*
X7829579Y-9982415D01*
X7842217Y-9961330D01*
X7856861Y-9941584D01*
X7873370Y-9923370D01*
X7891584Y-9906861D01*
X7911330Y-9892217D01*
X7932415Y-9879579D01*
X7954638Y-9869068D01*
X7977784Y-9860786D01*
X8001630Y-9854813D01*
X8025947Y-9851206D01*
X8050500Y-9850000D01*
X9049500Y-9850000D01*
X9074053Y-9851206D01*
X9074053Y-9851206D01*
G37*
D11*
X8550000Y-11100000D03*
D10*
G36*
X15774053Y-9851206D02*
G01*
X15798370Y-9854813D01*
X15822216Y-9860786D01*
X15845362Y-9869068D01*
X15867585Y-9879579D01*
X15888670Y-9892217D01*
X15908416Y-9906861D01*
X15926630Y-9923370D01*
X15943139Y-9941584D01*
X15957783Y-9961330D01*
X15970421Y-9982415D01*
X15980932Y-10004638D01*
X15989214Y-10027784D01*
X15995187Y-10051630D01*
X15998794Y-10075947D01*
X16000000Y-10100500D01*
X16000000Y-12099500D01*
X15998794Y-12124053D01*
X15995187Y-12148370D01*
X15989214Y-12172216D01*
X15980932Y-12195362D01*
X15970421Y-12217585D01*
X15957783Y-12238670D01*
X15943139Y-12258416D01*
X15926630Y-12276630D01*
X15908416Y-12293139D01*
X15888670Y-12307783D01*
X15867585Y-12320421D01*
X15845362Y-12330932D01*
X15822216Y-12339214D01*
X15798370Y-12345187D01*
X15774053Y-12348794D01*
X15749500Y-12350000D01*
X14750500Y-12350000D01*
X14725947Y-12348794D01*
X14701630Y-12345187D01*
X14677784Y-12339214D01*
X14654638Y-12330932D01*
X14632415Y-12320421D01*
X14611330Y-12307783D01*
X14591584Y-12293139D01*
X14573370Y-12276630D01*
X14556861Y-12258416D01*
X14542217Y-12238670D01*
X14529579Y-12217585D01*
X14519068Y-12195362D01*
X14510786Y-12172216D01*
X14504813Y-12148370D01*
X14501206Y-12124053D01*
X14500000Y-12099500D01*
X14500000Y-10100500D01*
X14501206Y-10075947D01*
X14504813Y-10051630D01*
X14510786Y-10027784D01*
X14519068Y-10004638D01*
X14529579Y-9982415D01*
X14542217Y-9961330D01*
X14556861Y-9941584D01*
X14573370Y-9923370D01*
X14591584Y-9906861D01*
X14611330Y-9892217D01*
X14632415Y-9879579D01*
X14654638Y-9869068D01*
X14677784Y-9860786D01*
X14701630Y-9854813D01*
X14725947Y-9851206D01*
X14750500Y-9850000D01*
X15749500Y-9850000D01*
X15774053Y-9851206D01*
X15774053Y-9851206D01*
G37*
D11*
X15250000Y-11100000D03*
D10*
G36*
X59070703Y-28656722D02*
G01*
X59085264Y-28658882D01*
X59099543Y-28662459D01*
X59113403Y-28667418D01*
X59126710Y-28673712D01*
X59139336Y-28681280D01*
X59151159Y-28690048D01*
X59162066Y-28699934D01*
X59171952Y-28710841D01*
X59180720Y-28722664D01*
X59188288Y-28735290D01*
X59194582Y-28748597D01*
X59199541Y-28762457D01*
X59203118Y-28776736D01*
X59205278Y-28791297D01*
X59206000Y-28806000D01*
X59206000Y-29106000D01*
X59205278Y-29120703D01*
X59203118Y-29135264D01*
X59199541Y-29149543D01*
X59194582Y-29163403D01*
X59188288Y-29176710D01*
X59180720Y-29189336D01*
X59171952Y-29201159D01*
X59162066Y-29212066D01*
X59151159Y-29221952D01*
X59139336Y-29230720D01*
X59126710Y-29238288D01*
X59113403Y-29244582D01*
X59099543Y-29249541D01*
X59085264Y-29253118D01*
X59070703Y-29255278D01*
X59056000Y-29256000D01*
X57406000Y-29256000D01*
X57391297Y-29255278D01*
X57376736Y-29253118D01*
X57362457Y-29249541D01*
X57348597Y-29244582D01*
X57335290Y-29238288D01*
X57322664Y-29230720D01*
X57310841Y-29221952D01*
X57299934Y-29212066D01*
X57290048Y-29201159D01*
X57281280Y-29189336D01*
X57273712Y-29176710D01*
X57267418Y-29163403D01*
X57262459Y-29149543D01*
X57258882Y-29135264D01*
X57256722Y-29120703D01*
X57256000Y-29106000D01*
X57256000Y-28806000D01*
X57256722Y-28791297D01*
X57258882Y-28776736D01*
X57262459Y-28762457D01*
X57267418Y-28748597D01*
X57273712Y-28735290D01*
X57281280Y-28722664D01*
X57290048Y-28710841D01*
X57299934Y-28699934D01*
X57310841Y-28690048D01*
X57322664Y-28681280D01*
X57335290Y-28673712D01*
X57348597Y-28667418D01*
X57362457Y-28662459D01*
X57376736Y-28658882D01*
X57391297Y-28656722D01*
X57406000Y-28656000D01*
X59056000Y-28656000D01*
X59070703Y-28656722D01*
X59070703Y-28656722D01*
G37*
D13*
X58231000Y-28956000D03*
D10*
G36*
X59070703Y-29926722D02*
G01*
X59085264Y-29928882D01*
X59099543Y-29932459D01*
X59113403Y-29937418D01*
X59126710Y-29943712D01*
X59139336Y-29951280D01*
X59151159Y-29960048D01*
X59162066Y-29969934D01*
X59171952Y-29980841D01*
X59180720Y-29992664D01*
X59188288Y-30005290D01*
X59194582Y-30018597D01*
X59199541Y-30032457D01*
X59203118Y-30046736D01*
X59205278Y-30061297D01*
X59206000Y-30076000D01*
X59206000Y-30376000D01*
X59205278Y-30390703D01*
X59203118Y-30405264D01*
X59199541Y-30419543D01*
X59194582Y-30433403D01*
X59188288Y-30446710D01*
X59180720Y-30459336D01*
X59171952Y-30471159D01*
X59162066Y-30482066D01*
X59151159Y-30491952D01*
X59139336Y-30500720D01*
X59126710Y-30508288D01*
X59113403Y-30514582D01*
X59099543Y-30519541D01*
X59085264Y-30523118D01*
X59070703Y-30525278D01*
X59056000Y-30526000D01*
X57406000Y-30526000D01*
X57391297Y-30525278D01*
X57376736Y-30523118D01*
X57362457Y-30519541D01*
X57348597Y-30514582D01*
X57335290Y-30508288D01*
X57322664Y-30500720D01*
X57310841Y-30491952D01*
X57299934Y-30482066D01*
X57290048Y-30471159D01*
X57281280Y-30459336D01*
X57273712Y-30446710D01*
X57267418Y-30433403D01*
X57262459Y-30419543D01*
X57258882Y-30405264D01*
X57256722Y-30390703D01*
X57256000Y-30376000D01*
X57256000Y-30076000D01*
X57256722Y-30061297D01*
X57258882Y-30046736D01*
X57262459Y-30032457D01*
X57267418Y-30018597D01*
X57273712Y-30005290D01*
X57281280Y-29992664D01*
X57290048Y-29980841D01*
X57299934Y-29969934D01*
X57310841Y-29960048D01*
X57322664Y-29951280D01*
X57335290Y-29943712D01*
X57348597Y-29937418D01*
X57362457Y-29932459D01*
X57376736Y-29928882D01*
X57391297Y-29926722D01*
X57406000Y-29926000D01*
X59056000Y-29926000D01*
X59070703Y-29926722D01*
X59070703Y-29926722D01*
G37*
D13*
X58231000Y-30226000D03*
D10*
G36*
X59070703Y-31196722D02*
G01*
X59085264Y-31198882D01*
X59099543Y-31202459D01*
X59113403Y-31207418D01*
X59126710Y-31213712D01*
X59139336Y-31221280D01*
X59151159Y-31230048D01*
X59162066Y-31239934D01*
X59171952Y-31250841D01*
X59180720Y-31262664D01*
X59188288Y-31275290D01*
X59194582Y-31288597D01*
X59199541Y-31302457D01*
X59203118Y-31316736D01*
X59205278Y-31331297D01*
X59206000Y-31346000D01*
X59206000Y-31646000D01*
X59205278Y-31660703D01*
X59203118Y-31675264D01*
X59199541Y-31689543D01*
X59194582Y-31703403D01*
X59188288Y-31716710D01*
X59180720Y-31729336D01*
X59171952Y-31741159D01*
X59162066Y-31752066D01*
X59151159Y-31761952D01*
X59139336Y-31770720D01*
X59126710Y-31778288D01*
X59113403Y-31784582D01*
X59099543Y-31789541D01*
X59085264Y-31793118D01*
X59070703Y-31795278D01*
X59056000Y-31796000D01*
X57406000Y-31796000D01*
X57391297Y-31795278D01*
X57376736Y-31793118D01*
X57362457Y-31789541D01*
X57348597Y-31784582D01*
X57335290Y-31778288D01*
X57322664Y-31770720D01*
X57310841Y-31761952D01*
X57299934Y-31752066D01*
X57290048Y-31741159D01*
X57281280Y-31729336D01*
X57273712Y-31716710D01*
X57267418Y-31703403D01*
X57262459Y-31689543D01*
X57258882Y-31675264D01*
X57256722Y-31660703D01*
X57256000Y-31646000D01*
X57256000Y-31346000D01*
X57256722Y-31331297D01*
X57258882Y-31316736D01*
X57262459Y-31302457D01*
X57267418Y-31288597D01*
X57273712Y-31275290D01*
X57281280Y-31262664D01*
X57290048Y-31250841D01*
X57299934Y-31239934D01*
X57310841Y-31230048D01*
X57322664Y-31221280D01*
X57335290Y-31213712D01*
X57348597Y-31207418D01*
X57362457Y-31202459D01*
X57376736Y-31198882D01*
X57391297Y-31196722D01*
X57406000Y-31196000D01*
X59056000Y-31196000D01*
X59070703Y-31196722D01*
X59070703Y-31196722D01*
G37*
D13*
X58231000Y-31496000D03*
D10*
G36*
X59070703Y-32466722D02*
G01*
X59085264Y-32468882D01*
X59099543Y-32472459D01*
X59113403Y-32477418D01*
X59126710Y-32483712D01*
X59139336Y-32491280D01*
X59151159Y-32500048D01*
X59162066Y-32509934D01*
X59171952Y-32520841D01*
X59180720Y-32532664D01*
X59188288Y-32545290D01*
X59194582Y-32558597D01*
X59199541Y-32572457D01*
X59203118Y-32586736D01*
X59205278Y-32601297D01*
X59206000Y-32616000D01*
X59206000Y-32916000D01*
X59205278Y-32930703D01*
X59203118Y-32945264D01*
X59199541Y-32959543D01*
X59194582Y-32973403D01*
X59188288Y-32986710D01*
X59180720Y-32999336D01*
X59171952Y-33011159D01*
X59162066Y-33022066D01*
X59151159Y-33031952D01*
X59139336Y-33040720D01*
X59126710Y-33048288D01*
X59113403Y-33054582D01*
X59099543Y-33059541D01*
X59085264Y-33063118D01*
X59070703Y-33065278D01*
X59056000Y-33066000D01*
X57406000Y-33066000D01*
X57391297Y-33065278D01*
X57376736Y-33063118D01*
X57362457Y-33059541D01*
X57348597Y-33054582D01*
X57335290Y-33048288D01*
X57322664Y-33040720D01*
X57310841Y-33031952D01*
X57299934Y-33022066D01*
X57290048Y-33011159D01*
X57281280Y-32999336D01*
X57273712Y-32986710D01*
X57267418Y-32973403D01*
X57262459Y-32959543D01*
X57258882Y-32945264D01*
X57256722Y-32930703D01*
X57256000Y-32916000D01*
X57256000Y-32616000D01*
X57256722Y-32601297D01*
X57258882Y-32586736D01*
X57262459Y-32572457D01*
X57267418Y-32558597D01*
X57273712Y-32545290D01*
X57281280Y-32532664D01*
X57290048Y-32520841D01*
X57299934Y-32509934D01*
X57310841Y-32500048D01*
X57322664Y-32491280D01*
X57335290Y-32483712D01*
X57348597Y-32477418D01*
X57362457Y-32472459D01*
X57376736Y-32468882D01*
X57391297Y-32466722D01*
X57406000Y-32466000D01*
X59056000Y-32466000D01*
X59070703Y-32466722D01*
X59070703Y-32466722D01*
G37*
D13*
X58231000Y-32766000D03*
D10*
G36*
X59070703Y-33736722D02*
G01*
X59085264Y-33738882D01*
X59099543Y-33742459D01*
X59113403Y-33747418D01*
X59126710Y-33753712D01*
X59139336Y-33761280D01*
X59151159Y-33770048D01*
X59162066Y-33779934D01*
X59171952Y-33790841D01*
X59180720Y-33802664D01*
X59188288Y-33815290D01*
X59194582Y-33828597D01*
X59199541Y-33842457D01*
X59203118Y-33856736D01*
X59205278Y-33871297D01*
X59206000Y-33886000D01*
X59206000Y-34186000D01*
X59205278Y-34200703D01*
X59203118Y-34215264D01*
X59199541Y-34229543D01*
X59194582Y-34243403D01*
X59188288Y-34256710D01*
X59180720Y-34269336D01*
X59171952Y-34281159D01*
X59162066Y-34292066D01*
X59151159Y-34301952D01*
X59139336Y-34310720D01*
X59126710Y-34318288D01*
X59113403Y-34324582D01*
X59099543Y-34329541D01*
X59085264Y-34333118D01*
X59070703Y-34335278D01*
X59056000Y-34336000D01*
X57406000Y-34336000D01*
X57391297Y-34335278D01*
X57376736Y-34333118D01*
X57362457Y-34329541D01*
X57348597Y-34324582D01*
X57335290Y-34318288D01*
X57322664Y-34310720D01*
X57310841Y-34301952D01*
X57299934Y-34292066D01*
X57290048Y-34281159D01*
X57281280Y-34269336D01*
X57273712Y-34256710D01*
X57267418Y-34243403D01*
X57262459Y-34229543D01*
X57258882Y-34215264D01*
X57256722Y-34200703D01*
X57256000Y-34186000D01*
X57256000Y-33886000D01*
X57256722Y-33871297D01*
X57258882Y-33856736D01*
X57262459Y-33842457D01*
X57267418Y-33828597D01*
X57273712Y-33815290D01*
X57281280Y-33802664D01*
X57290048Y-33790841D01*
X57299934Y-33779934D01*
X57310841Y-33770048D01*
X57322664Y-33761280D01*
X57335290Y-33753712D01*
X57348597Y-33747418D01*
X57362457Y-33742459D01*
X57376736Y-33738882D01*
X57391297Y-33736722D01*
X57406000Y-33736000D01*
X59056000Y-33736000D01*
X59070703Y-33736722D01*
X59070703Y-33736722D01*
G37*
D13*
X58231000Y-34036000D03*
D10*
G36*
X59070703Y-35006722D02*
G01*
X59085264Y-35008882D01*
X59099543Y-35012459D01*
X59113403Y-35017418D01*
X59126710Y-35023712D01*
X59139336Y-35031280D01*
X59151159Y-35040048D01*
X59162066Y-35049934D01*
X59171952Y-35060841D01*
X59180720Y-35072664D01*
X59188288Y-35085290D01*
X59194582Y-35098597D01*
X59199541Y-35112457D01*
X59203118Y-35126736D01*
X59205278Y-35141297D01*
X59206000Y-35156000D01*
X59206000Y-35456000D01*
X59205278Y-35470703D01*
X59203118Y-35485264D01*
X59199541Y-35499543D01*
X59194582Y-35513403D01*
X59188288Y-35526710D01*
X59180720Y-35539336D01*
X59171952Y-35551159D01*
X59162066Y-35562066D01*
X59151159Y-35571952D01*
X59139336Y-35580720D01*
X59126710Y-35588288D01*
X59113403Y-35594582D01*
X59099543Y-35599541D01*
X59085264Y-35603118D01*
X59070703Y-35605278D01*
X59056000Y-35606000D01*
X57406000Y-35606000D01*
X57391297Y-35605278D01*
X57376736Y-35603118D01*
X57362457Y-35599541D01*
X57348597Y-35594582D01*
X57335290Y-35588288D01*
X57322664Y-35580720D01*
X57310841Y-35571952D01*
X57299934Y-35562066D01*
X57290048Y-35551159D01*
X57281280Y-35539336D01*
X57273712Y-35526710D01*
X57267418Y-35513403D01*
X57262459Y-35499543D01*
X57258882Y-35485264D01*
X57256722Y-35470703D01*
X57256000Y-35456000D01*
X57256000Y-35156000D01*
X57256722Y-35141297D01*
X57258882Y-35126736D01*
X57262459Y-35112457D01*
X57267418Y-35098597D01*
X57273712Y-35085290D01*
X57281280Y-35072664D01*
X57290048Y-35060841D01*
X57299934Y-35049934D01*
X57310841Y-35040048D01*
X57322664Y-35031280D01*
X57335290Y-35023712D01*
X57348597Y-35017418D01*
X57362457Y-35012459D01*
X57376736Y-35008882D01*
X57391297Y-35006722D01*
X57406000Y-35006000D01*
X59056000Y-35006000D01*
X59070703Y-35006722D01*
X59070703Y-35006722D01*
G37*
D13*
X58231000Y-35306000D03*
D10*
G36*
X59070703Y-36276722D02*
G01*
X59085264Y-36278882D01*
X59099543Y-36282459D01*
X59113403Y-36287418D01*
X59126710Y-36293712D01*
X59139336Y-36301280D01*
X59151159Y-36310048D01*
X59162066Y-36319934D01*
X59171952Y-36330841D01*
X59180720Y-36342664D01*
X59188288Y-36355290D01*
X59194582Y-36368597D01*
X59199541Y-36382457D01*
X59203118Y-36396736D01*
X59205278Y-36411297D01*
X59206000Y-36426000D01*
X59206000Y-36726000D01*
X59205278Y-36740703D01*
X59203118Y-36755264D01*
X59199541Y-36769543D01*
X59194582Y-36783403D01*
X59188288Y-36796710D01*
X59180720Y-36809336D01*
X59171952Y-36821159D01*
X59162066Y-36832066D01*
X59151159Y-36841952D01*
X59139336Y-36850720D01*
X59126710Y-36858288D01*
X59113403Y-36864582D01*
X59099543Y-36869541D01*
X59085264Y-36873118D01*
X59070703Y-36875278D01*
X59056000Y-36876000D01*
X57406000Y-36876000D01*
X57391297Y-36875278D01*
X57376736Y-36873118D01*
X57362457Y-36869541D01*
X57348597Y-36864582D01*
X57335290Y-36858288D01*
X57322664Y-36850720D01*
X57310841Y-36841952D01*
X57299934Y-36832066D01*
X57290048Y-36821159D01*
X57281280Y-36809336D01*
X57273712Y-36796710D01*
X57267418Y-36783403D01*
X57262459Y-36769543D01*
X57258882Y-36755264D01*
X57256722Y-36740703D01*
X57256000Y-36726000D01*
X57256000Y-36426000D01*
X57256722Y-36411297D01*
X57258882Y-36396736D01*
X57262459Y-36382457D01*
X57267418Y-36368597D01*
X57273712Y-36355290D01*
X57281280Y-36342664D01*
X57290048Y-36330841D01*
X57299934Y-36319934D01*
X57310841Y-36310048D01*
X57322664Y-36301280D01*
X57335290Y-36293712D01*
X57348597Y-36287418D01*
X57362457Y-36282459D01*
X57376736Y-36278882D01*
X57391297Y-36276722D01*
X57406000Y-36276000D01*
X59056000Y-36276000D01*
X59070703Y-36276722D01*
X59070703Y-36276722D01*
G37*
D13*
X58231000Y-36576000D03*
D10*
G36*
X59070703Y-37546722D02*
G01*
X59085264Y-37548882D01*
X59099543Y-37552459D01*
X59113403Y-37557418D01*
X59126710Y-37563712D01*
X59139336Y-37571280D01*
X59151159Y-37580048D01*
X59162066Y-37589934D01*
X59171952Y-37600841D01*
X59180720Y-37612664D01*
X59188288Y-37625290D01*
X59194582Y-37638597D01*
X59199541Y-37652457D01*
X59203118Y-37666736D01*
X59205278Y-37681297D01*
X59206000Y-37696000D01*
X59206000Y-37996000D01*
X59205278Y-38010703D01*
X59203118Y-38025264D01*
X59199541Y-38039543D01*
X59194582Y-38053403D01*
X59188288Y-38066710D01*
X59180720Y-38079336D01*
X59171952Y-38091159D01*
X59162066Y-38102066D01*
X59151159Y-38111952D01*
X59139336Y-38120720D01*
X59126710Y-38128288D01*
X59113403Y-38134582D01*
X59099543Y-38139541D01*
X59085264Y-38143118D01*
X59070703Y-38145278D01*
X59056000Y-38146000D01*
X57406000Y-38146000D01*
X57391297Y-38145278D01*
X57376736Y-38143118D01*
X57362457Y-38139541D01*
X57348597Y-38134582D01*
X57335290Y-38128288D01*
X57322664Y-38120720D01*
X57310841Y-38111952D01*
X57299934Y-38102066D01*
X57290048Y-38091159D01*
X57281280Y-38079336D01*
X57273712Y-38066710D01*
X57267418Y-38053403D01*
X57262459Y-38039543D01*
X57258882Y-38025264D01*
X57256722Y-38010703D01*
X57256000Y-37996000D01*
X57256000Y-37696000D01*
X57256722Y-37681297D01*
X57258882Y-37666736D01*
X57262459Y-37652457D01*
X57267418Y-37638597D01*
X57273712Y-37625290D01*
X57281280Y-37612664D01*
X57290048Y-37600841D01*
X57299934Y-37589934D01*
X57310841Y-37580048D01*
X57322664Y-37571280D01*
X57335290Y-37563712D01*
X57348597Y-37557418D01*
X57362457Y-37552459D01*
X57376736Y-37548882D01*
X57391297Y-37546722D01*
X57406000Y-37546000D01*
X59056000Y-37546000D01*
X59070703Y-37546722D01*
X59070703Y-37546722D01*
G37*
D13*
X58231000Y-37846000D03*
D10*
G36*
X64020703Y-37546722D02*
G01*
X64035264Y-37548882D01*
X64049543Y-37552459D01*
X64063403Y-37557418D01*
X64076710Y-37563712D01*
X64089336Y-37571280D01*
X64101159Y-37580048D01*
X64112066Y-37589934D01*
X64121952Y-37600841D01*
X64130720Y-37612664D01*
X64138288Y-37625290D01*
X64144582Y-37638597D01*
X64149541Y-37652457D01*
X64153118Y-37666736D01*
X64155278Y-37681297D01*
X64156000Y-37696000D01*
X64156000Y-37996000D01*
X64155278Y-38010703D01*
X64153118Y-38025264D01*
X64149541Y-38039543D01*
X64144582Y-38053403D01*
X64138288Y-38066710D01*
X64130720Y-38079336D01*
X64121952Y-38091159D01*
X64112066Y-38102066D01*
X64101159Y-38111952D01*
X64089336Y-38120720D01*
X64076710Y-38128288D01*
X64063403Y-38134582D01*
X64049543Y-38139541D01*
X64035264Y-38143118D01*
X64020703Y-38145278D01*
X64006000Y-38146000D01*
X62356000Y-38146000D01*
X62341297Y-38145278D01*
X62326736Y-38143118D01*
X62312457Y-38139541D01*
X62298597Y-38134582D01*
X62285290Y-38128288D01*
X62272664Y-38120720D01*
X62260841Y-38111952D01*
X62249934Y-38102066D01*
X62240048Y-38091159D01*
X62231280Y-38079336D01*
X62223712Y-38066710D01*
X62217418Y-38053403D01*
X62212459Y-38039543D01*
X62208882Y-38025264D01*
X62206722Y-38010703D01*
X62206000Y-37996000D01*
X62206000Y-37696000D01*
X62206722Y-37681297D01*
X62208882Y-37666736D01*
X62212459Y-37652457D01*
X62217418Y-37638597D01*
X62223712Y-37625290D01*
X62231280Y-37612664D01*
X62240048Y-37600841D01*
X62249934Y-37589934D01*
X62260841Y-37580048D01*
X62272664Y-37571280D01*
X62285290Y-37563712D01*
X62298597Y-37557418D01*
X62312457Y-37552459D01*
X62326736Y-37548882D01*
X62341297Y-37546722D01*
X62356000Y-37546000D01*
X64006000Y-37546000D01*
X64020703Y-37546722D01*
X64020703Y-37546722D01*
G37*
D13*
X63181000Y-37846000D03*
D10*
G36*
X64020703Y-36276722D02*
G01*
X64035264Y-36278882D01*
X64049543Y-36282459D01*
X64063403Y-36287418D01*
X64076710Y-36293712D01*
X64089336Y-36301280D01*
X64101159Y-36310048D01*
X64112066Y-36319934D01*
X64121952Y-36330841D01*
X64130720Y-36342664D01*
X64138288Y-36355290D01*
X64144582Y-36368597D01*
X64149541Y-36382457D01*
X64153118Y-36396736D01*
X64155278Y-36411297D01*
X64156000Y-36426000D01*
X64156000Y-36726000D01*
X64155278Y-36740703D01*
X64153118Y-36755264D01*
X64149541Y-36769543D01*
X64144582Y-36783403D01*
X64138288Y-36796710D01*
X64130720Y-36809336D01*
X64121952Y-36821159D01*
X64112066Y-36832066D01*
X64101159Y-36841952D01*
X64089336Y-36850720D01*
X64076710Y-36858288D01*
X64063403Y-36864582D01*
X64049543Y-36869541D01*
X64035264Y-36873118D01*
X64020703Y-36875278D01*
X64006000Y-36876000D01*
X62356000Y-36876000D01*
X62341297Y-36875278D01*
X62326736Y-36873118D01*
X62312457Y-36869541D01*
X62298597Y-36864582D01*
X62285290Y-36858288D01*
X62272664Y-36850720D01*
X62260841Y-36841952D01*
X62249934Y-36832066D01*
X62240048Y-36821159D01*
X62231280Y-36809336D01*
X62223712Y-36796710D01*
X62217418Y-36783403D01*
X62212459Y-36769543D01*
X62208882Y-36755264D01*
X62206722Y-36740703D01*
X62206000Y-36726000D01*
X62206000Y-36426000D01*
X62206722Y-36411297D01*
X62208882Y-36396736D01*
X62212459Y-36382457D01*
X62217418Y-36368597D01*
X62223712Y-36355290D01*
X62231280Y-36342664D01*
X62240048Y-36330841D01*
X62249934Y-36319934D01*
X62260841Y-36310048D01*
X62272664Y-36301280D01*
X62285290Y-36293712D01*
X62298597Y-36287418D01*
X62312457Y-36282459D01*
X62326736Y-36278882D01*
X62341297Y-36276722D01*
X62356000Y-36276000D01*
X64006000Y-36276000D01*
X64020703Y-36276722D01*
X64020703Y-36276722D01*
G37*
D13*
X63181000Y-36576000D03*
D10*
G36*
X64020703Y-35006722D02*
G01*
X64035264Y-35008882D01*
X64049543Y-35012459D01*
X64063403Y-35017418D01*
X64076710Y-35023712D01*
X64089336Y-35031280D01*
X64101159Y-35040048D01*
X64112066Y-35049934D01*
X64121952Y-35060841D01*
X64130720Y-35072664D01*
X64138288Y-35085290D01*
X64144582Y-35098597D01*
X64149541Y-35112457D01*
X64153118Y-35126736D01*
X64155278Y-35141297D01*
X64156000Y-35156000D01*
X64156000Y-35456000D01*
X64155278Y-35470703D01*
X64153118Y-35485264D01*
X64149541Y-35499543D01*
X64144582Y-35513403D01*
X64138288Y-35526710D01*
X64130720Y-35539336D01*
X64121952Y-35551159D01*
X64112066Y-35562066D01*
X64101159Y-35571952D01*
X64089336Y-35580720D01*
X64076710Y-35588288D01*
X64063403Y-35594582D01*
X64049543Y-35599541D01*
X64035264Y-35603118D01*
X64020703Y-35605278D01*
X64006000Y-35606000D01*
X62356000Y-35606000D01*
X62341297Y-35605278D01*
X62326736Y-35603118D01*
X62312457Y-35599541D01*
X62298597Y-35594582D01*
X62285290Y-35588288D01*
X62272664Y-35580720D01*
X62260841Y-35571952D01*
X62249934Y-35562066D01*
X62240048Y-35551159D01*
X62231280Y-35539336D01*
X62223712Y-35526710D01*
X62217418Y-35513403D01*
X62212459Y-35499543D01*
X62208882Y-35485264D01*
X62206722Y-35470703D01*
X62206000Y-35456000D01*
X62206000Y-35156000D01*
X62206722Y-35141297D01*
X62208882Y-35126736D01*
X62212459Y-35112457D01*
X62217418Y-35098597D01*
X62223712Y-35085290D01*
X62231280Y-35072664D01*
X62240048Y-35060841D01*
X62249934Y-35049934D01*
X62260841Y-35040048D01*
X62272664Y-35031280D01*
X62285290Y-35023712D01*
X62298597Y-35017418D01*
X62312457Y-35012459D01*
X62326736Y-35008882D01*
X62341297Y-35006722D01*
X62356000Y-35006000D01*
X64006000Y-35006000D01*
X64020703Y-35006722D01*
X64020703Y-35006722D01*
G37*
D13*
X63181000Y-35306000D03*
D10*
G36*
X64020703Y-33736722D02*
G01*
X64035264Y-33738882D01*
X64049543Y-33742459D01*
X64063403Y-33747418D01*
X64076710Y-33753712D01*
X64089336Y-33761280D01*
X64101159Y-33770048D01*
X64112066Y-33779934D01*
X64121952Y-33790841D01*
X64130720Y-33802664D01*
X64138288Y-33815290D01*
X64144582Y-33828597D01*
X64149541Y-33842457D01*
X64153118Y-33856736D01*
X64155278Y-33871297D01*
X64156000Y-33886000D01*
X64156000Y-34186000D01*
X64155278Y-34200703D01*
X64153118Y-34215264D01*
X64149541Y-34229543D01*
X64144582Y-34243403D01*
X64138288Y-34256710D01*
X64130720Y-34269336D01*
X64121952Y-34281159D01*
X64112066Y-34292066D01*
X64101159Y-34301952D01*
X64089336Y-34310720D01*
X64076710Y-34318288D01*
X64063403Y-34324582D01*
X64049543Y-34329541D01*
X64035264Y-34333118D01*
X64020703Y-34335278D01*
X64006000Y-34336000D01*
X62356000Y-34336000D01*
X62341297Y-34335278D01*
X62326736Y-34333118D01*
X62312457Y-34329541D01*
X62298597Y-34324582D01*
X62285290Y-34318288D01*
X62272664Y-34310720D01*
X62260841Y-34301952D01*
X62249934Y-34292066D01*
X62240048Y-34281159D01*
X62231280Y-34269336D01*
X62223712Y-34256710D01*
X62217418Y-34243403D01*
X62212459Y-34229543D01*
X62208882Y-34215264D01*
X62206722Y-34200703D01*
X62206000Y-34186000D01*
X62206000Y-33886000D01*
X62206722Y-33871297D01*
X62208882Y-33856736D01*
X62212459Y-33842457D01*
X62217418Y-33828597D01*
X62223712Y-33815290D01*
X62231280Y-33802664D01*
X62240048Y-33790841D01*
X62249934Y-33779934D01*
X62260841Y-33770048D01*
X62272664Y-33761280D01*
X62285290Y-33753712D01*
X62298597Y-33747418D01*
X62312457Y-33742459D01*
X62326736Y-33738882D01*
X62341297Y-33736722D01*
X62356000Y-33736000D01*
X64006000Y-33736000D01*
X64020703Y-33736722D01*
X64020703Y-33736722D01*
G37*
D13*
X63181000Y-34036000D03*
D10*
G36*
X64020703Y-32466722D02*
G01*
X64035264Y-32468882D01*
X64049543Y-32472459D01*
X64063403Y-32477418D01*
X64076710Y-32483712D01*
X64089336Y-32491280D01*
X64101159Y-32500048D01*
X64112066Y-32509934D01*
X64121952Y-32520841D01*
X64130720Y-32532664D01*
X64138288Y-32545290D01*
X64144582Y-32558597D01*
X64149541Y-32572457D01*
X64153118Y-32586736D01*
X64155278Y-32601297D01*
X64156000Y-32616000D01*
X64156000Y-32916000D01*
X64155278Y-32930703D01*
X64153118Y-32945264D01*
X64149541Y-32959543D01*
X64144582Y-32973403D01*
X64138288Y-32986710D01*
X64130720Y-32999336D01*
X64121952Y-33011159D01*
X64112066Y-33022066D01*
X64101159Y-33031952D01*
X64089336Y-33040720D01*
X64076710Y-33048288D01*
X64063403Y-33054582D01*
X64049543Y-33059541D01*
X64035264Y-33063118D01*
X64020703Y-33065278D01*
X64006000Y-33066000D01*
X62356000Y-33066000D01*
X62341297Y-33065278D01*
X62326736Y-33063118D01*
X62312457Y-33059541D01*
X62298597Y-33054582D01*
X62285290Y-33048288D01*
X62272664Y-33040720D01*
X62260841Y-33031952D01*
X62249934Y-33022066D01*
X62240048Y-33011159D01*
X62231280Y-32999336D01*
X62223712Y-32986710D01*
X62217418Y-32973403D01*
X62212459Y-32959543D01*
X62208882Y-32945264D01*
X62206722Y-32930703D01*
X62206000Y-32916000D01*
X62206000Y-32616000D01*
X62206722Y-32601297D01*
X62208882Y-32586736D01*
X62212459Y-32572457D01*
X62217418Y-32558597D01*
X62223712Y-32545290D01*
X62231280Y-32532664D01*
X62240048Y-32520841D01*
X62249934Y-32509934D01*
X62260841Y-32500048D01*
X62272664Y-32491280D01*
X62285290Y-32483712D01*
X62298597Y-32477418D01*
X62312457Y-32472459D01*
X62326736Y-32468882D01*
X62341297Y-32466722D01*
X62356000Y-32466000D01*
X64006000Y-32466000D01*
X64020703Y-32466722D01*
X64020703Y-32466722D01*
G37*
D13*
X63181000Y-32766000D03*
D10*
G36*
X64020703Y-31196722D02*
G01*
X64035264Y-31198882D01*
X64049543Y-31202459D01*
X64063403Y-31207418D01*
X64076710Y-31213712D01*
X64089336Y-31221280D01*
X64101159Y-31230048D01*
X64112066Y-31239934D01*
X64121952Y-31250841D01*
X64130720Y-31262664D01*
X64138288Y-31275290D01*
X64144582Y-31288597D01*
X64149541Y-31302457D01*
X64153118Y-31316736D01*
X64155278Y-31331297D01*
X64156000Y-31346000D01*
X64156000Y-31646000D01*
X64155278Y-31660703D01*
X64153118Y-31675264D01*
X64149541Y-31689543D01*
X64144582Y-31703403D01*
X64138288Y-31716710D01*
X64130720Y-31729336D01*
X64121952Y-31741159D01*
X64112066Y-31752066D01*
X64101159Y-31761952D01*
X64089336Y-31770720D01*
X64076710Y-31778288D01*
X64063403Y-31784582D01*
X64049543Y-31789541D01*
X64035264Y-31793118D01*
X64020703Y-31795278D01*
X64006000Y-31796000D01*
X62356000Y-31796000D01*
X62341297Y-31795278D01*
X62326736Y-31793118D01*
X62312457Y-31789541D01*
X62298597Y-31784582D01*
X62285290Y-31778288D01*
X62272664Y-31770720D01*
X62260841Y-31761952D01*
X62249934Y-31752066D01*
X62240048Y-31741159D01*
X62231280Y-31729336D01*
X62223712Y-31716710D01*
X62217418Y-31703403D01*
X62212459Y-31689543D01*
X62208882Y-31675264D01*
X62206722Y-31660703D01*
X62206000Y-31646000D01*
X62206000Y-31346000D01*
X62206722Y-31331297D01*
X62208882Y-31316736D01*
X62212459Y-31302457D01*
X62217418Y-31288597D01*
X62223712Y-31275290D01*
X62231280Y-31262664D01*
X62240048Y-31250841D01*
X62249934Y-31239934D01*
X62260841Y-31230048D01*
X62272664Y-31221280D01*
X62285290Y-31213712D01*
X62298597Y-31207418D01*
X62312457Y-31202459D01*
X62326736Y-31198882D01*
X62341297Y-31196722D01*
X62356000Y-31196000D01*
X64006000Y-31196000D01*
X64020703Y-31196722D01*
X64020703Y-31196722D01*
G37*
D13*
X63181000Y-31496000D03*
D10*
G36*
X64020703Y-29926722D02*
G01*
X64035264Y-29928882D01*
X64049543Y-29932459D01*
X64063403Y-29937418D01*
X64076710Y-29943712D01*
X64089336Y-29951280D01*
X64101159Y-29960048D01*
X64112066Y-29969934D01*
X64121952Y-29980841D01*
X64130720Y-29992664D01*
X64138288Y-30005290D01*
X64144582Y-30018597D01*
X64149541Y-30032457D01*
X64153118Y-30046736D01*
X64155278Y-30061297D01*
X64156000Y-30076000D01*
X64156000Y-30376000D01*
X64155278Y-30390703D01*
X64153118Y-30405264D01*
X64149541Y-30419543D01*
X64144582Y-30433403D01*
X64138288Y-30446710D01*
X64130720Y-30459336D01*
X64121952Y-30471159D01*
X64112066Y-30482066D01*
X64101159Y-30491952D01*
X64089336Y-30500720D01*
X64076710Y-30508288D01*
X64063403Y-30514582D01*
X64049543Y-30519541D01*
X64035264Y-30523118D01*
X64020703Y-30525278D01*
X64006000Y-30526000D01*
X62356000Y-30526000D01*
X62341297Y-30525278D01*
X62326736Y-30523118D01*
X62312457Y-30519541D01*
X62298597Y-30514582D01*
X62285290Y-30508288D01*
X62272664Y-30500720D01*
X62260841Y-30491952D01*
X62249934Y-30482066D01*
X62240048Y-30471159D01*
X62231280Y-30459336D01*
X62223712Y-30446710D01*
X62217418Y-30433403D01*
X62212459Y-30419543D01*
X62208882Y-30405264D01*
X62206722Y-30390703D01*
X62206000Y-30376000D01*
X62206000Y-30076000D01*
X62206722Y-30061297D01*
X62208882Y-30046736D01*
X62212459Y-30032457D01*
X62217418Y-30018597D01*
X62223712Y-30005290D01*
X62231280Y-29992664D01*
X62240048Y-29980841D01*
X62249934Y-29969934D01*
X62260841Y-29960048D01*
X62272664Y-29951280D01*
X62285290Y-29943712D01*
X62298597Y-29937418D01*
X62312457Y-29932459D01*
X62326736Y-29928882D01*
X62341297Y-29926722D01*
X62356000Y-29926000D01*
X64006000Y-29926000D01*
X64020703Y-29926722D01*
X64020703Y-29926722D01*
G37*
D13*
X63181000Y-30226000D03*
D10*
G36*
X64020703Y-28656722D02*
G01*
X64035264Y-28658882D01*
X64049543Y-28662459D01*
X64063403Y-28667418D01*
X64076710Y-28673712D01*
X64089336Y-28681280D01*
X64101159Y-28690048D01*
X64112066Y-28699934D01*
X64121952Y-28710841D01*
X64130720Y-28722664D01*
X64138288Y-28735290D01*
X64144582Y-28748597D01*
X64149541Y-28762457D01*
X64153118Y-28776736D01*
X64155278Y-28791297D01*
X64156000Y-28806000D01*
X64156000Y-29106000D01*
X64155278Y-29120703D01*
X64153118Y-29135264D01*
X64149541Y-29149543D01*
X64144582Y-29163403D01*
X64138288Y-29176710D01*
X64130720Y-29189336D01*
X64121952Y-29201159D01*
X64112066Y-29212066D01*
X64101159Y-29221952D01*
X64089336Y-29230720D01*
X64076710Y-29238288D01*
X64063403Y-29244582D01*
X64049543Y-29249541D01*
X64035264Y-29253118D01*
X64020703Y-29255278D01*
X64006000Y-29256000D01*
X62356000Y-29256000D01*
X62341297Y-29255278D01*
X62326736Y-29253118D01*
X62312457Y-29249541D01*
X62298597Y-29244582D01*
X62285290Y-29238288D01*
X62272664Y-29230720D01*
X62260841Y-29221952D01*
X62249934Y-29212066D01*
X62240048Y-29201159D01*
X62231280Y-29189336D01*
X62223712Y-29176710D01*
X62217418Y-29163403D01*
X62212459Y-29149543D01*
X62208882Y-29135264D01*
X62206722Y-29120703D01*
X62206000Y-29106000D01*
X62206000Y-28806000D01*
X62206722Y-28791297D01*
X62208882Y-28776736D01*
X62212459Y-28762457D01*
X62217418Y-28748597D01*
X62223712Y-28735290D01*
X62231280Y-28722664D01*
X62240048Y-28710841D01*
X62249934Y-28699934D01*
X62260841Y-28690048D01*
X62272664Y-28681280D01*
X62285290Y-28673712D01*
X62298597Y-28667418D01*
X62312457Y-28662459D01*
X62326736Y-28658882D01*
X62341297Y-28656722D01*
X62356000Y-28656000D01*
X64006000Y-28656000D01*
X64020703Y-28656722D01*
X64020703Y-28656722D01*
G37*
D13*
X63181000Y-28956000D03*
D10*
G36*
X59070703Y-39324722D02*
G01*
X59085264Y-39326882D01*
X59099543Y-39330459D01*
X59113403Y-39335418D01*
X59126710Y-39341712D01*
X59139336Y-39349280D01*
X59151159Y-39358048D01*
X59162066Y-39367934D01*
X59171952Y-39378841D01*
X59180720Y-39390664D01*
X59188288Y-39403290D01*
X59194582Y-39416597D01*
X59199541Y-39430457D01*
X59203118Y-39444736D01*
X59205278Y-39459297D01*
X59206000Y-39474000D01*
X59206000Y-39774000D01*
X59205278Y-39788703D01*
X59203118Y-39803264D01*
X59199541Y-39817543D01*
X59194582Y-39831403D01*
X59188288Y-39844710D01*
X59180720Y-39857336D01*
X59171952Y-39869159D01*
X59162066Y-39880066D01*
X59151159Y-39889952D01*
X59139336Y-39898720D01*
X59126710Y-39906288D01*
X59113403Y-39912582D01*
X59099543Y-39917541D01*
X59085264Y-39921118D01*
X59070703Y-39923278D01*
X59056000Y-39924000D01*
X57406000Y-39924000D01*
X57391297Y-39923278D01*
X57376736Y-39921118D01*
X57362457Y-39917541D01*
X57348597Y-39912582D01*
X57335290Y-39906288D01*
X57322664Y-39898720D01*
X57310841Y-39889952D01*
X57299934Y-39880066D01*
X57290048Y-39869159D01*
X57281280Y-39857336D01*
X57273712Y-39844710D01*
X57267418Y-39831403D01*
X57262459Y-39817543D01*
X57258882Y-39803264D01*
X57256722Y-39788703D01*
X57256000Y-39774000D01*
X57256000Y-39474000D01*
X57256722Y-39459297D01*
X57258882Y-39444736D01*
X57262459Y-39430457D01*
X57267418Y-39416597D01*
X57273712Y-39403290D01*
X57281280Y-39390664D01*
X57290048Y-39378841D01*
X57299934Y-39367934D01*
X57310841Y-39358048D01*
X57322664Y-39349280D01*
X57335290Y-39341712D01*
X57348597Y-39335418D01*
X57362457Y-39330459D01*
X57376736Y-39326882D01*
X57391297Y-39324722D01*
X57406000Y-39324000D01*
X59056000Y-39324000D01*
X59070703Y-39324722D01*
X59070703Y-39324722D01*
G37*
D13*
X58231000Y-39624000D03*
D10*
G36*
X59070703Y-40594722D02*
G01*
X59085264Y-40596882D01*
X59099543Y-40600459D01*
X59113403Y-40605418D01*
X59126710Y-40611712D01*
X59139336Y-40619280D01*
X59151159Y-40628048D01*
X59162066Y-40637934D01*
X59171952Y-40648841D01*
X59180720Y-40660664D01*
X59188288Y-40673290D01*
X59194582Y-40686597D01*
X59199541Y-40700457D01*
X59203118Y-40714736D01*
X59205278Y-40729297D01*
X59206000Y-40744000D01*
X59206000Y-41044000D01*
X59205278Y-41058703D01*
X59203118Y-41073264D01*
X59199541Y-41087543D01*
X59194582Y-41101403D01*
X59188288Y-41114710D01*
X59180720Y-41127336D01*
X59171952Y-41139159D01*
X59162066Y-41150066D01*
X59151159Y-41159952D01*
X59139336Y-41168720D01*
X59126710Y-41176288D01*
X59113403Y-41182582D01*
X59099543Y-41187541D01*
X59085264Y-41191118D01*
X59070703Y-41193278D01*
X59056000Y-41194000D01*
X57406000Y-41194000D01*
X57391297Y-41193278D01*
X57376736Y-41191118D01*
X57362457Y-41187541D01*
X57348597Y-41182582D01*
X57335290Y-41176288D01*
X57322664Y-41168720D01*
X57310841Y-41159952D01*
X57299934Y-41150066D01*
X57290048Y-41139159D01*
X57281280Y-41127336D01*
X57273712Y-41114710D01*
X57267418Y-41101403D01*
X57262459Y-41087543D01*
X57258882Y-41073264D01*
X57256722Y-41058703D01*
X57256000Y-41044000D01*
X57256000Y-40744000D01*
X57256722Y-40729297D01*
X57258882Y-40714736D01*
X57262459Y-40700457D01*
X57267418Y-40686597D01*
X57273712Y-40673290D01*
X57281280Y-40660664D01*
X57290048Y-40648841D01*
X57299934Y-40637934D01*
X57310841Y-40628048D01*
X57322664Y-40619280D01*
X57335290Y-40611712D01*
X57348597Y-40605418D01*
X57362457Y-40600459D01*
X57376736Y-40596882D01*
X57391297Y-40594722D01*
X57406000Y-40594000D01*
X59056000Y-40594000D01*
X59070703Y-40594722D01*
X59070703Y-40594722D01*
G37*
D13*
X58231000Y-40894000D03*
D10*
G36*
X59070703Y-41864722D02*
G01*
X59085264Y-41866882D01*
X59099543Y-41870459D01*
X59113403Y-41875418D01*
X59126710Y-41881712D01*
X59139336Y-41889280D01*
X59151159Y-41898048D01*
X59162066Y-41907934D01*
X59171952Y-41918841D01*
X59180720Y-41930664D01*
X59188288Y-41943290D01*
X59194582Y-41956597D01*
X59199541Y-41970457D01*
X59203118Y-41984736D01*
X59205278Y-41999297D01*
X59206000Y-42014000D01*
X59206000Y-42314000D01*
X59205278Y-42328703D01*
X59203118Y-42343264D01*
X59199541Y-42357543D01*
X59194582Y-42371403D01*
X59188288Y-42384710D01*
X59180720Y-42397336D01*
X59171952Y-42409159D01*
X59162066Y-42420066D01*
X59151159Y-42429952D01*
X59139336Y-42438720D01*
X59126710Y-42446288D01*
X59113403Y-42452582D01*
X59099543Y-42457541D01*
X59085264Y-42461118D01*
X59070703Y-42463278D01*
X59056000Y-42464000D01*
X57406000Y-42464000D01*
X57391297Y-42463278D01*
X57376736Y-42461118D01*
X57362457Y-42457541D01*
X57348597Y-42452582D01*
X57335290Y-42446288D01*
X57322664Y-42438720D01*
X57310841Y-42429952D01*
X57299934Y-42420066D01*
X57290048Y-42409159D01*
X57281280Y-42397336D01*
X57273712Y-42384710D01*
X57267418Y-42371403D01*
X57262459Y-42357543D01*
X57258882Y-42343264D01*
X57256722Y-42328703D01*
X57256000Y-42314000D01*
X57256000Y-42014000D01*
X57256722Y-41999297D01*
X57258882Y-41984736D01*
X57262459Y-41970457D01*
X57267418Y-41956597D01*
X57273712Y-41943290D01*
X57281280Y-41930664D01*
X57290048Y-41918841D01*
X57299934Y-41907934D01*
X57310841Y-41898048D01*
X57322664Y-41889280D01*
X57335290Y-41881712D01*
X57348597Y-41875418D01*
X57362457Y-41870459D01*
X57376736Y-41866882D01*
X57391297Y-41864722D01*
X57406000Y-41864000D01*
X59056000Y-41864000D01*
X59070703Y-41864722D01*
X59070703Y-41864722D01*
G37*
D13*
X58231000Y-42164000D03*
D10*
G36*
X59070703Y-43134722D02*
G01*
X59085264Y-43136882D01*
X59099543Y-43140459D01*
X59113403Y-43145418D01*
X59126710Y-43151712D01*
X59139336Y-43159280D01*
X59151159Y-43168048D01*
X59162066Y-43177934D01*
X59171952Y-43188841D01*
X59180720Y-43200664D01*
X59188288Y-43213290D01*
X59194582Y-43226597D01*
X59199541Y-43240457D01*
X59203118Y-43254736D01*
X59205278Y-43269297D01*
X59206000Y-43284000D01*
X59206000Y-43584000D01*
X59205278Y-43598703D01*
X59203118Y-43613264D01*
X59199541Y-43627543D01*
X59194582Y-43641403D01*
X59188288Y-43654710D01*
X59180720Y-43667336D01*
X59171952Y-43679159D01*
X59162066Y-43690066D01*
X59151159Y-43699952D01*
X59139336Y-43708720D01*
X59126710Y-43716288D01*
X59113403Y-43722582D01*
X59099543Y-43727541D01*
X59085264Y-43731118D01*
X59070703Y-43733278D01*
X59056000Y-43734000D01*
X57406000Y-43734000D01*
X57391297Y-43733278D01*
X57376736Y-43731118D01*
X57362457Y-43727541D01*
X57348597Y-43722582D01*
X57335290Y-43716288D01*
X57322664Y-43708720D01*
X57310841Y-43699952D01*
X57299934Y-43690066D01*
X57290048Y-43679159D01*
X57281280Y-43667336D01*
X57273712Y-43654710D01*
X57267418Y-43641403D01*
X57262459Y-43627543D01*
X57258882Y-43613264D01*
X57256722Y-43598703D01*
X57256000Y-43584000D01*
X57256000Y-43284000D01*
X57256722Y-43269297D01*
X57258882Y-43254736D01*
X57262459Y-43240457D01*
X57267418Y-43226597D01*
X57273712Y-43213290D01*
X57281280Y-43200664D01*
X57290048Y-43188841D01*
X57299934Y-43177934D01*
X57310841Y-43168048D01*
X57322664Y-43159280D01*
X57335290Y-43151712D01*
X57348597Y-43145418D01*
X57362457Y-43140459D01*
X57376736Y-43136882D01*
X57391297Y-43134722D01*
X57406000Y-43134000D01*
X59056000Y-43134000D01*
X59070703Y-43134722D01*
X59070703Y-43134722D01*
G37*
D13*
X58231000Y-43434000D03*
D10*
G36*
X59070703Y-44404722D02*
G01*
X59085264Y-44406882D01*
X59099543Y-44410459D01*
X59113403Y-44415418D01*
X59126710Y-44421712D01*
X59139336Y-44429280D01*
X59151159Y-44438048D01*
X59162066Y-44447934D01*
X59171952Y-44458841D01*
X59180720Y-44470664D01*
X59188288Y-44483290D01*
X59194582Y-44496597D01*
X59199541Y-44510457D01*
X59203118Y-44524736D01*
X59205278Y-44539297D01*
X59206000Y-44554000D01*
X59206000Y-44854000D01*
X59205278Y-44868703D01*
X59203118Y-44883264D01*
X59199541Y-44897543D01*
X59194582Y-44911403D01*
X59188288Y-44924710D01*
X59180720Y-44937336D01*
X59171952Y-44949159D01*
X59162066Y-44960066D01*
X59151159Y-44969952D01*
X59139336Y-44978720D01*
X59126710Y-44986288D01*
X59113403Y-44992582D01*
X59099543Y-44997541D01*
X59085264Y-45001118D01*
X59070703Y-45003278D01*
X59056000Y-45004000D01*
X57406000Y-45004000D01*
X57391297Y-45003278D01*
X57376736Y-45001118D01*
X57362457Y-44997541D01*
X57348597Y-44992582D01*
X57335290Y-44986288D01*
X57322664Y-44978720D01*
X57310841Y-44969952D01*
X57299934Y-44960066D01*
X57290048Y-44949159D01*
X57281280Y-44937336D01*
X57273712Y-44924710D01*
X57267418Y-44911403D01*
X57262459Y-44897543D01*
X57258882Y-44883264D01*
X57256722Y-44868703D01*
X57256000Y-44854000D01*
X57256000Y-44554000D01*
X57256722Y-44539297D01*
X57258882Y-44524736D01*
X57262459Y-44510457D01*
X57267418Y-44496597D01*
X57273712Y-44483290D01*
X57281280Y-44470664D01*
X57290048Y-44458841D01*
X57299934Y-44447934D01*
X57310841Y-44438048D01*
X57322664Y-44429280D01*
X57335290Y-44421712D01*
X57348597Y-44415418D01*
X57362457Y-44410459D01*
X57376736Y-44406882D01*
X57391297Y-44404722D01*
X57406000Y-44404000D01*
X59056000Y-44404000D01*
X59070703Y-44404722D01*
X59070703Y-44404722D01*
G37*
D13*
X58231000Y-44704000D03*
D10*
G36*
X59070703Y-45674722D02*
G01*
X59085264Y-45676882D01*
X59099543Y-45680459D01*
X59113403Y-45685418D01*
X59126710Y-45691712D01*
X59139336Y-45699280D01*
X59151159Y-45708048D01*
X59162066Y-45717934D01*
X59171952Y-45728841D01*
X59180720Y-45740664D01*
X59188288Y-45753290D01*
X59194582Y-45766597D01*
X59199541Y-45780457D01*
X59203118Y-45794736D01*
X59205278Y-45809297D01*
X59206000Y-45824000D01*
X59206000Y-46124000D01*
X59205278Y-46138703D01*
X59203118Y-46153264D01*
X59199541Y-46167543D01*
X59194582Y-46181403D01*
X59188288Y-46194710D01*
X59180720Y-46207336D01*
X59171952Y-46219159D01*
X59162066Y-46230066D01*
X59151159Y-46239952D01*
X59139336Y-46248720D01*
X59126710Y-46256288D01*
X59113403Y-46262582D01*
X59099543Y-46267541D01*
X59085264Y-46271118D01*
X59070703Y-46273278D01*
X59056000Y-46274000D01*
X57406000Y-46274000D01*
X57391297Y-46273278D01*
X57376736Y-46271118D01*
X57362457Y-46267541D01*
X57348597Y-46262582D01*
X57335290Y-46256288D01*
X57322664Y-46248720D01*
X57310841Y-46239952D01*
X57299934Y-46230066D01*
X57290048Y-46219159D01*
X57281280Y-46207336D01*
X57273712Y-46194710D01*
X57267418Y-46181403D01*
X57262459Y-46167543D01*
X57258882Y-46153264D01*
X57256722Y-46138703D01*
X57256000Y-46124000D01*
X57256000Y-45824000D01*
X57256722Y-45809297D01*
X57258882Y-45794736D01*
X57262459Y-45780457D01*
X57267418Y-45766597D01*
X57273712Y-45753290D01*
X57281280Y-45740664D01*
X57290048Y-45728841D01*
X57299934Y-45717934D01*
X57310841Y-45708048D01*
X57322664Y-45699280D01*
X57335290Y-45691712D01*
X57348597Y-45685418D01*
X57362457Y-45680459D01*
X57376736Y-45676882D01*
X57391297Y-45674722D01*
X57406000Y-45674000D01*
X59056000Y-45674000D01*
X59070703Y-45674722D01*
X59070703Y-45674722D01*
G37*
D13*
X58231000Y-45974000D03*
D10*
G36*
X59070703Y-46944722D02*
G01*
X59085264Y-46946882D01*
X59099543Y-46950459D01*
X59113403Y-46955418D01*
X59126710Y-46961712D01*
X59139336Y-46969280D01*
X59151159Y-46978048D01*
X59162066Y-46987934D01*
X59171952Y-46998841D01*
X59180720Y-47010664D01*
X59188288Y-47023290D01*
X59194582Y-47036597D01*
X59199541Y-47050457D01*
X59203118Y-47064736D01*
X59205278Y-47079297D01*
X59206000Y-47094000D01*
X59206000Y-47394000D01*
X59205278Y-47408703D01*
X59203118Y-47423264D01*
X59199541Y-47437543D01*
X59194582Y-47451403D01*
X59188288Y-47464710D01*
X59180720Y-47477336D01*
X59171952Y-47489159D01*
X59162066Y-47500066D01*
X59151159Y-47509952D01*
X59139336Y-47518720D01*
X59126710Y-47526288D01*
X59113403Y-47532582D01*
X59099543Y-47537541D01*
X59085264Y-47541118D01*
X59070703Y-47543278D01*
X59056000Y-47544000D01*
X57406000Y-47544000D01*
X57391297Y-47543278D01*
X57376736Y-47541118D01*
X57362457Y-47537541D01*
X57348597Y-47532582D01*
X57335290Y-47526288D01*
X57322664Y-47518720D01*
X57310841Y-47509952D01*
X57299934Y-47500066D01*
X57290048Y-47489159D01*
X57281280Y-47477336D01*
X57273712Y-47464710D01*
X57267418Y-47451403D01*
X57262459Y-47437543D01*
X57258882Y-47423264D01*
X57256722Y-47408703D01*
X57256000Y-47394000D01*
X57256000Y-47094000D01*
X57256722Y-47079297D01*
X57258882Y-47064736D01*
X57262459Y-47050457D01*
X57267418Y-47036597D01*
X57273712Y-47023290D01*
X57281280Y-47010664D01*
X57290048Y-46998841D01*
X57299934Y-46987934D01*
X57310841Y-46978048D01*
X57322664Y-46969280D01*
X57335290Y-46961712D01*
X57348597Y-46955418D01*
X57362457Y-46950459D01*
X57376736Y-46946882D01*
X57391297Y-46944722D01*
X57406000Y-46944000D01*
X59056000Y-46944000D01*
X59070703Y-46944722D01*
X59070703Y-46944722D01*
G37*
D13*
X58231000Y-47244000D03*
D10*
G36*
X59070703Y-48214722D02*
G01*
X59085264Y-48216882D01*
X59099543Y-48220459D01*
X59113403Y-48225418D01*
X59126710Y-48231712D01*
X59139336Y-48239280D01*
X59151159Y-48248048D01*
X59162066Y-48257934D01*
X59171952Y-48268841D01*
X59180720Y-48280664D01*
X59188288Y-48293290D01*
X59194582Y-48306597D01*
X59199541Y-48320457D01*
X59203118Y-48334736D01*
X59205278Y-48349297D01*
X59206000Y-48364000D01*
X59206000Y-48664000D01*
X59205278Y-48678703D01*
X59203118Y-48693264D01*
X59199541Y-48707543D01*
X59194582Y-48721403D01*
X59188288Y-48734710D01*
X59180720Y-48747336D01*
X59171952Y-48759159D01*
X59162066Y-48770066D01*
X59151159Y-48779952D01*
X59139336Y-48788720D01*
X59126710Y-48796288D01*
X59113403Y-48802582D01*
X59099543Y-48807541D01*
X59085264Y-48811118D01*
X59070703Y-48813278D01*
X59056000Y-48814000D01*
X57406000Y-48814000D01*
X57391297Y-48813278D01*
X57376736Y-48811118D01*
X57362457Y-48807541D01*
X57348597Y-48802582D01*
X57335290Y-48796288D01*
X57322664Y-48788720D01*
X57310841Y-48779952D01*
X57299934Y-48770066D01*
X57290048Y-48759159D01*
X57281280Y-48747336D01*
X57273712Y-48734710D01*
X57267418Y-48721403D01*
X57262459Y-48707543D01*
X57258882Y-48693264D01*
X57256722Y-48678703D01*
X57256000Y-48664000D01*
X57256000Y-48364000D01*
X57256722Y-48349297D01*
X57258882Y-48334736D01*
X57262459Y-48320457D01*
X57267418Y-48306597D01*
X57273712Y-48293290D01*
X57281280Y-48280664D01*
X57290048Y-48268841D01*
X57299934Y-48257934D01*
X57310841Y-48248048D01*
X57322664Y-48239280D01*
X57335290Y-48231712D01*
X57348597Y-48225418D01*
X57362457Y-48220459D01*
X57376736Y-48216882D01*
X57391297Y-48214722D01*
X57406000Y-48214000D01*
X59056000Y-48214000D01*
X59070703Y-48214722D01*
X59070703Y-48214722D01*
G37*
D13*
X58231000Y-48514000D03*
D10*
G36*
X64020703Y-48214722D02*
G01*
X64035264Y-48216882D01*
X64049543Y-48220459D01*
X64063403Y-48225418D01*
X64076710Y-48231712D01*
X64089336Y-48239280D01*
X64101159Y-48248048D01*
X64112066Y-48257934D01*
X64121952Y-48268841D01*
X64130720Y-48280664D01*
X64138288Y-48293290D01*
X64144582Y-48306597D01*
X64149541Y-48320457D01*
X64153118Y-48334736D01*
X64155278Y-48349297D01*
X64156000Y-48364000D01*
X64156000Y-48664000D01*
X64155278Y-48678703D01*
X64153118Y-48693264D01*
X64149541Y-48707543D01*
X64144582Y-48721403D01*
X64138288Y-48734710D01*
X64130720Y-48747336D01*
X64121952Y-48759159D01*
X64112066Y-48770066D01*
X64101159Y-48779952D01*
X64089336Y-48788720D01*
X64076710Y-48796288D01*
X64063403Y-48802582D01*
X64049543Y-48807541D01*
X64035264Y-48811118D01*
X64020703Y-48813278D01*
X64006000Y-48814000D01*
X62356000Y-48814000D01*
X62341297Y-48813278D01*
X62326736Y-48811118D01*
X62312457Y-48807541D01*
X62298597Y-48802582D01*
X62285290Y-48796288D01*
X62272664Y-48788720D01*
X62260841Y-48779952D01*
X62249934Y-48770066D01*
X62240048Y-48759159D01*
X62231280Y-48747336D01*
X62223712Y-48734710D01*
X62217418Y-48721403D01*
X62212459Y-48707543D01*
X62208882Y-48693264D01*
X62206722Y-48678703D01*
X62206000Y-48664000D01*
X62206000Y-48364000D01*
X62206722Y-48349297D01*
X62208882Y-48334736D01*
X62212459Y-48320457D01*
X62217418Y-48306597D01*
X62223712Y-48293290D01*
X62231280Y-48280664D01*
X62240048Y-48268841D01*
X62249934Y-48257934D01*
X62260841Y-48248048D01*
X62272664Y-48239280D01*
X62285290Y-48231712D01*
X62298597Y-48225418D01*
X62312457Y-48220459D01*
X62326736Y-48216882D01*
X62341297Y-48214722D01*
X62356000Y-48214000D01*
X64006000Y-48214000D01*
X64020703Y-48214722D01*
X64020703Y-48214722D01*
G37*
D13*
X63181000Y-48514000D03*
D10*
G36*
X64020703Y-46944722D02*
G01*
X64035264Y-46946882D01*
X64049543Y-46950459D01*
X64063403Y-46955418D01*
X64076710Y-46961712D01*
X64089336Y-46969280D01*
X64101159Y-46978048D01*
X64112066Y-46987934D01*
X64121952Y-46998841D01*
X64130720Y-47010664D01*
X64138288Y-47023290D01*
X64144582Y-47036597D01*
X64149541Y-47050457D01*
X64153118Y-47064736D01*
X64155278Y-47079297D01*
X64156000Y-47094000D01*
X64156000Y-47394000D01*
X64155278Y-47408703D01*
X64153118Y-47423264D01*
X64149541Y-47437543D01*
X64144582Y-47451403D01*
X64138288Y-47464710D01*
X64130720Y-47477336D01*
X64121952Y-47489159D01*
X64112066Y-47500066D01*
X64101159Y-47509952D01*
X64089336Y-47518720D01*
X64076710Y-47526288D01*
X64063403Y-47532582D01*
X64049543Y-47537541D01*
X64035264Y-47541118D01*
X64020703Y-47543278D01*
X64006000Y-47544000D01*
X62356000Y-47544000D01*
X62341297Y-47543278D01*
X62326736Y-47541118D01*
X62312457Y-47537541D01*
X62298597Y-47532582D01*
X62285290Y-47526288D01*
X62272664Y-47518720D01*
X62260841Y-47509952D01*
X62249934Y-47500066D01*
X62240048Y-47489159D01*
X62231280Y-47477336D01*
X62223712Y-47464710D01*
X62217418Y-47451403D01*
X62212459Y-47437543D01*
X62208882Y-47423264D01*
X62206722Y-47408703D01*
X62206000Y-47394000D01*
X62206000Y-47094000D01*
X62206722Y-47079297D01*
X62208882Y-47064736D01*
X62212459Y-47050457D01*
X62217418Y-47036597D01*
X62223712Y-47023290D01*
X62231280Y-47010664D01*
X62240048Y-46998841D01*
X62249934Y-46987934D01*
X62260841Y-46978048D01*
X62272664Y-46969280D01*
X62285290Y-46961712D01*
X62298597Y-46955418D01*
X62312457Y-46950459D01*
X62326736Y-46946882D01*
X62341297Y-46944722D01*
X62356000Y-46944000D01*
X64006000Y-46944000D01*
X64020703Y-46944722D01*
X64020703Y-46944722D01*
G37*
D13*
X63181000Y-47244000D03*
D10*
G36*
X64020703Y-45674722D02*
G01*
X64035264Y-45676882D01*
X64049543Y-45680459D01*
X64063403Y-45685418D01*
X64076710Y-45691712D01*
X64089336Y-45699280D01*
X64101159Y-45708048D01*
X64112066Y-45717934D01*
X64121952Y-45728841D01*
X64130720Y-45740664D01*
X64138288Y-45753290D01*
X64144582Y-45766597D01*
X64149541Y-45780457D01*
X64153118Y-45794736D01*
X64155278Y-45809297D01*
X64156000Y-45824000D01*
X64156000Y-46124000D01*
X64155278Y-46138703D01*
X64153118Y-46153264D01*
X64149541Y-46167543D01*
X64144582Y-46181403D01*
X64138288Y-46194710D01*
X64130720Y-46207336D01*
X64121952Y-46219159D01*
X64112066Y-46230066D01*
X64101159Y-46239952D01*
X64089336Y-46248720D01*
X64076710Y-46256288D01*
X64063403Y-46262582D01*
X64049543Y-46267541D01*
X64035264Y-46271118D01*
X64020703Y-46273278D01*
X64006000Y-46274000D01*
X62356000Y-46274000D01*
X62341297Y-46273278D01*
X62326736Y-46271118D01*
X62312457Y-46267541D01*
X62298597Y-46262582D01*
X62285290Y-46256288D01*
X62272664Y-46248720D01*
X62260841Y-46239952D01*
X62249934Y-46230066D01*
X62240048Y-46219159D01*
X62231280Y-46207336D01*
X62223712Y-46194710D01*
X62217418Y-46181403D01*
X62212459Y-46167543D01*
X62208882Y-46153264D01*
X62206722Y-46138703D01*
X62206000Y-46124000D01*
X62206000Y-45824000D01*
X62206722Y-45809297D01*
X62208882Y-45794736D01*
X62212459Y-45780457D01*
X62217418Y-45766597D01*
X62223712Y-45753290D01*
X62231280Y-45740664D01*
X62240048Y-45728841D01*
X62249934Y-45717934D01*
X62260841Y-45708048D01*
X62272664Y-45699280D01*
X62285290Y-45691712D01*
X62298597Y-45685418D01*
X62312457Y-45680459D01*
X62326736Y-45676882D01*
X62341297Y-45674722D01*
X62356000Y-45674000D01*
X64006000Y-45674000D01*
X64020703Y-45674722D01*
X64020703Y-45674722D01*
G37*
D13*
X63181000Y-45974000D03*
D10*
G36*
X64020703Y-44404722D02*
G01*
X64035264Y-44406882D01*
X64049543Y-44410459D01*
X64063403Y-44415418D01*
X64076710Y-44421712D01*
X64089336Y-44429280D01*
X64101159Y-44438048D01*
X64112066Y-44447934D01*
X64121952Y-44458841D01*
X64130720Y-44470664D01*
X64138288Y-44483290D01*
X64144582Y-44496597D01*
X64149541Y-44510457D01*
X64153118Y-44524736D01*
X64155278Y-44539297D01*
X64156000Y-44554000D01*
X64156000Y-44854000D01*
X64155278Y-44868703D01*
X64153118Y-44883264D01*
X64149541Y-44897543D01*
X64144582Y-44911403D01*
X64138288Y-44924710D01*
X64130720Y-44937336D01*
X64121952Y-44949159D01*
X64112066Y-44960066D01*
X64101159Y-44969952D01*
X64089336Y-44978720D01*
X64076710Y-44986288D01*
X64063403Y-44992582D01*
X64049543Y-44997541D01*
X64035264Y-45001118D01*
X64020703Y-45003278D01*
X64006000Y-45004000D01*
X62356000Y-45004000D01*
X62341297Y-45003278D01*
X62326736Y-45001118D01*
X62312457Y-44997541D01*
X62298597Y-44992582D01*
X62285290Y-44986288D01*
X62272664Y-44978720D01*
X62260841Y-44969952D01*
X62249934Y-44960066D01*
X62240048Y-44949159D01*
X62231280Y-44937336D01*
X62223712Y-44924710D01*
X62217418Y-44911403D01*
X62212459Y-44897543D01*
X62208882Y-44883264D01*
X62206722Y-44868703D01*
X62206000Y-44854000D01*
X62206000Y-44554000D01*
X62206722Y-44539297D01*
X62208882Y-44524736D01*
X62212459Y-44510457D01*
X62217418Y-44496597D01*
X62223712Y-44483290D01*
X62231280Y-44470664D01*
X62240048Y-44458841D01*
X62249934Y-44447934D01*
X62260841Y-44438048D01*
X62272664Y-44429280D01*
X62285290Y-44421712D01*
X62298597Y-44415418D01*
X62312457Y-44410459D01*
X62326736Y-44406882D01*
X62341297Y-44404722D01*
X62356000Y-44404000D01*
X64006000Y-44404000D01*
X64020703Y-44404722D01*
X64020703Y-44404722D01*
G37*
D13*
X63181000Y-44704000D03*
D10*
G36*
X64020703Y-43134722D02*
G01*
X64035264Y-43136882D01*
X64049543Y-43140459D01*
X64063403Y-43145418D01*
X64076710Y-43151712D01*
X64089336Y-43159280D01*
X64101159Y-43168048D01*
X64112066Y-43177934D01*
X64121952Y-43188841D01*
X64130720Y-43200664D01*
X64138288Y-43213290D01*
X64144582Y-43226597D01*
X64149541Y-43240457D01*
X64153118Y-43254736D01*
X64155278Y-43269297D01*
X64156000Y-43284000D01*
X64156000Y-43584000D01*
X64155278Y-43598703D01*
X64153118Y-43613264D01*
X64149541Y-43627543D01*
X64144582Y-43641403D01*
X64138288Y-43654710D01*
X64130720Y-43667336D01*
X64121952Y-43679159D01*
X64112066Y-43690066D01*
X64101159Y-43699952D01*
X64089336Y-43708720D01*
X64076710Y-43716288D01*
X64063403Y-43722582D01*
X64049543Y-43727541D01*
X64035264Y-43731118D01*
X64020703Y-43733278D01*
X64006000Y-43734000D01*
X62356000Y-43734000D01*
X62341297Y-43733278D01*
X62326736Y-43731118D01*
X62312457Y-43727541D01*
X62298597Y-43722582D01*
X62285290Y-43716288D01*
X62272664Y-43708720D01*
X62260841Y-43699952D01*
X62249934Y-43690066D01*
X62240048Y-43679159D01*
X62231280Y-43667336D01*
X62223712Y-43654710D01*
X62217418Y-43641403D01*
X62212459Y-43627543D01*
X62208882Y-43613264D01*
X62206722Y-43598703D01*
X62206000Y-43584000D01*
X62206000Y-43284000D01*
X62206722Y-43269297D01*
X62208882Y-43254736D01*
X62212459Y-43240457D01*
X62217418Y-43226597D01*
X62223712Y-43213290D01*
X62231280Y-43200664D01*
X62240048Y-43188841D01*
X62249934Y-43177934D01*
X62260841Y-43168048D01*
X62272664Y-43159280D01*
X62285290Y-43151712D01*
X62298597Y-43145418D01*
X62312457Y-43140459D01*
X62326736Y-43136882D01*
X62341297Y-43134722D01*
X62356000Y-43134000D01*
X64006000Y-43134000D01*
X64020703Y-43134722D01*
X64020703Y-43134722D01*
G37*
D13*
X63181000Y-43434000D03*
D10*
G36*
X64020703Y-41864722D02*
G01*
X64035264Y-41866882D01*
X64049543Y-41870459D01*
X64063403Y-41875418D01*
X64076710Y-41881712D01*
X64089336Y-41889280D01*
X64101159Y-41898048D01*
X64112066Y-41907934D01*
X64121952Y-41918841D01*
X64130720Y-41930664D01*
X64138288Y-41943290D01*
X64144582Y-41956597D01*
X64149541Y-41970457D01*
X64153118Y-41984736D01*
X64155278Y-41999297D01*
X64156000Y-42014000D01*
X64156000Y-42314000D01*
X64155278Y-42328703D01*
X64153118Y-42343264D01*
X64149541Y-42357543D01*
X64144582Y-42371403D01*
X64138288Y-42384710D01*
X64130720Y-42397336D01*
X64121952Y-42409159D01*
X64112066Y-42420066D01*
X64101159Y-42429952D01*
X64089336Y-42438720D01*
X64076710Y-42446288D01*
X64063403Y-42452582D01*
X64049543Y-42457541D01*
X64035264Y-42461118D01*
X64020703Y-42463278D01*
X64006000Y-42464000D01*
X62356000Y-42464000D01*
X62341297Y-42463278D01*
X62326736Y-42461118D01*
X62312457Y-42457541D01*
X62298597Y-42452582D01*
X62285290Y-42446288D01*
X62272664Y-42438720D01*
X62260841Y-42429952D01*
X62249934Y-42420066D01*
X62240048Y-42409159D01*
X62231280Y-42397336D01*
X62223712Y-42384710D01*
X62217418Y-42371403D01*
X62212459Y-42357543D01*
X62208882Y-42343264D01*
X62206722Y-42328703D01*
X62206000Y-42314000D01*
X62206000Y-42014000D01*
X62206722Y-41999297D01*
X62208882Y-41984736D01*
X62212459Y-41970457D01*
X62217418Y-41956597D01*
X62223712Y-41943290D01*
X62231280Y-41930664D01*
X62240048Y-41918841D01*
X62249934Y-41907934D01*
X62260841Y-41898048D01*
X62272664Y-41889280D01*
X62285290Y-41881712D01*
X62298597Y-41875418D01*
X62312457Y-41870459D01*
X62326736Y-41866882D01*
X62341297Y-41864722D01*
X62356000Y-41864000D01*
X64006000Y-41864000D01*
X64020703Y-41864722D01*
X64020703Y-41864722D01*
G37*
D13*
X63181000Y-42164000D03*
D10*
G36*
X64020703Y-40594722D02*
G01*
X64035264Y-40596882D01*
X64049543Y-40600459D01*
X64063403Y-40605418D01*
X64076710Y-40611712D01*
X64089336Y-40619280D01*
X64101159Y-40628048D01*
X64112066Y-40637934D01*
X64121952Y-40648841D01*
X64130720Y-40660664D01*
X64138288Y-40673290D01*
X64144582Y-40686597D01*
X64149541Y-40700457D01*
X64153118Y-40714736D01*
X64155278Y-40729297D01*
X64156000Y-40744000D01*
X64156000Y-41044000D01*
X64155278Y-41058703D01*
X64153118Y-41073264D01*
X64149541Y-41087543D01*
X64144582Y-41101403D01*
X64138288Y-41114710D01*
X64130720Y-41127336D01*
X64121952Y-41139159D01*
X64112066Y-41150066D01*
X64101159Y-41159952D01*
X64089336Y-41168720D01*
X64076710Y-41176288D01*
X64063403Y-41182582D01*
X64049543Y-41187541D01*
X64035264Y-41191118D01*
X64020703Y-41193278D01*
X64006000Y-41194000D01*
X62356000Y-41194000D01*
X62341297Y-41193278D01*
X62326736Y-41191118D01*
X62312457Y-41187541D01*
X62298597Y-41182582D01*
X62285290Y-41176288D01*
X62272664Y-41168720D01*
X62260841Y-41159952D01*
X62249934Y-41150066D01*
X62240048Y-41139159D01*
X62231280Y-41127336D01*
X62223712Y-41114710D01*
X62217418Y-41101403D01*
X62212459Y-41087543D01*
X62208882Y-41073264D01*
X62206722Y-41058703D01*
X62206000Y-41044000D01*
X62206000Y-40744000D01*
X62206722Y-40729297D01*
X62208882Y-40714736D01*
X62212459Y-40700457D01*
X62217418Y-40686597D01*
X62223712Y-40673290D01*
X62231280Y-40660664D01*
X62240048Y-40648841D01*
X62249934Y-40637934D01*
X62260841Y-40628048D01*
X62272664Y-40619280D01*
X62285290Y-40611712D01*
X62298597Y-40605418D01*
X62312457Y-40600459D01*
X62326736Y-40596882D01*
X62341297Y-40594722D01*
X62356000Y-40594000D01*
X64006000Y-40594000D01*
X64020703Y-40594722D01*
X64020703Y-40594722D01*
G37*
D13*
X63181000Y-40894000D03*
D10*
G36*
X64020703Y-39324722D02*
G01*
X64035264Y-39326882D01*
X64049543Y-39330459D01*
X64063403Y-39335418D01*
X64076710Y-39341712D01*
X64089336Y-39349280D01*
X64101159Y-39358048D01*
X64112066Y-39367934D01*
X64121952Y-39378841D01*
X64130720Y-39390664D01*
X64138288Y-39403290D01*
X64144582Y-39416597D01*
X64149541Y-39430457D01*
X64153118Y-39444736D01*
X64155278Y-39459297D01*
X64156000Y-39474000D01*
X64156000Y-39774000D01*
X64155278Y-39788703D01*
X64153118Y-39803264D01*
X64149541Y-39817543D01*
X64144582Y-39831403D01*
X64138288Y-39844710D01*
X64130720Y-39857336D01*
X64121952Y-39869159D01*
X64112066Y-39880066D01*
X64101159Y-39889952D01*
X64089336Y-39898720D01*
X64076710Y-39906288D01*
X64063403Y-39912582D01*
X64049543Y-39917541D01*
X64035264Y-39921118D01*
X64020703Y-39923278D01*
X64006000Y-39924000D01*
X62356000Y-39924000D01*
X62341297Y-39923278D01*
X62326736Y-39921118D01*
X62312457Y-39917541D01*
X62298597Y-39912582D01*
X62285290Y-39906288D01*
X62272664Y-39898720D01*
X62260841Y-39889952D01*
X62249934Y-39880066D01*
X62240048Y-39869159D01*
X62231280Y-39857336D01*
X62223712Y-39844710D01*
X62217418Y-39831403D01*
X62212459Y-39817543D01*
X62208882Y-39803264D01*
X62206722Y-39788703D01*
X62206000Y-39774000D01*
X62206000Y-39474000D01*
X62206722Y-39459297D01*
X62208882Y-39444736D01*
X62212459Y-39430457D01*
X62217418Y-39416597D01*
X62223712Y-39403290D01*
X62231280Y-39390664D01*
X62240048Y-39378841D01*
X62249934Y-39367934D01*
X62260841Y-39358048D01*
X62272664Y-39349280D01*
X62285290Y-39341712D01*
X62298597Y-39335418D01*
X62312457Y-39330459D01*
X62326736Y-39326882D01*
X62341297Y-39324722D01*
X62356000Y-39324000D01*
X64006000Y-39324000D01*
X64020703Y-39324722D01*
X64020703Y-39324722D01*
G37*
D13*
X63181000Y-39624000D03*
D10*
G36*
X54774053Y-9851206D02*
G01*
X54798370Y-9854813D01*
X54822216Y-9860786D01*
X54845362Y-9869068D01*
X54867585Y-9879579D01*
X54888670Y-9892217D01*
X54908416Y-9906861D01*
X54926630Y-9923370D01*
X54943139Y-9941584D01*
X54957783Y-9961330D01*
X54970421Y-9982415D01*
X54980932Y-10004638D01*
X54989214Y-10027784D01*
X54995187Y-10051630D01*
X54998794Y-10075947D01*
X55000000Y-10100500D01*
X55000000Y-12099500D01*
X54998794Y-12124053D01*
X54995187Y-12148370D01*
X54989214Y-12172216D01*
X54980932Y-12195362D01*
X54970421Y-12217585D01*
X54957783Y-12238670D01*
X54943139Y-12258416D01*
X54926630Y-12276630D01*
X54908416Y-12293139D01*
X54888670Y-12307783D01*
X54867585Y-12320421D01*
X54845362Y-12330932D01*
X54822216Y-12339214D01*
X54798370Y-12345187D01*
X54774053Y-12348794D01*
X54749500Y-12350000D01*
X53750500Y-12350000D01*
X53725947Y-12348794D01*
X53701630Y-12345187D01*
X53677784Y-12339214D01*
X53654638Y-12330932D01*
X53632415Y-12320421D01*
X53611330Y-12307783D01*
X53591584Y-12293139D01*
X53573370Y-12276630D01*
X53556861Y-12258416D01*
X53542217Y-12238670D01*
X53529579Y-12217585D01*
X53519068Y-12195362D01*
X53510786Y-12172216D01*
X53504813Y-12148370D01*
X53501206Y-12124053D01*
X53500000Y-12099500D01*
X53500000Y-10100500D01*
X53501206Y-10075947D01*
X53504813Y-10051630D01*
X53510786Y-10027784D01*
X53519068Y-10004638D01*
X53529579Y-9982415D01*
X53542217Y-9961330D01*
X53556861Y-9941584D01*
X53573370Y-9923370D01*
X53591584Y-9906861D01*
X53611330Y-9892217D01*
X53632415Y-9879579D01*
X53654638Y-9869068D01*
X53677784Y-9860786D01*
X53701630Y-9854813D01*
X53725947Y-9851206D01*
X53750500Y-9850000D01*
X54749500Y-9850000D01*
X54774053Y-9851206D01*
X54774053Y-9851206D01*
G37*
D11*
X54250000Y-11100000D03*
D10*
G36*
X48074053Y-9851206D02*
G01*
X48098370Y-9854813D01*
X48122216Y-9860786D01*
X48145362Y-9869068D01*
X48167585Y-9879579D01*
X48188670Y-9892217D01*
X48208416Y-9906861D01*
X48226630Y-9923370D01*
X48243139Y-9941584D01*
X48257783Y-9961330D01*
X48270421Y-9982415D01*
X48280932Y-10004638D01*
X48289214Y-10027784D01*
X48295187Y-10051630D01*
X48298794Y-10075947D01*
X48300000Y-10100500D01*
X48300000Y-12099500D01*
X48298794Y-12124053D01*
X48295187Y-12148370D01*
X48289214Y-12172216D01*
X48280932Y-12195362D01*
X48270421Y-12217585D01*
X48257783Y-12238670D01*
X48243139Y-12258416D01*
X48226630Y-12276630D01*
X48208416Y-12293139D01*
X48188670Y-12307783D01*
X48167585Y-12320421D01*
X48145362Y-12330932D01*
X48122216Y-12339214D01*
X48098370Y-12345187D01*
X48074053Y-12348794D01*
X48049500Y-12350000D01*
X47050500Y-12350000D01*
X47025947Y-12348794D01*
X47001630Y-12345187D01*
X46977784Y-12339214D01*
X46954638Y-12330932D01*
X46932415Y-12320421D01*
X46911330Y-12307783D01*
X46891584Y-12293139D01*
X46873370Y-12276630D01*
X46856861Y-12258416D01*
X46842217Y-12238670D01*
X46829579Y-12217585D01*
X46819068Y-12195362D01*
X46810786Y-12172216D01*
X46804813Y-12148370D01*
X46801206Y-12124053D01*
X46800000Y-12099500D01*
X46800000Y-10100500D01*
X46801206Y-10075947D01*
X46804813Y-10051630D01*
X46810786Y-10027784D01*
X46819068Y-10004638D01*
X46829579Y-9982415D01*
X46842217Y-9961330D01*
X46856861Y-9941584D01*
X46873370Y-9923370D01*
X46891584Y-9906861D01*
X46911330Y-9892217D01*
X46932415Y-9879579D01*
X46954638Y-9869068D01*
X46977784Y-9860786D01*
X47001630Y-9854813D01*
X47025947Y-9851206D01*
X47050500Y-9850000D01*
X48049500Y-9850000D01*
X48074053Y-9851206D01*
X48074053Y-9851206D01*
G37*
D11*
X47550000Y-11100000D03*
D10*
G36*
X35074053Y-9851206D02*
G01*
X35098370Y-9854813D01*
X35122216Y-9860786D01*
X35145362Y-9869068D01*
X35167585Y-9879579D01*
X35188670Y-9892217D01*
X35208416Y-9906861D01*
X35226630Y-9923370D01*
X35243139Y-9941584D01*
X35257783Y-9961330D01*
X35270421Y-9982415D01*
X35280932Y-10004638D01*
X35289214Y-10027784D01*
X35295187Y-10051630D01*
X35298794Y-10075947D01*
X35300000Y-10100500D01*
X35300000Y-12099500D01*
X35298794Y-12124053D01*
X35295187Y-12148370D01*
X35289214Y-12172216D01*
X35280932Y-12195362D01*
X35270421Y-12217585D01*
X35257783Y-12238670D01*
X35243139Y-12258416D01*
X35226630Y-12276630D01*
X35208416Y-12293139D01*
X35188670Y-12307783D01*
X35167585Y-12320421D01*
X35145362Y-12330932D01*
X35122216Y-12339214D01*
X35098370Y-12345187D01*
X35074053Y-12348794D01*
X35049500Y-12350000D01*
X34050500Y-12350000D01*
X34025947Y-12348794D01*
X34001630Y-12345187D01*
X33977784Y-12339214D01*
X33954638Y-12330932D01*
X33932415Y-12320421D01*
X33911330Y-12307783D01*
X33891584Y-12293139D01*
X33873370Y-12276630D01*
X33856861Y-12258416D01*
X33842217Y-12238670D01*
X33829579Y-12217585D01*
X33819068Y-12195362D01*
X33810786Y-12172216D01*
X33804813Y-12148370D01*
X33801206Y-12124053D01*
X33800000Y-12099500D01*
X33800000Y-10100500D01*
X33801206Y-10075947D01*
X33804813Y-10051630D01*
X33810786Y-10027784D01*
X33819068Y-10004638D01*
X33829579Y-9982415D01*
X33842217Y-9961330D01*
X33856861Y-9941584D01*
X33873370Y-9923370D01*
X33891584Y-9906861D01*
X33911330Y-9892217D01*
X33932415Y-9879579D01*
X33954638Y-9869068D01*
X33977784Y-9860786D01*
X34001630Y-9854813D01*
X34025947Y-9851206D01*
X34050500Y-9850000D01*
X35049500Y-9850000D01*
X35074053Y-9851206D01*
X35074053Y-9851206D01*
G37*
D11*
X34550000Y-11100000D03*
D10*
G36*
X41774053Y-9851206D02*
G01*
X41798370Y-9854813D01*
X41822216Y-9860786D01*
X41845362Y-9869068D01*
X41867585Y-9879579D01*
X41888670Y-9892217D01*
X41908416Y-9906861D01*
X41926630Y-9923370D01*
X41943139Y-9941584D01*
X41957783Y-9961330D01*
X41970421Y-9982415D01*
X41980932Y-10004638D01*
X41989214Y-10027784D01*
X41995187Y-10051630D01*
X41998794Y-10075947D01*
X42000000Y-10100500D01*
X42000000Y-12099500D01*
X41998794Y-12124053D01*
X41995187Y-12148370D01*
X41989214Y-12172216D01*
X41980932Y-12195362D01*
X41970421Y-12217585D01*
X41957783Y-12238670D01*
X41943139Y-12258416D01*
X41926630Y-12276630D01*
X41908416Y-12293139D01*
X41888670Y-12307783D01*
X41867585Y-12320421D01*
X41845362Y-12330932D01*
X41822216Y-12339214D01*
X41798370Y-12345187D01*
X41774053Y-12348794D01*
X41749500Y-12350000D01*
X40750500Y-12350000D01*
X40725947Y-12348794D01*
X40701630Y-12345187D01*
X40677784Y-12339214D01*
X40654638Y-12330932D01*
X40632415Y-12320421D01*
X40611330Y-12307783D01*
X40591584Y-12293139D01*
X40573370Y-12276630D01*
X40556861Y-12258416D01*
X40542217Y-12238670D01*
X40529579Y-12217585D01*
X40519068Y-12195362D01*
X40510786Y-12172216D01*
X40504813Y-12148370D01*
X40501206Y-12124053D01*
X40500000Y-12099500D01*
X40500000Y-10100500D01*
X40501206Y-10075947D01*
X40504813Y-10051630D01*
X40510786Y-10027784D01*
X40519068Y-10004638D01*
X40529579Y-9982415D01*
X40542217Y-9961330D01*
X40556861Y-9941584D01*
X40573370Y-9923370D01*
X40591584Y-9906861D01*
X40611330Y-9892217D01*
X40632415Y-9879579D01*
X40654638Y-9869068D01*
X40677784Y-9860786D01*
X40701630Y-9854813D01*
X40725947Y-9851206D01*
X40750500Y-9850000D01*
X41749500Y-9850000D01*
X41774053Y-9851206D01*
X41774053Y-9851206D01*
G37*
D11*
X41250000Y-11100000D03*
D10*
G36*
X21337241Y-37474058D02*
G01*
X21398882Y-37483201D01*
X21459331Y-37498343D01*
X21518004Y-37519336D01*
X21574337Y-37545980D01*
X21627787Y-37578017D01*
X21677840Y-37615138D01*
X21724013Y-37656987D01*
X21765862Y-37703160D01*
X21802983Y-37753213D01*
X21835020Y-37806663D01*
X21861664Y-37862996D01*
X21882657Y-37921669D01*
X21897799Y-37982118D01*
X21906942Y-38043759D01*
X21910000Y-38106000D01*
X21910000Y-39376000D01*
X21906942Y-39438241D01*
X21897799Y-39499882D01*
X21882657Y-39560331D01*
X21861664Y-39619004D01*
X21835020Y-39675337D01*
X21802983Y-39728787D01*
X21765862Y-39778840D01*
X21724013Y-39825013D01*
X21677840Y-39866862D01*
X21627787Y-39903983D01*
X21574337Y-39936020D01*
X21518004Y-39962664D01*
X21459331Y-39983657D01*
X21398882Y-39998799D01*
X21337241Y-40007942D01*
X21275000Y-40011000D01*
X17465000Y-40011000D01*
X17402759Y-40007942D01*
X17341118Y-39998799D01*
X17280669Y-39983657D01*
X17221996Y-39962664D01*
X17165663Y-39936020D01*
X17112213Y-39903983D01*
X17062160Y-39866862D01*
X17015987Y-39825013D01*
X16974138Y-39778840D01*
X16937017Y-39728787D01*
X16904980Y-39675337D01*
X16878336Y-39619004D01*
X16857343Y-39560331D01*
X16842201Y-39499882D01*
X16833058Y-39438241D01*
X16830000Y-39376000D01*
X16830000Y-38106000D01*
X16833058Y-38043759D01*
X16842201Y-37982118D01*
X16857343Y-37921669D01*
X16878336Y-37862996D01*
X16904980Y-37806663D01*
X16937017Y-37753213D01*
X16974138Y-37703160D01*
X17015987Y-37656987D01*
X17062160Y-37615138D01*
X17112213Y-37578017D01*
X17165663Y-37545980D01*
X17221996Y-37519336D01*
X17280669Y-37498343D01*
X17341118Y-37483201D01*
X17402759Y-37474058D01*
X17465000Y-37471000D01*
X21275000Y-37471000D01*
X21337241Y-37474058D01*
X21337241Y-37474058D01*
G37*
D14*
X19370000Y-38741000D03*
D10*
G36*
X10537241Y-19174058D02*
G01*
X10598882Y-19183201D01*
X10659331Y-19198343D01*
X10718004Y-19219336D01*
X10774337Y-19245980D01*
X10827787Y-19278017D01*
X10877840Y-19315138D01*
X10924013Y-19356987D01*
X10965862Y-19403160D01*
X11002983Y-19453213D01*
X11035020Y-19506663D01*
X11061664Y-19562996D01*
X11082657Y-19621669D01*
X11097799Y-19682118D01*
X11106942Y-19743759D01*
X11110000Y-19806000D01*
X11110000Y-21076000D01*
X11106942Y-21138241D01*
X11097799Y-21199882D01*
X11082657Y-21260331D01*
X11061664Y-21319004D01*
X11035020Y-21375337D01*
X11002983Y-21428787D01*
X10965862Y-21478840D01*
X10924013Y-21525013D01*
X10877840Y-21566862D01*
X10827787Y-21603983D01*
X10774337Y-21636020D01*
X10718004Y-21662664D01*
X10659331Y-21683657D01*
X10598882Y-21698799D01*
X10537241Y-21707942D01*
X10475000Y-21711000D01*
X6665000Y-21711000D01*
X6602759Y-21707942D01*
X6541118Y-21698799D01*
X6480669Y-21683657D01*
X6421996Y-21662664D01*
X6365663Y-21636020D01*
X6312213Y-21603983D01*
X6262160Y-21566862D01*
X6215987Y-21525013D01*
X6174138Y-21478840D01*
X6137017Y-21428787D01*
X6104980Y-21375337D01*
X6078336Y-21319004D01*
X6057343Y-21260331D01*
X6042201Y-21199882D01*
X6033058Y-21138241D01*
X6030000Y-21076000D01*
X6030000Y-19806000D01*
X6033058Y-19743759D01*
X6042201Y-19682118D01*
X6057343Y-19621669D01*
X6078336Y-19562996D01*
X6104980Y-19506663D01*
X6137017Y-19453213D01*
X6174138Y-19403160D01*
X6215987Y-19356987D01*
X6262160Y-19315138D01*
X6312213Y-19278017D01*
X6365663Y-19245980D01*
X6421996Y-19219336D01*
X6480669Y-19198343D01*
X6541118Y-19183201D01*
X6602759Y-19174058D01*
X6665000Y-19171000D01*
X10475000Y-19171000D01*
X10537241Y-19174058D01*
X10537241Y-19174058D01*
G37*
D14*
X8570000Y-20441000D03*
D10*
G36*
X10537241Y-37474058D02*
G01*
X10598882Y-37483201D01*
X10659331Y-37498343D01*
X10718004Y-37519336D01*
X10774337Y-37545980D01*
X10827787Y-37578017D01*
X10877840Y-37615138D01*
X10924013Y-37656987D01*
X10965862Y-37703160D01*
X11002983Y-37753213D01*
X11035020Y-37806663D01*
X11061664Y-37862996D01*
X11082657Y-37921669D01*
X11097799Y-37982118D01*
X11106942Y-38043759D01*
X11110000Y-38106000D01*
X11110000Y-39376000D01*
X11106942Y-39438241D01*
X11097799Y-39499882D01*
X11082657Y-39560331D01*
X11061664Y-39619004D01*
X11035020Y-39675337D01*
X11002983Y-39728787D01*
X10965862Y-39778840D01*
X10924013Y-39825013D01*
X10877840Y-39866862D01*
X10827787Y-39903983D01*
X10774337Y-39936020D01*
X10718004Y-39962664D01*
X10659331Y-39983657D01*
X10598882Y-39998799D01*
X10537241Y-40007942D01*
X10475000Y-40011000D01*
X6665000Y-40011000D01*
X6602759Y-40007942D01*
X6541118Y-39998799D01*
X6480669Y-39983657D01*
X6421996Y-39962664D01*
X6365663Y-39936020D01*
X6312213Y-39903983D01*
X6262160Y-39866862D01*
X6215987Y-39825013D01*
X6174138Y-39778840D01*
X6137017Y-39728787D01*
X6104980Y-39675337D01*
X6078336Y-39619004D01*
X6057343Y-39560331D01*
X6042201Y-39499882D01*
X6033058Y-39438241D01*
X6030000Y-39376000D01*
X6030000Y-38106000D01*
X6033058Y-38043759D01*
X6042201Y-37982118D01*
X6057343Y-37921669D01*
X6078336Y-37862996D01*
X6104980Y-37806663D01*
X6137017Y-37753213D01*
X6174138Y-37703160D01*
X6215987Y-37656987D01*
X6262160Y-37615138D01*
X6312213Y-37578017D01*
X6365663Y-37545980D01*
X6421996Y-37519336D01*
X6480669Y-37498343D01*
X6541118Y-37483201D01*
X6602759Y-37474058D01*
X6665000Y-37471000D01*
X10475000Y-37471000D01*
X10537241Y-37474058D01*
X10537241Y-37474058D01*
G37*
D14*
X8570000Y-38741000D03*
D10*
G36*
X21337241Y-19174058D02*
G01*
X21398882Y-19183201D01*
X21459331Y-19198343D01*
X21518004Y-19219336D01*
X21574337Y-19245980D01*
X21627787Y-19278017D01*
X21677840Y-19315138D01*
X21724013Y-19356987D01*
X21765862Y-19403160D01*
X21802983Y-19453213D01*
X21835020Y-19506663D01*
X21861664Y-19562996D01*
X21882657Y-19621669D01*
X21897799Y-19682118D01*
X21906942Y-19743759D01*
X21910000Y-19806000D01*
X21910000Y-21076000D01*
X21906942Y-21138241D01*
X21897799Y-21199882D01*
X21882657Y-21260331D01*
X21861664Y-21319004D01*
X21835020Y-21375337D01*
X21802983Y-21428787D01*
X21765862Y-21478840D01*
X21724013Y-21525013D01*
X21677840Y-21566862D01*
X21627787Y-21603983D01*
X21574337Y-21636020D01*
X21518004Y-21662664D01*
X21459331Y-21683657D01*
X21398882Y-21698799D01*
X21337241Y-21707942D01*
X21275000Y-21711000D01*
X17465000Y-21711000D01*
X17402759Y-21707942D01*
X17341118Y-21698799D01*
X17280669Y-21683657D01*
X17221996Y-21662664D01*
X17165663Y-21636020D01*
X17112213Y-21603983D01*
X17062160Y-21566862D01*
X17015987Y-21525013D01*
X16974138Y-21478840D01*
X16937017Y-21428787D01*
X16904980Y-21375337D01*
X16878336Y-21319004D01*
X16857343Y-21260331D01*
X16842201Y-21199882D01*
X16833058Y-21138241D01*
X16830000Y-21076000D01*
X16830000Y-19806000D01*
X16833058Y-19743759D01*
X16842201Y-19682118D01*
X16857343Y-19621669D01*
X16878336Y-19562996D01*
X16904980Y-19506663D01*
X16937017Y-19453213D01*
X16974138Y-19403160D01*
X17015987Y-19356987D01*
X17062160Y-19315138D01*
X17112213Y-19278017D01*
X17165663Y-19245980D01*
X17221996Y-19219336D01*
X17280669Y-19198343D01*
X17341118Y-19183201D01*
X17402759Y-19174058D01*
X17465000Y-19171000D01*
X21275000Y-19171000D01*
X21337241Y-19174058D01*
X21337241Y-19174058D01*
G37*
D14*
X19370000Y-20441000D03*
D15*
X50744000Y-14825000D03*
X50744000Y-15475000D03*
X50744000Y-16125000D03*
X50744000Y-16775000D03*
X50744000Y-17425000D03*
X50744000Y-18075000D03*
X50744000Y-18725000D03*
X50744000Y-19375000D03*
X50744000Y-20025000D03*
X50744000Y-20675000D03*
X50744000Y-21325000D03*
X50744000Y-21975000D03*
X50744000Y-22625000D03*
X50744000Y-23275000D03*
X56444000Y-23275000D03*
X56444000Y-22625000D03*
X56444000Y-21975000D03*
X56444000Y-21325000D03*
X56444000Y-20675000D03*
X56444000Y-20025000D03*
X56444000Y-19375000D03*
X56444000Y-18725000D03*
X56444000Y-18075000D03*
X56444000Y-17425000D03*
X56444000Y-16775000D03*
X56444000Y-16125000D03*
X56444000Y-15475000D03*
X56444000Y-14825000D03*
M02*
