G04 #@! TF.GenerationSoftware,KiCad,Pcbnew,(5.1.4)-1*
G04 #@! TF.CreationDate,2021-11-01T15:57:40-05:00*
G04 #@! TF.ProjectId,RascalHat,52617363-616c-4486-9174-2e6b69636164,rev?*
G04 #@! TF.SameCoordinates,Original*
G04 #@! TF.FileFunction,Paste,Top*
G04 #@! TF.FilePolarity,Positive*
%FSLAX46Y46*%
G04 Gerber Fmt 4.6, Leading zero omitted, Abs format (unit mm)*
G04 Created by KiCad (PCBNEW (5.1.4)-1) date 2021-11-01 15:57:40*
%MOMM*%
%LPD*%
G04 APERTURE LIST*
%ADD10C,0.100000*%
%ADD11C,1.500000*%
%ADD12C,0.975000*%
%ADD13C,1.600000*%
%ADD14R,0.450000X1.450000*%
%ADD15R,1.000000X1.000000*%
G04 APERTURE END LIST*
D10*
G36*
X22074053Y-9851206D02*
G01*
X22098370Y-9854813D01*
X22122216Y-9860786D01*
X22145362Y-9869068D01*
X22167585Y-9879579D01*
X22188670Y-9892217D01*
X22208416Y-9906861D01*
X22226630Y-9923370D01*
X22243139Y-9941584D01*
X22257783Y-9961330D01*
X22270421Y-9982415D01*
X22280932Y-10004638D01*
X22289214Y-10027784D01*
X22295187Y-10051630D01*
X22298794Y-10075947D01*
X22300000Y-10100500D01*
X22300000Y-12099500D01*
X22298794Y-12124053D01*
X22295187Y-12148370D01*
X22289214Y-12172216D01*
X22280932Y-12195362D01*
X22270421Y-12217585D01*
X22257783Y-12238670D01*
X22243139Y-12258416D01*
X22226630Y-12276630D01*
X22208416Y-12293139D01*
X22188670Y-12307783D01*
X22167585Y-12320421D01*
X22145362Y-12330932D01*
X22122216Y-12339214D01*
X22098370Y-12345187D01*
X22074053Y-12348794D01*
X22049500Y-12350000D01*
X21050500Y-12350000D01*
X21025947Y-12348794D01*
X21001630Y-12345187D01*
X20977784Y-12339214D01*
X20954638Y-12330932D01*
X20932415Y-12320421D01*
X20911330Y-12307783D01*
X20891584Y-12293139D01*
X20873370Y-12276630D01*
X20856861Y-12258416D01*
X20842217Y-12238670D01*
X20829579Y-12217585D01*
X20819068Y-12195362D01*
X20810786Y-12172216D01*
X20804813Y-12148370D01*
X20801206Y-12124053D01*
X20800000Y-12099500D01*
X20800000Y-10100500D01*
X20801206Y-10075947D01*
X20804813Y-10051630D01*
X20810786Y-10027784D01*
X20819068Y-10004638D01*
X20829579Y-9982415D01*
X20842217Y-9961330D01*
X20856861Y-9941584D01*
X20873370Y-9923370D01*
X20891584Y-9906861D01*
X20911330Y-9892217D01*
X20932415Y-9879579D01*
X20954638Y-9869068D01*
X20977784Y-9860786D01*
X21001630Y-9854813D01*
X21025947Y-9851206D01*
X21050500Y-9850000D01*
X22049500Y-9850000D01*
X22074053Y-9851206D01*
X22074053Y-9851206D01*
G37*
D11*
X21550000Y-11100000D03*
D10*
G36*
X28774053Y-9851206D02*
G01*
X28798370Y-9854813D01*
X28822216Y-9860786D01*
X28845362Y-9869068D01*
X28867585Y-9879579D01*
X28888670Y-9892217D01*
X28908416Y-9906861D01*
X28926630Y-9923370D01*
X28943139Y-9941584D01*
X28957783Y-9961330D01*
X28970421Y-9982415D01*
X28980932Y-10004638D01*
X28989214Y-10027784D01*
X28995187Y-10051630D01*
X28998794Y-10075947D01*
X29000000Y-10100500D01*
X29000000Y-12099500D01*
X28998794Y-12124053D01*
X28995187Y-12148370D01*
X28989214Y-12172216D01*
X28980932Y-12195362D01*
X28970421Y-12217585D01*
X28957783Y-12238670D01*
X28943139Y-12258416D01*
X28926630Y-12276630D01*
X28908416Y-12293139D01*
X28888670Y-12307783D01*
X28867585Y-12320421D01*
X28845362Y-12330932D01*
X28822216Y-12339214D01*
X28798370Y-12345187D01*
X28774053Y-12348794D01*
X28749500Y-12350000D01*
X27750500Y-12350000D01*
X27725947Y-12348794D01*
X27701630Y-12345187D01*
X27677784Y-12339214D01*
X27654638Y-12330932D01*
X27632415Y-12320421D01*
X27611330Y-12307783D01*
X27591584Y-12293139D01*
X27573370Y-12276630D01*
X27556861Y-12258416D01*
X27542217Y-12238670D01*
X27529579Y-12217585D01*
X27519068Y-12195362D01*
X27510786Y-12172216D01*
X27504813Y-12148370D01*
X27501206Y-12124053D01*
X27500000Y-12099500D01*
X27500000Y-10100500D01*
X27501206Y-10075947D01*
X27504813Y-10051630D01*
X27510786Y-10027784D01*
X27519068Y-10004638D01*
X27529579Y-9982415D01*
X27542217Y-9961330D01*
X27556861Y-9941584D01*
X27573370Y-9923370D01*
X27591584Y-9906861D01*
X27611330Y-9892217D01*
X27632415Y-9879579D01*
X27654638Y-9869068D01*
X27677784Y-9860786D01*
X27701630Y-9854813D01*
X27725947Y-9851206D01*
X27750500Y-9850000D01*
X28749500Y-9850000D01*
X28774053Y-9851206D01*
X28774053Y-9851206D01*
G37*
D11*
X28250000Y-11100000D03*
D10*
G36*
X65420142Y-22766174D02*
G01*
X65443803Y-22769684D01*
X65467007Y-22775496D01*
X65489529Y-22783554D01*
X65511153Y-22793782D01*
X65531670Y-22806079D01*
X65550883Y-22820329D01*
X65568607Y-22836393D01*
X65584671Y-22854117D01*
X65598921Y-22873330D01*
X65611218Y-22893847D01*
X65621446Y-22915471D01*
X65629504Y-22937993D01*
X65635316Y-22961197D01*
X65638826Y-22984858D01*
X65640000Y-23008750D01*
X65640000Y-23496250D01*
X65638826Y-23520142D01*
X65635316Y-23543803D01*
X65629504Y-23567007D01*
X65621446Y-23589529D01*
X65611218Y-23611153D01*
X65598921Y-23631670D01*
X65584671Y-23650883D01*
X65568607Y-23668607D01*
X65550883Y-23684671D01*
X65531670Y-23698921D01*
X65511153Y-23711218D01*
X65489529Y-23721446D01*
X65467007Y-23729504D01*
X65443803Y-23735316D01*
X65420142Y-23738826D01*
X65396250Y-23740000D01*
X64483750Y-23740000D01*
X64459858Y-23738826D01*
X64436197Y-23735316D01*
X64412993Y-23729504D01*
X64390471Y-23721446D01*
X64368847Y-23711218D01*
X64348330Y-23698921D01*
X64329117Y-23684671D01*
X64311393Y-23668607D01*
X64295329Y-23650883D01*
X64281079Y-23631670D01*
X64268782Y-23611153D01*
X64258554Y-23589529D01*
X64250496Y-23567007D01*
X64244684Y-23543803D01*
X64241174Y-23520142D01*
X64240000Y-23496250D01*
X64240000Y-23008750D01*
X64241174Y-22984858D01*
X64244684Y-22961197D01*
X64250496Y-22937993D01*
X64258554Y-22915471D01*
X64268782Y-22893847D01*
X64281079Y-22873330D01*
X64295329Y-22854117D01*
X64311393Y-22836393D01*
X64329117Y-22820329D01*
X64348330Y-22806079D01*
X64368847Y-22793782D01*
X64390471Y-22783554D01*
X64412993Y-22775496D01*
X64436197Y-22769684D01*
X64459858Y-22766174D01*
X64483750Y-22765000D01*
X65396250Y-22765000D01*
X65420142Y-22766174D01*
X65420142Y-22766174D01*
G37*
D12*
X64940000Y-23252500D03*
D10*
G36*
X65420142Y-24641174D02*
G01*
X65443803Y-24644684D01*
X65467007Y-24650496D01*
X65489529Y-24658554D01*
X65511153Y-24668782D01*
X65531670Y-24681079D01*
X65550883Y-24695329D01*
X65568607Y-24711393D01*
X65584671Y-24729117D01*
X65598921Y-24748330D01*
X65611218Y-24768847D01*
X65621446Y-24790471D01*
X65629504Y-24812993D01*
X65635316Y-24836197D01*
X65638826Y-24859858D01*
X65640000Y-24883750D01*
X65640000Y-25371250D01*
X65638826Y-25395142D01*
X65635316Y-25418803D01*
X65629504Y-25442007D01*
X65621446Y-25464529D01*
X65611218Y-25486153D01*
X65598921Y-25506670D01*
X65584671Y-25525883D01*
X65568607Y-25543607D01*
X65550883Y-25559671D01*
X65531670Y-25573921D01*
X65511153Y-25586218D01*
X65489529Y-25596446D01*
X65467007Y-25604504D01*
X65443803Y-25610316D01*
X65420142Y-25613826D01*
X65396250Y-25615000D01*
X64483750Y-25615000D01*
X64459858Y-25613826D01*
X64436197Y-25610316D01*
X64412993Y-25604504D01*
X64390471Y-25596446D01*
X64368847Y-25586218D01*
X64348330Y-25573921D01*
X64329117Y-25559671D01*
X64311393Y-25543607D01*
X64295329Y-25525883D01*
X64281079Y-25506670D01*
X64268782Y-25486153D01*
X64258554Y-25464529D01*
X64250496Y-25442007D01*
X64244684Y-25418803D01*
X64241174Y-25395142D01*
X64240000Y-25371250D01*
X64240000Y-24883750D01*
X64241174Y-24859858D01*
X64244684Y-24836197D01*
X64250496Y-24812993D01*
X64258554Y-24790471D01*
X64268782Y-24768847D01*
X64281079Y-24748330D01*
X64295329Y-24729117D01*
X64311393Y-24711393D01*
X64329117Y-24695329D01*
X64348330Y-24681079D01*
X64368847Y-24668782D01*
X64390471Y-24658554D01*
X64412993Y-24650496D01*
X64436197Y-24644684D01*
X64459858Y-24641174D01*
X64483750Y-24640000D01*
X65396250Y-24640000D01*
X65420142Y-24641174D01*
X65420142Y-24641174D01*
G37*
D12*
X64940000Y-25127500D03*
D10*
G36*
X63614504Y-32261204D02*
G01*
X63638773Y-32264804D01*
X63662571Y-32270765D01*
X63685671Y-32279030D01*
X63707849Y-32289520D01*
X63728893Y-32302133D01*
X63748598Y-32316747D01*
X63766777Y-32333223D01*
X63783253Y-32351402D01*
X63797867Y-32371107D01*
X63810480Y-32392151D01*
X63820970Y-32414329D01*
X63829235Y-32437429D01*
X63835196Y-32461227D01*
X63838796Y-32485496D01*
X63840000Y-32510000D01*
X63840000Y-35010000D01*
X63838796Y-35034504D01*
X63835196Y-35058773D01*
X63829235Y-35082571D01*
X63820970Y-35105671D01*
X63810480Y-35127849D01*
X63797867Y-35148893D01*
X63783253Y-35168598D01*
X63766777Y-35186777D01*
X63748598Y-35203253D01*
X63728893Y-35217867D01*
X63707849Y-35230480D01*
X63685671Y-35240970D01*
X63662571Y-35249235D01*
X63638773Y-35255196D01*
X63614504Y-35258796D01*
X63590000Y-35260000D01*
X62490000Y-35260000D01*
X62465496Y-35258796D01*
X62441227Y-35255196D01*
X62417429Y-35249235D01*
X62394329Y-35240970D01*
X62372151Y-35230480D01*
X62351107Y-35217867D01*
X62331402Y-35203253D01*
X62313223Y-35186777D01*
X62296747Y-35168598D01*
X62282133Y-35148893D01*
X62269520Y-35127849D01*
X62259030Y-35105671D01*
X62250765Y-35082571D01*
X62244804Y-35058773D01*
X62241204Y-35034504D01*
X62240000Y-35010000D01*
X62240000Y-32510000D01*
X62241204Y-32485496D01*
X62244804Y-32461227D01*
X62250765Y-32437429D01*
X62259030Y-32414329D01*
X62269520Y-32392151D01*
X62282133Y-32371107D01*
X62296747Y-32351402D01*
X62313223Y-32333223D01*
X62331402Y-32316747D01*
X62351107Y-32302133D01*
X62372151Y-32289520D01*
X62394329Y-32279030D01*
X62417429Y-32270765D01*
X62441227Y-32264804D01*
X62465496Y-32261204D01*
X62490000Y-32260000D01*
X63590000Y-32260000D01*
X63614504Y-32261204D01*
X63614504Y-32261204D01*
G37*
D13*
X63040000Y-33760000D03*
D10*
G36*
X63614504Y-27861204D02*
G01*
X63638773Y-27864804D01*
X63662571Y-27870765D01*
X63685671Y-27879030D01*
X63707849Y-27889520D01*
X63728893Y-27902133D01*
X63748598Y-27916747D01*
X63766777Y-27933223D01*
X63783253Y-27951402D01*
X63797867Y-27971107D01*
X63810480Y-27992151D01*
X63820970Y-28014329D01*
X63829235Y-28037429D01*
X63835196Y-28061227D01*
X63838796Y-28085496D01*
X63840000Y-28110000D01*
X63840000Y-30610000D01*
X63838796Y-30634504D01*
X63835196Y-30658773D01*
X63829235Y-30682571D01*
X63820970Y-30705671D01*
X63810480Y-30727849D01*
X63797867Y-30748893D01*
X63783253Y-30768598D01*
X63766777Y-30786777D01*
X63748598Y-30803253D01*
X63728893Y-30817867D01*
X63707849Y-30830480D01*
X63685671Y-30840970D01*
X63662571Y-30849235D01*
X63638773Y-30855196D01*
X63614504Y-30858796D01*
X63590000Y-30860000D01*
X62490000Y-30860000D01*
X62465496Y-30858796D01*
X62441227Y-30855196D01*
X62417429Y-30849235D01*
X62394329Y-30840970D01*
X62372151Y-30830480D01*
X62351107Y-30817867D01*
X62331402Y-30803253D01*
X62313223Y-30786777D01*
X62296747Y-30768598D01*
X62282133Y-30748893D01*
X62269520Y-30727849D01*
X62259030Y-30705671D01*
X62250765Y-30682571D01*
X62244804Y-30658773D01*
X62241204Y-30634504D01*
X62240000Y-30610000D01*
X62240000Y-28110000D01*
X62241204Y-28085496D01*
X62244804Y-28061227D01*
X62250765Y-28037429D01*
X62259030Y-28014329D01*
X62269520Y-27992151D01*
X62282133Y-27971107D01*
X62296747Y-27951402D01*
X62313223Y-27933223D01*
X62331402Y-27916747D01*
X62351107Y-27902133D01*
X62372151Y-27889520D01*
X62394329Y-27879030D01*
X62417429Y-27870765D01*
X62441227Y-27864804D01*
X62465496Y-27861204D01*
X62490000Y-27860000D01*
X63590000Y-27860000D01*
X63614504Y-27861204D01*
X63614504Y-27861204D01*
G37*
D13*
X63040000Y-29360000D03*
D10*
G36*
X14010142Y-23071174D02*
G01*
X14033803Y-23074684D01*
X14057007Y-23080496D01*
X14079529Y-23088554D01*
X14101153Y-23098782D01*
X14121670Y-23111079D01*
X14140883Y-23125329D01*
X14158607Y-23141393D01*
X14174671Y-23159117D01*
X14188921Y-23178330D01*
X14201218Y-23198847D01*
X14211446Y-23220471D01*
X14219504Y-23242993D01*
X14225316Y-23266197D01*
X14228826Y-23289858D01*
X14230000Y-23313750D01*
X14230000Y-23801250D01*
X14228826Y-23825142D01*
X14225316Y-23848803D01*
X14219504Y-23872007D01*
X14211446Y-23894529D01*
X14201218Y-23916153D01*
X14188921Y-23936670D01*
X14174671Y-23955883D01*
X14158607Y-23973607D01*
X14140883Y-23989671D01*
X14121670Y-24003921D01*
X14101153Y-24016218D01*
X14079529Y-24026446D01*
X14057007Y-24034504D01*
X14033803Y-24040316D01*
X14010142Y-24043826D01*
X13986250Y-24045000D01*
X13073750Y-24045000D01*
X13049858Y-24043826D01*
X13026197Y-24040316D01*
X13002993Y-24034504D01*
X12980471Y-24026446D01*
X12958847Y-24016218D01*
X12938330Y-24003921D01*
X12919117Y-23989671D01*
X12901393Y-23973607D01*
X12885329Y-23955883D01*
X12871079Y-23936670D01*
X12858782Y-23916153D01*
X12848554Y-23894529D01*
X12840496Y-23872007D01*
X12834684Y-23848803D01*
X12831174Y-23825142D01*
X12830000Y-23801250D01*
X12830000Y-23313750D01*
X12831174Y-23289858D01*
X12834684Y-23266197D01*
X12840496Y-23242993D01*
X12848554Y-23220471D01*
X12858782Y-23198847D01*
X12871079Y-23178330D01*
X12885329Y-23159117D01*
X12901393Y-23141393D01*
X12919117Y-23125329D01*
X12938330Y-23111079D01*
X12958847Y-23098782D01*
X12980471Y-23088554D01*
X13002993Y-23080496D01*
X13026197Y-23074684D01*
X13049858Y-23071174D01*
X13073750Y-23070000D01*
X13986250Y-23070000D01*
X14010142Y-23071174D01*
X14010142Y-23071174D01*
G37*
D12*
X13530000Y-23557500D03*
D10*
G36*
X14010142Y-21196174D02*
G01*
X14033803Y-21199684D01*
X14057007Y-21205496D01*
X14079529Y-21213554D01*
X14101153Y-21223782D01*
X14121670Y-21236079D01*
X14140883Y-21250329D01*
X14158607Y-21266393D01*
X14174671Y-21284117D01*
X14188921Y-21303330D01*
X14201218Y-21323847D01*
X14211446Y-21345471D01*
X14219504Y-21367993D01*
X14225316Y-21391197D01*
X14228826Y-21414858D01*
X14230000Y-21438750D01*
X14230000Y-21926250D01*
X14228826Y-21950142D01*
X14225316Y-21973803D01*
X14219504Y-21997007D01*
X14211446Y-22019529D01*
X14201218Y-22041153D01*
X14188921Y-22061670D01*
X14174671Y-22080883D01*
X14158607Y-22098607D01*
X14140883Y-22114671D01*
X14121670Y-22128921D01*
X14101153Y-22141218D01*
X14079529Y-22151446D01*
X14057007Y-22159504D01*
X14033803Y-22165316D01*
X14010142Y-22168826D01*
X13986250Y-22170000D01*
X13073750Y-22170000D01*
X13049858Y-22168826D01*
X13026197Y-22165316D01*
X13002993Y-22159504D01*
X12980471Y-22151446D01*
X12958847Y-22141218D01*
X12938330Y-22128921D01*
X12919117Y-22114671D01*
X12901393Y-22098607D01*
X12885329Y-22080883D01*
X12871079Y-22061670D01*
X12858782Y-22041153D01*
X12848554Y-22019529D01*
X12840496Y-21997007D01*
X12834684Y-21973803D01*
X12831174Y-21950142D01*
X12830000Y-21926250D01*
X12830000Y-21438750D01*
X12831174Y-21414858D01*
X12834684Y-21391197D01*
X12840496Y-21367993D01*
X12848554Y-21345471D01*
X12858782Y-21323847D01*
X12871079Y-21303330D01*
X12885329Y-21284117D01*
X12901393Y-21266393D01*
X12919117Y-21250329D01*
X12938330Y-21236079D01*
X12958847Y-21223782D01*
X12980471Y-21213554D01*
X13002993Y-21205496D01*
X13026197Y-21199684D01*
X13049858Y-21196174D01*
X13073750Y-21195000D01*
X13986250Y-21195000D01*
X14010142Y-21196174D01*
X14010142Y-21196174D01*
G37*
D12*
X13530000Y-21682500D03*
D10*
G36*
X27064504Y-15401204D02*
G01*
X27088773Y-15404804D01*
X27112571Y-15410765D01*
X27135671Y-15419030D01*
X27157849Y-15429520D01*
X27178893Y-15442133D01*
X27198598Y-15456747D01*
X27216777Y-15473223D01*
X27233253Y-15491402D01*
X27247867Y-15511107D01*
X27260480Y-15532151D01*
X27270970Y-15554329D01*
X27279235Y-15577429D01*
X27285196Y-15601227D01*
X27288796Y-15625496D01*
X27290000Y-15650000D01*
X27290000Y-16750000D01*
X27288796Y-16774504D01*
X27285196Y-16798773D01*
X27279235Y-16822571D01*
X27270970Y-16845671D01*
X27260480Y-16867849D01*
X27247867Y-16888893D01*
X27233253Y-16908598D01*
X27216777Y-16926777D01*
X27198598Y-16943253D01*
X27178893Y-16957867D01*
X27157849Y-16970480D01*
X27135671Y-16980970D01*
X27112571Y-16989235D01*
X27088773Y-16995196D01*
X27064504Y-16998796D01*
X27040000Y-17000000D01*
X24540000Y-17000000D01*
X24515496Y-16998796D01*
X24491227Y-16995196D01*
X24467429Y-16989235D01*
X24444329Y-16980970D01*
X24422151Y-16970480D01*
X24401107Y-16957867D01*
X24381402Y-16943253D01*
X24363223Y-16926777D01*
X24346747Y-16908598D01*
X24332133Y-16888893D01*
X24319520Y-16867849D01*
X24309030Y-16845671D01*
X24300765Y-16822571D01*
X24294804Y-16798773D01*
X24291204Y-16774504D01*
X24290000Y-16750000D01*
X24290000Y-15650000D01*
X24291204Y-15625496D01*
X24294804Y-15601227D01*
X24300765Y-15577429D01*
X24309030Y-15554329D01*
X24319520Y-15532151D01*
X24332133Y-15511107D01*
X24346747Y-15491402D01*
X24363223Y-15473223D01*
X24381402Y-15456747D01*
X24401107Y-15442133D01*
X24422151Y-15429520D01*
X24444329Y-15419030D01*
X24467429Y-15410765D01*
X24491227Y-15404804D01*
X24515496Y-15401204D01*
X24540000Y-15400000D01*
X27040000Y-15400000D01*
X27064504Y-15401204D01*
X27064504Y-15401204D01*
G37*
D13*
X25790000Y-16200000D03*
D10*
G36*
X22664504Y-15401204D02*
G01*
X22688773Y-15404804D01*
X22712571Y-15410765D01*
X22735671Y-15419030D01*
X22757849Y-15429520D01*
X22778893Y-15442133D01*
X22798598Y-15456747D01*
X22816777Y-15473223D01*
X22833253Y-15491402D01*
X22847867Y-15511107D01*
X22860480Y-15532151D01*
X22870970Y-15554329D01*
X22879235Y-15577429D01*
X22885196Y-15601227D01*
X22888796Y-15625496D01*
X22890000Y-15650000D01*
X22890000Y-16750000D01*
X22888796Y-16774504D01*
X22885196Y-16798773D01*
X22879235Y-16822571D01*
X22870970Y-16845671D01*
X22860480Y-16867849D01*
X22847867Y-16888893D01*
X22833253Y-16908598D01*
X22816777Y-16926777D01*
X22798598Y-16943253D01*
X22778893Y-16957867D01*
X22757849Y-16970480D01*
X22735671Y-16980970D01*
X22712571Y-16989235D01*
X22688773Y-16995196D01*
X22664504Y-16998796D01*
X22640000Y-17000000D01*
X20140000Y-17000000D01*
X20115496Y-16998796D01*
X20091227Y-16995196D01*
X20067429Y-16989235D01*
X20044329Y-16980970D01*
X20022151Y-16970480D01*
X20001107Y-16957867D01*
X19981402Y-16943253D01*
X19963223Y-16926777D01*
X19946747Y-16908598D01*
X19932133Y-16888893D01*
X19919520Y-16867849D01*
X19909030Y-16845671D01*
X19900765Y-16822571D01*
X19894804Y-16798773D01*
X19891204Y-16774504D01*
X19890000Y-16750000D01*
X19890000Y-15650000D01*
X19891204Y-15625496D01*
X19894804Y-15601227D01*
X19900765Y-15577429D01*
X19909030Y-15554329D01*
X19919520Y-15532151D01*
X19932133Y-15511107D01*
X19946747Y-15491402D01*
X19963223Y-15473223D01*
X19981402Y-15456747D01*
X20001107Y-15442133D01*
X20022151Y-15429520D01*
X20044329Y-15419030D01*
X20067429Y-15410765D01*
X20091227Y-15404804D01*
X20115496Y-15401204D01*
X20140000Y-15400000D01*
X22640000Y-15400000D01*
X22664504Y-15401204D01*
X22664504Y-15401204D01*
G37*
D13*
X21390000Y-16200000D03*
D10*
G36*
X19874504Y-20761204D02*
G01*
X19898773Y-20764804D01*
X19922571Y-20770765D01*
X19945671Y-20779030D01*
X19967849Y-20789520D01*
X19988893Y-20802133D01*
X20008598Y-20816747D01*
X20026777Y-20833223D01*
X20043253Y-20851402D01*
X20057867Y-20871107D01*
X20070480Y-20892151D01*
X20080970Y-20914329D01*
X20089235Y-20937429D01*
X20095196Y-20961227D01*
X20098796Y-20985496D01*
X20100000Y-21010000D01*
X20100000Y-23510000D01*
X20098796Y-23534504D01*
X20095196Y-23558773D01*
X20089235Y-23582571D01*
X20080970Y-23605671D01*
X20070480Y-23627849D01*
X20057867Y-23648893D01*
X20043253Y-23668598D01*
X20026777Y-23686777D01*
X20008598Y-23703253D01*
X19988893Y-23717867D01*
X19967849Y-23730480D01*
X19945671Y-23740970D01*
X19922571Y-23749235D01*
X19898773Y-23755196D01*
X19874504Y-23758796D01*
X19850000Y-23760000D01*
X18750000Y-23760000D01*
X18725496Y-23758796D01*
X18701227Y-23755196D01*
X18677429Y-23749235D01*
X18654329Y-23740970D01*
X18632151Y-23730480D01*
X18611107Y-23717867D01*
X18591402Y-23703253D01*
X18573223Y-23686777D01*
X18556747Y-23668598D01*
X18542133Y-23648893D01*
X18529520Y-23627849D01*
X18519030Y-23605671D01*
X18510765Y-23582571D01*
X18504804Y-23558773D01*
X18501204Y-23534504D01*
X18500000Y-23510000D01*
X18500000Y-21010000D01*
X18501204Y-20985496D01*
X18504804Y-20961227D01*
X18510765Y-20937429D01*
X18519030Y-20914329D01*
X18529520Y-20892151D01*
X18542133Y-20871107D01*
X18556747Y-20851402D01*
X18573223Y-20833223D01*
X18591402Y-20816747D01*
X18611107Y-20802133D01*
X18632151Y-20789520D01*
X18654329Y-20779030D01*
X18677429Y-20770765D01*
X18701227Y-20764804D01*
X18725496Y-20761204D01*
X18750000Y-20760000D01*
X19850000Y-20760000D01*
X19874504Y-20761204D01*
X19874504Y-20761204D01*
G37*
D13*
X19300000Y-22260000D03*
D10*
G36*
X19874504Y-25161204D02*
G01*
X19898773Y-25164804D01*
X19922571Y-25170765D01*
X19945671Y-25179030D01*
X19967849Y-25189520D01*
X19988893Y-25202133D01*
X20008598Y-25216747D01*
X20026777Y-25233223D01*
X20043253Y-25251402D01*
X20057867Y-25271107D01*
X20070480Y-25292151D01*
X20080970Y-25314329D01*
X20089235Y-25337429D01*
X20095196Y-25361227D01*
X20098796Y-25385496D01*
X20100000Y-25410000D01*
X20100000Y-27910000D01*
X20098796Y-27934504D01*
X20095196Y-27958773D01*
X20089235Y-27982571D01*
X20080970Y-28005671D01*
X20070480Y-28027849D01*
X20057867Y-28048893D01*
X20043253Y-28068598D01*
X20026777Y-28086777D01*
X20008598Y-28103253D01*
X19988893Y-28117867D01*
X19967849Y-28130480D01*
X19945671Y-28140970D01*
X19922571Y-28149235D01*
X19898773Y-28155196D01*
X19874504Y-28158796D01*
X19850000Y-28160000D01*
X18750000Y-28160000D01*
X18725496Y-28158796D01*
X18701227Y-28155196D01*
X18677429Y-28149235D01*
X18654329Y-28140970D01*
X18632151Y-28130480D01*
X18611107Y-28117867D01*
X18591402Y-28103253D01*
X18573223Y-28086777D01*
X18556747Y-28068598D01*
X18542133Y-28048893D01*
X18529520Y-28027849D01*
X18519030Y-28005671D01*
X18510765Y-27982571D01*
X18504804Y-27958773D01*
X18501204Y-27934504D01*
X18500000Y-27910000D01*
X18500000Y-25410000D01*
X18501204Y-25385496D01*
X18504804Y-25361227D01*
X18510765Y-25337429D01*
X18519030Y-25314329D01*
X18529520Y-25292151D01*
X18542133Y-25271107D01*
X18556747Y-25251402D01*
X18573223Y-25233223D01*
X18591402Y-25216747D01*
X18611107Y-25202133D01*
X18632151Y-25189520D01*
X18654329Y-25179030D01*
X18677429Y-25170765D01*
X18701227Y-25164804D01*
X18725496Y-25161204D01*
X18750000Y-25160000D01*
X19850000Y-25160000D01*
X19874504Y-25161204D01*
X19874504Y-25161204D01*
G37*
D13*
X19300000Y-26660000D03*
D10*
G36*
X9074053Y-9851206D02*
G01*
X9098370Y-9854813D01*
X9122216Y-9860786D01*
X9145362Y-9869068D01*
X9167585Y-9879579D01*
X9188670Y-9892217D01*
X9208416Y-9906861D01*
X9226630Y-9923370D01*
X9243139Y-9941584D01*
X9257783Y-9961330D01*
X9270421Y-9982415D01*
X9280932Y-10004638D01*
X9289214Y-10027784D01*
X9295187Y-10051630D01*
X9298794Y-10075947D01*
X9300000Y-10100500D01*
X9300000Y-12099500D01*
X9298794Y-12124053D01*
X9295187Y-12148370D01*
X9289214Y-12172216D01*
X9280932Y-12195362D01*
X9270421Y-12217585D01*
X9257783Y-12238670D01*
X9243139Y-12258416D01*
X9226630Y-12276630D01*
X9208416Y-12293139D01*
X9188670Y-12307783D01*
X9167585Y-12320421D01*
X9145362Y-12330932D01*
X9122216Y-12339214D01*
X9098370Y-12345187D01*
X9074053Y-12348794D01*
X9049500Y-12350000D01*
X8050500Y-12350000D01*
X8025947Y-12348794D01*
X8001630Y-12345187D01*
X7977784Y-12339214D01*
X7954638Y-12330932D01*
X7932415Y-12320421D01*
X7911330Y-12307783D01*
X7891584Y-12293139D01*
X7873370Y-12276630D01*
X7856861Y-12258416D01*
X7842217Y-12238670D01*
X7829579Y-12217585D01*
X7819068Y-12195362D01*
X7810786Y-12172216D01*
X7804813Y-12148370D01*
X7801206Y-12124053D01*
X7800000Y-12099500D01*
X7800000Y-10100500D01*
X7801206Y-10075947D01*
X7804813Y-10051630D01*
X7810786Y-10027784D01*
X7819068Y-10004638D01*
X7829579Y-9982415D01*
X7842217Y-9961330D01*
X7856861Y-9941584D01*
X7873370Y-9923370D01*
X7891584Y-9906861D01*
X7911330Y-9892217D01*
X7932415Y-9879579D01*
X7954638Y-9869068D01*
X7977784Y-9860786D01*
X8001630Y-9854813D01*
X8025947Y-9851206D01*
X8050500Y-9850000D01*
X9049500Y-9850000D01*
X9074053Y-9851206D01*
X9074053Y-9851206D01*
G37*
D11*
X8550000Y-11100000D03*
D10*
G36*
X15774053Y-9851206D02*
G01*
X15798370Y-9854813D01*
X15822216Y-9860786D01*
X15845362Y-9869068D01*
X15867585Y-9879579D01*
X15888670Y-9892217D01*
X15908416Y-9906861D01*
X15926630Y-9923370D01*
X15943139Y-9941584D01*
X15957783Y-9961330D01*
X15970421Y-9982415D01*
X15980932Y-10004638D01*
X15989214Y-10027784D01*
X15995187Y-10051630D01*
X15998794Y-10075947D01*
X16000000Y-10100500D01*
X16000000Y-12099500D01*
X15998794Y-12124053D01*
X15995187Y-12148370D01*
X15989214Y-12172216D01*
X15980932Y-12195362D01*
X15970421Y-12217585D01*
X15957783Y-12238670D01*
X15943139Y-12258416D01*
X15926630Y-12276630D01*
X15908416Y-12293139D01*
X15888670Y-12307783D01*
X15867585Y-12320421D01*
X15845362Y-12330932D01*
X15822216Y-12339214D01*
X15798370Y-12345187D01*
X15774053Y-12348794D01*
X15749500Y-12350000D01*
X14750500Y-12350000D01*
X14725947Y-12348794D01*
X14701630Y-12345187D01*
X14677784Y-12339214D01*
X14654638Y-12330932D01*
X14632415Y-12320421D01*
X14611330Y-12307783D01*
X14591584Y-12293139D01*
X14573370Y-12276630D01*
X14556861Y-12258416D01*
X14542217Y-12238670D01*
X14529579Y-12217585D01*
X14519068Y-12195362D01*
X14510786Y-12172216D01*
X14504813Y-12148370D01*
X14501206Y-12124053D01*
X14500000Y-12099500D01*
X14500000Y-10100500D01*
X14501206Y-10075947D01*
X14504813Y-10051630D01*
X14510786Y-10027784D01*
X14519068Y-10004638D01*
X14529579Y-9982415D01*
X14542217Y-9961330D01*
X14556861Y-9941584D01*
X14573370Y-9923370D01*
X14591584Y-9906861D01*
X14611330Y-9892217D01*
X14632415Y-9879579D01*
X14654638Y-9869068D01*
X14677784Y-9860786D01*
X14701630Y-9854813D01*
X14725947Y-9851206D01*
X14750500Y-9850000D01*
X15749500Y-9850000D01*
X15774053Y-9851206D01*
X15774053Y-9851206D01*
G37*
D11*
X15250000Y-11100000D03*
D14*
X14863000Y-39399000D03*
X14213000Y-39399000D03*
X13563000Y-39399000D03*
X12913000Y-39399000D03*
X12263000Y-39399000D03*
X11613000Y-39399000D03*
X10963000Y-39399000D03*
X10313000Y-39399000D03*
X9663000Y-39399000D03*
X9013000Y-39399000D03*
X9013000Y-33499000D03*
X9663000Y-33499000D03*
X10313000Y-33499000D03*
X10963000Y-33499000D03*
X11613000Y-33499000D03*
X12263000Y-33499000D03*
X12913000Y-33499000D03*
X13563000Y-33499000D03*
X14213000Y-33499000D03*
X14863000Y-33499000D03*
D10*
G36*
X54582142Y-31723174D02*
G01*
X54605803Y-31726684D01*
X54629007Y-31732496D01*
X54651529Y-31740554D01*
X54673153Y-31750782D01*
X54693670Y-31763079D01*
X54712883Y-31777329D01*
X54730607Y-31793393D01*
X54746671Y-31811117D01*
X54760921Y-31830330D01*
X54773218Y-31850847D01*
X54783446Y-31872471D01*
X54791504Y-31894993D01*
X54797316Y-31918197D01*
X54800826Y-31941858D01*
X54802000Y-31965750D01*
X54802000Y-32453250D01*
X54800826Y-32477142D01*
X54797316Y-32500803D01*
X54791504Y-32524007D01*
X54783446Y-32546529D01*
X54773218Y-32568153D01*
X54760921Y-32588670D01*
X54746671Y-32607883D01*
X54730607Y-32625607D01*
X54712883Y-32641671D01*
X54693670Y-32655921D01*
X54673153Y-32668218D01*
X54651529Y-32678446D01*
X54629007Y-32686504D01*
X54605803Y-32692316D01*
X54582142Y-32695826D01*
X54558250Y-32697000D01*
X53645750Y-32697000D01*
X53621858Y-32695826D01*
X53598197Y-32692316D01*
X53574993Y-32686504D01*
X53552471Y-32678446D01*
X53530847Y-32668218D01*
X53510330Y-32655921D01*
X53491117Y-32641671D01*
X53473393Y-32625607D01*
X53457329Y-32607883D01*
X53443079Y-32588670D01*
X53430782Y-32568153D01*
X53420554Y-32546529D01*
X53412496Y-32524007D01*
X53406684Y-32500803D01*
X53403174Y-32477142D01*
X53402000Y-32453250D01*
X53402000Y-31965750D01*
X53403174Y-31941858D01*
X53406684Y-31918197D01*
X53412496Y-31894993D01*
X53420554Y-31872471D01*
X53430782Y-31850847D01*
X53443079Y-31830330D01*
X53457329Y-31811117D01*
X53473393Y-31793393D01*
X53491117Y-31777329D01*
X53510330Y-31763079D01*
X53530847Y-31750782D01*
X53552471Y-31740554D01*
X53574993Y-31732496D01*
X53598197Y-31726684D01*
X53621858Y-31723174D01*
X53645750Y-31722000D01*
X54558250Y-31722000D01*
X54582142Y-31723174D01*
X54582142Y-31723174D01*
G37*
D12*
X54102000Y-32209500D03*
D10*
G36*
X54582142Y-33598174D02*
G01*
X54605803Y-33601684D01*
X54629007Y-33607496D01*
X54651529Y-33615554D01*
X54673153Y-33625782D01*
X54693670Y-33638079D01*
X54712883Y-33652329D01*
X54730607Y-33668393D01*
X54746671Y-33686117D01*
X54760921Y-33705330D01*
X54773218Y-33725847D01*
X54783446Y-33747471D01*
X54791504Y-33769993D01*
X54797316Y-33793197D01*
X54800826Y-33816858D01*
X54802000Y-33840750D01*
X54802000Y-34328250D01*
X54800826Y-34352142D01*
X54797316Y-34375803D01*
X54791504Y-34399007D01*
X54783446Y-34421529D01*
X54773218Y-34443153D01*
X54760921Y-34463670D01*
X54746671Y-34482883D01*
X54730607Y-34500607D01*
X54712883Y-34516671D01*
X54693670Y-34530921D01*
X54673153Y-34543218D01*
X54651529Y-34553446D01*
X54629007Y-34561504D01*
X54605803Y-34567316D01*
X54582142Y-34570826D01*
X54558250Y-34572000D01*
X53645750Y-34572000D01*
X53621858Y-34570826D01*
X53598197Y-34567316D01*
X53574993Y-34561504D01*
X53552471Y-34553446D01*
X53530847Y-34543218D01*
X53510330Y-34530921D01*
X53491117Y-34516671D01*
X53473393Y-34500607D01*
X53457329Y-34482883D01*
X53443079Y-34463670D01*
X53430782Y-34443153D01*
X53420554Y-34421529D01*
X53412496Y-34399007D01*
X53406684Y-34375803D01*
X53403174Y-34352142D01*
X53402000Y-34328250D01*
X53402000Y-33840750D01*
X53403174Y-33816858D01*
X53406684Y-33793197D01*
X53412496Y-33769993D01*
X53420554Y-33747471D01*
X53430782Y-33725847D01*
X53443079Y-33705330D01*
X53457329Y-33686117D01*
X53473393Y-33668393D01*
X53491117Y-33652329D01*
X53510330Y-33638079D01*
X53530847Y-33625782D01*
X53552471Y-33615554D01*
X53574993Y-33607496D01*
X53598197Y-33601684D01*
X53621858Y-33598174D01*
X53645750Y-33597000D01*
X54558250Y-33597000D01*
X54582142Y-33598174D01*
X54582142Y-33598174D01*
G37*
D12*
X54102000Y-34084500D03*
D10*
G36*
X56995142Y-31723174D02*
G01*
X57018803Y-31726684D01*
X57042007Y-31732496D01*
X57064529Y-31740554D01*
X57086153Y-31750782D01*
X57106670Y-31763079D01*
X57125883Y-31777329D01*
X57143607Y-31793393D01*
X57159671Y-31811117D01*
X57173921Y-31830330D01*
X57186218Y-31850847D01*
X57196446Y-31872471D01*
X57204504Y-31894993D01*
X57210316Y-31918197D01*
X57213826Y-31941858D01*
X57215000Y-31965750D01*
X57215000Y-32453250D01*
X57213826Y-32477142D01*
X57210316Y-32500803D01*
X57204504Y-32524007D01*
X57196446Y-32546529D01*
X57186218Y-32568153D01*
X57173921Y-32588670D01*
X57159671Y-32607883D01*
X57143607Y-32625607D01*
X57125883Y-32641671D01*
X57106670Y-32655921D01*
X57086153Y-32668218D01*
X57064529Y-32678446D01*
X57042007Y-32686504D01*
X57018803Y-32692316D01*
X56995142Y-32695826D01*
X56971250Y-32697000D01*
X56058750Y-32697000D01*
X56034858Y-32695826D01*
X56011197Y-32692316D01*
X55987993Y-32686504D01*
X55965471Y-32678446D01*
X55943847Y-32668218D01*
X55923330Y-32655921D01*
X55904117Y-32641671D01*
X55886393Y-32625607D01*
X55870329Y-32607883D01*
X55856079Y-32588670D01*
X55843782Y-32568153D01*
X55833554Y-32546529D01*
X55825496Y-32524007D01*
X55819684Y-32500803D01*
X55816174Y-32477142D01*
X55815000Y-32453250D01*
X55815000Y-31965750D01*
X55816174Y-31941858D01*
X55819684Y-31918197D01*
X55825496Y-31894993D01*
X55833554Y-31872471D01*
X55843782Y-31850847D01*
X55856079Y-31830330D01*
X55870329Y-31811117D01*
X55886393Y-31793393D01*
X55904117Y-31777329D01*
X55923330Y-31763079D01*
X55943847Y-31750782D01*
X55965471Y-31740554D01*
X55987993Y-31732496D01*
X56011197Y-31726684D01*
X56034858Y-31723174D01*
X56058750Y-31722000D01*
X56971250Y-31722000D01*
X56995142Y-31723174D01*
X56995142Y-31723174D01*
G37*
D12*
X56515000Y-32209500D03*
D10*
G36*
X56995142Y-33598174D02*
G01*
X57018803Y-33601684D01*
X57042007Y-33607496D01*
X57064529Y-33615554D01*
X57086153Y-33625782D01*
X57106670Y-33638079D01*
X57125883Y-33652329D01*
X57143607Y-33668393D01*
X57159671Y-33686117D01*
X57173921Y-33705330D01*
X57186218Y-33725847D01*
X57196446Y-33747471D01*
X57204504Y-33769993D01*
X57210316Y-33793197D01*
X57213826Y-33816858D01*
X57215000Y-33840750D01*
X57215000Y-34328250D01*
X57213826Y-34352142D01*
X57210316Y-34375803D01*
X57204504Y-34399007D01*
X57196446Y-34421529D01*
X57186218Y-34443153D01*
X57173921Y-34463670D01*
X57159671Y-34482883D01*
X57143607Y-34500607D01*
X57125883Y-34516671D01*
X57106670Y-34530921D01*
X57086153Y-34543218D01*
X57064529Y-34553446D01*
X57042007Y-34561504D01*
X57018803Y-34567316D01*
X56995142Y-34570826D01*
X56971250Y-34572000D01*
X56058750Y-34572000D01*
X56034858Y-34570826D01*
X56011197Y-34567316D01*
X55987993Y-34561504D01*
X55965471Y-34553446D01*
X55943847Y-34543218D01*
X55923330Y-34530921D01*
X55904117Y-34516671D01*
X55886393Y-34500607D01*
X55870329Y-34482883D01*
X55856079Y-34463670D01*
X55843782Y-34443153D01*
X55833554Y-34421529D01*
X55825496Y-34399007D01*
X55819684Y-34375803D01*
X55816174Y-34352142D01*
X55815000Y-34328250D01*
X55815000Y-33840750D01*
X55816174Y-33816858D01*
X55819684Y-33793197D01*
X55825496Y-33769993D01*
X55833554Y-33747471D01*
X55843782Y-33725847D01*
X55856079Y-33705330D01*
X55870329Y-33686117D01*
X55886393Y-33668393D01*
X55904117Y-33652329D01*
X55923330Y-33638079D01*
X55943847Y-33625782D01*
X55965471Y-33615554D01*
X55987993Y-33607496D01*
X56011197Y-33601684D01*
X56034858Y-33598174D01*
X56058750Y-33597000D01*
X56971250Y-33597000D01*
X56995142Y-33598174D01*
X56995142Y-33598174D01*
G37*
D12*
X56515000Y-34084500D03*
D10*
G36*
X59408142Y-31723174D02*
G01*
X59431803Y-31726684D01*
X59455007Y-31732496D01*
X59477529Y-31740554D01*
X59499153Y-31750782D01*
X59519670Y-31763079D01*
X59538883Y-31777329D01*
X59556607Y-31793393D01*
X59572671Y-31811117D01*
X59586921Y-31830330D01*
X59599218Y-31850847D01*
X59609446Y-31872471D01*
X59617504Y-31894993D01*
X59623316Y-31918197D01*
X59626826Y-31941858D01*
X59628000Y-31965750D01*
X59628000Y-32453250D01*
X59626826Y-32477142D01*
X59623316Y-32500803D01*
X59617504Y-32524007D01*
X59609446Y-32546529D01*
X59599218Y-32568153D01*
X59586921Y-32588670D01*
X59572671Y-32607883D01*
X59556607Y-32625607D01*
X59538883Y-32641671D01*
X59519670Y-32655921D01*
X59499153Y-32668218D01*
X59477529Y-32678446D01*
X59455007Y-32686504D01*
X59431803Y-32692316D01*
X59408142Y-32695826D01*
X59384250Y-32697000D01*
X58471750Y-32697000D01*
X58447858Y-32695826D01*
X58424197Y-32692316D01*
X58400993Y-32686504D01*
X58378471Y-32678446D01*
X58356847Y-32668218D01*
X58336330Y-32655921D01*
X58317117Y-32641671D01*
X58299393Y-32625607D01*
X58283329Y-32607883D01*
X58269079Y-32588670D01*
X58256782Y-32568153D01*
X58246554Y-32546529D01*
X58238496Y-32524007D01*
X58232684Y-32500803D01*
X58229174Y-32477142D01*
X58228000Y-32453250D01*
X58228000Y-31965750D01*
X58229174Y-31941858D01*
X58232684Y-31918197D01*
X58238496Y-31894993D01*
X58246554Y-31872471D01*
X58256782Y-31850847D01*
X58269079Y-31830330D01*
X58283329Y-31811117D01*
X58299393Y-31793393D01*
X58317117Y-31777329D01*
X58336330Y-31763079D01*
X58356847Y-31750782D01*
X58378471Y-31740554D01*
X58400993Y-31732496D01*
X58424197Y-31726684D01*
X58447858Y-31723174D01*
X58471750Y-31722000D01*
X59384250Y-31722000D01*
X59408142Y-31723174D01*
X59408142Y-31723174D01*
G37*
D12*
X58928000Y-32209500D03*
D10*
G36*
X59408142Y-33598174D02*
G01*
X59431803Y-33601684D01*
X59455007Y-33607496D01*
X59477529Y-33615554D01*
X59499153Y-33625782D01*
X59519670Y-33638079D01*
X59538883Y-33652329D01*
X59556607Y-33668393D01*
X59572671Y-33686117D01*
X59586921Y-33705330D01*
X59599218Y-33725847D01*
X59609446Y-33747471D01*
X59617504Y-33769993D01*
X59623316Y-33793197D01*
X59626826Y-33816858D01*
X59628000Y-33840750D01*
X59628000Y-34328250D01*
X59626826Y-34352142D01*
X59623316Y-34375803D01*
X59617504Y-34399007D01*
X59609446Y-34421529D01*
X59599218Y-34443153D01*
X59586921Y-34463670D01*
X59572671Y-34482883D01*
X59556607Y-34500607D01*
X59538883Y-34516671D01*
X59519670Y-34530921D01*
X59499153Y-34543218D01*
X59477529Y-34553446D01*
X59455007Y-34561504D01*
X59431803Y-34567316D01*
X59408142Y-34570826D01*
X59384250Y-34572000D01*
X58471750Y-34572000D01*
X58447858Y-34570826D01*
X58424197Y-34567316D01*
X58400993Y-34561504D01*
X58378471Y-34553446D01*
X58356847Y-34543218D01*
X58336330Y-34530921D01*
X58317117Y-34516671D01*
X58299393Y-34500607D01*
X58283329Y-34482883D01*
X58269079Y-34463670D01*
X58256782Y-34443153D01*
X58246554Y-34421529D01*
X58238496Y-34399007D01*
X58232684Y-34375803D01*
X58229174Y-34352142D01*
X58228000Y-34328250D01*
X58228000Y-33840750D01*
X58229174Y-33816858D01*
X58232684Y-33793197D01*
X58238496Y-33769993D01*
X58246554Y-33747471D01*
X58256782Y-33725847D01*
X58269079Y-33705330D01*
X58283329Y-33686117D01*
X58299393Y-33668393D01*
X58317117Y-33652329D01*
X58336330Y-33638079D01*
X58356847Y-33625782D01*
X58378471Y-33615554D01*
X58400993Y-33607496D01*
X58424197Y-33601684D01*
X58447858Y-33598174D01*
X58471750Y-33597000D01*
X59384250Y-33597000D01*
X59408142Y-33598174D01*
X59408142Y-33598174D01*
G37*
D12*
X58928000Y-34084500D03*
D10*
G36*
X54774053Y-9851206D02*
G01*
X54798370Y-9854813D01*
X54822216Y-9860786D01*
X54845362Y-9869068D01*
X54867585Y-9879579D01*
X54888670Y-9892217D01*
X54908416Y-9906861D01*
X54926630Y-9923370D01*
X54943139Y-9941584D01*
X54957783Y-9961330D01*
X54970421Y-9982415D01*
X54980932Y-10004638D01*
X54989214Y-10027784D01*
X54995187Y-10051630D01*
X54998794Y-10075947D01*
X55000000Y-10100500D01*
X55000000Y-12099500D01*
X54998794Y-12124053D01*
X54995187Y-12148370D01*
X54989214Y-12172216D01*
X54980932Y-12195362D01*
X54970421Y-12217585D01*
X54957783Y-12238670D01*
X54943139Y-12258416D01*
X54926630Y-12276630D01*
X54908416Y-12293139D01*
X54888670Y-12307783D01*
X54867585Y-12320421D01*
X54845362Y-12330932D01*
X54822216Y-12339214D01*
X54798370Y-12345187D01*
X54774053Y-12348794D01*
X54749500Y-12350000D01*
X53750500Y-12350000D01*
X53725947Y-12348794D01*
X53701630Y-12345187D01*
X53677784Y-12339214D01*
X53654638Y-12330932D01*
X53632415Y-12320421D01*
X53611330Y-12307783D01*
X53591584Y-12293139D01*
X53573370Y-12276630D01*
X53556861Y-12258416D01*
X53542217Y-12238670D01*
X53529579Y-12217585D01*
X53519068Y-12195362D01*
X53510786Y-12172216D01*
X53504813Y-12148370D01*
X53501206Y-12124053D01*
X53500000Y-12099500D01*
X53500000Y-10100500D01*
X53501206Y-10075947D01*
X53504813Y-10051630D01*
X53510786Y-10027784D01*
X53519068Y-10004638D01*
X53529579Y-9982415D01*
X53542217Y-9961330D01*
X53556861Y-9941584D01*
X53573370Y-9923370D01*
X53591584Y-9906861D01*
X53611330Y-9892217D01*
X53632415Y-9879579D01*
X53654638Y-9869068D01*
X53677784Y-9860786D01*
X53701630Y-9854813D01*
X53725947Y-9851206D01*
X53750500Y-9850000D01*
X54749500Y-9850000D01*
X54774053Y-9851206D01*
X54774053Y-9851206D01*
G37*
D11*
X54250000Y-11100000D03*
D10*
G36*
X48074053Y-9851206D02*
G01*
X48098370Y-9854813D01*
X48122216Y-9860786D01*
X48145362Y-9869068D01*
X48167585Y-9879579D01*
X48188670Y-9892217D01*
X48208416Y-9906861D01*
X48226630Y-9923370D01*
X48243139Y-9941584D01*
X48257783Y-9961330D01*
X48270421Y-9982415D01*
X48280932Y-10004638D01*
X48289214Y-10027784D01*
X48295187Y-10051630D01*
X48298794Y-10075947D01*
X48300000Y-10100500D01*
X48300000Y-12099500D01*
X48298794Y-12124053D01*
X48295187Y-12148370D01*
X48289214Y-12172216D01*
X48280932Y-12195362D01*
X48270421Y-12217585D01*
X48257783Y-12238670D01*
X48243139Y-12258416D01*
X48226630Y-12276630D01*
X48208416Y-12293139D01*
X48188670Y-12307783D01*
X48167585Y-12320421D01*
X48145362Y-12330932D01*
X48122216Y-12339214D01*
X48098370Y-12345187D01*
X48074053Y-12348794D01*
X48049500Y-12350000D01*
X47050500Y-12350000D01*
X47025947Y-12348794D01*
X47001630Y-12345187D01*
X46977784Y-12339214D01*
X46954638Y-12330932D01*
X46932415Y-12320421D01*
X46911330Y-12307783D01*
X46891584Y-12293139D01*
X46873370Y-12276630D01*
X46856861Y-12258416D01*
X46842217Y-12238670D01*
X46829579Y-12217585D01*
X46819068Y-12195362D01*
X46810786Y-12172216D01*
X46804813Y-12148370D01*
X46801206Y-12124053D01*
X46800000Y-12099500D01*
X46800000Y-10100500D01*
X46801206Y-10075947D01*
X46804813Y-10051630D01*
X46810786Y-10027784D01*
X46819068Y-10004638D01*
X46829579Y-9982415D01*
X46842217Y-9961330D01*
X46856861Y-9941584D01*
X46873370Y-9923370D01*
X46891584Y-9906861D01*
X46911330Y-9892217D01*
X46932415Y-9879579D01*
X46954638Y-9869068D01*
X46977784Y-9860786D01*
X47001630Y-9854813D01*
X47025947Y-9851206D01*
X47050500Y-9850000D01*
X48049500Y-9850000D01*
X48074053Y-9851206D01*
X48074053Y-9851206D01*
G37*
D11*
X47550000Y-11100000D03*
D10*
G36*
X35074053Y-9851206D02*
G01*
X35098370Y-9854813D01*
X35122216Y-9860786D01*
X35145362Y-9869068D01*
X35167585Y-9879579D01*
X35188670Y-9892217D01*
X35208416Y-9906861D01*
X35226630Y-9923370D01*
X35243139Y-9941584D01*
X35257783Y-9961330D01*
X35270421Y-9982415D01*
X35280932Y-10004638D01*
X35289214Y-10027784D01*
X35295187Y-10051630D01*
X35298794Y-10075947D01*
X35300000Y-10100500D01*
X35300000Y-12099500D01*
X35298794Y-12124053D01*
X35295187Y-12148370D01*
X35289214Y-12172216D01*
X35280932Y-12195362D01*
X35270421Y-12217585D01*
X35257783Y-12238670D01*
X35243139Y-12258416D01*
X35226630Y-12276630D01*
X35208416Y-12293139D01*
X35188670Y-12307783D01*
X35167585Y-12320421D01*
X35145362Y-12330932D01*
X35122216Y-12339214D01*
X35098370Y-12345187D01*
X35074053Y-12348794D01*
X35049500Y-12350000D01*
X34050500Y-12350000D01*
X34025947Y-12348794D01*
X34001630Y-12345187D01*
X33977784Y-12339214D01*
X33954638Y-12330932D01*
X33932415Y-12320421D01*
X33911330Y-12307783D01*
X33891584Y-12293139D01*
X33873370Y-12276630D01*
X33856861Y-12258416D01*
X33842217Y-12238670D01*
X33829579Y-12217585D01*
X33819068Y-12195362D01*
X33810786Y-12172216D01*
X33804813Y-12148370D01*
X33801206Y-12124053D01*
X33800000Y-12099500D01*
X33800000Y-10100500D01*
X33801206Y-10075947D01*
X33804813Y-10051630D01*
X33810786Y-10027784D01*
X33819068Y-10004638D01*
X33829579Y-9982415D01*
X33842217Y-9961330D01*
X33856861Y-9941584D01*
X33873370Y-9923370D01*
X33891584Y-9906861D01*
X33911330Y-9892217D01*
X33932415Y-9879579D01*
X33954638Y-9869068D01*
X33977784Y-9860786D01*
X34001630Y-9854813D01*
X34025947Y-9851206D01*
X34050500Y-9850000D01*
X35049500Y-9850000D01*
X35074053Y-9851206D01*
X35074053Y-9851206D01*
G37*
D11*
X34550000Y-11100000D03*
D10*
G36*
X41774053Y-9851206D02*
G01*
X41798370Y-9854813D01*
X41822216Y-9860786D01*
X41845362Y-9869068D01*
X41867585Y-9879579D01*
X41888670Y-9892217D01*
X41908416Y-9906861D01*
X41926630Y-9923370D01*
X41943139Y-9941584D01*
X41957783Y-9961330D01*
X41970421Y-9982415D01*
X41980932Y-10004638D01*
X41989214Y-10027784D01*
X41995187Y-10051630D01*
X41998794Y-10075947D01*
X42000000Y-10100500D01*
X42000000Y-12099500D01*
X41998794Y-12124053D01*
X41995187Y-12148370D01*
X41989214Y-12172216D01*
X41980932Y-12195362D01*
X41970421Y-12217585D01*
X41957783Y-12238670D01*
X41943139Y-12258416D01*
X41926630Y-12276630D01*
X41908416Y-12293139D01*
X41888670Y-12307783D01*
X41867585Y-12320421D01*
X41845362Y-12330932D01*
X41822216Y-12339214D01*
X41798370Y-12345187D01*
X41774053Y-12348794D01*
X41749500Y-12350000D01*
X40750500Y-12350000D01*
X40725947Y-12348794D01*
X40701630Y-12345187D01*
X40677784Y-12339214D01*
X40654638Y-12330932D01*
X40632415Y-12320421D01*
X40611330Y-12307783D01*
X40591584Y-12293139D01*
X40573370Y-12276630D01*
X40556861Y-12258416D01*
X40542217Y-12238670D01*
X40529579Y-12217585D01*
X40519068Y-12195362D01*
X40510786Y-12172216D01*
X40504813Y-12148370D01*
X40501206Y-12124053D01*
X40500000Y-12099500D01*
X40500000Y-10100500D01*
X40501206Y-10075947D01*
X40504813Y-10051630D01*
X40510786Y-10027784D01*
X40519068Y-10004638D01*
X40529579Y-9982415D01*
X40542217Y-9961330D01*
X40556861Y-9941584D01*
X40573370Y-9923370D01*
X40591584Y-9906861D01*
X40611330Y-9892217D01*
X40632415Y-9879579D01*
X40654638Y-9869068D01*
X40677784Y-9860786D01*
X40701630Y-9854813D01*
X40725947Y-9851206D01*
X40750500Y-9850000D01*
X41749500Y-9850000D01*
X41774053Y-9851206D01*
X41774053Y-9851206D01*
G37*
D11*
X41250000Y-11100000D03*
D10*
G36*
X54582142Y-37027174D02*
G01*
X54605803Y-37030684D01*
X54629007Y-37036496D01*
X54651529Y-37044554D01*
X54673153Y-37054782D01*
X54693670Y-37067079D01*
X54712883Y-37081329D01*
X54730607Y-37097393D01*
X54746671Y-37115117D01*
X54760921Y-37134330D01*
X54773218Y-37154847D01*
X54783446Y-37176471D01*
X54791504Y-37198993D01*
X54797316Y-37222197D01*
X54800826Y-37245858D01*
X54802000Y-37269750D01*
X54802000Y-37757250D01*
X54800826Y-37781142D01*
X54797316Y-37804803D01*
X54791504Y-37828007D01*
X54783446Y-37850529D01*
X54773218Y-37872153D01*
X54760921Y-37892670D01*
X54746671Y-37911883D01*
X54730607Y-37929607D01*
X54712883Y-37945671D01*
X54693670Y-37959921D01*
X54673153Y-37972218D01*
X54651529Y-37982446D01*
X54629007Y-37990504D01*
X54605803Y-37996316D01*
X54582142Y-37999826D01*
X54558250Y-38001000D01*
X53645750Y-38001000D01*
X53621858Y-37999826D01*
X53598197Y-37996316D01*
X53574993Y-37990504D01*
X53552471Y-37982446D01*
X53530847Y-37972218D01*
X53510330Y-37959921D01*
X53491117Y-37945671D01*
X53473393Y-37929607D01*
X53457329Y-37911883D01*
X53443079Y-37892670D01*
X53430782Y-37872153D01*
X53420554Y-37850529D01*
X53412496Y-37828007D01*
X53406684Y-37804803D01*
X53403174Y-37781142D01*
X53402000Y-37757250D01*
X53402000Y-37269750D01*
X53403174Y-37245858D01*
X53406684Y-37222197D01*
X53412496Y-37198993D01*
X53420554Y-37176471D01*
X53430782Y-37154847D01*
X53443079Y-37134330D01*
X53457329Y-37115117D01*
X53473393Y-37097393D01*
X53491117Y-37081329D01*
X53510330Y-37067079D01*
X53530847Y-37054782D01*
X53552471Y-37044554D01*
X53574993Y-37036496D01*
X53598197Y-37030684D01*
X53621858Y-37027174D01*
X53645750Y-37026000D01*
X54558250Y-37026000D01*
X54582142Y-37027174D01*
X54582142Y-37027174D01*
G37*
D12*
X54102000Y-37513500D03*
D10*
G36*
X54582142Y-35152174D02*
G01*
X54605803Y-35155684D01*
X54629007Y-35161496D01*
X54651529Y-35169554D01*
X54673153Y-35179782D01*
X54693670Y-35192079D01*
X54712883Y-35206329D01*
X54730607Y-35222393D01*
X54746671Y-35240117D01*
X54760921Y-35259330D01*
X54773218Y-35279847D01*
X54783446Y-35301471D01*
X54791504Y-35323993D01*
X54797316Y-35347197D01*
X54800826Y-35370858D01*
X54802000Y-35394750D01*
X54802000Y-35882250D01*
X54800826Y-35906142D01*
X54797316Y-35929803D01*
X54791504Y-35953007D01*
X54783446Y-35975529D01*
X54773218Y-35997153D01*
X54760921Y-36017670D01*
X54746671Y-36036883D01*
X54730607Y-36054607D01*
X54712883Y-36070671D01*
X54693670Y-36084921D01*
X54673153Y-36097218D01*
X54651529Y-36107446D01*
X54629007Y-36115504D01*
X54605803Y-36121316D01*
X54582142Y-36124826D01*
X54558250Y-36126000D01*
X53645750Y-36126000D01*
X53621858Y-36124826D01*
X53598197Y-36121316D01*
X53574993Y-36115504D01*
X53552471Y-36107446D01*
X53530847Y-36097218D01*
X53510330Y-36084921D01*
X53491117Y-36070671D01*
X53473393Y-36054607D01*
X53457329Y-36036883D01*
X53443079Y-36017670D01*
X53430782Y-35997153D01*
X53420554Y-35975529D01*
X53412496Y-35953007D01*
X53406684Y-35929803D01*
X53403174Y-35906142D01*
X53402000Y-35882250D01*
X53402000Y-35394750D01*
X53403174Y-35370858D01*
X53406684Y-35347197D01*
X53412496Y-35323993D01*
X53420554Y-35301471D01*
X53430782Y-35279847D01*
X53443079Y-35259330D01*
X53457329Y-35240117D01*
X53473393Y-35222393D01*
X53491117Y-35206329D01*
X53510330Y-35192079D01*
X53530847Y-35179782D01*
X53552471Y-35169554D01*
X53574993Y-35161496D01*
X53598197Y-35155684D01*
X53621858Y-35152174D01*
X53645750Y-35151000D01*
X54558250Y-35151000D01*
X54582142Y-35152174D01*
X54582142Y-35152174D01*
G37*
D12*
X54102000Y-35638500D03*
D10*
G36*
X56995142Y-37027174D02*
G01*
X57018803Y-37030684D01*
X57042007Y-37036496D01*
X57064529Y-37044554D01*
X57086153Y-37054782D01*
X57106670Y-37067079D01*
X57125883Y-37081329D01*
X57143607Y-37097393D01*
X57159671Y-37115117D01*
X57173921Y-37134330D01*
X57186218Y-37154847D01*
X57196446Y-37176471D01*
X57204504Y-37198993D01*
X57210316Y-37222197D01*
X57213826Y-37245858D01*
X57215000Y-37269750D01*
X57215000Y-37757250D01*
X57213826Y-37781142D01*
X57210316Y-37804803D01*
X57204504Y-37828007D01*
X57196446Y-37850529D01*
X57186218Y-37872153D01*
X57173921Y-37892670D01*
X57159671Y-37911883D01*
X57143607Y-37929607D01*
X57125883Y-37945671D01*
X57106670Y-37959921D01*
X57086153Y-37972218D01*
X57064529Y-37982446D01*
X57042007Y-37990504D01*
X57018803Y-37996316D01*
X56995142Y-37999826D01*
X56971250Y-38001000D01*
X56058750Y-38001000D01*
X56034858Y-37999826D01*
X56011197Y-37996316D01*
X55987993Y-37990504D01*
X55965471Y-37982446D01*
X55943847Y-37972218D01*
X55923330Y-37959921D01*
X55904117Y-37945671D01*
X55886393Y-37929607D01*
X55870329Y-37911883D01*
X55856079Y-37892670D01*
X55843782Y-37872153D01*
X55833554Y-37850529D01*
X55825496Y-37828007D01*
X55819684Y-37804803D01*
X55816174Y-37781142D01*
X55815000Y-37757250D01*
X55815000Y-37269750D01*
X55816174Y-37245858D01*
X55819684Y-37222197D01*
X55825496Y-37198993D01*
X55833554Y-37176471D01*
X55843782Y-37154847D01*
X55856079Y-37134330D01*
X55870329Y-37115117D01*
X55886393Y-37097393D01*
X55904117Y-37081329D01*
X55923330Y-37067079D01*
X55943847Y-37054782D01*
X55965471Y-37044554D01*
X55987993Y-37036496D01*
X56011197Y-37030684D01*
X56034858Y-37027174D01*
X56058750Y-37026000D01*
X56971250Y-37026000D01*
X56995142Y-37027174D01*
X56995142Y-37027174D01*
G37*
D12*
X56515000Y-37513500D03*
D10*
G36*
X56995142Y-35152174D02*
G01*
X57018803Y-35155684D01*
X57042007Y-35161496D01*
X57064529Y-35169554D01*
X57086153Y-35179782D01*
X57106670Y-35192079D01*
X57125883Y-35206329D01*
X57143607Y-35222393D01*
X57159671Y-35240117D01*
X57173921Y-35259330D01*
X57186218Y-35279847D01*
X57196446Y-35301471D01*
X57204504Y-35323993D01*
X57210316Y-35347197D01*
X57213826Y-35370858D01*
X57215000Y-35394750D01*
X57215000Y-35882250D01*
X57213826Y-35906142D01*
X57210316Y-35929803D01*
X57204504Y-35953007D01*
X57196446Y-35975529D01*
X57186218Y-35997153D01*
X57173921Y-36017670D01*
X57159671Y-36036883D01*
X57143607Y-36054607D01*
X57125883Y-36070671D01*
X57106670Y-36084921D01*
X57086153Y-36097218D01*
X57064529Y-36107446D01*
X57042007Y-36115504D01*
X57018803Y-36121316D01*
X56995142Y-36124826D01*
X56971250Y-36126000D01*
X56058750Y-36126000D01*
X56034858Y-36124826D01*
X56011197Y-36121316D01*
X55987993Y-36115504D01*
X55965471Y-36107446D01*
X55943847Y-36097218D01*
X55923330Y-36084921D01*
X55904117Y-36070671D01*
X55886393Y-36054607D01*
X55870329Y-36036883D01*
X55856079Y-36017670D01*
X55843782Y-35997153D01*
X55833554Y-35975529D01*
X55825496Y-35953007D01*
X55819684Y-35929803D01*
X55816174Y-35906142D01*
X55815000Y-35882250D01*
X55815000Y-35394750D01*
X55816174Y-35370858D01*
X55819684Y-35347197D01*
X55825496Y-35323993D01*
X55833554Y-35301471D01*
X55843782Y-35279847D01*
X55856079Y-35259330D01*
X55870329Y-35240117D01*
X55886393Y-35222393D01*
X55904117Y-35206329D01*
X55923330Y-35192079D01*
X55943847Y-35179782D01*
X55965471Y-35169554D01*
X55987993Y-35161496D01*
X56011197Y-35155684D01*
X56034858Y-35152174D01*
X56058750Y-35151000D01*
X56971250Y-35151000D01*
X56995142Y-35152174D01*
X56995142Y-35152174D01*
G37*
D12*
X56515000Y-35638500D03*
D10*
G36*
X59408142Y-37027174D02*
G01*
X59431803Y-37030684D01*
X59455007Y-37036496D01*
X59477529Y-37044554D01*
X59499153Y-37054782D01*
X59519670Y-37067079D01*
X59538883Y-37081329D01*
X59556607Y-37097393D01*
X59572671Y-37115117D01*
X59586921Y-37134330D01*
X59599218Y-37154847D01*
X59609446Y-37176471D01*
X59617504Y-37198993D01*
X59623316Y-37222197D01*
X59626826Y-37245858D01*
X59628000Y-37269750D01*
X59628000Y-37757250D01*
X59626826Y-37781142D01*
X59623316Y-37804803D01*
X59617504Y-37828007D01*
X59609446Y-37850529D01*
X59599218Y-37872153D01*
X59586921Y-37892670D01*
X59572671Y-37911883D01*
X59556607Y-37929607D01*
X59538883Y-37945671D01*
X59519670Y-37959921D01*
X59499153Y-37972218D01*
X59477529Y-37982446D01*
X59455007Y-37990504D01*
X59431803Y-37996316D01*
X59408142Y-37999826D01*
X59384250Y-38001000D01*
X58471750Y-38001000D01*
X58447858Y-37999826D01*
X58424197Y-37996316D01*
X58400993Y-37990504D01*
X58378471Y-37982446D01*
X58356847Y-37972218D01*
X58336330Y-37959921D01*
X58317117Y-37945671D01*
X58299393Y-37929607D01*
X58283329Y-37911883D01*
X58269079Y-37892670D01*
X58256782Y-37872153D01*
X58246554Y-37850529D01*
X58238496Y-37828007D01*
X58232684Y-37804803D01*
X58229174Y-37781142D01*
X58228000Y-37757250D01*
X58228000Y-37269750D01*
X58229174Y-37245858D01*
X58232684Y-37222197D01*
X58238496Y-37198993D01*
X58246554Y-37176471D01*
X58256782Y-37154847D01*
X58269079Y-37134330D01*
X58283329Y-37115117D01*
X58299393Y-37097393D01*
X58317117Y-37081329D01*
X58336330Y-37067079D01*
X58356847Y-37054782D01*
X58378471Y-37044554D01*
X58400993Y-37036496D01*
X58424197Y-37030684D01*
X58447858Y-37027174D01*
X58471750Y-37026000D01*
X59384250Y-37026000D01*
X59408142Y-37027174D01*
X59408142Y-37027174D01*
G37*
D12*
X58928000Y-37513500D03*
D10*
G36*
X59408142Y-35152174D02*
G01*
X59431803Y-35155684D01*
X59455007Y-35161496D01*
X59477529Y-35169554D01*
X59499153Y-35179782D01*
X59519670Y-35192079D01*
X59538883Y-35206329D01*
X59556607Y-35222393D01*
X59572671Y-35240117D01*
X59586921Y-35259330D01*
X59599218Y-35279847D01*
X59609446Y-35301471D01*
X59617504Y-35323993D01*
X59623316Y-35347197D01*
X59626826Y-35370858D01*
X59628000Y-35394750D01*
X59628000Y-35882250D01*
X59626826Y-35906142D01*
X59623316Y-35929803D01*
X59617504Y-35953007D01*
X59609446Y-35975529D01*
X59599218Y-35997153D01*
X59586921Y-36017670D01*
X59572671Y-36036883D01*
X59556607Y-36054607D01*
X59538883Y-36070671D01*
X59519670Y-36084921D01*
X59499153Y-36097218D01*
X59477529Y-36107446D01*
X59455007Y-36115504D01*
X59431803Y-36121316D01*
X59408142Y-36124826D01*
X59384250Y-36126000D01*
X58471750Y-36126000D01*
X58447858Y-36124826D01*
X58424197Y-36121316D01*
X58400993Y-36115504D01*
X58378471Y-36107446D01*
X58356847Y-36097218D01*
X58336330Y-36084921D01*
X58317117Y-36070671D01*
X58299393Y-36054607D01*
X58283329Y-36036883D01*
X58269079Y-36017670D01*
X58256782Y-35997153D01*
X58246554Y-35975529D01*
X58238496Y-35953007D01*
X58232684Y-35929803D01*
X58229174Y-35906142D01*
X58228000Y-35882250D01*
X58228000Y-35394750D01*
X58229174Y-35370858D01*
X58232684Y-35347197D01*
X58238496Y-35323993D01*
X58246554Y-35301471D01*
X58256782Y-35279847D01*
X58269079Y-35259330D01*
X58283329Y-35240117D01*
X58299393Y-35222393D01*
X58317117Y-35206329D01*
X58336330Y-35192079D01*
X58356847Y-35179782D01*
X58378471Y-35169554D01*
X58400993Y-35161496D01*
X58424197Y-35155684D01*
X58447858Y-35152174D01*
X58471750Y-35151000D01*
X59384250Y-35151000D01*
X59408142Y-35152174D01*
X59408142Y-35152174D01*
G37*
D12*
X58928000Y-35638500D03*
D10*
G36*
X59786142Y-45148174D02*
G01*
X59809803Y-45151684D01*
X59833007Y-45157496D01*
X59855529Y-45165554D01*
X59877153Y-45175782D01*
X59897670Y-45188079D01*
X59916883Y-45202329D01*
X59934607Y-45218393D01*
X59950671Y-45236117D01*
X59964921Y-45255330D01*
X59977218Y-45275847D01*
X59987446Y-45297471D01*
X59995504Y-45319993D01*
X60001316Y-45343197D01*
X60004826Y-45366858D01*
X60006000Y-45390750D01*
X60006000Y-45878250D01*
X60004826Y-45902142D01*
X60001316Y-45925803D01*
X59995504Y-45949007D01*
X59987446Y-45971529D01*
X59977218Y-45993153D01*
X59964921Y-46013670D01*
X59950671Y-46032883D01*
X59934607Y-46050607D01*
X59916883Y-46066671D01*
X59897670Y-46080921D01*
X59877153Y-46093218D01*
X59855529Y-46103446D01*
X59833007Y-46111504D01*
X59809803Y-46117316D01*
X59786142Y-46120826D01*
X59762250Y-46122000D01*
X58849750Y-46122000D01*
X58825858Y-46120826D01*
X58802197Y-46117316D01*
X58778993Y-46111504D01*
X58756471Y-46103446D01*
X58734847Y-46093218D01*
X58714330Y-46080921D01*
X58695117Y-46066671D01*
X58677393Y-46050607D01*
X58661329Y-46032883D01*
X58647079Y-46013670D01*
X58634782Y-45993153D01*
X58624554Y-45971529D01*
X58616496Y-45949007D01*
X58610684Y-45925803D01*
X58607174Y-45902142D01*
X58606000Y-45878250D01*
X58606000Y-45390750D01*
X58607174Y-45366858D01*
X58610684Y-45343197D01*
X58616496Y-45319993D01*
X58624554Y-45297471D01*
X58634782Y-45275847D01*
X58647079Y-45255330D01*
X58661329Y-45236117D01*
X58677393Y-45218393D01*
X58695117Y-45202329D01*
X58714330Y-45188079D01*
X58734847Y-45175782D01*
X58756471Y-45165554D01*
X58778993Y-45157496D01*
X58802197Y-45151684D01*
X58825858Y-45148174D01*
X58849750Y-45147000D01*
X59762250Y-45147000D01*
X59786142Y-45148174D01*
X59786142Y-45148174D01*
G37*
D12*
X59306000Y-45634500D03*
D10*
G36*
X59786142Y-43273174D02*
G01*
X59809803Y-43276684D01*
X59833007Y-43282496D01*
X59855529Y-43290554D01*
X59877153Y-43300782D01*
X59897670Y-43313079D01*
X59916883Y-43327329D01*
X59934607Y-43343393D01*
X59950671Y-43361117D01*
X59964921Y-43380330D01*
X59977218Y-43400847D01*
X59987446Y-43422471D01*
X59995504Y-43444993D01*
X60001316Y-43468197D01*
X60004826Y-43491858D01*
X60006000Y-43515750D01*
X60006000Y-44003250D01*
X60004826Y-44027142D01*
X60001316Y-44050803D01*
X59995504Y-44074007D01*
X59987446Y-44096529D01*
X59977218Y-44118153D01*
X59964921Y-44138670D01*
X59950671Y-44157883D01*
X59934607Y-44175607D01*
X59916883Y-44191671D01*
X59897670Y-44205921D01*
X59877153Y-44218218D01*
X59855529Y-44228446D01*
X59833007Y-44236504D01*
X59809803Y-44242316D01*
X59786142Y-44245826D01*
X59762250Y-44247000D01*
X58849750Y-44247000D01*
X58825858Y-44245826D01*
X58802197Y-44242316D01*
X58778993Y-44236504D01*
X58756471Y-44228446D01*
X58734847Y-44218218D01*
X58714330Y-44205921D01*
X58695117Y-44191671D01*
X58677393Y-44175607D01*
X58661329Y-44157883D01*
X58647079Y-44138670D01*
X58634782Y-44118153D01*
X58624554Y-44096529D01*
X58616496Y-44074007D01*
X58610684Y-44050803D01*
X58607174Y-44027142D01*
X58606000Y-44003250D01*
X58606000Y-43515750D01*
X58607174Y-43491858D01*
X58610684Y-43468197D01*
X58616496Y-43444993D01*
X58624554Y-43422471D01*
X58634782Y-43400847D01*
X58647079Y-43380330D01*
X58661329Y-43361117D01*
X58677393Y-43343393D01*
X58695117Y-43327329D01*
X58714330Y-43313079D01*
X58734847Y-43300782D01*
X58756471Y-43290554D01*
X58778993Y-43282496D01*
X58802197Y-43276684D01*
X58825858Y-43273174D01*
X58849750Y-43272000D01*
X59762250Y-43272000D01*
X59786142Y-43273174D01*
X59786142Y-43273174D01*
G37*
D12*
X59306000Y-43759500D03*
D10*
G36*
X9751142Y-29310174D02*
G01*
X9774803Y-29313684D01*
X9798007Y-29319496D01*
X9820529Y-29327554D01*
X9842153Y-29337782D01*
X9862670Y-29350079D01*
X9881883Y-29364329D01*
X9899607Y-29380393D01*
X9915671Y-29398117D01*
X9929921Y-29417330D01*
X9942218Y-29437847D01*
X9952446Y-29459471D01*
X9960504Y-29481993D01*
X9966316Y-29505197D01*
X9969826Y-29528858D01*
X9971000Y-29552750D01*
X9971000Y-30040250D01*
X9969826Y-30064142D01*
X9966316Y-30087803D01*
X9960504Y-30111007D01*
X9952446Y-30133529D01*
X9942218Y-30155153D01*
X9929921Y-30175670D01*
X9915671Y-30194883D01*
X9899607Y-30212607D01*
X9881883Y-30228671D01*
X9862670Y-30242921D01*
X9842153Y-30255218D01*
X9820529Y-30265446D01*
X9798007Y-30273504D01*
X9774803Y-30279316D01*
X9751142Y-30282826D01*
X9727250Y-30284000D01*
X8814750Y-30284000D01*
X8790858Y-30282826D01*
X8767197Y-30279316D01*
X8743993Y-30273504D01*
X8721471Y-30265446D01*
X8699847Y-30255218D01*
X8679330Y-30242921D01*
X8660117Y-30228671D01*
X8642393Y-30212607D01*
X8626329Y-30194883D01*
X8612079Y-30175670D01*
X8599782Y-30155153D01*
X8589554Y-30133529D01*
X8581496Y-30111007D01*
X8575684Y-30087803D01*
X8572174Y-30064142D01*
X8571000Y-30040250D01*
X8571000Y-29552750D01*
X8572174Y-29528858D01*
X8575684Y-29505197D01*
X8581496Y-29481993D01*
X8589554Y-29459471D01*
X8599782Y-29437847D01*
X8612079Y-29417330D01*
X8626329Y-29398117D01*
X8642393Y-29380393D01*
X8660117Y-29364329D01*
X8679330Y-29350079D01*
X8699847Y-29337782D01*
X8721471Y-29327554D01*
X8743993Y-29319496D01*
X8767197Y-29313684D01*
X8790858Y-29310174D01*
X8814750Y-29309000D01*
X9727250Y-29309000D01*
X9751142Y-29310174D01*
X9751142Y-29310174D01*
G37*
D12*
X9271000Y-29796500D03*
D10*
G36*
X9751142Y-31185174D02*
G01*
X9774803Y-31188684D01*
X9798007Y-31194496D01*
X9820529Y-31202554D01*
X9842153Y-31212782D01*
X9862670Y-31225079D01*
X9881883Y-31239329D01*
X9899607Y-31255393D01*
X9915671Y-31273117D01*
X9929921Y-31292330D01*
X9942218Y-31312847D01*
X9952446Y-31334471D01*
X9960504Y-31356993D01*
X9966316Y-31380197D01*
X9969826Y-31403858D01*
X9971000Y-31427750D01*
X9971000Y-31915250D01*
X9969826Y-31939142D01*
X9966316Y-31962803D01*
X9960504Y-31986007D01*
X9952446Y-32008529D01*
X9942218Y-32030153D01*
X9929921Y-32050670D01*
X9915671Y-32069883D01*
X9899607Y-32087607D01*
X9881883Y-32103671D01*
X9862670Y-32117921D01*
X9842153Y-32130218D01*
X9820529Y-32140446D01*
X9798007Y-32148504D01*
X9774803Y-32154316D01*
X9751142Y-32157826D01*
X9727250Y-32159000D01*
X8814750Y-32159000D01*
X8790858Y-32157826D01*
X8767197Y-32154316D01*
X8743993Y-32148504D01*
X8721471Y-32140446D01*
X8699847Y-32130218D01*
X8679330Y-32117921D01*
X8660117Y-32103671D01*
X8642393Y-32087607D01*
X8626329Y-32069883D01*
X8612079Y-32050670D01*
X8599782Y-32030153D01*
X8589554Y-32008529D01*
X8581496Y-31986007D01*
X8575684Y-31962803D01*
X8572174Y-31939142D01*
X8571000Y-31915250D01*
X8571000Y-31427750D01*
X8572174Y-31403858D01*
X8575684Y-31380197D01*
X8581496Y-31356993D01*
X8589554Y-31334471D01*
X8599782Y-31312847D01*
X8612079Y-31292330D01*
X8626329Y-31273117D01*
X8642393Y-31255393D01*
X8660117Y-31239329D01*
X8679330Y-31225079D01*
X8699847Y-31212782D01*
X8721471Y-31202554D01*
X8743993Y-31194496D01*
X8767197Y-31188684D01*
X8790858Y-31185174D01*
X8814750Y-31184000D01*
X9727250Y-31184000D01*
X9751142Y-31185174D01*
X9751142Y-31185174D01*
G37*
D12*
X9271000Y-31671500D03*
D10*
G36*
X11783142Y-29310174D02*
G01*
X11806803Y-29313684D01*
X11830007Y-29319496D01*
X11852529Y-29327554D01*
X11874153Y-29337782D01*
X11894670Y-29350079D01*
X11913883Y-29364329D01*
X11931607Y-29380393D01*
X11947671Y-29398117D01*
X11961921Y-29417330D01*
X11974218Y-29437847D01*
X11984446Y-29459471D01*
X11992504Y-29481993D01*
X11998316Y-29505197D01*
X12001826Y-29528858D01*
X12003000Y-29552750D01*
X12003000Y-30040250D01*
X12001826Y-30064142D01*
X11998316Y-30087803D01*
X11992504Y-30111007D01*
X11984446Y-30133529D01*
X11974218Y-30155153D01*
X11961921Y-30175670D01*
X11947671Y-30194883D01*
X11931607Y-30212607D01*
X11913883Y-30228671D01*
X11894670Y-30242921D01*
X11874153Y-30255218D01*
X11852529Y-30265446D01*
X11830007Y-30273504D01*
X11806803Y-30279316D01*
X11783142Y-30282826D01*
X11759250Y-30284000D01*
X10846750Y-30284000D01*
X10822858Y-30282826D01*
X10799197Y-30279316D01*
X10775993Y-30273504D01*
X10753471Y-30265446D01*
X10731847Y-30255218D01*
X10711330Y-30242921D01*
X10692117Y-30228671D01*
X10674393Y-30212607D01*
X10658329Y-30194883D01*
X10644079Y-30175670D01*
X10631782Y-30155153D01*
X10621554Y-30133529D01*
X10613496Y-30111007D01*
X10607684Y-30087803D01*
X10604174Y-30064142D01*
X10603000Y-30040250D01*
X10603000Y-29552750D01*
X10604174Y-29528858D01*
X10607684Y-29505197D01*
X10613496Y-29481993D01*
X10621554Y-29459471D01*
X10631782Y-29437847D01*
X10644079Y-29417330D01*
X10658329Y-29398117D01*
X10674393Y-29380393D01*
X10692117Y-29364329D01*
X10711330Y-29350079D01*
X10731847Y-29337782D01*
X10753471Y-29327554D01*
X10775993Y-29319496D01*
X10799197Y-29313684D01*
X10822858Y-29310174D01*
X10846750Y-29309000D01*
X11759250Y-29309000D01*
X11783142Y-29310174D01*
X11783142Y-29310174D01*
G37*
D12*
X11303000Y-29796500D03*
D10*
G36*
X11783142Y-31185174D02*
G01*
X11806803Y-31188684D01*
X11830007Y-31194496D01*
X11852529Y-31202554D01*
X11874153Y-31212782D01*
X11894670Y-31225079D01*
X11913883Y-31239329D01*
X11931607Y-31255393D01*
X11947671Y-31273117D01*
X11961921Y-31292330D01*
X11974218Y-31312847D01*
X11984446Y-31334471D01*
X11992504Y-31356993D01*
X11998316Y-31380197D01*
X12001826Y-31403858D01*
X12003000Y-31427750D01*
X12003000Y-31915250D01*
X12001826Y-31939142D01*
X11998316Y-31962803D01*
X11992504Y-31986007D01*
X11984446Y-32008529D01*
X11974218Y-32030153D01*
X11961921Y-32050670D01*
X11947671Y-32069883D01*
X11931607Y-32087607D01*
X11913883Y-32103671D01*
X11894670Y-32117921D01*
X11874153Y-32130218D01*
X11852529Y-32140446D01*
X11830007Y-32148504D01*
X11806803Y-32154316D01*
X11783142Y-32157826D01*
X11759250Y-32159000D01*
X10846750Y-32159000D01*
X10822858Y-32157826D01*
X10799197Y-32154316D01*
X10775993Y-32148504D01*
X10753471Y-32140446D01*
X10731847Y-32130218D01*
X10711330Y-32117921D01*
X10692117Y-32103671D01*
X10674393Y-32087607D01*
X10658329Y-32069883D01*
X10644079Y-32050670D01*
X10631782Y-32030153D01*
X10621554Y-32008529D01*
X10613496Y-31986007D01*
X10607684Y-31962803D01*
X10604174Y-31939142D01*
X10603000Y-31915250D01*
X10603000Y-31427750D01*
X10604174Y-31403858D01*
X10607684Y-31380197D01*
X10613496Y-31356993D01*
X10621554Y-31334471D01*
X10631782Y-31312847D01*
X10644079Y-31292330D01*
X10658329Y-31273117D01*
X10674393Y-31255393D01*
X10692117Y-31239329D01*
X10711330Y-31225079D01*
X10731847Y-31212782D01*
X10753471Y-31202554D01*
X10775993Y-31194496D01*
X10799197Y-31188684D01*
X10822858Y-31185174D01*
X10846750Y-31184000D01*
X11759250Y-31184000D01*
X11783142Y-31185174D01*
X11783142Y-31185174D01*
G37*
D12*
X11303000Y-31671500D03*
D10*
G36*
X13815142Y-29310174D02*
G01*
X13838803Y-29313684D01*
X13862007Y-29319496D01*
X13884529Y-29327554D01*
X13906153Y-29337782D01*
X13926670Y-29350079D01*
X13945883Y-29364329D01*
X13963607Y-29380393D01*
X13979671Y-29398117D01*
X13993921Y-29417330D01*
X14006218Y-29437847D01*
X14016446Y-29459471D01*
X14024504Y-29481993D01*
X14030316Y-29505197D01*
X14033826Y-29528858D01*
X14035000Y-29552750D01*
X14035000Y-30040250D01*
X14033826Y-30064142D01*
X14030316Y-30087803D01*
X14024504Y-30111007D01*
X14016446Y-30133529D01*
X14006218Y-30155153D01*
X13993921Y-30175670D01*
X13979671Y-30194883D01*
X13963607Y-30212607D01*
X13945883Y-30228671D01*
X13926670Y-30242921D01*
X13906153Y-30255218D01*
X13884529Y-30265446D01*
X13862007Y-30273504D01*
X13838803Y-30279316D01*
X13815142Y-30282826D01*
X13791250Y-30284000D01*
X12878750Y-30284000D01*
X12854858Y-30282826D01*
X12831197Y-30279316D01*
X12807993Y-30273504D01*
X12785471Y-30265446D01*
X12763847Y-30255218D01*
X12743330Y-30242921D01*
X12724117Y-30228671D01*
X12706393Y-30212607D01*
X12690329Y-30194883D01*
X12676079Y-30175670D01*
X12663782Y-30155153D01*
X12653554Y-30133529D01*
X12645496Y-30111007D01*
X12639684Y-30087803D01*
X12636174Y-30064142D01*
X12635000Y-30040250D01*
X12635000Y-29552750D01*
X12636174Y-29528858D01*
X12639684Y-29505197D01*
X12645496Y-29481993D01*
X12653554Y-29459471D01*
X12663782Y-29437847D01*
X12676079Y-29417330D01*
X12690329Y-29398117D01*
X12706393Y-29380393D01*
X12724117Y-29364329D01*
X12743330Y-29350079D01*
X12763847Y-29337782D01*
X12785471Y-29327554D01*
X12807993Y-29319496D01*
X12831197Y-29313684D01*
X12854858Y-29310174D01*
X12878750Y-29309000D01*
X13791250Y-29309000D01*
X13815142Y-29310174D01*
X13815142Y-29310174D01*
G37*
D12*
X13335000Y-29796500D03*
D10*
G36*
X13815142Y-31185174D02*
G01*
X13838803Y-31188684D01*
X13862007Y-31194496D01*
X13884529Y-31202554D01*
X13906153Y-31212782D01*
X13926670Y-31225079D01*
X13945883Y-31239329D01*
X13963607Y-31255393D01*
X13979671Y-31273117D01*
X13993921Y-31292330D01*
X14006218Y-31312847D01*
X14016446Y-31334471D01*
X14024504Y-31356993D01*
X14030316Y-31380197D01*
X14033826Y-31403858D01*
X14035000Y-31427750D01*
X14035000Y-31915250D01*
X14033826Y-31939142D01*
X14030316Y-31962803D01*
X14024504Y-31986007D01*
X14016446Y-32008529D01*
X14006218Y-32030153D01*
X13993921Y-32050670D01*
X13979671Y-32069883D01*
X13963607Y-32087607D01*
X13945883Y-32103671D01*
X13926670Y-32117921D01*
X13906153Y-32130218D01*
X13884529Y-32140446D01*
X13862007Y-32148504D01*
X13838803Y-32154316D01*
X13815142Y-32157826D01*
X13791250Y-32159000D01*
X12878750Y-32159000D01*
X12854858Y-32157826D01*
X12831197Y-32154316D01*
X12807993Y-32148504D01*
X12785471Y-32140446D01*
X12763847Y-32130218D01*
X12743330Y-32117921D01*
X12724117Y-32103671D01*
X12706393Y-32087607D01*
X12690329Y-32069883D01*
X12676079Y-32050670D01*
X12663782Y-32030153D01*
X12653554Y-32008529D01*
X12645496Y-31986007D01*
X12639684Y-31962803D01*
X12636174Y-31939142D01*
X12635000Y-31915250D01*
X12635000Y-31427750D01*
X12636174Y-31403858D01*
X12639684Y-31380197D01*
X12645496Y-31356993D01*
X12653554Y-31334471D01*
X12663782Y-31312847D01*
X12676079Y-31292330D01*
X12690329Y-31273117D01*
X12706393Y-31255393D01*
X12724117Y-31239329D01*
X12743330Y-31225079D01*
X12763847Y-31212782D01*
X12785471Y-31202554D01*
X12807993Y-31194496D01*
X12831197Y-31188684D01*
X12854858Y-31185174D01*
X12878750Y-31184000D01*
X13791250Y-31184000D01*
X13815142Y-31185174D01*
X13815142Y-31185174D01*
G37*
D12*
X13335000Y-31671500D03*
D10*
G36*
X15847142Y-29310174D02*
G01*
X15870803Y-29313684D01*
X15894007Y-29319496D01*
X15916529Y-29327554D01*
X15938153Y-29337782D01*
X15958670Y-29350079D01*
X15977883Y-29364329D01*
X15995607Y-29380393D01*
X16011671Y-29398117D01*
X16025921Y-29417330D01*
X16038218Y-29437847D01*
X16048446Y-29459471D01*
X16056504Y-29481993D01*
X16062316Y-29505197D01*
X16065826Y-29528858D01*
X16067000Y-29552750D01*
X16067000Y-30040250D01*
X16065826Y-30064142D01*
X16062316Y-30087803D01*
X16056504Y-30111007D01*
X16048446Y-30133529D01*
X16038218Y-30155153D01*
X16025921Y-30175670D01*
X16011671Y-30194883D01*
X15995607Y-30212607D01*
X15977883Y-30228671D01*
X15958670Y-30242921D01*
X15938153Y-30255218D01*
X15916529Y-30265446D01*
X15894007Y-30273504D01*
X15870803Y-30279316D01*
X15847142Y-30282826D01*
X15823250Y-30284000D01*
X14910750Y-30284000D01*
X14886858Y-30282826D01*
X14863197Y-30279316D01*
X14839993Y-30273504D01*
X14817471Y-30265446D01*
X14795847Y-30255218D01*
X14775330Y-30242921D01*
X14756117Y-30228671D01*
X14738393Y-30212607D01*
X14722329Y-30194883D01*
X14708079Y-30175670D01*
X14695782Y-30155153D01*
X14685554Y-30133529D01*
X14677496Y-30111007D01*
X14671684Y-30087803D01*
X14668174Y-30064142D01*
X14667000Y-30040250D01*
X14667000Y-29552750D01*
X14668174Y-29528858D01*
X14671684Y-29505197D01*
X14677496Y-29481993D01*
X14685554Y-29459471D01*
X14695782Y-29437847D01*
X14708079Y-29417330D01*
X14722329Y-29398117D01*
X14738393Y-29380393D01*
X14756117Y-29364329D01*
X14775330Y-29350079D01*
X14795847Y-29337782D01*
X14817471Y-29327554D01*
X14839993Y-29319496D01*
X14863197Y-29313684D01*
X14886858Y-29310174D01*
X14910750Y-29309000D01*
X15823250Y-29309000D01*
X15847142Y-29310174D01*
X15847142Y-29310174D01*
G37*
D12*
X15367000Y-29796500D03*
D10*
G36*
X15847142Y-31185174D02*
G01*
X15870803Y-31188684D01*
X15894007Y-31194496D01*
X15916529Y-31202554D01*
X15938153Y-31212782D01*
X15958670Y-31225079D01*
X15977883Y-31239329D01*
X15995607Y-31255393D01*
X16011671Y-31273117D01*
X16025921Y-31292330D01*
X16038218Y-31312847D01*
X16048446Y-31334471D01*
X16056504Y-31356993D01*
X16062316Y-31380197D01*
X16065826Y-31403858D01*
X16067000Y-31427750D01*
X16067000Y-31915250D01*
X16065826Y-31939142D01*
X16062316Y-31962803D01*
X16056504Y-31986007D01*
X16048446Y-32008529D01*
X16038218Y-32030153D01*
X16025921Y-32050670D01*
X16011671Y-32069883D01*
X15995607Y-32087607D01*
X15977883Y-32103671D01*
X15958670Y-32117921D01*
X15938153Y-32130218D01*
X15916529Y-32140446D01*
X15894007Y-32148504D01*
X15870803Y-32154316D01*
X15847142Y-32157826D01*
X15823250Y-32159000D01*
X14910750Y-32159000D01*
X14886858Y-32157826D01*
X14863197Y-32154316D01*
X14839993Y-32148504D01*
X14817471Y-32140446D01*
X14795847Y-32130218D01*
X14775330Y-32117921D01*
X14756117Y-32103671D01*
X14738393Y-32087607D01*
X14722329Y-32069883D01*
X14708079Y-32050670D01*
X14695782Y-32030153D01*
X14685554Y-32008529D01*
X14677496Y-31986007D01*
X14671684Y-31962803D01*
X14668174Y-31939142D01*
X14667000Y-31915250D01*
X14667000Y-31427750D01*
X14668174Y-31403858D01*
X14671684Y-31380197D01*
X14677496Y-31356993D01*
X14685554Y-31334471D01*
X14695782Y-31312847D01*
X14708079Y-31292330D01*
X14722329Y-31273117D01*
X14738393Y-31255393D01*
X14756117Y-31239329D01*
X14775330Y-31225079D01*
X14795847Y-31212782D01*
X14817471Y-31202554D01*
X14839993Y-31194496D01*
X14863197Y-31188684D01*
X14886858Y-31185174D01*
X14910750Y-31184000D01*
X15823250Y-31184000D01*
X15847142Y-31185174D01*
X15847142Y-31185174D01*
G37*
D12*
X15367000Y-31671500D03*
D10*
G36*
X59786142Y-48625674D02*
G01*
X59809803Y-48629184D01*
X59833007Y-48634996D01*
X59855529Y-48643054D01*
X59877153Y-48653282D01*
X59897670Y-48665579D01*
X59916883Y-48679829D01*
X59934607Y-48695893D01*
X59950671Y-48713617D01*
X59964921Y-48732830D01*
X59977218Y-48753347D01*
X59987446Y-48774971D01*
X59995504Y-48797493D01*
X60001316Y-48820697D01*
X60004826Y-48844358D01*
X60006000Y-48868250D01*
X60006000Y-49355750D01*
X60004826Y-49379642D01*
X60001316Y-49403303D01*
X59995504Y-49426507D01*
X59987446Y-49449029D01*
X59977218Y-49470653D01*
X59964921Y-49491170D01*
X59950671Y-49510383D01*
X59934607Y-49528107D01*
X59916883Y-49544171D01*
X59897670Y-49558421D01*
X59877153Y-49570718D01*
X59855529Y-49580946D01*
X59833007Y-49589004D01*
X59809803Y-49594816D01*
X59786142Y-49598326D01*
X59762250Y-49599500D01*
X58849750Y-49599500D01*
X58825858Y-49598326D01*
X58802197Y-49594816D01*
X58778993Y-49589004D01*
X58756471Y-49580946D01*
X58734847Y-49570718D01*
X58714330Y-49558421D01*
X58695117Y-49544171D01*
X58677393Y-49528107D01*
X58661329Y-49510383D01*
X58647079Y-49491170D01*
X58634782Y-49470653D01*
X58624554Y-49449029D01*
X58616496Y-49426507D01*
X58610684Y-49403303D01*
X58607174Y-49379642D01*
X58606000Y-49355750D01*
X58606000Y-48868250D01*
X58607174Y-48844358D01*
X58610684Y-48820697D01*
X58616496Y-48797493D01*
X58624554Y-48774971D01*
X58634782Y-48753347D01*
X58647079Y-48732830D01*
X58661329Y-48713617D01*
X58677393Y-48695893D01*
X58695117Y-48679829D01*
X58714330Y-48665579D01*
X58734847Y-48653282D01*
X58756471Y-48643054D01*
X58778993Y-48634996D01*
X58802197Y-48629184D01*
X58825858Y-48625674D01*
X58849750Y-48624500D01*
X59762250Y-48624500D01*
X59786142Y-48625674D01*
X59786142Y-48625674D01*
G37*
D12*
X59306000Y-49112000D03*
D10*
G36*
X59786142Y-46750674D02*
G01*
X59809803Y-46754184D01*
X59833007Y-46759996D01*
X59855529Y-46768054D01*
X59877153Y-46778282D01*
X59897670Y-46790579D01*
X59916883Y-46804829D01*
X59934607Y-46820893D01*
X59950671Y-46838617D01*
X59964921Y-46857830D01*
X59977218Y-46878347D01*
X59987446Y-46899971D01*
X59995504Y-46922493D01*
X60001316Y-46945697D01*
X60004826Y-46969358D01*
X60006000Y-46993250D01*
X60006000Y-47480750D01*
X60004826Y-47504642D01*
X60001316Y-47528303D01*
X59995504Y-47551507D01*
X59987446Y-47574029D01*
X59977218Y-47595653D01*
X59964921Y-47616170D01*
X59950671Y-47635383D01*
X59934607Y-47653107D01*
X59916883Y-47669171D01*
X59897670Y-47683421D01*
X59877153Y-47695718D01*
X59855529Y-47705946D01*
X59833007Y-47714004D01*
X59809803Y-47719816D01*
X59786142Y-47723326D01*
X59762250Y-47724500D01*
X58849750Y-47724500D01*
X58825858Y-47723326D01*
X58802197Y-47719816D01*
X58778993Y-47714004D01*
X58756471Y-47705946D01*
X58734847Y-47695718D01*
X58714330Y-47683421D01*
X58695117Y-47669171D01*
X58677393Y-47653107D01*
X58661329Y-47635383D01*
X58647079Y-47616170D01*
X58634782Y-47595653D01*
X58624554Y-47574029D01*
X58616496Y-47551507D01*
X58610684Y-47528303D01*
X58607174Y-47504642D01*
X58606000Y-47480750D01*
X58606000Y-46993250D01*
X58607174Y-46969358D01*
X58610684Y-46945697D01*
X58616496Y-46922493D01*
X58624554Y-46899971D01*
X58634782Y-46878347D01*
X58647079Y-46857830D01*
X58661329Y-46838617D01*
X58677393Y-46820893D01*
X58695117Y-46804829D01*
X58714330Y-46790579D01*
X58734847Y-46778282D01*
X58756471Y-46768054D01*
X58778993Y-46759996D01*
X58802197Y-46754184D01*
X58825858Y-46750674D01*
X58849750Y-46749500D01*
X59762250Y-46749500D01*
X59786142Y-46750674D01*
X59786142Y-46750674D01*
G37*
D12*
X59306000Y-47237000D03*
D10*
G36*
X57754142Y-45148174D02*
G01*
X57777803Y-45151684D01*
X57801007Y-45157496D01*
X57823529Y-45165554D01*
X57845153Y-45175782D01*
X57865670Y-45188079D01*
X57884883Y-45202329D01*
X57902607Y-45218393D01*
X57918671Y-45236117D01*
X57932921Y-45255330D01*
X57945218Y-45275847D01*
X57955446Y-45297471D01*
X57963504Y-45319993D01*
X57969316Y-45343197D01*
X57972826Y-45366858D01*
X57974000Y-45390750D01*
X57974000Y-45878250D01*
X57972826Y-45902142D01*
X57969316Y-45925803D01*
X57963504Y-45949007D01*
X57955446Y-45971529D01*
X57945218Y-45993153D01*
X57932921Y-46013670D01*
X57918671Y-46032883D01*
X57902607Y-46050607D01*
X57884883Y-46066671D01*
X57865670Y-46080921D01*
X57845153Y-46093218D01*
X57823529Y-46103446D01*
X57801007Y-46111504D01*
X57777803Y-46117316D01*
X57754142Y-46120826D01*
X57730250Y-46122000D01*
X56817750Y-46122000D01*
X56793858Y-46120826D01*
X56770197Y-46117316D01*
X56746993Y-46111504D01*
X56724471Y-46103446D01*
X56702847Y-46093218D01*
X56682330Y-46080921D01*
X56663117Y-46066671D01*
X56645393Y-46050607D01*
X56629329Y-46032883D01*
X56615079Y-46013670D01*
X56602782Y-45993153D01*
X56592554Y-45971529D01*
X56584496Y-45949007D01*
X56578684Y-45925803D01*
X56575174Y-45902142D01*
X56574000Y-45878250D01*
X56574000Y-45390750D01*
X56575174Y-45366858D01*
X56578684Y-45343197D01*
X56584496Y-45319993D01*
X56592554Y-45297471D01*
X56602782Y-45275847D01*
X56615079Y-45255330D01*
X56629329Y-45236117D01*
X56645393Y-45218393D01*
X56663117Y-45202329D01*
X56682330Y-45188079D01*
X56702847Y-45175782D01*
X56724471Y-45165554D01*
X56746993Y-45157496D01*
X56770197Y-45151684D01*
X56793858Y-45148174D01*
X56817750Y-45147000D01*
X57730250Y-45147000D01*
X57754142Y-45148174D01*
X57754142Y-45148174D01*
G37*
D12*
X57274000Y-45634500D03*
D10*
G36*
X57754142Y-43273174D02*
G01*
X57777803Y-43276684D01*
X57801007Y-43282496D01*
X57823529Y-43290554D01*
X57845153Y-43300782D01*
X57865670Y-43313079D01*
X57884883Y-43327329D01*
X57902607Y-43343393D01*
X57918671Y-43361117D01*
X57932921Y-43380330D01*
X57945218Y-43400847D01*
X57955446Y-43422471D01*
X57963504Y-43444993D01*
X57969316Y-43468197D01*
X57972826Y-43491858D01*
X57974000Y-43515750D01*
X57974000Y-44003250D01*
X57972826Y-44027142D01*
X57969316Y-44050803D01*
X57963504Y-44074007D01*
X57955446Y-44096529D01*
X57945218Y-44118153D01*
X57932921Y-44138670D01*
X57918671Y-44157883D01*
X57902607Y-44175607D01*
X57884883Y-44191671D01*
X57865670Y-44205921D01*
X57845153Y-44218218D01*
X57823529Y-44228446D01*
X57801007Y-44236504D01*
X57777803Y-44242316D01*
X57754142Y-44245826D01*
X57730250Y-44247000D01*
X56817750Y-44247000D01*
X56793858Y-44245826D01*
X56770197Y-44242316D01*
X56746993Y-44236504D01*
X56724471Y-44228446D01*
X56702847Y-44218218D01*
X56682330Y-44205921D01*
X56663117Y-44191671D01*
X56645393Y-44175607D01*
X56629329Y-44157883D01*
X56615079Y-44138670D01*
X56602782Y-44118153D01*
X56592554Y-44096529D01*
X56584496Y-44074007D01*
X56578684Y-44050803D01*
X56575174Y-44027142D01*
X56574000Y-44003250D01*
X56574000Y-43515750D01*
X56575174Y-43491858D01*
X56578684Y-43468197D01*
X56584496Y-43444993D01*
X56592554Y-43422471D01*
X56602782Y-43400847D01*
X56615079Y-43380330D01*
X56629329Y-43361117D01*
X56645393Y-43343393D01*
X56663117Y-43327329D01*
X56682330Y-43313079D01*
X56702847Y-43300782D01*
X56724471Y-43290554D01*
X56746993Y-43282496D01*
X56770197Y-43276684D01*
X56793858Y-43273174D01*
X56817750Y-43272000D01*
X57730250Y-43272000D01*
X57754142Y-43273174D01*
X57754142Y-43273174D01*
G37*
D12*
X57274000Y-43759500D03*
D15*
X57274000Y-49757000D03*
X57274000Y-47257000D03*
D10*
G36*
X9751142Y-25881174D02*
G01*
X9774803Y-25884684D01*
X9798007Y-25890496D01*
X9820529Y-25898554D01*
X9842153Y-25908782D01*
X9862670Y-25921079D01*
X9881883Y-25935329D01*
X9899607Y-25951393D01*
X9915671Y-25969117D01*
X9929921Y-25988330D01*
X9942218Y-26008847D01*
X9952446Y-26030471D01*
X9960504Y-26052993D01*
X9966316Y-26076197D01*
X9969826Y-26099858D01*
X9971000Y-26123750D01*
X9971000Y-26611250D01*
X9969826Y-26635142D01*
X9966316Y-26658803D01*
X9960504Y-26682007D01*
X9952446Y-26704529D01*
X9942218Y-26726153D01*
X9929921Y-26746670D01*
X9915671Y-26765883D01*
X9899607Y-26783607D01*
X9881883Y-26799671D01*
X9862670Y-26813921D01*
X9842153Y-26826218D01*
X9820529Y-26836446D01*
X9798007Y-26844504D01*
X9774803Y-26850316D01*
X9751142Y-26853826D01*
X9727250Y-26855000D01*
X8814750Y-26855000D01*
X8790858Y-26853826D01*
X8767197Y-26850316D01*
X8743993Y-26844504D01*
X8721471Y-26836446D01*
X8699847Y-26826218D01*
X8679330Y-26813921D01*
X8660117Y-26799671D01*
X8642393Y-26783607D01*
X8626329Y-26765883D01*
X8612079Y-26746670D01*
X8599782Y-26726153D01*
X8589554Y-26704529D01*
X8581496Y-26682007D01*
X8575684Y-26658803D01*
X8572174Y-26635142D01*
X8571000Y-26611250D01*
X8571000Y-26123750D01*
X8572174Y-26099858D01*
X8575684Y-26076197D01*
X8581496Y-26052993D01*
X8589554Y-26030471D01*
X8599782Y-26008847D01*
X8612079Y-25988330D01*
X8626329Y-25969117D01*
X8642393Y-25951393D01*
X8660117Y-25935329D01*
X8679330Y-25921079D01*
X8699847Y-25908782D01*
X8721471Y-25898554D01*
X8743993Y-25890496D01*
X8767197Y-25884684D01*
X8790858Y-25881174D01*
X8814750Y-25880000D01*
X9727250Y-25880000D01*
X9751142Y-25881174D01*
X9751142Y-25881174D01*
G37*
D12*
X9271000Y-26367500D03*
D10*
G36*
X9751142Y-27756174D02*
G01*
X9774803Y-27759684D01*
X9798007Y-27765496D01*
X9820529Y-27773554D01*
X9842153Y-27783782D01*
X9862670Y-27796079D01*
X9881883Y-27810329D01*
X9899607Y-27826393D01*
X9915671Y-27844117D01*
X9929921Y-27863330D01*
X9942218Y-27883847D01*
X9952446Y-27905471D01*
X9960504Y-27927993D01*
X9966316Y-27951197D01*
X9969826Y-27974858D01*
X9971000Y-27998750D01*
X9971000Y-28486250D01*
X9969826Y-28510142D01*
X9966316Y-28533803D01*
X9960504Y-28557007D01*
X9952446Y-28579529D01*
X9942218Y-28601153D01*
X9929921Y-28621670D01*
X9915671Y-28640883D01*
X9899607Y-28658607D01*
X9881883Y-28674671D01*
X9862670Y-28688921D01*
X9842153Y-28701218D01*
X9820529Y-28711446D01*
X9798007Y-28719504D01*
X9774803Y-28725316D01*
X9751142Y-28728826D01*
X9727250Y-28730000D01*
X8814750Y-28730000D01*
X8790858Y-28728826D01*
X8767197Y-28725316D01*
X8743993Y-28719504D01*
X8721471Y-28711446D01*
X8699847Y-28701218D01*
X8679330Y-28688921D01*
X8660117Y-28674671D01*
X8642393Y-28658607D01*
X8626329Y-28640883D01*
X8612079Y-28621670D01*
X8599782Y-28601153D01*
X8589554Y-28579529D01*
X8581496Y-28557007D01*
X8575684Y-28533803D01*
X8572174Y-28510142D01*
X8571000Y-28486250D01*
X8571000Y-27998750D01*
X8572174Y-27974858D01*
X8575684Y-27951197D01*
X8581496Y-27927993D01*
X8589554Y-27905471D01*
X8599782Y-27883847D01*
X8612079Y-27863330D01*
X8626329Y-27844117D01*
X8642393Y-27826393D01*
X8660117Y-27810329D01*
X8679330Y-27796079D01*
X8699847Y-27783782D01*
X8721471Y-27773554D01*
X8743993Y-27765496D01*
X8767197Y-27759684D01*
X8790858Y-27756174D01*
X8814750Y-27755000D01*
X9727250Y-27755000D01*
X9751142Y-27756174D01*
X9751142Y-27756174D01*
G37*
D12*
X9271000Y-28242500D03*
D10*
G36*
X11783142Y-25881174D02*
G01*
X11806803Y-25884684D01*
X11830007Y-25890496D01*
X11852529Y-25898554D01*
X11874153Y-25908782D01*
X11894670Y-25921079D01*
X11913883Y-25935329D01*
X11931607Y-25951393D01*
X11947671Y-25969117D01*
X11961921Y-25988330D01*
X11974218Y-26008847D01*
X11984446Y-26030471D01*
X11992504Y-26052993D01*
X11998316Y-26076197D01*
X12001826Y-26099858D01*
X12003000Y-26123750D01*
X12003000Y-26611250D01*
X12001826Y-26635142D01*
X11998316Y-26658803D01*
X11992504Y-26682007D01*
X11984446Y-26704529D01*
X11974218Y-26726153D01*
X11961921Y-26746670D01*
X11947671Y-26765883D01*
X11931607Y-26783607D01*
X11913883Y-26799671D01*
X11894670Y-26813921D01*
X11874153Y-26826218D01*
X11852529Y-26836446D01*
X11830007Y-26844504D01*
X11806803Y-26850316D01*
X11783142Y-26853826D01*
X11759250Y-26855000D01*
X10846750Y-26855000D01*
X10822858Y-26853826D01*
X10799197Y-26850316D01*
X10775993Y-26844504D01*
X10753471Y-26836446D01*
X10731847Y-26826218D01*
X10711330Y-26813921D01*
X10692117Y-26799671D01*
X10674393Y-26783607D01*
X10658329Y-26765883D01*
X10644079Y-26746670D01*
X10631782Y-26726153D01*
X10621554Y-26704529D01*
X10613496Y-26682007D01*
X10607684Y-26658803D01*
X10604174Y-26635142D01*
X10603000Y-26611250D01*
X10603000Y-26123750D01*
X10604174Y-26099858D01*
X10607684Y-26076197D01*
X10613496Y-26052993D01*
X10621554Y-26030471D01*
X10631782Y-26008847D01*
X10644079Y-25988330D01*
X10658329Y-25969117D01*
X10674393Y-25951393D01*
X10692117Y-25935329D01*
X10711330Y-25921079D01*
X10731847Y-25908782D01*
X10753471Y-25898554D01*
X10775993Y-25890496D01*
X10799197Y-25884684D01*
X10822858Y-25881174D01*
X10846750Y-25880000D01*
X11759250Y-25880000D01*
X11783142Y-25881174D01*
X11783142Y-25881174D01*
G37*
D12*
X11303000Y-26367500D03*
D10*
G36*
X11783142Y-27756174D02*
G01*
X11806803Y-27759684D01*
X11830007Y-27765496D01*
X11852529Y-27773554D01*
X11874153Y-27783782D01*
X11894670Y-27796079D01*
X11913883Y-27810329D01*
X11931607Y-27826393D01*
X11947671Y-27844117D01*
X11961921Y-27863330D01*
X11974218Y-27883847D01*
X11984446Y-27905471D01*
X11992504Y-27927993D01*
X11998316Y-27951197D01*
X12001826Y-27974858D01*
X12003000Y-27998750D01*
X12003000Y-28486250D01*
X12001826Y-28510142D01*
X11998316Y-28533803D01*
X11992504Y-28557007D01*
X11984446Y-28579529D01*
X11974218Y-28601153D01*
X11961921Y-28621670D01*
X11947671Y-28640883D01*
X11931607Y-28658607D01*
X11913883Y-28674671D01*
X11894670Y-28688921D01*
X11874153Y-28701218D01*
X11852529Y-28711446D01*
X11830007Y-28719504D01*
X11806803Y-28725316D01*
X11783142Y-28728826D01*
X11759250Y-28730000D01*
X10846750Y-28730000D01*
X10822858Y-28728826D01*
X10799197Y-28725316D01*
X10775993Y-28719504D01*
X10753471Y-28711446D01*
X10731847Y-28701218D01*
X10711330Y-28688921D01*
X10692117Y-28674671D01*
X10674393Y-28658607D01*
X10658329Y-28640883D01*
X10644079Y-28621670D01*
X10631782Y-28601153D01*
X10621554Y-28579529D01*
X10613496Y-28557007D01*
X10607684Y-28533803D01*
X10604174Y-28510142D01*
X10603000Y-28486250D01*
X10603000Y-27998750D01*
X10604174Y-27974858D01*
X10607684Y-27951197D01*
X10613496Y-27927993D01*
X10621554Y-27905471D01*
X10631782Y-27883847D01*
X10644079Y-27863330D01*
X10658329Y-27844117D01*
X10674393Y-27826393D01*
X10692117Y-27810329D01*
X10711330Y-27796079D01*
X10731847Y-27783782D01*
X10753471Y-27773554D01*
X10775993Y-27765496D01*
X10799197Y-27759684D01*
X10822858Y-27756174D01*
X10846750Y-27755000D01*
X11759250Y-27755000D01*
X11783142Y-27756174D01*
X11783142Y-27756174D01*
G37*
D12*
X11303000Y-28242500D03*
D10*
G36*
X13815142Y-25881174D02*
G01*
X13838803Y-25884684D01*
X13862007Y-25890496D01*
X13884529Y-25898554D01*
X13906153Y-25908782D01*
X13926670Y-25921079D01*
X13945883Y-25935329D01*
X13963607Y-25951393D01*
X13979671Y-25969117D01*
X13993921Y-25988330D01*
X14006218Y-26008847D01*
X14016446Y-26030471D01*
X14024504Y-26052993D01*
X14030316Y-26076197D01*
X14033826Y-26099858D01*
X14035000Y-26123750D01*
X14035000Y-26611250D01*
X14033826Y-26635142D01*
X14030316Y-26658803D01*
X14024504Y-26682007D01*
X14016446Y-26704529D01*
X14006218Y-26726153D01*
X13993921Y-26746670D01*
X13979671Y-26765883D01*
X13963607Y-26783607D01*
X13945883Y-26799671D01*
X13926670Y-26813921D01*
X13906153Y-26826218D01*
X13884529Y-26836446D01*
X13862007Y-26844504D01*
X13838803Y-26850316D01*
X13815142Y-26853826D01*
X13791250Y-26855000D01*
X12878750Y-26855000D01*
X12854858Y-26853826D01*
X12831197Y-26850316D01*
X12807993Y-26844504D01*
X12785471Y-26836446D01*
X12763847Y-26826218D01*
X12743330Y-26813921D01*
X12724117Y-26799671D01*
X12706393Y-26783607D01*
X12690329Y-26765883D01*
X12676079Y-26746670D01*
X12663782Y-26726153D01*
X12653554Y-26704529D01*
X12645496Y-26682007D01*
X12639684Y-26658803D01*
X12636174Y-26635142D01*
X12635000Y-26611250D01*
X12635000Y-26123750D01*
X12636174Y-26099858D01*
X12639684Y-26076197D01*
X12645496Y-26052993D01*
X12653554Y-26030471D01*
X12663782Y-26008847D01*
X12676079Y-25988330D01*
X12690329Y-25969117D01*
X12706393Y-25951393D01*
X12724117Y-25935329D01*
X12743330Y-25921079D01*
X12763847Y-25908782D01*
X12785471Y-25898554D01*
X12807993Y-25890496D01*
X12831197Y-25884684D01*
X12854858Y-25881174D01*
X12878750Y-25880000D01*
X13791250Y-25880000D01*
X13815142Y-25881174D01*
X13815142Y-25881174D01*
G37*
D12*
X13335000Y-26367500D03*
D10*
G36*
X13815142Y-27756174D02*
G01*
X13838803Y-27759684D01*
X13862007Y-27765496D01*
X13884529Y-27773554D01*
X13906153Y-27783782D01*
X13926670Y-27796079D01*
X13945883Y-27810329D01*
X13963607Y-27826393D01*
X13979671Y-27844117D01*
X13993921Y-27863330D01*
X14006218Y-27883847D01*
X14016446Y-27905471D01*
X14024504Y-27927993D01*
X14030316Y-27951197D01*
X14033826Y-27974858D01*
X14035000Y-27998750D01*
X14035000Y-28486250D01*
X14033826Y-28510142D01*
X14030316Y-28533803D01*
X14024504Y-28557007D01*
X14016446Y-28579529D01*
X14006218Y-28601153D01*
X13993921Y-28621670D01*
X13979671Y-28640883D01*
X13963607Y-28658607D01*
X13945883Y-28674671D01*
X13926670Y-28688921D01*
X13906153Y-28701218D01*
X13884529Y-28711446D01*
X13862007Y-28719504D01*
X13838803Y-28725316D01*
X13815142Y-28728826D01*
X13791250Y-28730000D01*
X12878750Y-28730000D01*
X12854858Y-28728826D01*
X12831197Y-28725316D01*
X12807993Y-28719504D01*
X12785471Y-28711446D01*
X12763847Y-28701218D01*
X12743330Y-28688921D01*
X12724117Y-28674671D01*
X12706393Y-28658607D01*
X12690329Y-28640883D01*
X12676079Y-28621670D01*
X12663782Y-28601153D01*
X12653554Y-28579529D01*
X12645496Y-28557007D01*
X12639684Y-28533803D01*
X12636174Y-28510142D01*
X12635000Y-28486250D01*
X12635000Y-27998750D01*
X12636174Y-27974858D01*
X12639684Y-27951197D01*
X12645496Y-27927993D01*
X12653554Y-27905471D01*
X12663782Y-27883847D01*
X12676079Y-27863330D01*
X12690329Y-27844117D01*
X12706393Y-27826393D01*
X12724117Y-27810329D01*
X12743330Y-27796079D01*
X12763847Y-27783782D01*
X12785471Y-27773554D01*
X12807993Y-27765496D01*
X12831197Y-27759684D01*
X12854858Y-27756174D01*
X12878750Y-27755000D01*
X13791250Y-27755000D01*
X13815142Y-27756174D01*
X13815142Y-27756174D01*
G37*
D12*
X13335000Y-28242500D03*
D10*
G36*
X15847142Y-25881174D02*
G01*
X15870803Y-25884684D01*
X15894007Y-25890496D01*
X15916529Y-25898554D01*
X15938153Y-25908782D01*
X15958670Y-25921079D01*
X15977883Y-25935329D01*
X15995607Y-25951393D01*
X16011671Y-25969117D01*
X16025921Y-25988330D01*
X16038218Y-26008847D01*
X16048446Y-26030471D01*
X16056504Y-26052993D01*
X16062316Y-26076197D01*
X16065826Y-26099858D01*
X16067000Y-26123750D01*
X16067000Y-26611250D01*
X16065826Y-26635142D01*
X16062316Y-26658803D01*
X16056504Y-26682007D01*
X16048446Y-26704529D01*
X16038218Y-26726153D01*
X16025921Y-26746670D01*
X16011671Y-26765883D01*
X15995607Y-26783607D01*
X15977883Y-26799671D01*
X15958670Y-26813921D01*
X15938153Y-26826218D01*
X15916529Y-26836446D01*
X15894007Y-26844504D01*
X15870803Y-26850316D01*
X15847142Y-26853826D01*
X15823250Y-26855000D01*
X14910750Y-26855000D01*
X14886858Y-26853826D01*
X14863197Y-26850316D01*
X14839993Y-26844504D01*
X14817471Y-26836446D01*
X14795847Y-26826218D01*
X14775330Y-26813921D01*
X14756117Y-26799671D01*
X14738393Y-26783607D01*
X14722329Y-26765883D01*
X14708079Y-26746670D01*
X14695782Y-26726153D01*
X14685554Y-26704529D01*
X14677496Y-26682007D01*
X14671684Y-26658803D01*
X14668174Y-26635142D01*
X14667000Y-26611250D01*
X14667000Y-26123750D01*
X14668174Y-26099858D01*
X14671684Y-26076197D01*
X14677496Y-26052993D01*
X14685554Y-26030471D01*
X14695782Y-26008847D01*
X14708079Y-25988330D01*
X14722329Y-25969117D01*
X14738393Y-25951393D01*
X14756117Y-25935329D01*
X14775330Y-25921079D01*
X14795847Y-25908782D01*
X14817471Y-25898554D01*
X14839993Y-25890496D01*
X14863197Y-25884684D01*
X14886858Y-25881174D01*
X14910750Y-25880000D01*
X15823250Y-25880000D01*
X15847142Y-25881174D01*
X15847142Y-25881174D01*
G37*
D12*
X15367000Y-26367500D03*
D10*
G36*
X15847142Y-27756174D02*
G01*
X15870803Y-27759684D01*
X15894007Y-27765496D01*
X15916529Y-27773554D01*
X15938153Y-27783782D01*
X15958670Y-27796079D01*
X15977883Y-27810329D01*
X15995607Y-27826393D01*
X16011671Y-27844117D01*
X16025921Y-27863330D01*
X16038218Y-27883847D01*
X16048446Y-27905471D01*
X16056504Y-27927993D01*
X16062316Y-27951197D01*
X16065826Y-27974858D01*
X16067000Y-27998750D01*
X16067000Y-28486250D01*
X16065826Y-28510142D01*
X16062316Y-28533803D01*
X16056504Y-28557007D01*
X16048446Y-28579529D01*
X16038218Y-28601153D01*
X16025921Y-28621670D01*
X16011671Y-28640883D01*
X15995607Y-28658607D01*
X15977883Y-28674671D01*
X15958670Y-28688921D01*
X15938153Y-28701218D01*
X15916529Y-28711446D01*
X15894007Y-28719504D01*
X15870803Y-28725316D01*
X15847142Y-28728826D01*
X15823250Y-28730000D01*
X14910750Y-28730000D01*
X14886858Y-28728826D01*
X14863197Y-28725316D01*
X14839993Y-28719504D01*
X14817471Y-28711446D01*
X14795847Y-28701218D01*
X14775330Y-28688921D01*
X14756117Y-28674671D01*
X14738393Y-28658607D01*
X14722329Y-28640883D01*
X14708079Y-28621670D01*
X14695782Y-28601153D01*
X14685554Y-28579529D01*
X14677496Y-28557007D01*
X14671684Y-28533803D01*
X14668174Y-28510142D01*
X14667000Y-28486250D01*
X14667000Y-27998750D01*
X14668174Y-27974858D01*
X14671684Y-27951197D01*
X14677496Y-27927993D01*
X14685554Y-27905471D01*
X14695782Y-27883847D01*
X14708079Y-27863330D01*
X14722329Y-27844117D01*
X14738393Y-27826393D01*
X14756117Y-27810329D01*
X14775330Y-27796079D01*
X14795847Y-27783782D01*
X14817471Y-27773554D01*
X14839993Y-27765496D01*
X14863197Y-27759684D01*
X14886858Y-27756174D01*
X14910750Y-27755000D01*
X15823250Y-27755000D01*
X15847142Y-27756174D01*
X15847142Y-27756174D01*
G37*
D12*
X15367000Y-28242500D03*
M02*
