G04 #@! TF.GenerationSoftware,KiCad,Pcbnew,(5.1.4)-1*
G04 #@! TF.CreationDate,2021-11-04T12:06:02-05:00*
G04 #@! TF.ProjectId,RascalHat,52617363-616c-4486-9174-2e6b69636164,rev?*
G04 #@! TF.SameCoordinates,Original*
G04 #@! TF.FileFunction,Soldermask,Bot*
G04 #@! TF.FilePolarity,Negative*
%FSLAX46Y46*%
G04 Gerber Fmt 4.6, Leading zero omitted, Abs format (unit mm)*
G04 Created by KiCad (PCBNEW (5.1.4)-1) date 2021-11-04 12:06:02*
%MOMM*%
%LPD*%
G04 APERTURE LIST*
%ADD10C,0.100000*%
G04 APERTURE END LIST*
D10*
G36*
X56720442Y-53795518D02*
G01*
X56786627Y-53802037D01*
X56956466Y-53853557D01*
X57112991Y-53937222D01*
X57148729Y-53966552D01*
X57250186Y-54049814D01*
X57333448Y-54151271D01*
X57362778Y-54187009D01*
X57362779Y-54187011D01*
X57413775Y-54282416D01*
X57446443Y-54343534D01*
X57497963Y-54513373D01*
X57515359Y-54690000D01*
X57497963Y-54866627D01*
X57446443Y-55036466D01*
X57362778Y-55192991D01*
X57333448Y-55228729D01*
X57250186Y-55330186D01*
X57148729Y-55413448D01*
X57112991Y-55442778D01*
X56956466Y-55526443D01*
X56786627Y-55577963D01*
X56720443Y-55584481D01*
X56654260Y-55591000D01*
X56565740Y-55591000D01*
X56499557Y-55584481D01*
X56433373Y-55577963D01*
X56263534Y-55526443D01*
X56107009Y-55442778D01*
X56071271Y-55413448D01*
X55969814Y-55330186D01*
X55886552Y-55228729D01*
X55857222Y-55192991D01*
X55773557Y-55036466D01*
X55722037Y-54866627D01*
X55704641Y-54690000D01*
X55722037Y-54513373D01*
X55773557Y-54343534D01*
X55806226Y-54282416D01*
X55857221Y-54187011D01*
X55857222Y-54187009D01*
X55886552Y-54151271D01*
X55969814Y-54049814D01*
X56071271Y-53966552D01*
X56107009Y-53937222D01*
X56263534Y-53853557D01*
X56433373Y-53802037D01*
X56499558Y-53795518D01*
X56565740Y-53789000D01*
X56654260Y-53789000D01*
X56720442Y-53795518D01*
X56720442Y-53795518D01*
G37*
G36*
X16080442Y-53795518D02*
G01*
X16146627Y-53802037D01*
X16316466Y-53853557D01*
X16472991Y-53937222D01*
X16508729Y-53966552D01*
X16610186Y-54049814D01*
X16693448Y-54151271D01*
X16722778Y-54187009D01*
X16722779Y-54187011D01*
X16773775Y-54282416D01*
X16806443Y-54343534D01*
X16857963Y-54513373D01*
X16875359Y-54690000D01*
X16857963Y-54866627D01*
X16806443Y-55036466D01*
X16722778Y-55192991D01*
X16693448Y-55228729D01*
X16610186Y-55330186D01*
X16508729Y-55413448D01*
X16472991Y-55442778D01*
X16316466Y-55526443D01*
X16146627Y-55577963D01*
X16080443Y-55584481D01*
X16014260Y-55591000D01*
X15925740Y-55591000D01*
X15859557Y-55584481D01*
X15793373Y-55577963D01*
X15623534Y-55526443D01*
X15467009Y-55442778D01*
X15431271Y-55413448D01*
X15329814Y-55330186D01*
X15246552Y-55228729D01*
X15217222Y-55192991D01*
X15133557Y-55036466D01*
X15082037Y-54866627D01*
X15064641Y-54690000D01*
X15082037Y-54513373D01*
X15133557Y-54343534D01*
X15166226Y-54282416D01*
X15217221Y-54187011D01*
X15217222Y-54187009D01*
X15246552Y-54151271D01*
X15329814Y-54049814D01*
X15431271Y-53966552D01*
X15467009Y-53937222D01*
X15623534Y-53853557D01*
X15793373Y-53802037D01*
X15859558Y-53795518D01*
X15925740Y-53789000D01*
X16014260Y-53789000D01*
X16080442Y-53795518D01*
X16080442Y-53795518D01*
G37*
G36*
X41480442Y-53795518D02*
G01*
X41546627Y-53802037D01*
X41716466Y-53853557D01*
X41872991Y-53937222D01*
X41908729Y-53966552D01*
X42010186Y-54049814D01*
X42093448Y-54151271D01*
X42122778Y-54187009D01*
X42122779Y-54187011D01*
X42173775Y-54282416D01*
X42206443Y-54343534D01*
X42257963Y-54513373D01*
X42275359Y-54690000D01*
X42257963Y-54866627D01*
X42206443Y-55036466D01*
X42122778Y-55192991D01*
X42093448Y-55228729D01*
X42010186Y-55330186D01*
X41908729Y-55413448D01*
X41872991Y-55442778D01*
X41716466Y-55526443D01*
X41546627Y-55577963D01*
X41480443Y-55584481D01*
X41414260Y-55591000D01*
X41325740Y-55591000D01*
X41259557Y-55584481D01*
X41193373Y-55577963D01*
X41023534Y-55526443D01*
X40867009Y-55442778D01*
X40831271Y-55413448D01*
X40729814Y-55330186D01*
X40646552Y-55228729D01*
X40617222Y-55192991D01*
X40533557Y-55036466D01*
X40482037Y-54866627D01*
X40464641Y-54690000D01*
X40482037Y-54513373D01*
X40533557Y-54343534D01*
X40566226Y-54282416D01*
X40617221Y-54187011D01*
X40617222Y-54187009D01*
X40646552Y-54151271D01*
X40729814Y-54049814D01*
X40831271Y-53966552D01*
X40867009Y-53937222D01*
X41023534Y-53853557D01*
X41193373Y-53802037D01*
X41259558Y-53795518D01*
X41325740Y-53789000D01*
X41414260Y-53789000D01*
X41480442Y-53795518D01*
X41480442Y-53795518D01*
G37*
G36*
X38940442Y-53795518D02*
G01*
X39006627Y-53802037D01*
X39176466Y-53853557D01*
X39332991Y-53937222D01*
X39368729Y-53966552D01*
X39470186Y-54049814D01*
X39553448Y-54151271D01*
X39582778Y-54187009D01*
X39582779Y-54187011D01*
X39633775Y-54282416D01*
X39666443Y-54343534D01*
X39717963Y-54513373D01*
X39735359Y-54690000D01*
X39717963Y-54866627D01*
X39666443Y-55036466D01*
X39582778Y-55192991D01*
X39553448Y-55228729D01*
X39470186Y-55330186D01*
X39368729Y-55413448D01*
X39332991Y-55442778D01*
X39176466Y-55526443D01*
X39006627Y-55577963D01*
X38940443Y-55584481D01*
X38874260Y-55591000D01*
X38785740Y-55591000D01*
X38719557Y-55584481D01*
X38653373Y-55577963D01*
X38483534Y-55526443D01*
X38327009Y-55442778D01*
X38291271Y-55413448D01*
X38189814Y-55330186D01*
X38106552Y-55228729D01*
X38077222Y-55192991D01*
X37993557Y-55036466D01*
X37942037Y-54866627D01*
X37924641Y-54690000D01*
X37942037Y-54513373D01*
X37993557Y-54343534D01*
X38026226Y-54282416D01*
X38077221Y-54187011D01*
X38077222Y-54187009D01*
X38106552Y-54151271D01*
X38189814Y-54049814D01*
X38291271Y-53966552D01*
X38327009Y-53937222D01*
X38483534Y-53853557D01*
X38653373Y-53802037D01*
X38719558Y-53795518D01*
X38785740Y-53789000D01*
X38874260Y-53789000D01*
X38940442Y-53795518D01*
X38940442Y-53795518D01*
G37*
G36*
X36400442Y-53795518D02*
G01*
X36466627Y-53802037D01*
X36636466Y-53853557D01*
X36792991Y-53937222D01*
X36828729Y-53966552D01*
X36930186Y-54049814D01*
X37013448Y-54151271D01*
X37042778Y-54187009D01*
X37042779Y-54187011D01*
X37093775Y-54282416D01*
X37126443Y-54343534D01*
X37177963Y-54513373D01*
X37195359Y-54690000D01*
X37177963Y-54866627D01*
X37126443Y-55036466D01*
X37042778Y-55192991D01*
X37013448Y-55228729D01*
X36930186Y-55330186D01*
X36828729Y-55413448D01*
X36792991Y-55442778D01*
X36636466Y-55526443D01*
X36466627Y-55577963D01*
X36400443Y-55584481D01*
X36334260Y-55591000D01*
X36245740Y-55591000D01*
X36179557Y-55584481D01*
X36113373Y-55577963D01*
X35943534Y-55526443D01*
X35787009Y-55442778D01*
X35751271Y-55413448D01*
X35649814Y-55330186D01*
X35566552Y-55228729D01*
X35537222Y-55192991D01*
X35453557Y-55036466D01*
X35402037Y-54866627D01*
X35384641Y-54690000D01*
X35402037Y-54513373D01*
X35453557Y-54343534D01*
X35486226Y-54282416D01*
X35537221Y-54187011D01*
X35537222Y-54187009D01*
X35566552Y-54151271D01*
X35649814Y-54049814D01*
X35751271Y-53966552D01*
X35787009Y-53937222D01*
X35943534Y-53853557D01*
X36113373Y-53802037D01*
X36179558Y-53795518D01*
X36245740Y-53789000D01*
X36334260Y-53789000D01*
X36400442Y-53795518D01*
X36400442Y-53795518D01*
G37*
G36*
X33860442Y-53795518D02*
G01*
X33926627Y-53802037D01*
X34096466Y-53853557D01*
X34252991Y-53937222D01*
X34288729Y-53966552D01*
X34390186Y-54049814D01*
X34473448Y-54151271D01*
X34502778Y-54187009D01*
X34502779Y-54187011D01*
X34553775Y-54282416D01*
X34586443Y-54343534D01*
X34637963Y-54513373D01*
X34655359Y-54690000D01*
X34637963Y-54866627D01*
X34586443Y-55036466D01*
X34502778Y-55192991D01*
X34473448Y-55228729D01*
X34390186Y-55330186D01*
X34288729Y-55413448D01*
X34252991Y-55442778D01*
X34096466Y-55526443D01*
X33926627Y-55577963D01*
X33860443Y-55584481D01*
X33794260Y-55591000D01*
X33705740Y-55591000D01*
X33639557Y-55584481D01*
X33573373Y-55577963D01*
X33403534Y-55526443D01*
X33247009Y-55442778D01*
X33211271Y-55413448D01*
X33109814Y-55330186D01*
X33026552Y-55228729D01*
X32997222Y-55192991D01*
X32913557Y-55036466D01*
X32862037Y-54866627D01*
X32844641Y-54690000D01*
X32862037Y-54513373D01*
X32913557Y-54343534D01*
X32946226Y-54282416D01*
X32997221Y-54187011D01*
X32997222Y-54187009D01*
X33026552Y-54151271D01*
X33109814Y-54049814D01*
X33211271Y-53966552D01*
X33247009Y-53937222D01*
X33403534Y-53853557D01*
X33573373Y-53802037D01*
X33639558Y-53795518D01*
X33705740Y-53789000D01*
X33794260Y-53789000D01*
X33860442Y-53795518D01*
X33860442Y-53795518D01*
G37*
G36*
X31320442Y-53795518D02*
G01*
X31386627Y-53802037D01*
X31556466Y-53853557D01*
X31712991Y-53937222D01*
X31748729Y-53966552D01*
X31850186Y-54049814D01*
X31933448Y-54151271D01*
X31962778Y-54187009D01*
X31962779Y-54187011D01*
X32013775Y-54282416D01*
X32046443Y-54343534D01*
X32097963Y-54513373D01*
X32115359Y-54690000D01*
X32097963Y-54866627D01*
X32046443Y-55036466D01*
X31962778Y-55192991D01*
X31933448Y-55228729D01*
X31850186Y-55330186D01*
X31748729Y-55413448D01*
X31712991Y-55442778D01*
X31556466Y-55526443D01*
X31386627Y-55577963D01*
X31320443Y-55584481D01*
X31254260Y-55591000D01*
X31165740Y-55591000D01*
X31099557Y-55584481D01*
X31033373Y-55577963D01*
X30863534Y-55526443D01*
X30707009Y-55442778D01*
X30671271Y-55413448D01*
X30569814Y-55330186D01*
X30486552Y-55228729D01*
X30457222Y-55192991D01*
X30373557Y-55036466D01*
X30322037Y-54866627D01*
X30304641Y-54690000D01*
X30322037Y-54513373D01*
X30373557Y-54343534D01*
X30406226Y-54282416D01*
X30457221Y-54187011D01*
X30457222Y-54187009D01*
X30486552Y-54151271D01*
X30569814Y-54049814D01*
X30671271Y-53966552D01*
X30707009Y-53937222D01*
X30863534Y-53853557D01*
X31033373Y-53802037D01*
X31099558Y-53795518D01*
X31165740Y-53789000D01*
X31254260Y-53789000D01*
X31320442Y-53795518D01*
X31320442Y-53795518D01*
G37*
G36*
X28780442Y-53795518D02*
G01*
X28846627Y-53802037D01*
X29016466Y-53853557D01*
X29172991Y-53937222D01*
X29208729Y-53966552D01*
X29310186Y-54049814D01*
X29393448Y-54151271D01*
X29422778Y-54187009D01*
X29422779Y-54187011D01*
X29473775Y-54282416D01*
X29506443Y-54343534D01*
X29557963Y-54513373D01*
X29575359Y-54690000D01*
X29557963Y-54866627D01*
X29506443Y-55036466D01*
X29422778Y-55192991D01*
X29393448Y-55228729D01*
X29310186Y-55330186D01*
X29208729Y-55413448D01*
X29172991Y-55442778D01*
X29016466Y-55526443D01*
X28846627Y-55577963D01*
X28780443Y-55584481D01*
X28714260Y-55591000D01*
X28625740Y-55591000D01*
X28559557Y-55584481D01*
X28493373Y-55577963D01*
X28323534Y-55526443D01*
X28167009Y-55442778D01*
X28131271Y-55413448D01*
X28029814Y-55330186D01*
X27946552Y-55228729D01*
X27917222Y-55192991D01*
X27833557Y-55036466D01*
X27782037Y-54866627D01*
X27764641Y-54690000D01*
X27782037Y-54513373D01*
X27833557Y-54343534D01*
X27866226Y-54282416D01*
X27917221Y-54187011D01*
X27917222Y-54187009D01*
X27946552Y-54151271D01*
X28029814Y-54049814D01*
X28131271Y-53966552D01*
X28167009Y-53937222D01*
X28323534Y-53853557D01*
X28493373Y-53802037D01*
X28559558Y-53795518D01*
X28625740Y-53789000D01*
X28714260Y-53789000D01*
X28780442Y-53795518D01*
X28780442Y-53795518D01*
G37*
G36*
X26240442Y-53795518D02*
G01*
X26306627Y-53802037D01*
X26476466Y-53853557D01*
X26632991Y-53937222D01*
X26668729Y-53966552D01*
X26770186Y-54049814D01*
X26853448Y-54151271D01*
X26882778Y-54187009D01*
X26882779Y-54187011D01*
X26933775Y-54282416D01*
X26966443Y-54343534D01*
X27017963Y-54513373D01*
X27035359Y-54690000D01*
X27017963Y-54866627D01*
X26966443Y-55036466D01*
X26882778Y-55192991D01*
X26853448Y-55228729D01*
X26770186Y-55330186D01*
X26668729Y-55413448D01*
X26632991Y-55442778D01*
X26476466Y-55526443D01*
X26306627Y-55577963D01*
X26240443Y-55584481D01*
X26174260Y-55591000D01*
X26085740Y-55591000D01*
X26019557Y-55584481D01*
X25953373Y-55577963D01*
X25783534Y-55526443D01*
X25627009Y-55442778D01*
X25591271Y-55413448D01*
X25489814Y-55330186D01*
X25406552Y-55228729D01*
X25377222Y-55192991D01*
X25293557Y-55036466D01*
X25242037Y-54866627D01*
X25224641Y-54690000D01*
X25242037Y-54513373D01*
X25293557Y-54343534D01*
X25326226Y-54282416D01*
X25377221Y-54187011D01*
X25377222Y-54187009D01*
X25406552Y-54151271D01*
X25489814Y-54049814D01*
X25591271Y-53966552D01*
X25627009Y-53937222D01*
X25783534Y-53853557D01*
X25953373Y-53802037D01*
X26019558Y-53795518D01*
X26085740Y-53789000D01*
X26174260Y-53789000D01*
X26240442Y-53795518D01*
X26240442Y-53795518D01*
G37*
G36*
X23700442Y-53795518D02*
G01*
X23766627Y-53802037D01*
X23936466Y-53853557D01*
X24092991Y-53937222D01*
X24128729Y-53966552D01*
X24230186Y-54049814D01*
X24313448Y-54151271D01*
X24342778Y-54187009D01*
X24342779Y-54187011D01*
X24393775Y-54282416D01*
X24426443Y-54343534D01*
X24477963Y-54513373D01*
X24495359Y-54690000D01*
X24477963Y-54866627D01*
X24426443Y-55036466D01*
X24342778Y-55192991D01*
X24313448Y-55228729D01*
X24230186Y-55330186D01*
X24128729Y-55413448D01*
X24092991Y-55442778D01*
X23936466Y-55526443D01*
X23766627Y-55577963D01*
X23700443Y-55584481D01*
X23634260Y-55591000D01*
X23545740Y-55591000D01*
X23479557Y-55584481D01*
X23413373Y-55577963D01*
X23243534Y-55526443D01*
X23087009Y-55442778D01*
X23051271Y-55413448D01*
X22949814Y-55330186D01*
X22866552Y-55228729D01*
X22837222Y-55192991D01*
X22753557Y-55036466D01*
X22702037Y-54866627D01*
X22684641Y-54690000D01*
X22702037Y-54513373D01*
X22753557Y-54343534D01*
X22786226Y-54282416D01*
X22837221Y-54187011D01*
X22837222Y-54187009D01*
X22866552Y-54151271D01*
X22949814Y-54049814D01*
X23051271Y-53966552D01*
X23087009Y-53937222D01*
X23243534Y-53853557D01*
X23413373Y-53802037D01*
X23479558Y-53795518D01*
X23545740Y-53789000D01*
X23634260Y-53789000D01*
X23700442Y-53795518D01*
X23700442Y-53795518D01*
G37*
G36*
X21160442Y-53795518D02*
G01*
X21226627Y-53802037D01*
X21396466Y-53853557D01*
X21552991Y-53937222D01*
X21588729Y-53966552D01*
X21690186Y-54049814D01*
X21773448Y-54151271D01*
X21802778Y-54187009D01*
X21802779Y-54187011D01*
X21853775Y-54282416D01*
X21886443Y-54343534D01*
X21937963Y-54513373D01*
X21955359Y-54690000D01*
X21937963Y-54866627D01*
X21886443Y-55036466D01*
X21802778Y-55192991D01*
X21773448Y-55228729D01*
X21690186Y-55330186D01*
X21588729Y-55413448D01*
X21552991Y-55442778D01*
X21396466Y-55526443D01*
X21226627Y-55577963D01*
X21160443Y-55584481D01*
X21094260Y-55591000D01*
X21005740Y-55591000D01*
X20939557Y-55584481D01*
X20873373Y-55577963D01*
X20703534Y-55526443D01*
X20547009Y-55442778D01*
X20511271Y-55413448D01*
X20409814Y-55330186D01*
X20326552Y-55228729D01*
X20297222Y-55192991D01*
X20213557Y-55036466D01*
X20162037Y-54866627D01*
X20144641Y-54690000D01*
X20162037Y-54513373D01*
X20213557Y-54343534D01*
X20246226Y-54282416D01*
X20297221Y-54187011D01*
X20297222Y-54187009D01*
X20326552Y-54151271D01*
X20409814Y-54049814D01*
X20511271Y-53966552D01*
X20547009Y-53937222D01*
X20703534Y-53853557D01*
X20873373Y-53802037D01*
X20939558Y-53795518D01*
X21005740Y-53789000D01*
X21094260Y-53789000D01*
X21160442Y-53795518D01*
X21160442Y-53795518D01*
G37*
G36*
X13540442Y-53795518D02*
G01*
X13606627Y-53802037D01*
X13776466Y-53853557D01*
X13932991Y-53937222D01*
X13968729Y-53966552D01*
X14070186Y-54049814D01*
X14153448Y-54151271D01*
X14182778Y-54187009D01*
X14182779Y-54187011D01*
X14233775Y-54282416D01*
X14266443Y-54343534D01*
X14317963Y-54513373D01*
X14335359Y-54690000D01*
X14317963Y-54866627D01*
X14266443Y-55036466D01*
X14182778Y-55192991D01*
X14153448Y-55228729D01*
X14070186Y-55330186D01*
X13968729Y-55413448D01*
X13932991Y-55442778D01*
X13776466Y-55526443D01*
X13606627Y-55577963D01*
X13540443Y-55584481D01*
X13474260Y-55591000D01*
X13385740Y-55591000D01*
X13319557Y-55584481D01*
X13253373Y-55577963D01*
X13083534Y-55526443D01*
X12927009Y-55442778D01*
X12891271Y-55413448D01*
X12789814Y-55330186D01*
X12706552Y-55228729D01*
X12677222Y-55192991D01*
X12593557Y-55036466D01*
X12542037Y-54866627D01*
X12524641Y-54690000D01*
X12542037Y-54513373D01*
X12593557Y-54343534D01*
X12626226Y-54282416D01*
X12677221Y-54187011D01*
X12677222Y-54187009D01*
X12706552Y-54151271D01*
X12789814Y-54049814D01*
X12891271Y-53966552D01*
X12927009Y-53937222D01*
X13083534Y-53853557D01*
X13253373Y-53802037D01*
X13319558Y-53795518D01*
X13385740Y-53789000D01*
X13474260Y-53789000D01*
X13540442Y-53795518D01*
X13540442Y-53795518D01*
G37*
G36*
X11000442Y-53795518D02*
G01*
X11066627Y-53802037D01*
X11236466Y-53853557D01*
X11392991Y-53937222D01*
X11428729Y-53966552D01*
X11530186Y-54049814D01*
X11613448Y-54151271D01*
X11642778Y-54187009D01*
X11642779Y-54187011D01*
X11693775Y-54282416D01*
X11726443Y-54343534D01*
X11777963Y-54513373D01*
X11795359Y-54690000D01*
X11777963Y-54866627D01*
X11726443Y-55036466D01*
X11642778Y-55192991D01*
X11613448Y-55228729D01*
X11530186Y-55330186D01*
X11428729Y-55413448D01*
X11392991Y-55442778D01*
X11236466Y-55526443D01*
X11066627Y-55577963D01*
X11000443Y-55584481D01*
X10934260Y-55591000D01*
X10845740Y-55591000D01*
X10779557Y-55584481D01*
X10713373Y-55577963D01*
X10543534Y-55526443D01*
X10387009Y-55442778D01*
X10351271Y-55413448D01*
X10249814Y-55330186D01*
X10166552Y-55228729D01*
X10137222Y-55192991D01*
X10053557Y-55036466D01*
X10002037Y-54866627D01*
X9984641Y-54690000D01*
X10002037Y-54513373D01*
X10053557Y-54343534D01*
X10086226Y-54282416D01*
X10137221Y-54187011D01*
X10137222Y-54187009D01*
X10166552Y-54151271D01*
X10249814Y-54049814D01*
X10351271Y-53966552D01*
X10387009Y-53937222D01*
X10543534Y-53853557D01*
X10713373Y-53802037D01*
X10779558Y-53795518D01*
X10845740Y-53789000D01*
X10934260Y-53789000D01*
X11000442Y-53795518D01*
X11000442Y-53795518D01*
G37*
G36*
X8460442Y-53795518D02*
G01*
X8526627Y-53802037D01*
X8696466Y-53853557D01*
X8852991Y-53937222D01*
X8888729Y-53966552D01*
X8990186Y-54049814D01*
X9073448Y-54151271D01*
X9102778Y-54187009D01*
X9102779Y-54187011D01*
X9153775Y-54282416D01*
X9186443Y-54343534D01*
X9237963Y-54513373D01*
X9255359Y-54690000D01*
X9237963Y-54866627D01*
X9186443Y-55036466D01*
X9102778Y-55192991D01*
X9073448Y-55228729D01*
X8990186Y-55330186D01*
X8888729Y-55413448D01*
X8852991Y-55442778D01*
X8696466Y-55526443D01*
X8526627Y-55577963D01*
X8460443Y-55584481D01*
X8394260Y-55591000D01*
X8305740Y-55591000D01*
X8239557Y-55584481D01*
X8173373Y-55577963D01*
X8003534Y-55526443D01*
X7847009Y-55442778D01*
X7811271Y-55413448D01*
X7709814Y-55330186D01*
X7626552Y-55228729D01*
X7597222Y-55192991D01*
X7513557Y-55036466D01*
X7462037Y-54866627D01*
X7444641Y-54690000D01*
X7462037Y-54513373D01*
X7513557Y-54343534D01*
X7546226Y-54282416D01*
X7597221Y-54187011D01*
X7597222Y-54187009D01*
X7626552Y-54151271D01*
X7709814Y-54049814D01*
X7811271Y-53966552D01*
X7847009Y-53937222D01*
X8003534Y-53853557D01*
X8173373Y-53802037D01*
X8239558Y-53795518D01*
X8305740Y-53789000D01*
X8394260Y-53789000D01*
X8460442Y-53795518D01*
X8460442Y-53795518D01*
G37*
G36*
X44020442Y-53795518D02*
G01*
X44086627Y-53802037D01*
X44256466Y-53853557D01*
X44412991Y-53937222D01*
X44448729Y-53966552D01*
X44550186Y-54049814D01*
X44633448Y-54151271D01*
X44662778Y-54187009D01*
X44662779Y-54187011D01*
X44713775Y-54282416D01*
X44746443Y-54343534D01*
X44797963Y-54513373D01*
X44815359Y-54690000D01*
X44797963Y-54866627D01*
X44746443Y-55036466D01*
X44662778Y-55192991D01*
X44633448Y-55228729D01*
X44550186Y-55330186D01*
X44448729Y-55413448D01*
X44412991Y-55442778D01*
X44256466Y-55526443D01*
X44086627Y-55577963D01*
X44020443Y-55584481D01*
X43954260Y-55591000D01*
X43865740Y-55591000D01*
X43799557Y-55584481D01*
X43733373Y-55577963D01*
X43563534Y-55526443D01*
X43407009Y-55442778D01*
X43371271Y-55413448D01*
X43269814Y-55330186D01*
X43186552Y-55228729D01*
X43157222Y-55192991D01*
X43073557Y-55036466D01*
X43022037Y-54866627D01*
X43004641Y-54690000D01*
X43022037Y-54513373D01*
X43073557Y-54343534D01*
X43106226Y-54282416D01*
X43157221Y-54187011D01*
X43157222Y-54187009D01*
X43186552Y-54151271D01*
X43269814Y-54049814D01*
X43371271Y-53966552D01*
X43407009Y-53937222D01*
X43563534Y-53853557D01*
X43733373Y-53802037D01*
X43799558Y-53795518D01*
X43865740Y-53789000D01*
X43954260Y-53789000D01*
X44020442Y-53795518D01*
X44020442Y-53795518D01*
G37*
G36*
X46560442Y-53795518D02*
G01*
X46626627Y-53802037D01*
X46796466Y-53853557D01*
X46952991Y-53937222D01*
X46988729Y-53966552D01*
X47090186Y-54049814D01*
X47173448Y-54151271D01*
X47202778Y-54187009D01*
X47202779Y-54187011D01*
X47253775Y-54282416D01*
X47286443Y-54343534D01*
X47337963Y-54513373D01*
X47355359Y-54690000D01*
X47337963Y-54866627D01*
X47286443Y-55036466D01*
X47202778Y-55192991D01*
X47173448Y-55228729D01*
X47090186Y-55330186D01*
X46988729Y-55413448D01*
X46952991Y-55442778D01*
X46796466Y-55526443D01*
X46626627Y-55577963D01*
X46560443Y-55584481D01*
X46494260Y-55591000D01*
X46405740Y-55591000D01*
X46339557Y-55584481D01*
X46273373Y-55577963D01*
X46103534Y-55526443D01*
X45947009Y-55442778D01*
X45911271Y-55413448D01*
X45809814Y-55330186D01*
X45726552Y-55228729D01*
X45697222Y-55192991D01*
X45613557Y-55036466D01*
X45562037Y-54866627D01*
X45544641Y-54690000D01*
X45562037Y-54513373D01*
X45613557Y-54343534D01*
X45646226Y-54282416D01*
X45697221Y-54187011D01*
X45697222Y-54187009D01*
X45726552Y-54151271D01*
X45809814Y-54049814D01*
X45911271Y-53966552D01*
X45947009Y-53937222D01*
X46103534Y-53853557D01*
X46273373Y-53802037D01*
X46339558Y-53795518D01*
X46405740Y-53789000D01*
X46494260Y-53789000D01*
X46560442Y-53795518D01*
X46560442Y-53795518D01*
G37*
G36*
X49100442Y-53795518D02*
G01*
X49166627Y-53802037D01*
X49336466Y-53853557D01*
X49492991Y-53937222D01*
X49528729Y-53966552D01*
X49630186Y-54049814D01*
X49713448Y-54151271D01*
X49742778Y-54187009D01*
X49742779Y-54187011D01*
X49793775Y-54282416D01*
X49826443Y-54343534D01*
X49877963Y-54513373D01*
X49895359Y-54690000D01*
X49877963Y-54866627D01*
X49826443Y-55036466D01*
X49742778Y-55192991D01*
X49713448Y-55228729D01*
X49630186Y-55330186D01*
X49528729Y-55413448D01*
X49492991Y-55442778D01*
X49336466Y-55526443D01*
X49166627Y-55577963D01*
X49100443Y-55584481D01*
X49034260Y-55591000D01*
X48945740Y-55591000D01*
X48879557Y-55584481D01*
X48813373Y-55577963D01*
X48643534Y-55526443D01*
X48487009Y-55442778D01*
X48451271Y-55413448D01*
X48349814Y-55330186D01*
X48266552Y-55228729D01*
X48237222Y-55192991D01*
X48153557Y-55036466D01*
X48102037Y-54866627D01*
X48084641Y-54690000D01*
X48102037Y-54513373D01*
X48153557Y-54343534D01*
X48186226Y-54282416D01*
X48237221Y-54187011D01*
X48237222Y-54187009D01*
X48266552Y-54151271D01*
X48349814Y-54049814D01*
X48451271Y-53966552D01*
X48487009Y-53937222D01*
X48643534Y-53853557D01*
X48813373Y-53802037D01*
X48879558Y-53795518D01*
X48945740Y-53789000D01*
X49034260Y-53789000D01*
X49100442Y-53795518D01*
X49100442Y-53795518D01*
G37*
G36*
X51640442Y-53795518D02*
G01*
X51706627Y-53802037D01*
X51876466Y-53853557D01*
X52032991Y-53937222D01*
X52068729Y-53966552D01*
X52170186Y-54049814D01*
X52253448Y-54151271D01*
X52282778Y-54187009D01*
X52282779Y-54187011D01*
X52333775Y-54282416D01*
X52366443Y-54343534D01*
X52417963Y-54513373D01*
X52435359Y-54690000D01*
X52417963Y-54866627D01*
X52366443Y-55036466D01*
X52282778Y-55192991D01*
X52253448Y-55228729D01*
X52170186Y-55330186D01*
X52068729Y-55413448D01*
X52032991Y-55442778D01*
X51876466Y-55526443D01*
X51706627Y-55577963D01*
X51640443Y-55584481D01*
X51574260Y-55591000D01*
X51485740Y-55591000D01*
X51419557Y-55584481D01*
X51353373Y-55577963D01*
X51183534Y-55526443D01*
X51027009Y-55442778D01*
X50991271Y-55413448D01*
X50889814Y-55330186D01*
X50806552Y-55228729D01*
X50777222Y-55192991D01*
X50693557Y-55036466D01*
X50642037Y-54866627D01*
X50624641Y-54690000D01*
X50642037Y-54513373D01*
X50693557Y-54343534D01*
X50726226Y-54282416D01*
X50777221Y-54187011D01*
X50777222Y-54187009D01*
X50806552Y-54151271D01*
X50889814Y-54049814D01*
X50991271Y-53966552D01*
X51027009Y-53937222D01*
X51183534Y-53853557D01*
X51353373Y-53802037D01*
X51419558Y-53795518D01*
X51485740Y-53789000D01*
X51574260Y-53789000D01*
X51640442Y-53795518D01*
X51640442Y-53795518D01*
G37*
G36*
X54180442Y-53795518D02*
G01*
X54246627Y-53802037D01*
X54416466Y-53853557D01*
X54572991Y-53937222D01*
X54608729Y-53966552D01*
X54710186Y-54049814D01*
X54793448Y-54151271D01*
X54822778Y-54187009D01*
X54822779Y-54187011D01*
X54873775Y-54282416D01*
X54906443Y-54343534D01*
X54957963Y-54513373D01*
X54975359Y-54690000D01*
X54957963Y-54866627D01*
X54906443Y-55036466D01*
X54822778Y-55192991D01*
X54793448Y-55228729D01*
X54710186Y-55330186D01*
X54608729Y-55413448D01*
X54572991Y-55442778D01*
X54416466Y-55526443D01*
X54246627Y-55577963D01*
X54180443Y-55584481D01*
X54114260Y-55591000D01*
X54025740Y-55591000D01*
X53959557Y-55584481D01*
X53893373Y-55577963D01*
X53723534Y-55526443D01*
X53567009Y-55442778D01*
X53531271Y-55413448D01*
X53429814Y-55330186D01*
X53346552Y-55228729D01*
X53317222Y-55192991D01*
X53233557Y-55036466D01*
X53182037Y-54866627D01*
X53164641Y-54690000D01*
X53182037Y-54513373D01*
X53233557Y-54343534D01*
X53266226Y-54282416D01*
X53317221Y-54187011D01*
X53317222Y-54187009D01*
X53346552Y-54151271D01*
X53429814Y-54049814D01*
X53531271Y-53966552D01*
X53567009Y-53937222D01*
X53723534Y-53853557D01*
X53893373Y-53802037D01*
X53959558Y-53795518D01*
X54025740Y-53789000D01*
X54114260Y-53789000D01*
X54180442Y-53795518D01*
X54180442Y-53795518D01*
G37*
G36*
X18620442Y-53795518D02*
G01*
X18686627Y-53802037D01*
X18856466Y-53853557D01*
X19012991Y-53937222D01*
X19048729Y-53966552D01*
X19150186Y-54049814D01*
X19233448Y-54151271D01*
X19262778Y-54187009D01*
X19262779Y-54187011D01*
X19313775Y-54282416D01*
X19346443Y-54343534D01*
X19397963Y-54513373D01*
X19415359Y-54690000D01*
X19397963Y-54866627D01*
X19346443Y-55036466D01*
X19262778Y-55192991D01*
X19233448Y-55228729D01*
X19150186Y-55330186D01*
X19048729Y-55413448D01*
X19012991Y-55442778D01*
X18856466Y-55526443D01*
X18686627Y-55577963D01*
X18620443Y-55584481D01*
X18554260Y-55591000D01*
X18465740Y-55591000D01*
X18399557Y-55584481D01*
X18333373Y-55577963D01*
X18163534Y-55526443D01*
X18007009Y-55442778D01*
X17971271Y-55413448D01*
X17869814Y-55330186D01*
X17786552Y-55228729D01*
X17757222Y-55192991D01*
X17673557Y-55036466D01*
X17622037Y-54866627D01*
X17604641Y-54690000D01*
X17622037Y-54513373D01*
X17673557Y-54343534D01*
X17706226Y-54282416D01*
X17757221Y-54187011D01*
X17757222Y-54187009D01*
X17786552Y-54151271D01*
X17869814Y-54049814D01*
X17971271Y-53966552D01*
X18007009Y-53937222D01*
X18163534Y-53853557D01*
X18333373Y-53802037D01*
X18399558Y-53795518D01*
X18465740Y-53789000D01*
X18554260Y-53789000D01*
X18620442Y-53795518D01*
X18620442Y-53795518D01*
G37*
G36*
X62375256Y-51391298D02*
G01*
X62481579Y-51412447D01*
X62589588Y-51457186D01*
X62716644Y-51509814D01*
X62782042Y-51536903D01*
X63052451Y-51717585D01*
X63282415Y-51947549D01*
X63463097Y-52217958D01*
X63578460Y-52496468D01*
X63587553Y-52518422D01*
X63646350Y-52814011D01*
X63651000Y-52837391D01*
X63651000Y-53162609D01*
X63587553Y-53481579D01*
X63463097Y-53782042D01*
X63282415Y-54052451D01*
X63052451Y-54282415D01*
X62782042Y-54463097D01*
X62481579Y-54587553D01*
X62375256Y-54608702D01*
X62162611Y-54651000D01*
X61837389Y-54651000D01*
X61624744Y-54608702D01*
X61518421Y-54587553D01*
X61217958Y-54463097D01*
X60947549Y-54282415D01*
X60717585Y-54052451D01*
X60536903Y-53782042D01*
X60412447Y-53481579D01*
X60349000Y-53162609D01*
X60349000Y-52837391D01*
X60353651Y-52814011D01*
X60412447Y-52518422D01*
X60421541Y-52496468D01*
X60536903Y-52217958D01*
X60717585Y-51947549D01*
X60947549Y-51717585D01*
X61217958Y-51536903D01*
X61283357Y-51509814D01*
X61410412Y-51457186D01*
X61518421Y-51412447D01*
X61624744Y-51391298D01*
X61837389Y-51349000D01*
X62162611Y-51349000D01*
X62375256Y-51391298D01*
X62375256Y-51391298D01*
G37*
G36*
X3375256Y-51391298D02*
G01*
X3481579Y-51412447D01*
X3589588Y-51457186D01*
X3716644Y-51509814D01*
X3782042Y-51536903D01*
X4052451Y-51717585D01*
X4282415Y-51947549D01*
X4463097Y-52217958D01*
X4578460Y-52496468D01*
X4587553Y-52518422D01*
X4646350Y-52814011D01*
X4651000Y-52837391D01*
X4651000Y-53162609D01*
X4587553Y-53481579D01*
X4463097Y-53782042D01*
X4282415Y-54052451D01*
X4052451Y-54282415D01*
X3782042Y-54463097D01*
X3481579Y-54587553D01*
X3375256Y-54608702D01*
X3162611Y-54651000D01*
X2837389Y-54651000D01*
X2624744Y-54608702D01*
X2518421Y-54587553D01*
X2217958Y-54463097D01*
X1947549Y-54282415D01*
X1717585Y-54052451D01*
X1536903Y-53782042D01*
X1412447Y-53481579D01*
X1349000Y-53162609D01*
X1349000Y-52837391D01*
X1353651Y-52814011D01*
X1412447Y-52518422D01*
X1421541Y-52496468D01*
X1536903Y-52217958D01*
X1717585Y-51947549D01*
X1947549Y-51717585D01*
X2217958Y-51536903D01*
X2283357Y-51509814D01*
X2410412Y-51457186D01*
X2518421Y-51412447D01*
X2624744Y-51391298D01*
X2837389Y-51349000D01*
X3162611Y-51349000D01*
X3375256Y-51391298D01*
X3375256Y-51391298D01*
G37*
G36*
X67946442Y-52427518D02*
G01*
X68012627Y-52434037D01*
X68182466Y-52485557D01*
X68338991Y-52569222D01*
X68374729Y-52598552D01*
X68476186Y-52681814D01*
X68559448Y-52783271D01*
X68588778Y-52819009D01*
X68672443Y-52975534D01*
X68723963Y-53145373D01*
X68741359Y-53322000D01*
X68723963Y-53498627D01*
X68672443Y-53668466D01*
X68588778Y-53824991D01*
X68559448Y-53860729D01*
X68476186Y-53962186D01*
X68374729Y-54045448D01*
X68338991Y-54074778D01*
X68182466Y-54158443D01*
X68012627Y-54209963D01*
X67946443Y-54216481D01*
X67880260Y-54223000D01*
X67541740Y-54223000D01*
X67475557Y-54216481D01*
X67409373Y-54209963D01*
X67239534Y-54158443D01*
X67083009Y-54074778D01*
X67047271Y-54045448D01*
X66945814Y-53962186D01*
X66862552Y-53860729D01*
X66833222Y-53824991D01*
X66749557Y-53668466D01*
X66698037Y-53498627D01*
X66680641Y-53322000D01*
X66698037Y-53145373D01*
X66749557Y-52975534D01*
X66833222Y-52819009D01*
X66862552Y-52783271D01*
X66945814Y-52681814D01*
X67047271Y-52598552D01*
X67083009Y-52569222D01*
X67239534Y-52485557D01*
X67409373Y-52434037D01*
X67475557Y-52427519D01*
X67541740Y-52421000D01*
X67880260Y-52421000D01*
X67946442Y-52427518D01*
X67946442Y-52427518D01*
G37*
G36*
X72884025Y-52421000D02*
G01*
X72965627Y-52429037D01*
X73135466Y-52480557D01*
X73291991Y-52564222D01*
X73298082Y-52569221D01*
X73429186Y-52676814D01*
X73512448Y-52778271D01*
X73541778Y-52814009D01*
X73625443Y-52970534D01*
X73676963Y-53140373D01*
X73694359Y-53317000D01*
X73676963Y-53493627D01*
X73625443Y-53663466D01*
X73541778Y-53819991D01*
X73514231Y-53853557D01*
X73429186Y-53957186D01*
X73327729Y-54040448D01*
X73291991Y-54069778D01*
X73135466Y-54153443D01*
X72965627Y-54204963D01*
X72914860Y-54209963D01*
X72833260Y-54218000D01*
X72494740Y-54218000D01*
X72413140Y-54209963D01*
X72362373Y-54204963D01*
X72192534Y-54153443D01*
X72036009Y-54069778D01*
X72000271Y-54040448D01*
X71898814Y-53957186D01*
X71813769Y-53853557D01*
X71786222Y-53819991D01*
X71702557Y-53663466D01*
X71651037Y-53493627D01*
X71633641Y-53317000D01*
X71651037Y-53140373D01*
X71702557Y-52970534D01*
X71786222Y-52814009D01*
X71815552Y-52778271D01*
X71898814Y-52676814D01*
X72029918Y-52569221D01*
X72036009Y-52564222D01*
X72192534Y-52480557D01*
X72362373Y-52429037D01*
X72443975Y-52421000D01*
X72494740Y-52416000D01*
X72833260Y-52416000D01*
X72884025Y-52421000D01*
X72884025Y-52421000D01*
G37*
G36*
X46560443Y-51255519D02*
G01*
X46626627Y-51262037D01*
X46796466Y-51313557D01*
X46952991Y-51397222D01*
X46988729Y-51426552D01*
X47090186Y-51509814D01*
X47173448Y-51611271D01*
X47202778Y-51647009D01*
X47286443Y-51803534D01*
X47337963Y-51973373D01*
X47355359Y-52150000D01*
X47337963Y-52326627D01*
X47286443Y-52496466D01*
X47202778Y-52652991D01*
X47173448Y-52688729D01*
X47090186Y-52790186D01*
X46988729Y-52873448D01*
X46952991Y-52902778D01*
X46796466Y-52986443D01*
X46626627Y-53037963D01*
X46560442Y-53044482D01*
X46494260Y-53051000D01*
X46405740Y-53051000D01*
X46339558Y-53044482D01*
X46273373Y-53037963D01*
X46103534Y-52986443D01*
X45947009Y-52902778D01*
X45911271Y-52873448D01*
X45809814Y-52790186D01*
X45726552Y-52688729D01*
X45697222Y-52652991D01*
X45613557Y-52496466D01*
X45562037Y-52326627D01*
X45544641Y-52150000D01*
X45562037Y-51973373D01*
X45613557Y-51803534D01*
X45697222Y-51647009D01*
X45726552Y-51611271D01*
X45809814Y-51509814D01*
X45911271Y-51426552D01*
X45947009Y-51397222D01*
X46103534Y-51313557D01*
X46273373Y-51262037D01*
X46339558Y-51255518D01*
X46405740Y-51249000D01*
X46494260Y-51249000D01*
X46560443Y-51255519D01*
X46560443Y-51255519D01*
G37*
G36*
X18620443Y-51255519D02*
G01*
X18686627Y-51262037D01*
X18856466Y-51313557D01*
X19012991Y-51397222D01*
X19048729Y-51426552D01*
X19150186Y-51509814D01*
X19233448Y-51611271D01*
X19262778Y-51647009D01*
X19346443Y-51803534D01*
X19397963Y-51973373D01*
X19415359Y-52150000D01*
X19397963Y-52326627D01*
X19346443Y-52496466D01*
X19262778Y-52652991D01*
X19233448Y-52688729D01*
X19150186Y-52790186D01*
X19048729Y-52873448D01*
X19012991Y-52902778D01*
X18856466Y-52986443D01*
X18686627Y-53037963D01*
X18620442Y-53044482D01*
X18554260Y-53051000D01*
X18465740Y-53051000D01*
X18399558Y-53044482D01*
X18333373Y-53037963D01*
X18163534Y-52986443D01*
X18007009Y-52902778D01*
X17971271Y-52873448D01*
X17869814Y-52790186D01*
X17786552Y-52688729D01*
X17757222Y-52652991D01*
X17673557Y-52496466D01*
X17622037Y-52326627D01*
X17604641Y-52150000D01*
X17622037Y-51973373D01*
X17673557Y-51803534D01*
X17757222Y-51647009D01*
X17786552Y-51611271D01*
X17869814Y-51509814D01*
X17971271Y-51426552D01*
X18007009Y-51397222D01*
X18163534Y-51313557D01*
X18333373Y-51262037D01*
X18399558Y-51255518D01*
X18465740Y-51249000D01*
X18554260Y-51249000D01*
X18620443Y-51255519D01*
X18620443Y-51255519D01*
G37*
G36*
X21160443Y-51255519D02*
G01*
X21226627Y-51262037D01*
X21396466Y-51313557D01*
X21552991Y-51397222D01*
X21588729Y-51426552D01*
X21690186Y-51509814D01*
X21773448Y-51611271D01*
X21802778Y-51647009D01*
X21886443Y-51803534D01*
X21937963Y-51973373D01*
X21955359Y-52150000D01*
X21937963Y-52326627D01*
X21886443Y-52496466D01*
X21802778Y-52652991D01*
X21773448Y-52688729D01*
X21690186Y-52790186D01*
X21588729Y-52873448D01*
X21552991Y-52902778D01*
X21396466Y-52986443D01*
X21226627Y-53037963D01*
X21160442Y-53044482D01*
X21094260Y-53051000D01*
X21005740Y-53051000D01*
X20939558Y-53044482D01*
X20873373Y-53037963D01*
X20703534Y-52986443D01*
X20547009Y-52902778D01*
X20511271Y-52873448D01*
X20409814Y-52790186D01*
X20326552Y-52688729D01*
X20297222Y-52652991D01*
X20213557Y-52496466D01*
X20162037Y-52326627D01*
X20144641Y-52150000D01*
X20162037Y-51973373D01*
X20213557Y-51803534D01*
X20297222Y-51647009D01*
X20326552Y-51611271D01*
X20409814Y-51509814D01*
X20511271Y-51426552D01*
X20547009Y-51397222D01*
X20703534Y-51313557D01*
X20873373Y-51262037D01*
X20939558Y-51255518D01*
X21005740Y-51249000D01*
X21094260Y-51249000D01*
X21160443Y-51255519D01*
X21160443Y-51255519D01*
G37*
G36*
X16080443Y-51255519D02*
G01*
X16146627Y-51262037D01*
X16316466Y-51313557D01*
X16472991Y-51397222D01*
X16508729Y-51426552D01*
X16610186Y-51509814D01*
X16693448Y-51611271D01*
X16722778Y-51647009D01*
X16806443Y-51803534D01*
X16857963Y-51973373D01*
X16875359Y-52150000D01*
X16857963Y-52326627D01*
X16806443Y-52496466D01*
X16722778Y-52652991D01*
X16693448Y-52688729D01*
X16610186Y-52790186D01*
X16508729Y-52873448D01*
X16472991Y-52902778D01*
X16316466Y-52986443D01*
X16146627Y-53037963D01*
X16080442Y-53044482D01*
X16014260Y-53051000D01*
X15925740Y-53051000D01*
X15859558Y-53044482D01*
X15793373Y-53037963D01*
X15623534Y-52986443D01*
X15467009Y-52902778D01*
X15431271Y-52873448D01*
X15329814Y-52790186D01*
X15246552Y-52688729D01*
X15217222Y-52652991D01*
X15133557Y-52496466D01*
X15082037Y-52326627D01*
X15064641Y-52150000D01*
X15082037Y-51973373D01*
X15133557Y-51803534D01*
X15217222Y-51647009D01*
X15246552Y-51611271D01*
X15329814Y-51509814D01*
X15431271Y-51426552D01*
X15467009Y-51397222D01*
X15623534Y-51313557D01*
X15793373Y-51262037D01*
X15859557Y-51255519D01*
X15925740Y-51249000D01*
X16014260Y-51249000D01*
X16080443Y-51255519D01*
X16080443Y-51255519D01*
G37*
G36*
X23700443Y-51255519D02*
G01*
X23766627Y-51262037D01*
X23936466Y-51313557D01*
X24092991Y-51397222D01*
X24128729Y-51426552D01*
X24230186Y-51509814D01*
X24313448Y-51611271D01*
X24342778Y-51647009D01*
X24426443Y-51803534D01*
X24477963Y-51973373D01*
X24495359Y-52150000D01*
X24477963Y-52326627D01*
X24426443Y-52496466D01*
X24342778Y-52652991D01*
X24313448Y-52688729D01*
X24230186Y-52790186D01*
X24128729Y-52873448D01*
X24092991Y-52902778D01*
X23936466Y-52986443D01*
X23766627Y-53037963D01*
X23700442Y-53044482D01*
X23634260Y-53051000D01*
X23545740Y-53051000D01*
X23479558Y-53044482D01*
X23413373Y-53037963D01*
X23243534Y-52986443D01*
X23087009Y-52902778D01*
X23051271Y-52873448D01*
X22949814Y-52790186D01*
X22866552Y-52688729D01*
X22837222Y-52652991D01*
X22753557Y-52496466D01*
X22702037Y-52326627D01*
X22684641Y-52150000D01*
X22702037Y-51973373D01*
X22753557Y-51803534D01*
X22837222Y-51647009D01*
X22866552Y-51611271D01*
X22949814Y-51509814D01*
X23051271Y-51426552D01*
X23087009Y-51397222D01*
X23243534Y-51313557D01*
X23413373Y-51262037D01*
X23479558Y-51255518D01*
X23545740Y-51249000D01*
X23634260Y-51249000D01*
X23700443Y-51255519D01*
X23700443Y-51255519D01*
G37*
G36*
X13540443Y-51255519D02*
G01*
X13606627Y-51262037D01*
X13776466Y-51313557D01*
X13932991Y-51397222D01*
X13968729Y-51426552D01*
X14070186Y-51509814D01*
X14153448Y-51611271D01*
X14182778Y-51647009D01*
X14266443Y-51803534D01*
X14317963Y-51973373D01*
X14335359Y-52150000D01*
X14317963Y-52326627D01*
X14266443Y-52496466D01*
X14182778Y-52652991D01*
X14153448Y-52688729D01*
X14070186Y-52790186D01*
X13968729Y-52873448D01*
X13932991Y-52902778D01*
X13776466Y-52986443D01*
X13606627Y-53037963D01*
X13540442Y-53044482D01*
X13474260Y-53051000D01*
X13385740Y-53051000D01*
X13319558Y-53044482D01*
X13253373Y-53037963D01*
X13083534Y-52986443D01*
X12927009Y-52902778D01*
X12891271Y-52873448D01*
X12789814Y-52790186D01*
X12706552Y-52688729D01*
X12677222Y-52652991D01*
X12593557Y-52496466D01*
X12542037Y-52326627D01*
X12524641Y-52150000D01*
X12542037Y-51973373D01*
X12593557Y-51803534D01*
X12677222Y-51647009D01*
X12706552Y-51611271D01*
X12789814Y-51509814D01*
X12891271Y-51426552D01*
X12927009Y-51397222D01*
X13083534Y-51313557D01*
X13253373Y-51262037D01*
X13319557Y-51255519D01*
X13385740Y-51249000D01*
X13474260Y-51249000D01*
X13540443Y-51255519D01*
X13540443Y-51255519D01*
G37*
G36*
X26240443Y-51255519D02*
G01*
X26306627Y-51262037D01*
X26476466Y-51313557D01*
X26632991Y-51397222D01*
X26668729Y-51426552D01*
X26770186Y-51509814D01*
X26853448Y-51611271D01*
X26882778Y-51647009D01*
X26966443Y-51803534D01*
X27017963Y-51973373D01*
X27035359Y-52150000D01*
X27017963Y-52326627D01*
X26966443Y-52496466D01*
X26882778Y-52652991D01*
X26853448Y-52688729D01*
X26770186Y-52790186D01*
X26668729Y-52873448D01*
X26632991Y-52902778D01*
X26476466Y-52986443D01*
X26306627Y-53037963D01*
X26240442Y-53044482D01*
X26174260Y-53051000D01*
X26085740Y-53051000D01*
X26019558Y-53044482D01*
X25953373Y-53037963D01*
X25783534Y-52986443D01*
X25627009Y-52902778D01*
X25591271Y-52873448D01*
X25489814Y-52790186D01*
X25406552Y-52688729D01*
X25377222Y-52652991D01*
X25293557Y-52496466D01*
X25242037Y-52326627D01*
X25224641Y-52150000D01*
X25242037Y-51973373D01*
X25293557Y-51803534D01*
X25377222Y-51647009D01*
X25406552Y-51611271D01*
X25489814Y-51509814D01*
X25591271Y-51426552D01*
X25627009Y-51397222D01*
X25783534Y-51313557D01*
X25953373Y-51262037D01*
X26019558Y-51255518D01*
X26085740Y-51249000D01*
X26174260Y-51249000D01*
X26240443Y-51255519D01*
X26240443Y-51255519D01*
G37*
G36*
X28780443Y-51255519D02*
G01*
X28846627Y-51262037D01*
X29016466Y-51313557D01*
X29172991Y-51397222D01*
X29208729Y-51426552D01*
X29310186Y-51509814D01*
X29393448Y-51611271D01*
X29422778Y-51647009D01*
X29506443Y-51803534D01*
X29557963Y-51973373D01*
X29575359Y-52150000D01*
X29557963Y-52326627D01*
X29506443Y-52496466D01*
X29422778Y-52652991D01*
X29393448Y-52688729D01*
X29310186Y-52790186D01*
X29208729Y-52873448D01*
X29172991Y-52902778D01*
X29016466Y-52986443D01*
X28846627Y-53037963D01*
X28780442Y-53044482D01*
X28714260Y-53051000D01*
X28625740Y-53051000D01*
X28559558Y-53044482D01*
X28493373Y-53037963D01*
X28323534Y-52986443D01*
X28167009Y-52902778D01*
X28131271Y-52873448D01*
X28029814Y-52790186D01*
X27946552Y-52688729D01*
X27917222Y-52652991D01*
X27833557Y-52496466D01*
X27782037Y-52326627D01*
X27764641Y-52150000D01*
X27782037Y-51973373D01*
X27833557Y-51803534D01*
X27917222Y-51647009D01*
X27946552Y-51611271D01*
X28029814Y-51509814D01*
X28131271Y-51426552D01*
X28167009Y-51397222D01*
X28323534Y-51313557D01*
X28493373Y-51262037D01*
X28559558Y-51255518D01*
X28625740Y-51249000D01*
X28714260Y-51249000D01*
X28780443Y-51255519D01*
X28780443Y-51255519D01*
G37*
G36*
X11000443Y-51255519D02*
G01*
X11066627Y-51262037D01*
X11236466Y-51313557D01*
X11392991Y-51397222D01*
X11428729Y-51426552D01*
X11530186Y-51509814D01*
X11613448Y-51611271D01*
X11642778Y-51647009D01*
X11726443Y-51803534D01*
X11777963Y-51973373D01*
X11795359Y-52150000D01*
X11777963Y-52326627D01*
X11726443Y-52496466D01*
X11642778Y-52652991D01*
X11613448Y-52688729D01*
X11530186Y-52790186D01*
X11428729Y-52873448D01*
X11392991Y-52902778D01*
X11236466Y-52986443D01*
X11066627Y-53037963D01*
X11000442Y-53044482D01*
X10934260Y-53051000D01*
X10845740Y-53051000D01*
X10779558Y-53044482D01*
X10713373Y-53037963D01*
X10543534Y-52986443D01*
X10387009Y-52902778D01*
X10351271Y-52873448D01*
X10249814Y-52790186D01*
X10166552Y-52688729D01*
X10137222Y-52652991D01*
X10053557Y-52496466D01*
X10002037Y-52326627D01*
X9984641Y-52150000D01*
X10002037Y-51973373D01*
X10053557Y-51803534D01*
X10137222Y-51647009D01*
X10166552Y-51611271D01*
X10249814Y-51509814D01*
X10351271Y-51426552D01*
X10387009Y-51397222D01*
X10543534Y-51313557D01*
X10713373Y-51262037D01*
X10779557Y-51255519D01*
X10845740Y-51249000D01*
X10934260Y-51249000D01*
X11000443Y-51255519D01*
X11000443Y-51255519D01*
G37*
G36*
X57511000Y-53051000D02*
G01*
X55709000Y-53051000D01*
X55709000Y-51249000D01*
X57511000Y-51249000D01*
X57511000Y-53051000D01*
X57511000Y-53051000D01*
G37*
G36*
X51640443Y-51255519D02*
G01*
X51706627Y-51262037D01*
X51876466Y-51313557D01*
X52032991Y-51397222D01*
X52068729Y-51426552D01*
X52170186Y-51509814D01*
X52253448Y-51611271D01*
X52282778Y-51647009D01*
X52366443Y-51803534D01*
X52417963Y-51973373D01*
X52435359Y-52150000D01*
X52417963Y-52326627D01*
X52366443Y-52496466D01*
X52282778Y-52652991D01*
X52253448Y-52688729D01*
X52170186Y-52790186D01*
X52068729Y-52873448D01*
X52032991Y-52902778D01*
X51876466Y-52986443D01*
X51706627Y-53037963D01*
X51640442Y-53044482D01*
X51574260Y-53051000D01*
X51485740Y-53051000D01*
X51419558Y-53044482D01*
X51353373Y-53037963D01*
X51183534Y-52986443D01*
X51027009Y-52902778D01*
X50991271Y-52873448D01*
X50889814Y-52790186D01*
X50806552Y-52688729D01*
X50777222Y-52652991D01*
X50693557Y-52496466D01*
X50642037Y-52326627D01*
X50624641Y-52150000D01*
X50642037Y-51973373D01*
X50693557Y-51803534D01*
X50777222Y-51647009D01*
X50806552Y-51611271D01*
X50889814Y-51509814D01*
X50991271Y-51426552D01*
X51027009Y-51397222D01*
X51183534Y-51313557D01*
X51353373Y-51262037D01*
X51419558Y-51255518D01*
X51485740Y-51249000D01*
X51574260Y-51249000D01*
X51640443Y-51255519D01*
X51640443Y-51255519D01*
G37*
G36*
X8460443Y-51255519D02*
G01*
X8526627Y-51262037D01*
X8696466Y-51313557D01*
X8852991Y-51397222D01*
X8888729Y-51426552D01*
X8990186Y-51509814D01*
X9073448Y-51611271D01*
X9102778Y-51647009D01*
X9186443Y-51803534D01*
X9237963Y-51973373D01*
X9255359Y-52150000D01*
X9237963Y-52326627D01*
X9186443Y-52496466D01*
X9102778Y-52652991D01*
X9073448Y-52688729D01*
X8990186Y-52790186D01*
X8888729Y-52873448D01*
X8852991Y-52902778D01*
X8696466Y-52986443D01*
X8526627Y-53037963D01*
X8460442Y-53044482D01*
X8394260Y-53051000D01*
X8305740Y-53051000D01*
X8239558Y-53044482D01*
X8173373Y-53037963D01*
X8003534Y-52986443D01*
X7847009Y-52902778D01*
X7811271Y-52873448D01*
X7709814Y-52790186D01*
X7626552Y-52688729D01*
X7597222Y-52652991D01*
X7513557Y-52496466D01*
X7462037Y-52326627D01*
X7444641Y-52150000D01*
X7462037Y-51973373D01*
X7513557Y-51803534D01*
X7597222Y-51647009D01*
X7626552Y-51611271D01*
X7709814Y-51509814D01*
X7811271Y-51426552D01*
X7847009Y-51397222D01*
X8003534Y-51313557D01*
X8173373Y-51262037D01*
X8239557Y-51255519D01*
X8305740Y-51249000D01*
X8394260Y-51249000D01*
X8460443Y-51255519D01*
X8460443Y-51255519D01*
G37*
G36*
X33860443Y-51255519D02*
G01*
X33926627Y-51262037D01*
X34096466Y-51313557D01*
X34252991Y-51397222D01*
X34288729Y-51426552D01*
X34390186Y-51509814D01*
X34473448Y-51611271D01*
X34502778Y-51647009D01*
X34586443Y-51803534D01*
X34637963Y-51973373D01*
X34655359Y-52150000D01*
X34637963Y-52326627D01*
X34586443Y-52496466D01*
X34502778Y-52652991D01*
X34473448Y-52688729D01*
X34390186Y-52790186D01*
X34288729Y-52873448D01*
X34252991Y-52902778D01*
X34096466Y-52986443D01*
X33926627Y-53037963D01*
X33860442Y-53044482D01*
X33794260Y-53051000D01*
X33705740Y-53051000D01*
X33639558Y-53044482D01*
X33573373Y-53037963D01*
X33403534Y-52986443D01*
X33247009Y-52902778D01*
X33211271Y-52873448D01*
X33109814Y-52790186D01*
X33026552Y-52688729D01*
X32997222Y-52652991D01*
X32913557Y-52496466D01*
X32862037Y-52326627D01*
X32844641Y-52150000D01*
X32862037Y-51973373D01*
X32913557Y-51803534D01*
X32997222Y-51647009D01*
X33026552Y-51611271D01*
X33109814Y-51509814D01*
X33211271Y-51426552D01*
X33247009Y-51397222D01*
X33403534Y-51313557D01*
X33573373Y-51262037D01*
X33639558Y-51255518D01*
X33705740Y-51249000D01*
X33794260Y-51249000D01*
X33860443Y-51255519D01*
X33860443Y-51255519D01*
G37*
G36*
X31320443Y-51255519D02*
G01*
X31386627Y-51262037D01*
X31556466Y-51313557D01*
X31712991Y-51397222D01*
X31748729Y-51426552D01*
X31850186Y-51509814D01*
X31933448Y-51611271D01*
X31962778Y-51647009D01*
X32046443Y-51803534D01*
X32097963Y-51973373D01*
X32115359Y-52150000D01*
X32097963Y-52326627D01*
X32046443Y-52496466D01*
X31962778Y-52652991D01*
X31933448Y-52688729D01*
X31850186Y-52790186D01*
X31748729Y-52873448D01*
X31712991Y-52902778D01*
X31556466Y-52986443D01*
X31386627Y-53037963D01*
X31320442Y-53044482D01*
X31254260Y-53051000D01*
X31165740Y-53051000D01*
X31099558Y-53044482D01*
X31033373Y-53037963D01*
X30863534Y-52986443D01*
X30707009Y-52902778D01*
X30671271Y-52873448D01*
X30569814Y-52790186D01*
X30486552Y-52688729D01*
X30457222Y-52652991D01*
X30373557Y-52496466D01*
X30322037Y-52326627D01*
X30304641Y-52150000D01*
X30322037Y-51973373D01*
X30373557Y-51803534D01*
X30457222Y-51647009D01*
X30486552Y-51611271D01*
X30569814Y-51509814D01*
X30671271Y-51426552D01*
X30707009Y-51397222D01*
X30863534Y-51313557D01*
X31033373Y-51262037D01*
X31099558Y-51255518D01*
X31165740Y-51249000D01*
X31254260Y-51249000D01*
X31320443Y-51255519D01*
X31320443Y-51255519D01*
G37*
G36*
X41480443Y-51255519D02*
G01*
X41546627Y-51262037D01*
X41716466Y-51313557D01*
X41872991Y-51397222D01*
X41908729Y-51426552D01*
X42010186Y-51509814D01*
X42093448Y-51611271D01*
X42122778Y-51647009D01*
X42206443Y-51803534D01*
X42257963Y-51973373D01*
X42275359Y-52150000D01*
X42257963Y-52326627D01*
X42206443Y-52496466D01*
X42122778Y-52652991D01*
X42093448Y-52688729D01*
X42010186Y-52790186D01*
X41908729Y-52873448D01*
X41872991Y-52902778D01*
X41716466Y-52986443D01*
X41546627Y-53037963D01*
X41480442Y-53044482D01*
X41414260Y-53051000D01*
X41325740Y-53051000D01*
X41259558Y-53044482D01*
X41193373Y-53037963D01*
X41023534Y-52986443D01*
X40867009Y-52902778D01*
X40831271Y-52873448D01*
X40729814Y-52790186D01*
X40646552Y-52688729D01*
X40617222Y-52652991D01*
X40533557Y-52496466D01*
X40482037Y-52326627D01*
X40464641Y-52150000D01*
X40482037Y-51973373D01*
X40533557Y-51803534D01*
X40617222Y-51647009D01*
X40646552Y-51611271D01*
X40729814Y-51509814D01*
X40831271Y-51426552D01*
X40867009Y-51397222D01*
X41023534Y-51313557D01*
X41193373Y-51262037D01*
X41259558Y-51255518D01*
X41325740Y-51249000D01*
X41414260Y-51249000D01*
X41480443Y-51255519D01*
X41480443Y-51255519D01*
G37*
G36*
X44020443Y-51255519D02*
G01*
X44086627Y-51262037D01*
X44256466Y-51313557D01*
X44412991Y-51397222D01*
X44448729Y-51426552D01*
X44550186Y-51509814D01*
X44633448Y-51611271D01*
X44662778Y-51647009D01*
X44746443Y-51803534D01*
X44797963Y-51973373D01*
X44815359Y-52150000D01*
X44797963Y-52326627D01*
X44746443Y-52496466D01*
X44662778Y-52652991D01*
X44633448Y-52688729D01*
X44550186Y-52790186D01*
X44448729Y-52873448D01*
X44412991Y-52902778D01*
X44256466Y-52986443D01*
X44086627Y-53037963D01*
X44020442Y-53044482D01*
X43954260Y-53051000D01*
X43865740Y-53051000D01*
X43799558Y-53044482D01*
X43733373Y-53037963D01*
X43563534Y-52986443D01*
X43407009Y-52902778D01*
X43371271Y-52873448D01*
X43269814Y-52790186D01*
X43186552Y-52688729D01*
X43157222Y-52652991D01*
X43073557Y-52496466D01*
X43022037Y-52326627D01*
X43004641Y-52150000D01*
X43022037Y-51973373D01*
X43073557Y-51803534D01*
X43157222Y-51647009D01*
X43186552Y-51611271D01*
X43269814Y-51509814D01*
X43371271Y-51426552D01*
X43407009Y-51397222D01*
X43563534Y-51313557D01*
X43733373Y-51262037D01*
X43799558Y-51255518D01*
X43865740Y-51249000D01*
X43954260Y-51249000D01*
X44020443Y-51255519D01*
X44020443Y-51255519D01*
G37*
G36*
X36400443Y-51255519D02*
G01*
X36466627Y-51262037D01*
X36636466Y-51313557D01*
X36792991Y-51397222D01*
X36828729Y-51426552D01*
X36930186Y-51509814D01*
X37013448Y-51611271D01*
X37042778Y-51647009D01*
X37126443Y-51803534D01*
X37177963Y-51973373D01*
X37195359Y-52150000D01*
X37177963Y-52326627D01*
X37126443Y-52496466D01*
X37042778Y-52652991D01*
X37013448Y-52688729D01*
X36930186Y-52790186D01*
X36828729Y-52873448D01*
X36792991Y-52902778D01*
X36636466Y-52986443D01*
X36466627Y-53037963D01*
X36400442Y-53044482D01*
X36334260Y-53051000D01*
X36245740Y-53051000D01*
X36179558Y-53044482D01*
X36113373Y-53037963D01*
X35943534Y-52986443D01*
X35787009Y-52902778D01*
X35751271Y-52873448D01*
X35649814Y-52790186D01*
X35566552Y-52688729D01*
X35537222Y-52652991D01*
X35453557Y-52496466D01*
X35402037Y-52326627D01*
X35384641Y-52150000D01*
X35402037Y-51973373D01*
X35453557Y-51803534D01*
X35537222Y-51647009D01*
X35566552Y-51611271D01*
X35649814Y-51509814D01*
X35751271Y-51426552D01*
X35787009Y-51397222D01*
X35943534Y-51313557D01*
X36113373Y-51262037D01*
X36179558Y-51255518D01*
X36245740Y-51249000D01*
X36334260Y-51249000D01*
X36400443Y-51255519D01*
X36400443Y-51255519D01*
G37*
G36*
X38940443Y-51255519D02*
G01*
X39006627Y-51262037D01*
X39176466Y-51313557D01*
X39332991Y-51397222D01*
X39368729Y-51426552D01*
X39470186Y-51509814D01*
X39553448Y-51611271D01*
X39582778Y-51647009D01*
X39666443Y-51803534D01*
X39717963Y-51973373D01*
X39735359Y-52150000D01*
X39717963Y-52326627D01*
X39666443Y-52496466D01*
X39582778Y-52652991D01*
X39553448Y-52688729D01*
X39470186Y-52790186D01*
X39368729Y-52873448D01*
X39332991Y-52902778D01*
X39176466Y-52986443D01*
X39006627Y-53037963D01*
X38940442Y-53044482D01*
X38874260Y-53051000D01*
X38785740Y-53051000D01*
X38719558Y-53044482D01*
X38653373Y-53037963D01*
X38483534Y-52986443D01*
X38327009Y-52902778D01*
X38291271Y-52873448D01*
X38189814Y-52790186D01*
X38106552Y-52688729D01*
X38077222Y-52652991D01*
X37993557Y-52496466D01*
X37942037Y-52326627D01*
X37924641Y-52150000D01*
X37942037Y-51973373D01*
X37993557Y-51803534D01*
X38077222Y-51647009D01*
X38106552Y-51611271D01*
X38189814Y-51509814D01*
X38291271Y-51426552D01*
X38327009Y-51397222D01*
X38483534Y-51313557D01*
X38653373Y-51262037D01*
X38719558Y-51255518D01*
X38785740Y-51249000D01*
X38874260Y-51249000D01*
X38940443Y-51255519D01*
X38940443Y-51255519D01*
G37*
G36*
X49100443Y-51255519D02*
G01*
X49166627Y-51262037D01*
X49336466Y-51313557D01*
X49492991Y-51397222D01*
X49528729Y-51426552D01*
X49630186Y-51509814D01*
X49713448Y-51611271D01*
X49742778Y-51647009D01*
X49826443Y-51803534D01*
X49877963Y-51973373D01*
X49895359Y-52150000D01*
X49877963Y-52326627D01*
X49826443Y-52496466D01*
X49742778Y-52652991D01*
X49713448Y-52688729D01*
X49630186Y-52790186D01*
X49528729Y-52873448D01*
X49492991Y-52902778D01*
X49336466Y-52986443D01*
X49166627Y-53037963D01*
X49100442Y-53044482D01*
X49034260Y-53051000D01*
X48945740Y-53051000D01*
X48879558Y-53044482D01*
X48813373Y-53037963D01*
X48643534Y-52986443D01*
X48487009Y-52902778D01*
X48451271Y-52873448D01*
X48349814Y-52790186D01*
X48266552Y-52688729D01*
X48237222Y-52652991D01*
X48153557Y-52496466D01*
X48102037Y-52326627D01*
X48084641Y-52150000D01*
X48102037Y-51973373D01*
X48153557Y-51803534D01*
X48237222Y-51647009D01*
X48266552Y-51611271D01*
X48349814Y-51509814D01*
X48451271Y-51426552D01*
X48487009Y-51397222D01*
X48643534Y-51313557D01*
X48813373Y-51262037D01*
X48879558Y-51255518D01*
X48945740Y-51249000D01*
X49034260Y-51249000D01*
X49100443Y-51255519D01*
X49100443Y-51255519D01*
G37*
G36*
X54180443Y-51255519D02*
G01*
X54246627Y-51262037D01*
X54416466Y-51313557D01*
X54572991Y-51397222D01*
X54608729Y-51426552D01*
X54710186Y-51509814D01*
X54793448Y-51611271D01*
X54822778Y-51647009D01*
X54906443Y-51803534D01*
X54957963Y-51973373D01*
X54975359Y-52150000D01*
X54957963Y-52326627D01*
X54906443Y-52496466D01*
X54822778Y-52652991D01*
X54793448Y-52688729D01*
X54710186Y-52790186D01*
X54608729Y-52873448D01*
X54572991Y-52902778D01*
X54416466Y-52986443D01*
X54246627Y-53037963D01*
X54180442Y-53044482D01*
X54114260Y-53051000D01*
X54025740Y-53051000D01*
X53959558Y-53044482D01*
X53893373Y-53037963D01*
X53723534Y-52986443D01*
X53567009Y-52902778D01*
X53531271Y-52873448D01*
X53429814Y-52790186D01*
X53346552Y-52688729D01*
X53317222Y-52652991D01*
X53233557Y-52496466D01*
X53182037Y-52326627D01*
X53164641Y-52150000D01*
X53182037Y-51973373D01*
X53233557Y-51803534D01*
X53317222Y-51647009D01*
X53346552Y-51611271D01*
X53429814Y-51509814D01*
X53531271Y-51426552D01*
X53567009Y-51397222D01*
X53723534Y-51313557D01*
X53893373Y-51262037D01*
X53959558Y-51255518D01*
X54025740Y-51249000D01*
X54114260Y-51249000D01*
X54180443Y-51255519D01*
X54180443Y-51255519D01*
G37*
G36*
X67946443Y-49927519D02*
G01*
X68012627Y-49934037D01*
X68182466Y-49985557D01*
X68338991Y-50069222D01*
X68374729Y-50098552D01*
X68476186Y-50181814D01*
X68559448Y-50283271D01*
X68588778Y-50319009D01*
X68672443Y-50475534D01*
X68723963Y-50645373D01*
X68741359Y-50822000D01*
X68723963Y-50998627D01*
X68672443Y-51168466D01*
X68588778Y-51324991D01*
X68569074Y-51349000D01*
X68476186Y-51462186D01*
X68374729Y-51545448D01*
X68338991Y-51574778D01*
X68182466Y-51658443D01*
X68012627Y-51709963D01*
X67946442Y-51716482D01*
X67880260Y-51723000D01*
X67541740Y-51723000D01*
X67475557Y-51716481D01*
X67409373Y-51709963D01*
X67239534Y-51658443D01*
X67083009Y-51574778D01*
X67047271Y-51545448D01*
X66945814Y-51462186D01*
X66852926Y-51349000D01*
X66833222Y-51324991D01*
X66749557Y-51168466D01*
X66698037Y-50998627D01*
X66680641Y-50822000D01*
X66698037Y-50645373D01*
X66749557Y-50475534D01*
X66833222Y-50319009D01*
X66862552Y-50283271D01*
X66945814Y-50181814D01*
X67047271Y-50098552D01*
X67083009Y-50069222D01*
X67239534Y-49985557D01*
X67409373Y-49934037D01*
X67475558Y-49927518D01*
X67541740Y-49921000D01*
X67880260Y-49921000D01*
X67946443Y-49927519D01*
X67946443Y-49927519D01*
G37*
G36*
X72884025Y-49921000D02*
G01*
X72965627Y-49929037D01*
X73135466Y-49980557D01*
X73291991Y-50064222D01*
X73298082Y-50069221D01*
X73429186Y-50176814D01*
X73512448Y-50278271D01*
X73541778Y-50314009D01*
X73625443Y-50470534D01*
X73676963Y-50640373D01*
X73694359Y-50817000D01*
X73676963Y-50993627D01*
X73625443Y-51163466D01*
X73541778Y-51319991D01*
X73517971Y-51349000D01*
X73429186Y-51457186D01*
X73365056Y-51509815D01*
X73291991Y-51569778D01*
X73135466Y-51653443D01*
X72965627Y-51704963D01*
X72914860Y-51709963D01*
X72833260Y-51718000D01*
X72494740Y-51718000D01*
X72413140Y-51709963D01*
X72362373Y-51704963D01*
X72192534Y-51653443D01*
X72036009Y-51569778D01*
X71962944Y-51509815D01*
X71898814Y-51457186D01*
X71810029Y-51349000D01*
X71786222Y-51319991D01*
X71702557Y-51163466D01*
X71651037Y-50993627D01*
X71633641Y-50817000D01*
X71651037Y-50640373D01*
X71702557Y-50470534D01*
X71786222Y-50314009D01*
X71815552Y-50278271D01*
X71898814Y-50176814D01*
X72029918Y-50069221D01*
X72036009Y-50064222D01*
X72192534Y-49980557D01*
X72362373Y-49929037D01*
X72443975Y-49921000D01*
X72494740Y-49916000D01*
X72833260Y-49916000D01*
X72884025Y-49921000D01*
X72884025Y-49921000D01*
G37*
G36*
X67946442Y-47427518D02*
G01*
X68012627Y-47434037D01*
X68182466Y-47485557D01*
X68182468Y-47485558D01*
X68218858Y-47505009D01*
X68338991Y-47569222D01*
X68367033Y-47592236D01*
X68476186Y-47681814D01*
X68559448Y-47783271D01*
X68588778Y-47819009D01*
X68588779Y-47819011D01*
X68666140Y-47963741D01*
X68672443Y-47975534D01*
X68723963Y-48145373D01*
X68741359Y-48322000D01*
X68723963Y-48498627D01*
X68672443Y-48668466D01*
X68588778Y-48824991D01*
X68571986Y-48845452D01*
X68476186Y-48962186D01*
X68409881Y-49016600D01*
X68338991Y-49074778D01*
X68182466Y-49158443D01*
X68012627Y-49209963D01*
X67946443Y-49216481D01*
X67880260Y-49223000D01*
X67541740Y-49223000D01*
X67475557Y-49216481D01*
X67409373Y-49209963D01*
X67239534Y-49158443D01*
X67083009Y-49074778D01*
X67012119Y-49016600D01*
X66945814Y-48962186D01*
X66850014Y-48845452D01*
X66833222Y-48824991D01*
X66749557Y-48668466D01*
X66698037Y-48498627D01*
X66680641Y-48322000D01*
X66698037Y-48145373D01*
X66749557Y-47975534D01*
X66755861Y-47963741D01*
X66833221Y-47819011D01*
X66833222Y-47819009D01*
X66862552Y-47783271D01*
X66945814Y-47681814D01*
X67054967Y-47592236D01*
X67083009Y-47569222D01*
X67203142Y-47505009D01*
X67239532Y-47485558D01*
X67239534Y-47485557D01*
X67409373Y-47434037D01*
X67475558Y-47427518D01*
X67541740Y-47421000D01*
X67880260Y-47421000D01*
X67946442Y-47427518D01*
X67946442Y-47427518D01*
G37*
G36*
X72884025Y-47421000D02*
G01*
X72965627Y-47429037D01*
X73135466Y-47480557D01*
X73135468Y-47480558D01*
X73162348Y-47494926D01*
X73291991Y-47564222D01*
X73313216Y-47581641D01*
X73429186Y-47676814D01*
X73512448Y-47778271D01*
X73541778Y-47814009D01*
X73625443Y-47970534D01*
X73676963Y-48140373D01*
X73694359Y-48317000D01*
X73676963Y-48493627D01*
X73625443Y-48663466D01*
X73541778Y-48819991D01*
X73515803Y-48851641D01*
X73429186Y-48957186D01*
X73327729Y-49040448D01*
X73291991Y-49069778D01*
X73135466Y-49153443D01*
X72965627Y-49204963D01*
X72914860Y-49209963D01*
X72833260Y-49218000D01*
X72494740Y-49218000D01*
X72413140Y-49209963D01*
X72362373Y-49204963D01*
X72192534Y-49153443D01*
X72036009Y-49069778D01*
X72000271Y-49040448D01*
X71898814Y-48957186D01*
X71812197Y-48851641D01*
X71786222Y-48819991D01*
X71702557Y-48663466D01*
X71651037Y-48493627D01*
X71633641Y-48317000D01*
X71651037Y-48140373D01*
X71702557Y-47970534D01*
X71786222Y-47814009D01*
X71815552Y-47778271D01*
X71898814Y-47676814D01*
X72014784Y-47581641D01*
X72036009Y-47564222D01*
X72165652Y-47494926D01*
X72192532Y-47480558D01*
X72192534Y-47480557D01*
X72362373Y-47429037D01*
X72443975Y-47421000D01*
X72494740Y-47416000D01*
X72833260Y-47416000D01*
X72884025Y-47421000D01*
X72884025Y-47421000D01*
G37*
G36*
X15623627Y-47120037D02*
G01*
X15793466Y-47171557D01*
X15949991Y-47255222D01*
X15985729Y-47284552D01*
X16087186Y-47367814D01*
X16157701Y-47453738D01*
X16199778Y-47505009D01*
X16283443Y-47661534D01*
X16334963Y-47831374D01*
X16348000Y-47963743D01*
X16348000Y-48302258D01*
X16334963Y-48434627D01*
X16283443Y-48604466D01*
X16199778Y-48760991D01*
X16178430Y-48787003D01*
X16087186Y-48898186D01*
X15949989Y-49010779D01*
X15793467Y-49094442D01*
X15793465Y-49094443D01*
X15623626Y-49145963D01*
X15447000Y-49163359D01*
X15270373Y-49145963D01*
X15100534Y-49094443D01*
X15063746Y-49074779D01*
X14944011Y-49010779D01*
X14944009Y-49010778D01*
X14901750Y-48976097D01*
X14806814Y-48898186D01*
X14694221Y-48760989D01*
X14610558Y-48604467D01*
X14610557Y-48604465D01*
X14559037Y-48434626D01*
X14551368Y-48356757D01*
X14546000Y-48302259D01*
X14546000Y-47963740D01*
X14559037Y-47831375D01*
X14559037Y-47831373D01*
X14610557Y-47661534D01*
X14694222Y-47505009D01*
X14806815Y-47367815D01*
X14944010Y-47255222D01*
X15100535Y-47171557D01*
X15270374Y-47120037D01*
X15447000Y-47102641D01*
X15623627Y-47120037D01*
X15623627Y-47120037D01*
G37*
G36*
X8123627Y-47120037D02*
G01*
X8293466Y-47171557D01*
X8449991Y-47255222D01*
X8485729Y-47284552D01*
X8587186Y-47367814D01*
X8657701Y-47453738D01*
X8699778Y-47505009D01*
X8783443Y-47661534D01*
X8834963Y-47831374D01*
X8848000Y-47963743D01*
X8848000Y-48302258D01*
X8834963Y-48434627D01*
X8783443Y-48604466D01*
X8699778Y-48760991D01*
X8678430Y-48787003D01*
X8587186Y-48898186D01*
X8449989Y-49010779D01*
X8293467Y-49094442D01*
X8293465Y-49094443D01*
X8123626Y-49145963D01*
X7947000Y-49163359D01*
X7770373Y-49145963D01*
X7600534Y-49094443D01*
X7563746Y-49074779D01*
X7444011Y-49010779D01*
X7444009Y-49010778D01*
X7401750Y-48976097D01*
X7306814Y-48898186D01*
X7194221Y-48760989D01*
X7110558Y-48604467D01*
X7110557Y-48604465D01*
X7059037Y-48434626D01*
X7051368Y-48356757D01*
X7046000Y-48302259D01*
X7046000Y-47963740D01*
X7059037Y-47831375D01*
X7059037Y-47831373D01*
X7110557Y-47661534D01*
X7194222Y-47505009D01*
X7306815Y-47367815D01*
X7444010Y-47255222D01*
X7600535Y-47171557D01*
X7770374Y-47120037D01*
X7947000Y-47102641D01*
X8123627Y-47120037D01*
X8123627Y-47120037D01*
G37*
G36*
X18123627Y-47120037D02*
G01*
X18293466Y-47171557D01*
X18449991Y-47255222D01*
X18485729Y-47284552D01*
X18587186Y-47367814D01*
X18657701Y-47453738D01*
X18699778Y-47505009D01*
X18783443Y-47661534D01*
X18834963Y-47831374D01*
X18848000Y-47963743D01*
X18848000Y-48302258D01*
X18834963Y-48434627D01*
X18783443Y-48604466D01*
X18699778Y-48760991D01*
X18678430Y-48787003D01*
X18587186Y-48898186D01*
X18449989Y-49010779D01*
X18293467Y-49094442D01*
X18293465Y-49094443D01*
X18123626Y-49145963D01*
X17947000Y-49163359D01*
X17770373Y-49145963D01*
X17600534Y-49094443D01*
X17563746Y-49074779D01*
X17444011Y-49010779D01*
X17444009Y-49010778D01*
X17401750Y-48976097D01*
X17306814Y-48898186D01*
X17194221Y-48760989D01*
X17110558Y-48604467D01*
X17110557Y-48604465D01*
X17059037Y-48434626D01*
X17051368Y-48356757D01*
X17046000Y-48302259D01*
X17046000Y-47963740D01*
X17059037Y-47831375D01*
X17059037Y-47831373D01*
X17110557Y-47661534D01*
X17194222Y-47505009D01*
X17306815Y-47367815D01*
X17444010Y-47255222D01*
X17600535Y-47171557D01*
X17770374Y-47120037D01*
X17947000Y-47102641D01*
X18123627Y-47120037D01*
X18123627Y-47120037D01*
G37*
G36*
X10623627Y-47120037D02*
G01*
X10793466Y-47171557D01*
X10949991Y-47255222D01*
X10985729Y-47284552D01*
X11087186Y-47367814D01*
X11157701Y-47453738D01*
X11199778Y-47505009D01*
X11283443Y-47661534D01*
X11334963Y-47831374D01*
X11348000Y-47963743D01*
X11348000Y-48302258D01*
X11334963Y-48434627D01*
X11283443Y-48604466D01*
X11199778Y-48760991D01*
X11178430Y-48787003D01*
X11087186Y-48898186D01*
X10949989Y-49010779D01*
X10793467Y-49094442D01*
X10793465Y-49094443D01*
X10623626Y-49145963D01*
X10447000Y-49163359D01*
X10270373Y-49145963D01*
X10100534Y-49094443D01*
X10063746Y-49074779D01*
X9944011Y-49010779D01*
X9944009Y-49010778D01*
X9901750Y-48976097D01*
X9806814Y-48898186D01*
X9694221Y-48760989D01*
X9610558Y-48604467D01*
X9610557Y-48604465D01*
X9559037Y-48434626D01*
X9551368Y-48356757D01*
X9546000Y-48302259D01*
X9546000Y-47963740D01*
X9559037Y-47831375D01*
X9559037Y-47831373D01*
X9610557Y-47661534D01*
X9694222Y-47505009D01*
X9806815Y-47367815D01*
X9944010Y-47255222D01*
X10100535Y-47171557D01*
X10270374Y-47120037D01*
X10447000Y-47102641D01*
X10623627Y-47120037D01*
X10623627Y-47120037D01*
G37*
G36*
X13123627Y-47120037D02*
G01*
X13293466Y-47171557D01*
X13449991Y-47255222D01*
X13485729Y-47284552D01*
X13587186Y-47367814D01*
X13657701Y-47453738D01*
X13699778Y-47505009D01*
X13783443Y-47661534D01*
X13834963Y-47831374D01*
X13848000Y-47963743D01*
X13848000Y-48302258D01*
X13834963Y-48434627D01*
X13783443Y-48604466D01*
X13699778Y-48760991D01*
X13678430Y-48787003D01*
X13587186Y-48898186D01*
X13449989Y-49010779D01*
X13293467Y-49094442D01*
X13293465Y-49094443D01*
X13123626Y-49145963D01*
X12947000Y-49163359D01*
X12770373Y-49145963D01*
X12600534Y-49094443D01*
X12563746Y-49074779D01*
X12444011Y-49010779D01*
X12444009Y-49010778D01*
X12401750Y-48976097D01*
X12306814Y-48898186D01*
X12194221Y-48760989D01*
X12110558Y-48604467D01*
X12110557Y-48604465D01*
X12059037Y-48434626D01*
X12051368Y-48356757D01*
X12046000Y-48302259D01*
X12046000Y-47963740D01*
X12059037Y-47831375D01*
X12059037Y-47831373D01*
X12110557Y-47661534D01*
X12194222Y-47505009D01*
X12306815Y-47367815D01*
X12444010Y-47255222D01*
X12600535Y-47171557D01*
X12770374Y-47120037D01*
X12947000Y-47102641D01*
X13123627Y-47120037D01*
X13123627Y-47120037D01*
G37*
G36*
X21205600Y-47110989D02*
G01*
X21238652Y-47121015D01*
X21269103Y-47137292D01*
X21295799Y-47159201D01*
X21317708Y-47185897D01*
X21333985Y-47216348D01*
X21344011Y-47249400D01*
X21348000Y-47289903D01*
X21348000Y-48976097D01*
X21344011Y-49016600D01*
X21333985Y-49049652D01*
X21317708Y-49080103D01*
X21295799Y-49106799D01*
X21269103Y-49128708D01*
X21238652Y-49144985D01*
X21205600Y-49155011D01*
X21165097Y-49159000D01*
X19728903Y-49159000D01*
X19688400Y-49155011D01*
X19655348Y-49144985D01*
X19624897Y-49128708D01*
X19598201Y-49106799D01*
X19576292Y-49080103D01*
X19560015Y-49049652D01*
X19549989Y-49016600D01*
X19546000Y-48976097D01*
X19546000Y-47289903D01*
X19549989Y-47249400D01*
X19560015Y-47216348D01*
X19576292Y-47185897D01*
X19598201Y-47159201D01*
X19624897Y-47137292D01*
X19655348Y-47121015D01*
X19688400Y-47110989D01*
X19728903Y-47107000D01*
X21165097Y-47107000D01*
X21205600Y-47110989D01*
X21205600Y-47110989D01*
G37*
G36*
X59165928Y-48165764D02*
G01*
X59187009Y-48172160D01*
X59206445Y-48182548D01*
X59223476Y-48196524D01*
X59237452Y-48213555D01*
X59247840Y-48232991D01*
X59254236Y-48254072D01*
X59257000Y-48282140D01*
X59257000Y-48745860D01*
X59254236Y-48773928D01*
X59247840Y-48795009D01*
X59237452Y-48814445D01*
X59223476Y-48831476D01*
X59206445Y-48845452D01*
X59187009Y-48855840D01*
X59165928Y-48862236D01*
X59137860Y-48865000D01*
X57324140Y-48865000D01*
X57296072Y-48862236D01*
X57274991Y-48855840D01*
X57255555Y-48845452D01*
X57238524Y-48831476D01*
X57224548Y-48814445D01*
X57214160Y-48795009D01*
X57207764Y-48773928D01*
X57205000Y-48745860D01*
X57205000Y-48282140D01*
X57207764Y-48254072D01*
X57214160Y-48232991D01*
X57224548Y-48213555D01*
X57238524Y-48196524D01*
X57255555Y-48182548D01*
X57274991Y-48172160D01*
X57296072Y-48165764D01*
X57324140Y-48163000D01*
X59137860Y-48163000D01*
X59165928Y-48165764D01*
X59165928Y-48165764D01*
G37*
G36*
X64115928Y-48165764D02*
G01*
X64137009Y-48172160D01*
X64156445Y-48182548D01*
X64173476Y-48196524D01*
X64187452Y-48213555D01*
X64197840Y-48232991D01*
X64204236Y-48254072D01*
X64207000Y-48282140D01*
X64207000Y-48745860D01*
X64204236Y-48773928D01*
X64197840Y-48795009D01*
X64187452Y-48814445D01*
X64173476Y-48831476D01*
X64156445Y-48845452D01*
X64137009Y-48855840D01*
X64115928Y-48862236D01*
X64087860Y-48865000D01*
X62274140Y-48865000D01*
X62246072Y-48862236D01*
X62224991Y-48855840D01*
X62205555Y-48845452D01*
X62188524Y-48831476D01*
X62174548Y-48814445D01*
X62164160Y-48795009D01*
X62157764Y-48773928D01*
X62155000Y-48745860D01*
X62155000Y-48282140D01*
X62157764Y-48254072D01*
X62164160Y-48232991D01*
X62174548Y-48213555D01*
X62188524Y-48196524D01*
X62205555Y-48182548D01*
X62224991Y-48172160D01*
X62246072Y-48165764D01*
X62274140Y-48163000D01*
X64087860Y-48163000D01*
X64115928Y-48165764D01*
X64115928Y-48165764D01*
G37*
G36*
X50402142Y-46793242D02*
G01*
X50550101Y-46854529D01*
X50683255Y-46943499D01*
X50796501Y-47056745D01*
X50885471Y-47189899D01*
X50946758Y-47337858D01*
X50978000Y-47494925D01*
X50978000Y-47655075D01*
X50946758Y-47812142D01*
X50885471Y-47960101D01*
X50796501Y-48093255D01*
X50683255Y-48206501D01*
X50550101Y-48295471D01*
X50402142Y-48356758D01*
X50245075Y-48388000D01*
X50084925Y-48388000D01*
X49927858Y-48356758D01*
X49779899Y-48295471D01*
X49646745Y-48206501D01*
X49533499Y-48093255D01*
X49444529Y-47960101D01*
X49383242Y-47812142D01*
X49352000Y-47655075D01*
X49352000Y-47494925D01*
X49383242Y-47337858D01*
X49444529Y-47189899D01*
X49533499Y-47056745D01*
X49646745Y-46943499D01*
X49779899Y-46854529D01*
X49927858Y-46793242D01*
X50084925Y-46762000D01*
X50245075Y-46762000D01*
X50402142Y-46793242D01*
X50402142Y-46793242D01*
G37*
G36*
X59165928Y-46895764D02*
G01*
X59187009Y-46902160D01*
X59206445Y-46912548D01*
X59223476Y-46926524D01*
X59237452Y-46943555D01*
X59247840Y-46962991D01*
X59254236Y-46984072D01*
X59257000Y-47012140D01*
X59257000Y-47475860D01*
X59254236Y-47503928D01*
X59247840Y-47525009D01*
X59237452Y-47544445D01*
X59223476Y-47561476D01*
X59206445Y-47575452D01*
X59187009Y-47585840D01*
X59165928Y-47592236D01*
X59137860Y-47595000D01*
X57324140Y-47595000D01*
X57296072Y-47592236D01*
X57274991Y-47585840D01*
X57255555Y-47575452D01*
X57238524Y-47561476D01*
X57224548Y-47544445D01*
X57214160Y-47525009D01*
X57207764Y-47503928D01*
X57205000Y-47475860D01*
X57205000Y-47012140D01*
X57207764Y-46984072D01*
X57214160Y-46962991D01*
X57224548Y-46943555D01*
X57238524Y-46926524D01*
X57255555Y-46912548D01*
X57274991Y-46902160D01*
X57296072Y-46895764D01*
X57324140Y-46893000D01*
X59137860Y-46893000D01*
X59165928Y-46895764D01*
X59165928Y-46895764D01*
G37*
G36*
X64115928Y-46895764D02*
G01*
X64137009Y-46902160D01*
X64156445Y-46912548D01*
X64173476Y-46926524D01*
X64187452Y-46943555D01*
X64197840Y-46962991D01*
X64204236Y-46984072D01*
X64207000Y-47012140D01*
X64207000Y-47475860D01*
X64204236Y-47503928D01*
X64197840Y-47525009D01*
X64187452Y-47544445D01*
X64173476Y-47561476D01*
X64156445Y-47575452D01*
X64137009Y-47585840D01*
X64115928Y-47592236D01*
X64087860Y-47595000D01*
X62274140Y-47595000D01*
X62246072Y-47592236D01*
X62224991Y-47585840D01*
X62205555Y-47575452D01*
X62188524Y-47561476D01*
X62174548Y-47544445D01*
X62164160Y-47525009D01*
X62157764Y-47503928D01*
X62155000Y-47475860D01*
X62155000Y-47012140D01*
X62157764Y-46984072D01*
X62164160Y-46962991D01*
X62174548Y-46943555D01*
X62188524Y-46926524D01*
X62205555Y-46912548D01*
X62224991Y-46902160D01*
X62246072Y-46895764D01*
X62274140Y-46893000D01*
X64087860Y-46893000D01*
X64115928Y-46895764D01*
X64115928Y-46895764D01*
G37*
G36*
X67946442Y-44927518D02*
G01*
X68012627Y-44934037D01*
X68182466Y-44985557D01*
X68338991Y-45069222D01*
X68374729Y-45098552D01*
X68476186Y-45181814D01*
X68550315Y-45272142D01*
X68588778Y-45319009D01*
X68672443Y-45475534D01*
X68723963Y-45645373D01*
X68741359Y-45822000D01*
X68723963Y-45998627D01*
X68672443Y-46168466D01*
X68588778Y-46324991D01*
X68559448Y-46360729D01*
X68476186Y-46462186D01*
X68374729Y-46545448D01*
X68338991Y-46574778D01*
X68182466Y-46658443D01*
X68012627Y-46709963D01*
X67946443Y-46716481D01*
X67880260Y-46723000D01*
X67541740Y-46723000D01*
X67475558Y-46716482D01*
X67409373Y-46709963D01*
X67239534Y-46658443D01*
X67083009Y-46574778D01*
X67047271Y-46545448D01*
X66945814Y-46462186D01*
X66862552Y-46360729D01*
X66833222Y-46324991D01*
X66749557Y-46168466D01*
X66698037Y-45998627D01*
X66680641Y-45822000D01*
X66698037Y-45645373D01*
X66749557Y-45475534D01*
X66833222Y-45319009D01*
X66871685Y-45272142D01*
X66945814Y-45181814D01*
X67047271Y-45098552D01*
X67083009Y-45069222D01*
X67239534Y-44985557D01*
X67409373Y-44934037D01*
X67475558Y-44927518D01*
X67541740Y-44921000D01*
X67880260Y-44921000D01*
X67946442Y-44927518D01*
X67946442Y-44927518D01*
G37*
G36*
X72884025Y-44921000D02*
G01*
X72965627Y-44929037D01*
X73135466Y-44980557D01*
X73135468Y-44980558D01*
X73180157Y-45004445D01*
X73291991Y-45064222D01*
X73298082Y-45069221D01*
X73429186Y-45176814D01*
X73507419Y-45272143D01*
X73541778Y-45314009D01*
X73625443Y-45470534D01*
X73676963Y-45640373D01*
X73694359Y-45817000D01*
X73676963Y-45993627D01*
X73625443Y-46163466D01*
X73541778Y-46319991D01*
X73537667Y-46325000D01*
X73429186Y-46457186D01*
X73327729Y-46540448D01*
X73291991Y-46569778D01*
X73135466Y-46653443D01*
X72965627Y-46704963D01*
X72914860Y-46709963D01*
X72833260Y-46718000D01*
X72494740Y-46718000D01*
X72413140Y-46709963D01*
X72362373Y-46704963D01*
X72192534Y-46653443D01*
X72036009Y-46569778D01*
X72000271Y-46540448D01*
X71898814Y-46457186D01*
X71790333Y-46325000D01*
X71786222Y-46319991D01*
X71702557Y-46163466D01*
X71651037Y-45993627D01*
X71633641Y-45817000D01*
X71651037Y-45640373D01*
X71702557Y-45470534D01*
X71786222Y-45314009D01*
X71820581Y-45272143D01*
X71898814Y-45176814D01*
X72029918Y-45069221D01*
X72036009Y-45064222D01*
X72147843Y-45004445D01*
X72192532Y-44980558D01*
X72192534Y-44980557D01*
X72362373Y-44929037D01*
X72443975Y-44921000D01*
X72494740Y-44916000D01*
X72833260Y-44916000D01*
X72884025Y-44921000D01*
X72884025Y-44921000D01*
G37*
G36*
X59165928Y-45625764D02*
G01*
X59187009Y-45632160D01*
X59206445Y-45642548D01*
X59223476Y-45656524D01*
X59237452Y-45673555D01*
X59247840Y-45692991D01*
X59254236Y-45714072D01*
X59257000Y-45742140D01*
X59257000Y-46205860D01*
X59254236Y-46233928D01*
X59247840Y-46255009D01*
X59237452Y-46274445D01*
X59223476Y-46291476D01*
X59206445Y-46305452D01*
X59187009Y-46315840D01*
X59165928Y-46322236D01*
X59137860Y-46325000D01*
X57324140Y-46325000D01*
X57296072Y-46322236D01*
X57274991Y-46315840D01*
X57255555Y-46305452D01*
X57238524Y-46291476D01*
X57224548Y-46274445D01*
X57214160Y-46255009D01*
X57207764Y-46233928D01*
X57205000Y-46205860D01*
X57205000Y-45742140D01*
X57207764Y-45714072D01*
X57214160Y-45692991D01*
X57224548Y-45673555D01*
X57238524Y-45656524D01*
X57255555Y-45642548D01*
X57274991Y-45632160D01*
X57296072Y-45625764D01*
X57324140Y-45623000D01*
X59137860Y-45623000D01*
X59165928Y-45625764D01*
X59165928Y-45625764D01*
G37*
G36*
X64115928Y-45625764D02*
G01*
X64137009Y-45632160D01*
X64156445Y-45642548D01*
X64173476Y-45656524D01*
X64187452Y-45673555D01*
X64197840Y-45692991D01*
X64204236Y-45714072D01*
X64207000Y-45742140D01*
X64207000Y-46205860D01*
X64204236Y-46233928D01*
X64197840Y-46255009D01*
X64187452Y-46274445D01*
X64173476Y-46291476D01*
X64156445Y-46305452D01*
X64137009Y-46315840D01*
X64115928Y-46322236D01*
X64087860Y-46325000D01*
X62274140Y-46325000D01*
X62246072Y-46322236D01*
X62224991Y-46315840D01*
X62205555Y-46305452D01*
X62188524Y-46291476D01*
X62174548Y-46274445D01*
X62164160Y-46255009D01*
X62157764Y-46233928D01*
X62155000Y-46205860D01*
X62155000Y-45742140D01*
X62157764Y-45714072D01*
X62164160Y-45692991D01*
X62174548Y-45673555D01*
X62188524Y-45656524D01*
X62205555Y-45642548D01*
X62224991Y-45632160D01*
X62246072Y-45625764D01*
X62274140Y-45623000D01*
X64087860Y-45623000D01*
X64115928Y-45625764D01*
X64115928Y-45625764D01*
G37*
G36*
X37409598Y-22232532D02*
G01*
X38815147Y-22512113D01*
X41008289Y-23420542D01*
X42982065Y-24739377D01*
X44660623Y-26417935D01*
X45979458Y-28391711D01*
X46887887Y-30584853D01*
X47027406Y-31286262D01*
X47351000Y-32913079D01*
X47351000Y-35286921D01*
X47287611Y-35605597D01*
X46887887Y-37615147D01*
X45979458Y-39808289D01*
X44660623Y-41782065D01*
X42982065Y-43460623D01*
X41008289Y-44779458D01*
X38815147Y-45687887D01*
X38140915Y-45822000D01*
X36486921Y-46151000D01*
X34113079Y-46151000D01*
X32459085Y-45822000D01*
X31784853Y-45687887D01*
X29591711Y-44779458D01*
X27617935Y-43460623D01*
X25939377Y-41782065D01*
X24620542Y-39808289D01*
X23712113Y-37615147D01*
X23312389Y-35605597D01*
X23249000Y-35286921D01*
X23249000Y-32913079D01*
X23572594Y-31286262D01*
X23712113Y-30584853D01*
X24620542Y-28391711D01*
X25939377Y-26417935D01*
X27617935Y-24739377D01*
X29591711Y-23420542D01*
X31784853Y-22512113D01*
X33190402Y-22232532D01*
X34113079Y-22049000D01*
X36486921Y-22049000D01*
X37409598Y-22232532D01*
X37409598Y-22232532D01*
G37*
G36*
X50402142Y-44253242D02*
G01*
X50550101Y-44314529D01*
X50683255Y-44403499D01*
X50796501Y-44516745D01*
X50885471Y-44649899D01*
X50946758Y-44797858D01*
X50978000Y-44954925D01*
X50978000Y-45115075D01*
X50946758Y-45272142D01*
X50885471Y-45420101D01*
X50796501Y-45553255D01*
X50683255Y-45666501D01*
X50550101Y-45755471D01*
X50402142Y-45816758D01*
X50245075Y-45848000D01*
X50084925Y-45848000D01*
X49927858Y-45816758D01*
X49779899Y-45755471D01*
X49646745Y-45666501D01*
X49533499Y-45553255D01*
X49444529Y-45420101D01*
X49383242Y-45272142D01*
X49352000Y-45115075D01*
X49352000Y-44954925D01*
X49383242Y-44797858D01*
X49444529Y-44649899D01*
X49533499Y-44516745D01*
X49646745Y-44403499D01*
X49779899Y-44314529D01*
X49927858Y-44253242D01*
X50084925Y-44222000D01*
X50245075Y-44222000D01*
X50402142Y-44253242D01*
X50402142Y-44253242D01*
G37*
G36*
X45723241Y-42704760D02*
G01*
X45987305Y-42814139D01*
X46224958Y-42972934D01*
X46427066Y-43175042D01*
X46585861Y-43412695D01*
X46695240Y-43676759D01*
X46751000Y-43957088D01*
X46751000Y-44242912D01*
X46695240Y-44523241D01*
X46585861Y-44787305D01*
X46427066Y-45024958D01*
X46224958Y-45227066D01*
X45987305Y-45385861D01*
X45723241Y-45495240D01*
X45442912Y-45551000D01*
X45157088Y-45551000D01*
X44876759Y-45495240D01*
X44612695Y-45385861D01*
X44375042Y-45227066D01*
X44172934Y-45024958D01*
X44014139Y-44787305D01*
X43904760Y-44523241D01*
X43849000Y-44242912D01*
X43849000Y-43957088D01*
X43904760Y-43676759D01*
X44014139Y-43412695D01*
X44172934Y-43175042D01*
X44375042Y-42972934D01*
X44612695Y-42814139D01*
X44876759Y-42704760D01*
X45157088Y-42649000D01*
X45442912Y-42649000D01*
X45723241Y-42704760D01*
X45723241Y-42704760D01*
G37*
G36*
X25723241Y-42704760D02*
G01*
X25987305Y-42814139D01*
X26224958Y-42972934D01*
X26427066Y-43175042D01*
X26585861Y-43412695D01*
X26695240Y-43676759D01*
X26751000Y-43957088D01*
X26751000Y-44242912D01*
X26695240Y-44523241D01*
X26585861Y-44787305D01*
X26427066Y-45024958D01*
X26224958Y-45227066D01*
X25987305Y-45385861D01*
X25723241Y-45495240D01*
X25442912Y-45551000D01*
X25157088Y-45551000D01*
X24876759Y-45495240D01*
X24612695Y-45385861D01*
X24375042Y-45227066D01*
X24172934Y-45024958D01*
X24014139Y-44787305D01*
X23904760Y-44523241D01*
X23849000Y-44242912D01*
X23849000Y-43957088D01*
X23904760Y-43676759D01*
X24014139Y-43412695D01*
X24172934Y-43175042D01*
X24375042Y-42972934D01*
X24612695Y-42814139D01*
X24876759Y-42704760D01*
X25157088Y-42649000D01*
X25442912Y-42649000D01*
X25723241Y-42704760D01*
X25723241Y-42704760D01*
G37*
G36*
X64115928Y-44355764D02*
G01*
X64137009Y-44362160D01*
X64156445Y-44372548D01*
X64173476Y-44386524D01*
X64187452Y-44403555D01*
X64197840Y-44422991D01*
X64204236Y-44444072D01*
X64207000Y-44472140D01*
X64207000Y-44935860D01*
X64204236Y-44963928D01*
X64197840Y-44985009D01*
X64187452Y-45004445D01*
X64173476Y-45021476D01*
X64156445Y-45035452D01*
X64137009Y-45045840D01*
X64115928Y-45052236D01*
X64087860Y-45055000D01*
X62274140Y-45055000D01*
X62246072Y-45052236D01*
X62224991Y-45045840D01*
X62205555Y-45035452D01*
X62188524Y-45021476D01*
X62174548Y-45004445D01*
X62164160Y-44985009D01*
X62157764Y-44963928D01*
X62155000Y-44935860D01*
X62155000Y-44472140D01*
X62157764Y-44444072D01*
X62164160Y-44422991D01*
X62174548Y-44403555D01*
X62188524Y-44386524D01*
X62205555Y-44372548D01*
X62224991Y-44362160D01*
X62246072Y-44355764D01*
X62274140Y-44353000D01*
X64087860Y-44353000D01*
X64115928Y-44355764D01*
X64115928Y-44355764D01*
G37*
G36*
X59165928Y-44355764D02*
G01*
X59187009Y-44362160D01*
X59206445Y-44372548D01*
X59223476Y-44386524D01*
X59237452Y-44403555D01*
X59247840Y-44422991D01*
X59254236Y-44444072D01*
X59257000Y-44472140D01*
X59257000Y-44935860D01*
X59254236Y-44963928D01*
X59247840Y-44985009D01*
X59237452Y-45004445D01*
X59223476Y-45021476D01*
X59206445Y-45035452D01*
X59187009Y-45045840D01*
X59165928Y-45052236D01*
X59137860Y-45055000D01*
X57324140Y-45055000D01*
X57296072Y-45052236D01*
X57274991Y-45045840D01*
X57255555Y-45035452D01*
X57238524Y-45021476D01*
X57224548Y-45004445D01*
X57214160Y-44985009D01*
X57207764Y-44963928D01*
X57205000Y-44935860D01*
X57205000Y-44472140D01*
X57207764Y-44444072D01*
X57214160Y-44422991D01*
X57224548Y-44403555D01*
X57238524Y-44386524D01*
X57255555Y-44372548D01*
X57274991Y-44362160D01*
X57296072Y-44355764D01*
X57324140Y-44353000D01*
X59137860Y-44353000D01*
X59165928Y-44355764D01*
X59165928Y-44355764D01*
G37*
G36*
X67946443Y-42427519D02*
G01*
X68012627Y-42434037D01*
X68182466Y-42485557D01*
X68338991Y-42569222D01*
X68374729Y-42598552D01*
X68476186Y-42681814D01*
X68559448Y-42783271D01*
X68588778Y-42819009D01*
X68672443Y-42975534D01*
X68723963Y-43145373D01*
X68741359Y-43322000D01*
X68723963Y-43498627D01*
X68672443Y-43668466D01*
X68588778Y-43824991D01*
X68559448Y-43860729D01*
X68476186Y-43962186D01*
X68378430Y-44042411D01*
X68338991Y-44074778D01*
X68182466Y-44158443D01*
X68012627Y-44209963D01*
X67946442Y-44216482D01*
X67880260Y-44223000D01*
X67541740Y-44223000D01*
X67475558Y-44216482D01*
X67409373Y-44209963D01*
X67239534Y-44158443D01*
X67083009Y-44074778D01*
X67043570Y-44042411D01*
X66945814Y-43962186D01*
X66862552Y-43860729D01*
X66833222Y-43824991D01*
X66749557Y-43668466D01*
X66698037Y-43498627D01*
X66680641Y-43322000D01*
X66698037Y-43145373D01*
X66749557Y-42975534D01*
X66833222Y-42819009D01*
X66862552Y-42783271D01*
X66945814Y-42681814D01*
X67047271Y-42598552D01*
X67083009Y-42569222D01*
X67239534Y-42485557D01*
X67409373Y-42434037D01*
X67475557Y-42427519D01*
X67541740Y-42421000D01*
X67880260Y-42421000D01*
X67946443Y-42427519D01*
X67946443Y-42427519D01*
G37*
G36*
X72884025Y-42421000D02*
G01*
X72965627Y-42429037D01*
X73135466Y-42480557D01*
X73291991Y-42564222D01*
X73298082Y-42569221D01*
X73429186Y-42676814D01*
X73512448Y-42778271D01*
X73541778Y-42814009D01*
X73625443Y-42970534D01*
X73676963Y-43140373D01*
X73694359Y-43317000D01*
X73676963Y-43493627D01*
X73625443Y-43663466D01*
X73625442Y-43663468D01*
X73587957Y-43733597D01*
X73541778Y-43819991D01*
X73512448Y-43855729D01*
X73429186Y-43957186D01*
X73348872Y-44023097D01*
X73291991Y-44069778D01*
X73135466Y-44153443D01*
X72965627Y-44204963D01*
X72899443Y-44211481D01*
X72833260Y-44218000D01*
X72494740Y-44218000D01*
X72428557Y-44211481D01*
X72362373Y-44204963D01*
X72192534Y-44153443D01*
X72036009Y-44069778D01*
X71979128Y-44023097D01*
X71898814Y-43957186D01*
X71815552Y-43855729D01*
X71786222Y-43819991D01*
X71740043Y-43733597D01*
X71702558Y-43663468D01*
X71702557Y-43663466D01*
X71651037Y-43493627D01*
X71633641Y-43317000D01*
X71651037Y-43140373D01*
X71702557Y-42970534D01*
X71786222Y-42814009D01*
X71815552Y-42778271D01*
X71898814Y-42676814D01*
X72029918Y-42569221D01*
X72036009Y-42564222D01*
X72192534Y-42480557D01*
X72362373Y-42429037D01*
X72443975Y-42421000D01*
X72494740Y-42416000D01*
X72833260Y-42416000D01*
X72884025Y-42421000D01*
X72884025Y-42421000D01*
G37*
G36*
X8170627Y-42167037D02*
G01*
X8340466Y-42218557D01*
X8496991Y-42302222D01*
X8532729Y-42331552D01*
X8634186Y-42414814D01*
X8688893Y-42481476D01*
X8746778Y-42552009D01*
X8830443Y-42708534D01*
X8881963Y-42878374D01*
X8895000Y-43010743D01*
X8895000Y-43349258D01*
X8881963Y-43481627D01*
X8830443Y-43651466D01*
X8746778Y-43807991D01*
X8732828Y-43824989D01*
X8634186Y-43945186D01*
X8496989Y-44057779D01*
X8340467Y-44141442D01*
X8340465Y-44141443D01*
X8170626Y-44192963D01*
X7994000Y-44210359D01*
X7817373Y-44192963D01*
X7647534Y-44141443D01*
X7491009Y-44057778D01*
X7448750Y-44023097D01*
X7353814Y-43945186D01*
X7241221Y-43807989D01*
X7157558Y-43651467D01*
X7155213Y-43643738D01*
X7106037Y-43481626D01*
X7093000Y-43349257D01*
X7093000Y-43010742D01*
X7106037Y-42878373D01*
X7157557Y-42708534D01*
X7241222Y-42552009D01*
X7353815Y-42414815D01*
X7491010Y-42302222D01*
X7647535Y-42218557D01*
X7817374Y-42167037D01*
X7994000Y-42149641D01*
X8170627Y-42167037D01*
X8170627Y-42167037D01*
G37*
G36*
X13170627Y-42167037D02*
G01*
X13340466Y-42218557D01*
X13496991Y-42302222D01*
X13532729Y-42331552D01*
X13634186Y-42414814D01*
X13688893Y-42481476D01*
X13746778Y-42552009D01*
X13830443Y-42708534D01*
X13881963Y-42878374D01*
X13895000Y-43010743D01*
X13895000Y-43349258D01*
X13881963Y-43481627D01*
X13830443Y-43651466D01*
X13746778Y-43807991D01*
X13732828Y-43824989D01*
X13634186Y-43945186D01*
X13496989Y-44057779D01*
X13340467Y-44141442D01*
X13340465Y-44141443D01*
X13170626Y-44192963D01*
X12994000Y-44210359D01*
X12817373Y-44192963D01*
X12647534Y-44141443D01*
X12491009Y-44057778D01*
X12448750Y-44023097D01*
X12353814Y-43945186D01*
X12241221Y-43807989D01*
X12157558Y-43651467D01*
X12155213Y-43643738D01*
X12106037Y-43481626D01*
X12093000Y-43349257D01*
X12093000Y-43010742D01*
X12106037Y-42878373D01*
X12157557Y-42708534D01*
X12241222Y-42552009D01*
X12353815Y-42414815D01*
X12491010Y-42302222D01*
X12647535Y-42218557D01*
X12817374Y-42167037D01*
X12994000Y-42149641D01*
X13170627Y-42167037D01*
X13170627Y-42167037D01*
G37*
G36*
X10670627Y-42167037D02*
G01*
X10840466Y-42218557D01*
X10996991Y-42302222D01*
X11032729Y-42331552D01*
X11134186Y-42414814D01*
X11188893Y-42481476D01*
X11246778Y-42552009D01*
X11330443Y-42708534D01*
X11381963Y-42878374D01*
X11395000Y-43010743D01*
X11395000Y-43349258D01*
X11381963Y-43481627D01*
X11330443Y-43651466D01*
X11246778Y-43807991D01*
X11232828Y-43824989D01*
X11134186Y-43945186D01*
X10996989Y-44057779D01*
X10840467Y-44141442D01*
X10840465Y-44141443D01*
X10670626Y-44192963D01*
X10494000Y-44210359D01*
X10317373Y-44192963D01*
X10147534Y-44141443D01*
X9991009Y-44057778D01*
X9948750Y-44023097D01*
X9853814Y-43945186D01*
X9741221Y-43807989D01*
X9657558Y-43651467D01*
X9655213Y-43643738D01*
X9606037Y-43481626D01*
X9593000Y-43349257D01*
X9593000Y-43010742D01*
X9606037Y-42878373D01*
X9657557Y-42708534D01*
X9741222Y-42552009D01*
X9853815Y-42414815D01*
X9991010Y-42302222D01*
X10147535Y-42218557D01*
X10317374Y-42167037D01*
X10494000Y-42149641D01*
X10670627Y-42167037D01*
X10670627Y-42167037D01*
G37*
G36*
X16252600Y-42157989D02*
G01*
X16285652Y-42168015D01*
X16316103Y-42184292D01*
X16342799Y-42206201D01*
X16364708Y-42232897D01*
X16380985Y-42263348D01*
X16391011Y-42296400D01*
X16395000Y-42336903D01*
X16395000Y-44023097D01*
X16391011Y-44063600D01*
X16380985Y-44096652D01*
X16364708Y-44127103D01*
X16342799Y-44153799D01*
X16316103Y-44175708D01*
X16285652Y-44191985D01*
X16252600Y-44202011D01*
X16212097Y-44206000D01*
X14775903Y-44206000D01*
X14735400Y-44202011D01*
X14702348Y-44191985D01*
X14671897Y-44175708D01*
X14645201Y-44153799D01*
X14623292Y-44127103D01*
X14607015Y-44096652D01*
X14596989Y-44063600D01*
X14593000Y-44023097D01*
X14593000Y-42336903D01*
X14596989Y-42296400D01*
X14607015Y-42263348D01*
X14623292Y-42232897D01*
X14645201Y-42206201D01*
X14671897Y-42184292D01*
X14702348Y-42168015D01*
X14735400Y-42157989D01*
X14775903Y-42154000D01*
X16212097Y-42154000D01*
X16252600Y-42157989D01*
X16252600Y-42157989D01*
G37*
G36*
X64115928Y-43085764D02*
G01*
X64137009Y-43092160D01*
X64156445Y-43102548D01*
X64173476Y-43116524D01*
X64187452Y-43133555D01*
X64197840Y-43152991D01*
X64204236Y-43174072D01*
X64207000Y-43202140D01*
X64207000Y-43665860D01*
X64204236Y-43693928D01*
X64197840Y-43715009D01*
X64187452Y-43734445D01*
X64173476Y-43751476D01*
X64156445Y-43765452D01*
X64137009Y-43775840D01*
X64115928Y-43782236D01*
X64087860Y-43785000D01*
X62274140Y-43785000D01*
X62246072Y-43782236D01*
X62224991Y-43775840D01*
X62205555Y-43765452D01*
X62188524Y-43751476D01*
X62174548Y-43734445D01*
X62164160Y-43715009D01*
X62157764Y-43693928D01*
X62155000Y-43665860D01*
X62155000Y-43202140D01*
X62157764Y-43174072D01*
X62164160Y-43152991D01*
X62174548Y-43133555D01*
X62188524Y-43116524D01*
X62205555Y-43102548D01*
X62224991Y-43092160D01*
X62246072Y-43085764D01*
X62274140Y-43083000D01*
X64087860Y-43083000D01*
X64115928Y-43085764D01*
X64115928Y-43085764D01*
G37*
G36*
X59165928Y-43085764D02*
G01*
X59187009Y-43092160D01*
X59206445Y-43102548D01*
X59223476Y-43116524D01*
X59237452Y-43133555D01*
X59247840Y-43152991D01*
X59254236Y-43174072D01*
X59257000Y-43202140D01*
X59257000Y-43665860D01*
X59254236Y-43693928D01*
X59247840Y-43715009D01*
X59237452Y-43734445D01*
X59223476Y-43751476D01*
X59206445Y-43765452D01*
X59187009Y-43775840D01*
X59165928Y-43782236D01*
X59137860Y-43785000D01*
X57324140Y-43785000D01*
X57296072Y-43782236D01*
X57274991Y-43775840D01*
X57255555Y-43765452D01*
X57238524Y-43751476D01*
X57224548Y-43734445D01*
X57214160Y-43715009D01*
X57207764Y-43693928D01*
X57205000Y-43665860D01*
X57205000Y-43202140D01*
X57207764Y-43174072D01*
X57214160Y-43152991D01*
X57224548Y-43133555D01*
X57238524Y-43116524D01*
X57255555Y-43102548D01*
X57274991Y-43092160D01*
X57296072Y-43085764D01*
X57324140Y-43083000D01*
X59137860Y-43083000D01*
X59165928Y-43085764D01*
X59165928Y-43085764D01*
G37*
G36*
X50402142Y-41713242D02*
G01*
X50550101Y-41774529D01*
X50683255Y-41863499D01*
X50796501Y-41976745D01*
X50885471Y-42109899D01*
X50946758Y-42257858D01*
X50978000Y-42414925D01*
X50978000Y-42575075D01*
X50946758Y-42732142D01*
X50885471Y-42880101D01*
X50796501Y-43013255D01*
X50683255Y-43126501D01*
X50550101Y-43215471D01*
X50402142Y-43276758D01*
X50245075Y-43308000D01*
X50084925Y-43308000D01*
X49927858Y-43276758D01*
X49779899Y-43215471D01*
X49646745Y-43126501D01*
X49533499Y-43013255D01*
X49444529Y-42880101D01*
X49383242Y-42732142D01*
X49352000Y-42575075D01*
X49352000Y-42414925D01*
X49383242Y-42257858D01*
X49444529Y-42109899D01*
X49533499Y-41976745D01*
X49646745Y-41863499D01*
X49779899Y-41774529D01*
X49927858Y-41713242D01*
X50084925Y-41682000D01*
X50245075Y-41682000D01*
X50402142Y-41713242D01*
X50402142Y-41713242D01*
G37*
G36*
X59165928Y-41815764D02*
G01*
X59187009Y-41822160D01*
X59206445Y-41832548D01*
X59223476Y-41846524D01*
X59237452Y-41863555D01*
X59247840Y-41882991D01*
X59254236Y-41904072D01*
X59257000Y-41932140D01*
X59257000Y-42395860D01*
X59254236Y-42423928D01*
X59247840Y-42445009D01*
X59237452Y-42464445D01*
X59223476Y-42481476D01*
X59206445Y-42495452D01*
X59187009Y-42505840D01*
X59165928Y-42512236D01*
X59137860Y-42515000D01*
X57324140Y-42515000D01*
X57296072Y-42512236D01*
X57274991Y-42505840D01*
X57255555Y-42495452D01*
X57238524Y-42481476D01*
X57224548Y-42464445D01*
X57214160Y-42445009D01*
X57207764Y-42423928D01*
X57205000Y-42395860D01*
X57205000Y-41932140D01*
X57207764Y-41904072D01*
X57214160Y-41882991D01*
X57224548Y-41863555D01*
X57238524Y-41846524D01*
X57255555Y-41832548D01*
X57274991Y-41822160D01*
X57296072Y-41815764D01*
X57324140Y-41813000D01*
X59137860Y-41813000D01*
X59165928Y-41815764D01*
X59165928Y-41815764D01*
G37*
G36*
X64115928Y-41815764D02*
G01*
X64137009Y-41822160D01*
X64156445Y-41832548D01*
X64173476Y-41846524D01*
X64187452Y-41863555D01*
X64197840Y-41882991D01*
X64204236Y-41904072D01*
X64207000Y-41932140D01*
X64207000Y-42395860D01*
X64204236Y-42423928D01*
X64197840Y-42445009D01*
X64187452Y-42464445D01*
X64173476Y-42481476D01*
X64156445Y-42495452D01*
X64137009Y-42505840D01*
X64115928Y-42512236D01*
X64087860Y-42515000D01*
X62274140Y-42515000D01*
X62246072Y-42512236D01*
X62224991Y-42505840D01*
X62205555Y-42495452D01*
X62188524Y-42481476D01*
X62174548Y-42464445D01*
X62164160Y-42445009D01*
X62157764Y-42423928D01*
X62155000Y-42395860D01*
X62155000Y-41932140D01*
X62157764Y-41904072D01*
X62164160Y-41882991D01*
X62174548Y-41863555D01*
X62188524Y-41846524D01*
X62205555Y-41832548D01*
X62224991Y-41822160D01*
X62246072Y-41815764D01*
X62274140Y-41813000D01*
X64087860Y-41813000D01*
X64115928Y-41815764D01*
X64115928Y-41815764D01*
G37*
G36*
X67946443Y-39927519D02*
G01*
X68012627Y-39934037D01*
X68182466Y-39985557D01*
X68338991Y-40069222D01*
X68374729Y-40098552D01*
X68476186Y-40181814D01*
X68559448Y-40283271D01*
X68588778Y-40319009D01*
X68672443Y-40475534D01*
X68723963Y-40645373D01*
X68741359Y-40822000D01*
X68723963Y-40998627D01*
X68672443Y-41168466D01*
X68672442Y-41168468D01*
X68647344Y-41215423D01*
X68588778Y-41324991D01*
X68559448Y-41360729D01*
X68476186Y-41462186D01*
X68374729Y-41545448D01*
X68338991Y-41574778D01*
X68182466Y-41658443D01*
X68012627Y-41709963D01*
X67946442Y-41716482D01*
X67880260Y-41723000D01*
X67541740Y-41723000D01*
X67475558Y-41716482D01*
X67409373Y-41709963D01*
X67239534Y-41658443D01*
X67083009Y-41574778D01*
X67047271Y-41545448D01*
X66945814Y-41462186D01*
X66862552Y-41360729D01*
X66833222Y-41324991D01*
X66774656Y-41215423D01*
X66749558Y-41168468D01*
X66749557Y-41168466D01*
X66698037Y-40998627D01*
X66680641Y-40822000D01*
X66698037Y-40645373D01*
X66749557Y-40475534D01*
X66833222Y-40319009D01*
X66862552Y-40283271D01*
X66945814Y-40181814D01*
X67047271Y-40098552D01*
X67083009Y-40069222D01*
X67239534Y-39985557D01*
X67409373Y-39934037D01*
X67475557Y-39927519D01*
X67541740Y-39921000D01*
X67880260Y-39921000D01*
X67946443Y-39927519D01*
X67946443Y-39927519D01*
G37*
G36*
X72884025Y-39921000D02*
G01*
X72965627Y-39929037D01*
X73135466Y-39980557D01*
X73291991Y-40064222D01*
X73298082Y-40069221D01*
X73429186Y-40176814D01*
X73512448Y-40278271D01*
X73541778Y-40314009D01*
X73625443Y-40470534D01*
X73676963Y-40640373D01*
X73694359Y-40817000D01*
X73676963Y-40993627D01*
X73625443Y-41163466D01*
X73541778Y-41319991D01*
X73512448Y-41355729D01*
X73429186Y-41457186D01*
X73327729Y-41540448D01*
X73291991Y-41569778D01*
X73135466Y-41653443D01*
X72965627Y-41704963D01*
X72914860Y-41709963D01*
X72833260Y-41718000D01*
X72494740Y-41718000D01*
X72413140Y-41709963D01*
X72362373Y-41704963D01*
X72192534Y-41653443D01*
X72036009Y-41569778D01*
X72000271Y-41540448D01*
X71898814Y-41457186D01*
X71815552Y-41355729D01*
X71786222Y-41319991D01*
X71702557Y-41163466D01*
X71651037Y-40993627D01*
X71633641Y-40817000D01*
X71651037Y-40640373D01*
X71702557Y-40470534D01*
X71786222Y-40314009D01*
X71815552Y-40278271D01*
X71898814Y-40176814D01*
X72029918Y-40069221D01*
X72036009Y-40064222D01*
X72192534Y-39980557D01*
X72362373Y-39929037D01*
X72443975Y-39921000D01*
X72494740Y-39916000D01*
X72833260Y-39916000D01*
X72884025Y-39921000D01*
X72884025Y-39921000D01*
G37*
G36*
X59165928Y-40545764D02*
G01*
X59187009Y-40552160D01*
X59206445Y-40562548D01*
X59223476Y-40576524D01*
X59237452Y-40593555D01*
X59247840Y-40612991D01*
X59254236Y-40634072D01*
X59257000Y-40662140D01*
X59257000Y-41125860D01*
X59254236Y-41153928D01*
X59247840Y-41175009D01*
X59237452Y-41194445D01*
X59223476Y-41211476D01*
X59206445Y-41225452D01*
X59187009Y-41235840D01*
X59165928Y-41242236D01*
X59137860Y-41245000D01*
X57324140Y-41245000D01*
X57296072Y-41242236D01*
X57274991Y-41235840D01*
X57255555Y-41225452D01*
X57238524Y-41211476D01*
X57224548Y-41194445D01*
X57214160Y-41175009D01*
X57207764Y-41153928D01*
X57205000Y-41125860D01*
X57205000Y-40662140D01*
X57207764Y-40634072D01*
X57214160Y-40612991D01*
X57224548Y-40593555D01*
X57238524Y-40576524D01*
X57255555Y-40562548D01*
X57274991Y-40552160D01*
X57296072Y-40545764D01*
X57324140Y-40543000D01*
X59137860Y-40543000D01*
X59165928Y-40545764D01*
X59165928Y-40545764D01*
G37*
G36*
X64115928Y-40545764D02*
G01*
X64137009Y-40552160D01*
X64156445Y-40562548D01*
X64173476Y-40576524D01*
X64187452Y-40593555D01*
X64197840Y-40612991D01*
X64204236Y-40634072D01*
X64207000Y-40662140D01*
X64207000Y-41125860D01*
X64204236Y-41153928D01*
X64197840Y-41175009D01*
X64187452Y-41194445D01*
X64173476Y-41211476D01*
X64156445Y-41225452D01*
X64137009Y-41235840D01*
X64115928Y-41242236D01*
X64087860Y-41245000D01*
X62274140Y-41245000D01*
X62246072Y-41242236D01*
X62224991Y-41235840D01*
X62205555Y-41225452D01*
X62188524Y-41211476D01*
X62174548Y-41194445D01*
X62164160Y-41175009D01*
X62157764Y-41153928D01*
X62155000Y-41125860D01*
X62155000Y-40662140D01*
X62157764Y-40634072D01*
X62164160Y-40612991D01*
X62174548Y-40593555D01*
X62188524Y-40576524D01*
X62205555Y-40562548D01*
X62224991Y-40552160D01*
X62246072Y-40545764D01*
X62274140Y-40543000D01*
X64087860Y-40543000D01*
X64115928Y-40545764D01*
X64115928Y-40545764D01*
G37*
G36*
X50402142Y-39173242D02*
G01*
X50550101Y-39234529D01*
X50683255Y-39323499D01*
X50796501Y-39436745D01*
X50885471Y-39569899D01*
X50946758Y-39717858D01*
X50978000Y-39874925D01*
X50978000Y-40035075D01*
X50946758Y-40192142D01*
X50885471Y-40340101D01*
X50796501Y-40473255D01*
X50683255Y-40586501D01*
X50550101Y-40675471D01*
X50402142Y-40736758D01*
X50245075Y-40768000D01*
X50084925Y-40768000D01*
X49927858Y-40736758D01*
X49779899Y-40675471D01*
X49646745Y-40586501D01*
X49533499Y-40473255D01*
X49444529Y-40340101D01*
X49383242Y-40192142D01*
X49352000Y-40035075D01*
X49352000Y-39874925D01*
X49383242Y-39717858D01*
X49444529Y-39569899D01*
X49533499Y-39436745D01*
X49646745Y-39323499D01*
X49779899Y-39234529D01*
X49927858Y-39173242D01*
X50084925Y-39142000D01*
X50245075Y-39142000D01*
X50402142Y-39173242D01*
X50402142Y-39173242D01*
G37*
G36*
X10679544Y-37432083D02*
G01*
X10791616Y-37466080D01*
X10894894Y-37521283D01*
X10985422Y-37595578D01*
X11059717Y-37686106D01*
X11114920Y-37789384D01*
X11148917Y-37901456D01*
X11161000Y-38024140D01*
X11161000Y-39457860D01*
X11148917Y-39580544D01*
X11114920Y-39692616D01*
X11059717Y-39795894D01*
X10985422Y-39886422D01*
X10894894Y-39960717D01*
X10791616Y-40015920D01*
X10679544Y-40049917D01*
X10556860Y-40062000D01*
X6583140Y-40062000D01*
X6460456Y-40049917D01*
X6348384Y-40015920D01*
X6245106Y-39960717D01*
X6154578Y-39886422D01*
X6080283Y-39795894D01*
X6025080Y-39692616D01*
X5991083Y-39580544D01*
X5979000Y-39457860D01*
X5979000Y-38024140D01*
X5991083Y-37901456D01*
X6025080Y-37789384D01*
X6080283Y-37686106D01*
X6154578Y-37595578D01*
X6245106Y-37521283D01*
X6348384Y-37466080D01*
X6460456Y-37432083D01*
X6583140Y-37420000D01*
X10556860Y-37420000D01*
X10679544Y-37432083D01*
X10679544Y-37432083D01*
G37*
G36*
X21479544Y-37432083D02*
G01*
X21591616Y-37466080D01*
X21694894Y-37521283D01*
X21785422Y-37595578D01*
X21859717Y-37686106D01*
X21914920Y-37789384D01*
X21948917Y-37901456D01*
X21961000Y-38024140D01*
X21961000Y-39457860D01*
X21948917Y-39580544D01*
X21914920Y-39692616D01*
X21859717Y-39795894D01*
X21785422Y-39886422D01*
X21694894Y-39960717D01*
X21591616Y-40015920D01*
X21479544Y-40049917D01*
X21356860Y-40062000D01*
X17383140Y-40062000D01*
X17260456Y-40049917D01*
X17148384Y-40015920D01*
X17045106Y-39960717D01*
X16954578Y-39886422D01*
X16880283Y-39795894D01*
X16825080Y-39692616D01*
X16791083Y-39580544D01*
X16779000Y-39457860D01*
X16779000Y-38024140D01*
X16791083Y-37901456D01*
X16825080Y-37789384D01*
X16880283Y-37686106D01*
X16954578Y-37595578D01*
X17045106Y-37521283D01*
X17148384Y-37466080D01*
X17260456Y-37432083D01*
X17383140Y-37420000D01*
X21356860Y-37420000D01*
X21479544Y-37432083D01*
X21479544Y-37432083D01*
G37*
G36*
X59165928Y-39275764D02*
G01*
X59187009Y-39282160D01*
X59206445Y-39292548D01*
X59223476Y-39306524D01*
X59237452Y-39323555D01*
X59247840Y-39342991D01*
X59254236Y-39364072D01*
X59257000Y-39392140D01*
X59257000Y-39855860D01*
X59254236Y-39883928D01*
X59247840Y-39905009D01*
X59237452Y-39924445D01*
X59223476Y-39941476D01*
X59206445Y-39955452D01*
X59187009Y-39965840D01*
X59165928Y-39972236D01*
X59137860Y-39975000D01*
X57324140Y-39975000D01*
X57296072Y-39972236D01*
X57274991Y-39965840D01*
X57255555Y-39955452D01*
X57238524Y-39941476D01*
X57224548Y-39924445D01*
X57214160Y-39905009D01*
X57207764Y-39883928D01*
X57205000Y-39855860D01*
X57205000Y-39392140D01*
X57207764Y-39364072D01*
X57214160Y-39342991D01*
X57224548Y-39323555D01*
X57238524Y-39306524D01*
X57255555Y-39292548D01*
X57274991Y-39282160D01*
X57296072Y-39275764D01*
X57324140Y-39273000D01*
X59137860Y-39273000D01*
X59165928Y-39275764D01*
X59165928Y-39275764D01*
G37*
G36*
X64115928Y-39275764D02*
G01*
X64137009Y-39282160D01*
X64156445Y-39292548D01*
X64173476Y-39306524D01*
X64187452Y-39323555D01*
X64197840Y-39342991D01*
X64204236Y-39364072D01*
X64207000Y-39392140D01*
X64207000Y-39855860D01*
X64204236Y-39883928D01*
X64197840Y-39905009D01*
X64187452Y-39924445D01*
X64173476Y-39941476D01*
X64156445Y-39955452D01*
X64137009Y-39965840D01*
X64115928Y-39972236D01*
X64087860Y-39975000D01*
X62274140Y-39975000D01*
X62246072Y-39972236D01*
X62224991Y-39965840D01*
X62205555Y-39955452D01*
X62188524Y-39941476D01*
X62174548Y-39924445D01*
X62164160Y-39905009D01*
X62157764Y-39883928D01*
X62155000Y-39855860D01*
X62155000Y-39392140D01*
X62157764Y-39364072D01*
X62164160Y-39342991D01*
X62174548Y-39323555D01*
X62188524Y-39306524D01*
X62205555Y-39292548D01*
X62224991Y-39282160D01*
X62246072Y-39275764D01*
X62274140Y-39273000D01*
X64087860Y-39273000D01*
X64115928Y-39275764D01*
X64115928Y-39275764D01*
G37*
G36*
X68594600Y-37424989D02*
G01*
X68627652Y-37435015D01*
X68658103Y-37451292D01*
X68684799Y-37473201D01*
X68706708Y-37499897D01*
X68722985Y-37530348D01*
X68733011Y-37563400D01*
X68737000Y-37603903D01*
X68737000Y-39040097D01*
X68733011Y-39080600D01*
X68722985Y-39113652D01*
X68706708Y-39144103D01*
X68684799Y-39170799D01*
X68658103Y-39192708D01*
X68627652Y-39208985D01*
X68594600Y-39219011D01*
X68554097Y-39223000D01*
X66867903Y-39223000D01*
X66827400Y-39219011D01*
X66794348Y-39208985D01*
X66763897Y-39192708D01*
X66737201Y-39170799D01*
X66715292Y-39144103D01*
X66699015Y-39113652D01*
X66688989Y-39080600D01*
X66685000Y-39040097D01*
X66685000Y-37603903D01*
X66688989Y-37563400D01*
X66699015Y-37530348D01*
X66715292Y-37499897D01*
X66737201Y-37473201D01*
X66763897Y-37451292D01*
X66794348Y-37435015D01*
X66827400Y-37424989D01*
X66867903Y-37421000D01*
X68554097Y-37421000D01*
X68594600Y-37424989D01*
X68594600Y-37424989D01*
G37*
G36*
X73547600Y-37419989D02*
G01*
X73580652Y-37430015D01*
X73611103Y-37446292D01*
X73637799Y-37468201D01*
X73659708Y-37494897D01*
X73675985Y-37525348D01*
X73686011Y-37558400D01*
X73690000Y-37598903D01*
X73690000Y-39035097D01*
X73686011Y-39075600D01*
X73675985Y-39108652D01*
X73659708Y-39139103D01*
X73637799Y-39165799D01*
X73611103Y-39187708D01*
X73580652Y-39203985D01*
X73547600Y-39214011D01*
X73507097Y-39218000D01*
X71820903Y-39218000D01*
X71780400Y-39214011D01*
X71747348Y-39203985D01*
X71716897Y-39187708D01*
X71690201Y-39165799D01*
X71668292Y-39139103D01*
X71652015Y-39108652D01*
X71641989Y-39075600D01*
X71638000Y-39035097D01*
X71638000Y-37598903D01*
X71641989Y-37558400D01*
X71652015Y-37525348D01*
X71668292Y-37494897D01*
X71690201Y-37468201D01*
X71716897Y-37446292D01*
X71747348Y-37430015D01*
X71780400Y-37419989D01*
X71820903Y-37416000D01*
X73507097Y-37416000D01*
X73547600Y-37419989D01*
X73547600Y-37419989D01*
G37*
G36*
X50402142Y-36633242D02*
G01*
X50550101Y-36694529D01*
X50683255Y-36783499D01*
X50796501Y-36896745D01*
X50885471Y-37029899D01*
X50946758Y-37177858D01*
X50978000Y-37334925D01*
X50978000Y-37495075D01*
X50946758Y-37652142D01*
X50885471Y-37800101D01*
X50796501Y-37933255D01*
X50683255Y-38046501D01*
X50550101Y-38135471D01*
X50402142Y-38196758D01*
X50245075Y-38228000D01*
X50084925Y-38228000D01*
X49927858Y-38196758D01*
X49779899Y-38135471D01*
X49646745Y-38046501D01*
X49533499Y-37933255D01*
X49444529Y-37800101D01*
X49383242Y-37652142D01*
X49352000Y-37495075D01*
X49352000Y-37334925D01*
X49383242Y-37177858D01*
X49444529Y-37029899D01*
X49533499Y-36896745D01*
X49646745Y-36783499D01*
X49779899Y-36694529D01*
X49927858Y-36633242D01*
X50084925Y-36602000D01*
X50245075Y-36602000D01*
X50402142Y-36633242D01*
X50402142Y-36633242D01*
G37*
G36*
X64115928Y-37497764D02*
G01*
X64137009Y-37504160D01*
X64156445Y-37514548D01*
X64173476Y-37528524D01*
X64187452Y-37545555D01*
X64197840Y-37564991D01*
X64204236Y-37586072D01*
X64207000Y-37614140D01*
X64207000Y-38077860D01*
X64204236Y-38105928D01*
X64197840Y-38127009D01*
X64187452Y-38146445D01*
X64173476Y-38163476D01*
X64156445Y-38177452D01*
X64137009Y-38187840D01*
X64115928Y-38194236D01*
X64087860Y-38197000D01*
X62274140Y-38197000D01*
X62246072Y-38194236D01*
X62224991Y-38187840D01*
X62205555Y-38177452D01*
X62188524Y-38163476D01*
X62174548Y-38146445D01*
X62164160Y-38127009D01*
X62157764Y-38105928D01*
X62155000Y-38077860D01*
X62155000Y-37614140D01*
X62157764Y-37586072D01*
X62164160Y-37564991D01*
X62174548Y-37545555D01*
X62188524Y-37528524D01*
X62205555Y-37514548D01*
X62224991Y-37504160D01*
X62246072Y-37497764D01*
X62274140Y-37495000D01*
X64087860Y-37495000D01*
X64115928Y-37497764D01*
X64115928Y-37497764D01*
G37*
G36*
X59165928Y-37497764D02*
G01*
X59187009Y-37504160D01*
X59206445Y-37514548D01*
X59223476Y-37528524D01*
X59237452Y-37545555D01*
X59247840Y-37564991D01*
X59254236Y-37586072D01*
X59257000Y-37614140D01*
X59257000Y-38077860D01*
X59254236Y-38105928D01*
X59247840Y-38127009D01*
X59237452Y-38146445D01*
X59223476Y-38163476D01*
X59206445Y-38177452D01*
X59187009Y-38187840D01*
X59165928Y-38194236D01*
X59137860Y-38197000D01*
X57324140Y-38197000D01*
X57296072Y-38194236D01*
X57274991Y-38187840D01*
X57255555Y-38177452D01*
X57238524Y-38163476D01*
X57224548Y-38146445D01*
X57214160Y-38127009D01*
X57207764Y-38105928D01*
X57205000Y-38077860D01*
X57205000Y-37614140D01*
X57207764Y-37586072D01*
X57214160Y-37564991D01*
X57224548Y-37545555D01*
X57238524Y-37528524D01*
X57255555Y-37514548D01*
X57274991Y-37504160D01*
X57296072Y-37497764D01*
X57324140Y-37495000D01*
X59137860Y-37495000D01*
X59165928Y-37497764D01*
X59165928Y-37497764D01*
G37*
G36*
X64115928Y-36227764D02*
G01*
X64137009Y-36234160D01*
X64156445Y-36244548D01*
X64173476Y-36258524D01*
X64187452Y-36275555D01*
X64197840Y-36294991D01*
X64204236Y-36316072D01*
X64207000Y-36344140D01*
X64207000Y-36807860D01*
X64204236Y-36835928D01*
X64197840Y-36857009D01*
X64187452Y-36876445D01*
X64173476Y-36893476D01*
X64156445Y-36907452D01*
X64137009Y-36917840D01*
X64115928Y-36924236D01*
X64087860Y-36927000D01*
X62274140Y-36927000D01*
X62246072Y-36924236D01*
X62224991Y-36917840D01*
X62205555Y-36907452D01*
X62188524Y-36893476D01*
X62174548Y-36876445D01*
X62164160Y-36857009D01*
X62157764Y-36835928D01*
X62155000Y-36807860D01*
X62155000Y-36344140D01*
X62157764Y-36316072D01*
X62164160Y-36294991D01*
X62174548Y-36275555D01*
X62188524Y-36258524D01*
X62205555Y-36244548D01*
X62224991Y-36234160D01*
X62246072Y-36227764D01*
X62274140Y-36225000D01*
X64087860Y-36225000D01*
X64115928Y-36227764D01*
X64115928Y-36227764D01*
G37*
G36*
X59165928Y-36227764D02*
G01*
X59187009Y-36234160D01*
X59206445Y-36244548D01*
X59223476Y-36258524D01*
X59237452Y-36275555D01*
X59247840Y-36294991D01*
X59254236Y-36316072D01*
X59257000Y-36344140D01*
X59257000Y-36807860D01*
X59254236Y-36835928D01*
X59247840Y-36857009D01*
X59237452Y-36876445D01*
X59223476Y-36893476D01*
X59206445Y-36907452D01*
X59187009Y-36917840D01*
X59165928Y-36924236D01*
X59137860Y-36927000D01*
X57324140Y-36927000D01*
X57296072Y-36924236D01*
X57274991Y-36917840D01*
X57255555Y-36907452D01*
X57238524Y-36893476D01*
X57224548Y-36876445D01*
X57214160Y-36857009D01*
X57207764Y-36835928D01*
X57205000Y-36807860D01*
X57205000Y-36344140D01*
X57207764Y-36316072D01*
X57214160Y-36294991D01*
X57224548Y-36275555D01*
X57238524Y-36258524D01*
X57255555Y-36244548D01*
X57274991Y-36234160D01*
X57296072Y-36227764D01*
X57324140Y-36225000D01*
X59137860Y-36225000D01*
X59165928Y-36227764D01*
X59165928Y-36227764D01*
G37*
G36*
X50402142Y-34093242D02*
G01*
X50550101Y-34154529D01*
X50683255Y-34243499D01*
X50796501Y-34356745D01*
X50885471Y-34489899D01*
X50946758Y-34637858D01*
X50978000Y-34794925D01*
X50978000Y-34955075D01*
X50946758Y-35112142D01*
X50885471Y-35260101D01*
X50796501Y-35393255D01*
X50683255Y-35506501D01*
X50550101Y-35595471D01*
X50402142Y-35656758D01*
X50245075Y-35688000D01*
X50084925Y-35688000D01*
X49927858Y-35656758D01*
X49779899Y-35595471D01*
X49646745Y-35506501D01*
X49533499Y-35393255D01*
X49444529Y-35260101D01*
X49383242Y-35112142D01*
X49352000Y-34955075D01*
X49352000Y-34794925D01*
X49383242Y-34637858D01*
X49444529Y-34489899D01*
X49533499Y-34356745D01*
X49646745Y-34243499D01*
X49779899Y-34154529D01*
X49927858Y-34093242D01*
X50084925Y-34062000D01*
X50245075Y-34062000D01*
X50402142Y-34093242D01*
X50402142Y-34093242D01*
G37*
G36*
X64115928Y-34957764D02*
G01*
X64137009Y-34964160D01*
X64156445Y-34974548D01*
X64173476Y-34988524D01*
X64187452Y-35005555D01*
X64197840Y-35024991D01*
X64204236Y-35046072D01*
X64207000Y-35074140D01*
X64207000Y-35537860D01*
X64204236Y-35565928D01*
X64197840Y-35587009D01*
X64187452Y-35606445D01*
X64173476Y-35623476D01*
X64156445Y-35637452D01*
X64137009Y-35647840D01*
X64115928Y-35654236D01*
X64087860Y-35657000D01*
X62274140Y-35657000D01*
X62246072Y-35654236D01*
X62224991Y-35647840D01*
X62205555Y-35637452D01*
X62188524Y-35623476D01*
X62174548Y-35606445D01*
X62164160Y-35587009D01*
X62157764Y-35565928D01*
X62155000Y-35537860D01*
X62155000Y-35074140D01*
X62157764Y-35046072D01*
X62164160Y-35024991D01*
X62174548Y-35005555D01*
X62188524Y-34988524D01*
X62205555Y-34974548D01*
X62224991Y-34964160D01*
X62246072Y-34957764D01*
X62274140Y-34955000D01*
X64087860Y-34955000D01*
X64115928Y-34957764D01*
X64115928Y-34957764D01*
G37*
G36*
X59165928Y-34957764D02*
G01*
X59187009Y-34964160D01*
X59206445Y-34974548D01*
X59223476Y-34988524D01*
X59237452Y-35005555D01*
X59247840Y-35024991D01*
X59254236Y-35046072D01*
X59257000Y-35074140D01*
X59257000Y-35537860D01*
X59254236Y-35565928D01*
X59247840Y-35587009D01*
X59237452Y-35606445D01*
X59223476Y-35623476D01*
X59206445Y-35637452D01*
X59187009Y-35647840D01*
X59165928Y-35654236D01*
X59137860Y-35657000D01*
X57324140Y-35657000D01*
X57296072Y-35654236D01*
X57274991Y-35647840D01*
X57255555Y-35637452D01*
X57238524Y-35623476D01*
X57224548Y-35606445D01*
X57214160Y-35587009D01*
X57207764Y-35565928D01*
X57205000Y-35537860D01*
X57205000Y-35074140D01*
X57207764Y-35046072D01*
X57214160Y-35024991D01*
X57224548Y-35005555D01*
X57238524Y-34988524D01*
X57255555Y-34974548D01*
X57274991Y-34964160D01*
X57296072Y-34957764D01*
X57324140Y-34955000D01*
X59137860Y-34955000D01*
X59165928Y-34957764D01*
X59165928Y-34957764D01*
G37*
G36*
X64115928Y-33687764D02*
G01*
X64137009Y-33694160D01*
X64156445Y-33704548D01*
X64173476Y-33718524D01*
X64187452Y-33735555D01*
X64197840Y-33754991D01*
X64204236Y-33776072D01*
X64207000Y-33804140D01*
X64207000Y-34267860D01*
X64204236Y-34295928D01*
X64197840Y-34317009D01*
X64187452Y-34336445D01*
X64173476Y-34353476D01*
X64156445Y-34367452D01*
X64137009Y-34377840D01*
X64115928Y-34384236D01*
X64087860Y-34387000D01*
X62274140Y-34387000D01*
X62246072Y-34384236D01*
X62224991Y-34377840D01*
X62205555Y-34367452D01*
X62188524Y-34353476D01*
X62174548Y-34336445D01*
X62164160Y-34317009D01*
X62157764Y-34295928D01*
X62155000Y-34267860D01*
X62155000Y-33804140D01*
X62157764Y-33776072D01*
X62164160Y-33754991D01*
X62174548Y-33735555D01*
X62188524Y-33718524D01*
X62205555Y-33704548D01*
X62224991Y-33694160D01*
X62246072Y-33687764D01*
X62274140Y-33685000D01*
X64087860Y-33685000D01*
X64115928Y-33687764D01*
X64115928Y-33687764D01*
G37*
G36*
X59165928Y-33687764D02*
G01*
X59187009Y-33694160D01*
X59206445Y-33704548D01*
X59223476Y-33718524D01*
X59237452Y-33735555D01*
X59247840Y-33754991D01*
X59254236Y-33776072D01*
X59257000Y-33804140D01*
X59257000Y-34267860D01*
X59254236Y-34295928D01*
X59247840Y-34317009D01*
X59237452Y-34336445D01*
X59223476Y-34353476D01*
X59206445Y-34367452D01*
X59187009Y-34377840D01*
X59165928Y-34384236D01*
X59137860Y-34387000D01*
X57324140Y-34387000D01*
X57296072Y-34384236D01*
X57274991Y-34377840D01*
X57255555Y-34367452D01*
X57238524Y-34353476D01*
X57224548Y-34336445D01*
X57214160Y-34317009D01*
X57207764Y-34295928D01*
X57205000Y-34267860D01*
X57205000Y-33804140D01*
X57207764Y-33776072D01*
X57214160Y-33754991D01*
X57224548Y-33735555D01*
X57238524Y-33718524D01*
X57255555Y-33704548D01*
X57274991Y-33694160D01*
X57296072Y-33687764D01*
X57324140Y-33685000D01*
X59137860Y-33685000D01*
X59165928Y-33687764D01*
X59165928Y-33687764D01*
G37*
G36*
X72899442Y-31684518D02*
G01*
X72965627Y-31691037D01*
X73135466Y-31742557D01*
X73291991Y-31826222D01*
X73306147Y-31837840D01*
X73429186Y-31938814D01*
X73512448Y-32040271D01*
X73541778Y-32076009D01*
X73625443Y-32232534D01*
X73676963Y-32402373D01*
X73694359Y-32579000D01*
X73676963Y-32755627D01*
X73625443Y-32925466D01*
X73541778Y-33081991D01*
X73529089Y-33097452D01*
X73429186Y-33219186D01*
X73327729Y-33302448D01*
X73291991Y-33331778D01*
X73135466Y-33415443D01*
X72965627Y-33466963D01*
X72899442Y-33473482D01*
X72833260Y-33480000D01*
X72494740Y-33480000D01*
X72428558Y-33473482D01*
X72362373Y-33466963D01*
X72192534Y-33415443D01*
X72036009Y-33331778D01*
X72000271Y-33302448D01*
X71898814Y-33219186D01*
X71798911Y-33097452D01*
X71786222Y-33081991D01*
X71702557Y-32925466D01*
X71651037Y-32755627D01*
X71633641Y-32579000D01*
X71651037Y-32402373D01*
X71702557Y-32232534D01*
X71786222Y-32076009D01*
X71815552Y-32040271D01*
X71898814Y-31938814D01*
X72021853Y-31837840D01*
X72036009Y-31826222D01*
X72192534Y-31742557D01*
X72362373Y-31691037D01*
X72428558Y-31684518D01*
X72494740Y-31678000D01*
X72833260Y-31678000D01*
X72899442Y-31684518D01*
X72899442Y-31684518D01*
G37*
G36*
X67946442Y-31684518D02*
G01*
X68012627Y-31691037D01*
X68182466Y-31742557D01*
X68338991Y-31826222D01*
X68353147Y-31837840D01*
X68476186Y-31938814D01*
X68559448Y-32040271D01*
X68588778Y-32076009D01*
X68672443Y-32232534D01*
X68723963Y-32402373D01*
X68741359Y-32579000D01*
X68723963Y-32755627D01*
X68672443Y-32925466D01*
X68588778Y-33081991D01*
X68576089Y-33097452D01*
X68476186Y-33219186D01*
X68374729Y-33302448D01*
X68338991Y-33331778D01*
X68182466Y-33415443D01*
X68012627Y-33466963D01*
X67946442Y-33473482D01*
X67880260Y-33480000D01*
X67541740Y-33480000D01*
X67475558Y-33473482D01*
X67409373Y-33466963D01*
X67239534Y-33415443D01*
X67083009Y-33331778D01*
X67047271Y-33302448D01*
X66945814Y-33219186D01*
X66845911Y-33097452D01*
X66833222Y-33081991D01*
X66749557Y-32925466D01*
X66698037Y-32755627D01*
X66680641Y-32579000D01*
X66698037Y-32402373D01*
X66749557Y-32232534D01*
X66833222Y-32076009D01*
X66862552Y-32040271D01*
X66945814Y-31938814D01*
X67068853Y-31837840D01*
X67083009Y-31826222D01*
X67239534Y-31742557D01*
X67409373Y-31691037D01*
X67475558Y-31684518D01*
X67541740Y-31678000D01*
X67880260Y-31678000D01*
X67946442Y-31684518D01*
X67946442Y-31684518D01*
G37*
G36*
X50402142Y-31553242D02*
G01*
X50550101Y-31614529D01*
X50683255Y-31703499D01*
X50796501Y-31816745D01*
X50885471Y-31949899D01*
X50946758Y-32097858D01*
X50978000Y-32254925D01*
X50978000Y-32415075D01*
X50946758Y-32572142D01*
X50885471Y-32720101D01*
X50796501Y-32853255D01*
X50683255Y-32966501D01*
X50550101Y-33055471D01*
X50402142Y-33116758D01*
X50245075Y-33148000D01*
X50084925Y-33148000D01*
X49927858Y-33116758D01*
X49779899Y-33055471D01*
X49646745Y-32966501D01*
X49533499Y-32853255D01*
X49444529Y-32720101D01*
X49383242Y-32572142D01*
X49352000Y-32415075D01*
X49352000Y-32254925D01*
X49383242Y-32097858D01*
X49444529Y-31949899D01*
X49533499Y-31816745D01*
X49646745Y-31703499D01*
X49779899Y-31614529D01*
X49927858Y-31553242D01*
X50084925Y-31522000D01*
X50245075Y-31522000D01*
X50402142Y-31553242D01*
X50402142Y-31553242D01*
G37*
G36*
X64115928Y-32417764D02*
G01*
X64137009Y-32424160D01*
X64156445Y-32434548D01*
X64173476Y-32448524D01*
X64187452Y-32465555D01*
X64197840Y-32484991D01*
X64204236Y-32506072D01*
X64207000Y-32534140D01*
X64207000Y-32997860D01*
X64204236Y-33025928D01*
X64197840Y-33047009D01*
X64187452Y-33066445D01*
X64173476Y-33083476D01*
X64156445Y-33097452D01*
X64137009Y-33107840D01*
X64115928Y-33114236D01*
X64087860Y-33117000D01*
X62274140Y-33117000D01*
X62246072Y-33114236D01*
X62224991Y-33107840D01*
X62205555Y-33097452D01*
X62188524Y-33083476D01*
X62174548Y-33066445D01*
X62164160Y-33047009D01*
X62157764Y-33025928D01*
X62155000Y-32997860D01*
X62155000Y-32534140D01*
X62157764Y-32506072D01*
X62164160Y-32484991D01*
X62174548Y-32465555D01*
X62188524Y-32448524D01*
X62205555Y-32434548D01*
X62224991Y-32424160D01*
X62246072Y-32417764D01*
X62274140Y-32415000D01*
X64087860Y-32415000D01*
X64115928Y-32417764D01*
X64115928Y-32417764D01*
G37*
G36*
X59165928Y-32417764D02*
G01*
X59187009Y-32424160D01*
X59206445Y-32434548D01*
X59223476Y-32448524D01*
X59237452Y-32465555D01*
X59247840Y-32484991D01*
X59254236Y-32506072D01*
X59257000Y-32534140D01*
X59257000Y-32997860D01*
X59254236Y-33025928D01*
X59247840Y-33047009D01*
X59237452Y-33066445D01*
X59223476Y-33083476D01*
X59206445Y-33097452D01*
X59187009Y-33107840D01*
X59165928Y-33114236D01*
X59137860Y-33117000D01*
X57324140Y-33117000D01*
X57296072Y-33114236D01*
X57274991Y-33107840D01*
X57255555Y-33097452D01*
X57238524Y-33083476D01*
X57224548Y-33066445D01*
X57214160Y-33047009D01*
X57207764Y-33025928D01*
X57205000Y-32997860D01*
X57205000Y-32534140D01*
X57207764Y-32506072D01*
X57214160Y-32484991D01*
X57224548Y-32465555D01*
X57238524Y-32448524D01*
X57255555Y-32434548D01*
X57274991Y-32424160D01*
X57296072Y-32417764D01*
X57324140Y-32415000D01*
X59137860Y-32415000D01*
X59165928Y-32417764D01*
X59165928Y-32417764D01*
G37*
G36*
X64115928Y-31147764D02*
G01*
X64137009Y-31154160D01*
X64156445Y-31164548D01*
X64173476Y-31178524D01*
X64187452Y-31195555D01*
X64197840Y-31214991D01*
X64204236Y-31236072D01*
X64207000Y-31264140D01*
X64207000Y-31727860D01*
X64204236Y-31755928D01*
X64197840Y-31777009D01*
X64187452Y-31796445D01*
X64173476Y-31813476D01*
X64156445Y-31827452D01*
X64137009Y-31837840D01*
X64115928Y-31844236D01*
X64087860Y-31847000D01*
X62274140Y-31847000D01*
X62246072Y-31844236D01*
X62224991Y-31837840D01*
X62205555Y-31827452D01*
X62188524Y-31813476D01*
X62174548Y-31796445D01*
X62164160Y-31777009D01*
X62157764Y-31755928D01*
X62155000Y-31727860D01*
X62155000Y-31264140D01*
X62157764Y-31236072D01*
X62164160Y-31214991D01*
X62174548Y-31195555D01*
X62188524Y-31178524D01*
X62205555Y-31164548D01*
X62224991Y-31154160D01*
X62246072Y-31147764D01*
X62274140Y-31145000D01*
X64087860Y-31145000D01*
X64115928Y-31147764D01*
X64115928Y-31147764D01*
G37*
G36*
X59165928Y-31147764D02*
G01*
X59187009Y-31154160D01*
X59206445Y-31164548D01*
X59223476Y-31178524D01*
X59237452Y-31195555D01*
X59247840Y-31214991D01*
X59254236Y-31236072D01*
X59257000Y-31264140D01*
X59257000Y-31727860D01*
X59254236Y-31755928D01*
X59247840Y-31777009D01*
X59237452Y-31796445D01*
X59223476Y-31813476D01*
X59206445Y-31827452D01*
X59187009Y-31837840D01*
X59165928Y-31844236D01*
X59137860Y-31847000D01*
X57324140Y-31847000D01*
X57296072Y-31844236D01*
X57274991Y-31837840D01*
X57255555Y-31827452D01*
X57238524Y-31813476D01*
X57224548Y-31796445D01*
X57214160Y-31777009D01*
X57207764Y-31755928D01*
X57205000Y-31727860D01*
X57205000Y-31264140D01*
X57207764Y-31236072D01*
X57214160Y-31214991D01*
X57224548Y-31195555D01*
X57238524Y-31178524D01*
X57255555Y-31164548D01*
X57274991Y-31154160D01*
X57296072Y-31147764D01*
X57324140Y-31145000D01*
X59137860Y-31145000D01*
X59165928Y-31147764D01*
X59165928Y-31147764D01*
G37*
G36*
X67946442Y-29184518D02*
G01*
X68012627Y-29191037D01*
X68182466Y-29242557D01*
X68182468Y-29242558D01*
X68240311Y-29273476D01*
X68338991Y-29326222D01*
X68374729Y-29355552D01*
X68476186Y-29438814D01*
X68559448Y-29540271D01*
X68588778Y-29576009D01*
X68672443Y-29732534D01*
X68723963Y-29902373D01*
X68741359Y-30079000D01*
X68723963Y-30255627D01*
X68678718Y-30404779D01*
X68672442Y-30425468D01*
X68655128Y-30457860D01*
X68588778Y-30581991D01*
X68586429Y-30584853D01*
X68476186Y-30719186D01*
X68374729Y-30802448D01*
X68338991Y-30831778D01*
X68182466Y-30915443D01*
X68012627Y-30966963D01*
X67946442Y-30973482D01*
X67880260Y-30980000D01*
X67541740Y-30980000D01*
X67475558Y-30973482D01*
X67409373Y-30966963D01*
X67239534Y-30915443D01*
X67083009Y-30831778D01*
X67047271Y-30802448D01*
X66945814Y-30719186D01*
X66835571Y-30584853D01*
X66833222Y-30581991D01*
X66766872Y-30457860D01*
X66749558Y-30425468D01*
X66743282Y-30404779D01*
X66698037Y-30255627D01*
X66680641Y-30079000D01*
X66698037Y-29902373D01*
X66749557Y-29732534D01*
X66833222Y-29576009D01*
X66862552Y-29540271D01*
X66945814Y-29438814D01*
X67047271Y-29355552D01*
X67083009Y-29326222D01*
X67181689Y-29273476D01*
X67239532Y-29242558D01*
X67239534Y-29242557D01*
X67409373Y-29191037D01*
X67475558Y-29184518D01*
X67541740Y-29178000D01*
X67880260Y-29178000D01*
X67946442Y-29184518D01*
X67946442Y-29184518D01*
G37*
G36*
X72899442Y-29184518D02*
G01*
X72965627Y-29191037D01*
X73135466Y-29242557D01*
X73135468Y-29242558D01*
X73193311Y-29273476D01*
X73291991Y-29326222D01*
X73327729Y-29355552D01*
X73429186Y-29438814D01*
X73512448Y-29540271D01*
X73541778Y-29576009D01*
X73625443Y-29732534D01*
X73676963Y-29902373D01*
X73694359Y-30079000D01*
X73676963Y-30255627D01*
X73631718Y-30404779D01*
X73625442Y-30425468D01*
X73608128Y-30457860D01*
X73541778Y-30581991D01*
X73539429Y-30584853D01*
X73429186Y-30719186D01*
X73327729Y-30802448D01*
X73291991Y-30831778D01*
X73135466Y-30915443D01*
X72965627Y-30966963D01*
X72899442Y-30973482D01*
X72833260Y-30980000D01*
X72494740Y-30980000D01*
X72428558Y-30973482D01*
X72362373Y-30966963D01*
X72192534Y-30915443D01*
X72036009Y-30831778D01*
X72000271Y-30802448D01*
X71898814Y-30719186D01*
X71788571Y-30584853D01*
X71786222Y-30581991D01*
X71719872Y-30457860D01*
X71702558Y-30425468D01*
X71696282Y-30404779D01*
X71651037Y-30255627D01*
X71633641Y-30079000D01*
X71651037Y-29902373D01*
X71702557Y-29732534D01*
X71786222Y-29576009D01*
X71815552Y-29540271D01*
X71898814Y-29438814D01*
X72000271Y-29355552D01*
X72036009Y-29326222D01*
X72134689Y-29273476D01*
X72192532Y-29242558D01*
X72192534Y-29242557D01*
X72362373Y-29191037D01*
X72428558Y-29184518D01*
X72494740Y-29178000D01*
X72833260Y-29178000D01*
X72899442Y-29184518D01*
X72899442Y-29184518D01*
G37*
G36*
X50402142Y-29013242D02*
G01*
X50550101Y-29074529D01*
X50683255Y-29163499D01*
X50796501Y-29276745D01*
X50885471Y-29409899D01*
X50946758Y-29557858D01*
X50978000Y-29714925D01*
X50978000Y-29875075D01*
X50946758Y-30032142D01*
X50885471Y-30180101D01*
X50796501Y-30313255D01*
X50683255Y-30426501D01*
X50550101Y-30515471D01*
X50402142Y-30576758D01*
X50245075Y-30608000D01*
X50084925Y-30608000D01*
X49927858Y-30576758D01*
X49779899Y-30515471D01*
X49646745Y-30426501D01*
X49533499Y-30313255D01*
X49444529Y-30180101D01*
X49383242Y-30032142D01*
X49352000Y-29875075D01*
X49352000Y-29714925D01*
X49383242Y-29557858D01*
X49444529Y-29409899D01*
X49533499Y-29276745D01*
X49646745Y-29163499D01*
X49779899Y-29074529D01*
X49927858Y-29013242D01*
X50084925Y-28982000D01*
X50245075Y-28982000D01*
X50402142Y-29013242D01*
X50402142Y-29013242D01*
G37*
G36*
X59165928Y-29877764D02*
G01*
X59187009Y-29884160D01*
X59206445Y-29894548D01*
X59223476Y-29908524D01*
X59237452Y-29925555D01*
X59247840Y-29944991D01*
X59254236Y-29966072D01*
X59257000Y-29994140D01*
X59257000Y-30457860D01*
X59254236Y-30485928D01*
X59247840Y-30507009D01*
X59237452Y-30526445D01*
X59223476Y-30543476D01*
X59206445Y-30557452D01*
X59187009Y-30567840D01*
X59165928Y-30574236D01*
X59137860Y-30577000D01*
X57324140Y-30577000D01*
X57296072Y-30574236D01*
X57274991Y-30567840D01*
X57255555Y-30557452D01*
X57238524Y-30543476D01*
X57224548Y-30526445D01*
X57214160Y-30507009D01*
X57207764Y-30485928D01*
X57205000Y-30457860D01*
X57205000Y-29994140D01*
X57207764Y-29966072D01*
X57214160Y-29944991D01*
X57224548Y-29925555D01*
X57238524Y-29908524D01*
X57255555Y-29894548D01*
X57274991Y-29884160D01*
X57296072Y-29877764D01*
X57324140Y-29875000D01*
X59137860Y-29875000D01*
X59165928Y-29877764D01*
X59165928Y-29877764D01*
G37*
G36*
X64115928Y-29877764D02*
G01*
X64137009Y-29884160D01*
X64156445Y-29894548D01*
X64173476Y-29908524D01*
X64187452Y-29925555D01*
X64197840Y-29944991D01*
X64204236Y-29966072D01*
X64207000Y-29994140D01*
X64207000Y-30457860D01*
X64204236Y-30485928D01*
X64197840Y-30507009D01*
X64187452Y-30526445D01*
X64173476Y-30543476D01*
X64156445Y-30557452D01*
X64137009Y-30567840D01*
X64115928Y-30574236D01*
X64087860Y-30577000D01*
X62274140Y-30577000D01*
X62246072Y-30574236D01*
X62224991Y-30567840D01*
X62205555Y-30557452D01*
X62188524Y-30543476D01*
X62174548Y-30526445D01*
X62164160Y-30507009D01*
X62157764Y-30485928D01*
X62155000Y-30457860D01*
X62155000Y-29994140D01*
X62157764Y-29966072D01*
X62164160Y-29944991D01*
X62174548Y-29925555D01*
X62188524Y-29908524D01*
X62205555Y-29894548D01*
X62224991Y-29884160D01*
X62246072Y-29877764D01*
X62274140Y-29875000D01*
X64087860Y-29875000D01*
X64115928Y-29877764D01*
X64115928Y-29877764D01*
G37*
G36*
X3029443Y-28757519D02*
G01*
X3095627Y-28764037D01*
X3265466Y-28815557D01*
X3421991Y-28899222D01*
X3457729Y-28928552D01*
X3559186Y-29011814D01*
X3642448Y-29113271D01*
X3671778Y-29149009D01*
X3671779Y-29149011D01*
X3751331Y-29297840D01*
X3755443Y-29305534D01*
X3806963Y-29475373D01*
X3824359Y-29652000D01*
X3806963Y-29828627D01*
X3755443Y-29998466D01*
X3671778Y-30154991D01*
X3642448Y-30190729D01*
X3559186Y-30292186D01*
X3457729Y-30375448D01*
X3421991Y-30404778D01*
X3265466Y-30488443D01*
X3095627Y-30539963D01*
X3029442Y-30546482D01*
X2963260Y-30553000D01*
X2624740Y-30553000D01*
X2558558Y-30546482D01*
X2492373Y-30539963D01*
X2322534Y-30488443D01*
X2166009Y-30404778D01*
X2130271Y-30375448D01*
X2028814Y-30292186D01*
X1945552Y-30190729D01*
X1916222Y-30154991D01*
X1832557Y-29998466D01*
X1781037Y-29828627D01*
X1763641Y-29652000D01*
X1781037Y-29475373D01*
X1832557Y-29305534D01*
X1836670Y-29297840D01*
X1916221Y-29149011D01*
X1916222Y-29149009D01*
X1945552Y-29113271D01*
X2028814Y-29011814D01*
X2130271Y-28928552D01*
X2166009Y-28899222D01*
X2322534Y-28815557D01*
X2492373Y-28764037D01*
X2558557Y-28757519D01*
X2624740Y-28751000D01*
X2963260Y-28751000D01*
X3029443Y-28757519D01*
X3029443Y-28757519D01*
G37*
G36*
X59165928Y-28607764D02*
G01*
X59187009Y-28614160D01*
X59206445Y-28624548D01*
X59223476Y-28638524D01*
X59237452Y-28655555D01*
X59247840Y-28674991D01*
X59254236Y-28696072D01*
X59257000Y-28724140D01*
X59257000Y-29187860D01*
X59254236Y-29215928D01*
X59247840Y-29237009D01*
X59237452Y-29256445D01*
X59223476Y-29273476D01*
X59206445Y-29287452D01*
X59187009Y-29297840D01*
X59165928Y-29304236D01*
X59137860Y-29307000D01*
X57324140Y-29307000D01*
X57296072Y-29304236D01*
X57274991Y-29297840D01*
X57255555Y-29287452D01*
X57238524Y-29273476D01*
X57224548Y-29256445D01*
X57214160Y-29237009D01*
X57207764Y-29215928D01*
X57205000Y-29187860D01*
X57205000Y-28724140D01*
X57207764Y-28696072D01*
X57214160Y-28674991D01*
X57224548Y-28655555D01*
X57238524Y-28638524D01*
X57255555Y-28624548D01*
X57274991Y-28614160D01*
X57296072Y-28607764D01*
X57324140Y-28605000D01*
X59137860Y-28605000D01*
X59165928Y-28607764D01*
X59165928Y-28607764D01*
G37*
G36*
X64115928Y-28607764D02*
G01*
X64137009Y-28614160D01*
X64156445Y-28624548D01*
X64173476Y-28638524D01*
X64187452Y-28655555D01*
X64197840Y-28674991D01*
X64204236Y-28696072D01*
X64207000Y-28724140D01*
X64207000Y-29187860D01*
X64204236Y-29215928D01*
X64197840Y-29237009D01*
X64187452Y-29256445D01*
X64173476Y-29273476D01*
X64156445Y-29287452D01*
X64137009Y-29297840D01*
X64115928Y-29304236D01*
X64087860Y-29307000D01*
X62274140Y-29307000D01*
X62246072Y-29304236D01*
X62224991Y-29297840D01*
X62205555Y-29287452D01*
X62188524Y-29273476D01*
X62174548Y-29256445D01*
X62164160Y-29237009D01*
X62157764Y-29215928D01*
X62155000Y-29187860D01*
X62155000Y-28724140D01*
X62157764Y-28696072D01*
X62164160Y-28674991D01*
X62174548Y-28655555D01*
X62188524Y-28638524D01*
X62205555Y-28624548D01*
X62224991Y-28614160D01*
X62246072Y-28607764D01*
X62274140Y-28605000D01*
X64087860Y-28605000D01*
X64115928Y-28607764D01*
X64115928Y-28607764D01*
G37*
G36*
X72899442Y-26684518D02*
G01*
X72965627Y-26691037D01*
X73135466Y-26742557D01*
X73291991Y-26826222D01*
X73327729Y-26855552D01*
X73429186Y-26938814D01*
X73512448Y-27040271D01*
X73541778Y-27076009D01*
X73625443Y-27232534D01*
X73676963Y-27402373D01*
X73694359Y-27579000D01*
X73676963Y-27755627D01*
X73625443Y-27925466D01*
X73541778Y-28081991D01*
X73512448Y-28117729D01*
X73429186Y-28219186D01*
X73327729Y-28302448D01*
X73291991Y-28331778D01*
X73135466Y-28415443D01*
X72965627Y-28466963D01*
X72899442Y-28473482D01*
X72833260Y-28480000D01*
X72494740Y-28480000D01*
X72428558Y-28473482D01*
X72362373Y-28466963D01*
X72192534Y-28415443D01*
X72036009Y-28331778D01*
X72000271Y-28302448D01*
X71898814Y-28219186D01*
X71815552Y-28117729D01*
X71786222Y-28081991D01*
X71702557Y-27925466D01*
X71651037Y-27755627D01*
X71633641Y-27579000D01*
X71651037Y-27402373D01*
X71702557Y-27232534D01*
X71786222Y-27076009D01*
X71815552Y-27040271D01*
X71898814Y-26938814D01*
X72000271Y-26855552D01*
X72036009Y-26826222D01*
X72192534Y-26742557D01*
X72362373Y-26691037D01*
X72428558Y-26684518D01*
X72494740Y-26678000D01*
X72833260Y-26678000D01*
X72899442Y-26684518D01*
X72899442Y-26684518D01*
G37*
G36*
X67946442Y-26684518D02*
G01*
X68012627Y-26691037D01*
X68182466Y-26742557D01*
X68338991Y-26826222D01*
X68374729Y-26855552D01*
X68476186Y-26938814D01*
X68559448Y-27040271D01*
X68588778Y-27076009D01*
X68672443Y-27232534D01*
X68723963Y-27402373D01*
X68741359Y-27579000D01*
X68723963Y-27755627D01*
X68672443Y-27925466D01*
X68588778Y-28081991D01*
X68559448Y-28117729D01*
X68476186Y-28219186D01*
X68374729Y-28302448D01*
X68338991Y-28331778D01*
X68182466Y-28415443D01*
X68012627Y-28466963D01*
X67946442Y-28473482D01*
X67880260Y-28480000D01*
X67541740Y-28480000D01*
X67475558Y-28473482D01*
X67409373Y-28466963D01*
X67239534Y-28415443D01*
X67083009Y-28331778D01*
X67047271Y-28302448D01*
X66945814Y-28219186D01*
X66862552Y-28117729D01*
X66833222Y-28081991D01*
X66749557Y-27925466D01*
X66698037Y-27755627D01*
X66680641Y-27579000D01*
X66698037Y-27402373D01*
X66749557Y-27232534D01*
X66833222Y-27076009D01*
X66862552Y-27040271D01*
X66945814Y-26938814D01*
X67047271Y-26855552D01*
X67083009Y-26826222D01*
X67239534Y-26742557D01*
X67409373Y-26691037D01*
X67475558Y-26684518D01*
X67541740Y-26678000D01*
X67880260Y-26678000D01*
X67946442Y-26684518D01*
X67946442Y-26684518D01*
G37*
G36*
X3029442Y-26257518D02*
G01*
X3095627Y-26264037D01*
X3265466Y-26315557D01*
X3421991Y-26399222D01*
X3444794Y-26417936D01*
X3559186Y-26511814D01*
X3642448Y-26613271D01*
X3671778Y-26649009D01*
X3755443Y-26805534D01*
X3806963Y-26975373D01*
X3824359Y-27152000D01*
X3806963Y-27328627D01*
X3755443Y-27498466D01*
X3671778Y-27654991D01*
X3642448Y-27690729D01*
X3559186Y-27792186D01*
X3457729Y-27875448D01*
X3421991Y-27904778D01*
X3265466Y-27988443D01*
X3095627Y-28039963D01*
X3029442Y-28046482D01*
X2963260Y-28053000D01*
X2624740Y-28053000D01*
X2558558Y-28046482D01*
X2492373Y-28039963D01*
X2322534Y-27988443D01*
X2166009Y-27904778D01*
X2130271Y-27875448D01*
X2028814Y-27792186D01*
X1945552Y-27690729D01*
X1916222Y-27654991D01*
X1832557Y-27498466D01*
X1781037Y-27328627D01*
X1763641Y-27152000D01*
X1781037Y-26975373D01*
X1832557Y-26805534D01*
X1916222Y-26649009D01*
X1945552Y-26613271D01*
X2028814Y-26511814D01*
X2143206Y-26417936D01*
X2166009Y-26399222D01*
X2322534Y-26315557D01*
X2492373Y-26264037D01*
X2558558Y-26257518D01*
X2624740Y-26251000D01*
X2963260Y-26251000D01*
X3029442Y-26257518D01*
X3029442Y-26257518D01*
G37*
G36*
X72899442Y-24184518D02*
G01*
X72965627Y-24191037D01*
X73135466Y-24242557D01*
X73291991Y-24326222D01*
X73327729Y-24355552D01*
X73429186Y-24438814D01*
X73498472Y-24523241D01*
X73541778Y-24576009D01*
X73625443Y-24732534D01*
X73676963Y-24902373D01*
X73694359Y-25079000D01*
X73676963Y-25255627D01*
X73625443Y-25425466D01*
X73541778Y-25581991D01*
X73512448Y-25617729D01*
X73429186Y-25719186D01*
X73327729Y-25802448D01*
X73291991Y-25831778D01*
X73135466Y-25915443D01*
X72965627Y-25966963D01*
X72899443Y-25973481D01*
X72833260Y-25980000D01*
X72494740Y-25980000D01*
X72428558Y-25973482D01*
X72362373Y-25966963D01*
X72192534Y-25915443D01*
X72036009Y-25831778D01*
X72000271Y-25802448D01*
X71898814Y-25719186D01*
X71815552Y-25617729D01*
X71786222Y-25581991D01*
X71702557Y-25425466D01*
X71651037Y-25255627D01*
X71633641Y-25079000D01*
X71651037Y-24902373D01*
X71702557Y-24732534D01*
X71786222Y-24576009D01*
X71829528Y-24523241D01*
X71898814Y-24438814D01*
X72000271Y-24355552D01*
X72036009Y-24326222D01*
X72192534Y-24242557D01*
X72362373Y-24191037D01*
X72428557Y-24184519D01*
X72494740Y-24178000D01*
X72833260Y-24178000D01*
X72899442Y-24184518D01*
X72899442Y-24184518D01*
G37*
G36*
X67946442Y-24184518D02*
G01*
X68012627Y-24191037D01*
X68182466Y-24242557D01*
X68338991Y-24326222D01*
X68374729Y-24355552D01*
X68476186Y-24438814D01*
X68545472Y-24523241D01*
X68588778Y-24576009D01*
X68672443Y-24732534D01*
X68723963Y-24902373D01*
X68741359Y-25079000D01*
X68723963Y-25255627D01*
X68672443Y-25425466D01*
X68588778Y-25581991D01*
X68559448Y-25617729D01*
X68476186Y-25719186D01*
X68374729Y-25802448D01*
X68338991Y-25831778D01*
X68182466Y-25915443D01*
X68012627Y-25966963D01*
X67946443Y-25973481D01*
X67880260Y-25980000D01*
X67541740Y-25980000D01*
X67475558Y-25973482D01*
X67409373Y-25966963D01*
X67239534Y-25915443D01*
X67083009Y-25831778D01*
X67047271Y-25802448D01*
X66945814Y-25719186D01*
X66862552Y-25617729D01*
X66833222Y-25581991D01*
X66749557Y-25425466D01*
X66698037Y-25255627D01*
X66680641Y-25079000D01*
X66698037Y-24902373D01*
X66749557Y-24732534D01*
X66833222Y-24576009D01*
X66876528Y-24523241D01*
X66945814Y-24438814D01*
X67047271Y-24355552D01*
X67083009Y-24326222D01*
X67239534Y-24242557D01*
X67409373Y-24191037D01*
X67475557Y-24184519D01*
X67541740Y-24178000D01*
X67880260Y-24178000D01*
X67946442Y-24184518D01*
X67946442Y-24184518D01*
G37*
G36*
X3029442Y-23757518D02*
G01*
X3095627Y-23764037D01*
X3265466Y-23815557D01*
X3421991Y-23899222D01*
X3457729Y-23928552D01*
X3559186Y-24011814D01*
X3642448Y-24113271D01*
X3671778Y-24149009D01*
X3755443Y-24305534D01*
X3806963Y-24475373D01*
X3824359Y-24652000D01*
X3806963Y-24828627D01*
X3755443Y-24998466D01*
X3671778Y-25154991D01*
X3642448Y-25190729D01*
X3559186Y-25292186D01*
X3457729Y-25375448D01*
X3421991Y-25404778D01*
X3265466Y-25488443D01*
X3095627Y-25539963D01*
X3029443Y-25546481D01*
X2963260Y-25553000D01*
X2624740Y-25553000D01*
X2558557Y-25546481D01*
X2492373Y-25539963D01*
X2322534Y-25488443D01*
X2166009Y-25404778D01*
X2130271Y-25375448D01*
X2028814Y-25292186D01*
X1945552Y-25190729D01*
X1916222Y-25154991D01*
X1832557Y-24998466D01*
X1781037Y-24828627D01*
X1763641Y-24652000D01*
X1781037Y-24475373D01*
X1832557Y-24305534D01*
X1916222Y-24149009D01*
X1945552Y-24113271D01*
X2028814Y-24011814D01*
X2130271Y-23928552D01*
X2166009Y-23899222D01*
X2322534Y-23815557D01*
X2492373Y-23764037D01*
X2558558Y-23757518D01*
X2624740Y-23751000D01*
X2963260Y-23751000D01*
X3029442Y-23757518D01*
X3029442Y-23757518D01*
G37*
G36*
X45723241Y-22704760D02*
G01*
X45987305Y-22814139D01*
X46224958Y-22972934D01*
X46427066Y-23175042D01*
X46585861Y-23412695D01*
X46695240Y-23676759D01*
X46751000Y-23957088D01*
X46751000Y-24242912D01*
X46695240Y-24523241D01*
X46585861Y-24787305D01*
X46427066Y-25024958D01*
X46224958Y-25227066D01*
X45987305Y-25385861D01*
X45723241Y-25495240D01*
X45442912Y-25551000D01*
X45157088Y-25551000D01*
X44876759Y-25495240D01*
X44612695Y-25385861D01*
X44375042Y-25227066D01*
X44172934Y-25024958D01*
X44014139Y-24787305D01*
X43904760Y-24523241D01*
X43849000Y-24242912D01*
X43849000Y-23957088D01*
X43904760Y-23676759D01*
X44014139Y-23412695D01*
X44172934Y-23175042D01*
X44375042Y-22972934D01*
X44612695Y-22814139D01*
X44876759Y-22704760D01*
X45157088Y-22649000D01*
X45442912Y-22649000D01*
X45723241Y-22704760D01*
X45723241Y-22704760D01*
G37*
G36*
X25723241Y-22704760D02*
G01*
X25987305Y-22814139D01*
X26224958Y-22972934D01*
X26427066Y-23175042D01*
X26585861Y-23412695D01*
X26695240Y-23676759D01*
X26751000Y-23957088D01*
X26751000Y-24242912D01*
X26695240Y-24523241D01*
X26585861Y-24787305D01*
X26427066Y-25024958D01*
X26224958Y-25227066D01*
X25987305Y-25385861D01*
X25723241Y-25495240D01*
X25442912Y-25551000D01*
X25157088Y-25551000D01*
X24876759Y-25495240D01*
X24612695Y-25385861D01*
X24375042Y-25227066D01*
X24172934Y-25024958D01*
X24014139Y-24787305D01*
X23904760Y-24523241D01*
X23849000Y-24242912D01*
X23849000Y-23957088D01*
X23904760Y-23676759D01*
X24014139Y-23412695D01*
X24172934Y-23175042D01*
X24375042Y-22972934D01*
X24612695Y-22814139D01*
X24876759Y-22704760D01*
X25157088Y-22649000D01*
X25442912Y-22649000D01*
X25723241Y-22704760D01*
X25723241Y-22704760D01*
G37*
G36*
X57045000Y-23526000D02*
G01*
X55843000Y-23526000D01*
X55843000Y-14574000D01*
X57045000Y-14574000D01*
X57045000Y-23526000D01*
X57045000Y-23526000D01*
G37*
G36*
X51345000Y-23526000D02*
G01*
X50143000Y-23526000D01*
X50143000Y-14574000D01*
X51345000Y-14574000D01*
X51345000Y-23526000D01*
X51345000Y-23526000D01*
G37*
G36*
X72899443Y-21684519D02*
G01*
X72965627Y-21691037D01*
X73135466Y-21742557D01*
X73135468Y-21742558D01*
X73171841Y-21762000D01*
X73291991Y-21826222D01*
X73327729Y-21855552D01*
X73429186Y-21938814D01*
X73512448Y-22040271D01*
X73541778Y-22076009D01*
X73541779Y-22076011D01*
X73621951Y-22226000D01*
X73625443Y-22232534D01*
X73676963Y-22402373D01*
X73694359Y-22579000D01*
X73676963Y-22755627D01*
X73625443Y-22925466D01*
X73541778Y-23081991D01*
X73512448Y-23117729D01*
X73429186Y-23219186D01*
X73327729Y-23302448D01*
X73291991Y-23331778D01*
X73135466Y-23415443D01*
X72965627Y-23466963D01*
X72899443Y-23473481D01*
X72833260Y-23480000D01*
X72494740Y-23480000D01*
X72428557Y-23473481D01*
X72362373Y-23466963D01*
X72192534Y-23415443D01*
X72036009Y-23331778D01*
X72000271Y-23302448D01*
X71898814Y-23219186D01*
X71815552Y-23117729D01*
X71786222Y-23081991D01*
X71702557Y-22925466D01*
X71651037Y-22755627D01*
X71633641Y-22579000D01*
X71651037Y-22402373D01*
X71702557Y-22232534D01*
X71706050Y-22226000D01*
X71786221Y-22076011D01*
X71786222Y-22076009D01*
X71815552Y-22040271D01*
X71898814Y-21938814D01*
X72000271Y-21855552D01*
X72036009Y-21826222D01*
X72156159Y-21762000D01*
X72192532Y-21742558D01*
X72192534Y-21742557D01*
X72362373Y-21691037D01*
X72428558Y-21684518D01*
X72494740Y-21678000D01*
X72833260Y-21678000D01*
X72899443Y-21684519D01*
X72899443Y-21684519D01*
G37*
G36*
X67946443Y-21684519D02*
G01*
X68012627Y-21691037D01*
X68182466Y-21742557D01*
X68182468Y-21742558D01*
X68218841Y-21762000D01*
X68338991Y-21826222D01*
X68374729Y-21855552D01*
X68476186Y-21938814D01*
X68559448Y-22040271D01*
X68588778Y-22076009D01*
X68588779Y-22076011D01*
X68668951Y-22226000D01*
X68672443Y-22232534D01*
X68723963Y-22402373D01*
X68741359Y-22579000D01*
X68723963Y-22755627D01*
X68672443Y-22925466D01*
X68588778Y-23081991D01*
X68559448Y-23117729D01*
X68476186Y-23219186D01*
X68374729Y-23302448D01*
X68338991Y-23331778D01*
X68182466Y-23415443D01*
X68012627Y-23466963D01*
X67946443Y-23473481D01*
X67880260Y-23480000D01*
X67541740Y-23480000D01*
X67475557Y-23473481D01*
X67409373Y-23466963D01*
X67239534Y-23415443D01*
X67083009Y-23331778D01*
X67047271Y-23302448D01*
X66945814Y-23219186D01*
X66862552Y-23117729D01*
X66833222Y-23081991D01*
X66749557Y-22925466D01*
X66698037Y-22755627D01*
X66680641Y-22579000D01*
X66698037Y-22402373D01*
X66749557Y-22232534D01*
X66753050Y-22226000D01*
X66833221Y-22076011D01*
X66833222Y-22076009D01*
X66862552Y-22040271D01*
X66945814Y-21938814D01*
X67047271Y-21855552D01*
X67083009Y-21826222D01*
X67203159Y-21762000D01*
X67239532Y-21742558D01*
X67239534Y-21742557D01*
X67409373Y-21691037D01*
X67475558Y-21684518D01*
X67541740Y-21678000D01*
X67880260Y-21678000D01*
X67946443Y-21684519D01*
X67946443Y-21684519D01*
G37*
G36*
X3029443Y-21257519D02*
G01*
X3095627Y-21264037D01*
X3265466Y-21315557D01*
X3421991Y-21399222D01*
X3457729Y-21428552D01*
X3559186Y-21511814D01*
X3605742Y-21568544D01*
X3671778Y-21649009D01*
X3755443Y-21805534D01*
X3806963Y-21975373D01*
X3824359Y-22152000D01*
X3806963Y-22328627D01*
X3755443Y-22498466D01*
X3755442Y-22498468D01*
X3713610Y-22576729D01*
X3671778Y-22654991D01*
X3642448Y-22690729D01*
X3559186Y-22792186D01*
X3457729Y-22875448D01*
X3421991Y-22904778D01*
X3265466Y-22988443D01*
X3095627Y-23039963D01*
X3029442Y-23046482D01*
X2963260Y-23053000D01*
X2624740Y-23053000D01*
X2558558Y-23046482D01*
X2492373Y-23039963D01*
X2322534Y-22988443D01*
X2166009Y-22904778D01*
X2130271Y-22875448D01*
X2028814Y-22792186D01*
X1945552Y-22690729D01*
X1916222Y-22654991D01*
X1874390Y-22576729D01*
X1832558Y-22498468D01*
X1832557Y-22498466D01*
X1781037Y-22328627D01*
X1763641Y-22152000D01*
X1781037Y-21975373D01*
X1832557Y-21805534D01*
X1916222Y-21649009D01*
X1982258Y-21568544D01*
X2028814Y-21511814D01*
X2130271Y-21428552D01*
X2166009Y-21399222D01*
X2322534Y-21315557D01*
X2492373Y-21264037D01*
X2558557Y-21257519D01*
X2624740Y-21251000D01*
X2963260Y-21251000D01*
X3029443Y-21257519D01*
X3029443Y-21257519D01*
G37*
G36*
X21479544Y-19132083D02*
G01*
X21591616Y-19166080D01*
X21694894Y-19221283D01*
X21785422Y-19295578D01*
X21859717Y-19386106D01*
X21914920Y-19489384D01*
X21948917Y-19601456D01*
X21961000Y-19724140D01*
X21961000Y-21157860D01*
X21948917Y-21280544D01*
X21914920Y-21392616D01*
X21859717Y-21495894D01*
X21785422Y-21586422D01*
X21694894Y-21660717D01*
X21591616Y-21715920D01*
X21479544Y-21749917D01*
X21356860Y-21762000D01*
X17383140Y-21762000D01*
X17260456Y-21749917D01*
X17148384Y-21715920D01*
X17045106Y-21660717D01*
X16954578Y-21586422D01*
X16880283Y-21495894D01*
X16825080Y-21392616D01*
X16791083Y-21280544D01*
X16779000Y-21157860D01*
X16779000Y-19724140D01*
X16791083Y-19601456D01*
X16825080Y-19489384D01*
X16880283Y-19386106D01*
X16954578Y-19295578D01*
X17045106Y-19221283D01*
X17148384Y-19166080D01*
X17260456Y-19132083D01*
X17383140Y-19120000D01*
X21356860Y-19120000D01*
X21479544Y-19132083D01*
X21479544Y-19132083D01*
G37*
G36*
X10679544Y-19132083D02*
G01*
X10791616Y-19166080D01*
X10894894Y-19221283D01*
X10985422Y-19295578D01*
X11059717Y-19386106D01*
X11114920Y-19489384D01*
X11148917Y-19601456D01*
X11161000Y-19724140D01*
X11161000Y-21157860D01*
X11148917Y-21280544D01*
X11114920Y-21392616D01*
X11059717Y-21495894D01*
X10985422Y-21586422D01*
X10894894Y-21660717D01*
X10791616Y-21715920D01*
X10679544Y-21749917D01*
X10556860Y-21762000D01*
X6583140Y-21762000D01*
X6460456Y-21749917D01*
X6348384Y-21715920D01*
X6245106Y-21660717D01*
X6154578Y-21586422D01*
X6080283Y-21495894D01*
X6025080Y-21392616D01*
X5991083Y-21280544D01*
X5979000Y-21157860D01*
X5979000Y-19724140D01*
X5991083Y-19601456D01*
X6025080Y-19489384D01*
X6080283Y-19386106D01*
X6154578Y-19295578D01*
X6245106Y-19221283D01*
X6348384Y-19166080D01*
X6460456Y-19132083D01*
X6583140Y-19120000D01*
X10556860Y-19120000D01*
X10679544Y-19132083D01*
X10679544Y-19132083D01*
G37*
G36*
X72899442Y-19184518D02*
G01*
X72965627Y-19191037D01*
X73135466Y-19242557D01*
X73135468Y-19242558D01*
X73213728Y-19284389D01*
X73291991Y-19326222D01*
X73327729Y-19355552D01*
X73429186Y-19438814D01*
X73502163Y-19527738D01*
X73541778Y-19576009D01*
X73625443Y-19732534D01*
X73676963Y-19902373D01*
X73694359Y-20079000D01*
X73676963Y-20255627D01*
X73625443Y-20425466D01*
X73541778Y-20581991D01*
X73512448Y-20617729D01*
X73429186Y-20719186D01*
X73327729Y-20802448D01*
X73291991Y-20831778D01*
X73135466Y-20915443D01*
X72965627Y-20966963D01*
X72899443Y-20973481D01*
X72833260Y-20980000D01*
X72494740Y-20980000D01*
X72428557Y-20973481D01*
X72362373Y-20966963D01*
X72192534Y-20915443D01*
X72036009Y-20831778D01*
X72000271Y-20802448D01*
X71898814Y-20719186D01*
X71815552Y-20617729D01*
X71786222Y-20581991D01*
X71702557Y-20425466D01*
X71651037Y-20255627D01*
X71633641Y-20079000D01*
X71651037Y-19902373D01*
X71702557Y-19732534D01*
X71786222Y-19576009D01*
X71825837Y-19527738D01*
X71898814Y-19438814D01*
X72000271Y-19355552D01*
X72036009Y-19326222D01*
X72114271Y-19284390D01*
X72192532Y-19242558D01*
X72192534Y-19242557D01*
X72362373Y-19191037D01*
X72428558Y-19184518D01*
X72494740Y-19178000D01*
X72833260Y-19178000D01*
X72899442Y-19184518D01*
X72899442Y-19184518D01*
G37*
G36*
X67946442Y-19184518D02*
G01*
X68012627Y-19191037D01*
X68182466Y-19242557D01*
X68182468Y-19242558D01*
X68260728Y-19284389D01*
X68338991Y-19326222D01*
X68374729Y-19355552D01*
X68476186Y-19438814D01*
X68549163Y-19527738D01*
X68588778Y-19576009D01*
X68672443Y-19732534D01*
X68723963Y-19902373D01*
X68741359Y-20079000D01*
X68723963Y-20255627D01*
X68672443Y-20425466D01*
X68588778Y-20581991D01*
X68559448Y-20617729D01*
X68476186Y-20719186D01*
X68374729Y-20802448D01*
X68338991Y-20831778D01*
X68182466Y-20915443D01*
X68012627Y-20966963D01*
X67946443Y-20973481D01*
X67880260Y-20980000D01*
X67541740Y-20980000D01*
X67475557Y-20973481D01*
X67409373Y-20966963D01*
X67239534Y-20915443D01*
X67083009Y-20831778D01*
X67047271Y-20802448D01*
X66945814Y-20719186D01*
X66862552Y-20617729D01*
X66833222Y-20581991D01*
X66749557Y-20425466D01*
X66698037Y-20255627D01*
X66680641Y-20079000D01*
X66698037Y-19902373D01*
X66749557Y-19732534D01*
X66833222Y-19576009D01*
X66872837Y-19527738D01*
X66945814Y-19438814D01*
X67047271Y-19355552D01*
X67083009Y-19326222D01*
X67161271Y-19284390D01*
X67239532Y-19242558D01*
X67239534Y-19242557D01*
X67409373Y-19191037D01*
X67475558Y-19184518D01*
X67541740Y-19178000D01*
X67880260Y-19178000D01*
X67946442Y-19184518D01*
X67946442Y-19184518D01*
G37*
G36*
X33416627Y-18537037D02*
G01*
X33586466Y-18588557D01*
X33742991Y-18672222D01*
X33778729Y-18701552D01*
X33880186Y-18784814D01*
X33963448Y-18886271D01*
X33992778Y-18922009D01*
X34076443Y-19078534D01*
X34127963Y-19248374D01*
X34127963Y-19248376D01*
X34141000Y-19380741D01*
X34141000Y-19719260D01*
X34134968Y-19780500D01*
X34127963Y-19851627D01*
X34076443Y-20021466D01*
X33992778Y-20177991D01*
X33963448Y-20213729D01*
X33880186Y-20315186D01*
X33742989Y-20427779D01*
X33586467Y-20511442D01*
X33586465Y-20511443D01*
X33416626Y-20562963D01*
X33240000Y-20580359D01*
X33063373Y-20562963D01*
X32893534Y-20511443D01*
X32737009Y-20427778D01*
X32694750Y-20393097D01*
X32599814Y-20315186D01*
X32487221Y-20177989D01*
X32403558Y-20021467D01*
X32396581Y-19998468D01*
X32352037Y-19851626D01*
X32344392Y-19774000D01*
X32339000Y-19719259D01*
X32339000Y-19380740D01*
X32352037Y-19248375D01*
X32352037Y-19248373D01*
X32403557Y-19078534D01*
X32487222Y-18922009D01*
X32599815Y-18784815D01*
X32737010Y-18672222D01*
X32893535Y-18588557D01*
X33063374Y-18537037D01*
X33240000Y-18519641D01*
X33416627Y-18537037D01*
X33416627Y-18537037D01*
G37*
G36*
X30916627Y-18537037D02*
G01*
X31086466Y-18588557D01*
X31242991Y-18672222D01*
X31278729Y-18701552D01*
X31380186Y-18784814D01*
X31463448Y-18886271D01*
X31492778Y-18922009D01*
X31576443Y-19078534D01*
X31627963Y-19248374D01*
X31627963Y-19248376D01*
X31641000Y-19380741D01*
X31641000Y-19719260D01*
X31634968Y-19780500D01*
X31627963Y-19851627D01*
X31576443Y-20021466D01*
X31492778Y-20177991D01*
X31463448Y-20213729D01*
X31380186Y-20315186D01*
X31242989Y-20427779D01*
X31086467Y-20511442D01*
X31086465Y-20511443D01*
X30916626Y-20562963D01*
X30740000Y-20580359D01*
X30563373Y-20562963D01*
X30393534Y-20511443D01*
X30237009Y-20427778D01*
X30194750Y-20393097D01*
X30099814Y-20315186D01*
X29987221Y-20177989D01*
X29903558Y-20021467D01*
X29896581Y-19998468D01*
X29852037Y-19851626D01*
X29844392Y-19774000D01*
X29839000Y-19719259D01*
X29839000Y-19380740D01*
X29852037Y-19248375D01*
X29852037Y-19248373D01*
X29903557Y-19078534D01*
X29987222Y-18922009D01*
X30099815Y-18784815D01*
X30237010Y-18672222D01*
X30393535Y-18588557D01*
X30563374Y-18537037D01*
X30740000Y-18519641D01*
X30916627Y-18537037D01*
X30916627Y-18537037D01*
G37*
G36*
X35916627Y-18537037D02*
G01*
X36086466Y-18588557D01*
X36242991Y-18672222D01*
X36278729Y-18701552D01*
X36380186Y-18784814D01*
X36463448Y-18886271D01*
X36492778Y-18922009D01*
X36576443Y-19078534D01*
X36627963Y-19248374D01*
X36627963Y-19248376D01*
X36641000Y-19380741D01*
X36641000Y-19719260D01*
X36634968Y-19780500D01*
X36627963Y-19851627D01*
X36576443Y-20021466D01*
X36492778Y-20177991D01*
X36463448Y-20213729D01*
X36380186Y-20315186D01*
X36242989Y-20427779D01*
X36086467Y-20511442D01*
X36086465Y-20511443D01*
X35916626Y-20562963D01*
X35740000Y-20580359D01*
X35563373Y-20562963D01*
X35393534Y-20511443D01*
X35237009Y-20427778D01*
X35194750Y-20393097D01*
X35099814Y-20315186D01*
X34987221Y-20177989D01*
X34903558Y-20021467D01*
X34896581Y-19998468D01*
X34852037Y-19851626D01*
X34844392Y-19774000D01*
X34839000Y-19719259D01*
X34839000Y-19380740D01*
X34852037Y-19248375D01*
X34852037Y-19248373D01*
X34903557Y-19078534D01*
X34987222Y-18922009D01*
X35099815Y-18784815D01*
X35237010Y-18672222D01*
X35393535Y-18588557D01*
X35563374Y-18537037D01*
X35740000Y-18519641D01*
X35916627Y-18537037D01*
X35916627Y-18537037D01*
G37*
G36*
X38416627Y-18537037D02*
G01*
X38586466Y-18588557D01*
X38742991Y-18672222D01*
X38778729Y-18701552D01*
X38880186Y-18784814D01*
X38963448Y-18886271D01*
X38992778Y-18922009D01*
X39076443Y-19078534D01*
X39127963Y-19248374D01*
X39127963Y-19248376D01*
X39141000Y-19380741D01*
X39141000Y-19719260D01*
X39134968Y-19780500D01*
X39127963Y-19851627D01*
X39076443Y-20021466D01*
X38992778Y-20177991D01*
X38963448Y-20213729D01*
X38880186Y-20315186D01*
X38742989Y-20427779D01*
X38586467Y-20511442D01*
X38586465Y-20511443D01*
X38416626Y-20562963D01*
X38240000Y-20580359D01*
X38063373Y-20562963D01*
X37893534Y-20511443D01*
X37737009Y-20427778D01*
X37694750Y-20393097D01*
X37599814Y-20315186D01*
X37487221Y-20177989D01*
X37403558Y-20021467D01*
X37396581Y-19998468D01*
X37352037Y-19851626D01*
X37344392Y-19774000D01*
X37339000Y-19719259D01*
X37339000Y-19380740D01*
X37352037Y-19248375D01*
X37352037Y-19248373D01*
X37403557Y-19078534D01*
X37487222Y-18922009D01*
X37599815Y-18784815D01*
X37737010Y-18672222D01*
X37893535Y-18588557D01*
X38063374Y-18537037D01*
X38240000Y-18519641D01*
X38416627Y-18537037D01*
X38416627Y-18537037D01*
G37*
G36*
X43416627Y-18537037D02*
G01*
X43586466Y-18588557D01*
X43742991Y-18672222D01*
X43778729Y-18701552D01*
X43880186Y-18784814D01*
X43963448Y-18886271D01*
X43992778Y-18922009D01*
X44076443Y-19078534D01*
X44127963Y-19248374D01*
X44127963Y-19248376D01*
X44141000Y-19380741D01*
X44141000Y-19719260D01*
X44134968Y-19780500D01*
X44127963Y-19851627D01*
X44076443Y-20021466D01*
X43992778Y-20177991D01*
X43963448Y-20213729D01*
X43880186Y-20315186D01*
X43742989Y-20427779D01*
X43586467Y-20511442D01*
X43586465Y-20511443D01*
X43416626Y-20562963D01*
X43240000Y-20580359D01*
X43063373Y-20562963D01*
X42893534Y-20511443D01*
X42737009Y-20427778D01*
X42694750Y-20393097D01*
X42599814Y-20315186D01*
X42487221Y-20177989D01*
X42403558Y-20021467D01*
X42396581Y-19998468D01*
X42352037Y-19851626D01*
X42344392Y-19774000D01*
X42339000Y-19719259D01*
X42339000Y-19380740D01*
X42352037Y-19248375D01*
X42352037Y-19248373D01*
X42403557Y-19078534D01*
X42487222Y-18922009D01*
X42599815Y-18784815D01*
X42737010Y-18672222D01*
X42893535Y-18588557D01*
X43063374Y-18537037D01*
X43240000Y-18519641D01*
X43416627Y-18537037D01*
X43416627Y-18537037D01*
G37*
G36*
X40916627Y-18537037D02*
G01*
X41086466Y-18588557D01*
X41242991Y-18672222D01*
X41278729Y-18701552D01*
X41380186Y-18784814D01*
X41463448Y-18886271D01*
X41492778Y-18922009D01*
X41576443Y-19078534D01*
X41627963Y-19248374D01*
X41627963Y-19248376D01*
X41641000Y-19380741D01*
X41641000Y-19719260D01*
X41634968Y-19780500D01*
X41627963Y-19851627D01*
X41576443Y-20021466D01*
X41492778Y-20177991D01*
X41463448Y-20213729D01*
X41380186Y-20315186D01*
X41242989Y-20427779D01*
X41086467Y-20511442D01*
X41086465Y-20511443D01*
X40916626Y-20562963D01*
X40740000Y-20580359D01*
X40563373Y-20562963D01*
X40393534Y-20511443D01*
X40237009Y-20427778D01*
X40194750Y-20393097D01*
X40099814Y-20315186D01*
X39987221Y-20177989D01*
X39903558Y-20021467D01*
X39896581Y-19998468D01*
X39852037Y-19851626D01*
X39844392Y-19774000D01*
X39839000Y-19719259D01*
X39839000Y-19380740D01*
X39852037Y-19248375D01*
X39852037Y-19248373D01*
X39903557Y-19078534D01*
X39987222Y-18922009D01*
X40099815Y-18784815D01*
X40237010Y-18672222D01*
X40393535Y-18588557D01*
X40563374Y-18537037D01*
X40740000Y-18519641D01*
X40916627Y-18537037D01*
X40916627Y-18537037D01*
G37*
G36*
X46498600Y-18527989D02*
G01*
X46531652Y-18538015D01*
X46562103Y-18554292D01*
X46588799Y-18576201D01*
X46610708Y-18602897D01*
X46626985Y-18633348D01*
X46637011Y-18666400D01*
X46641000Y-18706903D01*
X46641000Y-20393097D01*
X46637011Y-20433600D01*
X46626985Y-20466652D01*
X46610708Y-20497103D01*
X46588799Y-20523799D01*
X46562103Y-20545708D01*
X46531652Y-20561985D01*
X46498600Y-20572011D01*
X46458097Y-20576000D01*
X45021903Y-20576000D01*
X44981400Y-20572011D01*
X44948348Y-20561985D01*
X44917897Y-20545708D01*
X44891201Y-20523799D01*
X44869292Y-20497103D01*
X44853015Y-20466652D01*
X44842989Y-20433600D01*
X44839000Y-20393097D01*
X44839000Y-18706903D01*
X44842989Y-18666400D01*
X44853015Y-18633348D01*
X44869292Y-18602897D01*
X44891201Y-18576201D01*
X44917897Y-18554292D01*
X44948348Y-18538015D01*
X44981400Y-18527989D01*
X45021903Y-18524000D01*
X46458097Y-18524000D01*
X46498600Y-18527989D01*
X46498600Y-18527989D01*
G37*
G36*
X3029443Y-18757519D02*
G01*
X3095627Y-18764037D01*
X3265466Y-18815557D01*
X3421991Y-18899222D01*
X3449757Y-18922009D01*
X3559186Y-19011814D01*
X3642448Y-19113271D01*
X3671778Y-19149009D01*
X3755443Y-19305534D01*
X3806963Y-19475373D01*
X3824359Y-19652000D01*
X3806963Y-19828627D01*
X3755443Y-19998466D01*
X3671778Y-20154991D01*
X3652904Y-20177989D01*
X3559186Y-20292186D01*
X3473264Y-20362699D01*
X3421991Y-20404778D01*
X3265466Y-20488443D01*
X3095627Y-20539963D01*
X3037296Y-20545708D01*
X2963260Y-20553000D01*
X2624740Y-20553000D01*
X2550704Y-20545708D01*
X2492373Y-20539963D01*
X2322534Y-20488443D01*
X2166009Y-20404778D01*
X2114736Y-20362699D01*
X2028814Y-20292186D01*
X1935096Y-20177989D01*
X1916222Y-20154991D01*
X1832557Y-19998466D01*
X1781037Y-19828627D01*
X1763641Y-19652000D01*
X1781037Y-19475373D01*
X1832557Y-19305534D01*
X1916222Y-19149009D01*
X1945552Y-19113271D01*
X2028814Y-19011814D01*
X2138243Y-18922009D01*
X2166009Y-18899222D01*
X2322534Y-18815557D01*
X2492373Y-18764037D01*
X2558557Y-18757519D01*
X2624740Y-18751000D01*
X2963260Y-18751000D01*
X3029443Y-18757519D01*
X3029443Y-18757519D01*
G37*
G36*
X68594600Y-16681989D02*
G01*
X68627652Y-16692015D01*
X68658103Y-16708292D01*
X68684799Y-16730201D01*
X68706708Y-16756897D01*
X68722985Y-16787348D01*
X68733011Y-16820400D01*
X68737000Y-16860903D01*
X68737000Y-18297097D01*
X68733011Y-18337600D01*
X68722985Y-18370652D01*
X68706708Y-18401103D01*
X68684799Y-18427799D01*
X68658103Y-18449708D01*
X68627652Y-18465985D01*
X68594600Y-18476011D01*
X68554097Y-18480000D01*
X66867903Y-18480000D01*
X66827400Y-18476011D01*
X66794348Y-18465985D01*
X66763897Y-18449708D01*
X66737201Y-18427799D01*
X66715292Y-18401103D01*
X66699015Y-18370652D01*
X66688989Y-18337600D01*
X66685000Y-18297097D01*
X66685000Y-16860903D01*
X66688989Y-16820400D01*
X66699015Y-16787348D01*
X66715292Y-16756897D01*
X66737201Y-16730201D01*
X66763897Y-16708292D01*
X66794348Y-16692015D01*
X66827400Y-16681989D01*
X66867903Y-16678000D01*
X68554097Y-16678000D01*
X68594600Y-16681989D01*
X68594600Y-16681989D01*
G37*
G36*
X73547600Y-16681989D02*
G01*
X73580652Y-16692015D01*
X73611103Y-16708292D01*
X73637799Y-16730201D01*
X73659708Y-16756897D01*
X73675985Y-16787348D01*
X73686011Y-16820400D01*
X73690000Y-16860903D01*
X73690000Y-18297097D01*
X73686011Y-18337600D01*
X73675985Y-18370652D01*
X73659708Y-18401103D01*
X73637799Y-18427799D01*
X73611103Y-18449708D01*
X73580652Y-18465985D01*
X73547600Y-18476011D01*
X73507097Y-18480000D01*
X71820903Y-18480000D01*
X71780400Y-18476011D01*
X71747348Y-18465985D01*
X71716897Y-18449708D01*
X71690201Y-18427799D01*
X71668292Y-18401103D01*
X71652015Y-18370652D01*
X71641989Y-18337600D01*
X71638000Y-18297097D01*
X71638000Y-16860903D01*
X71641989Y-16820400D01*
X71652015Y-16787348D01*
X71668292Y-16756897D01*
X71690201Y-16730201D01*
X71716897Y-16708292D01*
X71747348Y-16692015D01*
X71780400Y-16681989D01*
X71820903Y-16678000D01*
X73507097Y-16678000D01*
X73547600Y-16681989D01*
X73547600Y-16681989D01*
G37*
G36*
X3024178Y-16257000D02*
G01*
X3095627Y-16264037D01*
X3265466Y-16315557D01*
X3265468Y-16315558D01*
X3285003Y-16326000D01*
X3421991Y-16399222D01*
X3457729Y-16428552D01*
X3559186Y-16511814D01*
X3642448Y-16613271D01*
X3671778Y-16649009D01*
X3755443Y-16805534D01*
X3806963Y-16975373D01*
X3824359Y-17152000D01*
X3806963Y-17328627D01*
X3755443Y-17498466D01*
X3671778Y-17654991D01*
X3654536Y-17676000D01*
X3559186Y-17792186D01*
X3475216Y-17861097D01*
X3421991Y-17904778D01*
X3265466Y-17988443D01*
X3095627Y-18039963D01*
X3029442Y-18046482D01*
X2963260Y-18053000D01*
X2624740Y-18053000D01*
X2558558Y-18046482D01*
X2492373Y-18039963D01*
X2322534Y-17988443D01*
X2166009Y-17904778D01*
X2112784Y-17861097D01*
X2028814Y-17792186D01*
X1933464Y-17676000D01*
X1916222Y-17654991D01*
X1832557Y-17498466D01*
X1781037Y-17328627D01*
X1763641Y-17152000D01*
X1781037Y-16975373D01*
X1832557Y-16805534D01*
X1916222Y-16649009D01*
X1945552Y-16613271D01*
X2028814Y-16511814D01*
X2130271Y-16428552D01*
X2166009Y-16399222D01*
X2302997Y-16326000D01*
X2322532Y-16315558D01*
X2322534Y-16315557D01*
X2492373Y-16264037D01*
X2563822Y-16257000D01*
X2624740Y-16251000D01*
X2963260Y-16251000D01*
X3024178Y-16257000D01*
X3024178Y-16257000D01*
G37*
G36*
X9059627Y-16005037D02*
G01*
X9229466Y-16056557D01*
X9385991Y-16140222D01*
X9413028Y-16162411D01*
X9523186Y-16252814D01*
X9587209Y-16330828D01*
X9635778Y-16390009D01*
X9719443Y-16546534D01*
X9770963Y-16716374D01*
X9770963Y-16716376D01*
X9783296Y-16841589D01*
X9784000Y-16848743D01*
X9784000Y-17187258D01*
X9770963Y-17319627D01*
X9719443Y-17489466D01*
X9635778Y-17645991D01*
X9611150Y-17676000D01*
X9523186Y-17783186D01*
X9385989Y-17895779D01*
X9229467Y-17979442D01*
X9229465Y-17979443D01*
X9059626Y-18030963D01*
X8883000Y-18048359D01*
X8706373Y-18030963D01*
X8536534Y-17979443D01*
X8380009Y-17895778D01*
X8337750Y-17861097D01*
X8242814Y-17783186D01*
X8130221Y-17645989D01*
X8046558Y-17489467D01*
X8046557Y-17489465D01*
X7995037Y-17319626D01*
X7982000Y-17187257D01*
X7982000Y-16848742D01*
X7986256Y-16805534D01*
X7995037Y-16716375D01*
X7995037Y-16716373D01*
X8046557Y-16546534D01*
X8130222Y-16390009D01*
X8242815Y-16252815D01*
X8380010Y-16140222D01*
X8536535Y-16056557D01*
X8706374Y-16005037D01*
X8883000Y-15987641D01*
X9059627Y-16005037D01*
X9059627Y-16005037D01*
G37*
G36*
X11559627Y-16005037D02*
G01*
X11729466Y-16056557D01*
X11885991Y-16140222D01*
X11913028Y-16162411D01*
X12023186Y-16252814D01*
X12087209Y-16330828D01*
X12135778Y-16390009D01*
X12219443Y-16546534D01*
X12270963Y-16716374D01*
X12270963Y-16716376D01*
X12283296Y-16841589D01*
X12284000Y-16848743D01*
X12284000Y-17187258D01*
X12270963Y-17319627D01*
X12219443Y-17489466D01*
X12135778Y-17645991D01*
X12111150Y-17676000D01*
X12023186Y-17783186D01*
X11885989Y-17895779D01*
X11729467Y-17979442D01*
X11729465Y-17979443D01*
X11559626Y-18030963D01*
X11383000Y-18048359D01*
X11206373Y-18030963D01*
X11036534Y-17979443D01*
X10880009Y-17895778D01*
X10837750Y-17861097D01*
X10742814Y-17783186D01*
X10630221Y-17645989D01*
X10546558Y-17489467D01*
X10546557Y-17489465D01*
X10495037Y-17319626D01*
X10482000Y-17187257D01*
X10482000Y-16848742D01*
X10486256Y-16805534D01*
X10495037Y-16716375D01*
X10495037Y-16716373D01*
X10546557Y-16546534D01*
X10630222Y-16390009D01*
X10742815Y-16252815D01*
X10880010Y-16140222D01*
X11036535Y-16056557D01*
X11206374Y-16005037D01*
X11383000Y-15987641D01*
X11559627Y-16005037D01*
X11559627Y-16005037D01*
G37*
G36*
X14059627Y-16005037D02*
G01*
X14229466Y-16056557D01*
X14385991Y-16140222D01*
X14413028Y-16162411D01*
X14523186Y-16252814D01*
X14587209Y-16330828D01*
X14635778Y-16390009D01*
X14719443Y-16546534D01*
X14770963Y-16716374D01*
X14770963Y-16716376D01*
X14783296Y-16841589D01*
X14784000Y-16848743D01*
X14784000Y-17187258D01*
X14770963Y-17319627D01*
X14719443Y-17489466D01*
X14635778Y-17645991D01*
X14611150Y-17676000D01*
X14523186Y-17783186D01*
X14385989Y-17895779D01*
X14229467Y-17979442D01*
X14229465Y-17979443D01*
X14059626Y-18030963D01*
X13883000Y-18048359D01*
X13706373Y-18030963D01*
X13536534Y-17979443D01*
X13380009Y-17895778D01*
X13337750Y-17861097D01*
X13242814Y-17783186D01*
X13130221Y-17645989D01*
X13046558Y-17489467D01*
X13046557Y-17489465D01*
X12995037Y-17319626D01*
X12982000Y-17187257D01*
X12982000Y-16848742D01*
X12986256Y-16805534D01*
X12995037Y-16716375D01*
X12995037Y-16716373D01*
X13046557Y-16546534D01*
X13130222Y-16390009D01*
X13242815Y-16252815D01*
X13380010Y-16140222D01*
X13536535Y-16056557D01*
X13706374Y-16005037D01*
X13883000Y-15987641D01*
X14059627Y-16005037D01*
X14059627Y-16005037D01*
G37*
G36*
X17141600Y-15995989D02*
G01*
X17174652Y-16006015D01*
X17205103Y-16022292D01*
X17231799Y-16044201D01*
X17253708Y-16070897D01*
X17269985Y-16101348D01*
X17280011Y-16134400D01*
X17284000Y-16174903D01*
X17284000Y-17861097D01*
X17280011Y-17901600D01*
X17269985Y-17934652D01*
X17253708Y-17965103D01*
X17231799Y-17991799D01*
X17205103Y-18013708D01*
X17174652Y-18029985D01*
X17141600Y-18040011D01*
X17101097Y-18044000D01*
X15664903Y-18044000D01*
X15624400Y-18040011D01*
X15591348Y-18029985D01*
X15560897Y-18013708D01*
X15534201Y-17991799D01*
X15512292Y-17965103D01*
X15496015Y-17934652D01*
X15485989Y-17901600D01*
X15482000Y-17861097D01*
X15482000Y-16174903D01*
X15485989Y-16134400D01*
X15496015Y-16101348D01*
X15512292Y-16070897D01*
X15534201Y-16044201D01*
X15560897Y-16022292D01*
X15591348Y-16006015D01*
X15624400Y-15995989D01*
X15664903Y-15992000D01*
X17101097Y-15992000D01*
X17141600Y-15995989D01*
X17141600Y-15995989D01*
G37*
G36*
X22316627Y-14262037D02*
G01*
X22486466Y-14313557D01*
X22642991Y-14397222D01*
X22666359Y-14416400D01*
X22780186Y-14509814D01*
X22832861Y-14574000D01*
X22892778Y-14647009D01*
X22976443Y-14803534D01*
X23027963Y-14973374D01*
X23041000Y-15105743D01*
X23041000Y-15494258D01*
X23027963Y-15626627D01*
X22976443Y-15796466D01*
X22892778Y-15952991D01*
X22864341Y-15987641D01*
X22780186Y-16090186D01*
X22642989Y-16202779D01*
X22510120Y-16273799D01*
X22486465Y-16286443D01*
X22316626Y-16337963D01*
X22140000Y-16355359D01*
X21963373Y-16337963D01*
X21793534Y-16286443D01*
X21637009Y-16202778D01*
X21579509Y-16155589D01*
X21499814Y-16090186D01*
X21387221Y-15952989D01*
X21303558Y-15796467D01*
X21303557Y-15796465D01*
X21252037Y-15626626D01*
X21239000Y-15494257D01*
X21239000Y-15105742D01*
X21252037Y-14973373D01*
X21303557Y-14803534D01*
X21387222Y-14647009D01*
X21499815Y-14509815D01*
X21637010Y-14397222D01*
X21793535Y-14313557D01*
X21963374Y-14262037D01*
X22140000Y-14244641D01*
X22316627Y-14262037D01*
X22316627Y-14262037D01*
G37*
G36*
X25398600Y-14252989D02*
G01*
X25431652Y-14263015D01*
X25462103Y-14279292D01*
X25488799Y-14301201D01*
X25510708Y-14327897D01*
X25526985Y-14358348D01*
X25537011Y-14391400D01*
X25541000Y-14431903D01*
X25541000Y-16168097D01*
X25537011Y-16208600D01*
X25526985Y-16241652D01*
X25510708Y-16272103D01*
X25488799Y-16298799D01*
X25462103Y-16320708D01*
X25431652Y-16336985D01*
X25398600Y-16347011D01*
X25358097Y-16351000D01*
X23921903Y-16351000D01*
X23881400Y-16347011D01*
X23848348Y-16336985D01*
X23817897Y-16320708D01*
X23791201Y-16298799D01*
X23769292Y-16272103D01*
X23753015Y-16241652D01*
X23742989Y-16208600D01*
X23739000Y-16168097D01*
X23739000Y-14431903D01*
X23742989Y-14391400D01*
X23753015Y-14358348D01*
X23769292Y-14327897D01*
X23791201Y-14301201D01*
X23817897Y-14279292D01*
X23848348Y-14263015D01*
X23881400Y-14252989D01*
X23921903Y-14249000D01*
X25358097Y-14249000D01*
X25398600Y-14252989D01*
X25398600Y-14252989D01*
G37*
G36*
X44516627Y-14287037D02*
G01*
X44686466Y-14338557D01*
X44842991Y-14422222D01*
X44876818Y-14449983D01*
X44980186Y-14534814D01*
X45063448Y-14636271D01*
X45092778Y-14672009D01*
X45176443Y-14828534D01*
X45227963Y-14998374D01*
X45227963Y-14998376D01*
X45241000Y-15130741D01*
X45241000Y-15469260D01*
X45238538Y-15494257D01*
X45227963Y-15601627D01*
X45176443Y-15771466D01*
X45092778Y-15927991D01*
X45072262Y-15952990D01*
X44980186Y-16065186D01*
X44842989Y-16177779D01*
X44702609Y-16252814D01*
X44686465Y-16261443D01*
X44516626Y-16312963D01*
X44340000Y-16330359D01*
X44163373Y-16312963D01*
X43993534Y-16261443D01*
X43837009Y-16177778D01*
X43784153Y-16134400D01*
X43699814Y-16065186D01*
X43587221Y-15927989D01*
X43503558Y-15771467D01*
X43503557Y-15771465D01*
X43452037Y-15601626D01*
X43445519Y-15535442D01*
X43439000Y-15469259D01*
X43439000Y-15130740D01*
X43452037Y-14998375D01*
X43452037Y-14998373D01*
X43503557Y-14828534D01*
X43587222Y-14672009D01*
X43699815Y-14534815D01*
X43837010Y-14422222D01*
X43993535Y-14338557D01*
X44163374Y-14287037D01*
X44340000Y-14269641D01*
X44516627Y-14287037D01*
X44516627Y-14287037D01*
G37*
G36*
X30916627Y-14287037D02*
G01*
X31086466Y-14338557D01*
X31242991Y-14422222D01*
X31276818Y-14449983D01*
X31380186Y-14534814D01*
X31463448Y-14636271D01*
X31492778Y-14672009D01*
X31576443Y-14828534D01*
X31627963Y-14998374D01*
X31627963Y-14998376D01*
X31641000Y-15130741D01*
X31641000Y-15469260D01*
X31638538Y-15494257D01*
X31627963Y-15601627D01*
X31576443Y-15771466D01*
X31492778Y-15927991D01*
X31472262Y-15952990D01*
X31380186Y-16065186D01*
X31242989Y-16177779D01*
X31102609Y-16252814D01*
X31086465Y-16261443D01*
X30916626Y-16312963D01*
X30740000Y-16330359D01*
X30563373Y-16312963D01*
X30393534Y-16261443D01*
X30237009Y-16177778D01*
X30184153Y-16134400D01*
X30099814Y-16065186D01*
X29987221Y-15927989D01*
X29903558Y-15771467D01*
X29903557Y-15771465D01*
X29852037Y-15601626D01*
X29845518Y-15535441D01*
X29839000Y-15469259D01*
X29839000Y-15130740D01*
X29852037Y-14998375D01*
X29852037Y-14998373D01*
X29903557Y-14828534D01*
X29987222Y-14672009D01*
X30099815Y-14534815D01*
X30237010Y-14422222D01*
X30393535Y-14338557D01*
X30563374Y-14287037D01*
X30740000Y-14269641D01*
X30916627Y-14287037D01*
X30916627Y-14287037D01*
G37*
G36*
X33416627Y-14287037D02*
G01*
X33586466Y-14338557D01*
X33742991Y-14422222D01*
X33776818Y-14449983D01*
X33880186Y-14534814D01*
X33963448Y-14636271D01*
X33992778Y-14672009D01*
X34076443Y-14828534D01*
X34127963Y-14998374D01*
X34127963Y-14998376D01*
X34141000Y-15130741D01*
X34141000Y-15469260D01*
X34138538Y-15494257D01*
X34127963Y-15601627D01*
X34076443Y-15771466D01*
X33992778Y-15927991D01*
X33972262Y-15952990D01*
X33880186Y-16065186D01*
X33742989Y-16177779D01*
X33602609Y-16252814D01*
X33586465Y-16261443D01*
X33416626Y-16312963D01*
X33240000Y-16330359D01*
X33063373Y-16312963D01*
X32893534Y-16261443D01*
X32737009Y-16177778D01*
X32684153Y-16134400D01*
X32599814Y-16065186D01*
X32487221Y-15927989D01*
X32403558Y-15771467D01*
X32403557Y-15771465D01*
X32352037Y-15601626D01*
X32345518Y-15535441D01*
X32339000Y-15469259D01*
X32339000Y-15130740D01*
X32352037Y-14998375D01*
X32352037Y-14998373D01*
X32403557Y-14828534D01*
X32487222Y-14672009D01*
X32599815Y-14534815D01*
X32737010Y-14422222D01*
X32893535Y-14338557D01*
X33063374Y-14287037D01*
X33240000Y-14269641D01*
X33416627Y-14287037D01*
X33416627Y-14287037D01*
G37*
G36*
X42016627Y-14287037D02*
G01*
X42186466Y-14338557D01*
X42342991Y-14422222D01*
X42376818Y-14449983D01*
X42480186Y-14534814D01*
X42563448Y-14636271D01*
X42592778Y-14672009D01*
X42676443Y-14828534D01*
X42727963Y-14998374D01*
X42727963Y-14998376D01*
X42741000Y-15130741D01*
X42741000Y-15469260D01*
X42738538Y-15494257D01*
X42727963Y-15601627D01*
X42676443Y-15771466D01*
X42592778Y-15927991D01*
X42572262Y-15952990D01*
X42480186Y-16065186D01*
X42342989Y-16177779D01*
X42202609Y-16252814D01*
X42186465Y-16261443D01*
X42016626Y-16312963D01*
X41840000Y-16330359D01*
X41663373Y-16312963D01*
X41493534Y-16261443D01*
X41337009Y-16177778D01*
X41284153Y-16134400D01*
X41199814Y-16065186D01*
X41087221Y-15927989D01*
X41003558Y-15771467D01*
X41003557Y-15771465D01*
X40952037Y-15601626D01*
X40945519Y-15535442D01*
X40939000Y-15469259D01*
X40939000Y-15130740D01*
X40952037Y-14998375D01*
X40952037Y-14998373D01*
X41003557Y-14828534D01*
X41087222Y-14672009D01*
X41199815Y-14534815D01*
X41337010Y-14422222D01*
X41493535Y-14338557D01*
X41663374Y-14287037D01*
X41840000Y-14269641D01*
X42016627Y-14287037D01*
X42016627Y-14287037D01*
G37*
G36*
X47598600Y-14277989D02*
G01*
X47631652Y-14288015D01*
X47662103Y-14304292D01*
X47688799Y-14326201D01*
X47710708Y-14352897D01*
X47726985Y-14383348D01*
X47737011Y-14416400D01*
X47741000Y-14456903D01*
X47741000Y-16143097D01*
X47737011Y-16183600D01*
X47726985Y-16216652D01*
X47710708Y-16247103D01*
X47688799Y-16273799D01*
X47662103Y-16295708D01*
X47631652Y-16311985D01*
X47598600Y-16322011D01*
X47558097Y-16326000D01*
X46121903Y-16326000D01*
X46081400Y-16322011D01*
X46048348Y-16311985D01*
X46017897Y-16295708D01*
X45991201Y-16273799D01*
X45969292Y-16247103D01*
X45953015Y-16216652D01*
X45942989Y-16183600D01*
X45939000Y-16143097D01*
X45939000Y-14456903D01*
X45942989Y-14416400D01*
X45953015Y-14383348D01*
X45969292Y-14352897D01*
X45991201Y-14326201D01*
X46017897Y-14304292D01*
X46048348Y-14288015D01*
X46081400Y-14277989D01*
X46121903Y-14274000D01*
X47558097Y-14274000D01*
X47598600Y-14277989D01*
X47598600Y-14277989D01*
G37*
G36*
X36498600Y-14277989D02*
G01*
X36531652Y-14288015D01*
X36562103Y-14304292D01*
X36588799Y-14326201D01*
X36610708Y-14352897D01*
X36626985Y-14383348D01*
X36637011Y-14416400D01*
X36641000Y-14456903D01*
X36641000Y-16143097D01*
X36637011Y-16183600D01*
X36626985Y-16216652D01*
X36610708Y-16247103D01*
X36588799Y-16273799D01*
X36562103Y-16295708D01*
X36531652Y-16311985D01*
X36498600Y-16322011D01*
X36458097Y-16326000D01*
X35021903Y-16326000D01*
X34981400Y-16322011D01*
X34948348Y-16311985D01*
X34917897Y-16295708D01*
X34891201Y-16273799D01*
X34869292Y-16247103D01*
X34853015Y-16216652D01*
X34842989Y-16183600D01*
X34839000Y-16143097D01*
X34839000Y-14456903D01*
X34842989Y-14416400D01*
X34853015Y-14383348D01*
X34869292Y-14352897D01*
X34891201Y-14326201D01*
X34917897Y-14304292D01*
X34948348Y-14288015D01*
X34981400Y-14277989D01*
X35021903Y-14274000D01*
X36458097Y-14274000D01*
X36498600Y-14277989D01*
X36498600Y-14277989D01*
G37*
G36*
X3029442Y-13757518D02*
G01*
X3095627Y-13764037D01*
X3265466Y-13815557D01*
X3421991Y-13899222D01*
X3457729Y-13928552D01*
X3559186Y-14011814D01*
X3642448Y-14113271D01*
X3671778Y-14149009D01*
X3755443Y-14305534D01*
X3806963Y-14475373D01*
X3824359Y-14652000D01*
X3806963Y-14828627D01*
X3755443Y-14998466D01*
X3671778Y-15154991D01*
X3642448Y-15190729D01*
X3559186Y-15292186D01*
X3459766Y-15373777D01*
X3421991Y-15404778D01*
X3421989Y-15404779D01*
X3301357Y-15469259D01*
X3265466Y-15488443D01*
X3095627Y-15539963D01*
X3029443Y-15546481D01*
X2963260Y-15553000D01*
X2624740Y-15553000D01*
X2558557Y-15546481D01*
X2492373Y-15539963D01*
X2322534Y-15488443D01*
X2286644Y-15469259D01*
X2166011Y-15404779D01*
X2166009Y-15404778D01*
X2128234Y-15373777D01*
X2028814Y-15292186D01*
X1945552Y-15190729D01*
X1916222Y-15154991D01*
X1832557Y-14998466D01*
X1781037Y-14828627D01*
X1763641Y-14652000D01*
X1781037Y-14475373D01*
X1832557Y-14305534D01*
X1916222Y-14149009D01*
X1945552Y-14113271D01*
X2028814Y-14011814D01*
X2130271Y-13928552D01*
X2166009Y-13899222D01*
X2322534Y-13815557D01*
X2492373Y-13764037D01*
X2558558Y-13757518D01*
X2624740Y-13751000D01*
X2963260Y-13751000D01*
X3029442Y-13757518D01*
X3029442Y-13757518D01*
G37*
G36*
X16964468Y-14393565D02*
G01*
X17003138Y-14405296D01*
X17038777Y-14424346D01*
X17070017Y-14449983D01*
X17095654Y-14481223D01*
X17114704Y-14516862D01*
X17126435Y-14555532D01*
X17131000Y-14601888D01*
X17131000Y-15253112D01*
X17126435Y-15299468D01*
X17114704Y-15338138D01*
X17095654Y-15373777D01*
X17070017Y-15405017D01*
X17038777Y-15430654D01*
X17003138Y-15449704D01*
X16964468Y-15461435D01*
X16918112Y-15466000D01*
X15841888Y-15466000D01*
X15795532Y-15461435D01*
X15756862Y-15449704D01*
X15721223Y-15430654D01*
X15689983Y-15405017D01*
X15664346Y-15373777D01*
X15645296Y-15338138D01*
X15633565Y-15299468D01*
X15629000Y-15253112D01*
X15629000Y-14601888D01*
X15633565Y-14555532D01*
X15645296Y-14516862D01*
X15664346Y-14481223D01*
X15689983Y-14449983D01*
X15721223Y-14424346D01*
X15756862Y-14405296D01*
X15795532Y-14393565D01*
X15841888Y-14389000D01*
X16918112Y-14389000D01*
X16964468Y-14393565D01*
X16964468Y-14393565D01*
G37*
G36*
X71819943Y-8566248D02*
G01*
X72375189Y-8796238D01*
X72520602Y-8893400D01*
X72874899Y-9130134D01*
X73299866Y-9555101D01*
X73299867Y-9555103D01*
X73633762Y-10054811D01*
X73863752Y-10610057D01*
X73981000Y-11199501D01*
X73981000Y-11800499D01*
X73863752Y-12389943D01*
X73633762Y-12945189D01*
X73570436Y-13039963D01*
X73299866Y-13444899D01*
X72874899Y-13869866D01*
X72662459Y-14011814D01*
X72375189Y-14203762D01*
X71819943Y-14433752D01*
X71230499Y-14551000D01*
X70629501Y-14551000D01*
X70040057Y-14433752D01*
X69484811Y-14203762D01*
X69197541Y-14011814D01*
X68985101Y-13869866D01*
X68560134Y-13444899D01*
X68289564Y-13039963D01*
X68226238Y-12945189D01*
X67996248Y-12389943D01*
X67879000Y-11800499D01*
X67879000Y-11199501D01*
X67996248Y-10610057D01*
X68226238Y-10054811D01*
X68560133Y-9555103D01*
X68560134Y-9555101D01*
X68985101Y-9130134D01*
X69339398Y-8893400D01*
X69484811Y-8796238D01*
X70040057Y-8566248D01*
X70629501Y-8449000D01*
X71230499Y-8449000D01*
X71819943Y-8566248D01*
X71819943Y-8566248D01*
G37*
G36*
X15902546Y-9803134D02*
G01*
X15937010Y-9813589D01*
X15968761Y-9830560D01*
X15996597Y-9853403D01*
X16019440Y-9881239D01*
X16036411Y-9912990D01*
X16046866Y-9947454D01*
X16051000Y-9989425D01*
X16051000Y-12210575D01*
X16046866Y-12252546D01*
X16036411Y-12287010D01*
X16013912Y-12329103D01*
X16013257Y-12330084D01*
X16003881Y-12352724D01*
X15999102Y-12376757D01*
X15999104Y-12401261D01*
X16003886Y-12425294D01*
X16013265Y-12447932D01*
X16026880Y-12468306D01*
X16044208Y-12485632D01*
X16064583Y-12499244D01*
X16087223Y-12508620D01*
X16123500Y-12514000D01*
X16918112Y-12514000D01*
X16964468Y-12518565D01*
X17003138Y-12530296D01*
X17038777Y-12549346D01*
X17070017Y-12574983D01*
X17095654Y-12606223D01*
X17114704Y-12641862D01*
X17126435Y-12680532D01*
X17131000Y-12726888D01*
X17131000Y-13378112D01*
X17126435Y-13424468D01*
X17114704Y-13463138D01*
X17095654Y-13498777D01*
X17070017Y-13530017D01*
X17038777Y-13555654D01*
X17003138Y-13574704D01*
X16964468Y-13586435D01*
X16918112Y-13591000D01*
X15841888Y-13591000D01*
X15795532Y-13586435D01*
X15756862Y-13574704D01*
X15721223Y-13555654D01*
X15689983Y-13530017D01*
X15664346Y-13498777D01*
X15645296Y-13463138D01*
X15633565Y-13424468D01*
X15629000Y-13378112D01*
X15629000Y-12726888D01*
X15633565Y-12680532D01*
X15645296Y-12641862D01*
X15664346Y-12606223D01*
X15665104Y-12605299D01*
X15678718Y-12584925D01*
X15688096Y-12562286D01*
X15692877Y-12538253D01*
X15692877Y-12513749D01*
X15688097Y-12489716D01*
X15678720Y-12467077D01*
X15665107Y-12446702D01*
X15647780Y-12429375D01*
X15627406Y-12415761D01*
X15604767Y-12406383D01*
X15580734Y-12401602D01*
X15568480Y-12401000D01*
X14639425Y-12401000D01*
X14597454Y-12396866D01*
X14562990Y-12386411D01*
X14531239Y-12369440D01*
X14503403Y-12346597D01*
X14480560Y-12318761D01*
X14463589Y-12287010D01*
X14453134Y-12252546D01*
X14449000Y-12210575D01*
X14449000Y-9989425D01*
X14453134Y-9947454D01*
X14463589Y-9912990D01*
X14480560Y-9881239D01*
X14503403Y-9853403D01*
X14531239Y-9830560D01*
X14562990Y-9813589D01*
X14597454Y-9803134D01*
X14639425Y-9799000D01*
X15860575Y-9799000D01*
X15902546Y-9803134D01*
X15902546Y-9803134D01*
G37*
G36*
X3029443Y-11257519D02*
G01*
X3095627Y-11264037D01*
X3265466Y-11315557D01*
X3421991Y-11399222D01*
X3457729Y-11428552D01*
X3559186Y-11511814D01*
X3642448Y-11613271D01*
X3671778Y-11649009D01*
X3755443Y-11805534D01*
X3806963Y-11975373D01*
X3824359Y-12152000D01*
X3806963Y-12328627D01*
X3755443Y-12498466D01*
X3671778Y-12654991D01*
X3650817Y-12680532D01*
X3559186Y-12792186D01*
X3457729Y-12875448D01*
X3421991Y-12904778D01*
X3265466Y-12988443D01*
X3095627Y-13039963D01*
X3029442Y-13046482D01*
X2963260Y-13053000D01*
X2624740Y-13053000D01*
X2558558Y-13046482D01*
X2492373Y-13039963D01*
X2322534Y-12988443D01*
X2166009Y-12904778D01*
X2130271Y-12875448D01*
X2028814Y-12792186D01*
X1937183Y-12680532D01*
X1916222Y-12654991D01*
X1832557Y-12498466D01*
X1781037Y-12328627D01*
X1763641Y-12152000D01*
X1781037Y-11975373D01*
X1832557Y-11805534D01*
X1916222Y-11649009D01*
X1945552Y-11613271D01*
X2028814Y-11511814D01*
X2130271Y-11428552D01*
X2166009Y-11399222D01*
X2322534Y-11315557D01*
X2492373Y-11264037D01*
X2558557Y-11257519D01*
X2624740Y-11251000D01*
X2963260Y-11251000D01*
X3029443Y-11257519D01*
X3029443Y-11257519D01*
G37*
G36*
X28902546Y-9803134D02*
G01*
X28937010Y-9813589D01*
X28968761Y-9830560D01*
X28996597Y-9853403D01*
X29019440Y-9881239D01*
X29036411Y-9912990D01*
X29046866Y-9947454D01*
X29051000Y-9989425D01*
X29051000Y-12210575D01*
X29046866Y-12252546D01*
X29036411Y-12287010D01*
X29019440Y-12318761D01*
X28996597Y-12346597D01*
X28968761Y-12369440D01*
X28937010Y-12386411D01*
X28902546Y-12396866D01*
X28860575Y-12401000D01*
X27639425Y-12401000D01*
X27597454Y-12396866D01*
X27562990Y-12386411D01*
X27531239Y-12369440D01*
X27503403Y-12346597D01*
X27480560Y-12318761D01*
X27463589Y-12287010D01*
X27453134Y-12252546D01*
X27449000Y-12210575D01*
X27449000Y-9989425D01*
X27453134Y-9947454D01*
X27463589Y-9912990D01*
X27480560Y-9881239D01*
X27503403Y-9853403D01*
X27531239Y-9830560D01*
X27562990Y-9813589D01*
X27597454Y-9803134D01*
X27639425Y-9799000D01*
X28860575Y-9799000D01*
X28902546Y-9803134D01*
X28902546Y-9803134D01*
G37*
G36*
X54902546Y-9803134D02*
G01*
X54937010Y-9813589D01*
X54968761Y-9830560D01*
X54996597Y-9853403D01*
X55019440Y-9881239D01*
X55036411Y-9912990D01*
X55046866Y-9947454D01*
X55051000Y-9989425D01*
X55051000Y-12210575D01*
X55046866Y-12252546D01*
X55036411Y-12287010D01*
X55019440Y-12318761D01*
X54996597Y-12346597D01*
X54968761Y-12369440D01*
X54937010Y-12386411D01*
X54902546Y-12396866D01*
X54860575Y-12401000D01*
X53639425Y-12401000D01*
X53597454Y-12396866D01*
X53562990Y-12386411D01*
X53531239Y-12369440D01*
X53503403Y-12346597D01*
X53480560Y-12318761D01*
X53463589Y-12287010D01*
X53453134Y-12252546D01*
X53449000Y-12210575D01*
X53449000Y-9989425D01*
X53453134Y-9947454D01*
X53463589Y-9912990D01*
X53480560Y-9881239D01*
X53503403Y-9853403D01*
X53531239Y-9830560D01*
X53562990Y-9813589D01*
X53597454Y-9803134D01*
X53639425Y-9799000D01*
X54860575Y-9799000D01*
X54902546Y-9803134D01*
X54902546Y-9803134D01*
G37*
G36*
X9202546Y-9803134D02*
G01*
X9237010Y-9813589D01*
X9268761Y-9830560D01*
X9296597Y-9853403D01*
X9319440Y-9881239D01*
X9336411Y-9912990D01*
X9346866Y-9947454D01*
X9351000Y-9989425D01*
X9351000Y-12210575D01*
X9346866Y-12252546D01*
X9336411Y-12287010D01*
X9319440Y-12318761D01*
X9296597Y-12346597D01*
X9268761Y-12369440D01*
X9237010Y-12386411D01*
X9202546Y-12396866D01*
X9160575Y-12401000D01*
X7939425Y-12401000D01*
X7897454Y-12396866D01*
X7862990Y-12386411D01*
X7831239Y-12369440D01*
X7803403Y-12346597D01*
X7780560Y-12318761D01*
X7763589Y-12287010D01*
X7753134Y-12252546D01*
X7749000Y-12210575D01*
X7749000Y-9989425D01*
X7753134Y-9947454D01*
X7763589Y-9912990D01*
X7780560Y-9881239D01*
X7803403Y-9853403D01*
X7831239Y-9830560D01*
X7862990Y-9813589D01*
X7897454Y-9803134D01*
X7939425Y-9799000D01*
X9160575Y-9799000D01*
X9202546Y-9803134D01*
X9202546Y-9803134D01*
G37*
G36*
X35202546Y-9803134D02*
G01*
X35237010Y-9813589D01*
X35268761Y-9830560D01*
X35296597Y-9853403D01*
X35319440Y-9881239D01*
X35336411Y-9912990D01*
X35346866Y-9947454D01*
X35351000Y-9989425D01*
X35351000Y-12210575D01*
X35346866Y-12252546D01*
X35336411Y-12287010D01*
X35319440Y-12318761D01*
X35296597Y-12346597D01*
X35268761Y-12369440D01*
X35237010Y-12386411D01*
X35202546Y-12396866D01*
X35160575Y-12401000D01*
X33939425Y-12401000D01*
X33897454Y-12396866D01*
X33862990Y-12386411D01*
X33831239Y-12369440D01*
X33803403Y-12346597D01*
X33780560Y-12318761D01*
X33763589Y-12287010D01*
X33753134Y-12252546D01*
X33749000Y-12210575D01*
X33749000Y-9989425D01*
X33753134Y-9947454D01*
X33763589Y-9912990D01*
X33780560Y-9881239D01*
X33803403Y-9853403D01*
X33831239Y-9830560D01*
X33862990Y-9813589D01*
X33897454Y-9803134D01*
X33939425Y-9799000D01*
X35160575Y-9799000D01*
X35202546Y-9803134D01*
X35202546Y-9803134D01*
G37*
G36*
X41902546Y-9803134D02*
G01*
X41937010Y-9813589D01*
X41968761Y-9830560D01*
X41996597Y-9853403D01*
X42019440Y-9881239D01*
X42036411Y-9912990D01*
X42046866Y-9947454D01*
X42051000Y-9989425D01*
X42051000Y-12210575D01*
X42046866Y-12252546D01*
X42036411Y-12287010D01*
X42019440Y-12318761D01*
X41996597Y-12346597D01*
X41968761Y-12369440D01*
X41937010Y-12386411D01*
X41902546Y-12396866D01*
X41860575Y-12401000D01*
X40639425Y-12401000D01*
X40597454Y-12396866D01*
X40562990Y-12386411D01*
X40531239Y-12369440D01*
X40503403Y-12346597D01*
X40480560Y-12318761D01*
X40463589Y-12287010D01*
X40453134Y-12252546D01*
X40449000Y-12210575D01*
X40449000Y-9989425D01*
X40453134Y-9947454D01*
X40463589Y-9912990D01*
X40480560Y-9881239D01*
X40503403Y-9853403D01*
X40531239Y-9830560D01*
X40562990Y-9813589D01*
X40597454Y-9803134D01*
X40639425Y-9799000D01*
X41860575Y-9799000D01*
X41902546Y-9803134D01*
X41902546Y-9803134D01*
G37*
G36*
X22202546Y-9803134D02*
G01*
X22237010Y-9813589D01*
X22268761Y-9830560D01*
X22296597Y-9853403D01*
X22319440Y-9881239D01*
X22336411Y-9912990D01*
X22346866Y-9947454D01*
X22351000Y-9989425D01*
X22351000Y-12210575D01*
X22346866Y-12252546D01*
X22336411Y-12287010D01*
X22319440Y-12318761D01*
X22296597Y-12346597D01*
X22268761Y-12369440D01*
X22237010Y-12386411D01*
X22202546Y-12396866D01*
X22160575Y-12401000D01*
X20939425Y-12401000D01*
X20897454Y-12396866D01*
X20862990Y-12386411D01*
X20831239Y-12369440D01*
X20803403Y-12346597D01*
X20780560Y-12318761D01*
X20763589Y-12287010D01*
X20753134Y-12252546D01*
X20749000Y-12210575D01*
X20749000Y-9989425D01*
X20753134Y-9947454D01*
X20763589Y-9912990D01*
X20780560Y-9881239D01*
X20803403Y-9853403D01*
X20831239Y-9830560D01*
X20862990Y-9813589D01*
X20897454Y-9803134D01*
X20939425Y-9799000D01*
X22160575Y-9799000D01*
X22202546Y-9803134D01*
X22202546Y-9803134D01*
G37*
G36*
X48202546Y-9803134D02*
G01*
X48237010Y-9813589D01*
X48268761Y-9830560D01*
X48296597Y-9853403D01*
X48319440Y-9881239D01*
X48336411Y-9912990D01*
X48346866Y-9947454D01*
X48351000Y-9989425D01*
X48351000Y-12210575D01*
X48346866Y-12252546D01*
X48336411Y-12287010D01*
X48319440Y-12318761D01*
X48296597Y-12346597D01*
X48268761Y-12369440D01*
X48237010Y-12386411D01*
X48202546Y-12396866D01*
X48160575Y-12401000D01*
X46939425Y-12401000D01*
X46897454Y-12396866D01*
X46862990Y-12386411D01*
X46831239Y-12369440D01*
X46803403Y-12346597D01*
X46780560Y-12318761D01*
X46763589Y-12287010D01*
X46753134Y-12252546D01*
X46749000Y-12210575D01*
X46749000Y-9989425D01*
X46753134Y-9947454D01*
X46763589Y-9912990D01*
X46780560Y-9881239D01*
X46803403Y-9853403D01*
X46831239Y-9830560D01*
X46862990Y-9813589D01*
X46897454Y-9803134D01*
X46939425Y-9799000D01*
X48160575Y-9799000D01*
X48202546Y-9803134D01*
X48202546Y-9803134D01*
G37*
G36*
X3677600Y-8754989D02*
G01*
X3710652Y-8765015D01*
X3741103Y-8781292D01*
X3767799Y-8803201D01*
X3789708Y-8829897D01*
X3805985Y-8860348D01*
X3816011Y-8893400D01*
X3820000Y-8933903D01*
X3820000Y-10370097D01*
X3816011Y-10410600D01*
X3805985Y-10443652D01*
X3789708Y-10474103D01*
X3767799Y-10500799D01*
X3741103Y-10522708D01*
X3710652Y-10538985D01*
X3677600Y-10549011D01*
X3637097Y-10553000D01*
X1950903Y-10553000D01*
X1910400Y-10549011D01*
X1877348Y-10538985D01*
X1846897Y-10522708D01*
X1820201Y-10500799D01*
X1798292Y-10474103D01*
X1782015Y-10443652D01*
X1771989Y-10410600D01*
X1768000Y-10370097D01*
X1768000Y-8933903D01*
X1771989Y-8893400D01*
X1782015Y-8860348D01*
X1798292Y-8829897D01*
X1820201Y-8803201D01*
X1846897Y-8781292D01*
X1877348Y-8765015D01*
X1910400Y-8754989D01*
X1950903Y-8751000D01*
X3637097Y-8751000D01*
X3677600Y-8754989D01*
X3677600Y-8754989D01*
G37*
G36*
X71819943Y-1366248D02*
G01*
X72375189Y-1596238D01*
X72375190Y-1596239D01*
X72874899Y-1930134D01*
X73299866Y-2355101D01*
X73299867Y-2355103D01*
X73633762Y-2854811D01*
X73863752Y-3410057D01*
X73981000Y-3999501D01*
X73981000Y-4600499D01*
X73863752Y-5189943D01*
X73633762Y-5745189D01*
X73633761Y-5745190D01*
X73299866Y-6244899D01*
X72874899Y-6669866D01*
X72623347Y-6837948D01*
X72375189Y-7003762D01*
X71819943Y-7233752D01*
X71230499Y-7351000D01*
X70629501Y-7351000D01*
X70040057Y-7233752D01*
X69484811Y-7003762D01*
X69236653Y-6837948D01*
X68985101Y-6669866D01*
X68560134Y-6244899D01*
X68226239Y-5745190D01*
X68226238Y-5745189D01*
X67996248Y-5189943D01*
X67879000Y-4600499D01*
X67879000Y-3999501D01*
X67996248Y-3410057D01*
X68226238Y-2854811D01*
X68560133Y-2355103D01*
X68560134Y-2355101D01*
X68985101Y-1930134D01*
X69484810Y-1596239D01*
X69484811Y-1596238D01*
X70040057Y-1366248D01*
X70629501Y-1249000D01*
X71230499Y-1249000D01*
X71819943Y-1366248D01*
X71819943Y-1366248D01*
G37*
G36*
X62375256Y-1391298D02*
G01*
X62481579Y-1412447D01*
X62782042Y-1536903D01*
X63052451Y-1717585D01*
X63282415Y-1947549D01*
X63463097Y-2217958D01*
X63587553Y-2518421D01*
X63651000Y-2837391D01*
X63651000Y-3162609D01*
X63587553Y-3481579D01*
X63463097Y-3782042D01*
X63282415Y-4052451D01*
X63052451Y-4282415D01*
X62782042Y-4463097D01*
X62481579Y-4587553D01*
X62416505Y-4600497D01*
X62162611Y-4651000D01*
X61837389Y-4651000D01*
X61583495Y-4600497D01*
X61518421Y-4587553D01*
X61217958Y-4463097D01*
X60947549Y-4282415D01*
X60717585Y-4052451D01*
X60536903Y-3782042D01*
X60412447Y-3481579D01*
X60349000Y-3162609D01*
X60349000Y-2837391D01*
X60412447Y-2518421D01*
X60536903Y-2217958D01*
X60717585Y-1947549D01*
X60947549Y-1717585D01*
X61217958Y-1536903D01*
X61518421Y-1412447D01*
X61624744Y-1391298D01*
X61837389Y-1349000D01*
X62162611Y-1349000D01*
X62375256Y-1391298D01*
X62375256Y-1391298D01*
G37*
G36*
X3375256Y-1391298D02*
G01*
X3481579Y-1412447D01*
X3782042Y-1536903D01*
X4052451Y-1717585D01*
X4282415Y-1947549D01*
X4463097Y-2217958D01*
X4587553Y-2518421D01*
X4651000Y-2837391D01*
X4651000Y-3162609D01*
X4587553Y-3481579D01*
X4463097Y-3782042D01*
X4282415Y-4052451D01*
X4052451Y-4282415D01*
X3782042Y-4463097D01*
X3481579Y-4587553D01*
X3416505Y-4600497D01*
X3162611Y-4651000D01*
X2837389Y-4651000D01*
X2583495Y-4600497D01*
X2518421Y-4587553D01*
X2217958Y-4463097D01*
X1947549Y-4282415D01*
X1717585Y-4052451D01*
X1536903Y-3782042D01*
X1412447Y-3481579D01*
X1349000Y-3162609D01*
X1349000Y-2837391D01*
X1412447Y-2518421D01*
X1536903Y-2217958D01*
X1717585Y-1947549D01*
X1947549Y-1717585D01*
X2217958Y-1536903D01*
X2518421Y-1412447D01*
X2624744Y-1391298D01*
X2837389Y-1349000D01*
X3162611Y-1349000D01*
X3375256Y-1391298D01*
X3375256Y-1391298D01*
G37*
M02*
