M48
; DRILL file {KiCad (5.1.4)-1} date 11/1/2021 3:57:43 PM
; FORMAT={2:4/ absolute / inch / suppress leading zeros}
; #@! TF.CreationDate,2021-11-01T15:57:43-05:00
; #@! TF.GenerationSoftware,Kicad,Pcbnew,(5.1.4)-1
FMAT,2
INCH,TZ
T1C0.0118
T2C0.0325
T3C0.0374
T4C0.0394
T5C0.1772
T6C0.1102
T7C0.1260
T8C0.9449
%
G90
G05
T1
X295Y-12563
X374Y-6161
X429Y-15193
X453Y-2913
X484Y-8902
X669Y-19224
X900Y-13950
X1213Y-14137
X1661Y-11272
X1900Y-12750
X2012Y-17535
X2075Y-12217
X2102Y-13748
X2126Y-12984
X2126Y-13402
X2146Y-15268
X2224Y-4028
X2244Y-9984
X2386Y-9047
X2409Y-21024
X2598Y-6020
X2862Y-10039
X2945Y-9386
X3126Y-13843
X3161Y-13500
X3185Y-8815
X3198Y-9792
X3224Y-12890
X3366Y-4370
X3374Y-8048
X3457Y-14186
X3587Y-16083
X3747Y-13766
X4024Y-10748
X4091Y-7343
X4106Y-9831
X4339Y-18240
X4555Y-15049
X4559Y-4748
X4723Y-19967
X4756Y-8157
X5154Y-19720
X5445Y-15049
X5448Y-13864
X5547Y-10685
X5619Y-13581
X5626Y-19409
X5760Y-9465
X5823Y-15077
X5890Y-7189
X5898Y-14620
X5902Y-7701
X5950Y-18000
X6004Y-4370
X6116Y-12884
X6123Y-14155
X6323Y-13522
X6405Y-19396
X6583Y-17874
X6612Y-13852
X6677Y-12689
X6838Y-20045
X6895Y-13769
X6976Y-14138
X7127Y-6281
X7146Y-11327
X7181Y-4394
X7233Y-16228
X7240Y-12299
X7248Y-13697
X7626Y-8048
X7626Y-9571
X7663Y-18319
X8043Y-11287
X8146Y-14583
X8169Y-13354
X8366Y-15854
X8410Y-17224
X8411Y-12230
X8469Y-10638
X8484Y-4370
X8539Y-11925
X8550Y-11550
X9039Y-17783
X9065Y-18571
X9165Y-15795
X9259Y-19732
X9299Y-16618
X9307Y-16323
X9311Y-18846
X9394Y-16031
X9461Y-7661
X9591Y-18528
X9630Y-6276
X9846Y-4724
X10154Y-6378
X10350Y-18713
X10695Y-18093
X10837Y-20274
X11122Y-4370
X11485Y-19846
X11563Y-7500
X11571Y-6327
X11761Y-19742
X12417Y-4701
X13343Y-6291
X13602Y-4370
X14685Y-7768
X14898Y-4748
X15306Y-18601
X16184Y-18589
X16240Y-4370
X16831Y-9130
X16890Y-17756
X16914Y-18431
X17584Y-18250
X17950Y-5150
X18063Y-16469
X18118Y-16118
X18272Y-10591
X18376Y-15947
X18460Y-16530
X18720Y-4370
X18786Y-20648
X18938Y-19795
X18940Y-17470
X19037Y-18338
X19075Y-8725
X19091Y-9811
X19281Y-16554
X19308Y-16982
X19343Y-9240
X19345Y-10426
X19350Y-6200
X19358Y-8193
X19378Y-15244
X19455Y-7628
X19461Y-9933
X19733Y-9793
X19750Y-10242
X20047Y-4866
X20203Y-17316
X20291Y-10491
X20326Y-17048
X20385Y-6504
X20511Y-7067
X20520Y-10124
X20550Y-5900
X20583Y-18229
X20712Y-6233
X20898Y-17752
X20950Y-6500
X20950Y-7100
X20996Y-9299
X21050Y-11000
X21118Y-11677
X21154Y-17472
X21168Y-7406
X21287Y-7677
X21358Y-4370
X21500Y-7900
X21681Y-6316
X21700Y-7600
X21710Y-8150
X21717Y-16067
X21849Y-14400
X21878Y-11890
X21970Y-13036
X22020Y-19760
X22035Y-18287
X22125Y-15438
X22370Y-3358
X22400Y-4650
X22550Y-5400
X22550Y-10950
X22622Y-366
X22655Y-8267
X22700Y-8850
X22763Y-9189
X22766Y-8541
X22800Y-5150
X22842Y-7857
X22926Y-16100
X22948Y-7201
X23089Y-4997
X23125Y-5500
X23138Y-21764
X23139Y-19725
X23250Y-2400
X23565Y-12117
X23575Y-16213
X23583Y-11421
X23874Y-17272
X24099Y-16009
X24100Y-13264
X24184Y-18539
X24185Y-18244
X24193Y-14343
X24211Y-15186
X24221Y-16278
X24240Y-12811
X24484Y-7110
X24504Y-3539
X24504Y-4575
X24618Y-5673
X24693Y-7744
X24744Y-6469
X24776Y-19512
X25090Y-9540
X25106Y-8583
X25400Y-12400
X25400Y-19400
X25429Y-12886
X25450Y-11800
X25500Y-11450
X25559Y-15157
X25600Y-17600
X25639Y-13111
X25700Y-17150
X25755Y-16155
X25776Y-21331
X25780Y-327
X25795Y-4539
X25800Y-16600
X25835Y-6472
X25862Y-7567
X25866Y-7047
X25882Y-5673
X25969Y-2835
X26030Y-15880
X26299Y-8567
X27261Y-6760
X27295Y-16598
X27339Y-18256
X27343Y-5748
X27386Y-19587
X27468Y-6336
X27516Y-3902
X27571Y-1957
X27583Y-21201
X27800Y-5600
X28358Y-457
X28787Y-11091
X28929Y-8169
X29138Y-13638
T2
X19750Y-11730
X19750Y-12730
X19750Y-13730
X19750Y-14730
X19750Y-15730
X19750Y-16730
X19750Y-17730
X19750Y-18730
T3
X15781Y-5950
X16766Y-5950
X17750Y-5950
X26650Y-14800
X26650Y-15784
X26650Y-16769
X26650Y-17753
X26650Y-18737
X26650Y-19721
X26650Y-20706
X15781Y-7750
X16766Y-7750
X17750Y-7750
X3497Y-6700
X4481Y-6700
X5466Y-6700
X6450Y-6700
X1100Y-3800
X1100Y-4784
X1100Y-5769
X1100Y-6753
X1100Y-7737
X1100Y-8721
X1100Y-9706
X1100Y-10690
X1100Y-11674
X28600Y-14798
X28600Y-15782
X28600Y-16767
X28600Y-17751
X28600Y-18735
X28600Y-19719
X28600Y-20704
X3147Y-17000
X4131Y-17000
X5116Y-17000
X6100Y-17000
X26650Y-1350
X26650Y-2334
X26650Y-3319
X26650Y-4303
X26650Y-5287
X26650Y-6271
X26650Y-7256
X23800Y-3694
X23800Y-4679
X23800Y-5663
X23800Y-6647
X23800Y-7631
X23800Y-8616
X23800Y-9600
X3129Y-18950
X4113Y-18950
X5097Y-18950
X6081Y-18950
X7066Y-18950
X8050Y-18950
X28600Y-1350
X28600Y-2334
X28600Y-3319
X28600Y-4303
X28600Y-5287
X28600Y-6271
X28600Y-7256
T4
X12350Y-7500
X13334Y-7500
X3287Y-20531
X3287Y-21531
X4287Y-20531
X4287Y-21531
X5287Y-20531
X5287Y-21531
X6287Y-20531
X6287Y-21531
X7287Y-20531
X7287Y-21531
X8287Y-20531
X8287Y-21531
X9287Y-20531
X9287Y-21531
X10287Y-20531
X10287Y-21531
X11287Y-20531
X11287Y-21531
X12287Y-20531
X12287Y-21531
X13287Y-20531
X13287Y-21531
X14287Y-20531
X14287Y-21531
X15287Y-20531
X15287Y-21531
X16287Y-20531
X16287Y-21531
X17287Y-20531
X17287Y-21531
X18287Y-20531
X18287Y-21531
X19287Y-20531
X19287Y-21531
X20287Y-20531
X20287Y-21531
X21287Y-20531
X21287Y-21531
X22287Y-20531
X22287Y-21531
T5
X27559Y-9606
X27559Y-12441
T6
X9961Y-9488
X9961Y-17362
X17835Y-9488
X17835Y-17362
T7
X1181Y-1181
X24409Y-1181
X1181Y-20866
X24409Y-20866
T8
X13898Y-13425
T0
M30
