G04 #@! TF.GenerationSoftware,KiCad,Pcbnew,(5.1.4)-1*
G04 #@! TF.CreationDate,2021-11-01T15:57:40-05:00*
G04 #@! TF.ProjectId,RascalHat,52617363-616c-4486-9174-2e6b69636164,rev?*
G04 #@! TF.SameCoordinates,Original*
G04 #@! TF.FileFunction,Soldermask,Bot*
G04 #@! TF.FilePolarity,Negative*
%FSLAX46Y46*%
G04 Gerber Fmt 4.6, Leading zero omitted, Abs format (unit mm)*
G04 Created by KiCad (PCBNEW (5.1.4)-1) date 2021-11-01 15:57:40*
%MOMM*%
%LPD*%
G04 APERTURE LIST*
%ADD10C,0.100000*%
G04 APERTURE END LIST*
D10*
G36*
X56720442Y-53795518D02*
G01*
X56786627Y-53802037D01*
X56956466Y-53853557D01*
X57112991Y-53937222D01*
X57148729Y-53966552D01*
X57250186Y-54049814D01*
X57333448Y-54151271D01*
X57362778Y-54187009D01*
X57362779Y-54187011D01*
X57413775Y-54282416D01*
X57446443Y-54343534D01*
X57497963Y-54513373D01*
X57515359Y-54690000D01*
X57497963Y-54866627D01*
X57446443Y-55036466D01*
X57362778Y-55192991D01*
X57333448Y-55228729D01*
X57250186Y-55330186D01*
X57148729Y-55413448D01*
X57112991Y-55442778D01*
X56956466Y-55526443D01*
X56786627Y-55577963D01*
X56720443Y-55584481D01*
X56654260Y-55591000D01*
X56565740Y-55591000D01*
X56499557Y-55584481D01*
X56433373Y-55577963D01*
X56263534Y-55526443D01*
X56107009Y-55442778D01*
X56071271Y-55413448D01*
X55969814Y-55330186D01*
X55886552Y-55228729D01*
X55857222Y-55192991D01*
X55773557Y-55036466D01*
X55722037Y-54866627D01*
X55704641Y-54690000D01*
X55722037Y-54513373D01*
X55773557Y-54343534D01*
X55806226Y-54282416D01*
X55857221Y-54187011D01*
X55857222Y-54187009D01*
X55886552Y-54151271D01*
X55969814Y-54049814D01*
X56071271Y-53966552D01*
X56107009Y-53937222D01*
X56263534Y-53853557D01*
X56433373Y-53802037D01*
X56499558Y-53795518D01*
X56565740Y-53789000D01*
X56654260Y-53789000D01*
X56720442Y-53795518D01*
X56720442Y-53795518D01*
G37*
G36*
X31320442Y-53795518D02*
G01*
X31386627Y-53802037D01*
X31556466Y-53853557D01*
X31712991Y-53937222D01*
X31748729Y-53966552D01*
X31850186Y-54049814D01*
X31933448Y-54151271D01*
X31962778Y-54187009D01*
X31962779Y-54187011D01*
X32013775Y-54282416D01*
X32046443Y-54343534D01*
X32097963Y-54513373D01*
X32115359Y-54690000D01*
X32097963Y-54866627D01*
X32046443Y-55036466D01*
X31962778Y-55192991D01*
X31933448Y-55228729D01*
X31850186Y-55330186D01*
X31748729Y-55413448D01*
X31712991Y-55442778D01*
X31556466Y-55526443D01*
X31386627Y-55577963D01*
X31320443Y-55584481D01*
X31254260Y-55591000D01*
X31165740Y-55591000D01*
X31099557Y-55584481D01*
X31033373Y-55577963D01*
X30863534Y-55526443D01*
X30707009Y-55442778D01*
X30671271Y-55413448D01*
X30569814Y-55330186D01*
X30486552Y-55228729D01*
X30457222Y-55192991D01*
X30373557Y-55036466D01*
X30322037Y-54866627D01*
X30304641Y-54690000D01*
X30322037Y-54513373D01*
X30373557Y-54343534D01*
X30406226Y-54282416D01*
X30457221Y-54187011D01*
X30457222Y-54187009D01*
X30486552Y-54151271D01*
X30569814Y-54049814D01*
X30671271Y-53966552D01*
X30707009Y-53937222D01*
X30863534Y-53853557D01*
X31033373Y-53802037D01*
X31099558Y-53795518D01*
X31165740Y-53789000D01*
X31254260Y-53789000D01*
X31320442Y-53795518D01*
X31320442Y-53795518D01*
G37*
G36*
X8460442Y-53795518D02*
G01*
X8526627Y-53802037D01*
X8696466Y-53853557D01*
X8852991Y-53937222D01*
X8888729Y-53966552D01*
X8990186Y-54049814D01*
X9073448Y-54151271D01*
X9102778Y-54187009D01*
X9102779Y-54187011D01*
X9153775Y-54282416D01*
X9186443Y-54343534D01*
X9237963Y-54513373D01*
X9255359Y-54690000D01*
X9237963Y-54866627D01*
X9186443Y-55036466D01*
X9102778Y-55192991D01*
X9073448Y-55228729D01*
X8990186Y-55330186D01*
X8888729Y-55413448D01*
X8852991Y-55442778D01*
X8696466Y-55526443D01*
X8526627Y-55577963D01*
X8460443Y-55584481D01*
X8394260Y-55591000D01*
X8305740Y-55591000D01*
X8239557Y-55584481D01*
X8173373Y-55577963D01*
X8003534Y-55526443D01*
X7847009Y-55442778D01*
X7811271Y-55413448D01*
X7709814Y-55330186D01*
X7626552Y-55228729D01*
X7597222Y-55192991D01*
X7513557Y-55036466D01*
X7462037Y-54866627D01*
X7444641Y-54690000D01*
X7462037Y-54513373D01*
X7513557Y-54343534D01*
X7546226Y-54282416D01*
X7597221Y-54187011D01*
X7597222Y-54187009D01*
X7626552Y-54151271D01*
X7709814Y-54049814D01*
X7811271Y-53966552D01*
X7847009Y-53937222D01*
X8003534Y-53853557D01*
X8173373Y-53802037D01*
X8239558Y-53795518D01*
X8305740Y-53789000D01*
X8394260Y-53789000D01*
X8460442Y-53795518D01*
X8460442Y-53795518D01*
G37*
G36*
X11000442Y-53795518D02*
G01*
X11066627Y-53802037D01*
X11236466Y-53853557D01*
X11392991Y-53937222D01*
X11428729Y-53966552D01*
X11530186Y-54049814D01*
X11613448Y-54151271D01*
X11642778Y-54187009D01*
X11642779Y-54187011D01*
X11693775Y-54282416D01*
X11726443Y-54343534D01*
X11777963Y-54513373D01*
X11795359Y-54690000D01*
X11777963Y-54866627D01*
X11726443Y-55036466D01*
X11642778Y-55192991D01*
X11613448Y-55228729D01*
X11530186Y-55330186D01*
X11428729Y-55413448D01*
X11392991Y-55442778D01*
X11236466Y-55526443D01*
X11066627Y-55577963D01*
X11000443Y-55584481D01*
X10934260Y-55591000D01*
X10845740Y-55591000D01*
X10779557Y-55584481D01*
X10713373Y-55577963D01*
X10543534Y-55526443D01*
X10387009Y-55442778D01*
X10351271Y-55413448D01*
X10249814Y-55330186D01*
X10166552Y-55228729D01*
X10137222Y-55192991D01*
X10053557Y-55036466D01*
X10002037Y-54866627D01*
X9984641Y-54690000D01*
X10002037Y-54513373D01*
X10053557Y-54343534D01*
X10086226Y-54282416D01*
X10137221Y-54187011D01*
X10137222Y-54187009D01*
X10166552Y-54151271D01*
X10249814Y-54049814D01*
X10351271Y-53966552D01*
X10387009Y-53937222D01*
X10543534Y-53853557D01*
X10713373Y-53802037D01*
X10779558Y-53795518D01*
X10845740Y-53789000D01*
X10934260Y-53789000D01*
X11000442Y-53795518D01*
X11000442Y-53795518D01*
G37*
G36*
X13540442Y-53795518D02*
G01*
X13606627Y-53802037D01*
X13776466Y-53853557D01*
X13932991Y-53937222D01*
X13968729Y-53966552D01*
X14070186Y-54049814D01*
X14153448Y-54151271D01*
X14182778Y-54187009D01*
X14182779Y-54187011D01*
X14233775Y-54282416D01*
X14266443Y-54343534D01*
X14317963Y-54513373D01*
X14335359Y-54690000D01*
X14317963Y-54866627D01*
X14266443Y-55036466D01*
X14182778Y-55192991D01*
X14153448Y-55228729D01*
X14070186Y-55330186D01*
X13968729Y-55413448D01*
X13932991Y-55442778D01*
X13776466Y-55526443D01*
X13606627Y-55577963D01*
X13540443Y-55584481D01*
X13474260Y-55591000D01*
X13385740Y-55591000D01*
X13319557Y-55584481D01*
X13253373Y-55577963D01*
X13083534Y-55526443D01*
X12927009Y-55442778D01*
X12891271Y-55413448D01*
X12789814Y-55330186D01*
X12706552Y-55228729D01*
X12677222Y-55192991D01*
X12593557Y-55036466D01*
X12542037Y-54866627D01*
X12524641Y-54690000D01*
X12542037Y-54513373D01*
X12593557Y-54343534D01*
X12626226Y-54282416D01*
X12677221Y-54187011D01*
X12677222Y-54187009D01*
X12706552Y-54151271D01*
X12789814Y-54049814D01*
X12891271Y-53966552D01*
X12927009Y-53937222D01*
X13083534Y-53853557D01*
X13253373Y-53802037D01*
X13319558Y-53795518D01*
X13385740Y-53789000D01*
X13474260Y-53789000D01*
X13540442Y-53795518D01*
X13540442Y-53795518D01*
G37*
G36*
X16080442Y-53795518D02*
G01*
X16146627Y-53802037D01*
X16316466Y-53853557D01*
X16472991Y-53937222D01*
X16508729Y-53966552D01*
X16610186Y-54049814D01*
X16693448Y-54151271D01*
X16722778Y-54187009D01*
X16722779Y-54187011D01*
X16773775Y-54282416D01*
X16806443Y-54343534D01*
X16857963Y-54513373D01*
X16875359Y-54690000D01*
X16857963Y-54866627D01*
X16806443Y-55036466D01*
X16722778Y-55192991D01*
X16693448Y-55228729D01*
X16610186Y-55330186D01*
X16508729Y-55413448D01*
X16472991Y-55442778D01*
X16316466Y-55526443D01*
X16146627Y-55577963D01*
X16080443Y-55584481D01*
X16014260Y-55591000D01*
X15925740Y-55591000D01*
X15859557Y-55584481D01*
X15793373Y-55577963D01*
X15623534Y-55526443D01*
X15467009Y-55442778D01*
X15431271Y-55413448D01*
X15329814Y-55330186D01*
X15246552Y-55228729D01*
X15217222Y-55192991D01*
X15133557Y-55036466D01*
X15082037Y-54866627D01*
X15064641Y-54690000D01*
X15082037Y-54513373D01*
X15133557Y-54343534D01*
X15166226Y-54282416D01*
X15217221Y-54187011D01*
X15217222Y-54187009D01*
X15246552Y-54151271D01*
X15329814Y-54049814D01*
X15431271Y-53966552D01*
X15467009Y-53937222D01*
X15623534Y-53853557D01*
X15793373Y-53802037D01*
X15859558Y-53795518D01*
X15925740Y-53789000D01*
X16014260Y-53789000D01*
X16080442Y-53795518D01*
X16080442Y-53795518D01*
G37*
G36*
X18620442Y-53795518D02*
G01*
X18686627Y-53802037D01*
X18856466Y-53853557D01*
X19012991Y-53937222D01*
X19048729Y-53966552D01*
X19150186Y-54049814D01*
X19233448Y-54151271D01*
X19262778Y-54187009D01*
X19262779Y-54187011D01*
X19313775Y-54282416D01*
X19346443Y-54343534D01*
X19397963Y-54513373D01*
X19415359Y-54690000D01*
X19397963Y-54866627D01*
X19346443Y-55036466D01*
X19262778Y-55192991D01*
X19233448Y-55228729D01*
X19150186Y-55330186D01*
X19048729Y-55413448D01*
X19012991Y-55442778D01*
X18856466Y-55526443D01*
X18686627Y-55577963D01*
X18620443Y-55584481D01*
X18554260Y-55591000D01*
X18465740Y-55591000D01*
X18399557Y-55584481D01*
X18333373Y-55577963D01*
X18163534Y-55526443D01*
X18007009Y-55442778D01*
X17971271Y-55413448D01*
X17869814Y-55330186D01*
X17786552Y-55228729D01*
X17757222Y-55192991D01*
X17673557Y-55036466D01*
X17622037Y-54866627D01*
X17604641Y-54690000D01*
X17622037Y-54513373D01*
X17673557Y-54343534D01*
X17706226Y-54282416D01*
X17757221Y-54187011D01*
X17757222Y-54187009D01*
X17786552Y-54151271D01*
X17869814Y-54049814D01*
X17971271Y-53966552D01*
X18007009Y-53937222D01*
X18163534Y-53853557D01*
X18333373Y-53802037D01*
X18399558Y-53795518D01*
X18465740Y-53789000D01*
X18554260Y-53789000D01*
X18620442Y-53795518D01*
X18620442Y-53795518D01*
G37*
G36*
X21160442Y-53795518D02*
G01*
X21226627Y-53802037D01*
X21396466Y-53853557D01*
X21552991Y-53937222D01*
X21588729Y-53966552D01*
X21690186Y-54049814D01*
X21773448Y-54151271D01*
X21802778Y-54187009D01*
X21802779Y-54187011D01*
X21853775Y-54282416D01*
X21886443Y-54343534D01*
X21937963Y-54513373D01*
X21955359Y-54690000D01*
X21937963Y-54866627D01*
X21886443Y-55036466D01*
X21802778Y-55192991D01*
X21773448Y-55228729D01*
X21690186Y-55330186D01*
X21588729Y-55413448D01*
X21552991Y-55442778D01*
X21396466Y-55526443D01*
X21226627Y-55577963D01*
X21160443Y-55584481D01*
X21094260Y-55591000D01*
X21005740Y-55591000D01*
X20939557Y-55584481D01*
X20873373Y-55577963D01*
X20703534Y-55526443D01*
X20547009Y-55442778D01*
X20511271Y-55413448D01*
X20409814Y-55330186D01*
X20326552Y-55228729D01*
X20297222Y-55192991D01*
X20213557Y-55036466D01*
X20162037Y-54866627D01*
X20144641Y-54690000D01*
X20162037Y-54513373D01*
X20213557Y-54343534D01*
X20246226Y-54282416D01*
X20297221Y-54187011D01*
X20297222Y-54187009D01*
X20326552Y-54151271D01*
X20409814Y-54049814D01*
X20511271Y-53966552D01*
X20547009Y-53937222D01*
X20703534Y-53853557D01*
X20873373Y-53802037D01*
X20939558Y-53795518D01*
X21005740Y-53789000D01*
X21094260Y-53789000D01*
X21160442Y-53795518D01*
X21160442Y-53795518D01*
G37*
G36*
X23700442Y-53795518D02*
G01*
X23766627Y-53802037D01*
X23936466Y-53853557D01*
X24092991Y-53937222D01*
X24128729Y-53966552D01*
X24230186Y-54049814D01*
X24313448Y-54151271D01*
X24342778Y-54187009D01*
X24342779Y-54187011D01*
X24393775Y-54282416D01*
X24426443Y-54343534D01*
X24477963Y-54513373D01*
X24495359Y-54690000D01*
X24477963Y-54866627D01*
X24426443Y-55036466D01*
X24342778Y-55192991D01*
X24313448Y-55228729D01*
X24230186Y-55330186D01*
X24128729Y-55413448D01*
X24092991Y-55442778D01*
X23936466Y-55526443D01*
X23766627Y-55577963D01*
X23700443Y-55584481D01*
X23634260Y-55591000D01*
X23545740Y-55591000D01*
X23479557Y-55584481D01*
X23413373Y-55577963D01*
X23243534Y-55526443D01*
X23087009Y-55442778D01*
X23051271Y-55413448D01*
X22949814Y-55330186D01*
X22866552Y-55228729D01*
X22837222Y-55192991D01*
X22753557Y-55036466D01*
X22702037Y-54866627D01*
X22684641Y-54690000D01*
X22702037Y-54513373D01*
X22753557Y-54343534D01*
X22786226Y-54282416D01*
X22837221Y-54187011D01*
X22837222Y-54187009D01*
X22866552Y-54151271D01*
X22949814Y-54049814D01*
X23051271Y-53966552D01*
X23087009Y-53937222D01*
X23243534Y-53853557D01*
X23413373Y-53802037D01*
X23479558Y-53795518D01*
X23545740Y-53789000D01*
X23634260Y-53789000D01*
X23700442Y-53795518D01*
X23700442Y-53795518D01*
G37*
G36*
X26240442Y-53795518D02*
G01*
X26306627Y-53802037D01*
X26476466Y-53853557D01*
X26632991Y-53937222D01*
X26668729Y-53966552D01*
X26770186Y-54049814D01*
X26853448Y-54151271D01*
X26882778Y-54187009D01*
X26882779Y-54187011D01*
X26933775Y-54282416D01*
X26966443Y-54343534D01*
X27017963Y-54513373D01*
X27035359Y-54690000D01*
X27017963Y-54866627D01*
X26966443Y-55036466D01*
X26882778Y-55192991D01*
X26853448Y-55228729D01*
X26770186Y-55330186D01*
X26668729Y-55413448D01*
X26632991Y-55442778D01*
X26476466Y-55526443D01*
X26306627Y-55577963D01*
X26240443Y-55584481D01*
X26174260Y-55591000D01*
X26085740Y-55591000D01*
X26019557Y-55584481D01*
X25953373Y-55577963D01*
X25783534Y-55526443D01*
X25627009Y-55442778D01*
X25591271Y-55413448D01*
X25489814Y-55330186D01*
X25406552Y-55228729D01*
X25377222Y-55192991D01*
X25293557Y-55036466D01*
X25242037Y-54866627D01*
X25224641Y-54690000D01*
X25242037Y-54513373D01*
X25293557Y-54343534D01*
X25326226Y-54282416D01*
X25377221Y-54187011D01*
X25377222Y-54187009D01*
X25406552Y-54151271D01*
X25489814Y-54049814D01*
X25591271Y-53966552D01*
X25627009Y-53937222D01*
X25783534Y-53853557D01*
X25953373Y-53802037D01*
X26019558Y-53795518D01*
X26085740Y-53789000D01*
X26174260Y-53789000D01*
X26240442Y-53795518D01*
X26240442Y-53795518D01*
G37*
G36*
X28780442Y-53795518D02*
G01*
X28846627Y-53802037D01*
X29016466Y-53853557D01*
X29172991Y-53937222D01*
X29208729Y-53966552D01*
X29310186Y-54049814D01*
X29393448Y-54151271D01*
X29422778Y-54187009D01*
X29422779Y-54187011D01*
X29473775Y-54282416D01*
X29506443Y-54343534D01*
X29557963Y-54513373D01*
X29575359Y-54690000D01*
X29557963Y-54866627D01*
X29506443Y-55036466D01*
X29422778Y-55192991D01*
X29393448Y-55228729D01*
X29310186Y-55330186D01*
X29208729Y-55413448D01*
X29172991Y-55442778D01*
X29016466Y-55526443D01*
X28846627Y-55577963D01*
X28780443Y-55584481D01*
X28714260Y-55591000D01*
X28625740Y-55591000D01*
X28559557Y-55584481D01*
X28493373Y-55577963D01*
X28323534Y-55526443D01*
X28167009Y-55442778D01*
X28131271Y-55413448D01*
X28029814Y-55330186D01*
X27946552Y-55228729D01*
X27917222Y-55192991D01*
X27833557Y-55036466D01*
X27782037Y-54866627D01*
X27764641Y-54690000D01*
X27782037Y-54513373D01*
X27833557Y-54343534D01*
X27866226Y-54282416D01*
X27917221Y-54187011D01*
X27917222Y-54187009D01*
X27946552Y-54151271D01*
X28029814Y-54049814D01*
X28131271Y-53966552D01*
X28167009Y-53937222D01*
X28323534Y-53853557D01*
X28493373Y-53802037D01*
X28559558Y-53795518D01*
X28625740Y-53789000D01*
X28714260Y-53789000D01*
X28780442Y-53795518D01*
X28780442Y-53795518D01*
G37*
G36*
X36400442Y-53795518D02*
G01*
X36466627Y-53802037D01*
X36636466Y-53853557D01*
X36792991Y-53937222D01*
X36828729Y-53966552D01*
X36930186Y-54049814D01*
X37013448Y-54151271D01*
X37042778Y-54187009D01*
X37042779Y-54187011D01*
X37093775Y-54282416D01*
X37126443Y-54343534D01*
X37177963Y-54513373D01*
X37195359Y-54690000D01*
X37177963Y-54866627D01*
X37126443Y-55036466D01*
X37042778Y-55192991D01*
X37013448Y-55228729D01*
X36930186Y-55330186D01*
X36828729Y-55413448D01*
X36792991Y-55442778D01*
X36636466Y-55526443D01*
X36466627Y-55577963D01*
X36400443Y-55584481D01*
X36334260Y-55591000D01*
X36245740Y-55591000D01*
X36179557Y-55584481D01*
X36113373Y-55577963D01*
X35943534Y-55526443D01*
X35787009Y-55442778D01*
X35751271Y-55413448D01*
X35649814Y-55330186D01*
X35566552Y-55228729D01*
X35537222Y-55192991D01*
X35453557Y-55036466D01*
X35402037Y-54866627D01*
X35384641Y-54690000D01*
X35402037Y-54513373D01*
X35453557Y-54343534D01*
X35486226Y-54282416D01*
X35537221Y-54187011D01*
X35537222Y-54187009D01*
X35566552Y-54151271D01*
X35649814Y-54049814D01*
X35751271Y-53966552D01*
X35787009Y-53937222D01*
X35943534Y-53853557D01*
X36113373Y-53802037D01*
X36179558Y-53795518D01*
X36245740Y-53789000D01*
X36334260Y-53789000D01*
X36400442Y-53795518D01*
X36400442Y-53795518D01*
G37*
G36*
X33860442Y-53795518D02*
G01*
X33926627Y-53802037D01*
X34096466Y-53853557D01*
X34252991Y-53937222D01*
X34288729Y-53966552D01*
X34390186Y-54049814D01*
X34473448Y-54151271D01*
X34502778Y-54187009D01*
X34502779Y-54187011D01*
X34553775Y-54282416D01*
X34586443Y-54343534D01*
X34637963Y-54513373D01*
X34655359Y-54690000D01*
X34637963Y-54866627D01*
X34586443Y-55036466D01*
X34502778Y-55192991D01*
X34473448Y-55228729D01*
X34390186Y-55330186D01*
X34288729Y-55413448D01*
X34252991Y-55442778D01*
X34096466Y-55526443D01*
X33926627Y-55577963D01*
X33860443Y-55584481D01*
X33794260Y-55591000D01*
X33705740Y-55591000D01*
X33639557Y-55584481D01*
X33573373Y-55577963D01*
X33403534Y-55526443D01*
X33247009Y-55442778D01*
X33211271Y-55413448D01*
X33109814Y-55330186D01*
X33026552Y-55228729D01*
X32997222Y-55192991D01*
X32913557Y-55036466D01*
X32862037Y-54866627D01*
X32844641Y-54690000D01*
X32862037Y-54513373D01*
X32913557Y-54343534D01*
X32946226Y-54282416D01*
X32997221Y-54187011D01*
X32997222Y-54187009D01*
X33026552Y-54151271D01*
X33109814Y-54049814D01*
X33211271Y-53966552D01*
X33247009Y-53937222D01*
X33403534Y-53853557D01*
X33573373Y-53802037D01*
X33639558Y-53795518D01*
X33705740Y-53789000D01*
X33794260Y-53789000D01*
X33860442Y-53795518D01*
X33860442Y-53795518D01*
G37*
G36*
X54180442Y-53795518D02*
G01*
X54246627Y-53802037D01*
X54416466Y-53853557D01*
X54572991Y-53937222D01*
X54608729Y-53966552D01*
X54710186Y-54049814D01*
X54793448Y-54151271D01*
X54822778Y-54187009D01*
X54822779Y-54187011D01*
X54873775Y-54282416D01*
X54906443Y-54343534D01*
X54957963Y-54513373D01*
X54975359Y-54690000D01*
X54957963Y-54866627D01*
X54906443Y-55036466D01*
X54822778Y-55192991D01*
X54793448Y-55228729D01*
X54710186Y-55330186D01*
X54608729Y-55413448D01*
X54572991Y-55442778D01*
X54416466Y-55526443D01*
X54246627Y-55577963D01*
X54180443Y-55584481D01*
X54114260Y-55591000D01*
X54025740Y-55591000D01*
X53959557Y-55584481D01*
X53893373Y-55577963D01*
X53723534Y-55526443D01*
X53567009Y-55442778D01*
X53531271Y-55413448D01*
X53429814Y-55330186D01*
X53346552Y-55228729D01*
X53317222Y-55192991D01*
X53233557Y-55036466D01*
X53182037Y-54866627D01*
X53164641Y-54690000D01*
X53182037Y-54513373D01*
X53233557Y-54343534D01*
X53266226Y-54282416D01*
X53317221Y-54187011D01*
X53317222Y-54187009D01*
X53346552Y-54151271D01*
X53429814Y-54049814D01*
X53531271Y-53966552D01*
X53567009Y-53937222D01*
X53723534Y-53853557D01*
X53893373Y-53802037D01*
X53959558Y-53795518D01*
X54025740Y-53789000D01*
X54114260Y-53789000D01*
X54180442Y-53795518D01*
X54180442Y-53795518D01*
G37*
G36*
X51640442Y-53795518D02*
G01*
X51706627Y-53802037D01*
X51876466Y-53853557D01*
X52032991Y-53937222D01*
X52068729Y-53966552D01*
X52170186Y-54049814D01*
X52253448Y-54151271D01*
X52282778Y-54187009D01*
X52282779Y-54187011D01*
X52333775Y-54282416D01*
X52366443Y-54343534D01*
X52417963Y-54513373D01*
X52435359Y-54690000D01*
X52417963Y-54866627D01*
X52366443Y-55036466D01*
X52282778Y-55192991D01*
X52253448Y-55228729D01*
X52170186Y-55330186D01*
X52068729Y-55413448D01*
X52032991Y-55442778D01*
X51876466Y-55526443D01*
X51706627Y-55577963D01*
X51640443Y-55584481D01*
X51574260Y-55591000D01*
X51485740Y-55591000D01*
X51419557Y-55584481D01*
X51353373Y-55577963D01*
X51183534Y-55526443D01*
X51027009Y-55442778D01*
X50991271Y-55413448D01*
X50889814Y-55330186D01*
X50806552Y-55228729D01*
X50777222Y-55192991D01*
X50693557Y-55036466D01*
X50642037Y-54866627D01*
X50624641Y-54690000D01*
X50642037Y-54513373D01*
X50693557Y-54343534D01*
X50726226Y-54282416D01*
X50777221Y-54187011D01*
X50777222Y-54187009D01*
X50806552Y-54151271D01*
X50889814Y-54049814D01*
X50991271Y-53966552D01*
X51027009Y-53937222D01*
X51183534Y-53853557D01*
X51353373Y-53802037D01*
X51419558Y-53795518D01*
X51485740Y-53789000D01*
X51574260Y-53789000D01*
X51640442Y-53795518D01*
X51640442Y-53795518D01*
G37*
G36*
X49100442Y-53795518D02*
G01*
X49166627Y-53802037D01*
X49336466Y-53853557D01*
X49492991Y-53937222D01*
X49528729Y-53966552D01*
X49630186Y-54049814D01*
X49713448Y-54151271D01*
X49742778Y-54187009D01*
X49742779Y-54187011D01*
X49793775Y-54282416D01*
X49826443Y-54343534D01*
X49877963Y-54513373D01*
X49895359Y-54690000D01*
X49877963Y-54866627D01*
X49826443Y-55036466D01*
X49742778Y-55192991D01*
X49713448Y-55228729D01*
X49630186Y-55330186D01*
X49528729Y-55413448D01*
X49492991Y-55442778D01*
X49336466Y-55526443D01*
X49166627Y-55577963D01*
X49100443Y-55584481D01*
X49034260Y-55591000D01*
X48945740Y-55591000D01*
X48879557Y-55584481D01*
X48813373Y-55577963D01*
X48643534Y-55526443D01*
X48487009Y-55442778D01*
X48451271Y-55413448D01*
X48349814Y-55330186D01*
X48266552Y-55228729D01*
X48237222Y-55192991D01*
X48153557Y-55036466D01*
X48102037Y-54866627D01*
X48084641Y-54690000D01*
X48102037Y-54513373D01*
X48153557Y-54343534D01*
X48186226Y-54282416D01*
X48237221Y-54187011D01*
X48237222Y-54187009D01*
X48266552Y-54151271D01*
X48349814Y-54049814D01*
X48451271Y-53966552D01*
X48487009Y-53937222D01*
X48643534Y-53853557D01*
X48813373Y-53802037D01*
X48879558Y-53795518D01*
X48945740Y-53789000D01*
X49034260Y-53789000D01*
X49100442Y-53795518D01*
X49100442Y-53795518D01*
G37*
G36*
X44020442Y-53795518D02*
G01*
X44086627Y-53802037D01*
X44256466Y-53853557D01*
X44412991Y-53937222D01*
X44448729Y-53966552D01*
X44550186Y-54049814D01*
X44633448Y-54151271D01*
X44662778Y-54187009D01*
X44662779Y-54187011D01*
X44713775Y-54282416D01*
X44746443Y-54343534D01*
X44797963Y-54513373D01*
X44815359Y-54690000D01*
X44797963Y-54866627D01*
X44746443Y-55036466D01*
X44662778Y-55192991D01*
X44633448Y-55228729D01*
X44550186Y-55330186D01*
X44448729Y-55413448D01*
X44412991Y-55442778D01*
X44256466Y-55526443D01*
X44086627Y-55577963D01*
X44020443Y-55584481D01*
X43954260Y-55591000D01*
X43865740Y-55591000D01*
X43799557Y-55584481D01*
X43733373Y-55577963D01*
X43563534Y-55526443D01*
X43407009Y-55442778D01*
X43371271Y-55413448D01*
X43269814Y-55330186D01*
X43186552Y-55228729D01*
X43157222Y-55192991D01*
X43073557Y-55036466D01*
X43022037Y-54866627D01*
X43004641Y-54690000D01*
X43022037Y-54513373D01*
X43073557Y-54343534D01*
X43106226Y-54282416D01*
X43157221Y-54187011D01*
X43157222Y-54187009D01*
X43186552Y-54151271D01*
X43269814Y-54049814D01*
X43371271Y-53966552D01*
X43407009Y-53937222D01*
X43563534Y-53853557D01*
X43733373Y-53802037D01*
X43799558Y-53795518D01*
X43865740Y-53789000D01*
X43954260Y-53789000D01*
X44020442Y-53795518D01*
X44020442Y-53795518D01*
G37*
G36*
X41480442Y-53795518D02*
G01*
X41546627Y-53802037D01*
X41716466Y-53853557D01*
X41872991Y-53937222D01*
X41908729Y-53966552D01*
X42010186Y-54049814D01*
X42093448Y-54151271D01*
X42122778Y-54187009D01*
X42122779Y-54187011D01*
X42173775Y-54282416D01*
X42206443Y-54343534D01*
X42257963Y-54513373D01*
X42275359Y-54690000D01*
X42257963Y-54866627D01*
X42206443Y-55036466D01*
X42122778Y-55192991D01*
X42093448Y-55228729D01*
X42010186Y-55330186D01*
X41908729Y-55413448D01*
X41872991Y-55442778D01*
X41716466Y-55526443D01*
X41546627Y-55577963D01*
X41480443Y-55584481D01*
X41414260Y-55591000D01*
X41325740Y-55591000D01*
X41259557Y-55584481D01*
X41193373Y-55577963D01*
X41023534Y-55526443D01*
X40867009Y-55442778D01*
X40831271Y-55413448D01*
X40729814Y-55330186D01*
X40646552Y-55228729D01*
X40617222Y-55192991D01*
X40533557Y-55036466D01*
X40482037Y-54866627D01*
X40464641Y-54690000D01*
X40482037Y-54513373D01*
X40533557Y-54343534D01*
X40566226Y-54282416D01*
X40617221Y-54187011D01*
X40617222Y-54187009D01*
X40646552Y-54151271D01*
X40729814Y-54049814D01*
X40831271Y-53966552D01*
X40867009Y-53937222D01*
X41023534Y-53853557D01*
X41193373Y-53802037D01*
X41259558Y-53795518D01*
X41325740Y-53789000D01*
X41414260Y-53789000D01*
X41480442Y-53795518D01*
X41480442Y-53795518D01*
G37*
G36*
X38940442Y-53795518D02*
G01*
X39006627Y-53802037D01*
X39176466Y-53853557D01*
X39332991Y-53937222D01*
X39368729Y-53966552D01*
X39470186Y-54049814D01*
X39553448Y-54151271D01*
X39582778Y-54187009D01*
X39582779Y-54187011D01*
X39633775Y-54282416D01*
X39666443Y-54343534D01*
X39717963Y-54513373D01*
X39735359Y-54690000D01*
X39717963Y-54866627D01*
X39666443Y-55036466D01*
X39582778Y-55192991D01*
X39553448Y-55228729D01*
X39470186Y-55330186D01*
X39368729Y-55413448D01*
X39332991Y-55442778D01*
X39176466Y-55526443D01*
X39006627Y-55577963D01*
X38940443Y-55584481D01*
X38874260Y-55591000D01*
X38785740Y-55591000D01*
X38719557Y-55584481D01*
X38653373Y-55577963D01*
X38483534Y-55526443D01*
X38327009Y-55442778D01*
X38291271Y-55413448D01*
X38189814Y-55330186D01*
X38106552Y-55228729D01*
X38077222Y-55192991D01*
X37993557Y-55036466D01*
X37942037Y-54866627D01*
X37924641Y-54690000D01*
X37942037Y-54513373D01*
X37993557Y-54343534D01*
X38026226Y-54282416D01*
X38077221Y-54187011D01*
X38077222Y-54187009D01*
X38106552Y-54151271D01*
X38189814Y-54049814D01*
X38291271Y-53966552D01*
X38327009Y-53937222D01*
X38483534Y-53853557D01*
X38653373Y-53802037D01*
X38719558Y-53795518D01*
X38785740Y-53789000D01*
X38874260Y-53789000D01*
X38940442Y-53795518D01*
X38940442Y-53795518D01*
G37*
G36*
X46560442Y-53795518D02*
G01*
X46626627Y-53802037D01*
X46796466Y-53853557D01*
X46952991Y-53937222D01*
X46988729Y-53966552D01*
X47090186Y-54049814D01*
X47173448Y-54151271D01*
X47202778Y-54187009D01*
X47202779Y-54187011D01*
X47253775Y-54282416D01*
X47286443Y-54343534D01*
X47337963Y-54513373D01*
X47355359Y-54690000D01*
X47337963Y-54866627D01*
X47286443Y-55036466D01*
X47202778Y-55192991D01*
X47173448Y-55228729D01*
X47090186Y-55330186D01*
X46988729Y-55413448D01*
X46952991Y-55442778D01*
X46796466Y-55526443D01*
X46626627Y-55577963D01*
X46560443Y-55584481D01*
X46494260Y-55591000D01*
X46405740Y-55591000D01*
X46339557Y-55584481D01*
X46273373Y-55577963D01*
X46103534Y-55526443D01*
X45947009Y-55442778D01*
X45911271Y-55413448D01*
X45809814Y-55330186D01*
X45726552Y-55228729D01*
X45697222Y-55192991D01*
X45613557Y-55036466D01*
X45562037Y-54866627D01*
X45544641Y-54690000D01*
X45562037Y-54513373D01*
X45613557Y-54343534D01*
X45646226Y-54282416D01*
X45697221Y-54187011D01*
X45697222Y-54187009D01*
X45726552Y-54151271D01*
X45809814Y-54049814D01*
X45911271Y-53966552D01*
X45947009Y-53937222D01*
X46103534Y-53853557D01*
X46273373Y-53802037D01*
X46339558Y-53795518D01*
X46405740Y-53789000D01*
X46494260Y-53789000D01*
X46560442Y-53795518D01*
X46560442Y-53795518D01*
G37*
G36*
X62375256Y-51391298D02*
G01*
X62481579Y-51412447D01*
X62694037Y-51500450D01*
X62716644Y-51509814D01*
X62782042Y-51536903D01*
X63052451Y-51717585D01*
X63282415Y-51947549D01*
X63463097Y-52217958D01*
X63463098Y-52217960D01*
X63472448Y-52240534D01*
X63578460Y-52496468D01*
X63587553Y-52518422D01*
X63651000Y-52837389D01*
X63651000Y-53162611D01*
X63615759Y-53339778D01*
X63587553Y-53481579D01*
X63463097Y-53782042D01*
X63282415Y-54052451D01*
X63052451Y-54282415D01*
X62782042Y-54463097D01*
X62481579Y-54587553D01*
X62375256Y-54608702D01*
X62162611Y-54651000D01*
X61837389Y-54651000D01*
X61624744Y-54608702D01*
X61518421Y-54587553D01*
X61217958Y-54463097D01*
X60947549Y-54282415D01*
X60717585Y-54052451D01*
X60536903Y-53782042D01*
X60412447Y-53481579D01*
X60384241Y-53339778D01*
X60349000Y-53162611D01*
X60349000Y-52837389D01*
X60412447Y-52518422D01*
X60421541Y-52496468D01*
X60527552Y-52240534D01*
X60536902Y-52217960D01*
X60536903Y-52217958D01*
X60717585Y-51947549D01*
X60947549Y-51717585D01*
X61217958Y-51536903D01*
X61283357Y-51509814D01*
X61305963Y-51500450D01*
X61518421Y-51412447D01*
X61624744Y-51391298D01*
X61837389Y-51349000D01*
X62162611Y-51349000D01*
X62375256Y-51391298D01*
X62375256Y-51391298D01*
G37*
G36*
X3375256Y-51391298D02*
G01*
X3481579Y-51412447D01*
X3694037Y-51500450D01*
X3716644Y-51509814D01*
X3782042Y-51536903D01*
X4052451Y-51717585D01*
X4282415Y-51947549D01*
X4463097Y-52217958D01*
X4463098Y-52217960D01*
X4472448Y-52240534D01*
X4578460Y-52496468D01*
X4587553Y-52518422D01*
X4651000Y-52837389D01*
X4651000Y-53162611D01*
X4615759Y-53339778D01*
X4587553Y-53481579D01*
X4463097Y-53782042D01*
X4282415Y-54052451D01*
X4052451Y-54282415D01*
X3782042Y-54463097D01*
X3481579Y-54587553D01*
X3375256Y-54608702D01*
X3162611Y-54651000D01*
X2837389Y-54651000D01*
X2624744Y-54608702D01*
X2518421Y-54587553D01*
X2217958Y-54463097D01*
X1947549Y-54282415D01*
X1717585Y-54052451D01*
X1536903Y-53782042D01*
X1412447Y-53481579D01*
X1384241Y-53339778D01*
X1349000Y-53162611D01*
X1349000Y-52837389D01*
X1412447Y-52518422D01*
X1421541Y-52496468D01*
X1527552Y-52240534D01*
X1536902Y-52217960D01*
X1536903Y-52217958D01*
X1717585Y-51947549D01*
X1947549Y-51717585D01*
X2217958Y-51536903D01*
X2283357Y-51509814D01*
X2305963Y-51500450D01*
X2518421Y-51412447D01*
X2624744Y-51391298D01*
X2837389Y-51349000D01*
X3162611Y-51349000D01*
X3375256Y-51391298D01*
X3375256Y-51391298D01*
G37*
G36*
X67926442Y-51697518D02*
G01*
X67992627Y-51704037D01*
X68162466Y-51755557D01*
X68318991Y-51839222D01*
X68354729Y-51868552D01*
X68456186Y-51951814D01*
X68539448Y-52053271D01*
X68568778Y-52089009D01*
X68652443Y-52245534D01*
X68703963Y-52415373D01*
X68721359Y-52592000D01*
X68703963Y-52768627D01*
X68652443Y-52938466D01*
X68568778Y-53094991D01*
X68539448Y-53130729D01*
X68456186Y-53232186D01*
X68354729Y-53315448D01*
X68318991Y-53344778D01*
X68162466Y-53428443D01*
X67992627Y-53479963D01*
X67926443Y-53486481D01*
X67860260Y-53493000D01*
X67521740Y-53493000D01*
X67455557Y-53486481D01*
X67389373Y-53479963D01*
X67219534Y-53428443D01*
X67063009Y-53344778D01*
X67027271Y-53315448D01*
X66925814Y-53232186D01*
X66842552Y-53130729D01*
X66813222Y-53094991D01*
X66729557Y-52938466D01*
X66678037Y-52768627D01*
X66660641Y-52592000D01*
X66678037Y-52415373D01*
X66729557Y-52245534D01*
X66813222Y-52089009D01*
X66842552Y-52053271D01*
X66925814Y-51951814D01*
X67027271Y-51868552D01*
X67063009Y-51839222D01*
X67219534Y-51755557D01*
X67389373Y-51704037D01*
X67455558Y-51697518D01*
X67521740Y-51691000D01*
X67860260Y-51691000D01*
X67926442Y-51697518D01*
X67926442Y-51697518D01*
G37*
G36*
X72864025Y-51691000D02*
G01*
X72945627Y-51699037D01*
X73115466Y-51750557D01*
X73271991Y-51834222D01*
X73278082Y-51839221D01*
X73409186Y-51946814D01*
X73492448Y-52048271D01*
X73521778Y-52084009D01*
X73605443Y-52240534D01*
X73656963Y-52410373D01*
X73674359Y-52587000D01*
X73656963Y-52763627D01*
X73605443Y-52933466D01*
X73521778Y-53089991D01*
X73492448Y-53125729D01*
X73409186Y-53227186D01*
X73307729Y-53310448D01*
X73271991Y-53339778D01*
X73115466Y-53423443D01*
X72945627Y-53474963D01*
X72894860Y-53479963D01*
X72813260Y-53488000D01*
X72474740Y-53488000D01*
X72393140Y-53479963D01*
X72342373Y-53474963D01*
X72172534Y-53423443D01*
X72016009Y-53339778D01*
X71980271Y-53310448D01*
X71878814Y-53227186D01*
X71795552Y-53125729D01*
X71766222Y-53089991D01*
X71682557Y-52933466D01*
X71631037Y-52763627D01*
X71613641Y-52587000D01*
X71631037Y-52410373D01*
X71682557Y-52240534D01*
X71766222Y-52084009D01*
X71795552Y-52048271D01*
X71878814Y-51946814D01*
X72009918Y-51839221D01*
X72016009Y-51834222D01*
X72172534Y-51750557D01*
X72342373Y-51699037D01*
X72423975Y-51691000D01*
X72474740Y-51686000D01*
X72813260Y-51686000D01*
X72864025Y-51691000D01*
X72864025Y-51691000D01*
G37*
G36*
X21160443Y-51255519D02*
G01*
X21226627Y-51262037D01*
X21396466Y-51313557D01*
X21552991Y-51397222D01*
X21588729Y-51426552D01*
X21690186Y-51509814D01*
X21773448Y-51611271D01*
X21802778Y-51647009D01*
X21886443Y-51803534D01*
X21937963Y-51973373D01*
X21955359Y-52150000D01*
X21937963Y-52326627D01*
X21886443Y-52496466D01*
X21802778Y-52652991D01*
X21773448Y-52688729D01*
X21690186Y-52790186D01*
X21588729Y-52873448D01*
X21552991Y-52902778D01*
X21396466Y-52986443D01*
X21226627Y-53037963D01*
X21160442Y-53044482D01*
X21094260Y-53051000D01*
X21005740Y-53051000D01*
X20939558Y-53044482D01*
X20873373Y-53037963D01*
X20703534Y-52986443D01*
X20547009Y-52902778D01*
X20511271Y-52873448D01*
X20409814Y-52790186D01*
X20326552Y-52688729D01*
X20297222Y-52652991D01*
X20213557Y-52496466D01*
X20162037Y-52326627D01*
X20144641Y-52150000D01*
X20162037Y-51973373D01*
X20213557Y-51803534D01*
X20297222Y-51647009D01*
X20326552Y-51611271D01*
X20409814Y-51509814D01*
X20511271Y-51426552D01*
X20547009Y-51397222D01*
X20703534Y-51313557D01*
X20873373Y-51262037D01*
X20939558Y-51255518D01*
X21005740Y-51249000D01*
X21094260Y-51249000D01*
X21160443Y-51255519D01*
X21160443Y-51255519D01*
G37*
G36*
X51640443Y-51255519D02*
G01*
X51706627Y-51262037D01*
X51876466Y-51313557D01*
X52032991Y-51397222D01*
X52068729Y-51426552D01*
X52170186Y-51509814D01*
X52253448Y-51611271D01*
X52282778Y-51647009D01*
X52366443Y-51803534D01*
X52417963Y-51973373D01*
X52435359Y-52150000D01*
X52417963Y-52326627D01*
X52366443Y-52496466D01*
X52282778Y-52652991D01*
X52253448Y-52688729D01*
X52170186Y-52790186D01*
X52068729Y-52873448D01*
X52032991Y-52902778D01*
X51876466Y-52986443D01*
X51706627Y-53037963D01*
X51640442Y-53044482D01*
X51574260Y-53051000D01*
X51485740Y-53051000D01*
X51419558Y-53044482D01*
X51353373Y-53037963D01*
X51183534Y-52986443D01*
X51027009Y-52902778D01*
X50991271Y-52873448D01*
X50889814Y-52790186D01*
X50806552Y-52688729D01*
X50777222Y-52652991D01*
X50693557Y-52496466D01*
X50642037Y-52326627D01*
X50624641Y-52150000D01*
X50642037Y-51973373D01*
X50693557Y-51803534D01*
X50777222Y-51647009D01*
X50806552Y-51611271D01*
X50889814Y-51509814D01*
X50991271Y-51426552D01*
X51027009Y-51397222D01*
X51183534Y-51313557D01*
X51353373Y-51262037D01*
X51419558Y-51255518D01*
X51485740Y-51249000D01*
X51574260Y-51249000D01*
X51640443Y-51255519D01*
X51640443Y-51255519D01*
G37*
G36*
X44020443Y-51255519D02*
G01*
X44086627Y-51262037D01*
X44256466Y-51313557D01*
X44412991Y-51397222D01*
X44448729Y-51426552D01*
X44550186Y-51509814D01*
X44633448Y-51611271D01*
X44662778Y-51647009D01*
X44746443Y-51803534D01*
X44797963Y-51973373D01*
X44815359Y-52150000D01*
X44797963Y-52326627D01*
X44746443Y-52496466D01*
X44662778Y-52652991D01*
X44633448Y-52688729D01*
X44550186Y-52790186D01*
X44448729Y-52873448D01*
X44412991Y-52902778D01*
X44256466Y-52986443D01*
X44086627Y-53037963D01*
X44020442Y-53044482D01*
X43954260Y-53051000D01*
X43865740Y-53051000D01*
X43799558Y-53044482D01*
X43733373Y-53037963D01*
X43563534Y-52986443D01*
X43407009Y-52902778D01*
X43371271Y-52873448D01*
X43269814Y-52790186D01*
X43186552Y-52688729D01*
X43157222Y-52652991D01*
X43073557Y-52496466D01*
X43022037Y-52326627D01*
X43004641Y-52150000D01*
X43022037Y-51973373D01*
X43073557Y-51803534D01*
X43157222Y-51647009D01*
X43186552Y-51611271D01*
X43269814Y-51509814D01*
X43371271Y-51426552D01*
X43407009Y-51397222D01*
X43563534Y-51313557D01*
X43733373Y-51262037D01*
X43799558Y-51255518D01*
X43865740Y-51249000D01*
X43954260Y-51249000D01*
X44020443Y-51255519D01*
X44020443Y-51255519D01*
G37*
G36*
X23700443Y-51255519D02*
G01*
X23766627Y-51262037D01*
X23936466Y-51313557D01*
X24092991Y-51397222D01*
X24128729Y-51426552D01*
X24230186Y-51509814D01*
X24313448Y-51611271D01*
X24342778Y-51647009D01*
X24426443Y-51803534D01*
X24477963Y-51973373D01*
X24495359Y-52150000D01*
X24477963Y-52326627D01*
X24426443Y-52496466D01*
X24342778Y-52652991D01*
X24313448Y-52688729D01*
X24230186Y-52790186D01*
X24128729Y-52873448D01*
X24092991Y-52902778D01*
X23936466Y-52986443D01*
X23766627Y-53037963D01*
X23700442Y-53044482D01*
X23634260Y-53051000D01*
X23545740Y-53051000D01*
X23479558Y-53044482D01*
X23413373Y-53037963D01*
X23243534Y-52986443D01*
X23087009Y-52902778D01*
X23051271Y-52873448D01*
X22949814Y-52790186D01*
X22866552Y-52688729D01*
X22837222Y-52652991D01*
X22753557Y-52496466D01*
X22702037Y-52326627D01*
X22684641Y-52150000D01*
X22702037Y-51973373D01*
X22753557Y-51803534D01*
X22837222Y-51647009D01*
X22866552Y-51611271D01*
X22949814Y-51509814D01*
X23051271Y-51426552D01*
X23087009Y-51397222D01*
X23243534Y-51313557D01*
X23413373Y-51262037D01*
X23479558Y-51255518D01*
X23545740Y-51249000D01*
X23634260Y-51249000D01*
X23700443Y-51255519D01*
X23700443Y-51255519D01*
G37*
G36*
X41480443Y-51255519D02*
G01*
X41546627Y-51262037D01*
X41716466Y-51313557D01*
X41872991Y-51397222D01*
X41908729Y-51426552D01*
X42010186Y-51509814D01*
X42093448Y-51611271D01*
X42122778Y-51647009D01*
X42206443Y-51803534D01*
X42257963Y-51973373D01*
X42275359Y-52150000D01*
X42257963Y-52326627D01*
X42206443Y-52496466D01*
X42122778Y-52652991D01*
X42093448Y-52688729D01*
X42010186Y-52790186D01*
X41908729Y-52873448D01*
X41872991Y-52902778D01*
X41716466Y-52986443D01*
X41546627Y-53037963D01*
X41480442Y-53044482D01*
X41414260Y-53051000D01*
X41325740Y-53051000D01*
X41259558Y-53044482D01*
X41193373Y-53037963D01*
X41023534Y-52986443D01*
X40867009Y-52902778D01*
X40831271Y-52873448D01*
X40729814Y-52790186D01*
X40646552Y-52688729D01*
X40617222Y-52652991D01*
X40533557Y-52496466D01*
X40482037Y-52326627D01*
X40464641Y-52150000D01*
X40482037Y-51973373D01*
X40533557Y-51803534D01*
X40617222Y-51647009D01*
X40646552Y-51611271D01*
X40729814Y-51509814D01*
X40831271Y-51426552D01*
X40867009Y-51397222D01*
X41023534Y-51313557D01*
X41193373Y-51262037D01*
X41259558Y-51255518D01*
X41325740Y-51249000D01*
X41414260Y-51249000D01*
X41480443Y-51255519D01*
X41480443Y-51255519D01*
G37*
G36*
X26240443Y-51255519D02*
G01*
X26306627Y-51262037D01*
X26476466Y-51313557D01*
X26632991Y-51397222D01*
X26668729Y-51426552D01*
X26770186Y-51509814D01*
X26853448Y-51611271D01*
X26882778Y-51647009D01*
X26966443Y-51803534D01*
X27017963Y-51973373D01*
X27035359Y-52150000D01*
X27017963Y-52326627D01*
X26966443Y-52496466D01*
X26882778Y-52652991D01*
X26853448Y-52688729D01*
X26770186Y-52790186D01*
X26668729Y-52873448D01*
X26632991Y-52902778D01*
X26476466Y-52986443D01*
X26306627Y-53037963D01*
X26240442Y-53044482D01*
X26174260Y-53051000D01*
X26085740Y-53051000D01*
X26019558Y-53044482D01*
X25953373Y-53037963D01*
X25783534Y-52986443D01*
X25627009Y-52902778D01*
X25591271Y-52873448D01*
X25489814Y-52790186D01*
X25406552Y-52688729D01*
X25377222Y-52652991D01*
X25293557Y-52496466D01*
X25242037Y-52326627D01*
X25224641Y-52150000D01*
X25242037Y-51973373D01*
X25293557Y-51803534D01*
X25377222Y-51647009D01*
X25406552Y-51611271D01*
X25489814Y-51509814D01*
X25591271Y-51426552D01*
X25627009Y-51397222D01*
X25783534Y-51313557D01*
X25953373Y-51262037D01*
X26019558Y-51255518D01*
X26085740Y-51249000D01*
X26174260Y-51249000D01*
X26240443Y-51255519D01*
X26240443Y-51255519D01*
G37*
G36*
X38940443Y-51255519D02*
G01*
X39006627Y-51262037D01*
X39176466Y-51313557D01*
X39332991Y-51397222D01*
X39368729Y-51426552D01*
X39470186Y-51509814D01*
X39553448Y-51611271D01*
X39582778Y-51647009D01*
X39666443Y-51803534D01*
X39717963Y-51973373D01*
X39735359Y-52150000D01*
X39717963Y-52326627D01*
X39666443Y-52496466D01*
X39582778Y-52652991D01*
X39553448Y-52688729D01*
X39470186Y-52790186D01*
X39368729Y-52873448D01*
X39332991Y-52902778D01*
X39176466Y-52986443D01*
X39006627Y-53037963D01*
X38940442Y-53044482D01*
X38874260Y-53051000D01*
X38785740Y-53051000D01*
X38719558Y-53044482D01*
X38653373Y-53037963D01*
X38483534Y-52986443D01*
X38327009Y-52902778D01*
X38291271Y-52873448D01*
X38189814Y-52790186D01*
X38106552Y-52688729D01*
X38077222Y-52652991D01*
X37993557Y-52496466D01*
X37942037Y-52326627D01*
X37924641Y-52150000D01*
X37942037Y-51973373D01*
X37993557Y-51803534D01*
X38077222Y-51647009D01*
X38106552Y-51611271D01*
X38189814Y-51509814D01*
X38291271Y-51426552D01*
X38327009Y-51397222D01*
X38483534Y-51313557D01*
X38653373Y-51262037D01*
X38719558Y-51255518D01*
X38785740Y-51249000D01*
X38874260Y-51249000D01*
X38940443Y-51255519D01*
X38940443Y-51255519D01*
G37*
G36*
X28780443Y-51255519D02*
G01*
X28846627Y-51262037D01*
X29016466Y-51313557D01*
X29172991Y-51397222D01*
X29208729Y-51426552D01*
X29310186Y-51509814D01*
X29393448Y-51611271D01*
X29422778Y-51647009D01*
X29506443Y-51803534D01*
X29557963Y-51973373D01*
X29575359Y-52150000D01*
X29557963Y-52326627D01*
X29506443Y-52496466D01*
X29422778Y-52652991D01*
X29393448Y-52688729D01*
X29310186Y-52790186D01*
X29208729Y-52873448D01*
X29172991Y-52902778D01*
X29016466Y-52986443D01*
X28846627Y-53037963D01*
X28780442Y-53044482D01*
X28714260Y-53051000D01*
X28625740Y-53051000D01*
X28559558Y-53044482D01*
X28493373Y-53037963D01*
X28323534Y-52986443D01*
X28167009Y-52902778D01*
X28131271Y-52873448D01*
X28029814Y-52790186D01*
X27946552Y-52688729D01*
X27917222Y-52652991D01*
X27833557Y-52496466D01*
X27782037Y-52326627D01*
X27764641Y-52150000D01*
X27782037Y-51973373D01*
X27833557Y-51803534D01*
X27917222Y-51647009D01*
X27946552Y-51611271D01*
X28029814Y-51509814D01*
X28131271Y-51426552D01*
X28167009Y-51397222D01*
X28323534Y-51313557D01*
X28493373Y-51262037D01*
X28559558Y-51255518D01*
X28625740Y-51249000D01*
X28714260Y-51249000D01*
X28780443Y-51255519D01*
X28780443Y-51255519D01*
G37*
G36*
X36400443Y-51255519D02*
G01*
X36466627Y-51262037D01*
X36636466Y-51313557D01*
X36792991Y-51397222D01*
X36828729Y-51426552D01*
X36930186Y-51509814D01*
X37013448Y-51611271D01*
X37042778Y-51647009D01*
X37126443Y-51803534D01*
X37177963Y-51973373D01*
X37195359Y-52150000D01*
X37177963Y-52326627D01*
X37126443Y-52496466D01*
X37042778Y-52652991D01*
X37013448Y-52688729D01*
X36930186Y-52790186D01*
X36828729Y-52873448D01*
X36792991Y-52902778D01*
X36636466Y-52986443D01*
X36466627Y-53037963D01*
X36400442Y-53044482D01*
X36334260Y-53051000D01*
X36245740Y-53051000D01*
X36179558Y-53044482D01*
X36113373Y-53037963D01*
X35943534Y-52986443D01*
X35787009Y-52902778D01*
X35751271Y-52873448D01*
X35649814Y-52790186D01*
X35566552Y-52688729D01*
X35537222Y-52652991D01*
X35453557Y-52496466D01*
X35402037Y-52326627D01*
X35384641Y-52150000D01*
X35402037Y-51973373D01*
X35453557Y-51803534D01*
X35537222Y-51647009D01*
X35566552Y-51611271D01*
X35649814Y-51509814D01*
X35751271Y-51426552D01*
X35787009Y-51397222D01*
X35943534Y-51313557D01*
X36113373Y-51262037D01*
X36179558Y-51255518D01*
X36245740Y-51249000D01*
X36334260Y-51249000D01*
X36400443Y-51255519D01*
X36400443Y-51255519D01*
G37*
G36*
X31320443Y-51255519D02*
G01*
X31386627Y-51262037D01*
X31556466Y-51313557D01*
X31712991Y-51397222D01*
X31748729Y-51426552D01*
X31850186Y-51509814D01*
X31933448Y-51611271D01*
X31962778Y-51647009D01*
X32046443Y-51803534D01*
X32097963Y-51973373D01*
X32115359Y-52150000D01*
X32097963Y-52326627D01*
X32046443Y-52496466D01*
X31962778Y-52652991D01*
X31933448Y-52688729D01*
X31850186Y-52790186D01*
X31748729Y-52873448D01*
X31712991Y-52902778D01*
X31556466Y-52986443D01*
X31386627Y-53037963D01*
X31320442Y-53044482D01*
X31254260Y-53051000D01*
X31165740Y-53051000D01*
X31099558Y-53044482D01*
X31033373Y-53037963D01*
X30863534Y-52986443D01*
X30707009Y-52902778D01*
X30671271Y-52873448D01*
X30569814Y-52790186D01*
X30486552Y-52688729D01*
X30457222Y-52652991D01*
X30373557Y-52496466D01*
X30322037Y-52326627D01*
X30304641Y-52150000D01*
X30322037Y-51973373D01*
X30373557Y-51803534D01*
X30457222Y-51647009D01*
X30486552Y-51611271D01*
X30569814Y-51509814D01*
X30671271Y-51426552D01*
X30707009Y-51397222D01*
X30863534Y-51313557D01*
X31033373Y-51262037D01*
X31099558Y-51255518D01*
X31165740Y-51249000D01*
X31254260Y-51249000D01*
X31320443Y-51255519D01*
X31320443Y-51255519D01*
G37*
G36*
X33860443Y-51255519D02*
G01*
X33926627Y-51262037D01*
X34096466Y-51313557D01*
X34252991Y-51397222D01*
X34288729Y-51426552D01*
X34390186Y-51509814D01*
X34473448Y-51611271D01*
X34502778Y-51647009D01*
X34586443Y-51803534D01*
X34637963Y-51973373D01*
X34655359Y-52150000D01*
X34637963Y-52326627D01*
X34586443Y-52496466D01*
X34502778Y-52652991D01*
X34473448Y-52688729D01*
X34390186Y-52790186D01*
X34288729Y-52873448D01*
X34252991Y-52902778D01*
X34096466Y-52986443D01*
X33926627Y-53037963D01*
X33860442Y-53044482D01*
X33794260Y-53051000D01*
X33705740Y-53051000D01*
X33639558Y-53044482D01*
X33573373Y-53037963D01*
X33403534Y-52986443D01*
X33247009Y-52902778D01*
X33211271Y-52873448D01*
X33109814Y-52790186D01*
X33026552Y-52688729D01*
X32997222Y-52652991D01*
X32913557Y-52496466D01*
X32862037Y-52326627D01*
X32844641Y-52150000D01*
X32862037Y-51973373D01*
X32913557Y-51803534D01*
X32997222Y-51647009D01*
X33026552Y-51611271D01*
X33109814Y-51509814D01*
X33211271Y-51426552D01*
X33247009Y-51397222D01*
X33403534Y-51313557D01*
X33573373Y-51262037D01*
X33639558Y-51255518D01*
X33705740Y-51249000D01*
X33794260Y-51249000D01*
X33860443Y-51255519D01*
X33860443Y-51255519D01*
G37*
G36*
X49100443Y-51255519D02*
G01*
X49166627Y-51262037D01*
X49336466Y-51313557D01*
X49492991Y-51397222D01*
X49528729Y-51426552D01*
X49630186Y-51509814D01*
X49713448Y-51611271D01*
X49742778Y-51647009D01*
X49826443Y-51803534D01*
X49877963Y-51973373D01*
X49895359Y-52150000D01*
X49877963Y-52326627D01*
X49826443Y-52496466D01*
X49742778Y-52652991D01*
X49713448Y-52688729D01*
X49630186Y-52790186D01*
X49528729Y-52873448D01*
X49492991Y-52902778D01*
X49336466Y-52986443D01*
X49166627Y-53037963D01*
X49100442Y-53044482D01*
X49034260Y-53051000D01*
X48945740Y-53051000D01*
X48879558Y-53044482D01*
X48813373Y-53037963D01*
X48643534Y-52986443D01*
X48487009Y-52902778D01*
X48451271Y-52873448D01*
X48349814Y-52790186D01*
X48266552Y-52688729D01*
X48237222Y-52652991D01*
X48153557Y-52496466D01*
X48102037Y-52326627D01*
X48084641Y-52150000D01*
X48102037Y-51973373D01*
X48153557Y-51803534D01*
X48237222Y-51647009D01*
X48266552Y-51611271D01*
X48349814Y-51509814D01*
X48451271Y-51426552D01*
X48487009Y-51397222D01*
X48643534Y-51313557D01*
X48813373Y-51262037D01*
X48879558Y-51255518D01*
X48945740Y-51249000D01*
X49034260Y-51249000D01*
X49100443Y-51255519D01*
X49100443Y-51255519D01*
G37*
G36*
X16080443Y-51255519D02*
G01*
X16146627Y-51262037D01*
X16316466Y-51313557D01*
X16472991Y-51397222D01*
X16508729Y-51426552D01*
X16610186Y-51509814D01*
X16693448Y-51611271D01*
X16722778Y-51647009D01*
X16806443Y-51803534D01*
X16857963Y-51973373D01*
X16875359Y-52150000D01*
X16857963Y-52326627D01*
X16806443Y-52496466D01*
X16722778Y-52652991D01*
X16693448Y-52688729D01*
X16610186Y-52790186D01*
X16508729Y-52873448D01*
X16472991Y-52902778D01*
X16316466Y-52986443D01*
X16146627Y-53037963D01*
X16080442Y-53044482D01*
X16014260Y-53051000D01*
X15925740Y-53051000D01*
X15859558Y-53044482D01*
X15793373Y-53037963D01*
X15623534Y-52986443D01*
X15467009Y-52902778D01*
X15431271Y-52873448D01*
X15329814Y-52790186D01*
X15246552Y-52688729D01*
X15217222Y-52652991D01*
X15133557Y-52496466D01*
X15082037Y-52326627D01*
X15064641Y-52150000D01*
X15082037Y-51973373D01*
X15133557Y-51803534D01*
X15217222Y-51647009D01*
X15246552Y-51611271D01*
X15329814Y-51509814D01*
X15431271Y-51426552D01*
X15467009Y-51397222D01*
X15623534Y-51313557D01*
X15793373Y-51262037D01*
X15859557Y-51255519D01*
X15925740Y-51249000D01*
X16014260Y-51249000D01*
X16080443Y-51255519D01*
X16080443Y-51255519D01*
G37*
G36*
X54180443Y-51255519D02*
G01*
X54246627Y-51262037D01*
X54416466Y-51313557D01*
X54572991Y-51397222D01*
X54608729Y-51426552D01*
X54710186Y-51509814D01*
X54793448Y-51611271D01*
X54822778Y-51647009D01*
X54906443Y-51803534D01*
X54957963Y-51973373D01*
X54975359Y-52150000D01*
X54957963Y-52326627D01*
X54906443Y-52496466D01*
X54822778Y-52652991D01*
X54793448Y-52688729D01*
X54710186Y-52790186D01*
X54608729Y-52873448D01*
X54572991Y-52902778D01*
X54416466Y-52986443D01*
X54246627Y-53037963D01*
X54180442Y-53044482D01*
X54114260Y-53051000D01*
X54025740Y-53051000D01*
X53959558Y-53044482D01*
X53893373Y-53037963D01*
X53723534Y-52986443D01*
X53567009Y-52902778D01*
X53531271Y-52873448D01*
X53429814Y-52790186D01*
X53346552Y-52688729D01*
X53317222Y-52652991D01*
X53233557Y-52496466D01*
X53182037Y-52326627D01*
X53164641Y-52150000D01*
X53182037Y-51973373D01*
X53233557Y-51803534D01*
X53317222Y-51647009D01*
X53346552Y-51611271D01*
X53429814Y-51509814D01*
X53531271Y-51426552D01*
X53567009Y-51397222D01*
X53723534Y-51313557D01*
X53893373Y-51262037D01*
X53959558Y-51255518D01*
X54025740Y-51249000D01*
X54114260Y-51249000D01*
X54180443Y-51255519D01*
X54180443Y-51255519D01*
G37*
G36*
X13540443Y-51255519D02*
G01*
X13606627Y-51262037D01*
X13776466Y-51313557D01*
X13932991Y-51397222D01*
X13968729Y-51426552D01*
X14070186Y-51509814D01*
X14153448Y-51611271D01*
X14182778Y-51647009D01*
X14266443Y-51803534D01*
X14317963Y-51973373D01*
X14335359Y-52150000D01*
X14317963Y-52326627D01*
X14266443Y-52496466D01*
X14182778Y-52652991D01*
X14153448Y-52688729D01*
X14070186Y-52790186D01*
X13968729Y-52873448D01*
X13932991Y-52902778D01*
X13776466Y-52986443D01*
X13606627Y-53037963D01*
X13540442Y-53044482D01*
X13474260Y-53051000D01*
X13385740Y-53051000D01*
X13319558Y-53044482D01*
X13253373Y-53037963D01*
X13083534Y-52986443D01*
X12927009Y-52902778D01*
X12891271Y-52873448D01*
X12789814Y-52790186D01*
X12706552Y-52688729D01*
X12677222Y-52652991D01*
X12593557Y-52496466D01*
X12542037Y-52326627D01*
X12524641Y-52150000D01*
X12542037Y-51973373D01*
X12593557Y-51803534D01*
X12677222Y-51647009D01*
X12706552Y-51611271D01*
X12789814Y-51509814D01*
X12891271Y-51426552D01*
X12927009Y-51397222D01*
X13083534Y-51313557D01*
X13253373Y-51262037D01*
X13319557Y-51255519D01*
X13385740Y-51249000D01*
X13474260Y-51249000D01*
X13540443Y-51255519D01*
X13540443Y-51255519D01*
G37*
G36*
X57511000Y-53051000D02*
G01*
X55709000Y-53051000D01*
X55709000Y-51249000D01*
X57511000Y-51249000D01*
X57511000Y-53051000D01*
X57511000Y-53051000D01*
G37*
G36*
X11000443Y-51255519D02*
G01*
X11066627Y-51262037D01*
X11236466Y-51313557D01*
X11392991Y-51397222D01*
X11428729Y-51426552D01*
X11530186Y-51509814D01*
X11613448Y-51611271D01*
X11642778Y-51647009D01*
X11726443Y-51803534D01*
X11777963Y-51973373D01*
X11795359Y-52150000D01*
X11777963Y-52326627D01*
X11726443Y-52496466D01*
X11642778Y-52652991D01*
X11613448Y-52688729D01*
X11530186Y-52790186D01*
X11428729Y-52873448D01*
X11392991Y-52902778D01*
X11236466Y-52986443D01*
X11066627Y-53037963D01*
X11000442Y-53044482D01*
X10934260Y-53051000D01*
X10845740Y-53051000D01*
X10779558Y-53044482D01*
X10713373Y-53037963D01*
X10543534Y-52986443D01*
X10387009Y-52902778D01*
X10351271Y-52873448D01*
X10249814Y-52790186D01*
X10166552Y-52688729D01*
X10137222Y-52652991D01*
X10053557Y-52496466D01*
X10002037Y-52326627D01*
X9984641Y-52150000D01*
X10002037Y-51973373D01*
X10053557Y-51803534D01*
X10137222Y-51647009D01*
X10166552Y-51611271D01*
X10249814Y-51509814D01*
X10351271Y-51426552D01*
X10387009Y-51397222D01*
X10543534Y-51313557D01*
X10713373Y-51262037D01*
X10779557Y-51255519D01*
X10845740Y-51249000D01*
X10934260Y-51249000D01*
X11000443Y-51255519D01*
X11000443Y-51255519D01*
G37*
G36*
X8460443Y-51255519D02*
G01*
X8526627Y-51262037D01*
X8696466Y-51313557D01*
X8852991Y-51397222D01*
X8888729Y-51426552D01*
X8990186Y-51509814D01*
X9073448Y-51611271D01*
X9102778Y-51647009D01*
X9186443Y-51803534D01*
X9237963Y-51973373D01*
X9255359Y-52150000D01*
X9237963Y-52326627D01*
X9186443Y-52496466D01*
X9102778Y-52652991D01*
X9073448Y-52688729D01*
X8990186Y-52790186D01*
X8888729Y-52873448D01*
X8852991Y-52902778D01*
X8696466Y-52986443D01*
X8526627Y-53037963D01*
X8460442Y-53044482D01*
X8394260Y-53051000D01*
X8305740Y-53051000D01*
X8239558Y-53044482D01*
X8173373Y-53037963D01*
X8003534Y-52986443D01*
X7847009Y-52902778D01*
X7811271Y-52873448D01*
X7709814Y-52790186D01*
X7626552Y-52688729D01*
X7597222Y-52652991D01*
X7513557Y-52496466D01*
X7462037Y-52326627D01*
X7444641Y-52150000D01*
X7462037Y-51973373D01*
X7513557Y-51803534D01*
X7597222Y-51647009D01*
X7626552Y-51611271D01*
X7709814Y-51509814D01*
X7811271Y-51426552D01*
X7847009Y-51397222D01*
X8003534Y-51313557D01*
X8173373Y-51262037D01*
X8239557Y-51255519D01*
X8305740Y-51249000D01*
X8394260Y-51249000D01*
X8460443Y-51255519D01*
X8460443Y-51255519D01*
G37*
G36*
X18620443Y-51255519D02*
G01*
X18686627Y-51262037D01*
X18856466Y-51313557D01*
X19012991Y-51397222D01*
X19048729Y-51426552D01*
X19150186Y-51509814D01*
X19233448Y-51611271D01*
X19262778Y-51647009D01*
X19346443Y-51803534D01*
X19397963Y-51973373D01*
X19415359Y-52150000D01*
X19397963Y-52326627D01*
X19346443Y-52496466D01*
X19262778Y-52652991D01*
X19233448Y-52688729D01*
X19150186Y-52790186D01*
X19048729Y-52873448D01*
X19012991Y-52902778D01*
X18856466Y-52986443D01*
X18686627Y-53037963D01*
X18620442Y-53044482D01*
X18554260Y-53051000D01*
X18465740Y-53051000D01*
X18399558Y-53044482D01*
X18333373Y-53037963D01*
X18163534Y-52986443D01*
X18007009Y-52902778D01*
X17971271Y-52873448D01*
X17869814Y-52790186D01*
X17786552Y-52688729D01*
X17757222Y-52652991D01*
X17673557Y-52496466D01*
X17622037Y-52326627D01*
X17604641Y-52150000D01*
X17622037Y-51973373D01*
X17673557Y-51803534D01*
X17757222Y-51647009D01*
X17786552Y-51611271D01*
X17869814Y-51509814D01*
X17971271Y-51426552D01*
X18007009Y-51397222D01*
X18163534Y-51313557D01*
X18333373Y-51262037D01*
X18399558Y-51255518D01*
X18465740Y-51249000D01*
X18554260Y-51249000D01*
X18620443Y-51255519D01*
X18620443Y-51255519D01*
G37*
G36*
X46560443Y-51255519D02*
G01*
X46626627Y-51262037D01*
X46796466Y-51313557D01*
X46952991Y-51397222D01*
X46988729Y-51426552D01*
X47090186Y-51509814D01*
X47173448Y-51611271D01*
X47202778Y-51647009D01*
X47286443Y-51803534D01*
X47337963Y-51973373D01*
X47355359Y-52150000D01*
X47337963Y-52326627D01*
X47286443Y-52496466D01*
X47202778Y-52652991D01*
X47173448Y-52688729D01*
X47090186Y-52790186D01*
X46988729Y-52873448D01*
X46952991Y-52902778D01*
X46796466Y-52986443D01*
X46626627Y-53037963D01*
X46560442Y-53044482D01*
X46494260Y-53051000D01*
X46405740Y-53051000D01*
X46339558Y-53044482D01*
X46273373Y-53037963D01*
X46103534Y-52986443D01*
X45947009Y-52902778D01*
X45911271Y-52873448D01*
X45809814Y-52790186D01*
X45726552Y-52688729D01*
X45697222Y-52652991D01*
X45613557Y-52496466D01*
X45562037Y-52326627D01*
X45544641Y-52150000D01*
X45562037Y-51973373D01*
X45613557Y-51803534D01*
X45697222Y-51647009D01*
X45726552Y-51611271D01*
X45809814Y-51509814D01*
X45911271Y-51426552D01*
X45947009Y-51397222D01*
X46103534Y-51313557D01*
X46273373Y-51262037D01*
X46339558Y-51255518D01*
X46405740Y-51249000D01*
X46494260Y-51249000D01*
X46560443Y-51255519D01*
X46560443Y-51255519D01*
G37*
G36*
X67926442Y-49197518D02*
G01*
X67992627Y-49204037D01*
X68162466Y-49255557D01*
X68318991Y-49339222D01*
X68354729Y-49368552D01*
X68456186Y-49451814D01*
X68539448Y-49553271D01*
X68568778Y-49589009D01*
X68652443Y-49745534D01*
X68703963Y-49915373D01*
X68721359Y-50092000D01*
X68703963Y-50268627D01*
X68652443Y-50438466D01*
X68568778Y-50594991D01*
X68539448Y-50630729D01*
X68456186Y-50732186D01*
X68354729Y-50815448D01*
X68318991Y-50844778D01*
X68162466Y-50928443D01*
X67992627Y-50979963D01*
X67926443Y-50986481D01*
X67860260Y-50993000D01*
X67521740Y-50993000D01*
X67455557Y-50986481D01*
X67389373Y-50979963D01*
X67219534Y-50928443D01*
X67063009Y-50844778D01*
X67027271Y-50815448D01*
X66925814Y-50732186D01*
X66842552Y-50630729D01*
X66813222Y-50594991D01*
X66729557Y-50438466D01*
X66678037Y-50268627D01*
X66660641Y-50092000D01*
X66678037Y-49915373D01*
X66729557Y-49745534D01*
X66813222Y-49589009D01*
X66842552Y-49553271D01*
X66925814Y-49451814D01*
X67027271Y-49368552D01*
X67063009Y-49339222D01*
X67219534Y-49255557D01*
X67389373Y-49204037D01*
X67455557Y-49197519D01*
X67521740Y-49191000D01*
X67860260Y-49191000D01*
X67926442Y-49197518D01*
X67926442Y-49197518D01*
G37*
G36*
X72864025Y-49191000D02*
G01*
X72945627Y-49199037D01*
X73115466Y-49250557D01*
X73271991Y-49334222D01*
X73278082Y-49339221D01*
X73409186Y-49446814D01*
X73492448Y-49548271D01*
X73521778Y-49584009D01*
X73605443Y-49740534D01*
X73656963Y-49910373D01*
X73674359Y-50087000D01*
X73656963Y-50263627D01*
X73605443Y-50433466D01*
X73521778Y-50589991D01*
X73492448Y-50625729D01*
X73409186Y-50727186D01*
X73307729Y-50810448D01*
X73271991Y-50839778D01*
X73115466Y-50923443D01*
X72945627Y-50974963D01*
X72894860Y-50979963D01*
X72813260Y-50988000D01*
X72474740Y-50988000D01*
X72393140Y-50979963D01*
X72342373Y-50974963D01*
X72172534Y-50923443D01*
X72016009Y-50839778D01*
X71980271Y-50810448D01*
X71878814Y-50727186D01*
X71795552Y-50625729D01*
X71766222Y-50589991D01*
X71682557Y-50433466D01*
X71631037Y-50263627D01*
X71613641Y-50087000D01*
X71631037Y-49910373D01*
X71682557Y-49740534D01*
X71766222Y-49584009D01*
X71795552Y-49548271D01*
X71878814Y-49446814D01*
X72009918Y-49339221D01*
X72016009Y-49334222D01*
X72172534Y-49250557D01*
X72342373Y-49199037D01*
X72423975Y-49191000D01*
X72474740Y-49186000D01*
X72813260Y-49186000D01*
X72864025Y-49191000D01*
X72864025Y-49191000D01*
G37*
G36*
X15623627Y-47120037D02*
G01*
X15793466Y-47171557D01*
X15949991Y-47255222D01*
X15985729Y-47284552D01*
X16087186Y-47367814D01*
X16157701Y-47453738D01*
X16199778Y-47505009D01*
X16283443Y-47661534D01*
X16334963Y-47831374D01*
X16334963Y-47831376D01*
X16345511Y-47938466D01*
X16348000Y-47963743D01*
X16348000Y-48302258D01*
X16334963Y-48434627D01*
X16283443Y-48604466D01*
X16199778Y-48760991D01*
X16178430Y-48787003D01*
X16087186Y-48898186D01*
X15949989Y-49010779D01*
X15793467Y-49094442D01*
X15793465Y-49094443D01*
X15623626Y-49145963D01*
X15447000Y-49163359D01*
X15270373Y-49145963D01*
X15100534Y-49094443D01*
X14944009Y-49010778D01*
X14901750Y-48976097D01*
X14806814Y-48898186D01*
X14694221Y-48760989D01*
X14610558Y-48604467D01*
X14572790Y-48479963D01*
X14559037Y-48434626D01*
X14550188Y-48344778D01*
X14546000Y-48302259D01*
X14546000Y-47963740D01*
X14559037Y-47831375D01*
X14559037Y-47831373D01*
X14610557Y-47661534D01*
X14694222Y-47505009D01*
X14806815Y-47367815D01*
X14944010Y-47255222D01*
X15100535Y-47171557D01*
X15270374Y-47120037D01*
X15447000Y-47102641D01*
X15623627Y-47120037D01*
X15623627Y-47120037D01*
G37*
G36*
X13123627Y-47120037D02*
G01*
X13293466Y-47171557D01*
X13449991Y-47255222D01*
X13485729Y-47284552D01*
X13587186Y-47367814D01*
X13657701Y-47453738D01*
X13699778Y-47505009D01*
X13783443Y-47661534D01*
X13834963Y-47831374D01*
X13834963Y-47831376D01*
X13845511Y-47938466D01*
X13848000Y-47963743D01*
X13848000Y-48302258D01*
X13834963Y-48434627D01*
X13783443Y-48604466D01*
X13699778Y-48760991D01*
X13678430Y-48787003D01*
X13587186Y-48898186D01*
X13449989Y-49010779D01*
X13293467Y-49094442D01*
X13293465Y-49094443D01*
X13123626Y-49145963D01*
X12947000Y-49163359D01*
X12770373Y-49145963D01*
X12600534Y-49094443D01*
X12444009Y-49010778D01*
X12401750Y-48976097D01*
X12306814Y-48898186D01*
X12194221Y-48760989D01*
X12110558Y-48604467D01*
X12072790Y-48479963D01*
X12059037Y-48434626D01*
X12050188Y-48344778D01*
X12046000Y-48302259D01*
X12046000Y-47963740D01*
X12059037Y-47831375D01*
X12059037Y-47831373D01*
X12110557Y-47661534D01*
X12194222Y-47505009D01*
X12306815Y-47367815D01*
X12444010Y-47255222D01*
X12600535Y-47171557D01*
X12770374Y-47120037D01*
X12947000Y-47102641D01*
X13123627Y-47120037D01*
X13123627Y-47120037D01*
G37*
G36*
X8123627Y-47120037D02*
G01*
X8293466Y-47171557D01*
X8449991Y-47255222D01*
X8485729Y-47284552D01*
X8587186Y-47367814D01*
X8657701Y-47453738D01*
X8699778Y-47505009D01*
X8783443Y-47661534D01*
X8834963Y-47831374D01*
X8834963Y-47831376D01*
X8845511Y-47938466D01*
X8848000Y-47963743D01*
X8848000Y-48302258D01*
X8834963Y-48434627D01*
X8783443Y-48604466D01*
X8699778Y-48760991D01*
X8678430Y-48787003D01*
X8587186Y-48898186D01*
X8449989Y-49010779D01*
X8293467Y-49094442D01*
X8293465Y-49094443D01*
X8123626Y-49145963D01*
X7947000Y-49163359D01*
X7770373Y-49145963D01*
X7600534Y-49094443D01*
X7444009Y-49010778D01*
X7401750Y-48976097D01*
X7306814Y-48898186D01*
X7194221Y-48760989D01*
X7110558Y-48604467D01*
X7072790Y-48479963D01*
X7059037Y-48434626D01*
X7050188Y-48344778D01*
X7046000Y-48302259D01*
X7046000Y-47963740D01*
X7059037Y-47831375D01*
X7059037Y-47831373D01*
X7110557Y-47661534D01*
X7194222Y-47505009D01*
X7306815Y-47367815D01*
X7444010Y-47255222D01*
X7600535Y-47171557D01*
X7770374Y-47120037D01*
X7947000Y-47102641D01*
X8123627Y-47120037D01*
X8123627Y-47120037D01*
G37*
G36*
X10623627Y-47120037D02*
G01*
X10793466Y-47171557D01*
X10949991Y-47255222D01*
X10985729Y-47284552D01*
X11087186Y-47367814D01*
X11157701Y-47453738D01*
X11199778Y-47505009D01*
X11283443Y-47661534D01*
X11334963Y-47831374D01*
X11334963Y-47831376D01*
X11345511Y-47938466D01*
X11348000Y-47963743D01*
X11348000Y-48302258D01*
X11334963Y-48434627D01*
X11283443Y-48604466D01*
X11199778Y-48760991D01*
X11178430Y-48787003D01*
X11087186Y-48898186D01*
X10949989Y-49010779D01*
X10793467Y-49094442D01*
X10793465Y-49094443D01*
X10623626Y-49145963D01*
X10447000Y-49163359D01*
X10270373Y-49145963D01*
X10100534Y-49094443D01*
X9944009Y-49010778D01*
X9901750Y-48976097D01*
X9806814Y-48898186D01*
X9694221Y-48760989D01*
X9610558Y-48604467D01*
X9572790Y-48479963D01*
X9559037Y-48434626D01*
X9550188Y-48344778D01*
X9546000Y-48302259D01*
X9546000Y-47963740D01*
X9559037Y-47831375D01*
X9559037Y-47831373D01*
X9610557Y-47661534D01*
X9694222Y-47505009D01*
X9806815Y-47367815D01*
X9944010Y-47255222D01*
X10100535Y-47171557D01*
X10270374Y-47120037D01*
X10447000Y-47102641D01*
X10623627Y-47120037D01*
X10623627Y-47120037D01*
G37*
G36*
X18123627Y-47120037D02*
G01*
X18293466Y-47171557D01*
X18449991Y-47255222D01*
X18485729Y-47284552D01*
X18587186Y-47367814D01*
X18657701Y-47453738D01*
X18699778Y-47505009D01*
X18783443Y-47661534D01*
X18834963Y-47831374D01*
X18834963Y-47831376D01*
X18845511Y-47938466D01*
X18848000Y-47963743D01*
X18848000Y-48302258D01*
X18834963Y-48434627D01*
X18783443Y-48604466D01*
X18699778Y-48760991D01*
X18678430Y-48787003D01*
X18587186Y-48898186D01*
X18449989Y-49010779D01*
X18293467Y-49094442D01*
X18293465Y-49094443D01*
X18123626Y-49145963D01*
X17947000Y-49163359D01*
X17770373Y-49145963D01*
X17600534Y-49094443D01*
X17444009Y-49010778D01*
X17401750Y-48976097D01*
X17306814Y-48898186D01*
X17194221Y-48760989D01*
X17110558Y-48604467D01*
X17072790Y-48479963D01*
X17059037Y-48434626D01*
X17050188Y-48344778D01*
X17046000Y-48302259D01*
X17046000Y-47963740D01*
X17059037Y-47831375D01*
X17059037Y-47831373D01*
X17110557Y-47661534D01*
X17194222Y-47505009D01*
X17306815Y-47367815D01*
X17444010Y-47255222D01*
X17600535Y-47171557D01*
X17770374Y-47120037D01*
X17947000Y-47102641D01*
X18123627Y-47120037D01*
X18123627Y-47120037D01*
G37*
G36*
X21205600Y-47110989D02*
G01*
X21238652Y-47121015D01*
X21269103Y-47137292D01*
X21295799Y-47159201D01*
X21317708Y-47185897D01*
X21333985Y-47216348D01*
X21344011Y-47249400D01*
X21348000Y-47289903D01*
X21348000Y-48976097D01*
X21344011Y-49016600D01*
X21333985Y-49049652D01*
X21317708Y-49080103D01*
X21295799Y-49106799D01*
X21269103Y-49128708D01*
X21238652Y-49144985D01*
X21205600Y-49155011D01*
X21165097Y-49159000D01*
X19728903Y-49159000D01*
X19688400Y-49155011D01*
X19655348Y-49144985D01*
X19624897Y-49128708D01*
X19598201Y-49106799D01*
X19576292Y-49080103D01*
X19560015Y-49049652D01*
X19549989Y-49016600D01*
X19546000Y-48976097D01*
X19546000Y-47289903D01*
X19549989Y-47249400D01*
X19560015Y-47216348D01*
X19576292Y-47185897D01*
X19598201Y-47159201D01*
X19624897Y-47137292D01*
X19655348Y-47121015D01*
X19688400Y-47110989D01*
X19728903Y-47107000D01*
X21165097Y-47107000D01*
X21205600Y-47110989D01*
X21205600Y-47110989D01*
G37*
G36*
X64115928Y-48165764D02*
G01*
X64137009Y-48172160D01*
X64156445Y-48182548D01*
X64173476Y-48196524D01*
X64187452Y-48213555D01*
X64197840Y-48232991D01*
X64204236Y-48254072D01*
X64207000Y-48282140D01*
X64207000Y-48745860D01*
X64204236Y-48773928D01*
X64197840Y-48795009D01*
X64187452Y-48814445D01*
X64173476Y-48831476D01*
X64156445Y-48845452D01*
X64137009Y-48855840D01*
X64115928Y-48862236D01*
X64087860Y-48865000D01*
X62274140Y-48865000D01*
X62246072Y-48862236D01*
X62224991Y-48855840D01*
X62205555Y-48845452D01*
X62188524Y-48831476D01*
X62174548Y-48814445D01*
X62164160Y-48795009D01*
X62157764Y-48773928D01*
X62155000Y-48745860D01*
X62155000Y-48282140D01*
X62157764Y-48254072D01*
X62164160Y-48232991D01*
X62174548Y-48213555D01*
X62188524Y-48196524D01*
X62205555Y-48182548D01*
X62224991Y-48172160D01*
X62246072Y-48165764D01*
X62274140Y-48163000D01*
X64087860Y-48163000D01*
X64115928Y-48165764D01*
X64115928Y-48165764D01*
G37*
G36*
X59165928Y-48165764D02*
G01*
X59187009Y-48172160D01*
X59206445Y-48182548D01*
X59223476Y-48196524D01*
X59237452Y-48213555D01*
X59247840Y-48232991D01*
X59254236Y-48254072D01*
X59257000Y-48282140D01*
X59257000Y-48745860D01*
X59254236Y-48773928D01*
X59247840Y-48795009D01*
X59237452Y-48814445D01*
X59223476Y-48831476D01*
X59206445Y-48845452D01*
X59187009Y-48855840D01*
X59165928Y-48862236D01*
X59137860Y-48865000D01*
X57324140Y-48865000D01*
X57296072Y-48862236D01*
X57274991Y-48855840D01*
X57255555Y-48845452D01*
X57238524Y-48831476D01*
X57224548Y-48814445D01*
X57214160Y-48795009D01*
X57207764Y-48773928D01*
X57205000Y-48745860D01*
X57205000Y-48282140D01*
X57207764Y-48254072D01*
X57214160Y-48232991D01*
X57224548Y-48213555D01*
X57238524Y-48196524D01*
X57255555Y-48182548D01*
X57274991Y-48172160D01*
X57296072Y-48165764D01*
X57324140Y-48163000D01*
X59137860Y-48163000D01*
X59165928Y-48165764D01*
X59165928Y-48165764D01*
G37*
G36*
X67926443Y-46697519D02*
G01*
X67992627Y-46704037D01*
X68162466Y-46755557D01*
X68318991Y-46839222D01*
X68354729Y-46868552D01*
X68456186Y-46951814D01*
X68523848Y-47034262D01*
X68568778Y-47089009D01*
X68578394Y-47107000D01*
X68641347Y-47224774D01*
X68652443Y-47245534D01*
X68703963Y-47415373D01*
X68721359Y-47592000D01*
X68703963Y-47768627D01*
X68652443Y-47938466D01*
X68568778Y-48094991D01*
X68539448Y-48130729D01*
X68456186Y-48232186D01*
X68370799Y-48302260D01*
X68318991Y-48344778D01*
X68162466Y-48428443D01*
X67992627Y-48479963D01*
X67926443Y-48486481D01*
X67860260Y-48493000D01*
X67521740Y-48493000D01*
X67455557Y-48486481D01*
X67389373Y-48479963D01*
X67219534Y-48428443D01*
X67063009Y-48344778D01*
X67011201Y-48302260D01*
X66925814Y-48232186D01*
X66842552Y-48130729D01*
X66813222Y-48094991D01*
X66729557Y-47938466D01*
X66678037Y-47768627D01*
X66660641Y-47592000D01*
X66678037Y-47415373D01*
X66729557Y-47245534D01*
X66740654Y-47224774D01*
X66803606Y-47107000D01*
X66813222Y-47089009D01*
X66858152Y-47034262D01*
X66925814Y-46951814D01*
X67027271Y-46868552D01*
X67063009Y-46839222D01*
X67219534Y-46755557D01*
X67389373Y-46704037D01*
X67455557Y-46697519D01*
X67521740Y-46691000D01*
X67860260Y-46691000D01*
X67926443Y-46697519D01*
X67926443Y-46697519D01*
G37*
G36*
X72864025Y-46691000D02*
G01*
X72945627Y-46699037D01*
X73115466Y-46750557D01*
X73271991Y-46834222D01*
X73278082Y-46839221D01*
X73409186Y-46946814D01*
X73492448Y-47048271D01*
X73521778Y-47084009D01*
X73605443Y-47240534D01*
X73656963Y-47410373D01*
X73674359Y-47587000D01*
X73656963Y-47763627D01*
X73605443Y-47933466D01*
X73605442Y-47933468D01*
X73563610Y-48011729D01*
X73521778Y-48089991D01*
X73492448Y-48125729D01*
X73409186Y-48227186D01*
X73315267Y-48304262D01*
X73271991Y-48339778D01*
X73115466Y-48423443D01*
X72945627Y-48474963D01*
X72894860Y-48479963D01*
X72813260Y-48488000D01*
X72474740Y-48488000D01*
X72393140Y-48479963D01*
X72342373Y-48474963D01*
X72172534Y-48423443D01*
X72016009Y-48339778D01*
X71972733Y-48304262D01*
X71878814Y-48227186D01*
X71795552Y-48125729D01*
X71766222Y-48089991D01*
X71724390Y-48011729D01*
X71682558Y-47933468D01*
X71682557Y-47933466D01*
X71631037Y-47763627D01*
X71613641Y-47587000D01*
X71631037Y-47410373D01*
X71682557Y-47240534D01*
X71766222Y-47084009D01*
X71795552Y-47048271D01*
X71878814Y-46946814D01*
X72009918Y-46839221D01*
X72016009Y-46834222D01*
X72172534Y-46750557D01*
X72342373Y-46699037D01*
X72423975Y-46691000D01*
X72474740Y-46686000D01*
X72813260Y-46686000D01*
X72864025Y-46691000D01*
X72864025Y-46691000D01*
G37*
G36*
X50402142Y-46793242D02*
G01*
X50550101Y-46854529D01*
X50683255Y-46943499D01*
X50796501Y-47056745D01*
X50885471Y-47189899D01*
X50946758Y-47337858D01*
X50978000Y-47494925D01*
X50978000Y-47655075D01*
X50946758Y-47812142D01*
X50885471Y-47960101D01*
X50796501Y-48093255D01*
X50683255Y-48206501D01*
X50550101Y-48295471D01*
X50402142Y-48356758D01*
X50245075Y-48388000D01*
X50084925Y-48388000D01*
X49927858Y-48356758D01*
X49779899Y-48295471D01*
X49646745Y-48206501D01*
X49533499Y-48093255D01*
X49444529Y-47960101D01*
X49383242Y-47812142D01*
X49352000Y-47655075D01*
X49352000Y-47494925D01*
X49383242Y-47337858D01*
X49444529Y-47189899D01*
X49533499Y-47056745D01*
X49646745Y-46943499D01*
X49779899Y-46854529D01*
X49927858Y-46793242D01*
X50084925Y-46762000D01*
X50245075Y-46762000D01*
X50402142Y-46793242D01*
X50402142Y-46793242D01*
G37*
G36*
X59165928Y-46895764D02*
G01*
X59187009Y-46902160D01*
X59206445Y-46912548D01*
X59223476Y-46926524D01*
X59237452Y-46943555D01*
X59247840Y-46962991D01*
X59254236Y-46984072D01*
X59257000Y-47012140D01*
X59257000Y-47475860D01*
X59254236Y-47503928D01*
X59247840Y-47525009D01*
X59237452Y-47544445D01*
X59223476Y-47561476D01*
X59206445Y-47575452D01*
X59187009Y-47585840D01*
X59165928Y-47592236D01*
X59137860Y-47595000D01*
X57324140Y-47595000D01*
X57296072Y-47592236D01*
X57274991Y-47585840D01*
X57255555Y-47575452D01*
X57238524Y-47561476D01*
X57224548Y-47544445D01*
X57214160Y-47525009D01*
X57207764Y-47503928D01*
X57205000Y-47475860D01*
X57205000Y-47012140D01*
X57207764Y-46984072D01*
X57214160Y-46962991D01*
X57224548Y-46943555D01*
X57238524Y-46926524D01*
X57255555Y-46912548D01*
X57274991Y-46902160D01*
X57296072Y-46895764D01*
X57324140Y-46893000D01*
X59137860Y-46893000D01*
X59165928Y-46895764D01*
X59165928Y-46895764D01*
G37*
G36*
X64115928Y-46895764D02*
G01*
X64137009Y-46902160D01*
X64156445Y-46912548D01*
X64173476Y-46926524D01*
X64187452Y-46943555D01*
X64197840Y-46962991D01*
X64204236Y-46984072D01*
X64207000Y-47012140D01*
X64207000Y-47475860D01*
X64204236Y-47503928D01*
X64197840Y-47525009D01*
X64187452Y-47544445D01*
X64173476Y-47561476D01*
X64156445Y-47575452D01*
X64137009Y-47585840D01*
X64115928Y-47592236D01*
X64087860Y-47595000D01*
X62274140Y-47595000D01*
X62246072Y-47592236D01*
X62224991Y-47585840D01*
X62205555Y-47575452D01*
X62188524Y-47561476D01*
X62174548Y-47544445D01*
X62164160Y-47525009D01*
X62157764Y-47503928D01*
X62155000Y-47475860D01*
X62155000Y-47012140D01*
X62157764Y-46984072D01*
X62164160Y-46962991D01*
X62174548Y-46943555D01*
X62188524Y-46926524D01*
X62205555Y-46912548D01*
X62224991Y-46902160D01*
X62246072Y-46895764D01*
X62274140Y-46893000D01*
X64087860Y-46893000D01*
X64115928Y-46895764D01*
X64115928Y-46895764D01*
G37*
G36*
X64115928Y-45625764D02*
G01*
X64137009Y-45632160D01*
X64156445Y-45642548D01*
X64173476Y-45656524D01*
X64187452Y-45673555D01*
X64197840Y-45692991D01*
X64204236Y-45714072D01*
X64207000Y-45742140D01*
X64207000Y-46205860D01*
X64204236Y-46233928D01*
X64197840Y-46255009D01*
X64187452Y-46274445D01*
X64173476Y-46291476D01*
X64156445Y-46305452D01*
X64137009Y-46315840D01*
X64115928Y-46322236D01*
X64087860Y-46325000D01*
X62274140Y-46325000D01*
X62246072Y-46322236D01*
X62224991Y-46315840D01*
X62205555Y-46305452D01*
X62188524Y-46291476D01*
X62174548Y-46274445D01*
X62164160Y-46255009D01*
X62157764Y-46233928D01*
X62155000Y-46205860D01*
X62155000Y-45742140D01*
X62157764Y-45714072D01*
X62164160Y-45692991D01*
X62174548Y-45673555D01*
X62188524Y-45656524D01*
X62205555Y-45642548D01*
X62224991Y-45632160D01*
X62246072Y-45625764D01*
X62274140Y-45623000D01*
X64087860Y-45623000D01*
X64115928Y-45625764D01*
X64115928Y-45625764D01*
G37*
G36*
X59165928Y-45625764D02*
G01*
X59187009Y-45632160D01*
X59206445Y-45642548D01*
X59223476Y-45656524D01*
X59237452Y-45673555D01*
X59247840Y-45692991D01*
X59254236Y-45714072D01*
X59257000Y-45742140D01*
X59257000Y-46205860D01*
X59254236Y-46233928D01*
X59247840Y-46255009D01*
X59237452Y-46274445D01*
X59223476Y-46291476D01*
X59206445Y-46305452D01*
X59187009Y-46315840D01*
X59165928Y-46322236D01*
X59137860Y-46325000D01*
X57324140Y-46325000D01*
X57296072Y-46322236D01*
X57274991Y-46315840D01*
X57255555Y-46305452D01*
X57238524Y-46291476D01*
X57224548Y-46274445D01*
X57214160Y-46255009D01*
X57207764Y-46233928D01*
X57205000Y-46205860D01*
X57205000Y-45742140D01*
X57207764Y-45714072D01*
X57214160Y-45692991D01*
X57224548Y-45673555D01*
X57238524Y-45656524D01*
X57255555Y-45642548D01*
X57274991Y-45632160D01*
X57296072Y-45625764D01*
X57324140Y-45623000D01*
X59137860Y-45623000D01*
X59165928Y-45625764D01*
X59165928Y-45625764D01*
G37*
G36*
X37399222Y-22230468D02*
G01*
X38815147Y-22512113D01*
X41008289Y-23420542D01*
X42982065Y-24739377D01*
X44660623Y-26417935D01*
X45979458Y-28391711D01*
X46887887Y-30584853D01*
X47027406Y-31286262D01*
X47351000Y-32913079D01*
X47351000Y-35286921D01*
X47287611Y-35605597D01*
X46887887Y-37615147D01*
X45979458Y-39808289D01*
X44660623Y-41782065D01*
X42982065Y-43460623D01*
X41008289Y-44779458D01*
X38815147Y-45687887D01*
X38051539Y-45839778D01*
X36486921Y-46151000D01*
X34113079Y-46151000D01*
X32548461Y-45839778D01*
X31784853Y-45687887D01*
X29591711Y-44779458D01*
X27617935Y-43460623D01*
X25939377Y-41782065D01*
X24620542Y-39808289D01*
X23712113Y-37615147D01*
X23312389Y-35605597D01*
X23249000Y-35286921D01*
X23249000Y-32913079D01*
X23572594Y-31286262D01*
X23712113Y-30584853D01*
X24620542Y-28391711D01*
X25939377Y-26417935D01*
X27617935Y-24739377D01*
X29591711Y-23420542D01*
X31784853Y-22512113D01*
X33200778Y-22230468D01*
X34113079Y-22049000D01*
X36486921Y-22049000D01*
X37399222Y-22230468D01*
X37399222Y-22230468D01*
G37*
G36*
X67926442Y-44197518D02*
G01*
X67992627Y-44204037D01*
X68162466Y-44255557D01*
X68318991Y-44339222D01*
X68335779Y-44353000D01*
X68456186Y-44451814D01*
X68539448Y-44553271D01*
X68568778Y-44589009D01*
X68652443Y-44745534D01*
X68703963Y-44915373D01*
X68721359Y-45092000D01*
X68703963Y-45268627D01*
X68652443Y-45438466D01*
X68568778Y-45594991D01*
X68545791Y-45623000D01*
X68456186Y-45732186D01*
X68375381Y-45798500D01*
X68318991Y-45844778D01*
X68162466Y-45928443D01*
X67992627Y-45979963D01*
X67926442Y-45986482D01*
X67860260Y-45993000D01*
X67521740Y-45993000D01*
X67455558Y-45986482D01*
X67389373Y-45979963D01*
X67219534Y-45928443D01*
X67063009Y-45844778D01*
X67006619Y-45798500D01*
X66925814Y-45732186D01*
X66836209Y-45623000D01*
X66813222Y-45594991D01*
X66729557Y-45438466D01*
X66678037Y-45268627D01*
X66660641Y-45092000D01*
X66678037Y-44915373D01*
X66729557Y-44745534D01*
X66813222Y-44589009D01*
X66842552Y-44553271D01*
X66925814Y-44451814D01*
X67046221Y-44353000D01*
X67063009Y-44339222D01*
X67219534Y-44255557D01*
X67389373Y-44204037D01*
X67455558Y-44197518D01*
X67521740Y-44191000D01*
X67860260Y-44191000D01*
X67926442Y-44197518D01*
X67926442Y-44197518D01*
G37*
G36*
X72864025Y-44191000D02*
G01*
X72945627Y-44199037D01*
X73115466Y-44250557D01*
X73271991Y-44334222D01*
X73306033Y-44362160D01*
X73409186Y-44446814D01*
X73471907Y-44523241D01*
X73521778Y-44584009D01*
X73605443Y-44740534D01*
X73656963Y-44910373D01*
X73674359Y-45087000D01*
X73656963Y-45263627D01*
X73605443Y-45433466D01*
X73521778Y-45589991D01*
X73494688Y-45623000D01*
X73409186Y-45727186D01*
X73322288Y-45798500D01*
X73271991Y-45839778D01*
X73115466Y-45923443D01*
X72945627Y-45974963D01*
X72894860Y-45979963D01*
X72813260Y-45988000D01*
X72474740Y-45988000D01*
X72393140Y-45979963D01*
X72342373Y-45974963D01*
X72172534Y-45923443D01*
X72016009Y-45839778D01*
X71965712Y-45798500D01*
X71878814Y-45727186D01*
X71793312Y-45623000D01*
X71766222Y-45589991D01*
X71682557Y-45433466D01*
X71631037Y-45263627D01*
X71613641Y-45087000D01*
X71631037Y-44910373D01*
X71682557Y-44740534D01*
X71766222Y-44584009D01*
X71816093Y-44523241D01*
X71878814Y-44446814D01*
X71981967Y-44362160D01*
X72016009Y-44334222D01*
X72172534Y-44250557D01*
X72342373Y-44199037D01*
X72423975Y-44191000D01*
X72474740Y-44186000D01*
X72813260Y-44186000D01*
X72864025Y-44191000D01*
X72864025Y-44191000D01*
G37*
G36*
X50402142Y-44253242D02*
G01*
X50550101Y-44314529D01*
X50683255Y-44403499D01*
X50796501Y-44516745D01*
X50885471Y-44649899D01*
X50946758Y-44797858D01*
X50978000Y-44954925D01*
X50978000Y-45115075D01*
X50946758Y-45272142D01*
X50885471Y-45420101D01*
X50796501Y-45553255D01*
X50683255Y-45666501D01*
X50550101Y-45755471D01*
X50402142Y-45816758D01*
X50245075Y-45848000D01*
X50084925Y-45848000D01*
X49927858Y-45816758D01*
X49779899Y-45755471D01*
X49646745Y-45666501D01*
X49533499Y-45553255D01*
X49444529Y-45420101D01*
X49383242Y-45272142D01*
X49352000Y-45115075D01*
X49352000Y-44954925D01*
X49383242Y-44797858D01*
X49444529Y-44649899D01*
X49533499Y-44516745D01*
X49646745Y-44403499D01*
X49779899Y-44314529D01*
X49927858Y-44253242D01*
X50084925Y-44222000D01*
X50245075Y-44222000D01*
X50402142Y-44253242D01*
X50402142Y-44253242D01*
G37*
G36*
X25723241Y-42704760D02*
G01*
X25987305Y-42814139D01*
X26224958Y-42972934D01*
X26427066Y-43175042D01*
X26585861Y-43412695D01*
X26695240Y-43676759D01*
X26751000Y-43957088D01*
X26751000Y-44242912D01*
X26695240Y-44523241D01*
X26585861Y-44787305D01*
X26427066Y-45024958D01*
X26224958Y-45227066D01*
X25987305Y-45385861D01*
X25723241Y-45495240D01*
X25442912Y-45551000D01*
X25157088Y-45551000D01*
X24876759Y-45495240D01*
X24612695Y-45385861D01*
X24375042Y-45227066D01*
X24172934Y-45024958D01*
X24014139Y-44787305D01*
X23904760Y-44523241D01*
X23849000Y-44242912D01*
X23849000Y-43957088D01*
X23904760Y-43676759D01*
X24014139Y-43412695D01*
X24172934Y-43175042D01*
X24375042Y-42972934D01*
X24612695Y-42814139D01*
X24876759Y-42704760D01*
X25157088Y-42649000D01*
X25442912Y-42649000D01*
X25723241Y-42704760D01*
X25723241Y-42704760D01*
G37*
G36*
X45723241Y-42704760D02*
G01*
X45987305Y-42814139D01*
X46224958Y-42972934D01*
X46427066Y-43175042D01*
X46585861Y-43412695D01*
X46695240Y-43676759D01*
X46751000Y-43957088D01*
X46751000Y-44242912D01*
X46695240Y-44523241D01*
X46585861Y-44787305D01*
X46427066Y-45024958D01*
X46224958Y-45227066D01*
X45987305Y-45385861D01*
X45723241Y-45495240D01*
X45442912Y-45551000D01*
X45157088Y-45551000D01*
X44876759Y-45495240D01*
X44612695Y-45385861D01*
X44375042Y-45227066D01*
X44172934Y-45024958D01*
X44014139Y-44787305D01*
X43904760Y-44523241D01*
X43849000Y-44242912D01*
X43849000Y-43957088D01*
X43904760Y-43676759D01*
X44014139Y-43412695D01*
X44172934Y-43175042D01*
X44375042Y-42972934D01*
X44612695Y-42814139D01*
X44876759Y-42704760D01*
X45157088Y-42649000D01*
X45442912Y-42649000D01*
X45723241Y-42704760D01*
X45723241Y-42704760D01*
G37*
G36*
X64115928Y-44355764D02*
G01*
X64137009Y-44362160D01*
X64156445Y-44372548D01*
X64173476Y-44386524D01*
X64187452Y-44403555D01*
X64197840Y-44422991D01*
X64204236Y-44444072D01*
X64207000Y-44472140D01*
X64207000Y-44935860D01*
X64204236Y-44963928D01*
X64197840Y-44985009D01*
X64187452Y-45004445D01*
X64173476Y-45021476D01*
X64156445Y-45035452D01*
X64137009Y-45045840D01*
X64115928Y-45052236D01*
X64087860Y-45055000D01*
X62274140Y-45055000D01*
X62246072Y-45052236D01*
X62224991Y-45045840D01*
X62205555Y-45035452D01*
X62188524Y-45021476D01*
X62174548Y-45004445D01*
X62164160Y-44985009D01*
X62157764Y-44963928D01*
X62155000Y-44935860D01*
X62155000Y-44472140D01*
X62157764Y-44444072D01*
X62164160Y-44422991D01*
X62174548Y-44403555D01*
X62188524Y-44386524D01*
X62205555Y-44372548D01*
X62224991Y-44362160D01*
X62246072Y-44355764D01*
X62274140Y-44353000D01*
X64087860Y-44353000D01*
X64115928Y-44355764D01*
X64115928Y-44355764D01*
G37*
G36*
X59165928Y-44355764D02*
G01*
X59187009Y-44362160D01*
X59206445Y-44372548D01*
X59223476Y-44386524D01*
X59237452Y-44403555D01*
X59247840Y-44422991D01*
X59254236Y-44444072D01*
X59257000Y-44472140D01*
X59257000Y-44935860D01*
X59254236Y-44963928D01*
X59247840Y-44985009D01*
X59237452Y-45004445D01*
X59223476Y-45021476D01*
X59206445Y-45035452D01*
X59187009Y-45045840D01*
X59165928Y-45052236D01*
X59137860Y-45055000D01*
X57324140Y-45055000D01*
X57296072Y-45052236D01*
X57274991Y-45045840D01*
X57255555Y-45035452D01*
X57238524Y-45021476D01*
X57224548Y-45004445D01*
X57214160Y-44985009D01*
X57207764Y-44963928D01*
X57205000Y-44935860D01*
X57205000Y-44472140D01*
X57207764Y-44444072D01*
X57214160Y-44422991D01*
X57224548Y-44403555D01*
X57238524Y-44386524D01*
X57255555Y-44372548D01*
X57274991Y-44362160D01*
X57296072Y-44355764D01*
X57324140Y-44353000D01*
X59137860Y-44353000D01*
X59165928Y-44355764D01*
X59165928Y-44355764D01*
G37*
G36*
X10670627Y-42167037D02*
G01*
X10840466Y-42218557D01*
X10996991Y-42302222D01*
X11032729Y-42331552D01*
X11134186Y-42414814D01*
X11188893Y-42481476D01*
X11246778Y-42552009D01*
X11330443Y-42708534D01*
X11381963Y-42878374D01*
X11395000Y-43010743D01*
X11395000Y-43349258D01*
X11381963Y-43481627D01*
X11330443Y-43651466D01*
X11246778Y-43807991D01*
X11217448Y-43843729D01*
X11134186Y-43945186D01*
X10996989Y-44057779D01*
X10840467Y-44141442D01*
X10840465Y-44141443D01*
X10670626Y-44192963D01*
X10494000Y-44210359D01*
X10317373Y-44192963D01*
X10147534Y-44141443D01*
X9991009Y-44057778D01*
X9948750Y-44023097D01*
X9853814Y-43945186D01*
X9741221Y-43807989D01*
X9657558Y-43651467D01*
X9655213Y-43643738D01*
X9606037Y-43481626D01*
X9593000Y-43349257D01*
X9593000Y-43010742D01*
X9606037Y-42878373D01*
X9657557Y-42708534D01*
X9741222Y-42552009D01*
X9853815Y-42414815D01*
X9991010Y-42302222D01*
X10147535Y-42218557D01*
X10317374Y-42167037D01*
X10494000Y-42149641D01*
X10670627Y-42167037D01*
X10670627Y-42167037D01*
G37*
G36*
X13170627Y-42167037D02*
G01*
X13340466Y-42218557D01*
X13496991Y-42302222D01*
X13532729Y-42331552D01*
X13634186Y-42414814D01*
X13688893Y-42481476D01*
X13746778Y-42552009D01*
X13830443Y-42708534D01*
X13881963Y-42878374D01*
X13895000Y-43010743D01*
X13895000Y-43349258D01*
X13881963Y-43481627D01*
X13830443Y-43651466D01*
X13746778Y-43807991D01*
X13717448Y-43843729D01*
X13634186Y-43945186D01*
X13496989Y-44057779D01*
X13340467Y-44141442D01*
X13340465Y-44141443D01*
X13170626Y-44192963D01*
X12994000Y-44210359D01*
X12817373Y-44192963D01*
X12647534Y-44141443D01*
X12491009Y-44057778D01*
X12448750Y-44023097D01*
X12353814Y-43945186D01*
X12241221Y-43807989D01*
X12157558Y-43651467D01*
X12155213Y-43643738D01*
X12106037Y-43481626D01*
X12093000Y-43349257D01*
X12093000Y-43010742D01*
X12106037Y-42878373D01*
X12157557Y-42708534D01*
X12241222Y-42552009D01*
X12353815Y-42414815D01*
X12491010Y-42302222D01*
X12647535Y-42218557D01*
X12817374Y-42167037D01*
X12994000Y-42149641D01*
X13170627Y-42167037D01*
X13170627Y-42167037D01*
G37*
G36*
X8170627Y-42167037D02*
G01*
X8340466Y-42218557D01*
X8496991Y-42302222D01*
X8532729Y-42331552D01*
X8634186Y-42414814D01*
X8688893Y-42481476D01*
X8746778Y-42552009D01*
X8830443Y-42708534D01*
X8881963Y-42878374D01*
X8895000Y-43010743D01*
X8895000Y-43349258D01*
X8881963Y-43481627D01*
X8830443Y-43651466D01*
X8746778Y-43807991D01*
X8717448Y-43843729D01*
X8634186Y-43945186D01*
X8496989Y-44057779D01*
X8340467Y-44141442D01*
X8340465Y-44141443D01*
X8170626Y-44192963D01*
X7994000Y-44210359D01*
X7817373Y-44192963D01*
X7647534Y-44141443D01*
X7491009Y-44057778D01*
X7448750Y-44023097D01*
X7353814Y-43945186D01*
X7241221Y-43807989D01*
X7157558Y-43651467D01*
X7155213Y-43643738D01*
X7106037Y-43481626D01*
X7093000Y-43349257D01*
X7093000Y-43010742D01*
X7106037Y-42878373D01*
X7157557Y-42708534D01*
X7241222Y-42552009D01*
X7353815Y-42414815D01*
X7491010Y-42302222D01*
X7647535Y-42218557D01*
X7817374Y-42167037D01*
X7994000Y-42149641D01*
X8170627Y-42167037D01*
X8170627Y-42167037D01*
G37*
G36*
X16252600Y-42157989D02*
G01*
X16285652Y-42168015D01*
X16316103Y-42184292D01*
X16342799Y-42206201D01*
X16364708Y-42232897D01*
X16380985Y-42263348D01*
X16391011Y-42296400D01*
X16395000Y-42336903D01*
X16395000Y-44023097D01*
X16391011Y-44063600D01*
X16380985Y-44096652D01*
X16364708Y-44127103D01*
X16342799Y-44153799D01*
X16316103Y-44175708D01*
X16285652Y-44191985D01*
X16252600Y-44202011D01*
X16212097Y-44206000D01*
X14775903Y-44206000D01*
X14735400Y-44202011D01*
X14702348Y-44191985D01*
X14671897Y-44175708D01*
X14645201Y-44153799D01*
X14623292Y-44127103D01*
X14607015Y-44096652D01*
X14596989Y-44063600D01*
X14593000Y-44023097D01*
X14593000Y-42336903D01*
X14596989Y-42296400D01*
X14607015Y-42263348D01*
X14623292Y-42232897D01*
X14645201Y-42206201D01*
X14671897Y-42184292D01*
X14702348Y-42168015D01*
X14735400Y-42157989D01*
X14775903Y-42154000D01*
X16212097Y-42154000D01*
X16252600Y-42157989D01*
X16252600Y-42157989D01*
G37*
G36*
X59165928Y-43085764D02*
G01*
X59187009Y-43092160D01*
X59206445Y-43102548D01*
X59223476Y-43116524D01*
X59237452Y-43133555D01*
X59247840Y-43152991D01*
X59254236Y-43174072D01*
X59257000Y-43202140D01*
X59257000Y-43665860D01*
X59254236Y-43693928D01*
X59247840Y-43715009D01*
X59237452Y-43734445D01*
X59223476Y-43751476D01*
X59206445Y-43765452D01*
X59187009Y-43775840D01*
X59165928Y-43782236D01*
X59137860Y-43785000D01*
X57324140Y-43785000D01*
X57296072Y-43782236D01*
X57274991Y-43775840D01*
X57255555Y-43765452D01*
X57238524Y-43751476D01*
X57224548Y-43734445D01*
X57214160Y-43715009D01*
X57207764Y-43693928D01*
X57205000Y-43665860D01*
X57205000Y-43202140D01*
X57207764Y-43174072D01*
X57214160Y-43152991D01*
X57224548Y-43133555D01*
X57238524Y-43116524D01*
X57255555Y-43102548D01*
X57274991Y-43092160D01*
X57296072Y-43085764D01*
X57324140Y-43083000D01*
X59137860Y-43083000D01*
X59165928Y-43085764D01*
X59165928Y-43085764D01*
G37*
G36*
X64115928Y-43085764D02*
G01*
X64137009Y-43092160D01*
X64156445Y-43102548D01*
X64173476Y-43116524D01*
X64187452Y-43133555D01*
X64197840Y-43152991D01*
X64204236Y-43174072D01*
X64207000Y-43202140D01*
X64207000Y-43665860D01*
X64204236Y-43693928D01*
X64197840Y-43715009D01*
X64187452Y-43734445D01*
X64173476Y-43751476D01*
X64156445Y-43765452D01*
X64137009Y-43775840D01*
X64115928Y-43782236D01*
X64087860Y-43785000D01*
X62274140Y-43785000D01*
X62246072Y-43782236D01*
X62224991Y-43775840D01*
X62205555Y-43765452D01*
X62188524Y-43751476D01*
X62174548Y-43734445D01*
X62164160Y-43715009D01*
X62157764Y-43693928D01*
X62155000Y-43665860D01*
X62155000Y-43202140D01*
X62157764Y-43174072D01*
X62164160Y-43152991D01*
X62174548Y-43133555D01*
X62188524Y-43116524D01*
X62205555Y-43102548D01*
X62224991Y-43092160D01*
X62246072Y-43085764D01*
X62274140Y-43083000D01*
X64087860Y-43083000D01*
X64115928Y-43085764D01*
X64115928Y-43085764D01*
G37*
G36*
X67926442Y-41697518D02*
G01*
X67992627Y-41704037D01*
X68162466Y-41755557D01*
X68318991Y-41839222D01*
X68327888Y-41846524D01*
X68456186Y-41951814D01*
X68539448Y-42053271D01*
X68568778Y-42089009D01*
X68652443Y-42245534D01*
X68703963Y-42415373D01*
X68721359Y-42592000D01*
X68703963Y-42768627D01*
X68652443Y-42938466D01*
X68568778Y-43094991D01*
X68567655Y-43096359D01*
X68456186Y-43232186D01*
X68363805Y-43308000D01*
X68318991Y-43344778D01*
X68162466Y-43428443D01*
X67992627Y-43479963D01*
X67926442Y-43486482D01*
X67860260Y-43493000D01*
X67521740Y-43493000D01*
X67455558Y-43486482D01*
X67389373Y-43479963D01*
X67219534Y-43428443D01*
X67063009Y-43344778D01*
X67018195Y-43308000D01*
X66925814Y-43232186D01*
X66814345Y-43096359D01*
X66813222Y-43094991D01*
X66729557Y-42938466D01*
X66678037Y-42768627D01*
X66660641Y-42592000D01*
X66678037Y-42415373D01*
X66729557Y-42245534D01*
X66813222Y-42089009D01*
X66842552Y-42053271D01*
X66925814Y-41951814D01*
X67054112Y-41846524D01*
X67063009Y-41839222D01*
X67219534Y-41755557D01*
X67389373Y-41704037D01*
X67455558Y-41697518D01*
X67521740Y-41691000D01*
X67860260Y-41691000D01*
X67926442Y-41697518D01*
X67926442Y-41697518D01*
G37*
G36*
X72864025Y-41691000D02*
G01*
X72945627Y-41699037D01*
X73115466Y-41750557D01*
X73271991Y-41834222D01*
X73307665Y-41863499D01*
X73409186Y-41946814D01*
X73492448Y-42048271D01*
X73521778Y-42084009D01*
X73521779Y-42084011D01*
X73593697Y-42218558D01*
X73605443Y-42240534D01*
X73656963Y-42410373D01*
X73674359Y-42587000D01*
X73656963Y-42763627D01*
X73605443Y-42933466D01*
X73521778Y-43089991D01*
X73503242Y-43112577D01*
X73409186Y-43227186D01*
X73348781Y-43276758D01*
X73271991Y-43339778D01*
X73115466Y-43423443D01*
X72945627Y-43474963D01*
X72894860Y-43479963D01*
X72813260Y-43488000D01*
X72474740Y-43488000D01*
X72393140Y-43479963D01*
X72342373Y-43474963D01*
X72172534Y-43423443D01*
X72016009Y-43339778D01*
X71939219Y-43276758D01*
X71878814Y-43227186D01*
X71784758Y-43112577D01*
X71766222Y-43089991D01*
X71682557Y-42933466D01*
X71631037Y-42763627D01*
X71613641Y-42587000D01*
X71631037Y-42410373D01*
X71682557Y-42240534D01*
X71694304Y-42218558D01*
X71766221Y-42084011D01*
X71766222Y-42084009D01*
X71795552Y-42048271D01*
X71878814Y-41946814D01*
X71980335Y-41863499D01*
X72016009Y-41834222D01*
X72172534Y-41750557D01*
X72342373Y-41699037D01*
X72423975Y-41691000D01*
X72474740Y-41686000D01*
X72813260Y-41686000D01*
X72864025Y-41691000D01*
X72864025Y-41691000D01*
G37*
G36*
X50402142Y-41713242D02*
G01*
X50550101Y-41774529D01*
X50683255Y-41863499D01*
X50796501Y-41976745D01*
X50885471Y-42109899D01*
X50946758Y-42257858D01*
X50978000Y-42414925D01*
X50978000Y-42575075D01*
X50946758Y-42732142D01*
X50885471Y-42880101D01*
X50796501Y-43013255D01*
X50683255Y-43126501D01*
X50550101Y-43215471D01*
X50402142Y-43276758D01*
X50245075Y-43308000D01*
X50084925Y-43308000D01*
X49927858Y-43276758D01*
X49779899Y-43215471D01*
X49646745Y-43126501D01*
X49533499Y-43013255D01*
X49444529Y-42880101D01*
X49383242Y-42732142D01*
X49352000Y-42575075D01*
X49352000Y-42414925D01*
X49383242Y-42257858D01*
X49444529Y-42109899D01*
X49533499Y-41976745D01*
X49646745Y-41863499D01*
X49779899Y-41774529D01*
X49927858Y-41713242D01*
X50084925Y-41682000D01*
X50245075Y-41682000D01*
X50402142Y-41713242D01*
X50402142Y-41713242D01*
G37*
G36*
X59165928Y-41815764D02*
G01*
X59187009Y-41822160D01*
X59206445Y-41832548D01*
X59223476Y-41846524D01*
X59237452Y-41863555D01*
X59247840Y-41882991D01*
X59254236Y-41904072D01*
X59257000Y-41932140D01*
X59257000Y-42395860D01*
X59254236Y-42423928D01*
X59247840Y-42445009D01*
X59237452Y-42464445D01*
X59223476Y-42481476D01*
X59206445Y-42495452D01*
X59187009Y-42505840D01*
X59165928Y-42512236D01*
X59137860Y-42515000D01*
X57324140Y-42515000D01*
X57296072Y-42512236D01*
X57274991Y-42505840D01*
X57255555Y-42495452D01*
X57238524Y-42481476D01*
X57224548Y-42464445D01*
X57214160Y-42445009D01*
X57207764Y-42423928D01*
X57205000Y-42395860D01*
X57205000Y-41932140D01*
X57207764Y-41904072D01*
X57214160Y-41882991D01*
X57224548Y-41863555D01*
X57238524Y-41846524D01*
X57255555Y-41832548D01*
X57274991Y-41822160D01*
X57296072Y-41815764D01*
X57324140Y-41813000D01*
X59137860Y-41813000D01*
X59165928Y-41815764D01*
X59165928Y-41815764D01*
G37*
G36*
X64115928Y-41815764D02*
G01*
X64137009Y-41822160D01*
X64156445Y-41832548D01*
X64173476Y-41846524D01*
X64187452Y-41863555D01*
X64197840Y-41882991D01*
X64204236Y-41904072D01*
X64207000Y-41932140D01*
X64207000Y-42395860D01*
X64204236Y-42423928D01*
X64197840Y-42445009D01*
X64187452Y-42464445D01*
X64173476Y-42481476D01*
X64156445Y-42495452D01*
X64137009Y-42505840D01*
X64115928Y-42512236D01*
X64087860Y-42515000D01*
X62274140Y-42515000D01*
X62246072Y-42512236D01*
X62224991Y-42505840D01*
X62205555Y-42495452D01*
X62188524Y-42481476D01*
X62174548Y-42464445D01*
X62164160Y-42445009D01*
X62157764Y-42423928D01*
X62155000Y-42395860D01*
X62155000Y-41932140D01*
X62157764Y-41904072D01*
X62164160Y-41882991D01*
X62174548Y-41863555D01*
X62188524Y-41846524D01*
X62205555Y-41832548D01*
X62224991Y-41822160D01*
X62246072Y-41815764D01*
X62274140Y-41813000D01*
X64087860Y-41813000D01*
X64115928Y-41815764D01*
X64115928Y-41815764D01*
G37*
G36*
X64115928Y-40545764D02*
G01*
X64137009Y-40552160D01*
X64156445Y-40562548D01*
X64173476Y-40576524D01*
X64187452Y-40593555D01*
X64197840Y-40612991D01*
X64204236Y-40634072D01*
X64207000Y-40662140D01*
X64207000Y-41125860D01*
X64204236Y-41153928D01*
X64197840Y-41175009D01*
X64187452Y-41194445D01*
X64173476Y-41211476D01*
X64156445Y-41225452D01*
X64137009Y-41235840D01*
X64115928Y-41242236D01*
X64087860Y-41245000D01*
X62274140Y-41245000D01*
X62246072Y-41242236D01*
X62224991Y-41235840D01*
X62205555Y-41225452D01*
X62188524Y-41211476D01*
X62174548Y-41194445D01*
X62164160Y-41175009D01*
X62157764Y-41153928D01*
X62155000Y-41125860D01*
X62155000Y-40662140D01*
X62157764Y-40634072D01*
X62164160Y-40612991D01*
X62174548Y-40593555D01*
X62188524Y-40576524D01*
X62205555Y-40562548D01*
X62224991Y-40552160D01*
X62246072Y-40545764D01*
X62274140Y-40543000D01*
X64087860Y-40543000D01*
X64115928Y-40545764D01*
X64115928Y-40545764D01*
G37*
G36*
X59165928Y-40545764D02*
G01*
X59187009Y-40552160D01*
X59206445Y-40562548D01*
X59223476Y-40576524D01*
X59237452Y-40593555D01*
X59247840Y-40612991D01*
X59254236Y-40634072D01*
X59257000Y-40662140D01*
X59257000Y-41125860D01*
X59254236Y-41153928D01*
X59247840Y-41175009D01*
X59237452Y-41194445D01*
X59223476Y-41211476D01*
X59206445Y-41225452D01*
X59187009Y-41235840D01*
X59165928Y-41242236D01*
X59137860Y-41245000D01*
X57324140Y-41245000D01*
X57296072Y-41242236D01*
X57274991Y-41235840D01*
X57255555Y-41225452D01*
X57238524Y-41211476D01*
X57224548Y-41194445D01*
X57214160Y-41175009D01*
X57207764Y-41153928D01*
X57205000Y-41125860D01*
X57205000Y-40662140D01*
X57207764Y-40634072D01*
X57214160Y-40612991D01*
X57224548Y-40593555D01*
X57238524Y-40576524D01*
X57255555Y-40562548D01*
X57274991Y-40552160D01*
X57296072Y-40545764D01*
X57324140Y-40543000D01*
X59137860Y-40543000D01*
X59165928Y-40545764D01*
X59165928Y-40545764D01*
G37*
G36*
X67926443Y-39197519D02*
G01*
X67992627Y-39204037D01*
X68162466Y-39255557D01*
X68318991Y-39339222D01*
X68354729Y-39368552D01*
X68456186Y-39451814D01*
X68539448Y-39553271D01*
X68568778Y-39589009D01*
X68652443Y-39745534D01*
X68703963Y-39915373D01*
X68721359Y-40092000D01*
X68703963Y-40268627D01*
X68652443Y-40438466D01*
X68568778Y-40594991D01*
X68547435Y-40620997D01*
X68456186Y-40732186D01*
X68354729Y-40815448D01*
X68318991Y-40844778D01*
X68162466Y-40928443D01*
X67992627Y-40979963D01*
X67926442Y-40986482D01*
X67860260Y-40993000D01*
X67521740Y-40993000D01*
X67455558Y-40986482D01*
X67389373Y-40979963D01*
X67219534Y-40928443D01*
X67063009Y-40844778D01*
X67027271Y-40815448D01*
X66925814Y-40732186D01*
X66834565Y-40620997D01*
X66813222Y-40594991D01*
X66729557Y-40438466D01*
X66678037Y-40268627D01*
X66660641Y-40092000D01*
X66678037Y-39915373D01*
X66729557Y-39745534D01*
X66813222Y-39589009D01*
X66842552Y-39553271D01*
X66925814Y-39451814D01*
X67027271Y-39368552D01*
X67063009Y-39339222D01*
X67219534Y-39255557D01*
X67389373Y-39204037D01*
X67455557Y-39197519D01*
X67521740Y-39191000D01*
X67860260Y-39191000D01*
X67926443Y-39197519D01*
X67926443Y-39197519D01*
G37*
G36*
X72864025Y-39191000D02*
G01*
X72945627Y-39199037D01*
X73115466Y-39250557D01*
X73271991Y-39334222D01*
X73292431Y-39350997D01*
X73409186Y-39446814D01*
X73477747Y-39530357D01*
X73521778Y-39584009D01*
X73605443Y-39740534D01*
X73656963Y-39910373D01*
X73674359Y-40087000D01*
X73656963Y-40263627D01*
X73605443Y-40433466D01*
X73521778Y-40589991D01*
X73502902Y-40612991D01*
X73409186Y-40727186D01*
X73307729Y-40810448D01*
X73271991Y-40839778D01*
X73115466Y-40923443D01*
X72945627Y-40974963D01*
X72894860Y-40979963D01*
X72813260Y-40988000D01*
X72474740Y-40988000D01*
X72393140Y-40979963D01*
X72342373Y-40974963D01*
X72172534Y-40923443D01*
X72016009Y-40839778D01*
X71980271Y-40810448D01*
X71878814Y-40727186D01*
X71785098Y-40612991D01*
X71766222Y-40589991D01*
X71682557Y-40433466D01*
X71631037Y-40263627D01*
X71613641Y-40087000D01*
X71631037Y-39910373D01*
X71682557Y-39740534D01*
X71766222Y-39584009D01*
X71810253Y-39530357D01*
X71878814Y-39446814D01*
X71995569Y-39350997D01*
X72016009Y-39334222D01*
X72172534Y-39250557D01*
X72342373Y-39199037D01*
X72423975Y-39191000D01*
X72474740Y-39186000D01*
X72813260Y-39186000D01*
X72864025Y-39191000D01*
X72864025Y-39191000D01*
G37*
G36*
X50402142Y-39173242D02*
G01*
X50550101Y-39234529D01*
X50683255Y-39323499D01*
X50796501Y-39436745D01*
X50885471Y-39569899D01*
X50946758Y-39717858D01*
X50978000Y-39874925D01*
X50978000Y-40035075D01*
X50946758Y-40192142D01*
X50885471Y-40340101D01*
X50796501Y-40473255D01*
X50683255Y-40586501D01*
X50550101Y-40675471D01*
X50402142Y-40736758D01*
X50245075Y-40768000D01*
X50084925Y-40768000D01*
X49927858Y-40736758D01*
X49779899Y-40675471D01*
X49646745Y-40586501D01*
X49533499Y-40473255D01*
X49444529Y-40340101D01*
X49383242Y-40192142D01*
X49352000Y-40035075D01*
X49352000Y-39874925D01*
X49383242Y-39717858D01*
X49444529Y-39569899D01*
X49533499Y-39436745D01*
X49646745Y-39323499D01*
X49779899Y-39234529D01*
X49927858Y-39173242D01*
X50084925Y-39142000D01*
X50245075Y-39142000D01*
X50402142Y-39173242D01*
X50402142Y-39173242D01*
G37*
G36*
X10679544Y-37432083D02*
G01*
X10791616Y-37466080D01*
X10894894Y-37521283D01*
X10985422Y-37595578D01*
X11059717Y-37686106D01*
X11114920Y-37789384D01*
X11148917Y-37901456D01*
X11161000Y-38024140D01*
X11161000Y-39457860D01*
X11148917Y-39580544D01*
X11114920Y-39692616D01*
X11059717Y-39795894D01*
X10985422Y-39886422D01*
X10894894Y-39960717D01*
X10791616Y-40015920D01*
X10679544Y-40049917D01*
X10556860Y-40062000D01*
X6583140Y-40062000D01*
X6460456Y-40049917D01*
X6348384Y-40015920D01*
X6245106Y-39960717D01*
X6154578Y-39886422D01*
X6080283Y-39795894D01*
X6025080Y-39692616D01*
X5991083Y-39580544D01*
X5979000Y-39457860D01*
X5979000Y-38024140D01*
X5991083Y-37901456D01*
X6025080Y-37789384D01*
X6080283Y-37686106D01*
X6154578Y-37595578D01*
X6245106Y-37521283D01*
X6348384Y-37466080D01*
X6460456Y-37432083D01*
X6583140Y-37420000D01*
X10556860Y-37420000D01*
X10679544Y-37432083D01*
X10679544Y-37432083D01*
G37*
G36*
X21479544Y-37432083D02*
G01*
X21591616Y-37466080D01*
X21694894Y-37521283D01*
X21785422Y-37595578D01*
X21859717Y-37686106D01*
X21914920Y-37789384D01*
X21948917Y-37901456D01*
X21961000Y-38024140D01*
X21961000Y-39457860D01*
X21948917Y-39580544D01*
X21914920Y-39692616D01*
X21859717Y-39795894D01*
X21785422Y-39886422D01*
X21694894Y-39960717D01*
X21591616Y-40015920D01*
X21479544Y-40049917D01*
X21356860Y-40062000D01*
X17383140Y-40062000D01*
X17260456Y-40049917D01*
X17148384Y-40015920D01*
X17045106Y-39960717D01*
X16954578Y-39886422D01*
X16880283Y-39795894D01*
X16825080Y-39692616D01*
X16791083Y-39580544D01*
X16779000Y-39457860D01*
X16779000Y-38024140D01*
X16791083Y-37901456D01*
X16825080Y-37789384D01*
X16880283Y-37686106D01*
X16954578Y-37595578D01*
X17045106Y-37521283D01*
X17148384Y-37466080D01*
X17260456Y-37432083D01*
X17383140Y-37420000D01*
X21356860Y-37420000D01*
X21479544Y-37432083D01*
X21479544Y-37432083D01*
G37*
G36*
X64115928Y-39275764D02*
G01*
X64137009Y-39282160D01*
X64156445Y-39292548D01*
X64173476Y-39306524D01*
X64187452Y-39323555D01*
X64197840Y-39342991D01*
X64204236Y-39364072D01*
X64207000Y-39392140D01*
X64207000Y-39855860D01*
X64204236Y-39883928D01*
X64197840Y-39905009D01*
X64187452Y-39924445D01*
X64173476Y-39941476D01*
X64156445Y-39955452D01*
X64137009Y-39965840D01*
X64115928Y-39972236D01*
X64087860Y-39975000D01*
X62274140Y-39975000D01*
X62246072Y-39972236D01*
X62224991Y-39965840D01*
X62205555Y-39955452D01*
X62188524Y-39941476D01*
X62174548Y-39924445D01*
X62164160Y-39905009D01*
X62157764Y-39883928D01*
X62155000Y-39855860D01*
X62155000Y-39392140D01*
X62157764Y-39364072D01*
X62164160Y-39342991D01*
X62174548Y-39323555D01*
X62188524Y-39306524D01*
X62205555Y-39292548D01*
X62224991Y-39282160D01*
X62246072Y-39275764D01*
X62274140Y-39273000D01*
X64087860Y-39273000D01*
X64115928Y-39275764D01*
X64115928Y-39275764D01*
G37*
G36*
X59165928Y-39275764D02*
G01*
X59187009Y-39282160D01*
X59206445Y-39292548D01*
X59223476Y-39306524D01*
X59237452Y-39323555D01*
X59247840Y-39342991D01*
X59254236Y-39364072D01*
X59257000Y-39392140D01*
X59257000Y-39855860D01*
X59254236Y-39883928D01*
X59247840Y-39905009D01*
X59237452Y-39924445D01*
X59223476Y-39941476D01*
X59206445Y-39955452D01*
X59187009Y-39965840D01*
X59165928Y-39972236D01*
X59137860Y-39975000D01*
X57324140Y-39975000D01*
X57296072Y-39972236D01*
X57274991Y-39965840D01*
X57255555Y-39955452D01*
X57238524Y-39941476D01*
X57224548Y-39924445D01*
X57214160Y-39905009D01*
X57207764Y-39883928D01*
X57205000Y-39855860D01*
X57205000Y-39392140D01*
X57207764Y-39364072D01*
X57214160Y-39342991D01*
X57224548Y-39323555D01*
X57238524Y-39306524D01*
X57255555Y-39292548D01*
X57274991Y-39282160D01*
X57296072Y-39275764D01*
X57324140Y-39273000D01*
X59137860Y-39273000D01*
X59165928Y-39275764D01*
X59165928Y-39275764D01*
G37*
G36*
X68574600Y-36694989D02*
G01*
X68607652Y-36705015D01*
X68638103Y-36721292D01*
X68664799Y-36743201D01*
X68686708Y-36769897D01*
X68702985Y-36800348D01*
X68713011Y-36833400D01*
X68717000Y-36873903D01*
X68717000Y-38310097D01*
X68713011Y-38350600D01*
X68702985Y-38383652D01*
X68686708Y-38414103D01*
X68664799Y-38440799D01*
X68638103Y-38462708D01*
X68607652Y-38478985D01*
X68574600Y-38489011D01*
X68534097Y-38493000D01*
X66847903Y-38493000D01*
X66807400Y-38489011D01*
X66774348Y-38478985D01*
X66743897Y-38462708D01*
X66717201Y-38440799D01*
X66695292Y-38414103D01*
X66679015Y-38383652D01*
X66668989Y-38350600D01*
X66665000Y-38310097D01*
X66665000Y-36873903D01*
X66668989Y-36833400D01*
X66679015Y-36800348D01*
X66695292Y-36769897D01*
X66717201Y-36743201D01*
X66743897Y-36721292D01*
X66774348Y-36705015D01*
X66807400Y-36694989D01*
X66847903Y-36691000D01*
X68534097Y-36691000D01*
X68574600Y-36694989D01*
X68574600Y-36694989D01*
G37*
G36*
X73527600Y-36689989D02*
G01*
X73560652Y-36700015D01*
X73591103Y-36716292D01*
X73617799Y-36738201D01*
X73639708Y-36764897D01*
X73655985Y-36795348D01*
X73666011Y-36828400D01*
X73670000Y-36868903D01*
X73670000Y-38305097D01*
X73666011Y-38345600D01*
X73655985Y-38378652D01*
X73639708Y-38409103D01*
X73617799Y-38435799D01*
X73591103Y-38457708D01*
X73560652Y-38473985D01*
X73527600Y-38484011D01*
X73487097Y-38488000D01*
X71800903Y-38488000D01*
X71760400Y-38484011D01*
X71727348Y-38473985D01*
X71696897Y-38457708D01*
X71670201Y-38435799D01*
X71648292Y-38409103D01*
X71632015Y-38378652D01*
X71621989Y-38345600D01*
X71618000Y-38305097D01*
X71618000Y-36868903D01*
X71621989Y-36828400D01*
X71632015Y-36795348D01*
X71648292Y-36764897D01*
X71670201Y-36738201D01*
X71696897Y-36716292D01*
X71727348Y-36700015D01*
X71760400Y-36689989D01*
X71800903Y-36686000D01*
X73487097Y-36686000D01*
X73527600Y-36689989D01*
X73527600Y-36689989D01*
G37*
G36*
X50402142Y-36633242D02*
G01*
X50550101Y-36694529D01*
X50683255Y-36783499D01*
X50796501Y-36896745D01*
X50885471Y-37029899D01*
X50946758Y-37177858D01*
X50978000Y-37334925D01*
X50978000Y-37495075D01*
X50946758Y-37652142D01*
X50885471Y-37800101D01*
X50796501Y-37933255D01*
X50683255Y-38046501D01*
X50550101Y-38135471D01*
X50402142Y-38196758D01*
X50245075Y-38228000D01*
X50084925Y-38228000D01*
X49927858Y-38196758D01*
X49779899Y-38135471D01*
X49646745Y-38046501D01*
X49533499Y-37933255D01*
X49444529Y-37800101D01*
X49383242Y-37652142D01*
X49352000Y-37495075D01*
X49352000Y-37334925D01*
X49383242Y-37177858D01*
X49444529Y-37029899D01*
X49533499Y-36896745D01*
X49646745Y-36783499D01*
X49779899Y-36694529D01*
X49927858Y-36633242D01*
X50084925Y-36602000D01*
X50245075Y-36602000D01*
X50402142Y-36633242D01*
X50402142Y-36633242D01*
G37*
G36*
X64115928Y-37497764D02*
G01*
X64137009Y-37504160D01*
X64156445Y-37514548D01*
X64173476Y-37528524D01*
X64187452Y-37545555D01*
X64197840Y-37564991D01*
X64204236Y-37586072D01*
X64207000Y-37614140D01*
X64207000Y-38077860D01*
X64204236Y-38105928D01*
X64197840Y-38127009D01*
X64187452Y-38146445D01*
X64173476Y-38163476D01*
X64156445Y-38177452D01*
X64137009Y-38187840D01*
X64115928Y-38194236D01*
X64087860Y-38197000D01*
X62274140Y-38197000D01*
X62246072Y-38194236D01*
X62224991Y-38187840D01*
X62205555Y-38177452D01*
X62188524Y-38163476D01*
X62174548Y-38146445D01*
X62164160Y-38127009D01*
X62157764Y-38105928D01*
X62155000Y-38077860D01*
X62155000Y-37614140D01*
X62157764Y-37586072D01*
X62164160Y-37564991D01*
X62174548Y-37545555D01*
X62188524Y-37528524D01*
X62205555Y-37514548D01*
X62224991Y-37504160D01*
X62246072Y-37497764D01*
X62274140Y-37495000D01*
X64087860Y-37495000D01*
X64115928Y-37497764D01*
X64115928Y-37497764D01*
G37*
G36*
X59165928Y-37497764D02*
G01*
X59187009Y-37504160D01*
X59206445Y-37514548D01*
X59223476Y-37528524D01*
X59237452Y-37545555D01*
X59247840Y-37564991D01*
X59254236Y-37586072D01*
X59257000Y-37614140D01*
X59257000Y-38077860D01*
X59254236Y-38105928D01*
X59247840Y-38127009D01*
X59237452Y-38146445D01*
X59223476Y-38163476D01*
X59206445Y-38177452D01*
X59187009Y-38187840D01*
X59165928Y-38194236D01*
X59137860Y-38197000D01*
X57324140Y-38197000D01*
X57296072Y-38194236D01*
X57274991Y-38187840D01*
X57255555Y-38177452D01*
X57238524Y-38163476D01*
X57224548Y-38146445D01*
X57214160Y-38127009D01*
X57207764Y-38105928D01*
X57205000Y-38077860D01*
X57205000Y-37614140D01*
X57207764Y-37586072D01*
X57214160Y-37564991D01*
X57224548Y-37545555D01*
X57238524Y-37528524D01*
X57255555Y-37514548D01*
X57274991Y-37504160D01*
X57296072Y-37497764D01*
X57324140Y-37495000D01*
X59137860Y-37495000D01*
X59165928Y-37497764D01*
X59165928Y-37497764D01*
G37*
G36*
X64115928Y-36227764D02*
G01*
X64137009Y-36234160D01*
X64156445Y-36244548D01*
X64173476Y-36258524D01*
X64187452Y-36275555D01*
X64197840Y-36294991D01*
X64204236Y-36316072D01*
X64207000Y-36344140D01*
X64207000Y-36807860D01*
X64204236Y-36835928D01*
X64197840Y-36857009D01*
X64187452Y-36876445D01*
X64173476Y-36893476D01*
X64156445Y-36907452D01*
X64137009Y-36917840D01*
X64115928Y-36924236D01*
X64087860Y-36927000D01*
X62274140Y-36927000D01*
X62246072Y-36924236D01*
X62224991Y-36917840D01*
X62205555Y-36907452D01*
X62188524Y-36893476D01*
X62174548Y-36876445D01*
X62164160Y-36857009D01*
X62157764Y-36835928D01*
X62155000Y-36807860D01*
X62155000Y-36344140D01*
X62157764Y-36316072D01*
X62164160Y-36294991D01*
X62174548Y-36275555D01*
X62188524Y-36258524D01*
X62205555Y-36244548D01*
X62224991Y-36234160D01*
X62246072Y-36227764D01*
X62274140Y-36225000D01*
X64087860Y-36225000D01*
X64115928Y-36227764D01*
X64115928Y-36227764D01*
G37*
G36*
X59165928Y-36227764D02*
G01*
X59187009Y-36234160D01*
X59206445Y-36244548D01*
X59223476Y-36258524D01*
X59237452Y-36275555D01*
X59247840Y-36294991D01*
X59254236Y-36316072D01*
X59257000Y-36344140D01*
X59257000Y-36807860D01*
X59254236Y-36835928D01*
X59247840Y-36857009D01*
X59237452Y-36876445D01*
X59223476Y-36893476D01*
X59206445Y-36907452D01*
X59187009Y-36917840D01*
X59165928Y-36924236D01*
X59137860Y-36927000D01*
X57324140Y-36927000D01*
X57296072Y-36924236D01*
X57274991Y-36917840D01*
X57255555Y-36907452D01*
X57238524Y-36893476D01*
X57224548Y-36876445D01*
X57214160Y-36857009D01*
X57207764Y-36835928D01*
X57205000Y-36807860D01*
X57205000Y-36344140D01*
X57207764Y-36316072D01*
X57214160Y-36294991D01*
X57224548Y-36275555D01*
X57238524Y-36258524D01*
X57255555Y-36244548D01*
X57274991Y-36234160D01*
X57296072Y-36227764D01*
X57324140Y-36225000D01*
X59137860Y-36225000D01*
X59165928Y-36227764D01*
X59165928Y-36227764D01*
G37*
G36*
X50402142Y-34093242D02*
G01*
X50550101Y-34154529D01*
X50683255Y-34243499D01*
X50796501Y-34356745D01*
X50885471Y-34489899D01*
X50946758Y-34637858D01*
X50978000Y-34794925D01*
X50978000Y-34955075D01*
X50946758Y-35112142D01*
X50885471Y-35260101D01*
X50796501Y-35393255D01*
X50683255Y-35506501D01*
X50550101Y-35595471D01*
X50402142Y-35656758D01*
X50245075Y-35688000D01*
X50084925Y-35688000D01*
X49927858Y-35656758D01*
X49779899Y-35595471D01*
X49646745Y-35506501D01*
X49533499Y-35393255D01*
X49444529Y-35260101D01*
X49383242Y-35112142D01*
X49352000Y-34955075D01*
X49352000Y-34794925D01*
X49383242Y-34637858D01*
X49444529Y-34489899D01*
X49533499Y-34356745D01*
X49646745Y-34243499D01*
X49779899Y-34154529D01*
X49927858Y-34093242D01*
X50084925Y-34062000D01*
X50245075Y-34062000D01*
X50402142Y-34093242D01*
X50402142Y-34093242D01*
G37*
G36*
X64115928Y-34957764D02*
G01*
X64137009Y-34964160D01*
X64156445Y-34974548D01*
X64173476Y-34988524D01*
X64187452Y-35005555D01*
X64197840Y-35024991D01*
X64204236Y-35046072D01*
X64207000Y-35074140D01*
X64207000Y-35537860D01*
X64204236Y-35565928D01*
X64197840Y-35587009D01*
X64187452Y-35606445D01*
X64173476Y-35623476D01*
X64156445Y-35637452D01*
X64137009Y-35647840D01*
X64115928Y-35654236D01*
X64087860Y-35657000D01*
X62274140Y-35657000D01*
X62246072Y-35654236D01*
X62224991Y-35647840D01*
X62205555Y-35637452D01*
X62188524Y-35623476D01*
X62174548Y-35606445D01*
X62164160Y-35587009D01*
X62157764Y-35565928D01*
X62155000Y-35537860D01*
X62155000Y-35074140D01*
X62157764Y-35046072D01*
X62164160Y-35024991D01*
X62174548Y-35005555D01*
X62188524Y-34988524D01*
X62205555Y-34974548D01*
X62224991Y-34964160D01*
X62246072Y-34957764D01*
X62274140Y-34955000D01*
X64087860Y-34955000D01*
X64115928Y-34957764D01*
X64115928Y-34957764D01*
G37*
G36*
X59165928Y-34957764D02*
G01*
X59187009Y-34964160D01*
X59206445Y-34974548D01*
X59223476Y-34988524D01*
X59237452Y-35005555D01*
X59247840Y-35024991D01*
X59254236Y-35046072D01*
X59257000Y-35074140D01*
X59257000Y-35537860D01*
X59254236Y-35565928D01*
X59247840Y-35587009D01*
X59237452Y-35606445D01*
X59223476Y-35623476D01*
X59206445Y-35637452D01*
X59187009Y-35647840D01*
X59165928Y-35654236D01*
X59137860Y-35657000D01*
X57324140Y-35657000D01*
X57296072Y-35654236D01*
X57274991Y-35647840D01*
X57255555Y-35637452D01*
X57238524Y-35623476D01*
X57224548Y-35606445D01*
X57214160Y-35587009D01*
X57207764Y-35565928D01*
X57205000Y-35537860D01*
X57205000Y-35074140D01*
X57207764Y-35046072D01*
X57214160Y-35024991D01*
X57224548Y-35005555D01*
X57238524Y-34988524D01*
X57255555Y-34974548D01*
X57274991Y-34964160D01*
X57296072Y-34957764D01*
X57324140Y-34955000D01*
X59137860Y-34955000D01*
X59165928Y-34957764D01*
X59165928Y-34957764D01*
G37*
G36*
X70889943Y-28666248D02*
G01*
X71445189Y-28896238D01*
X71618160Y-29011814D01*
X71944899Y-29230134D01*
X72369866Y-29655101D01*
X72369867Y-29655103D01*
X72703762Y-30154811D01*
X72933752Y-30710057D01*
X73051000Y-31299501D01*
X73051000Y-31900499D01*
X72933752Y-32489943D01*
X72703762Y-33045189D01*
X72655941Y-33116758D01*
X72369866Y-33544899D01*
X71944899Y-33969866D01*
X71807011Y-34062000D01*
X71445189Y-34303762D01*
X70889943Y-34533752D01*
X70300499Y-34651000D01*
X69699501Y-34651000D01*
X69110057Y-34533752D01*
X68554811Y-34303762D01*
X68192989Y-34062000D01*
X68055101Y-33969866D01*
X67630134Y-33544899D01*
X67344059Y-33116758D01*
X67296238Y-33045189D01*
X67066248Y-32489943D01*
X66949000Y-31900499D01*
X66949000Y-31299501D01*
X67066248Y-30710057D01*
X67296238Y-30154811D01*
X67630133Y-29655103D01*
X67630134Y-29655101D01*
X68055101Y-29230134D01*
X68381840Y-29011814D01*
X68554811Y-28896238D01*
X69110057Y-28666248D01*
X69699501Y-28549000D01*
X70300499Y-28549000D01*
X70889943Y-28666248D01*
X70889943Y-28666248D01*
G37*
G36*
X59165928Y-33687764D02*
G01*
X59187009Y-33694160D01*
X59206445Y-33704548D01*
X59223476Y-33718524D01*
X59237452Y-33735555D01*
X59247840Y-33754991D01*
X59254236Y-33776072D01*
X59257000Y-33804140D01*
X59257000Y-34267860D01*
X59254236Y-34295928D01*
X59247840Y-34317009D01*
X59237452Y-34336445D01*
X59223476Y-34353476D01*
X59206445Y-34367452D01*
X59187009Y-34377840D01*
X59165928Y-34384236D01*
X59137860Y-34387000D01*
X57324140Y-34387000D01*
X57296072Y-34384236D01*
X57274991Y-34377840D01*
X57255555Y-34367452D01*
X57238524Y-34353476D01*
X57224548Y-34336445D01*
X57214160Y-34317009D01*
X57207764Y-34295928D01*
X57205000Y-34267860D01*
X57205000Y-33804140D01*
X57207764Y-33776072D01*
X57214160Y-33754991D01*
X57224548Y-33735555D01*
X57238524Y-33718524D01*
X57255555Y-33704548D01*
X57274991Y-33694160D01*
X57296072Y-33687764D01*
X57324140Y-33685000D01*
X59137860Y-33685000D01*
X59165928Y-33687764D01*
X59165928Y-33687764D01*
G37*
G36*
X64115928Y-33687764D02*
G01*
X64137009Y-33694160D01*
X64156445Y-33704548D01*
X64173476Y-33718524D01*
X64187452Y-33735555D01*
X64197840Y-33754991D01*
X64204236Y-33776072D01*
X64207000Y-33804140D01*
X64207000Y-34267860D01*
X64204236Y-34295928D01*
X64197840Y-34317009D01*
X64187452Y-34336445D01*
X64173476Y-34353476D01*
X64156445Y-34367452D01*
X64137009Y-34377840D01*
X64115928Y-34384236D01*
X64087860Y-34387000D01*
X62274140Y-34387000D01*
X62246072Y-34384236D01*
X62224991Y-34377840D01*
X62205555Y-34367452D01*
X62188524Y-34353476D01*
X62174548Y-34336445D01*
X62164160Y-34317009D01*
X62157764Y-34295928D01*
X62155000Y-34267860D01*
X62155000Y-33804140D01*
X62157764Y-33776072D01*
X62164160Y-33754991D01*
X62174548Y-33735555D01*
X62188524Y-33718524D01*
X62205555Y-33704548D01*
X62224991Y-33694160D01*
X62246072Y-33687764D01*
X62274140Y-33685000D01*
X64087860Y-33685000D01*
X64115928Y-33687764D01*
X64115928Y-33687764D01*
G37*
G36*
X50402142Y-31553242D02*
G01*
X50550101Y-31614529D01*
X50683255Y-31703499D01*
X50796501Y-31816745D01*
X50885471Y-31949899D01*
X50946758Y-32097858D01*
X50978000Y-32254925D01*
X50978000Y-32415075D01*
X50946758Y-32572142D01*
X50885471Y-32720101D01*
X50796501Y-32853255D01*
X50683255Y-32966501D01*
X50550101Y-33055471D01*
X50402142Y-33116758D01*
X50245075Y-33148000D01*
X50084925Y-33148000D01*
X49927858Y-33116758D01*
X49779899Y-33055471D01*
X49646745Y-32966501D01*
X49533499Y-32853255D01*
X49444529Y-32720101D01*
X49383242Y-32572142D01*
X49352000Y-32415075D01*
X49352000Y-32254925D01*
X49383242Y-32097858D01*
X49444529Y-31949899D01*
X49533499Y-31816745D01*
X49646745Y-31703499D01*
X49779899Y-31614529D01*
X49927858Y-31553242D01*
X50084925Y-31522000D01*
X50245075Y-31522000D01*
X50402142Y-31553242D01*
X50402142Y-31553242D01*
G37*
G36*
X64115928Y-32417764D02*
G01*
X64137009Y-32424160D01*
X64156445Y-32434548D01*
X64173476Y-32448524D01*
X64187452Y-32465555D01*
X64197840Y-32484991D01*
X64204236Y-32506072D01*
X64207000Y-32534140D01*
X64207000Y-32997860D01*
X64204236Y-33025928D01*
X64197840Y-33047009D01*
X64187452Y-33066445D01*
X64173476Y-33083476D01*
X64156445Y-33097452D01*
X64137009Y-33107840D01*
X64115928Y-33114236D01*
X64087860Y-33117000D01*
X62274140Y-33117000D01*
X62246072Y-33114236D01*
X62224991Y-33107840D01*
X62205555Y-33097452D01*
X62188524Y-33083476D01*
X62174548Y-33066445D01*
X62164160Y-33047009D01*
X62157764Y-33025928D01*
X62155000Y-32997860D01*
X62155000Y-32534140D01*
X62157764Y-32506072D01*
X62164160Y-32484991D01*
X62174548Y-32465555D01*
X62188524Y-32448524D01*
X62205555Y-32434548D01*
X62224991Y-32424160D01*
X62246072Y-32417764D01*
X62274140Y-32415000D01*
X64087860Y-32415000D01*
X64115928Y-32417764D01*
X64115928Y-32417764D01*
G37*
G36*
X59165928Y-32417764D02*
G01*
X59187009Y-32424160D01*
X59206445Y-32434548D01*
X59223476Y-32448524D01*
X59237452Y-32465555D01*
X59247840Y-32484991D01*
X59254236Y-32506072D01*
X59257000Y-32534140D01*
X59257000Y-32997860D01*
X59254236Y-33025928D01*
X59247840Y-33047009D01*
X59237452Y-33066445D01*
X59223476Y-33083476D01*
X59206445Y-33097452D01*
X59187009Y-33107840D01*
X59165928Y-33114236D01*
X59137860Y-33117000D01*
X57324140Y-33117000D01*
X57296072Y-33114236D01*
X57274991Y-33107840D01*
X57255555Y-33097452D01*
X57238524Y-33083476D01*
X57224548Y-33066445D01*
X57214160Y-33047009D01*
X57207764Y-33025928D01*
X57205000Y-32997860D01*
X57205000Y-32534140D01*
X57207764Y-32506072D01*
X57214160Y-32484991D01*
X57224548Y-32465555D01*
X57238524Y-32448524D01*
X57255555Y-32434548D01*
X57274991Y-32424160D01*
X57296072Y-32417764D01*
X57324140Y-32415000D01*
X59137860Y-32415000D01*
X59165928Y-32417764D01*
X59165928Y-32417764D01*
G37*
G36*
X64115928Y-31147764D02*
G01*
X64137009Y-31154160D01*
X64156445Y-31164548D01*
X64173476Y-31178524D01*
X64187452Y-31195555D01*
X64197840Y-31214991D01*
X64204236Y-31236072D01*
X64207000Y-31264140D01*
X64207000Y-31727860D01*
X64204236Y-31755928D01*
X64197840Y-31777009D01*
X64187452Y-31796445D01*
X64173476Y-31813476D01*
X64156445Y-31827452D01*
X64137009Y-31837840D01*
X64115928Y-31844236D01*
X64087860Y-31847000D01*
X62274140Y-31847000D01*
X62246072Y-31844236D01*
X62224991Y-31837840D01*
X62205555Y-31827452D01*
X62188524Y-31813476D01*
X62174548Y-31796445D01*
X62164160Y-31777009D01*
X62157764Y-31755928D01*
X62155000Y-31727860D01*
X62155000Y-31264140D01*
X62157764Y-31236072D01*
X62164160Y-31214991D01*
X62174548Y-31195555D01*
X62188524Y-31178524D01*
X62205555Y-31164548D01*
X62224991Y-31154160D01*
X62246072Y-31147764D01*
X62274140Y-31145000D01*
X64087860Y-31145000D01*
X64115928Y-31147764D01*
X64115928Y-31147764D01*
G37*
G36*
X59165928Y-31147764D02*
G01*
X59187009Y-31154160D01*
X59206445Y-31164548D01*
X59223476Y-31178524D01*
X59237452Y-31195555D01*
X59247840Y-31214991D01*
X59254236Y-31236072D01*
X59257000Y-31264140D01*
X59257000Y-31727860D01*
X59254236Y-31755928D01*
X59247840Y-31777009D01*
X59237452Y-31796445D01*
X59223476Y-31813476D01*
X59206445Y-31827452D01*
X59187009Y-31837840D01*
X59165928Y-31844236D01*
X59137860Y-31847000D01*
X57324140Y-31847000D01*
X57296072Y-31844236D01*
X57274991Y-31837840D01*
X57255555Y-31827452D01*
X57238524Y-31813476D01*
X57224548Y-31796445D01*
X57214160Y-31777009D01*
X57207764Y-31755928D01*
X57205000Y-31727860D01*
X57205000Y-31264140D01*
X57207764Y-31236072D01*
X57214160Y-31214991D01*
X57224548Y-31195555D01*
X57238524Y-31178524D01*
X57255555Y-31164548D01*
X57274991Y-31154160D01*
X57296072Y-31147764D01*
X57324140Y-31145000D01*
X59137860Y-31145000D01*
X59165928Y-31147764D01*
X59165928Y-31147764D01*
G37*
G36*
X50402142Y-29013242D02*
G01*
X50550101Y-29074529D01*
X50683255Y-29163499D01*
X50796501Y-29276745D01*
X50885471Y-29409899D01*
X50946758Y-29557858D01*
X50978000Y-29714925D01*
X50978000Y-29875075D01*
X50946758Y-30032142D01*
X50885471Y-30180101D01*
X50796501Y-30313255D01*
X50683255Y-30426501D01*
X50550101Y-30515471D01*
X50402142Y-30576758D01*
X50245075Y-30608000D01*
X50084925Y-30608000D01*
X49927858Y-30576758D01*
X49779899Y-30515471D01*
X49646745Y-30426501D01*
X49533499Y-30313255D01*
X49444529Y-30180101D01*
X49383242Y-30032142D01*
X49352000Y-29875075D01*
X49352000Y-29714925D01*
X49383242Y-29557858D01*
X49444529Y-29409899D01*
X49533499Y-29276745D01*
X49646745Y-29163499D01*
X49779899Y-29074529D01*
X49927858Y-29013242D01*
X50084925Y-28982000D01*
X50245075Y-28982000D01*
X50402142Y-29013242D01*
X50402142Y-29013242D01*
G37*
G36*
X59165928Y-29877764D02*
G01*
X59187009Y-29884160D01*
X59206445Y-29894548D01*
X59223476Y-29908524D01*
X59237452Y-29925555D01*
X59247840Y-29944991D01*
X59254236Y-29966072D01*
X59257000Y-29994140D01*
X59257000Y-30457860D01*
X59254236Y-30485928D01*
X59247840Y-30507009D01*
X59237452Y-30526445D01*
X59223476Y-30543476D01*
X59206445Y-30557452D01*
X59187009Y-30567840D01*
X59165928Y-30574236D01*
X59137860Y-30577000D01*
X57324140Y-30577000D01*
X57296072Y-30574236D01*
X57274991Y-30567840D01*
X57255555Y-30557452D01*
X57238524Y-30543476D01*
X57224548Y-30526445D01*
X57214160Y-30507009D01*
X57207764Y-30485928D01*
X57205000Y-30457860D01*
X57205000Y-29994140D01*
X57207764Y-29966072D01*
X57214160Y-29944991D01*
X57224548Y-29925555D01*
X57238524Y-29908524D01*
X57255555Y-29894548D01*
X57274991Y-29884160D01*
X57296072Y-29877764D01*
X57324140Y-29875000D01*
X59137860Y-29875000D01*
X59165928Y-29877764D01*
X59165928Y-29877764D01*
G37*
G36*
X64115928Y-29877764D02*
G01*
X64137009Y-29884160D01*
X64156445Y-29894548D01*
X64173476Y-29908524D01*
X64187452Y-29925555D01*
X64197840Y-29944991D01*
X64204236Y-29966072D01*
X64207000Y-29994140D01*
X64207000Y-30457860D01*
X64204236Y-30485928D01*
X64197840Y-30507009D01*
X64187452Y-30526445D01*
X64173476Y-30543476D01*
X64156445Y-30557452D01*
X64137009Y-30567840D01*
X64115928Y-30574236D01*
X64087860Y-30577000D01*
X62274140Y-30577000D01*
X62246072Y-30574236D01*
X62224991Y-30567840D01*
X62205555Y-30557452D01*
X62188524Y-30543476D01*
X62174548Y-30526445D01*
X62164160Y-30507009D01*
X62157764Y-30485928D01*
X62155000Y-30457860D01*
X62155000Y-29994140D01*
X62157764Y-29966072D01*
X62164160Y-29944991D01*
X62174548Y-29925555D01*
X62188524Y-29908524D01*
X62205555Y-29894548D01*
X62224991Y-29884160D01*
X62246072Y-29877764D01*
X62274140Y-29875000D01*
X64087860Y-29875000D01*
X64115928Y-29877764D01*
X64115928Y-29877764D01*
G37*
G36*
X3029443Y-28757519D02*
G01*
X3095627Y-28764037D01*
X3265466Y-28815557D01*
X3421991Y-28899222D01*
X3457729Y-28928552D01*
X3559186Y-29011814D01*
X3642448Y-29113271D01*
X3671778Y-29149009D01*
X3671779Y-29149011D01*
X3751331Y-29297840D01*
X3755443Y-29305534D01*
X3806963Y-29475373D01*
X3824359Y-29652000D01*
X3806963Y-29828627D01*
X3755443Y-29998466D01*
X3671778Y-30154991D01*
X3642448Y-30190729D01*
X3559186Y-30292186D01*
X3457729Y-30375448D01*
X3421991Y-30404778D01*
X3265466Y-30488443D01*
X3095627Y-30539963D01*
X3029442Y-30546482D01*
X2963260Y-30553000D01*
X2624740Y-30553000D01*
X2558558Y-30546482D01*
X2492373Y-30539963D01*
X2322534Y-30488443D01*
X2166009Y-30404778D01*
X2130271Y-30375448D01*
X2028814Y-30292186D01*
X1945552Y-30190729D01*
X1916222Y-30154991D01*
X1832557Y-29998466D01*
X1781037Y-29828627D01*
X1763641Y-29652000D01*
X1781037Y-29475373D01*
X1832557Y-29305534D01*
X1836670Y-29297840D01*
X1916221Y-29149011D01*
X1916222Y-29149009D01*
X1945552Y-29113271D01*
X2028814Y-29011814D01*
X2130271Y-28928552D01*
X2166009Y-28899222D01*
X2322534Y-28815557D01*
X2492373Y-28764037D01*
X2558557Y-28757519D01*
X2624740Y-28751000D01*
X2963260Y-28751000D01*
X3029443Y-28757519D01*
X3029443Y-28757519D01*
G37*
G36*
X59165928Y-28607764D02*
G01*
X59187009Y-28614160D01*
X59206445Y-28624548D01*
X59223476Y-28638524D01*
X59237452Y-28655555D01*
X59247840Y-28674991D01*
X59254236Y-28696072D01*
X59257000Y-28724140D01*
X59257000Y-29187860D01*
X59254236Y-29215928D01*
X59247840Y-29237009D01*
X59237452Y-29256445D01*
X59223476Y-29273476D01*
X59206445Y-29287452D01*
X59187009Y-29297840D01*
X59165928Y-29304236D01*
X59137860Y-29307000D01*
X57324140Y-29307000D01*
X57296072Y-29304236D01*
X57274991Y-29297840D01*
X57255555Y-29287452D01*
X57238524Y-29273476D01*
X57224548Y-29256445D01*
X57214160Y-29237009D01*
X57207764Y-29215928D01*
X57205000Y-29187860D01*
X57205000Y-28724140D01*
X57207764Y-28696072D01*
X57214160Y-28674991D01*
X57224548Y-28655555D01*
X57238524Y-28638524D01*
X57255555Y-28624548D01*
X57274991Y-28614160D01*
X57296072Y-28607764D01*
X57324140Y-28605000D01*
X59137860Y-28605000D01*
X59165928Y-28607764D01*
X59165928Y-28607764D01*
G37*
G36*
X64115928Y-28607764D02*
G01*
X64137009Y-28614160D01*
X64156445Y-28624548D01*
X64173476Y-28638524D01*
X64187452Y-28655555D01*
X64197840Y-28674991D01*
X64204236Y-28696072D01*
X64207000Y-28724140D01*
X64207000Y-29187860D01*
X64204236Y-29215928D01*
X64197840Y-29237009D01*
X64187452Y-29256445D01*
X64173476Y-29273476D01*
X64156445Y-29287452D01*
X64137009Y-29297840D01*
X64115928Y-29304236D01*
X64087860Y-29307000D01*
X62274140Y-29307000D01*
X62246072Y-29304236D01*
X62224991Y-29297840D01*
X62205555Y-29287452D01*
X62188524Y-29273476D01*
X62174548Y-29256445D01*
X62164160Y-29237009D01*
X62157764Y-29215928D01*
X62155000Y-29187860D01*
X62155000Y-28724140D01*
X62157764Y-28696072D01*
X62164160Y-28674991D01*
X62174548Y-28655555D01*
X62188524Y-28638524D01*
X62205555Y-28624548D01*
X62224991Y-28614160D01*
X62246072Y-28607764D01*
X62274140Y-28605000D01*
X64087860Y-28605000D01*
X64115928Y-28607764D01*
X64115928Y-28607764D01*
G37*
G36*
X3029442Y-26257518D02*
G01*
X3095627Y-26264037D01*
X3265466Y-26315557D01*
X3421991Y-26399222D01*
X3444794Y-26417936D01*
X3559186Y-26511814D01*
X3642448Y-26613271D01*
X3671778Y-26649009D01*
X3755443Y-26805534D01*
X3806963Y-26975373D01*
X3824359Y-27152000D01*
X3806963Y-27328627D01*
X3755443Y-27498466D01*
X3671778Y-27654991D01*
X3642448Y-27690729D01*
X3559186Y-27792186D01*
X3457729Y-27875448D01*
X3421991Y-27904778D01*
X3265466Y-27988443D01*
X3095627Y-28039963D01*
X3029442Y-28046482D01*
X2963260Y-28053000D01*
X2624740Y-28053000D01*
X2558558Y-28046482D01*
X2492373Y-28039963D01*
X2322534Y-27988443D01*
X2166009Y-27904778D01*
X2130271Y-27875448D01*
X2028814Y-27792186D01*
X1945552Y-27690729D01*
X1916222Y-27654991D01*
X1832557Y-27498466D01*
X1781037Y-27328627D01*
X1763641Y-27152000D01*
X1781037Y-26975373D01*
X1832557Y-26805534D01*
X1916222Y-26649009D01*
X1945552Y-26613271D01*
X2028814Y-26511814D01*
X2143206Y-26417936D01*
X2166009Y-26399222D01*
X2322534Y-26315557D01*
X2492373Y-26264037D01*
X2558558Y-26257518D01*
X2624740Y-26251000D01*
X2963260Y-26251000D01*
X3029442Y-26257518D01*
X3029442Y-26257518D01*
G37*
G36*
X70889943Y-21466248D02*
G01*
X71445189Y-21696238D01*
X71693347Y-21862052D01*
X71944899Y-22030134D01*
X72369866Y-22455101D01*
X72398843Y-22498468D01*
X72703762Y-22954811D01*
X72933752Y-23510057D01*
X73051000Y-24099501D01*
X73051000Y-24700499D01*
X72933752Y-25289943D01*
X72703762Y-25845189D01*
X72703761Y-25845190D01*
X72369866Y-26344899D01*
X71944899Y-26769866D01*
X71891521Y-26805532D01*
X71445189Y-27103762D01*
X70889943Y-27333752D01*
X70300499Y-27451000D01*
X69699501Y-27451000D01*
X69110057Y-27333752D01*
X68554811Y-27103762D01*
X68108479Y-26805532D01*
X68055101Y-26769866D01*
X67630134Y-26344899D01*
X67296239Y-25845190D01*
X67296238Y-25845189D01*
X67066248Y-25289943D01*
X66949000Y-24700499D01*
X66949000Y-24099501D01*
X67066248Y-23510057D01*
X67296238Y-22954811D01*
X67601157Y-22498468D01*
X67630134Y-22455101D01*
X68055101Y-22030134D01*
X68306653Y-21862052D01*
X68554811Y-21696238D01*
X69110057Y-21466248D01*
X69699501Y-21349000D01*
X70300499Y-21349000D01*
X70889943Y-21466248D01*
X70889943Y-21466248D01*
G37*
G36*
X3029442Y-23757518D02*
G01*
X3095627Y-23764037D01*
X3265466Y-23815557D01*
X3421991Y-23899222D01*
X3457729Y-23928552D01*
X3559186Y-24011814D01*
X3631148Y-24099501D01*
X3671778Y-24149009D01*
X3755443Y-24305534D01*
X3806963Y-24475373D01*
X3824359Y-24652000D01*
X3806963Y-24828627D01*
X3755443Y-24998466D01*
X3671778Y-25154991D01*
X3661737Y-25167226D01*
X3559186Y-25292186D01*
X3457729Y-25375448D01*
X3421991Y-25404778D01*
X3265466Y-25488443D01*
X3095627Y-25539963D01*
X3029443Y-25546481D01*
X2963260Y-25553000D01*
X2624740Y-25553000D01*
X2558557Y-25546481D01*
X2492373Y-25539963D01*
X2322534Y-25488443D01*
X2166009Y-25404778D01*
X2130271Y-25375448D01*
X2028814Y-25292186D01*
X1926263Y-25167226D01*
X1916222Y-25154991D01*
X1832557Y-24998466D01*
X1781037Y-24828627D01*
X1763641Y-24652000D01*
X1781037Y-24475373D01*
X1832557Y-24305534D01*
X1916222Y-24149009D01*
X1956852Y-24099501D01*
X2028814Y-24011814D01*
X2130271Y-23928552D01*
X2166009Y-23899222D01*
X2322534Y-23815557D01*
X2492373Y-23764037D01*
X2558558Y-23757518D01*
X2624740Y-23751000D01*
X2963260Y-23751000D01*
X3029442Y-23757518D01*
X3029442Y-23757518D01*
G37*
G36*
X25723241Y-22704760D02*
G01*
X25987305Y-22814139D01*
X26224958Y-22972934D01*
X26427066Y-23175042D01*
X26585861Y-23412695D01*
X26695240Y-23676759D01*
X26751000Y-23957088D01*
X26751000Y-24242912D01*
X26695240Y-24523241D01*
X26585861Y-24787305D01*
X26427066Y-25024958D01*
X26224958Y-25227066D01*
X25987305Y-25385861D01*
X25723241Y-25495240D01*
X25442912Y-25551000D01*
X25157088Y-25551000D01*
X24876759Y-25495240D01*
X24612695Y-25385861D01*
X24375042Y-25227066D01*
X24172934Y-25024958D01*
X24014139Y-24787305D01*
X23904760Y-24523241D01*
X23849000Y-24242912D01*
X23849000Y-23957088D01*
X23904760Y-23676759D01*
X24014139Y-23412695D01*
X24172934Y-23175042D01*
X24375042Y-22972934D01*
X24612695Y-22814139D01*
X24876759Y-22704760D01*
X25157088Y-22649000D01*
X25442912Y-22649000D01*
X25723241Y-22704760D01*
X25723241Y-22704760D01*
G37*
G36*
X45723241Y-22704760D02*
G01*
X45987305Y-22814139D01*
X46224958Y-22972934D01*
X46427066Y-23175042D01*
X46585861Y-23412695D01*
X46695240Y-23676759D01*
X46751000Y-23957088D01*
X46751000Y-24242912D01*
X46695240Y-24523241D01*
X46585861Y-24787305D01*
X46427066Y-25024958D01*
X46224958Y-25227066D01*
X45987305Y-25385861D01*
X45723241Y-25495240D01*
X45442912Y-25551000D01*
X45157088Y-25551000D01*
X44876759Y-25495240D01*
X44612695Y-25385861D01*
X44375042Y-25227066D01*
X44172934Y-25024958D01*
X44014139Y-24787305D01*
X43904760Y-24523241D01*
X43849000Y-24242912D01*
X43849000Y-23957088D01*
X43904760Y-23676759D01*
X44014139Y-23412695D01*
X44172934Y-23175042D01*
X44375042Y-22972934D01*
X44612695Y-22814139D01*
X44876759Y-22704760D01*
X45157088Y-22649000D01*
X45442912Y-22649000D01*
X45723241Y-22704760D01*
X45723241Y-22704760D01*
G37*
G36*
X61335600Y-23486989D02*
G01*
X61368652Y-23497015D01*
X61399103Y-23513292D01*
X61425799Y-23535201D01*
X61447708Y-23561897D01*
X61463985Y-23592348D01*
X61474011Y-23625400D01*
X61478000Y-23665903D01*
X61478000Y-25102097D01*
X61474011Y-25142600D01*
X61463985Y-25175652D01*
X61447708Y-25206103D01*
X61425799Y-25232799D01*
X61399103Y-25254708D01*
X61368652Y-25270985D01*
X61335600Y-25281011D01*
X61295097Y-25285000D01*
X59608903Y-25285000D01*
X59568400Y-25281011D01*
X59535348Y-25270985D01*
X59504897Y-25254708D01*
X59478201Y-25232799D01*
X59456292Y-25206103D01*
X59440015Y-25175652D01*
X59429989Y-25142600D01*
X59426000Y-25102097D01*
X59426000Y-23665903D01*
X59429989Y-23625400D01*
X59440015Y-23592348D01*
X59456292Y-23561897D01*
X59478201Y-23535201D01*
X59504897Y-23513292D01*
X59535348Y-23497015D01*
X59568400Y-23486989D01*
X59608903Y-23483000D01*
X61295097Y-23483000D01*
X61335600Y-23486989D01*
X61335600Y-23486989D01*
G37*
G36*
X57045000Y-23526000D02*
G01*
X55843000Y-23526000D01*
X55843000Y-14574000D01*
X57045000Y-14574000D01*
X57045000Y-23526000D01*
X57045000Y-23526000D01*
G37*
G36*
X51345000Y-23526000D02*
G01*
X50143000Y-23526000D01*
X50143000Y-14574000D01*
X51345000Y-14574000D01*
X51345000Y-23526000D01*
X51345000Y-23526000D01*
G37*
G36*
X3029443Y-21257519D02*
G01*
X3095627Y-21264037D01*
X3265466Y-21315557D01*
X3421991Y-21399222D01*
X3457729Y-21428552D01*
X3559186Y-21511814D01*
X3605742Y-21568544D01*
X3671778Y-21649009D01*
X3755443Y-21805534D01*
X3806963Y-21975373D01*
X3824359Y-22152000D01*
X3806963Y-22328627D01*
X3768597Y-22455103D01*
X3755442Y-22498468D01*
X3741696Y-22524185D01*
X3671778Y-22654991D01*
X3642448Y-22690729D01*
X3559186Y-22792186D01*
X3457729Y-22875448D01*
X3421991Y-22904778D01*
X3265466Y-22988443D01*
X3095627Y-23039963D01*
X3029442Y-23046482D01*
X2963260Y-23053000D01*
X2624740Y-23053000D01*
X2558558Y-23046482D01*
X2492373Y-23039963D01*
X2322534Y-22988443D01*
X2166009Y-22904778D01*
X2130271Y-22875448D01*
X2028814Y-22792186D01*
X1945552Y-22690729D01*
X1916222Y-22654991D01*
X1846304Y-22524185D01*
X1832558Y-22498468D01*
X1819403Y-22455103D01*
X1781037Y-22328627D01*
X1763641Y-22152000D01*
X1781037Y-21975373D01*
X1832557Y-21805534D01*
X1916222Y-21649009D01*
X1982258Y-21568544D01*
X2028814Y-21511814D01*
X2130271Y-21428552D01*
X2166009Y-21399222D01*
X2322534Y-21315557D01*
X2492373Y-21264037D01*
X2558557Y-21257519D01*
X2624740Y-21251000D01*
X2963260Y-21251000D01*
X3029443Y-21257519D01*
X3029443Y-21257519D01*
G37*
G36*
X60687442Y-20989518D02*
G01*
X60753627Y-20996037D01*
X60923466Y-21047557D01*
X61079991Y-21131222D01*
X61112449Y-21157860D01*
X61217186Y-21243814D01*
X61300448Y-21345271D01*
X61329778Y-21381009D01*
X61413443Y-21537534D01*
X61464963Y-21707373D01*
X61482359Y-21884000D01*
X61464963Y-22060627D01*
X61413443Y-22230466D01*
X61329778Y-22386991D01*
X61300448Y-22422729D01*
X61217186Y-22524186D01*
X61115729Y-22607448D01*
X61079991Y-22636778D01*
X60923466Y-22720443D01*
X60753627Y-22771963D01*
X60687443Y-22778481D01*
X60621260Y-22785000D01*
X60282740Y-22785000D01*
X60216557Y-22778481D01*
X60150373Y-22771963D01*
X59980534Y-22720443D01*
X59824009Y-22636778D01*
X59788271Y-22607448D01*
X59686814Y-22524186D01*
X59603552Y-22422729D01*
X59574222Y-22386991D01*
X59490557Y-22230466D01*
X59439037Y-22060627D01*
X59421641Y-21884000D01*
X59439037Y-21707373D01*
X59490557Y-21537534D01*
X59574222Y-21381009D01*
X59603552Y-21345271D01*
X59686814Y-21243814D01*
X59791551Y-21157860D01*
X59824009Y-21131222D01*
X59980534Y-21047557D01*
X60150373Y-20996037D01*
X60216558Y-20989518D01*
X60282740Y-20983000D01*
X60621260Y-20983000D01*
X60687442Y-20989518D01*
X60687442Y-20989518D01*
G37*
G36*
X21479544Y-19132083D02*
G01*
X21591616Y-19166080D01*
X21694894Y-19221283D01*
X21785422Y-19295578D01*
X21859717Y-19386106D01*
X21914920Y-19489384D01*
X21948917Y-19601456D01*
X21961000Y-19724140D01*
X21961000Y-21157860D01*
X21948917Y-21280544D01*
X21914920Y-21392616D01*
X21859717Y-21495894D01*
X21785422Y-21586422D01*
X21694894Y-21660717D01*
X21591616Y-21715920D01*
X21479544Y-21749917D01*
X21356860Y-21762000D01*
X17383140Y-21762000D01*
X17260456Y-21749917D01*
X17148384Y-21715920D01*
X17045106Y-21660717D01*
X16954578Y-21586422D01*
X16880283Y-21495894D01*
X16825080Y-21392616D01*
X16791083Y-21280544D01*
X16779000Y-21157860D01*
X16779000Y-19724140D01*
X16791083Y-19601456D01*
X16825080Y-19489384D01*
X16880283Y-19386106D01*
X16954578Y-19295578D01*
X17045106Y-19221283D01*
X17148384Y-19166080D01*
X17260456Y-19132083D01*
X17383140Y-19120000D01*
X21356860Y-19120000D01*
X21479544Y-19132083D01*
X21479544Y-19132083D01*
G37*
G36*
X10679544Y-19132083D02*
G01*
X10791616Y-19166080D01*
X10894894Y-19221283D01*
X10985422Y-19295578D01*
X11059717Y-19386106D01*
X11114920Y-19489384D01*
X11148917Y-19601456D01*
X11161000Y-19724140D01*
X11161000Y-21157860D01*
X11148917Y-21280544D01*
X11114920Y-21392616D01*
X11059717Y-21495894D01*
X10985422Y-21586422D01*
X10894894Y-21660717D01*
X10791616Y-21715920D01*
X10679544Y-21749917D01*
X10556860Y-21762000D01*
X6583140Y-21762000D01*
X6460456Y-21749917D01*
X6348384Y-21715920D01*
X6245106Y-21660717D01*
X6154578Y-21586422D01*
X6080283Y-21495894D01*
X6025080Y-21392616D01*
X5991083Y-21280544D01*
X5979000Y-21157860D01*
X5979000Y-19724140D01*
X5991083Y-19601456D01*
X6025080Y-19489384D01*
X6080283Y-19386106D01*
X6154578Y-19295578D01*
X6245106Y-19221283D01*
X6348384Y-19166080D01*
X6460456Y-19132083D01*
X6583140Y-19120000D01*
X10556860Y-19120000D01*
X10679544Y-19132083D01*
X10679544Y-19132083D01*
G37*
G36*
X42761627Y-18672037D02*
G01*
X42931466Y-18723557D01*
X43087991Y-18807222D01*
X43123729Y-18836552D01*
X43225186Y-18919814D01*
X43300687Y-19011814D01*
X43337778Y-19057009D01*
X43421443Y-19213534D01*
X43472963Y-19383374D01*
X43486000Y-19515743D01*
X43486000Y-19854258D01*
X43472963Y-19986627D01*
X43421443Y-20156466D01*
X43337778Y-20312991D01*
X43308448Y-20348729D01*
X43225186Y-20450186D01*
X43087989Y-20562779D01*
X42931467Y-20646442D01*
X42931465Y-20646443D01*
X42761626Y-20697963D01*
X42585000Y-20715359D01*
X42408373Y-20697963D01*
X42238534Y-20646443D01*
X42082009Y-20562778D01*
X42039750Y-20528097D01*
X41944814Y-20450186D01*
X41832221Y-20312989D01*
X41748558Y-20156467D01*
X41748110Y-20154991D01*
X41697037Y-19986626D01*
X41684000Y-19854257D01*
X41684000Y-19515742D01*
X41697037Y-19383373D01*
X41748557Y-19213534D01*
X41765531Y-19181779D01*
X41832221Y-19057011D01*
X41832222Y-19057009D01*
X41944815Y-18919815D01*
X42082010Y-18807222D01*
X42238535Y-18723557D01*
X42408374Y-18672037D01*
X42585000Y-18654641D01*
X42761627Y-18672037D01*
X42761627Y-18672037D01*
G37*
G36*
X40261627Y-18672037D02*
G01*
X40431466Y-18723557D01*
X40587991Y-18807222D01*
X40623729Y-18836552D01*
X40725186Y-18919814D01*
X40800687Y-19011814D01*
X40837778Y-19057009D01*
X40921443Y-19213534D01*
X40972963Y-19383374D01*
X40986000Y-19515743D01*
X40986000Y-19854258D01*
X40972963Y-19986627D01*
X40921443Y-20156466D01*
X40837778Y-20312991D01*
X40808448Y-20348729D01*
X40725186Y-20450186D01*
X40587989Y-20562779D01*
X40431467Y-20646442D01*
X40431465Y-20646443D01*
X40261626Y-20697963D01*
X40085000Y-20715359D01*
X39908373Y-20697963D01*
X39738534Y-20646443D01*
X39582009Y-20562778D01*
X39539750Y-20528097D01*
X39444814Y-20450186D01*
X39332221Y-20312989D01*
X39248558Y-20156467D01*
X39248110Y-20154991D01*
X39197037Y-19986626D01*
X39184000Y-19854257D01*
X39184000Y-19515742D01*
X39197037Y-19383373D01*
X39248557Y-19213534D01*
X39265531Y-19181779D01*
X39332221Y-19057011D01*
X39332222Y-19057009D01*
X39444815Y-18919815D01*
X39582010Y-18807222D01*
X39738535Y-18723557D01*
X39908374Y-18672037D01*
X40085000Y-18654641D01*
X40261627Y-18672037D01*
X40261627Y-18672037D01*
G37*
G36*
X45843600Y-18662989D02*
G01*
X45876652Y-18673015D01*
X45907103Y-18689292D01*
X45933799Y-18711201D01*
X45955708Y-18737897D01*
X45971985Y-18768348D01*
X45982011Y-18801400D01*
X45986000Y-18841903D01*
X45986000Y-20528097D01*
X45982011Y-20568600D01*
X45971985Y-20601652D01*
X45955708Y-20632103D01*
X45933799Y-20658799D01*
X45907103Y-20680708D01*
X45876652Y-20696985D01*
X45843600Y-20707011D01*
X45803097Y-20711000D01*
X44366903Y-20711000D01*
X44326400Y-20707011D01*
X44293348Y-20696985D01*
X44262897Y-20680708D01*
X44236201Y-20658799D01*
X44214292Y-20632103D01*
X44198015Y-20601652D01*
X44187989Y-20568600D01*
X44184000Y-20528097D01*
X44184000Y-18841903D01*
X44187989Y-18801400D01*
X44198015Y-18768348D01*
X44214292Y-18737897D01*
X44236201Y-18711201D01*
X44262897Y-18689292D01*
X44293348Y-18673015D01*
X44326400Y-18662989D01*
X44366903Y-18659000D01*
X45803097Y-18659000D01*
X45843600Y-18662989D01*
X45843600Y-18662989D01*
G37*
G36*
X3029443Y-18757519D02*
G01*
X3095627Y-18764037D01*
X3265466Y-18815557D01*
X3421991Y-18899222D01*
X3447082Y-18919814D01*
X3559186Y-19011814D01*
X3642448Y-19113271D01*
X3671778Y-19149009D01*
X3755443Y-19305534D01*
X3806963Y-19475373D01*
X3824359Y-19652000D01*
X3806963Y-19828627D01*
X3759034Y-19986627D01*
X3755442Y-19998468D01*
X3741696Y-20024185D01*
X3671778Y-20154991D01*
X3642448Y-20190729D01*
X3559186Y-20292186D01*
X3457729Y-20375448D01*
X3421991Y-20404778D01*
X3265466Y-20488443D01*
X3095627Y-20539963D01*
X3029442Y-20546482D01*
X2963260Y-20553000D01*
X2624740Y-20553000D01*
X2558558Y-20546482D01*
X2492373Y-20539963D01*
X2322534Y-20488443D01*
X2166009Y-20404778D01*
X2130271Y-20375448D01*
X2028814Y-20292186D01*
X1945552Y-20190729D01*
X1916222Y-20154991D01*
X1846304Y-20024185D01*
X1832558Y-19998468D01*
X1828966Y-19986627D01*
X1781037Y-19828627D01*
X1763641Y-19652000D01*
X1781037Y-19475373D01*
X1832557Y-19305534D01*
X1916222Y-19149009D01*
X1945552Y-19113271D01*
X2028814Y-19011814D01*
X2140918Y-18919814D01*
X2166009Y-18899222D01*
X2322534Y-18815557D01*
X2492373Y-18764037D01*
X2558557Y-18757519D01*
X2624740Y-18751000D01*
X2963260Y-18751000D01*
X3029443Y-18757519D01*
X3029443Y-18757519D01*
G37*
G36*
X60687442Y-18489518D02*
G01*
X60753627Y-18496037D01*
X60923466Y-18547557D01*
X61079991Y-18631222D01*
X61108527Y-18654641D01*
X61217186Y-18743814D01*
X61281834Y-18822589D01*
X61329778Y-18881009D01*
X61413443Y-19037534D01*
X61464963Y-19207373D01*
X61482359Y-19384000D01*
X61464963Y-19560627D01*
X61413443Y-19730466D01*
X61329778Y-19886991D01*
X61304250Y-19918097D01*
X61217186Y-20024186D01*
X61140664Y-20086985D01*
X61079991Y-20136778D01*
X60923466Y-20220443D01*
X60753627Y-20271963D01*
X60687442Y-20278482D01*
X60621260Y-20285000D01*
X60282740Y-20285000D01*
X60216558Y-20278482D01*
X60150373Y-20271963D01*
X59980534Y-20220443D01*
X59824009Y-20136778D01*
X59763336Y-20086985D01*
X59686814Y-20024186D01*
X59599750Y-19918097D01*
X59574222Y-19886991D01*
X59490557Y-19730466D01*
X59439037Y-19560627D01*
X59421641Y-19384000D01*
X59439037Y-19207373D01*
X59490557Y-19037534D01*
X59574222Y-18881009D01*
X59622166Y-18822589D01*
X59686814Y-18743814D01*
X59795473Y-18654641D01*
X59824009Y-18631222D01*
X59980534Y-18547557D01*
X60150373Y-18496037D01*
X60216558Y-18489518D01*
X60282740Y-18483000D01*
X60621260Y-18483000D01*
X60687442Y-18489518D01*
X60687442Y-18489518D01*
G37*
G36*
X34045626Y-18012037D02*
G01*
X34215465Y-18063557D01*
X34215467Y-18063558D01*
X34371989Y-18147221D01*
X34509186Y-18259814D01*
X34592448Y-18361271D01*
X34621778Y-18397009D01*
X34705443Y-18553534D01*
X34756963Y-18723373D01*
X34756963Y-18723375D01*
X34770000Y-18855740D01*
X34770000Y-19244259D01*
X34764945Y-19295578D01*
X34756963Y-19376626D01*
X34705443Y-19546466D01*
X34621778Y-19702991D01*
X34604421Y-19724140D01*
X34509186Y-19840186D01*
X34414250Y-19918097D01*
X34371991Y-19952778D01*
X34215466Y-20036443D01*
X34045627Y-20087963D01*
X33869000Y-20105359D01*
X33692374Y-20087963D01*
X33522535Y-20036443D01*
X33366010Y-19952778D01*
X33228815Y-19840185D01*
X33116222Y-19702991D01*
X33032557Y-19546466D01*
X32981037Y-19376627D01*
X32973054Y-19295578D01*
X32968000Y-19244260D01*
X32968000Y-18855741D01*
X32975906Y-18775468D01*
X32981037Y-18723374D01*
X33032557Y-18553535D01*
X33035752Y-18547557D01*
X33116221Y-18397011D01*
X33228814Y-18259814D01*
X33330271Y-18176552D01*
X33366009Y-18147222D01*
X33487031Y-18082534D01*
X33522532Y-18063558D01*
X33522534Y-18063557D01*
X33692373Y-18012037D01*
X33869000Y-17994641D01*
X34045626Y-18012037D01*
X34045626Y-18012037D01*
G37*
G36*
X32127600Y-18002989D02*
G01*
X32160652Y-18013015D01*
X32191103Y-18029292D01*
X32217799Y-18051201D01*
X32239708Y-18077897D01*
X32255985Y-18108348D01*
X32266011Y-18141400D01*
X32270000Y-18181903D01*
X32270000Y-19918097D01*
X32266011Y-19958600D01*
X32255985Y-19991652D01*
X32239708Y-20022103D01*
X32217799Y-20048799D01*
X32191103Y-20070708D01*
X32160652Y-20086985D01*
X32127600Y-20097011D01*
X32087097Y-20101000D01*
X30650903Y-20101000D01*
X30610400Y-20097011D01*
X30577348Y-20086985D01*
X30546897Y-20070708D01*
X30520201Y-20048799D01*
X30498292Y-20022103D01*
X30482015Y-19991652D01*
X30471989Y-19958600D01*
X30468000Y-19918097D01*
X30468000Y-18181903D01*
X30471989Y-18141400D01*
X30482015Y-18108348D01*
X30498292Y-18077897D01*
X30520201Y-18051201D01*
X30546897Y-18029292D01*
X30577348Y-18013015D01*
X30610400Y-18002989D01*
X30650903Y-17999000D01*
X32087097Y-17999000D01*
X32127600Y-18002989D01*
X32127600Y-18002989D01*
G37*
G36*
X67926443Y-17534519D02*
G01*
X67992627Y-17541037D01*
X68162466Y-17592557D01*
X68318991Y-17676222D01*
X68354729Y-17705552D01*
X68456186Y-17788814D01*
X68539448Y-17890271D01*
X68568778Y-17926009D01*
X68597339Y-17979442D01*
X68649965Y-18077897D01*
X68652443Y-18082534D01*
X68703963Y-18252373D01*
X68721359Y-18429000D01*
X68703963Y-18605627D01*
X68655910Y-18764037D01*
X68652442Y-18775468D01*
X68635469Y-18807222D01*
X68568778Y-18931991D01*
X68539448Y-18967729D01*
X68456186Y-19069186D01*
X68354729Y-19152448D01*
X68318991Y-19181778D01*
X68162466Y-19265443D01*
X67992627Y-19316963D01*
X67926442Y-19323482D01*
X67860260Y-19330000D01*
X67521740Y-19330000D01*
X67455558Y-19323482D01*
X67389373Y-19316963D01*
X67219534Y-19265443D01*
X67063009Y-19181778D01*
X67027271Y-19152448D01*
X66925814Y-19069186D01*
X66842552Y-18967729D01*
X66813222Y-18931991D01*
X66746531Y-18807222D01*
X66729558Y-18775468D01*
X66726090Y-18764037D01*
X66678037Y-18605627D01*
X66660641Y-18429000D01*
X66678037Y-18252373D01*
X66729557Y-18082534D01*
X66732036Y-18077897D01*
X66784661Y-17979442D01*
X66813222Y-17926009D01*
X66842552Y-17890271D01*
X66925814Y-17788814D01*
X67027271Y-17705552D01*
X67063009Y-17676222D01*
X67219534Y-17592557D01*
X67389373Y-17541037D01*
X67455557Y-17534519D01*
X67521740Y-17528000D01*
X67860260Y-17528000D01*
X67926443Y-17534519D01*
X67926443Y-17534519D01*
G37*
G36*
X72879443Y-17534519D02*
G01*
X72945627Y-17541037D01*
X73115466Y-17592557D01*
X73271991Y-17676222D01*
X73307729Y-17705552D01*
X73409186Y-17788814D01*
X73492448Y-17890271D01*
X73521778Y-17926009D01*
X73550339Y-17979442D01*
X73602965Y-18077897D01*
X73605443Y-18082534D01*
X73656963Y-18252373D01*
X73674359Y-18429000D01*
X73656963Y-18605627D01*
X73608910Y-18764037D01*
X73605442Y-18775468D01*
X73588469Y-18807222D01*
X73521778Y-18931991D01*
X73492448Y-18967729D01*
X73409186Y-19069186D01*
X73307729Y-19152448D01*
X73271991Y-19181778D01*
X73115466Y-19265443D01*
X72945627Y-19316963D01*
X72879442Y-19323482D01*
X72813260Y-19330000D01*
X72474740Y-19330000D01*
X72408558Y-19323482D01*
X72342373Y-19316963D01*
X72172534Y-19265443D01*
X72016009Y-19181778D01*
X71980271Y-19152448D01*
X71878814Y-19069186D01*
X71795552Y-18967729D01*
X71766222Y-18931991D01*
X71699531Y-18807222D01*
X71682558Y-18775468D01*
X71679090Y-18764037D01*
X71631037Y-18605627D01*
X71613641Y-18429000D01*
X71631037Y-18252373D01*
X71682557Y-18082534D01*
X71685036Y-18077897D01*
X71737661Y-17979442D01*
X71766222Y-17926009D01*
X71795552Y-17890271D01*
X71878814Y-17788814D01*
X71980271Y-17705552D01*
X72016009Y-17676222D01*
X72172534Y-17592557D01*
X72342373Y-17541037D01*
X72408557Y-17534519D01*
X72474740Y-17528000D01*
X72813260Y-17528000D01*
X72879443Y-17534519D01*
X72879443Y-17534519D01*
G37*
G36*
X3024178Y-16257000D02*
G01*
X3095627Y-16264037D01*
X3265466Y-16315557D01*
X3421991Y-16399222D01*
X3457729Y-16428552D01*
X3559186Y-16511814D01*
X3642448Y-16613271D01*
X3671778Y-16649009D01*
X3755443Y-16805534D01*
X3806963Y-16975373D01*
X3824359Y-17152000D01*
X3806963Y-17328627D01*
X3755443Y-17498466D01*
X3671778Y-17654991D01*
X3654536Y-17676000D01*
X3559186Y-17792186D01*
X3475216Y-17861097D01*
X3421991Y-17904778D01*
X3265466Y-17988443D01*
X3095627Y-18039963D01*
X3029442Y-18046482D01*
X2963260Y-18053000D01*
X2624740Y-18053000D01*
X2558558Y-18046482D01*
X2492373Y-18039963D01*
X2322534Y-17988443D01*
X2166009Y-17904778D01*
X2112784Y-17861097D01*
X2028814Y-17792186D01*
X1933464Y-17676000D01*
X1916222Y-17654991D01*
X1832557Y-17498466D01*
X1781037Y-17328627D01*
X1763641Y-17152000D01*
X1781037Y-16975373D01*
X1832557Y-16805534D01*
X1916222Y-16649009D01*
X1945552Y-16613271D01*
X2028814Y-16511814D01*
X2130271Y-16428552D01*
X2166009Y-16399222D01*
X2322534Y-16315557D01*
X2492373Y-16264037D01*
X2563822Y-16257000D01*
X2624740Y-16251000D01*
X2963260Y-16251000D01*
X3024178Y-16257000D01*
X3024178Y-16257000D01*
G37*
G36*
X9059627Y-16005037D02*
G01*
X9229466Y-16056557D01*
X9385991Y-16140222D01*
X9421729Y-16169552D01*
X9523186Y-16252814D01*
X9606448Y-16354271D01*
X9635778Y-16390009D01*
X9719443Y-16546534D01*
X9770963Y-16716374D01*
X9770963Y-16716376D01*
X9784000Y-16848741D01*
X9784000Y-17187260D01*
X9779744Y-17230468D01*
X9770963Y-17319627D01*
X9719443Y-17489466D01*
X9635778Y-17645991D01*
X9611150Y-17676000D01*
X9523186Y-17783186D01*
X9385989Y-17895779D01*
X9229467Y-17979442D01*
X9229465Y-17979443D01*
X9059626Y-18030963D01*
X8883000Y-18048359D01*
X8706373Y-18030963D01*
X8536534Y-17979443D01*
X8380009Y-17895778D01*
X8337750Y-17861097D01*
X8242814Y-17783186D01*
X8130221Y-17645989D01*
X8046558Y-17489467D01*
X8015472Y-17386991D01*
X7995037Y-17319626D01*
X7982000Y-17187257D01*
X7982000Y-16848742D01*
X7986256Y-16805534D01*
X7995037Y-16716375D01*
X7995037Y-16716373D01*
X8046557Y-16546534D01*
X8130222Y-16390009D01*
X8242815Y-16252815D01*
X8380010Y-16140222D01*
X8536535Y-16056557D01*
X8706374Y-16005037D01*
X8883000Y-15987641D01*
X9059627Y-16005037D01*
X9059627Y-16005037D01*
G37*
G36*
X11559627Y-16005037D02*
G01*
X11729466Y-16056557D01*
X11885991Y-16140222D01*
X11921729Y-16169552D01*
X12023186Y-16252814D01*
X12106448Y-16354271D01*
X12135778Y-16390009D01*
X12219443Y-16546534D01*
X12270963Y-16716374D01*
X12270963Y-16716376D01*
X12284000Y-16848741D01*
X12284000Y-17187260D01*
X12279744Y-17230468D01*
X12270963Y-17319627D01*
X12219443Y-17489466D01*
X12135778Y-17645991D01*
X12111150Y-17676000D01*
X12023186Y-17783186D01*
X11885989Y-17895779D01*
X11729467Y-17979442D01*
X11729465Y-17979443D01*
X11559626Y-18030963D01*
X11383000Y-18048359D01*
X11206373Y-18030963D01*
X11036534Y-17979443D01*
X10880009Y-17895778D01*
X10837750Y-17861097D01*
X10742814Y-17783186D01*
X10630221Y-17645989D01*
X10546558Y-17489467D01*
X10515472Y-17386991D01*
X10495037Y-17319626D01*
X10482000Y-17187257D01*
X10482000Y-16848742D01*
X10486256Y-16805534D01*
X10495037Y-16716375D01*
X10495037Y-16716373D01*
X10546557Y-16546534D01*
X10630222Y-16390009D01*
X10742815Y-16252815D01*
X10880010Y-16140222D01*
X11036535Y-16056557D01*
X11206374Y-16005037D01*
X11383000Y-15987641D01*
X11559627Y-16005037D01*
X11559627Y-16005037D01*
G37*
G36*
X14059627Y-16005037D02*
G01*
X14229466Y-16056557D01*
X14385991Y-16140222D01*
X14421729Y-16169552D01*
X14523186Y-16252814D01*
X14606448Y-16354271D01*
X14635778Y-16390009D01*
X14719443Y-16546534D01*
X14770963Y-16716374D01*
X14770963Y-16716376D01*
X14784000Y-16848741D01*
X14784000Y-17187260D01*
X14779744Y-17230468D01*
X14770963Y-17319627D01*
X14719443Y-17489466D01*
X14635778Y-17645991D01*
X14611150Y-17676000D01*
X14523186Y-17783186D01*
X14385989Y-17895779D01*
X14229467Y-17979442D01*
X14229465Y-17979443D01*
X14059626Y-18030963D01*
X13883000Y-18048359D01*
X13706373Y-18030963D01*
X13536534Y-17979443D01*
X13380009Y-17895778D01*
X13337750Y-17861097D01*
X13242814Y-17783186D01*
X13130221Y-17645989D01*
X13046558Y-17489467D01*
X13015472Y-17386991D01*
X12995037Y-17319626D01*
X12982000Y-17187257D01*
X12982000Y-16848742D01*
X12986256Y-16805534D01*
X12995037Y-16716375D01*
X12995037Y-16716373D01*
X13046557Y-16546534D01*
X13130222Y-16390009D01*
X13242815Y-16252815D01*
X13380010Y-16140222D01*
X13536535Y-16056557D01*
X13706374Y-16005037D01*
X13883000Y-15987641D01*
X14059627Y-16005037D01*
X14059627Y-16005037D01*
G37*
G36*
X17141600Y-15995989D02*
G01*
X17174652Y-16006015D01*
X17205103Y-16022292D01*
X17231799Y-16044201D01*
X17253708Y-16070897D01*
X17269985Y-16101348D01*
X17280011Y-16134400D01*
X17284000Y-16174903D01*
X17284000Y-17861097D01*
X17280011Y-17901600D01*
X17269985Y-17934652D01*
X17253708Y-17965103D01*
X17231799Y-17991799D01*
X17205103Y-18013708D01*
X17174652Y-18029985D01*
X17141600Y-18040011D01*
X17101097Y-18044000D01*
X15664903Y-18044000D01*
X15624400Y-18040011D01*
X15591348Y-18029985D01*
X15560897Y-18013708D01*
X15534201Y-17991799D01*
X15512292Y-17965103D01*
X15496015Y-17934652D01*
X15485989Y-17901600D01*
X15482000Y-17861097D01*
X15482000Y-16174903D01*
X15485989Y-16134400D01*
X15496015Y-16101348D01*
X15512292Y-16070897D01*
X15534201Y-16044201D01*
X15560897Y-16022292D01*
X15591348Y-16006015D01*
X15624400Y-15995989D01*
X15664903Y-15992000D01*
X17101097Y-15992000D01*
X17141600Y-15995989D01*
X17141600Y-15995989D01*
G37*
G36*
X60668380Y-15987641D02*
G01*
X60753627Y-15996037D01*
X60923466Y-16047557D01*
X60923468Y-16047558D01*
X60964737Y-16069617D01*
X61079991Y-16131222D01*
X61109682Y-16155589D01*
X61217186Y-16243814D01*
X61300448Y-16345271D01*
X61329778Y-16381009D01*
X61413443Y-16537534D01*
X61464963Y-16707373D01*
X61482359Y-16884000D01*
X61464963Y-17060627D01*
X61413443Y-17230466D01*
X61329778Y-17386991D01*
X61300448Y-17422729D01*
X61217186Y-17524186D01*
X61133874Y-17592557D01*
X61079991Y-17636778D01*
X60923466Y-17720443D01*
X60753627Y-17771963D01*
X60687443Y-17778481D01*
X60621260Y-17785000D01*
X60282740Y-17785000D01*
X60216557Y-17778481D01*
X60150373Y-17771963D01*
X59980534Y-17720443D01*
X59824009Y-17636778D01*
X59770126Y-17592557D01*
X59686814Y-17524186D01*
X59603552Y-17422729D01*
X59574222Y-17386991D01*
X59490557Y-17230466D01*
X59439037Y-17060627D01*
X59421641Y-16884000D01*
X59439037Y-16707373D01*
X59490557Y-16537534D01*
X59574222Y-16381009D01*
X59603552Y-16345271D01*
X59686814Y-16243814D01*
X59794318Y-16155589D01*
X59824009Y-16131222D01*
X59939263Y-16069617D01*
X59980532Y-16047558D01*
X59980534Y-16047557D01*
X60150373Y-15996037D01*
X60235620Y-15987641D01*
X60282740Y-15983000D01*
X60621260Y-15983000D01*
X60668380Y-15987641D01*
X60668380Y-15987641D01*
G37*
G36*
X72879442Y-15034518D02*
G01*
X72945627Y-15041037D01*
X73115466Y-15092557D01*
X73271991Y-15176222D01*
X73297004Y-15196750D01*
X73409186Y-15288814D01*
X73478912Y-15373777D01*
X73521778Y-15426009D01*
X73605443Y-15582534D01*
X73656963Y-15752373D01*
X73674359Y-15929000D01*
X73656963Y-16105627D01*
X73605443Y-16275466D01*
X73521778Y-16431991D01*
X73492448Y-16467729D01*
X73409186Y-16569186D01*
X73307729Y-16652448D01*
X73271991Y-16681778D01*
X73115466Y-16765443D01*
X72945627Y-16816963D01*
X72879442Y-16823482D01*
X72813260Y-16830000D01*
X72474740Y-16830000D01*
X72408558Y-16823482D01*
X72342373Y-16816963D01*
X72172534Y-16765443D01*
X72016009Y-16681778D01*
X71980271Y-16652448D01*
X71878814Y-16569186D01*
X71795552Y-16467729D01*
X71766222Y-16431991D01*
X71682557Y-16275466D01*
X71631037Y-16105627D01*
X71613641Y-15929000D01*
X71631037Y-15752373D01*
X71682557Y-15582534D01*
X71766222Y-15426009D01*
X71809088Y-15373777D01*
X71878814Y-15288814D01*
X71990996Y-15196750D01*
X72016009Y-15176222D01*
X72172534Y-15092557D01*
X72342373Y-15041037D01*
X72408558Y-15034518D01*
X72474740Y-15028000D01*
X72813260Y-15028000D01*
X72879442Y-15034518D01*
X72879442Y-15034518D01*
G37*
G36*
X67926442Y-15034518D02*
G01*
X67992627Y-15041037D01*
X68162466Y-15092557D01*
X68318991Y-15176222D01*
X68344004Y-15196750D01*
X68456186Y-15288814D01*
X68525912Y-15373777D01*
X68568778Y-15426009D01*
X68652443Y-15582534D01*
X68703963Y-15752373D01*
X68721359Y-15929000D01*
X68703963Y-16105627D01*
X68652443Y-16275466D01*
X68568778Y-16431991D01*
X68539448Y-16467729D01*
X68456186Y-16569186D01*
X68354729Y-16652448D01*
X68318991Y-16681778D01*
X68162466Y-16765443D01*
X67992627Y-16816963D01*
X67926442Y-16823482D01*
X67860260Y-16830000D01*
X67521740Y-16830000D01*
X67455558Y-16823482D01*
X67389373Y-16816963D01*
X67219534Y-16765443D01*
X67063009Y-16681778D01*
X67027271Y-16652448D01*
X66925814Y-16569186D01*
X66842552Y-16467729D01*
X66813222Y-16431991D01*
X66729557Y-16275466D01*
X66678037Y-16105627D01*
X66660641Y-15929000D01*
X66678037Y-15752373D01*
X66729557Y-15582534D01*
X66813222Y-15426009D01*
X66856088Y-15373777D01*
X66925814Y-15288814D01*
X67037996Y-15196750D01*
X67063009Y-15176222D01*
X67219534Y-15092557D01*
X67389373Y-15041037D01*
X67455558Y-15034518D01*
X67521740Y-15028000D01*
X67860260Y-15028000D01*
X67926442Y-15034518D01*
X67926442Y-15034518D01*
G37*
G36*
X40261627Y-14100037D02*
G01*
X40431466Y-14151557D01*
X40587991Y-14235222D01*
X40623729Y-14264552D01*
X40725186Y-14347814D01*
X40787993Y-14424346D01*
X40837778Y-14485009D01*
X40921443Y-14641534D01*
X40972963Y-14811374D01*
X40972963Y-14811376D01*
X40986000Y-14943741D01*
X40986000Y-15282260D01*
X40980496Y-15338138D01*
X40972963Y-15414627D01*
X40921443Y-15584466D01*
X40837778Y-15740991D01*
X40828437Y-15752373D01*
X40725186Y-15878186D01*
X40587989Y-15990779D01*
X40440494Y-16069617D01*
X40431465Y-16074443D01*
X40261626Y-16125963D01*
X40085000Y-16143359D01*
X39908373Y-16125963D01*
X39738534Y-16074443D01*
X39582009Y-15990778D01*
X39539750Y-15956097D01*
X39444814Y-15878186D01*
X39332221Y-15740989D01*
X39248558Y-15584467D01*
X39248557Y-15584465D01*
X39197037Y-15414626D01*
X39189504Y-15338138D01*
X39184000Y-15282259D01*
X39184000Y-14943740D01*
X39197037Y-14811375D01*
X39197037Y-14811373D01*
X39248557Y-14641534D01*
X39332222Y-14485009D01*
X39444815Y-14347815D01*
X39582010Y-14235222D01*
X39738535Y-14151557D01*
X39908374Y-14100037D01*
X40085000Y-14082641D01*
X40261627Y-14100037D01*
X40261627Y-14100037D01*
G37*
G36*
X42761627Y-14100037D02*
G01*
X42931466Y-14151557D01*
X43087991Y-14235222D01*
X43123729Y-14264552D01*
X43225186Y-14347814D01*
X43287993Y-14424346D01*
X43337778Y-14485009D01*
X43421443Y-14641534D01*
X43472963Y-14811374D01*
X43472963Y-14811376D01*
X43486000Y-14943741D01*
X43486000Y-15282260D01*
X43480496Y-15338138D01*
X43472963Y-15414627D01*
X43421443Y-15584466D01*
X43337778Y-15740991D01*
X43328437Y-15752373D01*
X43225186Y-15878186D01*
X43087989Y-15990779D01*
X42940494Y-16069617D01*
X42931465Y-16074443D01*
X42761626Y-16125963D01*
X42585000Y-16143359D01*
X42408373Y-16125963D01*
X42238534Y-16074443D01*
X42082009Y-15990778D01*
X42039750Y-15956097D01*
X41944814Y-15878186D01*
X41832221Y-15740989D01*
X41748558Y-15584467D01*
X41748557Y-15584465D01*
X41697037Y-15414626D01*
X41689504Y-15338138D01*
X41684000Y-15282259D01*
X41684000Y-14943740D01*
X41697037Y-14811375D01*
X41697037Y-14811373D01*
X41748557Y-14641534D01*
X41832222Y-14485009D01*
X41944815Y-14347815D01*
X42082010Y-14235222D01*
X42238535Y-14151557D01*
X42408374Y-14100037D01*
X42585000Y-14082641D01*
X42761627Y-14100037D01*
X42761627Y-14100037D01*
G37*
G36*
X45843600Y-14090989D02*
G01*
X45876652Y-14101015D01*
X45907103Y-14117292D01*
X45933799Y-14139201D01*
X45955708Y-14165897D01*
X45971985Y-14196348D01*
X45982011Y-14229400D01*
X45986000Y-14269903D01*
X45986000Y-15956097D01*
X45982011Y-15996600D01*
X45971985Y-16029652D01*
X45955708Y-16060103D01*
X45933799Y-16086799D01*
X45907103Y-16108708D01*
X45876652Y-16124985D01*
X45843600Y-16135011D01*
X45803097Y-16139000D01*
X44366903Y-16139000D01*
X44326400Y-16135011D01*
X44293348Y-16124985D01*
X44262897Y-16108708D01*
X44236201Y-16086799D01*
X44214292Y-16060103D01*
X44198015Y-16029652D01*
X44187989Y-15996600D01*
X44184000Y-15956097D01*
X44184000Y-14269903D01*
X44187989Y-14229400D01*
X44198015Y-14196348D01*
X44214292Y-14165897D01*
X44236201Y-14139201D01*
X44262897Y-14117292D01*
X44293348Y-14101015D01*
X44326400Y-14090989D01*
X44366903Y-14087000D01*
X45803097Y-14087000D01*
X45843600Y-14090989D01*
X45843600Y-14090989D01*
G37*
G36*
X3029442Y-13757518D02*
G01*
X3095627Y-13764037D01*
X3265466Y-13815557D01*
X3421991Y-13899222D01*
X3457729Y-13928552D01*
X3559186Y-14011814D01*
X3632390Y-14101015D01*
X3671778Y-14149009D01*
X3755443Y-14305534D01*
X3806963Y-14475373D01*
X3824359Y-14652000D01*
X3806963Y-14828627D01*
X3755443Y-14998466D01*
X3671778Y-15154991D01*
X3654355Y-15176221D01*
X3559186Y-15292186D01*
X3459766Y-15373777D01*
X3421991Y-15404778D01*
X3265466Y-15488443D01*
X3095627Y-15539963D01*
X3029443Y-15546481D01*
X2963260Y-15553000D01*
X2624740Y-15553000D01*
X2558557Y-15546481D01*
X2492373Y-15539963D01*
X2322534Y-15488443D01*
X2166009Y-15404778D01*
X2128234Y-15373777D01*
X2028814Y-15292186D01*
X1933645Y-15176221D01*
X1916222Y-15154991D01*
X1832557Y-14998466D01*
X1781037Y-14828627D01*
X1763641Y-14652000D01*
X1781037Y-14475373D01*
X1832557Y-14305534D01*
X1916222Y-14149009D01*
X1955610Y-14101015D01*
X2028814Y-14011814D01*
X2130271Y-13928552D01*
X2166009Y-13899222D01*
X2322534Y-13815557D01*
X2492373Y-13764037D01*
X2558558Y-13757518D01*
X2624740Y-13751000D01*
X2963260Y-13751000D01*
X3029442Y-13757518D01*
X3029442Y-13757518D01*
G37*
G36*
X16964468Y-14393565D02*
G01*
X17003138Y-14405296D01*
X17038777Y-14424346D01*
X17070017Y-14449983D01*
X17095654Y-14481223D01*
X17114704Y-14516862D01*
X17126435Y-14555532D01*
X17131000Y-14601888D01*
X17131000Y-15253112D01*
X17126435Y-15299468D01*
X17114704Y-15338138D01*
X17095654Y-15373777D01*
X17070017Y-15405017D01*
X17038777Y-15430654D01*
X17003138Y-15449704D01*
X16964468Y-15461435D01*
X16918112Y-15466000D01*
X15841888Y-15466000D01*
X15795532Y-15461435D01*
X15756862Y-15449704D01*
X15721223Y-15430654D01*
X15689983Y-15405017D01*
X15664346Y-15373777D01*
X15645296Y-15338138D01*
X15633565Y-15299468D01*
X15629000Y-15253112D01*
X15629000Y-14601888D01*
X15633565Y-14555532D01*
X15645296Y-14516862D01*
X15664346Y-14481223D01*
X15689983Y-14449983D01*
X15721223Y-14424346D01*
X15756862Y-14405296D01*
X15795532Y-14393565D01*
X15841888Y-14389000D01*
X16918112Y-14389000D01*
X16964468Y-14393565D01*
X16964468Y-14393565D01*
G37*
G36*
X60687443Y-13489519D02*
G01*
X60753627Y-13496037D01*
X60923466Y-13547557D01*
X61079991Y-13631222D01*
X61115729Y-13660552D01*
X61217186Y-13743814D01*
X61300448Y-13845271D01*
X61329778Y-13881009D01*
X61413443Y-14037534D01*
X61464963Y-14207373D01*
X61482359Y-14384000D01*
X61464963Y-14560627D01*
X61413443Y-14730466D01*
X61329778Y-14886991D01*
X61300448Y-14922729D01*
X61217186Y-15024186D01*
X61133874Y-15092557D01*
X61079991Y-15136778D01*
X60923466Y-15220443D01*
X60753627Y-15271963D01*
X60687442Y-15278482D01*
X60621260Y-15285000D01*
X60282740Y-15285000D01*
X60216558Y-15278482D01*
X60150373Y-15271963D01*
X59980534Y-15220443D01*
X59824009Y-15136778D01*
X59770126Y-15092557D01*
X59686814Y-15024186D01*
X59603552Y-14922729D01*
X59574222Y-14886991D01*
X59490557Y-14730466D01*
X59439037Y-14560627D01*
X59421641Y-14384000D01*
X59439037Y-14207373D01*
X59490557Y-14037534D01*
X59574222Y-13881009D01*
X59603552Y-13845271D01*
X59686814Y-13743814D01*
X59788271Y-13660552D01*
X59824009Y-13631222D01*
X59980534Y-13547557D01*
X60150373Y-13496037D01*
X60216557Y-13489519D01*
X60282740Y-13483000D01*
X60621260Y-13483000D01*
X60687443Y-13489519D01*
X60687443Y-13489519D01*
G37*
G36*
X72879204Y-12534495D02*
G01*
X72945627Y-12541037D01*
X73115466Y-12592557D01*
X73115468Y-12592558D01*
X73141033Y-12606223D01*
X73271991Y-12676222D01*
X73307729Y-12705552D01*
X73409186Y-12788814D01*
X73492448Y-12890271D01*
X73521778Y-12926009D01*
X73605443Y-13082534D01*
X73656963Y-13252373D01*
X73674359Y-13429000D01*
X73656963Y-13605627D01*
X73605443Y-13775466D01*
X73521778Y-13931991D01*
X73492448Y-13967729D01*
X73409186Y-14069186D01*
X73308815Y-14151557D01*
X73271991Y-14181778D01*
X73115466Y-14265443D01*
X72945627Y-14316963D01*
X72879443Y-14323481D01*
X72813260Y-14330000D01*
X72474740Y-14330000D01*
X72408557Y-14323481D01*
X72342373Y-14316963D01*
X72172534Y-14265443D01*
X72016009Y-14181778D01*
X71979185Y-14151557D01*
X71878814Y-14069186D01*
X71795552Y-13967729D01*
X71766222Y-13931991D01*
X71682557Y-13775466D01*
X71631037Y-13605627D01*
X71613641Y-13429000D01*
X71631037Y-13252373D01*
X71682557Y-13082534D01*
X71766222Y-12926009D01*
X71795552Y-12890271D01*
X71878814Y-12788814D01*
X71980271Y-12705552D01*
X72016009Y-12676222D01*
X72146967Y-12606223D01*
X72172532Y-12592558D01*
X72172534Y-12592557D01*
X72342373Y-12541037D01*
X72408796Y-12534495D01*
X72474740Y-12528000D01*
X72813260Y-12528000D01*
X72879204Y-12534495D01*
X72879204Y-12534495D01*
G37*
G36*
X67926204Y-12534495D02*
G01*
X67992627Y-12541037D01*
X68162466Y-12592557D01*
X68162468Y-12592558D01*
X68188033Y-12606223D01*
X68318991Y-12676222D01*
X68354729Y-12705552D01*
X68456186Y-12788814D01*
X68539448Y-12890271D01*
X68568778Y-12926009D01*
X68652443Y-13082534D01*
X68703963Y-13252373D01*
X68721359Y-13429000D01*
X68703963Y-13605627D01*
X68652443Y-13775466D01*
X68568778Y-13931991D01*
X68539448Y-13967729D01*
X68456186Y-14069186D01*
X68355815Y-14151557D01*
X68318991Y-14181778D01*
X68162466Y-14265443D01*
X67992627Y-14316963D01*
X67926443Y-14323481D01*
X67860260Y-14330000D01*
X67521740Y-14330000D01*
X67455557Y-14323481D01*
X67389373Y-14316963D01*
X67219534Y-14265443D01*
X67063009Y-14181778D01*
X67026185Y-14151557D01*
X66925814Y-14069186D01*
X66842552Y-13967729D01*
X66813222Y-13931991D01*
X66729557Y-13775466D01*
X66678037Y-13605627D01*
X66660641Y-13429000D01*
X66678037Y-13252373D01*
X66729557Y-13082534D01*
X66813222Y-12926009D01*
X66842552Y-12890271D01*
X66925814Y-12788814D01*
X67027271Y-12705552D01*
X67063009Y-12676222D01*
X67193967Y-12606223D01*
X67219532Y-12592558D01*
X67219534Y-12592557D01*
X67389373Y-12541037D01*
X67455796Y-12534495D01*
X67521740Y-12528000D01*
X67860260Y-12528000D01*
X67926204Y-12534495D01*
X67926204Y-12534495D01*
G37*
G36*
X15902546Y-9803134D02*
G01*
X15937010Y-9813589D01*
X15968761Y-9830560D01*
X15996597Y-9853403D01*
X16019440Y-9881239D01*
X16036411Y-9912990D01*
X16046866Y-9947454D01*
X16051000Y-9989425D01*
X16051000Y-12210575D01*
X16046866Y-12252546D01*
X16036411Y-12287010D01*
X16013912Y-12329103D01*
X16013257Y-12330084D01*
X16003881Y-12352724D01*
X15999102Y-12376757D01*
X15999104Y-12401261D01*
X16003886Y-12425294D01*
X16013265Y-12447932D01*
X16026880Y-12468306D01*
X16044208Y-12485632D01*
X16064583Y-12499244D01*
X16087223Y-12508620D01*
X16123500Y-12514000D01*
X16918112Y-12514000D01*
X16964468Y-12518565D01*
X17003138Y-12530296D01*
X17038777Y-12549346D01*
X17070017Y-12574983D01*
X17095654Y-12606223D01*
X17114704Y-12641862D01*
X17126435Y-12680532D01*
X17131000Y-12726888D01*
X17131000Y-13378112D01*
X17126435Y-13424468D01*
X17114704Y-13463138D01*
X17095654Y-13498777D01*
X17070017Y-13530017D01*
X17038777Y-13555654D01*
X17003138Y-13574704D01*
X16964468Y-13586435D01*
X16918112Y-13591000D01*
X15841888Y-13591000D01*
X15795532Y-13586435D01*
X15756862Y-13574704D01*
X15721223Y-13555654D01*
X15689983Y-13530017D01*
X15664346Y-13498777D01*
X15645296Y-13463138D01*
X15633565Y-13424468D01*
X15629000Y-13378112D01*
X15629000Y-12726888D01*
X15633565Y-12680532D01*
X15645296Y-12641862D01*
X15664346Y-12606223D01*
X15665104Y-12605299D01*
X15678718Y-12584925D01*
X15688096Y-12562286D01*
X15692877Y-12538253D01*
X15692877Y-12513749D01*
X15688097Y-12489716D01*
X15678720Y-12467077D01*
X15665107Y-12446702D01*
X15647780Y-12429375D01*
X15627406Y-12415761D01*
X15604767Y-12406383D01*
X15580734Y-12401602D01*
X15568480Y-12401000D01*
X14639425Y-12401000D01*
X14597454Y-12396866D01*
X14562990Y-12386411D01*
X14531239Y-12369440D01*
X14503403Y-12346597D01*
X14480560Y-12318761D01*
X14463589Y-12287010D01*
X14453134Y-12252546D01*
X14449000Y-12210575D01*
X14449000Y-9989425D01*
X14453134Y-9947454D01*
X14463589Y-9912990D01*
X14480560Y-9881239D01*
X14503403Y-9853403D01*
X14531239Y-9830560D01*
X14562990Y-9813589D01*
X14597454Y-9803134D01*
X14639425Y-9799000D01*
X15860575Y-9799000D01*
X15902546Y-9803134D01*
X15902546Y-9803134D01*
G37*
G36*
X3029443Y-11257519D02*
G01*
X3095627Y-11264037D01*
X3265466Y-11315557D01*
X3421991Y-11399222D01*
X3457729Y-11428552D01*
X3559186Y-11511814D01*
X3642448Y-11613271D01*
X3671778Y-11649009D01*
X3755443Y-11805534D01*
X3806963Y-11975373D01*
X3824359Y-12152000D01*
X3806963Y-12328627D01*
X3755443Y-12498466D01*
X3671778Y-12654991D01*
X3650817Y-12680532D01*
X3559186Y-12792186D01*
X3457729Y-12875448D01*
X3421991Y-12904778D01*
X3265466Y-12988443D01*
X3095627Y-13039963D01*
X3029442Y-13046482D01*
X2963260Y-13053000D01*
X2624740Y-13053000D01*
X2558558Y-13046482D01*
X2492373Y-13039963D01*
X2322534Y-12988443D01*
X2166009Y-12904778D01*
X2130271Y-12875448D01*
X2028814Y-12792186D01*
X1937183Y-12680532D01*
X1916222Y-12654991D01*
X1832557Y-12498466D01*
X1781037Y-12328627D01*
X1763641Y-12152000D01*
X1781037Y-11975373D01*
X1832557Y-11805534D01*
X1916222Y-11649009D01*
X1945552Y-11613271D01*
X2028814Y-11511814D01*
X2130271Y-11428552D01*
X2166009Y-11399222D01*
X2322534Y-11315557D01*
X2492373Y-11264037D01*
X2558557Y-11257519D01*
X2624740Y-11251000D01*
X2963260Y-11251000D01*
X3029443Y-11257519D01*
X3029443Y-11257519D01*
G37*
G36*
X60687443Y-10989519D02*
G01*
X60753627Y-10996037D01*
X60923466Y-11047557D01*
X61079991Y-11131222D01*
X61115729Y-11160552D01*
X61217186Y-11243814D01*
X61300448Y-11345271D01*
X61329778Y-11381009D01*
X61413443Y-11537534D01*
X61464963Y-11707373D01*
X61482359Y-11884000D01*
X61464963Y-12060627D01*
X61413443Y-12230466D01*
X61329778Y-12386991D01*
X61317787Y-12401602D01*
X61217186Y-12524186D01*
X61143174Y-12584925D01*
X61079991Y-12636778D01*
X60923466Y-12720443D01*
X60753627Y-12771963D01*
X60687443Y-12778481D01*
X60621260Y-12785000D01*
X60282740Y-12785000D01*
X60216557Y-12778481D01*
X60150373Y-12771963D01*
X59980534Y-12720443D01*
X59824009Y-12636778D01*
X59760826Y-12584925D01*
X59686814Y-12524186D01*
X59586213Y-12401602D01*
X59574222Y-12386991D01*
X59490557Y-12230466D01*
X59439037Y-12060627D01*
X59421641Y-11884000D01*
X59439037Y-11707373D01*
X59490557Y-11537534D01*
X59574222Y-11381009D01*
X59603552Y-11345271D01*
X59686814Y-11243814D01*
X59788271Y-11160552D01*
X59824009Y-11131222D01*
X59980534Y-11047557D01*
X60150373Y-10996037D01*
X60216557Y-10989519D01*
X60282740Y-10983000D01*
X60621260Y-10983000D01*
X60687443Y-10989519D01*
X60687443Y-10989519D01*
G37*
G36*
X28902546Y-9803134D02*
G01*
X28937010Y-9813589D01*
X28968761Y-9830560D01*
X28996597Y-9853403D01*
X29019440Y-9881239D01*
X29036411Y-9912990D01*
X29046866Y-9947454D01*
X29051000Y-9989425D01*
X29051000Y-12210575D01*
X29046866Y-12252546D01*
X29036411Y-12287010D01*
X29019440Y-12318761D01*
X28996597Y-12346597D01*
X28968761Y-12369440D01*
X28937010Y-12386411D01*
X28902546Y-12396866D01*
X28860575Y-12401000D01*
X27639425Y-12401000D01*
X27597454Y-12396866D01*
X27562990Y-12386411D01*
X27531239Y-12369440D01*
X27503403Y-12346597D01*
X27480560Y-12318761D01*
X27463589Y-12287010D01*
X27453134Y-12252546D01*
X27449000Y-12210575D01*
X27449000Y-9989425D01*
X27453134Y-9947454D01*
X27463589Y-9912990D01*
X27480560Y-9881239D01*
X27503403Y-9853403D01*
X27531239Y-9830560D01*
X27562990Y-9813589D01*
X27597454Y-9803134D01*
X27639425Y-9799000D01*
X28860575Y-9799000D01*
X28902546Y-9803134D01*
X28902546Y-9803134D01*
G37*
G36*
X54902546Y-9803134D02*
G01*
X54937010Y-9813589D01*
X54968761Y-9830560D01*
X54996597Y-9853403D01*
X55019440Y-9881239D01*
X55036411Y-9912990D01*
X55046866Y-9947454D01*
X55051000Y-9989425D01*
X55051000Y-12210575D01*
X55046866Y-12252546D01*
X55036411Y-12287010D01*
X55019440Y-12318761D01*
X54996597Y-12346597D01*
X54968761Y-12369440D01*
X54937010Y-12386411D01*
X54902546Y-12396866D01*
X54860575Y-12401000D01*
X53639425Y-12401000D01*
X53597454Y-12396866D01*
X53562990Y-12386411D01*
X53531239Y-12369440D01*
X53503403Y-12346597D01*
X53480560Y-12318761D01*
X53463589Y-12287010D01*
X53453134Y-12252546D01*
X53449000Y-12210575D01*
X53449000Y-9989425D01*
X53453134Y-9947454D01*
X53463589Y-9912990D01*
X53480560Y-9881239D01*
X53503403Y-9853403D01*
X53531239Y-9830560D01*
X53562990Y-9813589D01*
X53597454Y-9803134D01*
X53639425Y-9799000D01*
X54860575Y-9799000D01*
X54902546Y-9803134D01*
X54902546Y-9803134D01*
G37*
G36*
X22202546Y-9803134D02*
G01*
X22237010Y-9813589D01*
X22268761Y-9830560D01*
X22296597Y-9853403D01*
X22319440Y-9881239D01*
X22336411Y-9912990D01*
X22346866Y-9947454D01*
X22351000Y-9989425D01*
X22351000Y-12210575D01*
X22346866Y-12252546D01*
X22336411Y-12287010D01*
X22319440Y-12318761D01*
X22296597Y-12346597D01*
X22268761Y-12369440D01*
X22237010Y-12386411D01*
X22202546Y-12396866D01*
X22160575Y-12401000D01*
X20939425Y-12401000D01*
X20897454Y-12396866D01*
X20862990Y-12386411D01*
X20831239Y-12369440D01*
X20803403Y-12346597D01*
X20780560Y-12318761D01*
X20763589Y-12287010D01*
X20753134Y-12252546D01*
X20749000Y-12210575D01*
X20749000Y-9989425D01*
X20753134Y-9947454D01*
X20763589Y-9912990D01*
X20780560Y-9881239D01*
X20803403Y-9853403D01*
X20831239Y-9830560D01*
X20862990Y-9813589D01*
X20897454Y-9803134D01*
X20939425Y-9799000D01*
X22160575Y-9799000D01*
X22202546Y-9803134D01*
X22202546Y-9803134D01*
G37*
G36*
X9202546Y-9803134D02*
G01*
X9237010Y-9813589D01*
X9268761Y-9830560D01*
X9296597Y-9853403D01*
X9319440Y-9881239D01*
X9336411Y-9912990D01*
X9346866Y-9947454D01*
X9351000Y-9989425D01*
X9351000Y-12210575D01*
X9346866Y-12252546D01*
X9336411Y-12287010D01*
X9319440Y-12318761D01*
X9296597Y-12346597D01*
X9268761Y-12369440D01*
X9237010Y-12386411D01*
X9202546Y-12396866D01*
X9160575Y-12401000D01*
X7939425Y-12401000D01*
X7897454Y-12396866D01*
X7862990Y-12386411D01*
X7831239Y-12369440D01*
X7803403Y-12346597D01*
X7780560Y-12318761D01*
X7763589Y-12287010D01*
X7753134Y-12252546D01*
X7749000Y-12210575D01*
X7749000Y-9989425D01*
X7753134Y-9947454D01*
X7763589Y-9912990D01*
X7780560Y-9881239D01*
X7803403Y-9853403D01*
X7831239Y-9830560D01*
X7862990Y-9813589D01*
X7897454Y-9803134D01*
X7939425Y-9799000D01*
X9160575Y-9799000D01*
X9202546Y-9803134D01*
X9202546Y-9803134D01*
G37*
G36*
X35202546Y-9803134D02*
G01*
X35237010Y-9813589D01*
X35268761Y-9830560D01*
X35296597Y-9853403D01*
X35319440Y-9881239D01*
X35336411Y-9912990D01*
X35346866Y-9947454D01*
X35351000Y-9989425D01*
X35351000Y-12210575D01*
X35346866Y-12252546D01*
X35336411Y-12287010D01*
X35319440Y-12318761D01*
X35296597Y-12346597D01*
X35268761Y-12369440D01*
X35237010Y-12386411D01*
X35202546Y-12396866D01*
X35160575Y-12401000D01*
X33939425Y-12401000D01*
X33897454Y-12396866D01*
X33862990Y-12386411D01*
X33831239Y-12369440D01*
X33803403Y-12346597D01*
X33780560Y-12318761D01*
X33763589Y-12287010D01*
X33753134Y-12252546D01*
X33749000Y-12210575D01*
X33749000Y-9989425D01*
X33753134Y-9947454D01*
X33763589Y-9912990D01*
X33780560Y-9881239D01*
X33803403Y-9853403D01*
X33831239Y-9830560D01*
X33862990Y-9813589D01*
X33897454Y-9803134D01*
X33939425Y-9799000D01*
X35160575Y-9799000D01*
X35202546Y-9803134D01*
X35202546Y-9803134D01*
G37*
G36*
X41902546Y-9803134D02*
G01*
X41937010Y-9813589D01*
X41968761Y-9830560D01*
X41996597Y-9853403D01*
X42019440Y-9881239D01*
X42036411Y-9912990D01*
X42046866Y-9947454D01*
X42051000Y-9989425D01*
X42051000Y-12210575D01*
X42046866Y-12252546D01*
X42036411Y-12287010D01*
X42019440Y-12318761D01*
X41996597Y-12346597D01*
X41968761Y-12369440D01*
X41937010Y-12386411D01*
X41902546Y-12396866D01*
X41860575Y-12401000D01*
X40639425Y-12401000D01*
X40597454Y-12396866D01*
X40562990Y-12386411D01*
X40531239Y-12369440D01*
X40503403Y-12346597D01*
X40480560Y-12318761D01*
X40463589Y-12287010D01*
X40453134Y-12252546D01*
X40449000Y-12210575D01*
X40449000Y-9989425D01*
X40453134Y-9947454D01*
X40463589Y-9912990D01*
X40480560Y-9881239D01*
X40503403Y-9853403D01*
X40531239Y-9830560D01*
X40562990Y-9813589D01*
X40597454Y-9803134D01*
X40639425Y-9799000D01*
X41860575Y-9799000D01*
X41902546Y-9803134D01*
X41902546Y-9803134D01*
G37*
G36*
X48202546Y-9803134D02*
G01*
X48237010Y-9813589D01*
X48268761Y-9830560D01*
X48296597Y-9853403D01*
X48319440Y-9881239D01*
X48336411Y-9912990D01*
X48346866Y-9947454D01*
X48351000Y-9989425D01*
X48351000Y-12210575D01*
X48346866Y-12252546D01*
X48336411Y-12287010D01*
X48319440Y-12318761D01*
X48296597Y-12346597D01*
X48268761Y-12369440D01*
X48237010Y-12386411D01*
X48202546Y-12396866D01*
X48160575Y-12401000D01*
X46939425Y-12401000D01*
X46897454Y-12396866D01*
X46862990Y-12386411D01*
X46831239Y-12369440D01*
X46803403Y-12346597D01*
X46780560Y-12318761D01*
X46763589Y-12287010D01*
X46753134Y-12252546D01*
X46749000Y-12210575D01*
X46749000Y-9989425D01*
X46753134Y-9947454D01*
X46763589Y-9912990D01*
X46780560Y-9881239D01*
X46803403Y-9853403D01*
X46831239Y-9830560D01*
X46862990Y-9813589D01*
X46897454Y-9803134D01*
X46939425Y-9799000D01*
X48160575Y-9799000D01*
X48202546Y-9803134D01*
X48202546Y-9803134D01*
G37*
G36*
X67926442Y-10034518D02*
G01*
X67992627Y-10041037D01*
X68162466Y-10092557D01*
X68318991Y-10176222D01*
X68354729Y-10205552D01*
X68456186Y-10288814D01*
X68522892Y-10370097D01*
X68568778Y-10426009D01*
X68652443Y-10582534D01*
X68703963Y-10752373D01*
X68721359Y-10929000D01*
X68703963Y-11105627D01*
X68652443Y-11275466D01*
X68568778Y-11431991D01*
X68539448Y-11467729D01*
X68456186Y-11569186D01*
X68354729Y-11652448D01*
X68318991Y-11681778D01*
X68162466Y-11765443D01*
X67992627Y-11816963D01*
X67926443Y-11823481D01*
X67860260Y-11830000D01*
X67521740Y-11830000D01*
X67455557Y-11823481D01*
X67389373Y-11816963D01*
X67219534Y-11765443D01*
X67063009Y-11681778D01*
X67027271Y-11652448D01*
X66925814Y-11569186D01*
X66842552Y-11467729D01*
X66813222Y-11431991D01*
X66729557Y-11275466D01*
X66678037Y-11105627D01*
X66660641Y-10929000D01*
X66678037Y-10752373D01*
X66729557Y-10582534D01*
X66813222Y-10426009D01*
X66859108Y-10370097D01*
X66925814Y-10288814D01*
X67027271Y-10205552D01*
X67063009Y-10176222D01*
X67219534Y-10092557D01*
X67389373Y-10041037D01*
X67455558Y-10034518D01*
X67521740Y-10028000D01*
X67860260Y-10028000D01*
X67926442Y-10034518D01*
X67926442Y-10034518D01*
G37*
G36*
X72879442Y-10034518D02*
G01*
X72945627Y-10041037D01*
X73115466Y-10092557D01*
X73271991Y-10176222D01*
X73307729Y-10205552D01*
X73409186Y-10288814D01*
X73475892Y-10370097D01*
X73521778Y-10426009D01*
X73605443Y-10582534D01*
X73656963Y-10752373D01*
X73674359Y-10929000D01*
X73656963Y-11105627D01*
X73605443Y-11275466D01*
X73521778Y-11431991D01*
X73492448Y-11467729D01*
X73409186Y-11569186D01*
X73307729Y-11652448D01*
X73271991Y-11681778D01*
X73115466Y-11765443D01*
X72945627Y-11816963D01*
X72879443Y-11823481D01*
X72813260Y-11830000D01*
X72474740Y-11830000D01*
X72408557Y-11823481D01*
X72342373Y-11816963D01*
X72172534Y-11765443D01*
X72016009Y-11681778D01*
X71980271Y-11652448D01*
X71878814Y-11569186D01*
X71795552Y-11467729D01*
X71766222Y-11431991D01*
X71682557Y-11275466D01*
X71631037Y-11105627D01*
X71613641Y-10929000D01*
X71631037Y-10752373D01*
X71682557Y-10582534D01*
X71766222Y-10426009D01*
X71812108Y-10370097D01*
X71878814Y-10288814D01*
X71980271Y-10205552D01*
X72016009Y-10176222D01*
X72172534Y-10092557D01*
X72342373Y-10041037D01*
X72408558Y-10034518D01*
X72474740Y-10028000D01*
X72813260Y-10028000D01*
X72879442Y-10034518D01*
X72879442Y-10034518D01*
G37*
G36*
X3677600Y-8754989D02*
G01*
X3710652Y-8765015D01*
X3741103Y-8781292D01*
X3767799Y-8803201D01*
X3789708Y-8829897D01*
X3805985Y-8860348D01*
X3816011Y-8893400D01*
X3820000Y-8933903D01*
X3820000Y-10370097D01*
X3816011Y-10410600D01*
X3805985Y-10443652D01*
X3789708Y-10474103D01*
X3767799Y-10500799D01*
X3741103Y-10522708D01*
X3710652Y-10538985D01*
X3677600Y-10549011D01*
X3637097Y-10553000D01*
X1950903Y-10553000D01*
X1910400Y-10549011D01*
X1877348Y-10538985D01*
X1846897Y-10522708D01*
X1820201Y-10500799D01*
X1798292Y-10474103D01*
X1782015Y-10443652D01*
X1771989Y-10410600D01*
X1768000Y-10370097D01*
X1768000Y-8933903D01*
X1771989Y-8893400D01*
X1782015Y-8860348D01*
X1798292Y-8829897D01*
X1820201Y-8803201D01*
X1846897Y-8781292D01*
X1877348Y-8765015D01*
X1910400Y-8754989D01*
X1950903Y-8751000D01*
X3637097Y-8751000D01*
X3677600Y-8754989D01*
X3677600Y-8754989D01*
G37*
G36*
X60687443Y-8489519D02*
G01*
X60753627Y-8496037D01*
X60923466Y-8547557D01*
X61079991Y-8631222D01*
X61115729Y-8660552D01*
X61217186Y-8743814D01*
X61286781Y-8828617D01*
X61329778Y-8881009D01*
X61413443Y-9037534D01*
X61464963Y-9207373D01*
X61482359Y-9384000D01*
X61464963Y-9560627D01*
X61413443Y-9730466D01*
X61329778Y-9886991D01*
X61308441Y-9912990D01*
X61217186Y-10024186D01*
X61133874Y-10092557D01*
X61079991Y-10136778D01*
X60923466Y-10220443D01*
X60753627Y-10271963D01*
X60687443Y-10278481D01*
X60621260Y-10285000D01*
X60282740Y-10285000D01*
X60216558Y-10278482D01*
X60150373Y-10271963D01*
X59980534Y-10220443D01*
X59824009Y-10136778D01*
X59770126Y-10092557D01*
X59686814Y-10024186D01*
X59595559Y-9912990D01*
X59574222Y-9886991D01*
X59490557Y-9730466D01*
X59439037Y-9560627D01*
X59421641Y-9384000D01*
X59439037Y-9207373D01*
X59490557Y-9037534D01*
X59574222Y-8881009D01*
X59617219Y-8828617D01*
X59686814Y-8743814D01*
X59788271Y-8660552D01*
X59824009Y-8631222D01*
X59980534Y-8547557D01*
X60150373Y-8496037D01*
X60216557Y-8489519D01*
X60282740Y-8483000D01*
X60621260Y-8483000D01*
X60687443Y-8489519D01*
X60687443Y-8489519D01*
G37*
G36*
X67926443Y-7534519D02*
G01*
X67992627Y-7541037D01*
X68162466Y-7592557D01*
X68318991Y-7676222D01*
X68354729Y-7705552D01*
X68456186Y-7788814D01*
X68539448Y-7890271D01*
X68568778Y-7926009D01*
X68652443Y-8082534D01*
X68703963Y-8252373D01*
X68721359Y-8429000D01*
X68703963Y-8605627D01*
X68652443Y-8775466D01*
X68652442Y-8775468D01*
X68637618Y-8803201D01*
X68568778Y-8931991D01*
X68542262Y-8964301D01*
X68456186Y-9069186D01*
X68354729Y-9152448D01*
X68318991Y-9181778D01*
X68162466Y-9265443D01*
X67992627Y-9316963D01*
X67926442Y-9323482D01*
X67860260Y-9330000D01*
X67521740Y-9330000D01*
X67455558Y-9323482D01*
X67389373Y-9316963D01*
X67219534Y-9265443D01*
X67063009Y-9181778D01*
X67027271Y-9152448D01*
X66925814Y-9069186D01*
X66839738Y-8964301D01*
X66813222Y-8931991D01*
X66744382Y-8803201D01*
X66729558Y-8775468D01*
X66729557Y-8775466D01*
X66678037Y-8605627D01*
X66660641Y-8429000D01*
X66678037Y-8252373D01*
X66729557Y-8082534D01*
X66813222Y-7926009D01*
X66842552Y-7890271D01*
X66925814Y-7788814D01*
X67027271Y-7705552D01*
X67063009Y-7676222D01*
X67219534Y-7592557D01*
X67389373Y-7541037D01*
X67455558Y-7534518D01*
X67521740Y-7528000D01*
X67860260Y-7528000D01*
X67926443Y-7534519D01*
X67926443Y-7534519D01*
G37*
G36*
X72879443Y-7534519D02*
G01*
X72945627Y-7541037D01*
X73115466Y-7592557D01*
X73271991Y-7676222D01*
X73307729Y-7705552D01*
X73409186Y-7788814D01*
X73492448Y-7890271D01*
X73521778Y-7926009D01*
X73605443Y-8082534D01*
X73656963Y-8252373D01*
X73674359Y-8429000D01*
X73656963Y-8605627D01*
X73605443Y-8775466D01*
X73605442Y-8775468D01*
X73590618Y-8803201D01*
X73521778Y-8931991D01*
X73495262Y-8964301D01*
X73409186Y-9069186D01*
X73307729Y-9152448D01*
X73271991Y-9181778D01*
X73115466Y-9265443D01*
X72945627Y-9316963D01*
X72879442Y-9323482D01*
X72813260Y-9330000D01*
X72474740Y-9330000D01*
X72408558Y-9323482D01*
X72342373Y-9316963D01*
X72172534Y-9265443D01*
X72016009Y-9181778D01*
X71980271Y-9152448D01*
X71878814Y-9069186D01*
X71792738Y-8964301D01*
X71766222Y-8931991D01*
X71697382Y-8803201D01*
X71682558Y-8775468D01*
X71682557Y-8775466D01*
X71631037Y-8605627D01*
X71613641Y-8429000D01*
X71631037Y-8252373D01*
X71682557Y-8082534D01*
X71766222Y-7926009D01*
X71795552Y-7890271D01*
X71878814Y-7788814D01*
X71980271Y-7705552D01*
X72016009Y-7676222D01*
X72172534Y-7592557D01*
X72342373Y-7541037D01*
X72408558Y-7534518D01*
X72474740Y-7528000D01*
X72813260Y-7528000D01*
X72879443Y-7534519D01*
X72879443Y-7534519D01*
G37*
G36*
X67926442Y-5034518D02*
G01*
X67992627Y-5041037D01*
X68162466Y-5092557D01*
X68318991Y-5176222D01*
X68354729Y-5205552D01*
X68456186Y-5288814D01*
X68539448Y-5390271D01*
X68568778Y-5426009D01*
X68652443Y-5582534D01*
X68703963Y-5752373D01*
X68721359Y-5929000D01*
X68703963Y-6105627D01*
X68652443Y-6275466D01*
X68568778Y-6431991D01*
X68539448Y-6467729D01*
X68456186Y-6569186D01*
X68354729Y-6652448D01*
X68318991Y-6681778D01*
X68162466Y-6765443D01*
X67992627Y-6816963D01*
X67926442Y-6823482D01*
X67860260Y-6830000D01*
X67521740Y-6830000D01*
X67455557Y-6823481D01*
X67389373Y-6816963D01*
X67219534Y-6765443D01*
X67063009Y-6681778D01*
X67027271Y-6652448D01*
X66925814Y-6569186D01*
X66842552Y-6467729D01*
X66813222Y-6431991D01*
X66729557Y-6275466D01*
X66678037Y-6105627D01*
X66660641Y-5929000D01*
X66678037Y-5752373D01*
X66729557Y-5582534D01*
X66813222Y-5426009D01*
X66842552Y-5390271D01*
X66925814Y-5288814D01*
X67027271Y-5205552D01*
X67063009Y-5176222D01*
X67219534Y-5092557D01*
X67389373Y-5041037D01*
X67455557Y-5034519D01*
X67521740Y-5028000D01*
X67860260Y-5028000D01*
X67926442Y-5034518D01*
X67926442Y-5034518D01*
G37*
G36*
X72879442Y-5034518D02*
G01*
X72945627Y-5041037D01*
X73115466Y-5092557D01*
X73271991Y-5176222D01*
X73307729Y-5205552D01*
X73409186Y-5288814D01*
X73492448Y-5390271D01*
X73521778Y-5426009D01*
X73605443Y-5582534D01*
X73656963Y-5752373D01*
X73674359Y-5929000D01*
X73656963Y-6105627D01*
X73605443Y-6275466D01*
X73521778Y-6431991D01*
X73492448Y-6467729D01*
X73409186Y-6569186D01*
X73307729Y-6652448D01*
X73271991Y-6681778D01*
X73115466Y-6765443D01*
X72945627Y-6816963D01*
X72879442Y-6823482D01*
X72813260Y-6830000D01*
X72474740Y-6830000D01*
X72408557Y-6823481D01*
X72342373Y-6816963D01*
X72172534Y-6765443D01*
X72016009Y-6681778D01*
X71980271Y-6652448D01*
X71878814Y-6569186D01*
X71795552Y-6467729D01*
X71766222Y-6431991D01*
X71682557Y-6275466D01*
X71631037Y-6105627D01*
X71613641Y-5929000D01*
X71631037Y-5752373D01*
X71682557Y-5582534D01*
X71766222Y-5426009D01*
X71795552Y-5390271D01*
X71878814Y-5288814D01*
X71980271Y-5205552D01*
X72016009Y-5176222D01*
X72172534Y-5092557D01*
X72342373Y-5041037D01*
X72408557Y-5034519D01*
X72474740Y-5028000D01*
X72813260Y-5028000D01*
X72879442Y-5034518D01*
X72879442Y-5034518D01*
G37*
G36*
X62375256Y-1391298D02*
G01*
X62481579Y-1412447D01*
X62782042Y-1536903D01*
X63052451Y-1717585D01*
X63282415Y-1947549D01*
X63282416Y-1947551D01*
X63463098Y-2217960D01*
X63587553Y-2518422D01*
X63617784Y-2670400D01*
X63651000Y-2837391D01*
X63651000Y-3162609D01*
X63587553Y-3481579D01*
X63463097Y-3782042D01*
X63282415Y-4052451D01*
X63052451Y-4282415D01*
X62782042Y-4463097D01*
X62481579Y-4587553D01*
X62375256Y-4608702D01*
X62162611Y-4651000D01*
X61837389Y-4651000D01*
X61624744Y-4608702D01*
X61518421Y-4587553D01*
X61217958Y-4463097D01*
X60947549Y-4282415D01*
X60717585Y-4052451D01*
X60536903Y-3782042D01*
X60412447Y-3481579D01*
X60349000Y-3162609D01*
X60349000Y-2837391D01*
X60382217Y-2670400D01*
X60412447Y-2518422D01*
X60536902Y-2217960D01*
X60717584Y-1947551D01*
X60717585Y-1947549D01*
X60947549Y-1717585D01*
X61217958Y-1536903D01*
X61518421Y-1412447D01*
X61624744Y-1391298D01*
X61837389Y-1349000D01*
X62162611Y-1349000D01*
X62375256Y-1391298D01*
X62375256Y-1391298D01*
G37*
G36*
X3375256Y-1391298D02*
G01*
X3481579Y-1412447D01*
X3782042Y-1536903D01*
X4052451Y-1717585D01*
X4282415Y-1947549D01*
X4282416Y-1947551D01*
X4463098Y-2217960D01*
X4587553Y-2518422D01*
X4617784Y-2670400D01*
X4651000Y-2837391D01*
X4651000Y-3162609D01*
X4587553Y-3481579D01*
X4463097Y-3782042D01*
X4282415Y-4052451D01*
X4052451Y-4282415D01*
X3782042Y-4463097D01*
X3481579Y-4587553D01*
X3375256Y-4608702D01*
X3162611Y-4651000D01*
X2837389Y-4651000D01*
X2624744Y-4608702D01*
X2518421Y-4587553D01*
X2217958Y-4463097D01*
X1947549Y-4282415D01*
X1717585Y-4052451D01*
X1536903Y-3782042D01*
X1412447Y-3481579D01*
X1349000Y-3162609D01*
X1349000Y-2837391D01*
X1382217Y-2670400D01*
X1412447Y-2518422D01*
X1536902Y-2217960D01*
X1717584Y-1947551D01*
X1717585Y-1947549D01*
X1947549Y-1717585D01*
X2217958Y-1536903D01*
X2518421Y-1412447D01*
X2624744Y-1391298D01*
X2837389Y-1349000D01*
X3162611Y-1349000D01*
X3375256Y-1391298D01*
X3375256Y-1391298D01*
G37*
G36*
X73527600Y-2531989D02*
G01*
X73560652Y-2542015D01*
X73591103Y-2558292D01*
X73617799Y-2580201D01*
X73639708Y-2606897D01*
X73655985Y-2637348D01*
X73666011Y-2670400D01*
X73670000Y-2710903D01*
X73670000Y-4147097D01*
X73666011Y-4187600D01*
X73655985Y-4220652D01*
X73639708Y-4251103D01*
X73617799Y-4277799D01*
X73591103Y-4299708D01*
X73560652Y-4315985D01*
X73527600Y-4326011D01*
X73487097Y-4330000D01*
X71800903Y-4330000D01*
X71760400Y-4326011D01*
X71727348Y-4315985D01*
X71696897Y-4299708D01*
X71670201Y-4277799D01*
X71648292Y-4251103D01*
X71632015Y-4220652D01*
X71621989Y-4187600D01*
X71618000Y-4147097D01*
X71618000Y-2710903D01*
X71621989Y-2670400D01*
X71632015Y-2637348D01*
X71648292Y-2606897D01*
X71670201Y-2580201D01*
X71696897Y-2558292D01*
X71727348Y-2542015D01*
X71760400Y-2531989D01*
X71800903Y-2528000D01*
X73487097Y-2528000D01*
X73527600Y-2531989D01*
X73527600Y-2531989D01*
G37*
G36*
X68574600Y-2531989D02*
G01*
X68607652Y-2542015D01*
X68638103Y-2558292D01*
X68664799Y-2580201D01*
X68686708Y-2606897D01*
X68702985Y-2637348D01*
X68713011Y-2670400D01*
X68717000Y-2710903D01*
X68717000Y-4147097D01*
X68713011Y-4187600D01*
X68702985Y-4220652D01*
X68686708Y-4251103D01*
X68664799Y-4277799D01*
X68638103Y-4299708D01*
X68607652Y-4315985D01*
X68574600Y-4326011D01*
X68534097Y-4330000D01*
X66847903Y-4330000D01*
X66807400Y-4326011D01*
X66774348Y-4315985D01*
X66743897Y-4299708D01*
X66717201Y-4277799D01*
X66695292Y-4251103D01*
X66679015Y-4220652D01*
X66668989Y-4187600D01*
X66665000Y-4147097D01*
X66665000Y-2710903D01*
X66668989Y-2670400D01*
X66679015Y-2637348D01*
X66695292Y-2606897D01*
X66717201Y-2580201D01*
X66743897Y-2558292D01*
X66774348Y-2542015D01*
X66807400Y-2531989D01*
X66847903Y-2528000D01*
X68534097Y-2528000D01*
X68574600Y-2531989D01*
X68574600Y-2531989D01*
G37*
M02*
