G04 #@! TF.GenerationSoftware,KiCad,Pcbnew,(5.1.4)-1*
G04 #@! TF.CreationDate,2021-11-01T15:57:40-05:00*
G04 #@! TF.ProjectId,RascalHat,52617363-616c-4486-9174-2e6b69636164,rev?*
G04 #@! TF.SameCoordinates,Original*
G04 #@! TF.FileFunction,Legend,Top*
G04 #@! TF.FilePolarity,Positive*
%FSLAX46Y46*%
G04 Gerber Fmt 4.6, Leading zero omitted, Abs format (unit mm)*
G04 Created by KiCad (PCBNEW (5.1.4)-1) date 2021-11-01 15:57:40*
%MOMM*%
%LPD*%
G04 APERTURE LIST*
%ADD10C,0.300000*%
%ADD11C,0.120000*%
%ADD12C,0.150000*%
G04 APERTURE END LIST*
D10*
X26897142Y-49458571D02*
X26897142Y-47958571D01*
X27468571Y-47958571D01*
X27611428Y-48030000D01*
X27682857Y-48101428D01*
X27754285Y-48244285D01*
X27754285Y-48458571D01*
X27682857Y-48601428D01*
X27611428Y-48672857D01*
X27468571Y-48744285D01*
X26897142Y-48744285D01*
X28397142Y-49458571D02*
X28397142Y-48458571D01*
X28397142Y-48744285D02*
X28468571Y-48601428D01*
X28540000Y-48530000D01*
X28682857Y-48458571D01*
X28825714Y-48458571D01*
X29325714Y-49458571D02*
X29325714Y-48458571D01*
X29325714Y-47958571D02*
X29254285Y-48030000D01*
X29325714Y-48101428D01*
X29397142Y-48030000D01*
X29325714Y-47958571D01*
X29325714Y-48101428D01*
X30040000Y-49458571D02*
X30040000Y-48458571D01*
X30040000Y-48601428D02*
X30111428Y-48530000D01*
X30254285Y-48458571D01*
X30468571Y-48458571D01*
X30611428Y-48530000D01*
X30682857Y-48672857D01*
X30682857Y-49458571D01*
X30682857Y-48672857D02*
X30754285Y-48530000D01*
X30897142Y-48458571D01*
X31111428Y-48458571D01*
X31254285Y-48530000D01*
X31325714Y-48672857D01*
X31325714Y-49458571D01*
X32611428Y-49387142D02*
X32468571Y-49458571D01*
X32182857Y-49458571D01*
X32040000Y-49387142D01*
X31968571Y-49244285D01*
X31968571Y-48672857D01*
X32040000Y-48530000D01*
X32182857Y-48458571D01*
X32468571Y-48458571D01*
X32611428Y-48530000D01*
X32682857Y-48672857D01*
X32682857Y-48815714D01*
X31968571Y-48958571D01*
X34468571Y-49458571D02*
X34468571Y-47958571D01*
X34968571Y-49030000D01*
X35468571Y-47958571D01*
X35468571Y-49458571D01*
X36397142Y-49458571D02*
X36254285Y-49387142D01*
X36182857Y-49315714D01*
X36111428Y-49172857D01*
X36111428Y-48744285D01*
X36182857Y-48601428D01*
X36254285Y-48530000D01*
X36397142Y-48458571D01*
X36611428Y-48458571D01*
X36754285Y-48530000D01*
X36825714Y-48601428D01*
X36897142Y-48744285D01*
X36897142Y-49172857D01*
X36825714Y-49315714D01*
X36754285Y-49387142D01*
X36611428Y-49458571D01*
X36397142Y-49458571D01*
X37397142Y-48458571D02*
X37754285Y-49458571D01*
X38111428Y-48458571D01*
X39254285Y-49387142D02*
X39111428Y-49458571D01*
X38825714Y-49458571D01*
X38682857Y-49387142D01*
X38611428Y-49244285D01*
X38611428Y-48672857D01*
X38682857Y-48530000D01*
X38825714Y-48458571D01*
X39111428Y-48458571D01*
X39254285Y-48530000D01*
X39325714Y-48672857D01*
X39325714Y-48815714D01*
X38611428Y-48958571D01*
X39968571Y-49458571D02*
X39968571Y-48458571D01*
X39968571Y-48744285D02*
X40040000Y-48601428D01*
X40111428Y-48530000D01*
X40254285Y-48458571D01*
X40397142Y-48458571D01*
X41825714Y-47958571D02*
X42325714Y-49458571D01*
X42825714Y-47958571D01*
X44111428Y-49458571D02*
X43254285Y-49458571D01*
X43682857Y-49458571D02*
X43682857Y-47958571D01*
X43540000Y-48172857D01*
X43397142Y-48315714D01*
X43254285Y-48387142D01*
X44754285Y-49315714D02*
X44825714Y-49387142D01*
X44754285Y-49458571D01*
X44682857Y-49387142D01*
X44754285Y-49315714D01*
X44754285Y-49458571D01*
X45754285Y-47958571D02*
X45897142Y-47958571D01*
X46040000Y-48030000D01*
X46111428Y-48101428D01*
X46182857Y-48244285D01*
X46254285Y-48530000D01*
X46254285Y-48887142D01*
X46182857Y-49172857D01*
X46111428Y-49315714D01*
X46040000Y-49387142D01*
X45897142Y-49458571D01*
X45754285Y-49458571D01*
X45611428Y-49387142D01*
X45540000Y-49315714D01*
X45468571Y-49172857D01*
X45397142Y-48887142D01*
X45397142Y-48530000D01*
X45468571Y-48244285D01*
X45540000Y-48101428D01*
X45611428Y-48030000D01*
X45754285Y-47958571D01*
X1468571Y-33286000D02*
X1325714Y-33214571D01*
X1111428Y-33214571D01*
X897142Y-33286000D01*
X754285Y-33428857D01*
X682857Y-33571714D01*
X611428Y-33857428D01*
X611428Y-34071714D01*
X682857Y-34357428D01*
X754285Y-34500285D01*
X897142Y-34643142D01*
X1111428Y-34714571D01*
X1254285Y-34714571D01*
X1468571Y-34643142D01*
X1539999Y-34571714D01*
X1539999Y-34071714D01*
X1254285Y-34071714D01*
X2182857Y-34714571D02*
X2182857Y-33214571D01*
X2754285Y-33214571D01*
X2897142Y-33286000D01*
X2968571Y-33357428D01*
X3039999Y-33500285D01*
X3039999Y-33714571D01*
X2968571Y-33857428D01*
X2897142Y-33928857D01*
X2754285Y-34000285D01*
X2182857Y-34000285D01*
X3611428Y-34643142D02*
X3825714Y-34714571D01*
X4182857Y-34714571D01*
X4325714Y-34643142D01*
X4397142Y-34571714D01*
X4468571Y-34428857D01*
X4468571Y-34286000D01*
X4397142Y-34143142D01*
X4325714Y-34071714D01*
X4182857Y-34000285D01*
X3897142Y-33928857D01*
X3754285Y-33857428D01*
X3682857Y-33786000D01*
X3611428Y-33643142D01*
X3611428Y-33500285D01*
X3682857Y-33357428D01*
X3754285Y-33286000D01*
X3897142Y-33214571D01*
X4254285Y-33214571D01*
X4468571Y-33286000D01*
X53280571Y-43378142D02*
X54780571Y-42878142D01*
X53280571Y-42378142D01*
X53994857Y-41378142D02*
X54066285Y-41163857D01*
X54137714Y-41092428D01*
X54280571Y-41021000D01*
X54494857Y-41021000D01*
X54637714Y-41092428D01*
X54709142Y-41163857D01*
X54780571Y-41306714D01*
X54780571Y-41878142D01*
X53280571Y-41878142D01*
X53280571Y-41378142D01*
X53352000Y-41235285D01*
X53423428Y-41163857D01*
X53566285Y-41092428D01*
X53709142Y-41092428D01*
X53852000Y-41163857D01*
X53923428Y-41235285D01*
X53994857Y-41378142D01*
X53994857Y-41878142D01*
X54780571Y-39735285D02*
X53994857Y-39735285D01*
X53852000Y-39806714D01*
X53780571Y-39949571D01*
X53780571Y-40235285D01*
X53852000Y-40378142D01*
X54709142Y-39735285D02*
X54780571Y-39878142D01*
X54780571Y-40235285D01*
X54709142Y-40378142D01*
X54566285Y-40449571D01*
X54423428Y-40449571D01*
X54280571Y-40378142D01*
X54209142Y-40235285D01*
X54209142Y-39878142D01*
X54137714Y-39735285D01*
X53780571Y-39235285D02*
X53780571Y-38663857D01*
X53280571Y-39021000D02*
X54566285Y-39021000D01*
X54709142Y-38949571D01*
X54780571Y-38806714D01*
X54780571Y-38663857D01*
X58233571Y-42497142D02*
X58233571Y-41568571D01*
X58805000Y-42068571D01*
X58805000Y-41854285D01*
X58876428Y-41711428D01*
X58947857Y-41640000D01*
X59090714Y-41568571D01*
X59447857Y-41568571D01*
X59590714Y-41640000D01*
X59662142Y-41711428D01*
X59733571Y-41854285D01*
X59733571Y-42282857D01*
X59662142Y-42425714D01*
X59590714Y-42497142D01*
X58233571Y-41140000D02*
X59733571Y-40640000D01*
X58233571Y-40140000D01*
X58233571Y-39782857D02*
X58233571Y-38854285D01*
X58805000Y-39354285D01*
X58805000Y-39140000D01*
X58876428Y-38997142D01*
X58947857Y-38925714D01*
X59090714Y-38854285D01*
X59447857Y-38854285D01*
X59590714Y-38925714D01*
X59662142Y-38997142D01*
X59733571Y-39140000D01*
X59733571Y-39568571D01*
X59662142Y-39711428D01*
X59590714Y-39782857D01*
X55820571Y-40925714D02*
X55820571Y-41640000D01*
X56534857Y-41711428D01*
X56463428Y-41640000D01*
X56392000Y-41497142D01*
X56392000Y-41140000D01*
X56463428Y-40997142D01*
X56534857Y-40925714D01*
X56677714Y-40854285D01*
X57034857Y-40854285D01*
X57177714Y-40925714D01*
X57249142Y-40997142D01*
X57320571Y-41140000D01*
X57320571Y-41497142D01*
X57249142Y-41640000D01*
X57177714Y-41711428D01*
X55820571Y-40425714D02*
X57320571Y-39925714D01*
X55820571Y-39425714D01*
X64940571Y-15696142D02*
X63440571Y-15696142D01*
X63440571Y-15124714D01*
X63512000Y-14981857D01*
X63583428Y-14910428D01*
X63726285Y-14839000D01*
X63940571Y-14839000D01*
X64083428Y-14910428D01*
X64154857Y-14981857D01*
X64226285Y-15124714D01*
X64226285Y-15696142D01*
X63440571Y-14339000D02*
X64940571Y-13981857D01*
X63869142Y-13696142D01*
X64940571Y-13410428D01*
X63440571Y-13053285D01*
X64940571Y-12481857D02*
X63440571Y-12481857D01*
X64512000Y-11981857D01*
X63440571Y-11481857D01*
X64940571Y-11481857D01*
X57423857Y-22395142D02*
X57423857Y-21895142D01*
X58209571Y-21680857D02*
X58209571Y-22395142D01*
X56709571Y-22395142D01*
X56709571Y-21680857D01*
X57209571Y-21038000D02*
X58209571Y-21038000D01*
X57352428Y-21038000D02*
X57281000Y-20966571D01*
X57209571Y-20823714D01*
X57209571Y-20609428D01*
X57281000Y-20466571D01*
X57423857Y-20395142D01*
X58209571Y-20395142D01*
X58138142Y-19038000D02*
X58209571Y-19180857D01*
X58209571Y-19466571D01*
X58138142Y-19609428D01*
X58066714Y-19680857D01*
X57923857Y-19752285D01*
X57495285Y-19752285D01*
X57352428Y-19680857D01*
X57281000Y-19609428D01*
X57209571Y-19466571D01*
X57209571Y-19180857D01*
X57281000Y-19038000D01*
X58209571Y-18180857D02*
X58138142Y-18323714D01*
X58066714Y-18395142D01*
X57923857Y-18466571D01*
X57495285Y-18466571D01*
X57352428Y-18395142D01*
X57281000Y-18323714D01*
X57209571Y-18180857D01*
X57209571Y-17966571D01*
X57281000Y-17823714D01*
X57352428Y-17752285D01*
X57495285Y-17680857D01*
X57923857Y-17680857D01*
X58066714Y-17752285D01*
X58138142Y-17823714D01*
X58209571Y-17966571D01*
X58209571Y-18180857D01*
X58209571Y-16395142D02*
X56709571Y-16395142D01*
X58138142Y-16395142D02*
X58209571Y-16538000D01*
X58209571Y-16823714D01*
X58138142Y-16966571D01*
X58066714Y-17038000D01*
X57923857Y-17109428D01*
X57495285Y-17109428D01*
X57352428Y-17038000D01*
X57281000Y-16966571D01*
X57209571Y-16823714D01*
X57209571Y-16538000D01*
X57281000Y-16395142D01*
X58138142Y-15109428D02*
X58209571Y-15252285D01*
X58209571Y-15538000D01*
X58138142Y-15680857D01*
X57995285Y-15752285D01*
X57423857Y-15752285D01*
X57281000Y-15680857D01*
X57209571Y-15538000D01*
X57209571Y-15252285D01*
X57281000Y-15109428D01*
X57423857Y-15038000D01*
X57566714Y-15038000D01*
X57709571Y-15752285D01*
X58209571Y-14395142D02*
X57209571Y-14395142D01*
X57495285Y-14395142D02*
X57352428Y-14323714D01*
X57281000Y-14252285D01*
X57209571Y-14109428D01*
X57209571Y-13966571D01*
X64432571Y-47894142D02*
X64432571Y-48608428D01*
X62932571Y-48608428D01*
X64432571Y-47394142D02*
X63432571Y-47394142D01*
X62932571Y-47394142D02*
X63004000Y-47465571D01*
X63075428Y-47394142D01*
X63004000Y-47322714D01*
X62932571Y-47394142D01*
X63075428Y-47394142D01*
X63432571Y-46679857D02*
X64432571Y-46679857D01*
X63575428Y-46679857D02*
X63504000Y-46608428D01*
X63432571Y-46465571D01*
X63432571Y-46251285D01*
X63504000Y-46108428D01*
X63646857Y-46037000D01*
X64432571Y-46037000D01*
X64361142Y-44751285D02*
X64432571Y-44894142D01*
X64432571Y-45179857D01*
X64361142Y-45322714D01*
X64218285Y-45394142D01*
X63646857Y-45394142D01*
X63504000Y-45322714D01*
X63432571Y-45179857D01*
X63432571Y-44894142D01*
X63504000Y-44751285D01*
X63646857Y-44679857D01*
X63789714Y-44679857D01*
X63932571Y-45394142D01*
X62932571Y-43108428D02*
X62932571Y-42251285D01*
X64432571Y-42679857D02*
X62932571Y-42679857D01*
X64432571Y-41751285D02*
X63432571Y-41751285D01*
X63718285Y-41751285D02*
X63575428Y-41679857D01*
X63504000Y-41608428D01*
X63432571Y-41465571D01*
X63432571Y-41322714D01*
X64432571Y-40179857D02*
X63646857Y-40179857D01*
X63504000Y-40251285D01*
X63432571Y-40394142D01*
X63432571Y-40679857D01*
X63504000Y-40822714D01*
X64361142Y-40179857D02*
X64432571Y-40322714D01*
X64432571Y-40679857D01*
X64361142Y-40822714D01*
X64218285Y-40894142D01*
X64075428Y-40894142D01*
X63932571Y-40822714D01*
X63861142Y-40679857D01*
X63861142Y-40322714D01*
X63789714Y-40179857D01*
X64361142Y-38822714D02*
X64432571Y-38965571D01*
X64432571Y-39251285D01*
X64361142Y-39394142D01*
X64289714Y-39465571D01*
X64146857Y-39537000D01*
X63718285Y-39537000D01*
X63575428Y-39465571D01*
X63504000Y-39394142D01*
X63432571Y-39251285D01*
X63432571Y-38965571D01*
X63504000Y-38822714D01*
X64432571Y-38179857D02*
X62932571Y-38179857D01*
X63861142Y-38037000D02*
X64432571Y-37608428D01*
X63432571Y-37608428D02*
X64004000Y-38179857D01*
X64361142Y-36394142D02*
X64432571Y-36537000D01*
X64432571Y-36822714D01*
X64361142Y-36965571D01*
X64218285Y-37037000D01*
X63646857Y-37037000D01*
X63504000Y-36965571D01*
X63432571Y-36822714D01*
X63432571Y-36537000D01*
X63504000Y-36394142D01*
X63646857Y-36322714D01*
X63789714Y-36322714D01*
X63932571Y-37037000D01*
X64432571Y-35679857D02*
X63432571Y-35679857D01*
X63718285Y-35679857D02*
X63575428Y-35608428D01*
X63504000Y-35537000D01*
X63432571Y-35394142D01*
X63432571Y-35251285D01*
X2734571Y-48077000D02*
X2734571Y-48791285D01*
X3448857Y-48862714D01*
X3377428Y-48791285D01*
X3305999Y-48648428D01*
X3306000Y-48291285D01*
X3377428Y-48148428D01*
X3448857Y-48077000D01*
X3591714Y-48005571D01*
X3948857Y-48005571D01*
X4091714Y-48077000D01*
X4163142Y-48148428D01*
X4234571Y-48291285D01*
X4234571Y-48648428D01*
X4163142Y-48791285D01*
X4091714Y-48862714D01*
X2734571Y-47577000D02*
X4234571Y-47077000D01*
X2734571Y-46577000D01*
X2806000Y-44148428D02*
X2734571Y-44291285D01*
X2734571Y-44505571D01*
X2806000Y-44719857D01*
X2948857Y-44862714D01*
X3091714Y-44934142D01*
X3377428Y-45005571D01*
X3591714Y-45005571D01*
X3877428Y-44934142D01*
X4020285Y-44862714D01*
X4163142Y-44719857D01*
X4234571Y-44505571D01*
X4234571Y-44362714D01*
X4163142Y-44148428D01*
X4091714Y-44077000D01*
X3591714Y-44077000D01*
X3591714Y-44362714D01*
X4234571Y-43434142D02*
X2734571Y-43434142D01*
X2734571Y-42862714D01*
X2806000Y-42719857D01*
X2877428Y-42648428D01*
X3020285Y-42577000D01*
X3234571Y-42577000D01*
X3377428Y-42648428D01*
X3448857Y-42719857D01*
X3520285Y-42862714D01*
X3520285Y-43434142D01*
X4234571Y-41934142D02*
X2734571Y-41934142D01*
X2734571Y-40934142D02*
X2734571Y-40648428D01*
X2806000Y-40505571D01*
X2948857Y-40362714D01*
X3234571Y-40291285D01*
X3734571Y-40291285D01*
X4020285Y-40362714D01*
X4163142Y-40505571D01*
X4234571Y-40648428D01*
X4234571Y-40934142D01*
X4163142Y-41077000D01*
X4020285Y-41219857D01*
X3734571Y-41291285D01*
X3234571Y-41291285D01*
X2948857Y-41219857D01*
X2806000Y-41077000D01*
X2734571Y-40934142D01*
X6765714Y-19058571D02*
X6765714Y-20272857D01*
X6837142Y-20415714D01*
X6908571Y-20487142D01*
X7051428Y-20558571D01*
X7337142Y-20558571D01*
X7480000Y-20487142D01*
X7551428Y-20415714D01*
X7622857Y-20272857D01*
X7622857Y-19058571D01*
X8551428Y-20558571D02*
X8408571Y-20487142D01*
X8337142Y-20344285D01*
X8337142Y-19058571D01*
X8908571Y-19558571D02*
X9480000Y-19558571D01*
X9122857Y-19058571D02*
X9122857Y-20344285D01*
X9194285Y-20487142D01*
X9337142Y-20558571D01*
X9480000Y-20558571D01*
X9980000Y-20558571D02*
X9980000Y-19558571D01*
X9980000Y-19844285D02*
X10051428Y-19701428D01*
X10122857Y-19630000D01*
X10265714Y-19558571D01*
X10408571Y-19558571D01*
X11551428Y-20558571D02*
X11551428Y-19772857D01*
X11480000Y-19630000D01*
X11337142Y-19558571D01*
X11051428Y-19558571D01*
X10908571Y-19630000D01*
X11551428Y-20487142D02*
X11408571Y-20558571D01*
X11051428Y-20558571D01*
X10908571Y-20487142D01*
X10837142Y-20344285D01*
X10837142Y-20201428D01*
X10908571Y-20058571D01*
X11051428Y-19987142D01*
X11408571Y-19987142D01*
X11551428Y-19915714D01*
X12194285Y-20487142D02*
X12337142Y-20558571D01*
X12622857Y-20558571D01*
X12765714Y-20487142D01*
X12837142Y-20344285D01*
X12837142Y-20272857D01*
X12765714Y-20130000D01*
X12622857Y-20058571D01*
X12408571Y-20058571D01*
X12265714Y-19987142D01*
X12194285Y-19844285D01*
X12194285Y-19772857D01*
X12265714Y-19630000D01*
X12408571Y-19558571D01*
X12622857Y-19558571D01*
X12765714Y-19630000D01*
X13694285Y-20558571D02*
X13551428Y-20487142D01*
X13480000Y-20415714D01*
X13408571Y-20272857D01*
X13408571Y-19844285D01*
X13480000Y-19701428D01*
X13551428Y-19630000D01*
X13694285Y-19558571D01*
X13908571Y-19558571D01*
X14051428Y-19630000D01*
X14122857Y-19701428D01*
X14194285Y-19844285D01*
X14194285Y-20272857D01*
X14122857Y-20415714D01*
X14051428Y-20487142D01*
X13908571Y-20558571D01*
X13694285Y-20558571D01*
X15480000Y-19558571D02*
X15480000Y-20558571D01*
X14837142Y-19558571D02*
X14837142Y-20344285D01*
X14908571Y-20487142D01*
X15051428Y-20558571D01*
X15265714Y-20558571D01*
X15408571Y-20487142D01*
X15480000Y-20415714D01*
X16194285Y-19558571D02*
X16194285Y-20558571D01*
X16194285Y-19701428D02*
X16265714Y-19630000D01*
X16408571Y-19558571D01*
X16622857Y-19558571D01*
X16765714Y-19630000D01*
X16837142Y-19772857D01*
X16837142Y-20558571D01*
X18194285Y-20558571D02*
X18194285Y-19058571D01*
X18194285Y-20487142D02*
X18051428Y-20558571D01*
X17765714Y-20558571D01*
X17622857Y-20487142D01*
X17551428Y-20415714D01*
X17480000Y-20272857D01*
X17480000Y-19844285D01*
X17551428Y-19701428D01*
X17622857Y-19630000D01*
X17765714Y-19558571D01*
X18051428Y-19558571D01*
X18194285Y-19630000D01*
X24985714Y-20162857D02*
X24485714Y-20162857D01*
X24485714Y-20948571D02*
X24485714Y-19448571D01*
X25200000Y-19448571D01*
X25700000Y-20520000D02*
X26414285Y-20520000D01*
X25557142Y-20948571D02*
X26057142Y-19448571D01*
X26557142Y-20948571D01*
X27057142Y-20948571D02*
X27057142Y-19448571D01*
X27914285Y-20948571D01*
X27914285Y-19448571D01*
X18823714Y-11080142D02*
X18895142Y-11151571D01*
X18966571Y-11365857D01*
X18966571Y-11508714D01*
X18895142Y-11723000D01*
X18752285Y-11865857D01*
X18609428Y-11937285D01*
X18323714Y-12008714D01*
X18109428Y-12008714D01*
X17823714Y-11937285D01*
X17680857Y-11865857D01*
X17538000Y-11723000D01*
X17466571Y-11508714D01*
X17466571Y-11365857D01*
X17538000Y-11151571D01*
X17609428Y-11080142D01*
X18966571Y-10437285D02*
X17466571Y-10437285D01*
X18966571Y-9794428D02*
X18180857Y-9794428D01*
X18038000Y-9865857D01*
X17966571Y-10008714D01*
X17966571Y-10223000D01*
X18038000Y-10365857D01*
X18109428Y-10437285D01*
X18966571Y-8437285D02*
X18180857Y-8437285D01*
X18038000Y-8508714D01*
X17966571Y-8651571D01*
X17966571Y-8937285D01*
X18038000Y-9080142D01*
X18895142Y-8437285D02*
X18966571Y-8580142D01*
X18966571Y-8937285D01*
X18895142Y-9080142D01*
X18752285Y-9151571D01*
X18609428Y-9151571D01*
X18466571Y-9080142D01*
X18395142Y-8937285D01*
X18395142Y-8580142D01*
X18323714Y-8437285D01*
X18966571Y-7723000D02*
X17966571Y-7723000D01*
X18252285Y-7723000D02*
X18109428Y-7651571D01*
X18038000Y-7580142D01*
X17966571Y-7437285D01*
X17966571Y-7294428D01*
X17966571Y-6151571D02*
X19180857Y-6151571D01*
X19323714Y-6223000D01*
X19395142Y-6294428D01*
X19466571Y-6437285D01*
X19466571Y-6651571D01*
X19395142Y-6794428D01*
X18895142Y-6151571D02*
X18966571Y-6294428D01*
X18966571Y-6580142D01*
X18895142Y-6723000D01*
X18823714Y-6794428D01*
X18680857Y-6865857D01*
X18252285Y-6865857D01*
X18109428Y-6794428D01*
X18038000Y-6723000D01*
X17966571Y-6580142D01*
X17966571Y-6294428D01*
X18038000Y-6151571D01*
X18895142Y-4865857D02*
X18966571Y-5008714D01*
X18966571Y-5294428D01*
X18895142Y-5437285D01*
X18752285Y-5508714D01*
X18180857Y-5508714D01*
X18038000Y-5437285D01*
X17966571Y-5294428D01*
X17966571Y-5008714D01*
X18038000Y-4865857D01*
X18180857Y-4794428D01*
X18323714Y-4794428D01*
X18466571Y-5508714D01*
X18966571Y-4151571D02*
X17966571Y-4151571D01*
X18252285Y-4151571D02*
X18109428Y-4080142D01*
X18038000Y-4008714D01*
X17966571Y-3865857D01*
X17966571Y-3723000D01*
X18966571Y-2080142D02*
X17466571Y-2080142D01*
X18966571Y-1365857D02*
X17466571Y-1365857D01*
X18966571Y-508714D01*
X17466571Y-508714D01*
X30547571Y-11469000D02*
X32047571Y-10969000D01*
X30547571Y-10469000D01*
X31261857Y-9469000D02*
X31333285Y-9254714D01*
X31404714Y-9183285D01*
X31547571Y-9111857D01*
X31761857Y-9111857D01*
X31904714Y-9183285D01*
X31976142Y-9254714D01*
X32047571Y-9397571D01*
X32047571Y-9969000D01*
X30547571Y-9969000D01*
X30547571Y-9469000D01*
X30619000Y-9326142D01*
X30690428Y-9254714D01*
X30833285Y-9183285D01*
X30976142Y-9183285D01*
X31119000Y-9254714D01*
X31190428Y-9326142D01*
X31261857Y-9469000D01*
X31261857Y-9969000D01*
X32047571Y-7826142D02*
X31261857Y-7826142D01*
X31119000Y-7897571D01*
X31047571Y-8040428D01*
X31047571Y-8326142D01*
X31119000Y-8469000D01*
X31976142Y-7826142D02*
X32047571Y-7969000D01*
X32047571Y-8326142D01*
X31976142Y-8469000D01*
X31833285Y-8540428D01*
X31690428Y-8540428D01*
X31547571Y-8469000D01*
X31476142Y-8326142D01*
X31476142Y-7969000D01*
X31404714Y-7826142D01*
X31047571Y-7326142D02*
X31047571Y-6754714D01*
X30547571Y-7111857D02*
X31833285Y-7111857D01*
X31976142Y-7040428D01*
X32047571Y-6897571D01*
X32047571Y-6754714D01*
X31047571Y-6469000D02*
X31047571Y-5897571D01*
X30547571Y-6254714D02*
X31833285Y-6254714D01*
X31976142Y-6183285D01*
X32047571Y-6040428D01*
X32047571Y-5897571D01*
X31619000Y-4326142D02*
X31619000Y-3611857D01*
X32047571Y-4469000D02*
X30547571Y-3969000D01*
X32047571Y-3469000D01*
X30547571Y-2969000D02*
X31761857Y-2969000D01*
X31904714Y-2897571D01*
X31976142Y-2826142D01*
X32047571Y-2683285D01*
X32047571Y-2397571D01*
X31976142Y-2254714D01*
X31904714Y-2183285D01*
X31761857Y-2111857D01*
X30547571Y-2111857D01*
X30547571Y-1540428D02*
X32047571Y-540428D01*
X30547571Y-540428D02*
X32047571Y-1540428D01*
X43628571Y-11342000D02*
X45128571Y-10842000D01*
X43628571Y-10342000D01*
X44342857Y-9342000D02*
X44414285Y-9127714D01*
X44485714Y-9056285D01*
X44628571Y-8984857D01*
X44842857Y-8984857D01*
X44985714Y-9056285D01*
X45057142Y-9127714D01*
X45128571Y-9270571D01*
X45128571Y-9842000D01*
X43628571Y-9842000D01*
X43628571Y-9342000D01*
X43700000Y-9199142D01*
X43771428Y-9127714D01*
X43914285Y-9056285D01*
X44057142Y-9056285D01*
X44200000Y-9127714D01*
X44271428Y-9199142D01*
X44342857Y-9342000D01*
X44342857Y-9842000D01*
X45128571Y-7699142D02*
X44342857Y-7699142D01*
X44200000Y-7770571D01*
X44128571Y-7913428D01*
X44128571Y-8199142D01*
X44200000Y-8342000D01*
X45057142Y-7699142D02*
X45128571Y-7842000D01*
X45128571Y-8199142D01*
X45057142Y-8342000D01*
X44914285Y-8413428D01*
X44771428Y-8413428D01*
X44628571Y-8342000D01*
X44557142Y-8199142D01*
X44557142Y-7842000D01*
X44485714Y-7699142D01*
X44128571Y-7199142D02*
X44128571Y-6627714D01*
X43628571Y-6984857D02*
X44914285Y-6984857D01*
X45057142Y-6913428D01*
X45128571Y-6770571D01*
X45128571Y-6627714D01*
X44128571Y-6342000D02*
X44128571Y-5770571D01*
X43628571Y-6127714D02*
X44914285Y-6127714D01*
X45057142Y-6056285D01*
X45128571Y-5913428D01*
X45128571Y-5770571D01*
X43628571Y-3842000D02*
X43628571Y-3556285D01*
X43700000Y-3413428D01*
X43842857Y-3270571D01*
X44128571Y-3199142D01*
X44628571Y-3199142D01*
X44914285Y-3270571D01*
X45057142Y-3413428D01*
X45128571Y-3556285D01*
X45128571Y-3842000D01*
X45057142Y-3984857D01*
X44914285Y-4127714D01*
X44628571Y-4199142D01*
X44128571Y-4199142D01*
X43842857Y-4127714D01*
X43700000Y-3984857D01*
X43628571Y-3842000D01*
X43628571Y-2556285D02*
X44842857Y-2556285D01*
X44985714Y-2484857D01*
X45057142Y-2413428D01*
X45128571Y-2270571D01*
X45128571Y-1984857D01*
X45057142Y-1842000D01*
X44985714Y-1770571D01*
X44842857Y-1699142D01*
X43628571Y-1699142D01*
X43628571Y-1199142D02*
X43628571Y-342000D01*
X45128571Y-770571D02*
X43628571Y-770571D01*
X56709571Y-7207000D02*
X56709571Y-7921285D01*
X57423857Y-7992714D01*
X57352428Y-7921285D01*
X57281000Y-7778428D01*
X57281000Y-7421285D01*
X57352428Y-7278428D01*
X57423857Y-7207000D01*
X57566714Y-7135571D01*
X57923857Y-7135571D01*
X58066714Y-7207000D01*
X58138142Y-7278428D01*
X58209571Y-7421285D01*
X58209571Y-7778428D01*
X58138142Y-7921285D01*
X58066714Y-7992714D01*
X56709571Y-6707000D02*
X58209571Y-6207000D01*
X56709571Y-5707000D01*
X58209571Y-4064142D02*
X56709571Y-4064142D01*
X58209571Y-3349857D02*
X56709571Y-3349857D01*
X58209571Y-2492714D01*
X56709571Y-2492714D01*
X48403285Y-19911142D02*
X48617571Y-19982571D01*
X48974714Y-19982571D01*
X49117571Y-19911142D01*
X49189000Y-19839714D01*
X49260428Y-19696857D01*
X49260428Y-19554000D01*
X49189000Y-19411142D01*
X49117571Y-19339714D01*
X48974714Y-19268285D01*
X48689000Y-19196857D01*
X48546142Y-19125428D01*
X48474714Y-19054000D01*
X48403285Y-18911142D01*
X48403285Y-18768285D01*
X48474714Y-18625428D01*
X48546142Y-18554000D01*
X48689000Y-18482571D01*
X49046142Y-18482571D01*
X49260428Y-18554000D01*
X49903285Y-19196857D02*
X50403285Y-19196857D01*
X50617571Y-19982571D02*
X49903285Y-19982571D01*
X49903285Y-18482571D01*
X50617571Y-18482571D01*
X52117571Y-19982571D02*
X51617571Y-19268285D01*
X51260428Y-19982571D02*
X51260428Y-18482571D01*
X51831857Y-18482571D01*
X51974714Y-18554000D01*
X52046142Y-18625428D01*
X52117571Y-18768285D01*
X52117571Y-18982571D01*
X52046142Y-19125428D01*
X51974714Y-19196857D01*
X51831857Y-19268285D01*
X51260428Y-19268285D01*
X52546142Y-18482571D02*
X53046142Y-19982571D01*
X53546142Y-18482571D01*
X54331857Y-18482571D02*
X54617571Y-18482571D01*
X54760428Y-18554000D01*
X54903285Y-18696857D01*
X54974714Y-18982571D01*
X54974714Y-19482571D01*
X54903285Y-19768285D01*
X54760428Y-19911142D01*
X54617571Y-19982571D01*
X54331857Y-19982571D01*
X54189000Y-19911142D01*
X54046142Y-19768285D01*
X53974714Y-19482571D01*
X53974714Y-18982571D01*
X54046142Y-18696857D01*
X54189000Y-18554000D01*
X54331857Y-18482571D01*
X48506285Y-14497857D02*
X49006285Y-14497857D01*
X49220571Y-15283571D02*
X48506285Y-15283571D01*
X48506285Y-13783571D01*
X49220571Y-13783571D01*
X49792000Y-15212142D02*
X50006285Y-15283571D01*
X50363428Y-15283571D01*
X50506285Y-15212142D01*
X50577714Y-15140714D01*
X50649142Y-14997857D01*
X50649142Y-14855000D01*
X50577714Y-14712142D01*
X50506285Y-14640714D01*
X50363428Y-14569285D01*
X50077714Y-14497857D01*
X49934857Y-14426428D01*
X49863428Y-14355000D01*
X49792000Y-14212142D01*
X49792000Y-14069285D01*
X49863428Y-13926428D01*
X49934857Y-13855000D01*
X50077714Y-13783571D01*
X50434857Y-13783571D01*
X50649142Y-13855000D01*
X52149142Y-15140714D02*
X52077714Y-15212142D01*
X51863428Y-15283571D01*
X51720571Y-15283571D01*
X51506285Y-15212142D01*
X51363428Y-15069285D01*
X51292000Y-14926428D01*
X51220571Y-14640714D01*
X51220571Y-14426428D01*
X51292000Y-14140714D01*
X51363428Y-13997857D01*
X51506285Y-13855000D01*
X51720571Y-13783571D01*
X51863428Y-13783571D01*
X52077714Y-13855000D01*
X52149142Y-13926428D01*
D11*
X65650000Y-24448578D02*
X65650000Y-23931422D01*
X64230000Y-24448578D02*
X64230000Y-23931422D01*
X65037500Y-28247500D02*
X64412500Y-28247500D01*
X64725000Y-27935000D02*
X64725000Y-28560000D01*
X61344437Y-28800000D02*
X60280000Y-29864437D01*
X64735563Y-28800000D02*
X65800000Y-29864437D01*
X64735563Y-28800000D02*
X64100000Y-28800000D01*
X61344437Y-28800000D02*
X61980000Y-28800000D01*
X60280000Y-29864437D02*
X60280000Y-34320000D01*
X65800000Y-29864437D02*
X65800000Y-34320000D01*
X65800000Y-34320000D02*
X64100000Y-34320000D01*
X60280000Y-34320000D02*
X61980000Y-34320000D01*
X12820000Y-22361422D02*
X12820000Y-22878578D01*
X14240000Y-22361422D02*
X14240000Y-22878578D01*
X20277500Y-14202500D02*
X20277500Y-14827500D01*
X19965000Y-14515000D02*
X20590000Y-14515000D01*
X20830000Y-17895563D02*
X21894437Y-18960000D01*
X20830000Y-14504437D02*
X21894437Y-13440000D01*
X20830000Y-14504437D02*
X20830000Y-15140000D01*
X20830000Y-17895563D02*
X20830000Y-17260000D01*
X21894437Y-18960000D02*
X26350000Y-18960000D01*
X21894437Y-13440000D02*
X26350000Y-13440000D01*
X26350000Y-13440000D02*
X26350000Y-15140000D01*
X26350000Y-18960000D02*
X26350000Y-17260000D01*
X17302500Y-27772500D02*
X17927500Y-27772500D01*
X17615000Y-28085000D02*
X17615000Y-27460000D01*
X20995563Y-27220000D02*
X22060000Y-26155563D01*
X17604437Y-27220000D02*
X16540000Y-26155563D01*
X17604437Y-27220000D02*
X18240000Y-27220000D01*
X20995563Y-27220000D02*
X20360000Y-27220000D01*
X22060000Y-26155563D02*
X22060000Y-21700000D01*
X16540000Y-26155563D02*
X16540000Y-21700000D01*
X16540000Y-21700000D02*
X18240000Y-21700000D01*
X22060000Y-21700000D02*
X20360000Y-21700000D01*
X184000Y-6742000D02*
X184000Y-9242000D01*
X2684000Y-6742000D02*
X184000Y-6742000D01*
X1984000Y-31262000D02*
X484000Y-31262000D01*
X1984000Y-32262000D02*
X1984000Y-31262000D01*
X1984000Y-8042000D02*
X484000Y-8042000D01*
X1984000Y-7042000D02*
X1984000Y-8042000D01*
X2794000Y-31762000D02*
X2794000Y-32262000D01*
X4004000Y-31762000D02*
X2794000Y-31762000D01*
X4004000Y-7542000D02*
X4004000Y-31762000D01*
X2794000Y-7542000D02*
X4004000Y-7542000D01*
X2794000Y-7042000D02*
X2794000Y-7542000D01*
X4504000Y-32262000D02*
X4504000Y-7042000D01*
X484000Y-32262000D02*
X4504000Y-32262000D01*
X484000Y-7042000D02*
X484000Y-32262000D01*
X4504000Y-7042000D02*
X484000Y-7042000D01*
D12*
X15388000Y-32699000D02*
X15388000Y-38674000D01*
X8488000Y-34224000D02*
X8488000Y-38674000D01*
D11*
X54812000Y-32888422D02*
X54812000Y-33405578D01*
X53392000Y-32888422D02*
X53392000Y-33405578D01*
X57225000Y-32888422D02*
X57225000Y-33405578D01*
X55805000Y-32888422D02*
X55805000Y-33405578D01*
X59638000Y-32888422D02*
X59638000Y-33405578D01*
X58218000Y-32888422D02*
X58218000Y-33405578D01*
X69401000Y-819000D02*
X65381000Y-819000D01*
X65381000Y-819000D02*
X65381000Y-21039000D01*
X65381000Y-21039000D02*
X69401000Y-21039000D01*
X69401000Y-21039000D02*
X69401000Y-819000D01*
X67691000Y-819000D02*
X67691000Y-1319000D01*
X67691000Y-1319000D02*
X68901000Y-1319000D01*
X68901000Y-1319000D02*
X68901000Y-20539000D01*
X68901000Y-20539000D02*
X67691000Y-20539000D01*
X67691000Y-20539000D02*
X67691000Y-21039000D01*
X66881000Y-819000D02*
X66881000Y-1819000D01*
X66881000Y-1819000D02*
X65381000Y-1819000D01*
X66881000Y-21039000D02*
X66881000Y-20039000D01*
X66881000Y-20039000D02*
X65381000Y-20039000D01*
X67581000Y-519000D02*
X65081000Y-519000D01*
X65081000Y-519000D02*
X65081000Y-3019000D01*
X18104000Y-44890000D02*
X18104000Y-40870000D01*
X18104000Y-40870000D02*
X5384000Y-40870000D01*
X5384000Y-40870000D02*
X5384000Y-44890000D01*
X5384000Y-44890000D02*
X18104000Y-44890000D01*
X18104000Y-43180000D02*
X17604000Y-43180000D01*
X17604000Y-43180000D02*
X17604000Y-44390000D01*
X17604000Y-44390000D02*
X5884000Y-44390000D01*
X5884000Y-44390000D02*
X5884000Y-43180000D01*
X5884000Y-43180000D02*
X5384000Y-43180000D01*
X18104000Y-42370000D02*
X17104000Y-42370000D01*
X17104000Y-42370000D02*
X17104000Y-40870000D01*
X5384000Y-42370000D02*
X6384000Y-42370000D01*
X6384000Y-42370000D02*
X6384000Y-40870000D01*
X18404000Y-43070000D02*
X18404000Y-40570000D01*
X18404000Y-40570000D02*
X15904000Y-40570000D01*
X53142000Y-35576000D02*
X53142000Y-38261000D01*
X53142000Y-38261000D02*
X55062000Y-38261000D01*
X55062000Y-38261000D02*
X55062000Y-35576000D01*
X55555000Y-35576000D02*
X55555000Y-38261000D01*
X55555000Y-38261000D02*
X57475000Y-38261000D01*
X57475000Y-38261000D02*
X57475000Y-35576000D01*
X57968000Y-35576000D02*
X57968000Y-38261000D01*
X57968000Y-38261000D02*
X59888000Y-38261000D01*
X59888000Y-38261000D02*
X59888000Y-35576000D01*
X58596000Y-44955578D02*
X58596000Y-44438422D01*
X60016000Y-44955578D02*
X60016000Y-44438422D01*
X28459000Y-21660000D02*
X30959000Y-21660000D01*
X28459000Y-19160000D02*
X28459000Y-21660000D01*
X35479000Y-19860000D02*
X35479000Y-21360000D01*
X36479000Y-19860000D02*
X35479000Y-19860000D01*
X29759000Y-19860000D02*
X29759000Y-21360000D01*
X28759000Y-19860000D02*
X29759000Y-19860000D01*
X35979000Y-19050000D02*
X36479000Y-19050000D01*
X35979000Y-17840000D02*
X35979000Y-19050000D01*
X29259000Y-17840000D02*
X35979000Y-17840000D01*
X29259000Y-19050000D02*
X29259000Y-17840000D01*
X28759000Y-19050000D02*
X29259000Y-19050000D01*
X36479000Y-17340000D02*
X28759000Y-17340000D01*
X36479000Y-21360000D02*
X36479000Y-17340000D01*
X28759000Y-21360000D02*
X36479000Y-21360000D01*
X28759000Y-17340000D02*
X28759000Y-21360000D01*
X74354000Y-819000D02*
X70334000Y-819000D01*
X70334000Y-819000D02*
X70334000Y-21039000D01*
X70334000Y-21039000D02*
X74354000Y-21039000D01*
X74354000Y-21039000D02*
X74354000Y-819000D01*
X72644000Y-819000D02*
X72644000Y-1319000D01*
X72644000Y-1319000D02*
X73854000Y-1319000D01*
X73854000Y-1319000D02*
X73854000Y-20539000D01*
X73854000Y-20539000D02*
X72644000Y-20539000D01*
X72644000Y-20539000D02*
X72644000Y-21039000D01*
X71834000Y-819000D02*
X71834000Y-1819000D01*
X71834000Y-1819000D02*
X70334000Y-1819000D01*
X71834000Y-21039000D02*
X71834000Y-20039000D01*
X71834000Y-20039000D02*
X70334000Y-20039000D01*
X72534000Y-519000D02*
X70034000Y-519000D01*
X70034000Y-519000D02*
X70034000Y-3019000D01*
X25300000Y-21600000D02*
X45300000Y-21600000D01*
X22800000Y-24100000D02*
G75*
G02X25300000Y-21600000I2500000J0D01*
G01*
X22800000Y-44100000D02*
X22800000Y-24100000D01*
X25300000Y-46600000D02*
G75*
G02X22800000Y-44100000I0J2500000D01*
G01*
X45300000Y-21600000D02*
G75*
G02X47800000Y-24100000I0J-2500000D01*
G01*
X47800000Y-24100000D02*
X47800000Y-44100000D01*
X45300000Y-46600000D02*
X25300000Y-46600000D01*
X47800000Y-44100000D02*
G75*
G02X45300000Y-46600000I-2500000J0D01*
G01*
X9981000Y-30992578D02*
X9981000Y-30475422D01*
X8561000Y-30992578D02*
X8561000Y-30475422D01*
X12013000Y-30992578D02*
X12013000Y-30475422D01*
X10593000Y-30992578D02*
X10593000Y-30475422D01*
X14045000Y-30992578D02*
X14045000Y-30475422D01*
X12625000Y-30992578D02*
X12625000Y-30475422D01*
X16077000Y-30992578D02*
X16077000Y-30475422D01*
X14657000Y-30992578D02*
X14657000Y-30475422D01*
X58596000Y-47915922D02*
X58596000Y-48433078D01*
X60016000Y-47915922D02*
X60016000Y-48433078D01*
X56564000Y-44438422D02*
X56564000Y-44955578D01*
X57984000Y-44438422D02*
X57984000Y-44955578D01*
X63062000Y-27294000D02*
X63062000Y-24794000D01*
X60562000Y-27294000D02*
X63062000Y-27294000D01*
X61262000Y-7774000D02*
X62762000Y-7774000D01*
X61262000Y-6774000D02*
X61262000Y-7774000D01*
X61262000Y-25994000D02*
X62762000Y-25994000D01*
X61262000Y-26994000D02*
X61262000Y-25994000D01*
X60452000Y-7274000D02*
X60452000Y-6774000D01*
X59242000Y-7274000D02*
X60452000Y-7274000D01*
X59242000Y-26494000D02*
X59242000Y-7274000D01*
X60452000Y-26494000D02*
X59242000Y-26494000D01*
X60452000Y-26994000D02*
X60452000Y-26494000D01*
X58742000Y-6774000D02*
X58742000Y-26994000D01*
X62762000Y-6774000D02*
X58742000Y-6774000D01*
X62762000Y-26994000D02*
X62762000Y-6774000D01*
X58742000Y-26994000D02*
X62762000Y-26994000D01*
X23357000Y-45523000D02*
X20857000Y-45523000D01*
X23357000Y-48023000D02*
X23357000Y-45523000D01*
X6337000Y-47323000D02*
X6337000Y-45823000D01*
X5337000Y-47323000D02*
X6337000Y-47323000D01*
X22057000Y-47323000D02*
X22057000Y-45823000D01*
X23057000Y-47323000D02*
X22057000Y-47323000D01*
X5837000Y-48133000D02*
X5337000Y-48133000D01*
X5837000Y-49343000D02*
X5837000Y-48133000D01*
X22557000Y-49343000D02*
X5837000Y-49343000D01*
X22557000Y-48133000D02*
X22557000Y-49343000D01*
X23057000Y-48133000D02*
X22557000Y-48133000D01*
X5337000Y-49843000D02*
X23057000Y-49843000D01*
X5337000Y-45823000D02*
X5337000Y-49843000D01*
X23057000Y-45823000D02*
X5337000Y-45823000D01*
X23057000Y-49843000D02*
X23057000Y-45823000D01*
X65081000Y-34682000D02*
X65081000Y-37182000D01*
X67581000Y-34682000D02*
X65081000Y-34682000D01*
X66881000Y-54202000D02*
X65381000Y-54202000D01*
X66881000Y-55202000D02*
X66881000Y-54202000D01*
X66881000Y-35982000D02*
X65381000Y-35982000D01*
X66881000Y-34982000D02*
X66881000Y-35982000D01*
X67691000Y-54702000D02*
X67691000Y-55202000D01*
X68901000Y-54702000D02*
X67691000Y-54702000D01*
X68901000Y-35482000D02*
X68901000Y-54702000D01*
X67691000Y-35482000D02*
X68901000Y-35482000D01*
X67691000Y-34982000D02*
X67691000Y-35482000D01*
X69401000Y-55202000D02*
X69401000Y-34982000D01*
X65381000Y-55202000D02*
X69401000Y-55202000D01*
X65381000Y-34982000D02*
X65381000Y-55202000D01*
X69401000Y-34982000D02*
X65381000Y-34982000D01*
X70034000Y-34677000D02*
X70034000Y-37177000D01*
X72534000Y-34677000D02*
X70034000Y-34677000D01*
X71834000Y-54197000D02*
X70334000Y-54197000D01*
X71834000Y-55197000D02*
X71834000Y-54197000D01*
X71834000Y-35977000D02*
X70334000Y-35977000D01*
X71834000Y-34977000D02*
X71834000Y-35977000D01*
X72644000Y-54697000D02*
X72644000Y-55197000D01*
X73854000Y-54697000D02*
X72644000Y-54697000D01*
X73854000Y-35477000D02*
X73854000Y-54697000D01*
X72644000Y-35477000D02*
X73854000Y-35477000D01*
X72644000Y-34977000D02*
X72644000Y-35477000D01*
X74354000Y-55197000D02*
X74354000Y-34977000D01*
X70334000Y-55197000D02*
X74354000Y-55197000D01*
X70334000Y-34977000D02*
X70334000Y-55197000D01*
X74354000Y-34977000D02*
X70334000Y-34977000D01*
X47995000Y-17075000D02*
X45495000Y-17075000D01*
X47995000Y-19575000D02*
X47995000Y-17075000D01*
X38475000Y-18875000D02*
X38475000Y-17375000D01*
X37475000Y-18875000D02*
X38475000Y-18875000D01*
X46695000Y-18875000D02*
X46695000Y-17375000D01*
X47695000Y-18875000D02*
X46695000Y-18875000D01*
X37975000Y-19685000D02*
X37475000Y-19685000D01*
X37975000Y-20895000D02*
X37975000Y-19685000D01*
X47195000Y-20895000D02*
X37975000Y-20895000D01*
X47195000Y-19685000D02*
X47195000Y-20895000D01*
X47695000Y-19685000D02*
X47195000Y-19685000D01*
X37475000Y-21395000D02*
X47695000Y-21395000D01*
X37475000Y-17375000D02*
X37475000Y-21395000D01*
X47695000Y-17375000D02*
X37475000Y-17375000D01*
X47695000Y-21395000D02*
X47695000Y-17375000D01*
X47995000Y-12503000D02*
X45495000Y-12503000D01*
X47995000Y-15003000D02*
X47995000Y-12503000D01*
X38475000Y-14303000D02*
X38475000Y-12803000D01*
X37475000Y-14303000D02*
X38475000Y-14303000D01*
X46695000Y-14303000D02*
X46695000Y-12803000D01*
X47695000Y-14303000D02*
X46695000Y-14303000D01*
X37975000Y-15113000D02*
X37475000Y-15113000D01*
X37975000Y-16323000D02*
X37975000Y-15113000D01*
X47195000Y-16323000D02*
X37975000Y-16323000D01*
X47195000Y-15113000D02*
X47195000Y-16323000D01*
X47695000Y-15113000D02*
X47195000Y-15113000D01*
X37475000Y-16823000D02*
X47695000Y-16823000D01*
X37475000Y-12803000D02*
X37475000Y-16823000D01*
X47695000Y-12803000D02*
X37475000Y-12803000D01*
X47695000Y-16823000D02*
X47695000Y-12803000D01*
X19293000Y-14408000D02*
X16793000Y-14408000D01*
X19293000Y-16908000D02*
X19293000Y-14408000D01*
X7273000Y-16208000D02*
X7273000Y-14708000D01*
X6273000Y-16208000D02*
X7273000Y-16208000D01*
X17993000Y-16208000D02*
X17993000Y-14708000D01*
X18993000Y-16208000D02*
X17993000Y-16208000D01*
X6773000Y-17018000D02*
X6273000Y-17018000D01*
X6773000Y-18228000D02*
X6773000Y-17018000D01*
X18493000Y-18228000D02*
X6773000Y-18228000D01*
X18493000Y-17018000D02*
X18493000Y-18228000D01*
X18993000Y-17018000D02*
X18493000Y-17018000D01*
X6273000Y-18728000D02*
X18993000Y-18728000D01*
X6273000Y-14708000D02*
X6273000Y-18728000D01*
X18993000Y-14708000D02*
X6273000Y-14708000D01*
X18993000Y-18728000D02*
X18993000Y-14708000D01*
X58124000Y-46607000D02*
X58124000Y-49757000D01*
X56424000Y-46607000D02*
X56424000Y-49757000D01*
X58124000Y-46607000D02*
X56424000Y-46607000D01*
X9981000Y-27563578D02*
X9981000Y-27046422D01*
X8561000Y-27563578D02*
X8561000Y-27046422D01*
X12013000Y-27563578D02*
X12013000Y-27046422D01*
X10593000Y-27563578D02*
X10593000Y-27046422D01*
X14045000Y-27563578D02*
X14045000Y-27046422D01*
X12625000Y-27563578D02*
X12625000Y-27046422D01*
X16077000Y-27563578D02*
X16077000Y-27046422D01*
X14657000Y-27563578D02*
X14657000Y-27046422D01*
D12*
X24558666Y-10120380D02*
X24558666Y-10834666D01*
X24511047Y-10977523D01*
X24415809Y-11072761D01*
X24272952Y-11120380D01*
X24177714Y-11120380D01*
X25177714Y-10548952D02*
X25082476Y-10501333D01*
X25034857Y-10453714D01*
X24987238Y-10358476D01*
X24987238Y-10310857D01*
X25034857Y-10215619D01*
X25082476Y-10168000D01*
X25177714Y-10120380D01*
X25368190Y-10120380D01*
X25463428Y-10168000D01*
X25511047Y-10215619D01*
X25558666Y-10310857D01*
X25558666Y-10358476D01*
X25511047Y-10453714D01*
X25463428Y-10501333D01*
X25368190Y-10548952D01*
X25177714Y-10548952D01*
X25082476Y-10596571D01*
X25034857Y-10644190D01*
X24987238Y-10739428D01*
X24987238Y-10929904D01*
X25034857Y-11025142D01*
X25082476Y-11072761D01*
X25177714Y-11120380D01*
X25368190Y-11120380D01*
X25463428Y-11072761D01*
X25511047Y-11025142D01*
X25558666Y-10929904D01*
X25558666Y-10739428D01*
X25511047Y-10644190D01*
X25463428Y-10596571D01*
X25368190Y-10548952D01*
X63887142Y-22197142D02*
X63839523Y-22244761D01*
X63696666Y-22292380D01*
X63601428Y-22292380D01*
X63458571Y-22244761D01*
X63363333Y-22149523D01*
X63315714Y-22054285D01*
X63268095Y-21863809D01*
X63268095Y-21720952D01*
X63315714Y-21530476D01*
X63363333Y-21435238D01*
X63458571Y-21340000D01*
X63601428Y-21292380D01*
X63696666Y-21292380D01*
X63839523Y-21340000D01*
X63887142Y-21387619D01*
X64839523Y-22292380D02*
X64268095Y-22292380D01*
X64553809Y-22292380D02*
X64553809Y-21292380D01*
X64458571Y-21435238D01*
X64363333Y-21530476D01*
X64268095Y-21578095D01*
X65791904Y-22292380D02*
X65220476Y-22292380D01*
X65506190Y-22292380D02*
X65506190Y-21292380D01*
X65410952Y-21435238D01*
X65315714Y-21530476D01*
X65220476Y-21578095D01*
X67117142Y-29676666D02*
X67164761Y-29724285D01*
X67212380Y-29867142D01*
X67212380Y-29962380D01*
X67164761Y-30105238D01*
X67069523Y-30200476D01*
X66974285Y-30248095D01*
X66783809Y-30295714D01*
X66640952Y-30295714D01*
X66450476Y-30248095D01*
X66355238Y-30200476D01*
X66260000Y-30105238D01*
X66212380Y-29962380D01*
X66212380Y-29867142D01*
X66260000Y-29724285D01*
X66307619Y-29676666D01*
X67212380Y-29200476D02*
X67212380Y-29010000D01*
X67164761Y-28914761D01*
X67117142Y-28867142D01*
X66974285Y-28771904D01*
X66783809Y-28724285D01*
X66402857Y-28724285D01*
X66307619Y-28771904D01*
X66260000Y-28819523D01*
X66212380Y-28914761D01*
X66212380Y-29105238D01*
X66260000Y-29200476D01*
X66307619Y-29248095D01*
X66402857Y-29295714D01*
X66640952Y-29295714D01*
X66736190Y-29248095D01*
X66783809Y-29200476D01*
X66831428Y-29105238D01*
X66831428Y-28914761D01*
X66783809Y-28819523D01*
X66736190Y-28771904D01*
X66640952Y-28724285D01*
X15537142Y-22786666D02*
X15584761Y-22834285D01*
X15632380Y-22977142D01*
X15632380Y-23072380D01*
X15584761Y-23215238D01*
X15489523Y-23310476D01*
X15394285Y-23358095D01*
X15203809Y-23405714D01*
X15060952Y-23405714D01*
X14870476Y-23358095D01*
X14775238Y-23310476D01*
X14680000Y-23215238D01*
X14632380Y-23072380D01*
X14632380Y-22977142D01*
X14680000Y-22834285D01*
X14727619Y-22786666D01*
X15060952Y-22215238D02*
X15013333Y-22310476D01*
X14965714Y-22358095D01*
X14870476Y-22405714D01*
X14822857Y-22405714D01*
X14727619Y-22358095D01*
X14680000Y-22310476D01*
X14632380Y-22215238D01*
X14632380Y-22024761D01*
X14680000Y-21929523D01*
X14727619Y-21881904D01*
X14822857Y-21834285D01*
X14870476Y-21834285D01*
X14965714Y-21881904D01*
X15013333Y-21929523D01*
X15060952Y-22024761D01*
X15060952Y-22215238D01*
X15108571Y-22310476D01*
X15156190Y-22358095D01*
X15251428Y-22405714D01*
X15441904Y-22405714D01*
X15537142Y-22358095D01*
X15584761Y-22310476D01*
X15632380Y-22215238D01*
X15632380Y-22024761D01*
X15584761Y-21929523D01*
X15537142Y-21881904D01*
X15441904Y-21834285D01*
X15251428Y-21834285D01*
X15156190Y-21881904D01*
X15108571Y-21929523D01*
X15060952Y-22024761D01*
X23423333Y-12857142D02*
X23375714Y-12904761D01*
X23232857Y-12952380D01*
X23137619Y-12952380D01*
X22994761Y-12904761D01*
X22899523Y-12809523D01*
X22851904Y-12714285D01*
X22804285Y-12523809D01*
X22804285Y-12380952D01*
X22851904Y-12190476D01*
X22899523Y-12095238D01*
X22994761Y-12000000D01*
X23137619Y-11952380D01*
X23232857Y-11952380D01*
X23375714Y-12000000D01*
X23423333Y-12047619D01*
X23756666Y-11952380D02*
X24423333Y-11952380D01*
X23994761Y-12952380D01*
X23357142Y-21536666D02*
X23404761Y-21584285D01*
X23452380Y-21727142D01*
X23452380Y-21822380D01*
X23404761Y-21965238D01*
X23309523Y-22060476D01*
X23214285Y-22108095D01*
X23023809Y-22155714D01*
X22880952Y-22155714D01*
X22690476Y-22108095D01*
X22595238Y-22060476D01*
X22500000Y-21965238D01*
X22452380Y-21822380D01*
X22452380Y-21727142D01*
X22500000Y-21584285D01*
X22547619Y-21536666D01*
X22452380Y-20631904D02*
X22452380Y-21108095D01*
X22928571Y-21155714D01*
X22880952Y-21108095D01*
X22833333Y-21012857D01*
X22833333Y-20774761D01*
X22880952Y-20679523D01*
X22928571Y-20631904D01*
X23023809Y-20584285D01*
X23261904Y-20584285D01*
X23357142Y-20631904D01*
X23404761Y-20679523D01*
X23452380Y-20774761D01*
X23452380Y-21012857D01*
X23404761Y-21108095D01*
X23357142Y-21155714D01*
X11477666Y-10120380D02*
X11477666Y-10834666D01*
X11430047Y-10977523D01*
X11334809Y-11072761D01*
X11191952Y-11120380D01*
X11096714Y-11120380D01*
X11858619Y-10120380D02*
X12477666Y-10120380D01*
X12144333Y-10501333D01*
X12287190Y-10501333D01*
X12382428Y-10548952D01*
X12430047Y-10596571D01*
X12477666Y-10691809D01*
X12477666Y-10929904D01*
X12430047Y-11025142D01*
X12382428Y-11072761D01*
X12287190Y-11120380D01*
X12001476Y-11120380D01*
X11906238Y-11072761D01*
X11858619Y-11025142D01*
X5381666Y-5548380D02*
X5381666Y-6262666D01*
X5334047Y-6405523D01*
X5238809Y-6500761D01*
X5095952Y-6548380D01*
X5000714Y-6548380D01*
X5810238Y-5643619D02*
X5857857Y-5596000D01*
X5953095Y-5548380D01*
X6191190Y-5548380D01*
X6286428Y-5596000D01*
X6334047Y-5643619D01*
X6381666Y-5738857D01*
X6381666Y-5834095D01*
X6334047Y-5976952D01*
X5762619Y-6548380D01*
X6381666Y-6548380D01*
X15690380Y-37210904D02*
X16499904Y-37210904D01*
X16595142Y-37163285D01*
X16642761Y-37115666D01*
X16690380Y-37020428D01*
X16690380Y-36829952D01*
X16642761Y-36734714D01*
X16595142Y-36687095D01*
X16499904Y-36639476D01*
X15690380Y-36639476D01*
X15690380Y-35687095D02*
X15690380Y-36163285D01*
X16166571Y-36210904D01*
X16118952Y-36163285D01*
X16071333Y-36068047D01*
X16071333Y-35829952D01*
X16118952Y-35734714D01*
X16166571Y-35687095D01*
X16261809Y-35639476D01*
X16499904Y-35639476D01*
X16595142Y-35687095D01*
X16642761Y-35734714D01*
X16690380Y-35829952D01*
X16690380Y-36068047D01*
X16642761Y-36163285D01*
X16595142Y-36210904D01*
X53205142Y-31313380D02*
X52871809Y-30837190D01*
X52633714Y-31313380D02*
X52633714Y-30313380D01*
X53014666Y-30313380D01*
X53109904Y-30361000D01*
X53157523Y-30408619D01*
X53205142Y-30503857D01*
X53205142Y-30646714D01*
X53157523Y-30741952D01*
X53109904Y-30789571D01*
X53014666Y-30837190D01*
X52633714Y-30837190D01*
X54157523Y-31313380D02*
X53586095Y-31313380D01*
X53871809Y-31313380D02*
X53871809Y-30313380D01*
X53776571Y-30456238D01*
X53681333Y-30551476D01*
X53586095Y-30599095D01*
X54776571Y-30313380D02*
X54871809Y-30313380D01*
X54967047Y-30361000D01*
X55014666Y-30408619D01*
X55062285Y-30503857D01*
X55109904Y-30694333D01*
X55109904Y-30932428D01*
X55062285Y-31122904D01*
X55014666Y-31218142D01*
X54967047Y-31265761D01*
X54871809Y-31313380D01*
X54776571Y-31313380D01*
X54681333Y-31265761D01*
X54633714Y-31218142D01*
X54586095Y-31122904D01*
X54538476Y-30932428D01*
X54538476Y-30694333D01*
X54586095Y-30503857D01*
X54633714Y-30408619D01*
X54681333Y-30361000D01*
X54776571Y-30313380D01*
X56348333Y-31313380D02*
X56015000Y-30837190D01*
X55776904Y-31313380D02*
X55776904Y-30313380D01*
X56157857Y-30313380D01*
X56253095Y-30361000D01*
X56300714Y-30408619D01*
X56348333Y-30503857D01*
X56348333Y-30646714D01*
X56300714Y-30741952D01*
X56253095Y-30789571D01*
X56157857Y-30837190D01*
X55776904Y-30837190D01*
X56824523Y-31313380D02*
X57015000Y-31313380D01*
X57110238Y-31265761D01*
X57157857Y-31218142D01*
X57253095Y-31075285D01*
X57300714Y-30884809D01*
X57300714Y-30503857D01*
X57253095Y-30408619D01*
X57205476Y-30361000D01*
X57110238Y-30313380D01*
X56919761Y-30313380D01*
X56824523Y-30361000D01*
X56776904Y-30408619D01*
X56729285Y-30503857D01*
X56729285Y-30741952D01*
X56776904Y-30837190D01*
X56824523Y-30884809D01*
X56919761Y-30932428D01*
X57110238Y-30932428D01*
X57205476Y-30884809D01*
X57253095Y-30837190D01*
X57300714Y-30741952D01*
X58761333Y-31313380D02*
X58428000Y-30837190D01*
X58189904Y-31313380D02*
X58189904Y-30313380D01*
X58570857Y-30313380D01*
X58666095Y-30361000D01*
X58713714Y-30408619D01*
X58761333Y-30503857D01*
X58761333Y-30646714D01*
X58713714Y-30741952D01*
X58666095Y-30789571D01*
X58570857Y-30837190D01*
X58189904Y-30837190D01*
X59332761Y-30741952D02*
X59237523Y-30694333D01*
X59189904Y-30646714D01*
X59142285Y-30551476D01*
X59142285Y-30503857D01*
X59189904Y-30408619D01*
X59237523Y-30361000D01*
X59332761Y-30313380D01*
X59523238Y-30313380D01*
X59618476Y-30361000D01*
X59666095Y-30408619D01*
X59713714Y-30503857D01*
X59713714Y-30551476D01*
X59666095Y-30646714D01*
X59618476Y-30694333D01*
X59523238Y-30741952D01*
X59332761Y-30741952D01*
X59237523Y-30789571D01*
X59189904Y-30837190D01*
X59142285Y-30932428D01*
X59142285Y-31122904D01*
X59189904Y-31218142D01*
X59237523Y-31265761D01*
X59332761Y-31313380D01*
X59523238Y-31313380D01*
X59618476Y-31265761D01*
X59666095Y-31218142D01*
X59713714Y-31122904D01*
X59713714Y-30932428D01*
X59666095Y-30837190D01*
X59618476Y-30789571D01*
X59523238Y-30741952D01*
X37512666Y-9993380D02*
X37512666Y-10707666D01*
X37465047Y-10850523D01*
X37369809Y-10945761D01*
X37226952Y-10993380D01*
X37131714Y-10993380D01*
X38417428Y-9993380D02*
X38226952Y-9993380D01*
X38131714Y-10041000D01*
X38084095Y-10088619D01*
X37988857Y-10231476D01*
X37941238Y-10421952D01*
X37941238Y-10802904D01*
X37988857Y-10898142D01*
X38036476Y-10945761D01*
X38131714Y-10993380D01*
X38322190Y-10993380D01*
X38417428Y-10945761D01*
X38465047Y-10898142D01*
X38512666Y-10802904D01*
X38512666Y-10564809D01*
X38465047Y-10469571D01*
X38417428Y-10421952D01*
X38322190Y-10374333D01*
X38131714Y-10374333D01*
X38036476Y-10421952D01*
X37988857Y-10469571D01*
X37941238Y-10564809D01*
X64095380Y-6683333D02*
X64809666Y-6683333D01*
X64952523Y-6730952D01*
X65047761Y-6826190D01*
X65095380Y-6969047D01*
X65095380Y-7064285D01*
X64095380Y-5730952D02*
X64095380Y-6207142D01*
X64571571Y-6254761D01*
X64523952Y-6207142D01*
X64476333Y-6111904D01*
X64476333Y-5873809D01*
X64523952Y-5778571D01*
X64571571Y-5730952D01*
X64666809Y-5683333D01*
X64904904Y-5683333D01*
X65000142Y-5730952D01*
X65047761Y-5778571D01*
X65095380Y-5873809D01*
X65095380Y-6111904D01*
X65047761Y-6207142D01*
X65000142Y-6254761D01*
X19097666Y-42632380D02*
X19097666Y-43346666D01*
X19050047Y-43489523D01*
X18954809Y-43584761D01*
X18811952Y-43632380D01*
X18716714Y-43632380D01*
X20002428Y-42965714D02*
X20002428Y-43632380D01*
X19764333Y-42584761D02*
X19526238Y-43299047D01*
X20145285Y-43299047D01*
X61317142Y-44896666D02*
X61364761Y-44944285D01*
X61412380Y-45087142D01*
X61412380Y-45182380D01*
X61364761Y-45325238D01*
X61269523Y-45420476D01*
X61174285Y-45468095D01*
X60983809Y-45515714D01*
X60840952Y-45515714D01*
X60650476Y-45468095D01*
X60555238Y-45420476D01*
X60460000Y-45325238D01*
X60412380Y-45182380D01*
X60412380Y-45087142D01*
X60460000Y-44944285D01*
X60507619Y-44896666D01*
X60412380Y-44039523D02*
X60412380Y-44230000D01*
X60460000Y-44325238D01*
X60507619Y-44372857D01*
X60650476Y-44468095D01*
X60840952Y-44515714D01*
X61221904Y-44515714D01*
X61317142Y-44468095D01*
X61364761Y-44420476D01*
X61412380Y-44325238D01*
X61412380Y-44134761D01*
X61364761Y-44039523D01*
X61317142Y-43991904D01*
X61221904Y-43944285D01*
X60983809Y-43944285D01*
X60888571Y-43991904D01*
X60840952Y-44039523D01*
X60793333Y-44134761D01*
X60793333Y-44325238D01*
X60840952Y-44420476D01*
X60888571Y-44468095D01*
X60983809Y-44515714D01*
X31809476Y-15702380D02*
X31809476Y-16416666D01*
X31761857Y-16559523D01*
X31666619Y-16654761D01*
X31523761Y-16702380D01*
X31428523Y-16702380D01*
X32809476Y-16702380D02*
X32238047Y-16702380D01*
X32523761Y-16702380D02*
X32523761Y-15702380D01*
X32428523Y-15845238D01*
X32333285Y-15940476D01*
X32238047Y-15988095D01*
X33142809Y-15702380D02*
X33809476Y-15702380D01*
X33380904Y-16702380D01*
X73620380Y-23415523D02*
X74334666Y-23415523D01*
X74477523Y-23463142D01*
X74572761Y-23558380D01*
X74620380Y-23701238D01*
X74620380Y-23796476D01*
X74620380Y-22415523D02*
X74620380Y-22986952D01*
X74620380Y-22701238D02*
X73620380Y-22701238D01*
X73763238Y-22796476D01*
X73858476Y-22891714D01*
X73906095Y-22986952D01*
X73620380Y-22082190D02*
X73620380Y-21463142D01*
X74001333Y-21796476D01*
X74001333Y-21653619D01*
X74048952Y-21558380D01*
X74096571Y-21510761D01*
X74191809Y-21463142D01*
X74429904Y-21463142D01*
X74525142Y-21510761D01*
X74572761Y-21558380D01*
X74620380Y-21653619D01*
X74620380Y-21939333D01*
X74572761Y-22034571D01*
X74525142Y-22082190D01*
X8073380Y-30900666D02*
X7597190Y-31234000D01*
X8073380Y-31472095D02*
X7073380Y-31472095D01*
X7073380Y-31091142D01*
X7121000Y-30995904D01*
X7168619Y-30948285D01*
X7263857Y-30900666D01*
X7406714Y-30900666D01*
X7501952Y-30948285D01*
X7549571Y-30995904D01*
X7597190Y-31091142D01*
X7597190Y-31472095D01*
X7073380Y-30567333D02*
X7073380Y-29900666D01*
X8073380Y-30329238D01*
X17572380Y-30806666D02*
X17096190Y-31140000D01*
X17572380Y-31378095D02*
X16572380Y-31378095D01*
X16572380Y-30997142D01*
X16620000Y-30901904D01*
X16667619Y-30854285D01*
X16762857Y-30806666D01*
X16905714Y-30806666D01*
X17000952Y-30854285D01*
X17048571Y-30901904D01*
X17096190Y-30997142D01*
X17096190Y-31378095D01*
X16905714Y-29949523D02*
X17572380Y-29949523D01*
X16524761Y-30187619D02*
X17239047Y-30425714D01*
X17239047Y-29806666D01*
X61462380Y-48546666D02*
X60986190Y-48880000D01*
X61462380Y-49118095D02*
X60462380Y-49118095D01*
X60462380Y-48737142D01*
X60510000Y-48641904D01*
X60557619Y-48594285D01*
X60652857Y-48546666D01*
X60795714Y-48546666D01*
X60890952Y-48594285D01*
X60938571Y-48641904D01*
X60986190Y-48737142D01*
X60986190Y-49118095D01*
X60462380Y-48213333D02*
X60462380Y-47594285D01*
X60843333Y-47927619D01*
X60843333Y-47784761D01*
X60890952Y-47689523D01*
X60938571Y-47641904D01*
X61033809Y-47594285D01*
X61271904Y-47594285D01*
X61367142Y-47641904D01*
X61414761Y-47689523D01*
X61462380Y-47784761D01*
X61462380Y-48070476D01*
X61414761Y-48165714D01*
X61367142Y-48213333D01*
X56092380Y-44896666D02*
X55616190Y-45230000D01*
X56092380Y-45468095D02*
X55092380Y-45468095D01*
X55092380Y-45087142D01*
X55140000Y-44991904D01*
X55187619Y-44944285D01*
X55282857Y-44896666D01*
X55425714Y-44896666D01*
X55520952Y-44944285D01*
X55568571Y-44991904D01*
X55616190Y-45087142D01*
X55616190Y-45468095D01*
X55187619Y-44515714D02*
X55140000Y-44468095D01*
X55092380Y-44372857D01*
X55092380Y-44134761D01*
X55140000Y-44039523D01*
X55187619Y-43991904D01*
X55282857Y-43944285D01*
X55378095Y-43944285D01*
X55520952Y-43991904D01*
X56092380Y-44563333D01*
X56092380Y-43944285D01*
X57237380Y-25066523D02*
X57951666Y-25066523D01*
X58094523Y-25114142D01*
X58189761Y-25209380D01*
X58237380Y-25352238D01*
X58237380Y-25447476D01*
X58237380Y-24066523D02*
X58237380Y-24637952D01*
X58237380Y-24352238D02*
X57237380Y-24352238D01*
X57380238Y-24447476D01*
X57475476Y-24542714D01*
X57523095Y-24637952D01*
X57665952Y-23495095D02*
X57618333Y-23590333D01*
X57570714Y-23637952D01*
X57475476Y-23685571D01*
X57427857Y-23685571D01*
X57332619Y-23637952D01*
X57285000Y-23590333D01*
X57237380Y-23495095D01*
X57237380Y-23304619D01*
X57285000Y-23209380D01*
X57332619Y-23161761D01*
X57427857Y-23114142D01*
X57475476Y-23114142D01*
X57570714Y-23161761D01*
X57618333Y-23209380D01*
X57665952Y-23304619D01*
X57665952Y-23495095D01*
X57713571Y-23590333D01*
X57761190Y-23637952D01*
X57856428Y-23685571D01*
X58046904Y-23685571D01*
X58142142Y-23637952D01*
X58189761Y-23590333D01*
X58237380Y-23495095D01*
X58237380Y-23304619D01*
X58189761Y-23209380D01*
X58142142Y-23161761D01*
X58046904Y-23114142D01*
X57856428Y-23114142D01*
X57761190Y-23161761D01*
X57713571Y-23209380D01*
X57665952Y-23304619D01*
X24082476Y-47458380D02*
X24082476Y-48172666D01*
X24034857Y-48315523D01*
X23939619Y-48410761D01*
X23796761Y-48458380D01*
X23701523Y-48458380D01*
X25082476Y-48458380D02*
X24511047Y-48458380D01*
X24796761Y-48458380D02*
X24796761Y-47458380D01*
X24701523Y-47601238D01*
X24606285Y-47696476D01*
X24511047Y-47744095D01*
X25939619Y-47458380D02*
X25749142Y-47458380D01*
X25653904Y-47506000D01*
X25606285Y-47553619D01*
X25511047Y-47696476D01*
X25463428Y-47886952D01*
X25463428Y-48267904D01*
X25511047Y-48363142D01*
X25558666Y-48410761D01*
X25653904Y-48458380D01*
X25844380Y-48458380D01*
X25939619Y-48410761D01*
X25987238Y-48363142D01*
X26034857Y-48267904D01*
X26034857Y-48029809D01*
X25987238Y-47934571D01*
X25939619Y-47886952D01*
X25844380Y-47839333D01*
X25653904Y-47839333D01*
X25558666Y-47886952D01*
X25511047Y-47934571D01*
X25463428Y-48029809D01*
X73620380Y-33956523D02*
X74334666Y-33956523D01*
X74477523Y-34004142D01*
X74572761Y-34099380D01*
X74620380Y-34242238D01*
X74620380Y-34337476D01*
X74620380Y-32956523D02*
X74620380Y-33527952D01*
X74620380Y-33242238D02*
X73620380Y-33242238D01*
X73763238Y-33337476D01*
X73858476Y-33432714D01*
X73906095Y-33527952D01*
X73953714Y-32099380D02*
X74620380Y-32099380D01*
X73572761Y-32337476D02*
X74287047Y-32575571D01*
X74287047Y-31956523D01*
X48347380Y-23669523D02*
X49061666Y-23669523D01*
X49204523Y-23717142D01*
X49299761Y-23812380D01*
X49347380Y-23955238D01*
X49347380Y-24050476D01*
X49347380Y-22669523D02*
X49347380Y-23240952D01*
X49347380Y-22955238D02*
X48347380Y-22955238D01*
X48490238Y-23050476D01*
X48585476Y-23145714D01*
X48633095Y-23240952D01*
X48442619Y-22288571D02*
X48395000Y-22240952D01*
X48347380Y-22145714D01*
X48347380Y-21907619D01*
X48395000Y-21812380D01*
X48442619Y-21764761D01*
X48537857Y-21717142D01*
X48633095Y-21717142D01*
X48775952Y-21764761D01*
X49347380Y-22336190D01*
X49347380Y-21717142D01*
X35647380Y-14779523D02*
X36361666Y-14779523D01*
X36504523Y-14827142D01*
X36599761Y-14922380D01*
X36647380Y-15065238D01*
X36647380Y-15160476D01*
X36647380Y-13779523D02*
X36647380Y-14350952D01*
X36647380Y-14065238D02*
X35647380Y-14065238D01*
X35790238Y-14160476D01*
X35885476Y-14255714D01*
X35933095Y-14350952D01*
X36647380Y-12827142D02*
X36647380Y-13398571D01*
X36647380Y-13112857D02*
X35647380Y-13112857D01*
X35790238Y-13208095D01*
X35885476Y-13303333D01*
X35933095Y-13398571D01*
X5794476Y-13168380D02*
X5794476Y-13882666D01*
X5746857Y-14025523D01*
X5651619Y-14120761D01*
X5508761Y-14168380D01*
X5413523Y-14168380D01*
X6794476Y-14168380D02*
X6223047Y-14168380D01*
X6508761Y-14168380D02*
X6508761Y-13168380D01*
X6413523Y-13311238D01*
X6318285Y-13406476D01*
X6223047Y-13454095D01*
X7413523Y-13168380D02*
X7508761Y-13168380D01*
X7604000Y-13216000D01*
X7651619Y-13263619D01*
X7699238Y-13358857D01*
X7746857Y-13549333D01*
X7746857Y-13787428D01*
X7699238Y-13977904D01*
X7651619Y-14073142D01*
X7604000Y-14120761D01*
X7508761Y-14168380D01*
X7413523Y-14168380D01*
X7318285Y-14120761D01*
X7270666Y-14073142D01*
X7223047Y-13977904D01*
X7175428Y-13787428D01*
X7175428Y-13549333D01*
X7223047Y-13358857D01*
X7270666Y-13263619D01*
X7318285Y-13216000D01*
X7413523Y-13168380D01*
X56132380Y-48878095D02*
X55132380Y-48878095D01*
X55132380Y-48640000D01*
X55180000Y-48497142D01*
X55275238Y-48401904D01*
X55370476Y-48354285D01*
X55560952Y-48306666D01*
X55703809Y-48306666D01*
X55894285Y-48354285D01*
X55989523Y-48401904D01*
X56084761Y-48497142D01*
X56132380Y-48640000D01*
X56132380Y-48878095D01*
X56132380Y-47354285D02*
X56132380Y-47925714D01*
X56132380Y-47640000D02*
X55132380Y-47640000D01*
X55275238Y-47735238D01*
X55370476Y-47830476D01*
X55418095Y-47925714D01*
X7978142Y-27471666D02*
X8025761Y-27519285D01*
X8073380Y-27662142D01*
X8073380Y-27757380D01*
X8025761Y-27900238D01*
X7930523Y-27995476D01*
X7835285Y-28043095D01*
X7644809Y-28090714D01*
X7501952Y-28090714D01*
X7311476Y-28043095D01*
X7216238Y-27995476D01*
X7121000Y-27900238D01*
X7073380Y-27757380D01*
X7073380Y-27662142D01*
X7121000Y-27519285D01*
X7168619Y-27471666D01*
X7406714Y-26614523D02*
X8073380Y-26614523D01*
X7025761Y-26852619D02*
X7740047Y-27090714D01*
X7740047Y-26471666D01*
X10553333Y-25357142D02*
X10505714Y-25404761D01*
X10362857Y-25452380D01*
X10267619Y-25452380D01*
X10124761Y-25404761D01*
X10029523Y-25309523D01*
X9981904Y-25214285D01*
X9934285Y-25023809D01*
X9934285Y-24880952D01*
X9981904Y-24690476D01*
X10029523Y-24595238D01*
X10124761Y-24500000D01*
X10267619Y-24452380D01*
X10362857Y-24452380D01*
X10505714Y-24500000D01*
X10553333Y-24547619D01*
X10886666Y-24452380D02*
X11505714Y-24452380D01*
X11172380Y-24833333D01*
X11315238Y-24833333D01*
X11410476Y-24880952D01*
X11458095Y-24928571D01*
X11505714Y-25023809D01*
X11505714Y-25261904D01*
X11458095Y-25357142D01*
X11410476Y-25404761D01*
X11315238Y-25452380D01*
X11029523Y-25452380D01*
X10934285Y-25404761D01*
X10886666Y-25357142D01*
X13133333Y-25227142D02*
X13085714Y-25274761D01*
X12942857Y-25322380D01*
X12847619Y-25322380D01*
X12704761Y-25274761D01*
X12609523Y-25179523D01*
X12561904Y-25084285D01*
X12514285Y-24893809D01*
X12514285Y-24750952D01*
X12561904Y-24560476D01*
X12609523Y-24465238D01*
X12704761Y-24370000D01*
X12847619Y-24322380D01*
X12942857Y-24322380D01*
X13085714Y-24370000D01*
X13133333Y-24417619D01*
X13514285Y-24417619D02*
X13561904Y-24370000D01*
X13657142Y-24322380D01*
X13895238Y-24322380D01*
X13990476Y-24370000D01*
X14038095Y-24417619D01*
X14085714Y-24512857D01*
X14085714Y-24608095D01*
X14038095Y-24750952D01*
X13466666Y-25322380D01*
X14085714Y-25322380D01*
X15657142Y-24836666D02*
X15704761Y-24884285D01*
X15752380Y-25027142D01*
X15752380Y-25122380D01*
X15704761Y-25265238D01*
X15609523Y-25360476D01*
X15514285Y-25408095D01*
X15323809Y-25455714D01*
X15180952Y-25455714D01*
X14990476Y-25408095D01*
X14895238Y-25360476D01*
X14800000Y-25265238D01*
X14752380Y-25122380D01*
X14752380Y-25027142D01*
X14800000Y-24884285D01*
X14847619Y-24836666D01*
X15752380Y-23884285D02*
X15752380Y-24455714D01*
X15752380Y-24170000D02*
X14752380Y-24170000D01*
X14895238Y-24265238D01*
X14990476Y-24360476D01*
X15038095Y-24455714D01*
M02*
