G04 #@! TF.GenerationSoftware,KiCad,Pcbnew,(5.1.4)-1*
G04 #@! TF.CreationDate,2021-11-01T15:57:40-05:00*
G04 #@! TF.ProjectId,RascalHat,52617363-616c-4486-9174-2e6b69636164,rev?*
G04 #@! TF.SameCoordinates,Original*
G04 #@! TF.FileFunction,Legend,Bot*
G04 #@! TF.FilePolarity,Positive*
%FSLAX46Y46*%
G04 Gerber Fmt 4.6, Leading zero omitted, Abs format (unit mm)*
G04 Created by KiCad (PCBNEW (5.1.4)-1) date 2021-11-01 15:57:40*
%MOMM*%
%LPD*%
G04 APERTURE LIST*
%ADD10C,0.300000*%
%ADD11C,0.120000*%
%ADD12C,0.150000*%
G04 APERTURE END LIST*
D10*
X63848571Y-27330000D02*
X65348571Y-26830000D01*
X63848571Y-26330000D01*
X64562857Y-25330000D02*
X64634285Y-25115714D01*
X64705714Y-25044285D01*
X64848571Y-24972857D01*
X65062857Y-24972857D01*
X65205714Y-25044285D01*
X65277142Y-25115714D01*
X65348571Y-25258571D01*
X65348571Y-25830000D01*
X63848571Y-25830000D01*
X63848571Y-25330000D01*
X63920000Y-25187142D01*
X63991428Y-25115714D01*
X64134285Y-25044285D01*
X64277142Y-25044285D01*
X64420000Y-25115714D01*
X64491428Y-25187142D01*
X64562857Y-25330000D01*
X64562857Y-25830000D01*
X65348571Y-23687142D02*
X64562857Y-23687142D01*
X64420000Y-23758571D01*
X64348571Y-23901428D01*
X64348571Y-24187142D01*
X64420000Y-24330000D01*
X65277142Y-23687142D02*
X65348571Y-23830000D01*
X65348571Y-24187142D01*
X65277142Y-24330000D01*
X65134285Y-24401428D01*
X64991428Y-24401428D01*
X64848571Y-24330000D01*
X64777142Y-24187142D01*
X64777142Y-23830000D01*
X64705714Y-23687142D01*
X64348571Y-23187142D02*
X64348571Y-22615714D01*
X63848571Y-22972857D02*
X65134285Y-22972857D01*
X65277142Y-22901428D01*
X65348571Y-22758571D01*
X65348571Y-22615714D01*
X64348571Y-22330000D02*
X64348571Y-21758571D01*
X63848571Y-22115714D02*
X65134285Y-22115714D01*
X65277142Y-22044285D01*
X65348571Y-21901428D01*
X65348571Y-21758571D01*
X65348571Y-20115714D02*
X63848571Y-20115714D01*
X65348571Y-19401428D02*
X63848571Y-19401428D01*
X65348571Y-18544285D01*
X63848571Y-18544285D01*
X52620000Y-44932857D02*
X52620000Y-44218571D01*
X53048571Y-45075714D02*
X51548571Y-44575714D01*
X53048571Y-44075714D01*
X52977142Y-42932857D02*
X53048571Y-43075714D01*
X53048571Y-43361428D01*
X52977142Y-43504285D01*
X52905714Y-43575714D01*
X52762857Y-43647142D01*
X52334285Y-43647142D01*
X52191428Y-43575714D01*
X52120000Y-43504285D01*
X52048571Y-43361428D01*
X52048571Y-43075714D01*
X52120000Y-42932857D01*
X52977142Y-41647142D02*
X53048571Y-41790000D01*
X53048571Y-42075714D01*
X52977142Y-42218571D01*
X52905714Y-42290000D01*
X52762857Y-42361428D01*
X52334285Y-42361428D01*
X52191428Y-42290000D01*
X52120000Y-42218571D01*
X52048571Y-42075714D01*
X52048571Y-41790000D01*
X52120000Y-41647142D01*
X52977142Y-40432857D02*
X53048571Y-40575714D01*
X53048571Y-40861428D01*
X52977142Y-41004285D01*
X52834285Y-41075714D01*
X52262857Y-41075714D01*
X52120000Y-41004285D01*
X52048571Y-40861428D01*
X52048571Y-40575714D01*
X52120000Y-40432857D01*
X52262857Y-40361428D01*
X52405714Y-40361428D01*
X52548571Y-41075714D01*
X53048571Y-39504285D02*
X52977142Y-39647142D01*
X52834285Y-39718571D01*
X51548571Y-39718571D01*
X52977142Y-38361428D02*
X53048571Y-38504285D01*
X53048571Y-38790000D01*
X52977142Y-38932857D01*
X52834285Y-39004285D01*
X52262857Y-39004285D01*
X52120000Y-38932857D01*
X52048571Y-38790000D01*
X52048571Y-38504285D01*
X52120000Y-38361428D01*
X52262857Y-38290000D01*
X52405714Y-38290000D01*
X52548571Y-39004285D01*
X53048571Y-37647142D02*
X52048571Y-37647142D01*
X52334285Y-37647142D02*
X52191428Y-37575714D01*
X52120000Y-37504285D01*
X52048571Y-37361428D01*
X52048571Y-37218571D01*
X53048571Y-36504285D02*
X52977142Y-36647142D01*
X52905714Y-36718571D01*
X52762857Y-36790000D01*
X52334285Y-36790000D01*
X52191428Y-36718571D01*
X52120000Y-36647142D01*
X52048571Y-36504285D01*
X52048571Y-36290000D01*
X52120000Y-36147142D01*
X52191428Y-36075714D01*
X52334285Y-36004285D01*
X52762857Y-36004285D01*
X52905714Y-36075714D01*
X52977142Y-36147142D01*
X53048571Y-36290000D01*
X53048571Y-36504285D01*
X53048571Y-35361428D02*
X52048571Y-35361428D01*
X52191428Y-35361428D02*
X52120000Y-35290000D01*
X52048571Y-35147142D01*
X52048571Y-34932857D01*
X52120000Y-34790000D01*
X52262857Y-34718571D01*
X53048571Y-34718571D01*
X52262857Y-34718571D02*
X52120000Y-34647142D01*
X52048571Y-34504285D01*
X52048571Y-34290000D01*
X52120000Y-34147142D01*
X52262857Y-34075714D01*
X53048571Y-34075714D01*
X52977142Y-32790000D02*
X53048571Y-32932857D01*
X53048571Y-33218571D01*
X52977142Y-33361428D01*
X52834285Y-33432857D01*
X52262857Y-33432857D01*
X52120000Y-33361428D01*
X52048571Y-33218571D01*
X52048571Y-32932857D01*
X52120000Y-32790000D01*
X52262857Y-32718571D01*
X52405714Y-32718571D01*
X52548571Y-33432857D01*
X52048571Y-32290000D02*
X52048571Y-31718571D01*
X51548571Y-32075714D02*
X52834285Y-32075714D01*
X52977142Y-32004285D01*
X53048571Y-31861428D01*
X53048571Y-31718571D01*
X52977142Y-30647142D02*
X53048571Y-30790000D01*
X53048571Y-31075714D01*
X52977142Y-31218571D01*
X52834285Y-31290000D01*
X52262857Y-31290000D01*
X52120000Y-31218571D01*
X52048571Y-31075714D01*
X52048571Y-30790000D01*
X52120000Y-30647142D01*
X52262857Y-30575714D01*
X52405714Y-30575714D01*
X52548571Y-31290000D01*
X53048571Y-29932857D02*
X52048571Y-29932857D01*
X52334285Y-29932857D02*
X52191428Y-29861428D01*
X52120000Y-29790000D01*
X52048571Y-29647142D01*
X52048571Y-29504285D01*
D11*
X15670000Y-14248578D02*
X15670000Y-13731422D01*
X17090000Y-14248578D02*
X17090000Y-13731422D01*
X57940000Y-52150000D02*
X57940000Y-50820000D01*
X57940000Y-50820000D02*
X56610000Y-50820000D01*
X57940000Y-53420000D02*
X55340000Y-53420000D01*
X55340000Y-53420000D02*
X55340000Y-50820000D01*
X55340000Y-50820000D02*
X7020000Y-50820000D01*
X7020000Y-56020000D02*
X7020000Y-50820000D01*
X57940000Y-56020000D02*
X7020000Y-56020000D01*
X57940000Y-56020000D02*
X57940000Y-53420000D01*
X64173100Y-30289500D02*
G75*
G03X64173100Y-30289500I-1689100J0D01*
G01*
X64173100Y-47180500D02*
G75*
G03X64173100Y-47180500I-1689100J0D01*
G01*
X64770000Y-49530000D02*
X64770000Y-27940000D01*
X48260000Y-27940000D02*
X64770000Y-27940000D01*
X48260000Y-49530000D02*
X48260000Y-27940000D01*
X48260000Y-49530000D02*
X64770000Y-49530000D01*
X60706000Y-28341000D02*
X64156000Y-28341000D01*
X60706000Y-28341000D02*
X58756000Y-28341000D01*
X60706000Y-38461000D02*
X62656000Y-38461000D01*
X60706000Y-38461000D02*
X58756000Y-38461000D01*
X60706000Y-39009000D02*
X64156000Y-39009000D01*
X60706000Y-39009000D02*
X58756000Y-39009000D01*
X60706000Y-49129000D02*
X62656000Y-49129000D01*
X60706000Y-49129000D02*
X58756000Y-49129000D01*
X5588000Y-18669000D02*
X5588000Y-40513000D01*
X5588000Y-18669000D02*
X22352000Y-18669000D01*
X22352000Y-40513000D02*
X22352000Y-18669000D01*
X22352000Y-40513000D02*
X5588000Y-40513000D01*
X68476000Y-35874000D02*
X65950000Y-33334000D01*
X71524000Y-35874000D02*
X74050000Y-33334000D01*
X71524000Y-35874000D02*
X68476000Y-35874000D01*
X74050000Y-20150000D02*
X65950000Y-20150000D01*
X65950000Y-33334000D02*
X65950000Y-20150000D01*
X74050000Y-33334000D02*
X74050000Y-20150000D01*
D12*
X55919000Y-14300000D02*
X56994000Y-14300000D01*
X55919000Y-24025000D02*
X51269000Y-24025000D01*
X55919000Y-14075000D02*
X51269000Y-14075000D01*
X55919000Y-24025000D02*
X55919000Y-23700000D01*
X51269000Y-24025000D02*
X51269000Y-23700000D01*
X51269000Y-14075000D02*
X51269000Y-14400000D01*
X55919000Y-14075000D02*
X55919000Y-14300000D01*
X18497142Y-13257142D02*
X18544761Y-13209523D01*
X18592380Y-13066666D01*
X18592380Y-12971428D01*
X18544761Y-12828571D01*
X18449523Y-12733333D01*
X18354285Y-12685714D01*
X18163809Y-12638095D01*
X18020952Y-12638095D01*
X17830476Y-12685714D01*
X17735238Y-12733333D01*
X17640000Y-12828571D01*
X17592380Y-12971428D01*
X17592380Y-13066666D01*
X17640000Y-13209523D01*
X17687619Y-13257142D01*
X18592380Y-14209523D02*
X18592380Y-13638095D01*
X18592380Y-13923809D02*
X17592380Y-13923809D01*
X17735238Y-13828571D01*
X17830476Y-13733333D01*
X17878095Y-13638095D01*
X17592380Y-14828571D02*
X17592380Y-14923809D01*
X17640000Y-15019047D01*
X17687619Y-15066666D01*
X17782857Y-15114285D01*
X17973333Y-15161904D01*
X18211428Y-15161904D01*
X18401904Y-15114285D01*
X18497142Y-15066666D01*
X18544761Y-15019047D01*
X18592380Y-14923809D01*
X18592380Y-14828571D01*
X18544761Y-14733333D01*
X18497142Y-14685714D01*
X18401904Y-14638095D01*
X18211428Y-14590476D01*
X17973333Y-14590476D01*
X17782857Y-14638095D01*
X17687619Y-14685714D01*
X17640000Y-14733333D01*
X17592380Y-14828571D01*
X52423333Y-45942380D02*
X52423333Y-46656666D01*
X52470952Y-46799523D01*
X52566190Y-46894761D01*
X52709047Y-46942380D01*
X52804285Y-46942380D01*
X51423333Y-46942380D02*
X51994761Y-46942380D01*
X51709047Y-46942380D02*
X51709047Y-45942380D01*
X51804285Y-46085238D01*
X51899523Y-46180476D01*
X51994761Y-46228095D01*
X56631904Y-28562380D02*
X56631904Y-29371904D01*
X56584285Y-29467142D01*
X56536666Y-29514761D01*
X56441428Y-29562380D01*
X56250952Y-29562380D01*
X56155714Y-29514761D01*
X56108095Y-29467142D01*
X56060476Y-29371904D01*
X56060476Y-28562380D01*
X55631904Y-28657619D02*
X55584285Y-28610000D01*
X55489047Y-28562380D01*
X55250952Y-28562380D01*
X55155714Y-28610000D01*
X55108095Y-28657619D01*
X55060476Y-28752857D01*
X55060476Y-28848095D01*
X55108095Y-28990952D01*
X55679523Y-29562380D01*
X55060476Y-29562380D01*
X56371904Y-39042380D02*
X56371904Y-39851904D01*
X56324285Y-39947142D01*
X56276666Y-39994761D01*
X56181428Y-40042380D01*
X55990952Y-40042380D01*
X55895714Y-39994761D01*
X55848095Y-39947142D01*
X55800476Y-39851904D01*
X55800476Y-39042380D01*
X54800476Y-40042380D02*
X55371904Y-40042380D01*
X55086190Y-40042380D02*
X55086190Y-39042380D01*
X55181428Y-39185238D01*
X55276666Y-39280476D01*
X55371904Y-39328095D01*
X51260333Y-10374380D02*
X51260333Y-11088666D01*
X51307952Y-11231523D01*
X51403190Y-11326761D01*
X51546047Y-11374380D01*
X51641285Y-11374380D01*
X50879380Y-10374380D02*
X50212714Y-10374380D01*
X50641285Y-11374380D01*
X46014285Y-10552380D02*
X46585714Y-10552380D01*
X46300000Y-10552380D02*
X46300000Y-9552380D01*
X46395238Y-9695238D01*
X46490476Y-9790476D01*
X46585714Y-9838095D01*
X23832380Y-17850476D02*
X22832380Y-17850476D01*
X22832380Y-18231428D01*
X22880000Y-18326666D01*
X22927619Y-18374285D01*
X23022857Y-18421904D01*
X23165714Y-18421904D01*
X23260952Y-18374285D01*
X23308571Y-18326666D01*
X23356190Y-18231428D01*
X23356190Y-17850476D01*
X22832380Y-18755238D02*
X23832380Y-18993333D01*
X23118095Y-19183809D01*
X23832380Y-19374285D01*
X22832380Y-19612380D01*
X23832380Y-20564761D02*
X23356190Y-20231428D01*
X23832380Y-19993333D02*
X22832380Y-19993333D01*
X22832380Y-20374285D01*
X22880000Y-20469523D01*
X22927619Y-20517142D01*
X23022857Y-20564761D01*
X23165714Y-20564761D01*
X23260952Y-20517142D01*
X23308571Y-20469523D01*
X23356190Y-20374285D01*
X23356190Y-19993333D01*
X23832380Y-21517142D02*
X23832380Y-20945714D01*
X23832380Y-21231428D02*
X22832380Y-21231428D01*
X22975238Y-21136190D01*
X23070476Y-21040952D01*
X23118095Y-20945714D01*
X66472380Y-27666666D02*
X67186666Y-27666666D01*
X67329523Y-27619047D01*
X67424761Y-27523809D01*
X67472380Y-27380952D01*
X67472380Y-27285714D01*
X67472380Y-28190476D02*
X67472380Y-28380952D01*
X67424761Y-28476190D01*
X67377142Y-28523809D01*
X67234285Y-28619047D01*
X67043809Y-28666666D01*
X66662857Y-28666666D01*
X66567619Y-28619047D01*
X66520000Y-28571428D01*
X66472380Y-28476190D01*
X66472380Y-28285714D01*
X66520000Y-28190476D01*
X66567619Y-28142857D01*
X66662857Y-28095238D01*
X66900952Y-28095238D01*
X66996190Y-28142857D01*
X67043809Y-28190476D01*
X67091428Y-28285714D01*
X67091428Y-28476190D01*
X67043809Y-28571428D01*
X66996190Y-28619047D01*
X66900952Y-28666666D01*
X57241904Y-12542380D02*
X57241904Y-13351904D01*
X57194285Y-13447142D01*
X57146666Y-13494761D01*
X57051428Y-13542380D01*
X56860952Y-13542380D01*
X56765714Y-13494761D01*
X56718095Y-13447142D01*
X56670476Y-13351904D01*
X56670476Y-12542380D01*
X55765714Y-12875714D02*
X55765714Y-13542380D01*
X56003809Y-12494761D02*
X56241904Y-13209047D01*
X55622857Y-13209047D01*
M02*
