G04 #@! TF.GenerationSoftware,KiCad,Pcbnew,(5.1.4)-1*
G04 #@! TF.CreationDate,2021-11-04T12:06:02-05:00*
G04 #@! TF.ProjectId,RascalHat,52617363-616c-4486-9174-2e6b69636164,rev?*
G04 #@! TF.SameCoordinates,Original*
G04 #@! TF.FileFunction,Legend,Top*
G04 #@! TF.FilePolarity,Positive*
%FSLAX46Y46*%
G04 Gerber Fmt 4.6, Leading zero omitted, Abs format (unit mm)*
G04 Created by KiCad (PCBNEW (5.1.4)-1) date 2021-11-04 12:06:02*
%MOMM*%
%LPD*%
G04 APERTURE LIST*
%ADD10C,0.300000*%
%ADD11C,0.120000*%
%ADD12C,0.150000*%
G04 APERTURE END LIST*
D10*
X29654285Y-11572857D02*
X30154285Y-11572857D01*
X30368571Y-12358571D02*
X29654285Y-12358571D01*
X29654285Y-10858571D01*
X30368571Y-10858571D01*
X30940000Y-12287142D02*
X31154285Y-12358571D01*
X31511428Y-12358571D01*
X31654285Y-12287142D01*
X31725714Y-12215714D01*
X31797142Y-12072857D01*
X31797142Y-11930000D01*
X31725714Y-11787142D01*
X31654285Y-11715714D01*
X31511428Y-11644285D01*
X31225714Y-11572857D01*
X31082857Y-11501428D01*
X31011428Y-11430000D01*
X30940000Y-11287142D01*
X30940000Y-11144285D01*
X31011428Y-11001428D01*
X31082857Y-10930000D01*
X31225714Y-10858571D01*
X31582857Y-10858571D01*
X31797142Y-10930000D01*
X33297142Y-12215714D02*
X33225714Y-12287142D01*
X33011428Y-12358571D01*
X32868571Y-12358571D01*
X32654285Y-12287142D01*
X32511428Y-12144285D01*
X32440000Y-12001428D01*
X32368571Y-11715714D01*
X32368571Y-11501428D01*
X32440000Y-11215714D01*
X32511428Y-11072857D01*
X32654285Y-10930000D01*
X32868571Y-10858571D01*
X33011428Y-10858571D01*
X33225714Y-10930000D01*
X33297142Y-11001428D01*
X49772857Y-27157142D02*
X49772857Y-26657142D01*
X50558571Y-26442857D02*
X50558571Y-27157142D01*
X49058571Y-27157142D01*
X49058571Y-26442857D01*
X49558571Y-25800000D02*
X50558571Y-25800000D01*
X49701428Y-25800000D02*
X49630000Y-25728571D01*
X49558571Y-25585714D01*
X49558571Y-25371428D01*
X49630000Y-25228571D01*
X49772857Y-25157142D01*
X50558571Y-25157142D01*
X50487142Y-23800000D02*
X50558571Y-23942857D01*
X50558571Y-24228571D01*
X50487142Y-24371428D01*
X50415714Y-24442857D01*
X50272857Y-24514285D01*
X49844285Y-24514285D01*
X49701428Y-24442857D01*
X49630000Y-24371428D01*
X49558571Y-24228571D01*
X49558571Y-23942857D01*
X49630000Y-23800000D01*
X50558571Y-22942857D02*
X50487142Y-23085714D01*
X50415714Y-23157142D01*
X50272857Y-23228571D01*
X49844285Y-23228571D01*
X49701428Y-23157142D01*
X49630000Y-23085714D01*
X49558571Y-22942857D01*
X49558571Y-22728571D01*
X49630000Y-22585714D01*
X49701428Y-22514285D01*
X49844285Y-22442857D01*
X50272857Y-22442857D01*
X50415714Y-22514285D01*
X50487142Y-22585714D01*
X50558571Y-22728571D01*
X50558571Y-22942857D01*
X50558571Y-21157142D02*
X49058571Y-21157142D01*
X50487142Y-21157142D02*
X50558571Y-21300000D01*
X50558571Y-21585714D01*
X50487142Y-21728571D01*
X50415714Y-21800000D01*
X50272857Y-21871428D01*
X49844285Y-21871428D01*
X49701428Y-21800000D01*
X49630000Y-21728571D01*
X49558571Y-21585714D01*
X49558571Y-21300000D01*
X49630000Y-21157142D01*
X50487142Y-19871428D02*
X50558571Y-20014285D01*
X50558571Y-20300000D01*
X50487142Y-20442857D01*
X50344285Y-20514285D01*
X49772857Y-20514285D01*
X49630000Y-20442857D01*
X49558571Y-20300000D01*
X49558571Y-20014285D01*
X49630000Y-19871428D01*
X49772857Y-19800000D01*
X49915714Y-19800000D01*
X50058571Y-20514285D01*
X50558571Y-19157142D02*
X49558571Y-19157142D01*
X49844285Y-19157142D02*
X49701428Y-19085714D01*
X49630000Y-19014285D01*
X49558571Y-18871428D01*
X49558571Y-18728571D01*
X26897142Y-49458571D02*
X26897142Y-47958571D01*
X27468571Y-47958571D01*
X27611428Y-48030000D01*
X27682857Y-48101428D01*
X27754285Y-48244285D01*
X27754285Y-48458571D01*
X27682857Y-48601428D01*
X27611428Y-48672857D01*
X27468571Y-48744285D01*
X26897142Y-48744285D01*
X28397142Y-49458571D02*
X28397142Y-48458571D01*
X28397142Y-48744285D02*
X28468571Y-48601428D01*
X28540000Y-48530000D01*
X28682857Y-48458571D01*
X28825714Y-48458571D01*
X29325714Y-49458571D02*
X29325714Y-48458571D01*
X29325714Y-47958571D02*
X29254285Y-48030000D01*
X29325714Y-48101428D01*
X29397142Y-48030000D01*
X29325714Y-47958571D01*
X29325714Y-48101428D01*
X30040000Y-49458571D02*
X30040000Y-48458571D01*
X30040000Y-48601428D02*
X30111428Y-48530000D01*
X30254285Y-48458571D01*
X30468571Y-48458571D01*
X30611428Y-48530000D01*
X30682857Y-48672857D01*
X30682857Y-49458571D01*
X30682857Y-48672857D02*
X30754285Y-48530000D01*
X30897142Y-48458571D01*
X31111428Y-48458571D01*
X31254285Y-48530000D01*
X31325714Y-48672857D01*
X31325714Y-49458571D01*
X32611428Y-49387142D02*
X32468571Y-49458571D01*
X32182857Y-49458571D01*
X32040000Y-49387142D01*
X31968571Y-49244285D01*
X31968571Y-48672857D01*
X32040000Y-48530000D01*
X32182857Y-48458571D01*
X32468571Y-48458571D01*
X32611428Y-48530000D01*
X32682857Y-48672857D01*
X32682857Y-48815714D01*
X31968571Y-48958571D01*
X34468571Y-49458571D02*
X34468571Y-47958571D01*
X34968571Y-49030000D01*
X35468571Y-47958571D01*
X35468571Y-49458571D01*
X36397142Y-49458571D02*
X36254285Y-49387142D01*
X36182857Y-49315714D01*
X36111428Y-49172857D01*
X36111428Y-48744285D01*
X36182857Y-48601428D01*
X36254285Y-48530000D01*
X36397142Y-48458571D01*
X36611428Y-48458571D01*
X36754285Y-48530000D01*
X36825714Y-48601428D01*
X36897142Y-48744285D01*
X36897142Y-49172857D01*
X36825714Y-49315714D01*
X36754285Y-49387142D01*
X36611428Y-49458571D01*
X36397142Y-49458571D01*
X37397142Y-48458571D02*
X37754285Y-49458571D01*
X38111428Y-48458571D01*
X39254285Y-49387142D02*
X39111428Y-49458571D01*
X38825714Y-49458571D01*
X38682857Y-49387142D01*
X38611428Y-49244285D01*
X38611428Y-48672857D01*
X38682857Y-48530000D01*
X38825714Y-48458571D01*
X39111428Y-48458571D01*
X39254285Y-48530000D01*
X39325714Y-48672857D01*
X39325714Y-48815714D01*
X38611428Y-48958571D01*
X39968571Y-49458571D02*
X39968571Y-48458571D01*
X39968571Y-48744285D02*
X40040000Y-48601428D01*
X40111428Y-48530000D01*
X40254285Y-48458571D01*
X40397142Y-48458571D01*
X41825714Y-47958571D02*
X42325714Y-49458571D01*
X42825714Y-47958571D01*
X44111428Y-49458571D02*
X43254285Y-49458571D01*
X43682857Y-49458571D02*
X43682857Y-47958571D01*
X43540000Y-48172857D01*
X43397142Y-48315714D01*
X43254285Y-48387142D01*
X44754285Y-49315714D02*
X44825714Y-49387142D01*
X44754285Y-49458571D01*
X44682857Y-49387142D01*
X44754285Y-49315714D01*
X44754285Y-49458571D01*
X45754285Y-47958571D02*
X45897142Y-47958571D01*
X46040000Y-48030000D01*
X46111428Y-48101428D01*
X46182857Y-48244285D01*
X46254285Y-48530000D01*
X46254285Y-48887142D01*
X46182857Y-49172857D01*
X46111428Y-49315714D01*
X46040000Y-49387142D01*
X45897142Y-49458571D01*
X45754285Y-49458571D01*
X45611428Y-49387142D01*
X45540000Y-49315714D01*
X45468571Y-49172857D01*
X45397142Y-48887142D01*
X45397142Y-48530000D01*
X45468571Y-48244285D01*
X45540000Y-48101428D01*
X45611428Y-48030000D01*
X45754285Y-47958571D01*
X1468571Y-33286000D02*
X1325714Y-33214571D01*
X1111428Y-33214571D01*
X897142Y-33286000D01*
X754285Y-33428857D01*
X682857Y-33571714D01*
X611428Y-33857428D01*
X611428Y-34071714D01*
X682857Y-34357428D01*
X754285Y-34500285D01*
X897142Y-34643142D01*
X1111428Y-34714571D01*
X1254285Y-34714571D01*
X1468571Y-34643142D01*
X1539999Y-34571714D01*
X1539999Y-34071714D01*
X1254285Y-34071714D01*
X2182857Y-34714571D02*
X2182857Y-33214571D01*
X2754285Y-33214571D01*
X2897142Y-33286000D01*
X2968571Y-33357428D01*
X3039999Y-33500285D01*
X3039999Y-33714571D01*
X2968571Y-33857428D01*
X2897142Y-33928857D01*
X2754285Y-34000285D01*
X2182857Y-34000285D01*
X3611428Y-34643142D02*
X3825714Y-34714571D01*
X4182857Y-34714571D01*
X4325714Y-34643142D01*
X4397142Y-34571714D01*
X4468571Y-34428857D01*
X4468571Y-34286000D01*
X4397142Y-34143142D01*
X4325714Y-34071714D01*
X4182857Y-34000285D01*
X3897142Y-33928857D01*
X3754285Y-33857428D01*
X3682857Y-33786000D01*
X3611428Y-33643142D01*
X3611428Y-33500285D01*
X3682857Y-33357428D01*
X3754285Y-33286000D01*
X3897142Y-33214571D01*
X4254285Y-33214571D01*
X4468571Y-33286000D01*
X53280571Y-43378142D02*
X54780571Y-42878142D01*
X53280571Y-42378142D01*
X53994857Y-41378142D02*
X54066285Y-41163857D01*
X54137714Y-41092428D01*
X54280571Y-41021000D01*
X54494857Y-41021000D01*
X54637714Y-41092428D01*
X54709142Y-41163857D01*
X54780571Y-41306714D01*
X54780571Y-41878142D01*
X53280571Y-41878142D01*
X53280571Y-41378142D01*
X53352000Y-41235285D01*
X53423428Y-41163857D01*
X53566285Y-41092428D01*
X53709142Y-41092428D01*
X53852000Y-41163857D01*
X53923428Y-41235285D01*
X53994857Y-41378142D01*
X53994857Y-41878142D01*
X54780571Y-39735285D02*
X53994857Y-39735285D01*
X53852000Y-39806714D01*
X53780571Y-39949571D01*
X53780571Y-40235285D01*
X53852000Y-40378142D01*
X54709142Y-39735285D02*
X54780571Y-39878142D01*
X54780571Y-40235285D01*
X54709142Y-40378142D01*
X54566285Y-40449571D01*
X54423428Y-40449571D01*
X54280571Y-40378142D01*
X54209142Y-40235285D01*
X54209142Y-39878142D01*
X54137714Y-39735285D01*
X53780571Y-39235285D02*
X53780571Y-38663857D01*
X53280571Y-39021000D02*
X54566285Y-39021000D01*
X54709142Y-38949571D01*
X54780571Y-38806714D01*
X54780571Y-38663857D01*
X58233571Y-42497142D02*
X58233571Y-41568571D01*
X58805000Y-42068571D01*
X58805000Y-41854285D01*
X58876428Y-41711428D01*
X58947857Y-41640000D01*
X59090714Y-41568571D01*
X59447857Y-41568571D01*
X59590714Y-41640000D01*
X59662142Y-41711428D01*
X59733571Y-41854285D01*
X59733571Y-42282857D01*
X59662142Y-42425714D01*
X59590714Y-42497142D01*
X58233571Y-41140000D02*
X59733571Y-40640000D01*
X58233571Y-40140000D01*
X58233571Y-39782857D02*
X58233571Y-38854285D01*
X58805000Y-39354285D01*
X58805000Y-39140000D01*
X58876428Y-38997142D01*
X58947857Y-38925714D01*
X59090714Y-38854285D01*
X59447857Y-38854285D01*
X59590714Y-38925714D01*
X59662142Y-38997142D01*
X59733571Y-39140000D01*
X59733571Y-39568571D01*
X59662142Y-39711428D01*
X59590714Y-39782857D01*
X55820571Y-40925714D02*
X55820571Y-41640000D01*
X56534857Y-41711428D01*
X56463428Y-41640000D01*
X56392000Y-41497142D01*
X56392000Y-41140000D01*
X56463428Y-40997142D01*
X56534857Y-40925714D01*
X56677714Y-40854285D01*
X57034857Y-40854285D01*
X57177714Y-40925714D01*
X57249142Y-40997142D01*
X57320571Y-41140000D01*
X57320571Y-41497142D01*
X57249142Y-41640000D01*
X57177714Y-41711428D01*
X55820571Y-40425714D02*
X57320571Y-39925714D01*
X55820571Y-39425714D01*
X64748571Y-27147142D02*
X63248571Y-27147142D01*
X63248571Y-26575714D01*
X63320000Y-26432857D01*
X63391428Y-26361428D01*
X63534285Y-26290000D01*
X63748571Y-26290000D01*
X63891428Y-26361428D01*
X63962857Y-26432857D01*
X64034285Y-26575714D01*
X64034285Y-27147142D01*
X63248571Y-25790000D02*
X64748571Y-25432857D01*
X63677142Y-25147142D01*
X64748571Y-24861428D01*
X63248571Y-24504285D01*
X64748571Y-23932857D02*
X63248571Y-23932857D01*
X64320000Y-23432857D01*
X63248571Y-22932857D01*
X64748571Y-22932857D01*
X64432571Y-47894142D02*
X64432571Y-48608428D01*
X62932571Y-48608428D01*
X64432571Y-47394142D02*
X63432571Y-47394142D01*
X62932571Y-47394142D02*
X63004000Y-47465571D01*
X63075428Y-47394142D01*
X63004000Y-47322714D01*
X62932571Y-47394142D01*
X63075428Y-47394142D01*
X63432571Y-46679857D02*
X64432571Y-46679857D01*
X63575428Y-46679857D02*
X63504000Y-46608428D01*
X63432571Y-46465571D01*
X63432571Y-46251285D01*
X63504000Y-46108428D01*
X63646857Y-46037000D01*
X64432571Y-46037000D01*
X64361142Y-44751285D02*
X64432571Y-44894142D01*
X64432571Y-45179857D01*
X64361142Y-45322714D01*
X64218285Y-45394142D01*
X63646857Y-45394142D01*
X63504000Y-45322714D01*
X63432571Y-45179857D01*
X63432571Y-44894142D01*
X63504000Y-44751285D01*
X63646857Y-44679857D01*
X63789714Y-44679857D01*
X63932571Y-45394142D01*
X62932571Y-43108428D02*
X62932571Y-42251285D01*
X64432571Y-42679857D02*
X62932571Y-42679857D01*
X64432571Y-41751285D02*
X63432571Y-41751285D01*
X63718285Y-41751285D02*
X63575428Y-41679857D01*
X63504000Y-41608428D01*
X63432571Y-41465571D01*
X63432571Y-41322714D01*
X64432571Y-40179857D02*
X63646857Y-40179857D01*
X63504000Y-40251285D01*
X63432571Y-40394142D01*
X63432571Y-40679857D01*
X63504000Y-40822714D01*
X64361142Y-40179857D02*
X64432571Y-40322714D01*
X64432571Y-40679857D01*
X64361142Y-40822714D01*
X64218285Y-40894142D01*
X64075428Y-40894142D01*
X63932571Y-40822714D01*
X63861142Y-40679857D01*
X63861142Y-40322714D01*
X63789714Y-40179857D01*
X64361142Y-38822714D02*
X64432571Y-38965571D01*
X64432571Y-39251285D01*
X64361142Y-39394142D01*
X64289714Y-39465571D01*
X64146857Y-39537000D01*
X63718285Y-39537000D01*
X63575428Y-39465571D01*
X63504000Y-39394142D01*
X63432571Y-39251285D01*
X63432571Y-38965571D01*
X63504000Y-38822714D01*
X64432571Y-38179857D02*
X62932571Y-38179857D01*
X63861142Y-38037000D02*
X64432571Y-37608428D01*
X63432571Y-37608428D02*
X64004000Y-38179857D01*
X64361142Y-36394142D02*
X64432571Y-36537000D01*
X64432571Y-36822714D01*
X64361142Y-36965571D01*
X64218285Y-37037000D01*
X63646857Y-37037000D01*
X63504000Y-36965571D01*
X63432571Y-36822714D01*
X63432571Y-36537000D01*
X63504000Y-36394142D01*
X63646857Y-36322714D01*
X63789714Y-36322714D01*
X63932571Y-37037000D01*
X64432571Y-35679857D02*
X63432571Y-35679857D01*
X63718285Y-35679857D02*
X63575428Y-35608428D01*
X63504000Y-35537000D01*
X63432571Y-35394142D01*
X63432571Y-35251285D01*
X2734571Y-48077000D02*
X2734571Y-48791285D01*
X3448857Y-48862714D01*
X3377428Y-48791285D01*
X3305999Y-48648428D01*
X3306000Y-48291285D01*
X3377428Y-48148428D01*
X3448857Y-48077000D01*
X3591714Y-48005571D01*
X3948857Y-48005571D01*
X4091714Y-48077000D01*
X4163142Y-48148428D01*
X4234571Y-48291285D01*
X4234571Y-48648428D01*
X4163142Y-48791285D01*
X4091714Y-48862714D01*
X2734571Y-47577000D02*
X4234571Y-47077000D01*
X2734571Y-46577000D01*
X2806000Y-44148428D02*
X2734571Y-44291285D01*
X2734571Y-44505571D01*
X2806000Y-44719857D01*
X2948857Y-44862714D01*
X3091714Y-44934142D01*
X3377428Y-45005571D01*
X3591714Y-45005571D01*
X3877428Y-44934142D01*
X4020285Y-44862714D01*
X4163142Y-44719857D01*
X4234571Y-44505571D01*
X4234571Y-44362714D01*
X4163142Y-44148428D01*
X4091714Y-44077000D01*
X3591714Y-44077000D01*
X3591714Y-44362714D01*
X4234571Y-43434142D02*
X2734571Y-43434142D01*
X2734571Y-42862714D01*
X2806000Y-42719857D01*
X2877428Y-42648428D01*
X3020285Y-42577000D01*
X3234571Y-42577000D01*
X3377428Y-42648428D01*
X3448857Y-42719857D01*
X3520285Y-42862714D01*
X3520285Y-43434142D01*
X4234571Y-41934142D02*
X2734571Y-41934142D01*
X2734571Y-40934142D02*
X2734571Y-40648428D01*
X2806000Y-40505571D01*
X2948857Y-40362714D01*
X3234571Y-40291285D01*
X3734571Y-40291285D01*
X4020285Y-40362714D01*
X4163142Y-40505571D01*
X4234571Y-40648428D01*
X4234571Y-40934142D01*
X4163142Y-41077000D01*
X4020285Y-41219857D01*
X3734571Y-41291285D01*
X3234571Y-41291285D01*
X2948857Y-41219857D01*
X2806000Y-41077000D01*
X2734571Y-40934142D01*
X7122857Y-19058571D02*
X7122857Y-20272857D01*
X7194285Y-20415714D01*
X7265714Y-20487142D01*
X7408571Y-20558571D01*
X7694285Y-20558571D01*
X7837142Y-20487142D01*
X7908571Y-20415714D01*
X7980000Y-20272857D01*
X7980000Y-19058571D01*
X8908571Y-20558571D02*
X8765714Y-20487142D01*
X8694285Y-20344285D01*
X8694285Y-19058571D01*
X9265714Y-19558571D02*
X9837142Y-19558571D01*
X9480000Y-19058571D02*
X9480000Y-20344285D01*
X9551428Y-20487142D01*
X9694285Y-20558571D01*
X9837142Y-20558571D01*
X10337142Y-20558571D02*
X10337142Y-19558571D01*
X10337142Y-19844285D02*
X10408571Y-19701428D01*
X10480000Y-19630000D01*
X10622857Y-19558571D01*
X10765714Y-19558571D01*
X11908571Y-20558571D02*
X11908571Y-19772857D01*
X11837142Y-19630000D01*
X11694285Y-19558571D01*
X11408571Y-19558571D01*
X11265714Y-19630000D01*
X11908571Y-20487142D02*
X11765714Y-20558571D01*
X11408571Y-20558571D01*
X11265714Y-20487142D01*
X11194285Y-20344285D01*
X11194285Y-20201428D01*
X11265714Y-20058571D01*
X11408571Y-19987142D01*
X11765714Y-19987142D01*
X11908571Y-19915714D01*
X12551428Y-20487142D02*
X12694285Y-20558571D01*
X12980000Y-20558571D01*
X13122857Y-20487142D01*
X13194285Y-20344285D01*
X13194285Y-20272857D01*
X13122857Y-20130000D01*
X12980000Y-20058571D01*
X12765714Y-20058571D01*
X12622857Y-19987142D01*
X12551428Y-19844285D01*
X12551428Y-19772857D01*
X12622857Y-19630000D01*
X12765714Y-19558571D01*
X12980000Y-19558571D01*
X13122857Y-19630000D01*
X14051428Y-20558571D02*
X13908571Y-20487142D01*
X13837142Y-20415714D01*
X13765714Y-20272857D01*
X13765714Y-19844285D01*
X13837142Y-19701428D01*
X13908571Y-19630000D01*
X14051428Y-19558571D01*
X14265714Y-19558571D01*
X14408571Y-19630000D01*
X14480000Y-19701428D01*
X14551428Y-19844285D01*
X14551428Y-20272857D01*
X14480000Y-20415714D01*
X14408571Y-20487142D01*
X14265714Y-20558571D01*
X14051428Y-20558571D01*
X15194285Y-19558571D02*
X15194285Y-20558571D01*
X15194285Y-19701428D02*
X15265714Y-19630000D01*
X15408571Y-19558571D01*
X15622857Y-19558571D01*
X15765714Y-19630000D01*
X15837142Y-19772857D01*
X15837142Y-20558571D01*
X16551428Y-20558571D02*
X16551428Y-19558571D01*
X16551428Y-19058571D02*
X16480000Y-19130000D01*
X16551428Y-19201428D01*
X16622857Y-19130000D01*
X16551428Y-19058571D01*
X16551428Y-19201428D01*
X17908571Y-20487142D02*
X17765714Y-20558571D01*
X17480000Y-20558571D01*
X17337142Y-20487142D01*
X17265714Y-20415714D01*
X17194285Y-20272857D01*
X17194285Y-19844285D01*
X17265714Y-19701428D01*
X17337142Y-19630000D01*
X17480000Y-19558571D01*
X17765714Y-19558571D01*
X17908571Y-19630000D01*
X21375714Y-18062857D02*
X20875714Y-18062857D01*
X20875714Y-18848571D02*
X20875714Y-17348571D01*
X21590000Y-17348571D01*
X22090000Y-18420000D02*
X22804285Y-18420000D01*
X21947142Y-18848571D02*
X22447142Y-17348571D01*
X22947142Y-18848571D01*
X23447142Y-18848571D02*
X23447142Y-17348571D01*
X24304285Y-18848571D01*
X24304285Y-17348571D01*
X18823714Y-11080142D02*
X18895142Y-11151571D01*
X18966571Y-11365857D01*
X18966571Y-11508714D01*
X18895142Y-11723000D01*
X18752285Y-11865857D01*
X18609428Y-11937285D01*
X18323714Y-12008714D01*
X18109428Y-12008714D01*
X17823714Y-11937285D01*
X17680857Y-11865857D01*
X17538000Y-11723000D01*
X17466571Y-11508714D01*
X17466571Y-11365857D01*
X17538000Y-11151571D01*
X17609428Y-11080142D01*
X18966571Y-10437285D02*
X17466571Y-10437285D01*
X18966571Y-9794428D02*
X18180857Y-9794428D01*
X18038000Y-9865857D01*
X17966571Y-10008714D01*
X17966571Y-10223000D01*
X18038000Y-10365857D01*
X18109428Y-10437285D01*
X18966571Y-8437285D02*
X18180857Y-8437285D01*
X18038000Y-8508714D01*
X17966571Y-8651571D01*
X17966571Y-8937285D01*
X18038000Y-9080142D01*
X18895142Y-8437285D02*
X18966571Y-8580142D01*
X18966571Y-8937285D01*
X18895142Y-9080142D01*
X18752285Y-9151571D01*
X18609428Y-9151571D01*
X18466571Y-9080142D01*
X18395142Y-8937285D01*
X18395142Y-8580142D01*
X18323714Y-8437285D01*
X18966571Y-7723000D02*
X17966571Y-7723000D01*
X18252285Y-7723000D02*
X18109428Y-7651571D01*
X18038000Y-7580142D01*
X17966571Y-7437285D01*
X17966571Y-7294428D01*
X17966571Y-6151571D02*
X19180857Y-6151571D01*
X19323714Y-6223000D01*
X19395142Y-6294428D01*
X19466571Y-6437285D01*
X19466571Y-6651571D01*
X19395142Y-6794428D01*
X18895142Y-6151571D02*
X18966571Y-6294428D01*
X18966571Y-6580142D01*
X18895142Y-6723000D01*
X18823714Y-6794428D01*
X18680857Y-6865857D01*
X18252285Y-6865857D01*
X18109428Y-6794428D01*
X18038000Y-6723000D01*
X17966571Y-6580142D01*
X17966571Y-6294428D01*
X18038000Y-6151571D01*
X18895142Y-4865857D02*
X18966571Y-5008714D01*
X18966571Y-5294428D01*
X18895142Y-5437285D01*
X18752285Y-5508714D01*
X18180857Y-5508714D01*
X18038000Y-5437285D01*
X17966571Y-5294428D01*
X17966571Y-5008714D01*
X18038000Y-4865857D01*
X18180857Y-4794428D01*
X18323714Y-4794428D01*
X18466571Y-5508714D01*
X18966571Y-4151571D02*
X17966571Y-4151571D01*
X18252285Y-4151571D02*
X18109428Y-4080142D01*
X18038000Y-4008714D01*
X17966571Y-3865857D01*
X17966571Y-3723000D01*
X18966571Y-2080142D02*
X17466571Y-2080142D01*
X18966571Y-1365857D02*
X17466571Y-1365857D01*
X18966571Y-508714D01*
X17466571Y-508714D01*
X30568571Y-8024285D02*
X32068571Y-7524285D01*
X30568571Y-7024285D01*
X32068571Y-6524285D02*
X30568571Y-6524285D01*
X31140000Y-6524285D02*
X31068571Y-6381428D01*
X31068571Y-6095714D01*
X31140000Y-5952857D01*
X31211428Y-5881428D01*
X31354285Y-5810000D01*
X31782857Y-5810000D01*
X31925714Y-5881428D01*
X31997142Y-5952857D01*
X32068571Y-6095714D01*
X32068571Y-6381428D01*
X31997142Y-6524285D01*
X32068571Y-4524285D02*
X31282857Y-4524285D01*
X31140000Y-4595714D01*
X31068571Y-4738571D01*
X31068571Y-5024285D01*
X31140000Y-5167142D01*
X31997142Y-4524285D02*
X32068571Y-4667142D01*
X32068571Y-5024285D01*
X31997142Y-5167142D01*
X31854285Y-5238571D01*
X31711428Y-5238571D01*
X31568571Y-5167142D01*
X31497142Y-5024285D01*
X31497142Y-4667142D01*
X31425714Y-4524285D01*
X31068571Y-4024285D02*
X31068571Y-3452857D01*
X30568571Y-3810000D02*
X31854285Y-3810000D01*
X31997142Y-3738571D01*
X32068571Y-3595714D01*
X32068571Y-3452857D01*
X31068571Y-3167142D02*
X31068571Y-2595714D01*
X30568571Y-2952857D02*
X31854285Y-2952857D01*
X31997142Y-2881428D01*
X32068571Y-2738571D01*
X32068571Y-2595714D01*
X43628571Y-11342000D02*
X45128571Y-10842000D01*
X43628571Y-10342000D01*
X44342857Y-9342000D02*
X44414285Y-9127714D01*
X44485714Y-9056285D01*
X44628571Y-8984857D01*
X44842857Y-8984857D01*
X44985714Y-9056285D01*
X45057142Y-9127714D01*
X45128571Y-9270571D01*
X45128571Y-9842000D01*
X43628571Y-9842000D01*
X43628571Y-9342000D01*
X43700000Y-9199142D01*
X43771428Y-9127714D01*
X43914285Y-9056285D01*
X44057142Y-9056285D01*
X44200000Y-9127714D01*
X44271428Y-9199142D01*
X44342857Y-9342000D01*
X44342857Y-9842000D01*
X45128571Y-7699142D02*
X44342857Y-7699142D01*
X44200000Y-7770571D01*
X44128571Y-7913428D01*
X44128571Y-8199142D01*
X44200000Y-8342000D01*
X45057142Y-7699142D02*
X45128571Y-7842000D01*
X45128571Y-8199142D01*
X45057142Y-8342000D01*
X44914285Y-8413428D01*
X44771428Y-8413428D01*
X44628571Y-8342000D01*
X44557142Y-8199142D01*
X44557142Y-7842000D01*
X44485714Y-7699142D01*
X44128571Y-7199142D02*
X44128571Y-6627714D01*
X43628571Y-6984857D02*
X44914285Y-6984857D01*
X45057142Y-6913428D01*
X45128571Y-6770571D01*
X45128571Y-6627714D01*
X44128571Y-6342000D02*
X44128571Y-5770571D01*
X43628571Y-6127714D02*
X44914285Y-6127714D01*
X45057142Y-6056285D01*
X45128571Y-5913428D01*
X45128571Y-5770571D01*
X43628571Y-3842000D02*
X43628571Y-3556285D01*
X43700000Y-3413428D01*
X43842857Y-3270571D01*
X44128571Y-3199142D01*
X44628571Y-3199142D01*
X44914285Y-3270571D01*
X45057142Y-3413428D01*
X45128571Y-3556285D01*
X45128571Y-3842000D01*
X45057142Y-3984857D01*
X44914285Y-4127714D01*
X44628571Y-4199142D01*
X44128571Y-4199142D01*
X43842857Y-4127714D01*
X43700000Y-3984857D01*
X43628571Y-3842000D01*
X43628571Y-2556285D02*
X44842857Y-2556285D01*
X44985714Y-2484857D01*
X45057142Y-2413428D01*
X45128571Y-2270571D01*
X45128571Y-1984857D01*
X45057142Y-1842000D01*
X44985714Y-1770571D01*
X44842857Y-1699142D01*
X43628571Y-1699142D01*
X43628571Y-1199142D02*
X43628571Y-342000D01*
X45128571Y-770571D02*
X43628571Y-770571D01*
X56608571Y-5010000D02*
X56608571Y-5724285D01*
X57322857Y-5795714D01*
X57251428Y-5724285D01*
X57180000Y-5581428D01*
X57180000Y-5224285D01*
X57251428Y-5081428D01*
X57322857Y-5010000D01*
X57465714Y-4938571D01*
X57822857Y-4938571D01*
X57965714Y-5010000D01*
X58037142Y-5081428D01*
X58108571Y-5224285D01*
X58108571Y-5581428D01*
X58037142Y-5724285D01*
X57965714Y-5795714D01*
X56608571Y-4510000D02*
X58108571Y-4010000D01*
X56608571Y-3510000D01*
X58108571Y-1867142D02*
X56608571Y-1867142D01*
X58108571Y-1152857D02*
X56608571Y-1152857D01*
X58108571Y-295714D01*
X56608571Y-295714D01*
X51637142Y-17905714D02*
X51708571Y-17691428D01*
X51708571Y-17334285D01*
X51637142Y-17191428D01*
X51565714Y-17119999D01*
X51422857Y-17048571D01*
X51280000Y-17048571D01*
X51137142Y-17119999D01*
X51065714Y-17191428D01*
X50994285Y-17334285D01*
X50922857Y-17619999D01*
X50851428Y-17762857D01*
X50780000Y-17834285D01*
X50637142Y-17905714D01*
X50494285Y-17905714D01*
X50351428Y-17834285D01*
X50280000Y-17762857D01*
X50208571Y-17619999D01*
X50208571Y-17262857D01*
X50280000Y-17048571D01*
X50922857Y-16405714D02*
X50922857Y-15905714D01*
X51708571Y-15691428D02*
X51708571Y-16405714D01*
X50208571Y-16405714D01*
X50208571Y-15691428D01*
X51708571Y-14191428D02*
X50994285Y-14691428D01*
X51708571Y-15048571D02*
X50208571Y-15048571D01*
X50208571Y-14477142D01*
X50280000Y-14334285D01*
X50351428Y-14262857D01*
X50494285Y-14191428D01*
X50708571Y-14191428D01*
X50851428Y-14262857D01*
X50922857Y-14334285D01*
X50994285Y-14477142D01*
X50994285Y-15048571D01*
X50208571Y-13762857D02*
X51708571Y-13262857D01*
X50208571Y-12762857D01*
X50208571Y-11977142D02*
X50208571Y-11691428D01*
X50280000Y-11548571D01*
X50422857Y-11405714D01*
X50708571Y-11334285D01*
X51208571Y-11334285D01*
X51494285Y-11405714D01*
X51637142Y-11548571D01*
X51708571Y-11691428D01*
X51708571Y-11977142D01*
X51637142Y-12120000D01*
X51494285Y-12262857D01*
X51208571Y-12334285D01*
X50708571Y-12334285D01*
X50422857Y-12262857D01*
X50280000Y-12120000D01*
X50208571Y-11977142D01*
D11*
X69421000Y-14969000D02*
X65401000Y-14969000D01*
X65401000Y-14969000D02*
X65401000Y-35189000D01*
X65401000Y-35189000D02*
X69421000Y-35189000D01*
X69421000Y-35189000D02*
X69421000Y-14969000D01*
X67711000Y-14969000D02*
X67711000Y-15469000D01*
X67711000Y-15469000D02*
X68921000Y-15469000D01*
X68921000Y-15469000D02*
X68921000Y-34689000D01*
X68921000Y-34689000D02*
X67711000Y-34689000D01*
X67711000Y-34689000D02*
X67711000Y-35189000D01*
X66901000Y-14969000D02*
X66901000Y-15969000D01*
X66901000Y-15969000D02*
X65401000Y-15969000D01*
X66901000Y-35189000D02*
X66901000Y-34189000D01*
X66901000Y-34189000D02*
X65401000Y-34189000D01*
X67601000Y-14669000D02*
X65101000Y-14669000D01*
X65101000Y-14669000D02*
X65101000Y-17169000D01*
X60680000Y-14771422D02*
X60680000Y-15288578D01*
X62100000Y-14771422D02*
X62100000Y-15288578D01*
X63012500Y-13102500D02*
X63637500Y-13102500D01*
X63325000Y-13415000D02*
X63325000Y-12790000D01*
X66705563Y-12550000D02*
X67770000Y-11485563D01*
X63314437Y-12550000D02*
X62250000Y-11485563D01*
X63314437Y-12550000D02*
X63950000Y-12550000D01*
X66705563Y-12550000D02*
X66070000Y-12550000D01*
X67770000Y-11485563D02*
X67770000Y-7030000D01*
X62250000Y-11485563D02*
X62250000Y-7030000D01*
X62250000Y-7030000D02*
X63950000Y-7030000D01*
X67770000Y-7030000D02*
X66070000Y-7030000D01*
X12820000Y-22361422D02*
X12820000Y-22878578D01*
X14240000Y-22361422D02*
X14240000Y-22878578D01*
X57162500Y-13102500D02*
X57787500Y-13102500D01*
X57475000Y-13415000D02*
X57475000Y-12790000D01*
X60855563Y-12550000D02*
X61920000Y-11485563D01*
X57464437Y-12550000D02*
X56400000Y-11485563D01*
X57464437Y-12550000D02*
X58100000Y-12550000D01*
X60855563Y-12550000D02*
X60220000Y-12550000D01*
X61920000Y-11485563D02*
X61920000Y-7030000D01*
X56400000Y-11485563D02*
X56400000Y-7030000D01*
X56400000Y-7030000D02*
X58100000Y-7030000D01*
X61920000Y-7030000D02*
X60220000Y-7030000D01*
X17302500Y-27772500D02*
X17927500Y-27772500D01*
X17615000Y-28085000D02*
X17615000Y-27460000D01*
X20995563Y-27220000D02*
X22060000Y-26155563D01*
X17604437Y-27220000D02*
X16540000Y-26155563D01*
X17604437Y-27220000D02*
X18240000Y-27220000D01*
X20995563Y-27220000D02*
X20360000Y-27220000D01*
X22060000Y-26155563D02*
X22060000Y-21700000D01*
X16540000Y-26155563D02*
X16540000Y-21700000D01*
X16540000Y-21700000D02*
X18240000Y-21700000D01*
X22060000Y-21700000D02*
X20360000Y-21700000D01*
X184000Y-6742000D02*
X184000Y-9242000D01*
X2684000Y-6742000D02*
X184000Y-6742000D01*
X1984000Y-31262000D02*
X484000Y-31262000D01*
X1984000Y-32262000D02*
X1984000Y-31262000D01*
X1984000Y-8042000D02*
X484000Y-8042000D01*
X1984000Y-7042000D02*
X1984000Y-8042000D01*
X2794000Y-31762000D02*
X2794000Y-32262000D01*
X4004000Y-31762000D02*
X2794000Y-31762000D01*
X4004000Y-7542000D02*
X4004000Y-31762000D01*
X2794000Y-7542000D02*
X4004000Y-7542000D01*
X2794000Y-7042000D02*
X2794000Y-7542000D01*
X4504000Y-32262000D02*
X4504000Y-7042000D01*
X484000Y-32262000D02*
X4504000Y-32262000D01*
X484000Y-7042000D02*
X484000Y-32262000D01*
X4504000Y-7042000D02*
X484000Y-7042000D01*
D12*
X15388000Y-32699000D02*
X15388000Y-38674000D01*
X8488000Y-34224000D02*
X8488000Y-38674000D01*
D11*
X54812000Y-32888422D02*
X54812000Y-33405578D01*
X53392000Y-32888422D02*
X53392000Y-33405578D01*
X57225000Y-32888422D02*
X57225000Y-33405578D01*
X55805000Y-32888422D02*
X55805000Y-33405578D01*
X59638000Y-32888422D02*
X59638000Y-33405578D01*
X58218000Y-32888422D02*
X58218000Y-33405578D01*
X18104000Y-44890000D02*
X18104000Y-40870000D01*
X18104000Y-40870000D02*
X5384000Y-40870000D01*
X5384000Y-40870000D02*
X5384000Y-44890000D01*
X5384000Y-44890000D02*
X18104000Y-44890000D01*
X18104000Y-43180000D02*
X17604000Y-43180000D01*
X17604000Y-43180000D02*
X17604000Y-44390000D01*
X17604000Y-44390000D02*
X5884000Y-44390000D01*
X5884000Y-44390000D02*
X5884000Y-43180000D01*
X5884000Y-43180000D02*
X5384000Y-43180000D01*
X18104000Y-42370000D02*
X17104000Y-42370000D01*
X17104000Y-42370000D02*
X17104000Y-40870000D01*
X5384000Y-42370000D02*
X6384000Y-42370000D01*
X6384000Y-42370000D02*
X6384000Y-40870000D01*
X18404000Y-43070000D02*
X18404000Y-40570000D01*
X18404000Y-40570000D02*
X15904000Y-40570000D01*
X53142000Y-35576000D02*
X53142000Y-38261000D01*
X53142000Y-38261000D02*
X55062000Y-38261000D01*
X55062000Y-38261000D02*
X55062000Y-35576000D01*
X55555000Y-35576000D02*
X55555000Y-38261000D01*
X55555000Y-38261000D02*
X57475000Y-38261000D01*
X57475000Y-38261000D02*
X57475000Y-35576000D01*
X57968000Y-35576000D02*
X57968000Y-38261000D01*
X57968000Y-38261000D02*
X59888000Y-38261000D01*
X59888000Y-38261000D02*
X59888000Y-35576000D01*
X58596000Y-44955578D02*
X58596000Y-44438422D01*
X60016000Y-44955578D02*
X60016000Y-44438422D01*
X27550000Y-12690000D02*
X25050000Y-12690000D01*
X27550000Y-15190000D02*
X27550000Y-12690000D01*
X20530000Y-14490000D02*
X20530000Y-12990000D01*
X19530000Y-14490000D02*
X20530000Y-14490000D01*
X26250000Y-14490000D02*
X26250000Y-12990000D01*
X27250000Y-14490000D02*
X26250000Y-14490000D01*
X20030000Y-15300000D02*
X19530000Y-15300000D01*
X20030000Y-16510000D02*
X20030000Y-15300000D01*
X26750000Y-16510000D02*
X20030000Y-16510000D01*
X26750000Y-15300000D02*
X26750000Y-16510000D01*
X27250000Y-15300000D02*
X26750000Y-15300000D01*
X19530000Y-17010000D02*
X27250000Y-17010000D01*
X19530000Y-12990000D02*
X19530000Y-17010000D01*
X27250000Y-12990000D02*
X19530000Y-12990000D01*
X27250000Y-17010000D02*
X27250000Y-12990000D01*
X74374000Y-14969000D02*
X70354000Y-14969000D01*
X70354000Y-14969000D02*
X70354000Y-35189000D01*
X70354000Y-35189000D02*
X74374000Y-35189000D01*
X74374000Y-35189000D02*
X74374000Y-14969000D01*
X72664000Y-14969000D02*
X72664000Y-15469000D01*
X72664000Y-15469000D02*
X73874000Y-15469000D01*
X73874000Y-15469000D02*
X73874000Y-34689000D01*
X73874000Y-34689000D02*
X72664000Y-34689000D01*
X72664000Y-34689000D02*
X72664000Y-35189000D01*
X71854000Y-14969000D02*
X71854000Y-15969000D01*
X71854000Y-15969000D02*
X70354000Y-15969000D01*
X71854000Y-35189000D02*
X71854000Y-34189000D01*
X71854000Y-34189000D02*
X70354000Y-34189000D01*
X72554000Y-14669000D02*
X70054000Y-14669000D01*
X70054000Y-14669000D02*
X70054000Y-17169000D01*
X25300000Y-21600000D02*
X45300000Y-21600000D01*
X22800000Y-24100000D02*
G75*
G02X25300000Y-21600000I2500000J0D01*
G01*
X22800000Y-44100000D02*
X22800000Y-24100000D01*
X25300000Y-46600000D02*
G75*
G02X22800000Y-44100000I0J2500000D01*
G01*
X45300000Y-21600000D02*
G75*
G02X47800000Y-24100000I0J-2500000D01*
G01*
X47800000Y-24100000D02*
X47800000Y-44100000D01*
X45300000Y-46600000D02*
X25300000Y-46600000D01*
X47800000Y-44100000D02*
G75*
G02X45300000Y-46600000I-2500000J0D01*
G01*
X9981000Y-30992578D02*
X9981000Y-30475422D01*
X8561000Y-30992578D02*
X8561000Y-30475422D01*
X12013000Y-30992578D02*
X12013000Y-30475422D01*
X10593000Y-30992578D02*
X10593000Y-30475422D01*
X14045000Y-30992578D02*
X14045000Y-30475422D01*
X12625000Y-30992578D02*
X12625000Y-30475422D01*
X16077000Y-30992578D02*
X16077000Y-30475422D01*
X14657000Y-30992578D02*
X14657000Y-30475422D01*
X58596000Y-47915922D02*
X58596000Y-48433078D01*
X60016000Y-47915922D02*
X60016000Y-48433078D01*
X56564000Y-44438422D02*
X56564000Y-44955578D01*
X57984000Y-44438422D02*
X57984000Y-44955578D01*
X48650000Y-16940000D02*
X46150000Y-16940000D01*
X48650000Y-19440000D02*
X48650000Y-16940000D01*
X29130000Y-18740000D02*
X29130000Y-17240000D01*
X28130000Y-18740000D02*
X29130000Y-18740000D01*
X47350000Y-18740000D02*
X47350000Y-17240000D01*
X48350000Y-18740000D02*
X47350000Y-18740000D01*
X28630000Y-19550000D02*
X28130000Y-19550000D01*
X28630000Y-20760000D02*
X28630000Y-19550000D01*
X47850000Y-20760000D02*
X28630000Y-20760000D01*
X47850000Y-19550000D02*
X47850000Y-20760000D01*
X48350000Y-19550000D02*
X47850000Y-19550000D01*
X28130000Y-21260000D02*
X48350000Y-21260000D01*
X28130000Y-17240000D02*
X28130000Y-21260000D01*
X48350000Y-17240000D02*
X28130000Y-17240000D01*
X48350000Y-21260000D02*
X48350000Y-17240000D01*
X23357000Y-45523000D02*
X20857000Y-45523000D01*
X23357000Y-48023000D02*
X23357000Y-45523000D01*
X6337000Y-47323000D02*
X6337000Y-45823000D01*
X5337000Y-47323000D02*
X6337000Y-47323000D01*
X22057000Y-47323000D02*
X22057000Y-45823000D01*
X23057000Y-47323000D02*
X22057000Y-47323000D01*
X5837000Y-48133000D02*
X5337000Y-48133000D01*
X5837000Y-49343000D02*
X5837000Y-48133000D01*
X22557000Y-49343000D02*
X5837000Y-49343000D01*
X22557000Y-48133000D02*
X22557000Y-49343000D01*
X23057000Y-48133000D02*
X22557000Y-48133000D01*
X5337000Y-49843000D02*
X23057000Y-49843000D01*
X5337000Y-45823000D02*
X5337000Y-49843000D01*
X23057000Y-45823000D02*
X5337000Y-45823000D01*
X23057000Y-49843000D02*
X23057000Y-45823000D01*
X65101000Y-35412000D02*
X65101000Y-37912000D01*
X67601000Y-35412000D02*
X65101000Y-35412000D01*
X66901000Y-54932000D02*
X65401000Y-54932000D01*
X66901000Y-55932000D02*
X66901000Y-54932000D01*
X66901000Y-36712000D02*
X65401000Y-36712000D01*
X66901000Y-35712000D02*
X66901000Y-36712000D01*
X67711000Y-55432000D02*
X67711000Y-55932000D01*
X68921000Y-55432000D02*
X67711000Y-55432000D01*
X68921000Y-36212000D02*
X68921000Y-55432000D01*
X67711000Y-36212000D02*
X68921000Y-36212000D01*
X67711000Y-35712000D02*
X67711000Y-36212000D01*
X69421000Y-55932000D02*
X69421000Y-35712000D01*
X65401000Y-55932000D02*
X69421000Y-55932000D01*
X65401000Y-35712000D02*
X65401000Y-55932000D01*
X69421000Y-35712000D02*
X65401000Y-35712000D01*
X70054000Y-35407000D02*
X70054000Y-37907000D01*
X72554000Y-35407000D02*
X70054000Y-35407000D01*
X71854000Y-54927000D02*
X70354000Y-54927000D01*
X71854000Y-55927000D02*
X71854000Y-54927000D01*
X71854000Y-36707000D02*
X70354000Y-36707000D01*
X71854000Y-35707000D02*
X71854000Y-36707000D01*
X72664000Y-55427000D02*
X72664000Y-55927000D01*
X73874000Y-55427000D02*
X72664000Y-55427000D01*
X73874000Y-36207000D02*
X73874000Y-55427000D01*
X72664000Y-36207000D02*
X73874000Y-36207000D01*
X72664000Y-35707000D02*
X72664000Y-36207000D01*
X74374000Y-55927000D02*
X74374000Y-35707000D01*
X70354000Y-55927000D02*
X74374000Y-55927000D01*
X70354000Y-35707000D02*
X70354000Y-55927000D01*
X74374000Y-35707000D02*
X70354000Y-35707000D01*
X49750000Y-12690000D02*
X47250000Y-12690000D01*
X49750000Y-15190000D02*
X49750000Y-12690000D01*
X40230000Y-14490000D02*
X40230000Y-12990000D01*
X39230000Y-14490000D02*
X40230000Y-14490000D01*
X48450000Y-14490000D02*
X48450000Y-12990000D01*
X49450000Y-14490000D02*
X48450000Y-14490000D01*
X39730000Y-15300000D02*
X39230000Y-15300000D01*
X39730000Y-16510000D02*
X39730000Y-15300000D01*
X48950000Y-16510000D02*
X39730000Y-16510000D01*
X48950000Y-15300000D02*
X48950000Y-16510000D01*
X49450000Y-15300000D02*
X48950000Y-15300000D01*
X39230000Y-17010000D02*
X49450000Y-17010000D01*
X39230000Y-12990000D02*
X39230000Y-17010000D01*
X49450000Y-12990000D02*
X39230000Y-12990000D01*
X49450000Y-17010000D02*
X49450000Y-12990000D01*
X38650000Y-12690000D02*
X36150000Y-12690000D01*
X38650000Y-15190000D02*
X38650000Y-12690000D01*
X29130000Y-14490000D02*
X29130000Y-12990000D01*
X28130000Y-14490000D02*
X29130000Y-14490000D01*
X37350000Y-14490000D02*
X37350000Y-12990000D01*
X38350000Y-14490000D02*
X37350000Y-14490000D01*
X28630000Y-15300000D02*
X28130000Y-15300000D01*
X28630000Y-16510000D02*
X28630000Y-15300000D01*
X37850000Y-16510000D02*
X28630000Y-16510000D01*
X37850000Y-15300000D02*
X37850000Y-16510000D01*
X38350000Y-15300000D02*
X37850000Y-15300000D01*
X28130000Y-17010000D02*
X38350000Y-17010000D01*
X28130000Y-12990000D02*
X28130000Y-17010000D01*
X38350000Y-12990000D02*
X28130000Y-12990000D01*
X38350000Y-17010000D02*
X38350000Y-12990000D01*
X19293000Y-14408000D02*
X16793000Y-14408000D01*
X19293000Y-16908000D02*
X19293000Y-14408000D01*
X7273000Y-16208000D02*
X7273000Y-14708000D01*
X6273000Y-16208000D02*
X7273000Y-16208000D01*
X17993000Y-16208000D02*
X17993000Y-14708000D01*
X18993000Y-16208000D02*
X17993000Y-16208000D01*
X6773000Y-17018000D02*
X6273000Y-17018000D01*
X6773000Y-18228000D02*
X6773000Y-17018000D01*
X18493000Y-18228000D02*
X6773000Y-18228000D01*
X18493000Y-17018000D02*
X18493000Y-18228000D01*
X18993000Y-17018000D02*
X18493000Y-17018000D01*
X6273000Y-18728000D02*
X18993000Y-18728000D01*
X6273000Y-14708000D02*
X6273000Y-18728000D01*
X18993000Y-14708000D02*
X6273000Y-14708000D01*
X18993000Y-18728000D02*
X18993000Y-14708000D01*
X58124000Y-46607000D02*
X58124000Y-49757000D01*
X56424000Y-46607000D02*
X56424000Y-49757000D01*
X58124000Y-46607000D02*
X56424000Y-46607000D01*
X9981000Y-27563578D02*
X9981000Y-27046422D01*
X8561000Y-27563578D02*
X8561000Y-27046422D01*
X12013000Y-27563578D02*
X12013000Y-27046422D01*
X10593000Y-27563578D02*
X10593000Y-27046422D01*
X14045000Y-27563578D02*
X14045000Y-27046422D01*
X12625000Y-27563578D02*
X12625000Y-27046422D01*
X16077000Y-27563578D02*
X16077000Y-27046422D01*
X14657000Y-27563578D02*
X14657000Y-27046422D01*
X54873577Y-20904999D02*
X54356421Y-20904999D01*
X54873577Y-22324999D02*
X54356421Y-22324999D01*
X54871078Y-20320000D02*
X54353922Y-20320000D01*
X54871078Y-18900000D02*
X54353922Y-18900000D01*
D12*
X67306666Y-13382380D02*
X67306666Y-14096666D01*
X67259047Y-14239523D01*
X67163809Y-14334761D01*
X67020952Y-14382380D01*
X66925714Y-14382380D01*
X68259047Y-13382380D02*
X67782857Y-13382380D01*
X67735238Y-13858571D01*
X67782857Y-13810952D01*
X67878095Y-13763333D01*
X68116190Y-13763333D01*
X68211428Y-13810952D01*
X68259047Y-13858571D01*
X68306666Y-13953809D01*
X68306666Y-14191904D01*
X68259047Y-14287142D01*
X68211428Y-14334761D01*
X68116190Y-14382380D01*
X67878095Y-14382380D01*
X67782857Y-14334761D01*
X67735238Y-14287142D01*
X24558666Y-10120380D02*
X24558666Y-10834666D01*
X24511047Y-10977523D01*
X24415809Y-11072761D01*
X24272952Y-11120380D01*
X24177714Y-11120380D01*
X25177714Y-10548952D02*
X25082476Y-10501333D01*
X25034857Y-10453714D01*
X24987238Y-10358476D01*
X24987238Y-10310857D01*
X25034857Y-10215619D01*
X25082476Y-10168000D01*
X25177714Y-10120380D01*
X25368190Y-10120380D01*
X25463428Y-10168000D01*
X25511047Y-10215619D01*
X25558666Y-10310857D01*
X25558666Y-10358476D01*
X25511047Y-10453714D01*
X25463428Y-10501333D01*
X25368190Y-10548952D01*
X25177714Y-10548952D01*
X25082476Y-10596571D01*
X25034857Y-10644190D01*
X24987238Y-10739428D01*
X24987238Y-10929904D01*
X25034857Y-11025142D01*
X25082476Y-11072761D01*
X25177714Y-11120380D01*
X25368190Y-11120380D01*
X25463428Y-11072761D01*
X25511047Y-11025142D01*
X25558666Y-10929904D01*
X25558666Y-10739428D01*
X25511047Y-10644190D01*
X25463428Y-10596571D01*
X25368190Y-10548952D01*
X60047142Y-15892857D02*
X60094761Y-15940476D01*
X60142380Y-16083333D01*
X60142380Y-16178571D01*
X60094761Y-16321428D01*
X59999523Y-16416666D01*
X59904285Y-16464285D01*
X59713809Y-16511904D01*
X59570952Y-16511904D01*
X59380476Y-16464285D01*
X59285238Y-16416666D01*
X59190000Y-16321428D01*
X59142380Y-16178571D01*
X59142380Y-16083333D01*
X59190000Y-15940476D01*
X59237619Y-15892857D01*
X60142380Y-14940476D02*
X60142380Y-15511904D01*
X60142380Y-15226190D02*
X59142380Y-15226190D01*
X59285238Y-15321428D01*
X59380476Y-15416666D01*
X59428095Y-15511904D01*
X60142380Y-13988095D02*
X60142380Y-14559523D01*
X60142380Y-14273809D02*
X59142380Y-14273809D01*
X59285238Y-14369047D01*
X59380476Y-14464285D01*
X59428095Y-14559523D01*
X62607142Y-13086666D02*
X62654761Y-13134285D01*
X62702380Y-13277142D01*
X62702380Y-13372380D01*
X62654761Y-13515238D01*
X62559523Y-13610476D01*
X62464285Y-13658095D01*
X62273809Y-13705714D01*
X62130952Y-13705714D01*
X61940476Y-13658095D01*
X61845238Y-13610476D01*
X61750000Y-13515238D01*
X61702380Y-13372380D01*
X61702380Y-13277142D01*
X61750000Y-13134285D01*
X61797619Y-13086666D01*
X62702380Y-12610476D02*
X62702380Y-12420000D01*
X62654761Y-12324761D01*
X62607142Y-12277142D01*
X62464285Y-12181904D01*
X62273809Y-12134285D01*
X61892857Y-12134285D01*
X61797619Y-12181904D01*
X61750000Y-12229523D01*
X61702380Y-12324761D01*
X61702380Y-12515238D01*
X61750000Y-12610476D01*
X61797619Y-12658095D01*
X61892857Y-12705714D01*
X62130952Y-12705714D01*
X62226190Y-12658095D01*
X62273809Y-12610476D01*
X62321428Y-12515238D01*
X62321428Y-12324761D01*
X62273809Y-12229523D01*
X62226190Y-12181904D01*
X62130952Y-12134285D01*
X15537142Y-22786666D02*
X15584761Y-22834285D01*
X15632380Y-22977142D01*
X15632380Y-23072380D01*
X15584761Y-23215238D01*
X15489523Y-23310476D01*
X15394285Y-23358095D01*
X15203809Y-23405714D01*
X15060952Y-23405714D01*
X14870476Y-23358095D01*
X14775238Y-23310476D01*
X14680000Y-23215238D01*
X14632380Y-23072380D01*
X14632380Y-22977142D01*
X14680000Y-22834285D01*
X14727619Y-22786666D01*
X15060952Y-22215238D02*
X15013333Y-22310476D01*
X14965714Y-22358095D01*
X14870476Y-22405714D01*
X14822857Y-22405714D01*
X14727619Y-22358095D01*
X14680000Y-22310476D01*
X14632380Y-22215238D01*
X14632380Y-22024761D01*
X14680000Y-21929523D01*
X14727619Y-21881904D01*
X14822857Y-21834285D01*
X14870476Y-21834285D01*
X14965714Y-21881904D01*
X15013333Y-21929523D01*
X15060952Y-22024761D01*
X15060952Y-22215238D01*
X15108571Y-22310476D01*
X15156190Y-22358095D01*
X15251428Y-22405714D01*
X15441904Y-22405714D01*
X15537142Y-22358095D01*
X15584761Y-22310476D01*
X15632380Y-22215238D01*
X15632380Y-22024761D01*
X15584761Y-21929523D01*
X15537142Y-21881904D01*
X15441904Y-21834285D01*
X15251428Y-21834285D01*
X15156190Y-21881904D01*
X15108571Y-21929523D01*
X15060952Y-22024761D01*
X56477142Y-12736666D02*
X56524761Y-12784285D01*
X56572380Y-12927142D01*
X56572380Y-13022380D01*
X56524761Y-13165238D01*
X56429523Y-13260476D01*
X56334285Y-13308095D01*
X56143809Y-13355714D01*
X56000952Y-13355714D01*
X55810476Y-13308095D01*
X55715238Y-13260476D01*
X55620000Y-13165238D01*
X55572380Y-13022380D01*
X55572380Y-12927142D01*
X55620000Y-12784285D01*
X55667619Y-12736666D01*
X55572380Y-12403333D02*
X55572380Y-11736666D01*
X56572380Y-12165238D01*
X23357142Y-21536666D02*
X23404761Y-21584285D01*
X23452380Y-21727142D01*
X23452380Y-21822380D01*
X23404761Y-21965238D01*
X23309523Y-22060476D01*
X23214285Y-22108095D01*
X23023809Y-22155714D01*
X22880952Y-22155714D01*
X22690476Y-22108095D01*
X22595238Y-22060476D01*
X22500000Y-21965238D01*
X22452380Y-21822380D01*
X22452380Y-21727142D01*
X22500000Y-21584285D01*
X22547619Y-21536666D01*
X22452380Y-20631904D02*
X22452380Y-21108095D01*
X22928571Y-21155714D01*
X22880952Y-21108095D01*
X22833333Y-21012857D01*
X22833333Y-20774761D01*
X22880952Y-20679523D01*
X22928571Y-20631904D01*
X23023809Y-20584285D01*
X23261904Y-20584285D01*
X23357142Y-20631904D01*
X23404761Y-20679523D01*
X23452380Y-20774761D01*
X23452380Y-21012857D01*
X23404761Y-21108095D01*
X23357142Y-21155714D01*
X11477666Y-10120380D02*
X11477666Y-10834666D01*
X11430047Y-10977523D01*
X11334809Y-11072761D01*
X11191952Y-11120380D01*
X11096714Y-11120380D01*
X11858619Y-10120380D02*
X12477666Y-10120380D01*
X12144333Y-10501333D01*
X12287190Y-10501333D01*
X12382428Y-10548952D01*
X12430047Y-10596571D01*
X12477666Y-10691809D01*
X12477666Y-10929904D01*
X12430047Y-11025142D01*
X12382428Y-11072761D01*
X12287190Y-11120380D01*
X12001476Y-11120380D01*
X11906238Y-11072761D01*
X11858619Y-11025142D01*
X5381666Y-5548380D02*
X5381666Y-6262666D01*
X5334047Y-6405523D01*
X5238809Y-6500761D01*
X5095952Y-6548380D01*
X5000714Y-6548380D01*
X5810238Y-5643619D02*
X5857857Y-5596000D01*
X5953095Y-5548380D01*
X6191190Y-5548380D01*
X6286428Y-5596000D01*
X6334047Y-5643619D01*
X6381666Y-5738857D01*
X6381666Y-5834095D01*
X6334047Y-5976952D01*
X5762619Y-6548380D01*
X6381666Y-6548380D01*
X15690380Y-37210904D02*
X16499904Y-37210904D01*
X16595142Y-37163285D01*
X16642761Y-37115666D01*
X16690380Y-37020428D01*
X16690380Y-36829952D01*
X16642761Y-36734714D01*
X16595142Y-36687095D01*
X16499904Y-36639476D01*
X15690380Y-36639476D01*
X15690380Y-35687095D02*
X15690380Y-36163285D01*
X16166571Y-36210904D01*
X16118952Y-36163285D01*
X16071333Y-36068047D01*
X16071333Y-35829952D01*
X16118952Y-35734714D01*
X16166571Y-35687095D01*
X16261809Y-35639476D01*
X16499904Y-35639476D01*
X16595142Y-35687095D01*
X16642761Y-35734714D01*
X16690380Y-35829952D01*
X16690380Y-36068047D01*
X16642761Y-36163285D01*
X16595142Y-36210904D01*
X53205142Y-31313380D02*
X52871809Y-30837190D01*
X52633714Y-31313380D02*
X52633714Y-30313380D01*
X53014666Y-30313380D01*
X53109904Y-30361000D01*
X53157523Y-30408619D01*
X53205142Y-30503857D01*
X53205142Y-30646714D01*
X53157523Y-30741952D01*
X53109904Y-30789571D01*
X53014666Y-30837190D01*
X52633714Y-30837190D01*
X54157523Y-31313380D02*
X53586095Y-31313380D01*
X53871809Y-31313380D02*
X53871809Y-30313380D01*
X53776571Y-30456238D01*
X53681333Y-30551476D01*
X53586095Y-30599095D01*
X54776571Y-30313380D02*
X54871809Y-30313380D01*
X54967047Y-30361000D01*
X55014666Y-30408619D01*
X55062285Y-30503857D01*
X55109904Y-30694333D01*
X55109904Y-30932428D01*
X55062285Y-31122904D01*
X55014666Y-31218142D01*
X54967047Y-31265761D01*
X54871809Y-31313380D01*
X54776571Y-31313380D01*
X54681333Y-31265761D01*
X54633714Y-31218142D01*
X54586095Y-31122904D01*
X54538476Y-30932428D01*
X54538476Y-30694333D01*
X54586095Y-30503857D01*
X54633714Y-30408619D01*
X54681333Y-30361000D01*
X54776571Y-30313380D01*
X56348333Y-31313380D02*
X56015000Y-30837190D01*
X55776904Y-31313380D02*
X55776904Y-30313380D01*
X56157857Y-30313380D01*
X56253095Y-30361000D01*
X56300714Y-30408619D01*
X56348333Y-30503857D01*
X56348333Y-30646714D01*
X56300714Y-30741952D01*
X56253095Y-30789571D01*
X56157857Y-30837190D01*
X55776904Y-30837190D01*
X56824523Y-31313380D02*
X57015000Y-31313380D01*
X57110238Y-31265761D01*
X57157857Y-31218142D01*
X57253095Y-31075285D01*
X57300714Y-30884809D01*
X57300714Y-30503857D01*
X57253095Y-30408619D01*
X57205476Y-30361000D01*
X57110238Y-30313380D01*
X56919761Y-30313380D01*
X56824523Y-30361000D01*
X56776904Y-30408619D01*
X56729285Y-30503857D01*
X56729285Y-30741952D01*
X56776904Y-30837190D01*
X56824523Y-30884809D01*
X56919761Y-30932428D01*
X57110238Y-30932428D01*
X57205476Y-30884809D01*
X57253095Y-30837190D01*
X57300714Y-30741952D01*
X58761333Y-31313380D02*
X58428000Y-30837190D01*
X58189904Y-31313380D02*
X58189904Y-30313380D01*
X58570857Y-30313380D01*
X58666095Y-30361000D01*
X58713714Y-30408619D01*
X58761333Y-30503857D01*
X58761333Y-30646714D01*
X58713714Y-30741952D01*
X58666095Y-30789571D01*
X58570857Y-30837190D01*
X58189904Y-30837190D01*
X59332761Y-30741952D02*
X59237523Y-30694333D01*
X59189904Y-30646714D01*
X59142285Y-30551476D01*
X59142285Y-30503857D01*
X59189904Y-30408619D01*
X59237523Y-30361000D01*
X59332761Y-30313380D01*
X59523238Y-30313380D01*
X59618476Y-30361000D01*
X59666095Y-30408619D01*
X59713714Y-30503857D01*
X59713714Y-30551476D01*
X59666095Y-30646714D01*
X59618476Y-30694333D01*
X59523238Y-30741952D01*
X59332761Y-30741952D01*
X59237523Y-30789571D01*
X59189904Y-30837190D01*
X59142285Y-30932428D01*
X59142285Y-31122904D01*
X59189904Y-31218142D01*
X59237523Y-31265761D01*
X59332761Y-31313380D01*
X59523238Y-31313380D01*
X59618476Y-31265761D01*
X59666095Y-31218142D01*
X59713714Y-31122904D01*
X59713714Y-30932428D01*
X59666095Y-30837190D01*
X59618476Y-30789571D01*
X59523238Y-30741952D01*
X37512666Y-9993380D02*
X37512666Y-10707666D01*
X37465047Y-10850523D01*
X37369809Y-10945761D01*
X37226952Y-10993380D01*
X37131714Y-10993380D01*
X38417428Y-9993380D02*
X38226952Y-9993380D01*
X38131714Y-10041000D01*
X38084095Y-10088619D01*
X37988857Y-10231476D01*
X37941238Y-10421952D01*
X37941238Y-10802904D01*
X37988857Y-10898142D01*
X38036476Y-10945761D01*
X38131714Y-10993380D01*
X38322190Y-10993380D01*
X38417428Y-10945761D01*
X38465047Y-10898142D01*
X38512666Y-10802904D01*
X38512666Y-10564809D01*
X38465047Y-10469571D01*
X38417428Y-10421952D01*
X38322190Y-10374333D01*
X38131714Y-10374333D01*
X38036476Y-10421952D01*
X37988857Y-10469571D01*
X37941238Y-10564809D01*
X19097666Y-42632380D02*
X19097666Y-43346666D01*
X19050047Y-43489523D01*
X18954809Y-43584761D01*
X18811952Y-43632380D01*
X18716714Y-43632380D01*
X20002428Y-42965714D02*
X20002428Y-43632380D01*
X19764333Y-42584761D02*
X19526238Y-43299047D01*
X20145285Y-43299047D01*
X61317142Y-44896666D02*
X61364761Y-44944285D01*
X61412380Y-45087142D01*
X61412380Y-45182380D01*
X61364761Y-45325238D01*
X61269523Y-45420476D01*
X61174285Y-45468095D01*
X60983809Y-45515714D01*
X60840952Y-45515714D01*
X60650476Y-45468095D01*
X60555238Y-45420476D01*
X60460000Y-45325238D01*
X60412380Y-45182380D01*
X60412380Y-45087142D01*
X60460000Y-44944285D01*
X60507619Y-44896666D01*
X60412380Y-44039523D02*
X60412380Y-44230000D01*
X60460000Y-44325238D01*
X60507619Y-44372857D01*
X60650476Y-44468095D01*
X60840952Y-44515714D01*
X61221904Y-44515714D01*
X61317142Y-44468095D01*
X61364761Y-44420476D01*
X61412380Y-44325238D01*
X61412380Y-44134761D01*
X61364761Y-44039523D01*
X61317142Y-43991904D01*
X61221904Y-43944285D01*
X60983809Y-43944285D01*
X60888571Y-43991904D01*
X60840952Y-44039523D01*
X60793333Y-44134761D01*
X60793333Y-44325238D01*
X60840952Y-44420476D01*
X60888571Y-44468095D01*
X60983809Y-44515714D01*
X25300476Y-17262380D02*
X25300476Y-17976666D01*
X25252857Y-18119523D01*
X25157619Y-18214761D01*
X25014761Y-18262380D01*
X24919523Y-18262380D01*
X26300476Y-18262380D02*
X25729047Y-18262380D01*
X26014761Y-18262380D02*
X26014761Y-17262380D01*
X25919523Y-17405238D01*
X25824285Y-17500476D01*
X25729047Y-17548095D01*
X26633809Y-17262380D02*
X27300476Y-17262380D01*
X26871904Y-18262380D01*
X8073380Y-30900666D02*
X7597190Y-31234000D01*
X8073380Y-31472095D02*
X7073380Y-31472095D01*
X7073380Y-31091142D01*
X7121000Y-30995904D01*
X7168619Y-30948285D01*
X7263857Y-30900666D01*
X7406714Y-30900666D01*
X7501952Y-30948285D01*
X7549571Y-30995904D01*
X7597190Y-31091142D01*
X7597190Y-31472095D01*
X7073380Y-30567333D02*
X7073380Y-29900666D01*
X8073380Y-30329238D01*
X17572380Y-30806666D02*
X17096190Y-31140000D01*
X17572380Y-31378095D02*
X16572380Y-31378095D01*
X16572380Y-30997142D01*
X16620000Y-30901904D01*
X16667619Y-30854285D01*
X16762857Y-30806666D01*
X16905714Y-30806666D01*
X17000952Y-30854285D01*
X17048571Y-30901904D01*
X17096190Y-30997142D01*
X17096190Y-31378095D01*
X16905714Y-29949523D02*
X17572380Y-29949523D01*
X16524761Y-30187619D02*
X17239047Y-30425714D01*
X17239047Y-29806666D01*
X61462380Y-48546666D02*
X60986190Y-48880000D01*
X61462380Y-49118095D02*
X60462380Y-49118095D01*
X60462380Y-48737142D01*
X60510000Y-48641904D01*
X60557619Y-48594285D01*
X60652857Y-48546666D01*
X60795714Y-48546666D01*
X60890952Y-48594285D01*
X60938571Y-48641904D01*
X60986190Y-48737142D01*
X60986190Y-49118095D01*
X60462380Y-48213333D02*
X60462380Y-47594285D01*
X60843333Y-47927619D01*
X60843333Y-47784761D01*
X60890952Y-47689523D01*
X60938571Y-47641904D01*
X61033809Y-47594285D01*
X61271904Y-47594285D01*
X61367142Y-47641904D01*
X61414761Y-47689523D01*
X61462380Y-47784761D01*
X61462380Y-48070476D01*
X61414761Y-48165714D01*
X61367142Y-48213333D01*
X56092380Y-44896666D02*
X55616190Y-45230000D01*
X56092380Y-45468095D02*
X55092380Y-45468095D01*
X55092380Y-45087142D01*
X55140000Y-44991904D01*
X55187619Y-44944285D01*
X55282857Y-44896666D01*
X55425714Y-44896666D01*
X55520952Y-44944285D01*
X55568571Y-44991904D01*
X55616190Y-45087142D01*
X55616190Y-45468095D01*
X55187619Y-44515714D02*
X55140000Y-44468095D01*
X55092380Y-44372857D01*
X55092380Y-44134761D01*
X55140000Y-44039523D01*
X55187619Y-43991904D01*
X55282857Y-43944285D01*
X55378095Y-43944285D01*
X55520952Y-43991904D01*
X56092380Y-44563333D01*
X56092380Y-43944285D01*
X26822380Y-20479523D02*
X27536666Y-20479523D01*
X27679523Y-20527142D01*
X27774761Y-20622380D01*
X27822380Y-20765238D01*
X27822380Y-20860476D01*
X27822380Y-19479523D02*
X27822380Y-20050952D01*
X27822380Y-19765238D02*
X26822380Y-19765238D01*
X26965238Y-19860476D01*
X27060476Y-19955714D01*
X27108095Y-20050952D01*
X27250952Y-18908095D02*
X27203333Y-19003333D01*
X27155714Y-19050952D01*
X27060476Y-19098571D01*
X27012857Y-19098571D01*
X26917619Y-19050952D01*
X26870000Y-19003333D01*
X26822380Y-18908095D01*
X26822380Y-18717619D01*
X26870000Y-18622380D01*
X26917619Y-18574761D01*
X27012857Y-18527142D01*
X27060476Y-18527142D01*
X27155714Y-18574761D01*
X27203333Y-18622380D01*
X27250952Y-18717619D01*
X27250952Y-18908095D01*
X27298571Y-19003333D01*
X27346190Y-19050952D01*
X27441428Y-19098571D01*
X27631904Y-19098571D01*
X27727142Y-19050952D01*
X27774761Y-19003333D01*
X27822380Y-18908095D01*
X27822380Y-18717619D01*
X27774761Y-18622380D01*
X27727142Y-18574761D01*
X27631904Y-18527142D01*
X27441428Y-18527142D01*
X27346190Y-18574761D01*
X27298571Y-18622380D01*
X27250952Y-18717619D01*
X24082476Y-47458380D02*
X24082476Y-48172666D01*
X24034857Y-48315523D01*
X23939619Y-48410761D01*
X23796761Y-48458380D01*
X23701523Y-48458380D01*
X25082476Y-48458380D02*
X24511047Y-48458380D01*
X24796761Y-48458380D02*
X24796761Y-47458380D01*
X24701523Y-47601238D01*
X24606285Y-47696476D01*
X24511047Y-47744095D01*
X25939619Y-47458380D02*
X25749142Y-47458380D01*
X25653904Y-47506000D01*
X25606285Y-47553619D01*
X25511047Y-47696476D01*
X25463428Y-47886952D01*
X25463428Y-48267904D01*
X25511047Y-48363142D01*
X25558666Y-48410761D01*
X25653904Y-48458380D01*
X25844380Y-48458380D01*
X25939619Y-48410761D01*
X25987238Y-48363142D01*
X26034857Y-48267904D01*
X26034857Y-48029809D01*
X25987238Y-47934571D01*
X25939619Y-47886952D01*
X25844380Y-47839333D01*
X25653904Y-47839333D01*
X25558666Y-47886952D01*
X25511047Y-47934571D01*
X25463428Y-48029809D01*
X5794476Y-13168380D02*
X5794476Y-13882666D01*
X5746857Y-14025523D01*
X5651619Y-14120761D01*
X5508761Y-14168380D01*
X5413523Y-14168380D01*
X6794476Y-14168380D02*
X6223047Y-14168380D01*
X6508761Y-14168380D02*
X6508761Y-13168380D01*
X6413523Y-13311238D01*
X6318285Y-13406476D01*
X6223047Y-13454095D01*
X7413523Y-13168380D02*
X7508761Y-13168380D01*
X7604000Y-13216000D01*
X7651619Y-13263619D01*
X7699238Y-13358857D01*
X7746857Y-13549333D01*
X7746857Y-13787428D01*
X7699238Y-13977904D01*
X7651619Y-14073142D01*
X7604000Y-14120761D01*
X7508761Y-14168380D01*
X7413523Y-14168380D01*
X7318285Y-14120761D01*
X7270666Y-14073142D01*
X7223047Y-13977904D01*
X7175428Y-13787428D01*
X7175428Y-13549333D01*
X7223047Y-13358857D01*
X7270666Y-13263619D01*
X7318285Y-13216000D01*
X7413523Y-13168380D01*
X56132380Y-48878095D02*
X55132380Y-48878095D01*
X55132380Y-48640000D01*
X55180000Y-48497142D01*
X55275238Y-48401904D01*
X55370476Y-48354285D01*
X55560952Y-48306666D01*
X55703809Y-48306666D01*
X55894285Y-48354285D01*
X55989523Y-48401904D01*
X56084761Y-48497142D01*
X56132380Y-48640000D01*
X56132380Y-48878095D01*
X56132380Y-47354285D02*
X56132380Y-47925714D01*
X56132380Y-47640000D02*
X55132380Y-47640000D01*
X55275238Y-47735238D01*
X55370476Y-47830476D01*
X55418095Y-47925714D01*
X7978142Y-27471666D02*
X8025761Y-27519285D01*
X8073380Y-27662142D01*
X8073380Y-27757380D01*
X8025761Y-27900238D01*
X7930523Y-27995476D01*
X7835285Y-28043095D01*
X7644809Y-28090714D01*
X7501952Y-28090714D01*
X7311476Y-28043095D01*
X7216238Y-27995476D01*
X7121000Y-27900238D01*
X7073380Y-27757380D01*
X7073380Y-27662142D01*
X7121000Y-27519285D01*
X7168619Y-27471666D01*
X7406714Y-26614523D02*
X8073380Y-26614523D01*
X7025761Y-26852619D02*
X7740047Y-27090714D01*
X7740047Y-26471666D01*
X10553333Y-25357142D02*
X10505714Y-25404761D01*
X10362857Y-25452380D01*
X10267619Y-25452380D01*
X10124761Y-25404761D01*
X10029523Y-25309523D01*
X9981904Y-25214285D01*
X9934285Y-25023809D01*
X9934285Y-24880952D01*
X9981904Y-24690476D01*
X10029523Y-24595238D01*
X10124761Y-24500000D01*
X10267619Y-24452380D01*
X10362857Y-24452380D01*
X10505714Y-24500000D01*
X10553333Y-24547619D01*
X10886666Y-24452380D02*
X11505714Y-24452380D01*
X11172380Y-24833333D01*
X11315238Y-24833333D01*
X11410476Y-24880952D01*
X11458095Y-24928571D01*
X11505714Y-25023809D01*
X11505714Y-25261904D01*
X11458095Y-25357142D01*
X11410476Y-25404761D01*
X11315238Y-25452380D01*
X11029523Y-25452380D01*
X10934285Y-25404761D01*
X10886666Y-25357142D01*
X13133333Y-25227142D02*
X13085714Y-25274761D01*
X12942857Y-25322380D01*
X12847619Y-25322380D01*
X12704761Y-25274761D01*
X12609523Y-25179523D01*
X12561904Y-25084285D01*
X12514285Y-24893809D01*
X12514285Y-24750952D01*
X12561904Y-24560476D01*
X12609523Y-24465238D01*
X12704761Y-24370000D01*
X12847619Y-24322380D01*
X12942857Y-24322380D01*
X13085714Y-24370000D01*
X13133333Y-24417619D01*
X13514285Y-24417619D02*
X13561904Y-24370000D01*
X13657142Y-24322380D01*
X13895238Y-24322380D01*
X13990476Y-24370000D01*
X14038095Y-24417619D01*
X14085714Y-24512857D01*
X14085714Y-24608095D01*
X14038095Y-24750952D01*
X13466666Y-25322380D01*
X14085714Y-25322380D01*
X15657142Y-24836666D02*
X15704761Y-24884285D01*
X15752380Y-25027142D01*
X15752380Y-25122380D01*
X15704761Y-25265238D01*
X15609523Y-25360476D01*
X15514285Y-25408095D01*
X15323809Y-25455714D01*
X15180952Y-25455714D01*
X14990476Y-25408095D01*
X14895238Y-25360476D01*
X14800000Y-25265238D01*
X14752380Y-25122380D01*
X14752380Y-25027142D01*
X14800000Y-24884285D01*
X14847619Y-24836666D01*
X15752380Y-23884285D02*
X15752380Y-24455714D01*
X15752380Y-24170000D02*
X14752380Y-24170000D01*
X14895238Y-24265238D01*
X14990476Y-24360476D01*
X15038095Y-24455714D01*
X53972141Y-23717379D02*
X53638808Y-23241189D01*
X53400713Y-23717379D02*
X53400713Y-22717379D01*
X53781665Y-22717379D01*
X53876903Y-22764999D01*
X53924522Y-22812618D01*
X53972141Y-22907856D01*
X53972141Y-23050713D01*
X53924522Y-23145951D01*
X53876903Y-23193570D01*
X53781665Y-23241189D01*
X53400713Y-23241189D01*
X54924522Y-23717379D02*
X54353094Y-23717379D01*
X54638808Y-23717379D02*
X54638808Y-22717379D01*
X54543570Y-22860237D01*
X54448332Y-22955475D01*
X54353094Y-23003094D01*
X55876903Y-23717379D02*
X55305475Y-23717379D01*
X55591189Y-23717379D02*
X55591189Y-22717379D01*
X55495951Y-22860237D01*
X55400713Y-22955475D01*
X55305475Y-23003094D01*
X53977142Y-18302380D02*
X53643809Y-17826190D01*
X53405714Y-18302380D02*
X53405714Y-17302380D01*
X53786666Y-17302380D01*
X53881904Y-17350000D01*
X53929523Y-17397619D01*
X53977142Y-17492857D01*
X53977142Y-17635714D01*
X53929523Y-17730952D01*
X53881904Y-17778571D01*
X53786666Y-17826190D01*
X53405714Y-17826190D01*
X54929523Y-18302380D02*
X54358095Y-18302380D01*
X54643809Y-18302380D02*
X54643809Y-17302380D01*
X54548571Y-17445238D01*
X54453333Y-17540476D01*
X54358095Y-17588095D01*
X55310476Y-17397619D02*
X55358095Y-17350000D01*
X55453333Y-17302380D01*
X55691428Y-17302380D01*
X55786666Y-17350000D01*
X55834285Y-17397619D01*
X55881904Y-17492857D01*
X55881904Y-17588095D01*
X55834285Y-17730952D01*
X55262857Y-18302380D01*
X55881904Y-18302380D01*
M02*
