M48
; DRILL file {KiCad (5.1.4)-1} date 11/4/2021 12:06:12 PM
; FORMAT={2:4/ absolute / inch / suppress leading zeros}
; #@! TF.CreationDate,2021-11-04T12:06:12-05:00
; #@! TF.GenerationSoftware,Kicad,Pcbnew,(5.1.4)-1
FMAT,2
INCH,TZ
T1C0.0118
T2C0.0325
T3C0.0374
T4C0.0394
T5C0.1772
T6C0.1102
T7C0.1260
T8C0.9449
%
G90
G05
T1
X295Y-12563
X374Y-6161
X429Y-15193
X453Y-2913
X484Y-8902
X669Y-19224
X900Y-13950
X1213Y-14137
X1661Y-11272
X1900Y-12750
X2012Y-17535
X2075Y-12217
X2102Y-13748
X2126Y-12984
X2126Y-13402
X2146Y-15268
X2224Y-4028
X2244Y-9984
X2386Y-9047
X2409Y-21024
X2598Y-6020
X2862Y-10039
X2945Y-9386
X3126Y-13843
X3161Y-13500
X3185Y-8815
X3198Y-9792
X3224Y-12890
X3366Y-4370
X3374Y-8048
X3457Y-14186
X3587Y-16083
X3747Y-13766
X4024Y-10748
X4091Y-7343
X4106Y-9831
X4339Y-18240
X4555Y-15049
X4559Y-4748
X4723Y-19967
X4756Y-8157
X5154Y-19720
X5445Y-15049
X5448Y-13864
X5547Y-10685
X5619Y-13581
X5626Y-19409
X5760Y-9465
X5823Y-15077
X5890Y-7189
X5898Y-14620
X5902Y-7701
X5950Y-18000
X6004Y-4370
X6116Y-12884
X6123Y-14155
X6323Y-13522
X6405Y-19396
X6583Y-17874
X6612Y-13852
X6677Y-12689
X6838Y-20045
X6895Y-13769
X6976Y-14138
X7127Y-6281
X7146Y-11327
X7181Y-4394
X7233Y-16228
X7240Y-12299
X7248Y-13697
X7626Y-8048
X7626Y-9571
X7663Y-18319
X8043Y-11287
X8146Y-14583
X8169Y-13354
X8366Y-15854
X8410Y-17224
X8411Y-12230
X8469Y-10638
X8484Y-4370
X8539Y-11925
X8550Y-11550
X9039Y-17783
X9065Y-18571
X9165Y-15795
X9259Y-19732
X9299Y-16618
X9307Y-16323
X9311Y-18846
X9394Y-16031
X9461Y-7661
X9591Y-18528
X9630Y-6276
X9846Y-4724
X10154Y-6378
X10350Y-18713
X10695Y-18093
X10837Y-20274
X11122Y-4370
X11485Y-19846
X11563Y-7500
X11571Y-6327
X11761Y-19742
X12417Y-4701
X13602Y-4370
X14898Y-4748
X15306Y-18601
X16184Y-18589
X16240Y-4370
X16390Y-8961
X16890Y-17756
X16914Y-18431
X16945Y-9031
X17584Y-18250
X18063Y-16469
X18118Y-16118
X18165Y-10504
X18339Y-11114
X18376Y-15947
X18460Y-16530
X18553Y-8831
X18720Y-4370
X18786Y-20648
X18898Y-11051
X18938Y-19795
X18940Y-17470
X19037Y-18338
X19220Y-10713
X19281Y-16554
X19308Y-16982
X19378Y-15244
X19394Y-11161
X19492Y-6854
X19601Y-7270
X19628Y-9421
X19949Y-12232
X20058Y-17286
X20220Y-16382
X20345Y-16815
X20358Y-10417
X20449Y-7161
X20601Y-7545
X20602Y-8161
X20611Y-6695
X20728Y-5492
X20799Y-18370
X20933Y-7073
X20984Y-6646
X21020Y-17762
X21050Y-11000
X21075Y-17461
X21114Y-12110
X21300Y-12681
X21319Y-17627
X21358Y-4370
X21461Y-7205
X21528Y-16107
X21725Y-15624
X21849Y-14400
X21878Y-11890
X21915Y-16995
X21970Y-13036
X22020Y-19760
X22035Y-18287
X22079Y-10843
X22125Y-15379
X22295Y-16181
X22370Y-3358
X22622Y-366
X22926Y-16100
X22957Y-9740
X22998Y-9407
X23039Y-9078
X23138Y-21764
X23250Y-2400
X23286Y-19555
X23565Y-12117
X23575Y-16213
X23583Y-11421
X23874Y-17272
X23898Y-8272
X24028Y-9913
X24043Y-5071
X24100Y-13264
X24114Y-8504
X24146Y-16043
X24182Y-15630
X24183Y-15020
X24184Y-18539
X24185Y-18244
X24193Y-14343
X24240Y-12811
X24251Y-16331
X24441Y-8626
X24461Y-9878
X24760Y-6264
X24776Y-19512
X24933Y-10285
X25245Y-11490
X25400Y-12400
X25400Y-19400
X25429Y-12886
X25450Y-11800
X25496Y-10079
X25568Y-13173
X25600Y-17600
X25700Y-17150
X25755Y-16155
X25776Y-21331
X25780Y-327
X25800Y-16600
X25969Y-7984
X25972Y-9295
X26028Y-15881
X26106Y-9559
X26953Y-10378
X26969Y-11366
X27295Y-16598
X27339Y-18256
X27386Y-19587
X27516Y-9051
X27571Y-7106
X27583Y-21201
X28358Y-457
T2
X19750Y-11730
X19750Y-12730
X19750Y-13730
X19750Y-14730
X19750Y-15730
X19750Y-16730
X19750Y-17730
X19750Y-18730
T3
X28608Y-6921
X28608Y-7905
X28608Y-8889
X28608Y-9874
X28608Y-10858
X28608Y-11842
X28608Y-12826
X3129Y-18950
X4113Y-18950
X5097Y-18950
X6081Y-18950
X7066Y-18950
X8050Y-18950
X28608Y-15085
X28608Y-16070
X28608Y-17054
X28608Y-18038
X28608Y-19022
X28608Y-20007
X28608Y-20991
X12102Y-6024
X13087Y-6024
X14071Y-6024
X16472Y-6024
X17457Y-6024
X18441Y-6024
X1100Y-3800
X1100Y-4784
X1100Y-5769
X1100Y-6753
X1100Y-7737
X1100Y-8721
X1100Y-9706
X1100Y-10690
X1100Y-11674
X3497Y-6700
X4481Y-6700
X5466Y-6700
X6450Y-6700
X26658Y-6921
X26658Y-7905
X26658Y-8889
X26658Y-9874
X26658Y-10858
X26658Y-11842
X26658Y-12826
X12102Y-7697
X13087Y-7697
X14071Y-7697
X15055Y-7697
X16039Y-7697
X17024Y-7697
X18008Y-7697
X3147Y-17000
X4131Y-17000
X5116Y-17000
X6100Y-17000
X26658Y-15087
X26658Y-16072
X26658Y-17056
X26658Y-18040
X26658Y-19024
X26658Y-20009
X26658Y-20993
T4
X8717Y-6024
X9701Y-6024
X3287Y-20531
X3287Y-21531
X4287Y-20531
X4287Y-21531
X5287Y-20531
X5287Y-21531
X6287Y-20531
X6287Y-21531
X7287Y-20531
X7287Y-21531
X8287Y-20531
X8287Y-21531
X9287Y-20531
X9287Y-21531
X10287Y-20531
X10287Y-21531
X11287Y-20531
X11287Y-21531
X12287Y-20531
X12287Y-21531
X13287Y-20531
X13287Y-21531
X14287Y-20531
X14287Y-21531
X15287Y-20531
X15287Y-21531
X16287Y-20531
X16287Y-21531
X17287Y-20531
X17287Y-21531
X18287Y-20531
X18287Y-21531
X19287Y-20531
X19287Y-21531
X20287Y-20531
X20287Y-21531
X21287Y-20531
X21287Y-21531
X22287Y-20531
X22287Y-21531
T5
X27925Y-1693
X27925Y-4528
T6
X9961Y-9488
X9961Y-17362
X17835Y-9488
X17835Y-17362
T7
X1181Y-1181
X1181Y-20866
X24409Y-20866
X24409Y-1181
T8
X13898Y-13425
T0
M30
