G04 #@! TF.GenerationSoftware,KiCad,Pcbnew,(6.0.1)*
G04 #@! TF.CreationDate,2022-11-23T13:30:13-08:00*
G04 #@! TF.ProjectId,Prime Mover,5072696d-6520-44d6-9f76-65722e6b6963,rev?*
G04 #@! TF.SameCoordinates,Original*
G04 #@! TF.FileFunction,Soldermask,Top*
G04 #@! TF.FilePolarity,Negative*
%FSLAX46Y46*%
G04 Gerber Fmt 4.6, Leading zero omitted, Abs format (unit mm)*
G04 Created by KiCad (PCBNEW (6.0.1)) date 2022-11-23 13:30:13*
%MOMM*%
%LPD*%
G01*
G04 APERTURE LIST*
G04 Aperture macros list*
%AMRoundRect*
0 Rectangle with rounded corners*
0 $1 Rounding radius*
0 $2 $3 $4 $5 $6 $7 $8 $9 X,Y pos of 4 corners*
0 Add a 4 corners polygon primitive as box body*
4,1,4,$2,$3,$4,$5,$6,$7,$8,$9,$2,$3,0*
0 Add four circle primitives for the rounded corners*
1,1,$1+$1,$2,$3*
1,1,$1+$1,$4,$5*
1,1,$1+$1,$6,$7*
1,1,$1+$1,$8,$9*
0 Add four rect primitives between the rounded corners*
20,1,$1+$1,$2,$3,$4,$5,0*
20,1,$1+$1,$4,$5,$6,$7,0*
20,1,$1+$1,$6,$7,$8,$9,0*
20,1,$1+$1,$8,$9,$2,$3,0*%
%AMFreePoly0*
4,1,37,0.536062,0.786062,0.551000,0.750000,0.551000,-0.750000,0.536062,-0.786062,0.500000,-0.801000,0.000000,-0.801000,-0.012525,-0.795812,-0.080875,-0.794559,-0.095149,-0.792248,-0.230464,-0.749973,-0.243516,-0.743747,-0.361526,-0.665192,-0.372306,-0.655554,-0.463526,-0.547035,-0.471167,-0.534759,-0.528262,-0.405000,-0.532150,-0.391073,-0.549733,-0.256613,-0.548336,-0.256430,-0.551000,-0.250000,
-0.551000,0.250000,-0.550512,0.251179,-0.550356,0.263956,-0.528545,0.404033,-0.524317,0.417860,-0.464069,0.546185,-0.456130,0.558271,-0.362286,0.664529,-0.351274,0.673901,-0.231379,0.749549,-0.218180,0.755454,-0.081873,0.794411,-0.067546,0.796373,-0.011990,0.796033,0.000000,0.801000,0.500000,0.801000,0.536062,0.786062,0.536062,0.786062,$1*%
%AMFreePoly1*
4,1,37,0.012349,0.795885,0.074216,0.795507,0.088518,0.793370,0.224339,0.752751,0.237465,0.746685,0.356427,0.669578,0.367324,0.660073,0.459862,0.552676,0.467652,0.540494,0.526329,0.411442,0.530388,0.397563,0.550485,0.257230,0.551000,0.250000,0.551000,-0.250000,0.550996,-0.250622,0.550847,-0.262838,0.550144,-0.270677,0.526624,-0.410478,0.522228,-0.424254,0.460416,-0.551833,
0.452330,-0.563821,0.357195,-0.668925,0.346069,-0.678161,0.225259,-0.752338,0.211989,-0.758081,0.075216,-0.795370,0.060866,-0.797157,0.011464,-0.796251,0.000000,-0.801000,-0.500000,-0.801000,-0.536062,-0.786062,-0.551000,-0.750000,-0.551000,0.750000,-0.536062,0.786062,-0.500000,0.801000,0.000000,0.801000,0.012349,0.795885,0.012349,0.795885,$1*%
G04 Aperture macros list end*
%ADD10FreePoly0,0.000000*%
%ADD11FreePoly1,0.000000*%
%ADD12RoundRect,0.301000X-0.250000X-0.475000X0.250000X-0.475000X0.250000X0.475000X-0.250000X0.475000X0*%
%ADD13RoundRect,0.301000X-0.350000X-0.625000X0.350000X-0.625000X0.350000X0.625000X-0.350000X0.625000X0*%
%ADD14O,1.302000X1.852000*%
%ADD15RoundRect,0.301000X1.250000X0.550000X-1.250000X0.550000X-1.250000X-0.550000X1.250000X-0.550000X0*%
%ADD16RoundRect,0.051000X0.225000X0.737500X-0.225000X0.737500X-0.225000X-0.737500X0.225000X-0.737500X0*%
%ADD17RoundRect,0.301000X0.550000X-1.250000X0.550000X1.250000X-0.550000X1.250000X-0.550000X-1.250000X0*%
%ADD18RoundRect,0.201000X0.150000X-0.825000X0.150000X0.825000X-0.150000X0.825000X-0.150000X-0.825000X0*%
%ADD19RoundRect,0.301000X-0.625000X0.350000X-0.625000X-0.350000X0.625000X-0.350000X0.625000X0.350000X0*%
%ADD20O,1.852000X1.302000*%
%ADD21C,5.702000*%
%ADD22RoundRect,0.301000X0.475000X-0.250000X0.475000X0.250000X-0.475000X0.250000X-0.475000X-0.250000X0*%
%ADD23RoundRect,0.301000X0.450000X-0.262500X0.450000X0.262500X-0.450000X0.262500X-0.450000X-0.262500X0*%
%ADD24RoundRect,0.294750X0.456250X-0.243750X0.456250X0.243750X-0.456250X0.243750X-0.456250X-0.243750X0*%
%ADD25RoundRect,0.301000X-0.262500X-0.450000X0.262500X-0.450000X0.262500X0.450000X-0.262500X0.450000X0*%
%ADD26RoundRect,0.051000X-1.600000X1.325000X-1.600000X-1.325000X1.600000X-1.325000X1.600000X1.325000X0*%
%ADD27C,2.102000*%
%ADD28RoundRect,0.301000X-0.450000X0.262500X-0.450000X-0.262500X0.450000X-0.262500X0.450000X0.262500X0*%
%ADD29RoundRect,0.051000X0.437500X-0.150000X0.437500X0.150000X-0.437500X0.150000X-0.437500X-0.150000X0*%
%ADD30RoundRect,0.051000X0.762500X-0.125000X0.762500X0.125000X-0.762500X0.125000X-0.762500X-0.125000X0*%
%ADD31RoundRect,0.051000X0.762500X-0.475000X0.762500X0.475000X-0.762500X0.475000X-0.762500X-0.475000X0*%
%ADD32RoundRect,0.051000X-0.225000X-0.300000X0.225000X-0.300000X0.225000X0.300000X-0.225000X0.300000X0*%
%ADD33RoundRect,0.051000X-0.150000X-0.825000X0.150000X-0.825000X0.150000X0.825000X-0.150000X0.825000X0*%
%ADD34RoundRect,0.051000X-0.225000X-0.437500X0.225000X-0.437500X0.225000X0.437500X-0.225000X0.437500X0*%
%ADD35RoundRect,0.051000X-0.150000X-0.437500X0.150000X-0.437500X0.150000X0.437500X-0.150000X0.437500X0*%
%ADD36RoundRect,0.051000X0.250000X-0.175000X0.250000X0.175000X-0.250000X0.175000X-0.250000X-0.175000X0*%
%ADD37RoundRect,0.051000X0.300000X-0.125000X0.300000X0.125000X-0.300000X0.125000X-0.300000X-0.125000X0*%
%ADD38RoundRect,0.051000X0.500000X-0.500000X0.500000X0.500000X-0.500000X0.500000X-0.500000X-0.500000X0*%
%ADD39RoundRect,1.551000X-1.500000X1.500000X-1.500000X-1.500000X1.500000X-1.500000X1.500000X1.500000X0*%
%ADD40C,6.102000*%
%ADD41RoundRect,0.051000X0.850000X-0.850000X0.850000X0.850000X-0.850000X0.850000X-0.850000X-0.850000X0*%
%ADD42O,1.802000X1.802000*%
%ADD43C,1.626000*%
G04 APERTURE END LIST*
D10*
X9570000Y26710000D03*
D11*
X10870000Y26710000D03*
D12*
X13520000Y18140000D03*
X15420000Y18140000D03*
D13*
X22110000Y13970000D03*
D14*
X24110000Y13970000D03*
X26110000Y13970000D03*
X28110000Y13970000D03*
X30110000Y13970000D03*
X32110000Y13970000D03*
D15*
X4840000Y24930000D03*
X440000Y24930000D03*
D16*
X-1375000Y-17478000D03*
X-725000Y-17478000D03*
X-75000Y-17478000D03*
X575000Y-17478000D03*
X1225000Y-17478000D03*
X1875000Y-17478000D03*
X2525000Y-17478000D03*
X3175000Y-17478000D03*
X3825000Y-17478000D03*
X4475000Y-17478000D03*
X4475000Y-11602000D03*
X3825000Y-11602000D03*
X3175000Y-11602000D03*
X2525000Y-11602000D03*
X1875000Y-11602000D03*
X1225000Y-11602000D03*
X575000Y-11602000D03*
X-75000Y-11602000D03*
X-725000Y-11602000D03*
X-1375000Y-11602000D03*
D17*
X16260000Y10950000D03*
X16260000Y15350000D03*
X2980000Y10130000D03*
X2980000Y14530000D03*
D18*
X-21615000Y-3445000D03*
X-20345000Y-3445000D03*
X-19075000Y-3445000D03*
X-17805000Y-3445000D03*
X-16535000Y-3445000D03*
X-15265000Y-3445000D03*
X-13995000Y-3445000D03*
X-12725000Y-3445000D03*
X-12725000Y1505000D03*
X-13995000Y1505000D03*
X-15265000Y1505000D03*
X-16535000Y1505000D03*
X-17805000Y1505000D03*
X-19075000Y1505000D03*
X-20345000Y1505000D03*
X-21615000Y1505000D03*
D19*
X-13940000Y18930000D03*
D20*
X-13940000Y16930000D03*
X-13940000Y14930000D03*
X-13940000Y12930000D03*
X-13940000Y10930000D03*
X-13940000Y8930000D03*
X-13940000Y6930000D03*
D13*
X-19970000Y-18170000D03*
D14*
X-17970000Y-18170000D03*
X-15970000Y-18170000D03*
X-13970000Y-18170000D03*
X-11970000Y-18170000D03*
X-9970000Y-18170000D03*
D19*
X-19230000Y18930000D03*
D20*
X-19230000Y16930000D03*
X-19230000Y14930000D03*
X-19230000Y12930000D03*
X-19230000Y10930000D03*
X-19230000Y8930000D03*
X-19230000Y6930000D03*
D21*
X-19000000Y24500000D03*
D13*
X22110000Y19550000D03*
D14*
X24110000Y19550000D03*
X26110000Y19550000D03*
X28110000Y19550000D03*
X30110000Y19550000D03*
X32110000Y19550000D03*
X34110000Y19550000D03*
D18*
X-21605000Y-11835000D03*
X-20335000Y-11835000D03*
X-19065000Y-11835000D03*
X-17795000Y-11835000D03*
X-16525000Y-11835000D03*
X-15255000Y-11835000D03*
X-13985000Y-11835000D03*
X-12715000Y-11835000D03*
X-12715000Y-6885000D03*
X-13985000Y-6885000D03*
X-15255000Y-6885000D03*
X-16525000Y-6885000D03*
X-17795000Y-6885000D03*
X-19065000Y-6885000D03*
X-20335000Y-6885000D03*
X-21605000Y-6885000D03*
D22*
X5550000Y19140000D03*
X5550000Y21040000D03*
D21*
X39000000Y-24500000D03*
D23*
X46320000Y-26412500D03*
X46320000Y-24587500D03*
D24*
X46320000Y-22947500D03*
X46320000Y-21072500D03*
D25*
X7587500Y24450000D03*
X9412500Y24450000D03*
D26*
X9630000Y15650000D03*
X9630000Y10050000D03*
D13*
X26720000Y25150000D03*
D14*
X28720000Y25150000D03*
X30720000Y25150000D03*
X32720000Y25150000D03*
D25*
X11037500Y24440000D03*
X12862500Y24440000D03*
D22*
X3510000Y19140000D03*
X3510000Y21040000D03*
D21*
X39000000Y24500000D03*
D19*
X-8650000Y22930000D03*
D20*
X-8650000Y20930000D03*
X-8650000Y18930000D03*
X-8650000Y16930000D03*
X-8650000Y14930000D03*
X-8650000Y12930000D03*
X-8650000Y10930000D03*
X-8650000Y8930000D03*
X-8650000Y6930000D03*
D23*
X50470000Y-26422500D03*
X50470000Y-24597500D03*
D27*
X50500000Y-14850000D03*
X50500000Y-12310000D03*
X50500000Y-9770000D03*
X50500000Y-7230000D03*
X50500000Y-4690000D03*
X50500000Y-2150000D03*
X-7500000Y-14850000D03*
X-7500000Y-12310000D03*
X-7500000Y-9770000D03*
X-7500000Y-7230000D03*
X-7500000Y-4690000D03*
X-7500000Y-2150000D03*
X45700000Y-1980000D03*
X45700000Y560000D03*
X45700000Y3100000D03*
X43160000Y-1980000D03*
X43160000Y560000D03*
X43160000Y3100000D03*
X40620000Y-1980000D03*
X40620000Y560000D03*
X40620000Y3100000D03*
X38080000Y-1980000D03*
X38080000Y560000D03*
X38080000Y3100000D03*
X32840000Y-1980000D03*
X32840000Y560000D03*
X32840000Y3100000D03*
X30300000Y-1980000D03*
X30300000Y560000D03*
X30300000Y3100000D03*
X27760000Y-1980000D03*
X27760000Y560000D03*
X27760000Y3100000D03*
X25220000Y-1980000D03*
X25220000Y560000D03*
X25220000Y3100000D03*
X17700000Y-1980000D03*
X17700000Y560000D03*
X17700000Y3100000D03*
X15160000Y-1980000D03*
X15160000Y560000D03*
X15160000Y3100000D03*
X12620000Y-1980000D03*
X12620000Y560000D03*
X12620000Y3100000D03*
X10080000Y-1980000D03*
X10080000Y560000D03*
X10080000Y3100000D03*
X4740000Y-1980000D03*
X4740000Y560000D03*
X4740000Y3100000D03*
X2200000Y-1980000D03*
X2200000Y560000D03*
X2200000Y3100000D03*
X-340000Y-1980000D03*
X-340000Y560000D03*
X-340000Y3100000D03*
X-2880000Y-1980000D03*
X-2880000Y560000D03*
X-2880000Y3100000D03*
D25*
X-2992500Y-8570000D03*
X-1167500Y-8570000D03*
D13*
X22130000Y8390000D03*
D14*
X24130000Y8390000D03*
X26130000Y8390000D03*
X28130000Y8390000D03*
X30130000Y8390000D03*
X32130000Y8390000D03*
D28*
X45060000Y8295000D03*
X45060000Y6470000D03*
D24*
X50470000Y-22947500D03*
X50470000Y-21072500D03*
D25*
X-2982500Y-6570000D03*
X-1157500Y-6570000D03*
D21*
X-19000000Y-24500000D03*
D23*
X48400000Y-26412500D03*
X48400000Y-24587500D03*
D13*
X37110000Y13970000D03*
D14*
X39110000Y13970000D03*
X41110000Y13970000D03*
D29*
X8017000Y21170000D03*
X8017000Y20670000D03*
D30*
X8342000Y20170000D03*
D31*
X8343000Y19120000D03*
D32*
X8305000Y18345000D03*
D33*
X9630000Y18870000D03*
D32*
X10955000Y18345000D03*
D31*
X10917000Y19120000D03*
D30*
X10918000Y20170000D03*
D29*
X11242000Y20670000D03*
X11242000Y21170000D03*
D34*
X10955000Y21957000D03*
D35*
X10380000Y21958000D03*
X9880000Y21958000D03*
X9380000Y21958000D03*
X8880000Y21958000D03*
D34*
X8305000Y21958000D03*
D36*
X7830000Y21695000D03*
D37*
X9630000Y19820000D03*
D36*
X11430000Y21695000D03*
D24*
X48400000Y-22947500D03*
X48400000Y-21072500D03*
D12*
X13520000Y20180000D03*
X15420000Y20180000D03*
D23*
X49000000Y6457500D03*
X49000000Y8282500D03*
D22*
X50990000Y6440000D03*
X50990000Y8340000D03*
D13*
X37110000Y8390000D03*
D14*
X39110000Y8390000D03*
X41110000Y8390000D03*
D38*
X47030000Y6450000D03*
X47030000Y8950000D03*
D12*
X3180000Y17330000D03*
X5080000Y17330000D03*
X13520000Y22200000D03*
X15420000Y22200000D03*
D39*
X47500000Y23600000D03*
D40*
X47500000Y16160000D03*
D41*
X34080000Y-23350000D03*
D42*
X34080000Y-25890000D03*
X31540000Y-23350000D03*
X31540000Y-25890000D03*
X29000000Y-23350000D03*
X29000000Y-25890000D03*
X26460000Y-23350000D03*
X26460000Y-25890000D03*
X23920000Y-23350000D03*
X23920000Y-25890000D03*
X21380000Y-23350000D03*
X21380000Y-25890000D03*
X18840000Y-23350000D03*
X18840000Y-25890000D03*
X16300000Y-23350000D03*
X16300000Y-25890000D03*
X13760000Y-23350000D03*
X13760000Y-25890000D03*
X11220000Y-23350000D03*
X11220000Y-25890000D03*
X8680000Y-23350000D03*
X8680000Y-25890000D03*
X6140000Y-23350000D03*
X6140000Y-25890000D03*
X3600000Y-23350000D03*
X3600000Y-25890000D03*
X1060000Y-23350000D03*
X1060000Y-25890000D03*
X-1480000Y-23350000D03*
X-1480000Y-25890000D03*
X-4020000Y-23350000D03*
X-4020000Y-25890000D03*
X-6560000Y-23350000D03*
X-6560000Y-25890000D03*
X-9100000Y-23350000D03*
X-9100000Y-25890000D03*
X-11640000Y-23350000D03*
X-11640000Y-25890000D03*
X-14180000Y-23350000D03*
X-14180000Y-25890000D03*
D43*
X18225000Y7000000D03*
X15685000Y7000000D03*
X13145000Y7000000D03*
X10605000Y7000000D03*
X8065000Y7000000D03*
X5525000Y7000000D03*
X2985000Y7000000D03*
X445000Y7000000D03*
G36*
X-335367Y-16704017D02*
G01*
X-334803Y-16705936D01*
X-335084Y-16706575D01*
X-345233Y-16721763D01*
X-349000Y-16740699D01*
X-349000Y-18215301D01*
X-345233Y-18234238D01*
X-335186Y-18249273D01*
X-335055Y-18251268D01*
X-336718Y-18252380D01*
X-337447Y-18252293D01*
X-397788Y-18233398D01*
X-462690Y-18252455D01*
X-464633Y-18251983D01*
X-465197Y-18250064D01*
X-464916Y-18249425D01*
X-454767Y-18234237D01*
X-451000Y-18215301D01*
X-451000Y-16740699D01*
X-454767Y-16721762D01*
X-464814Y-16706727D01*
X-464945Y-16704732D01*
X-463282Y-16703620D01*
X-462553Y-16703707D01*
X-402212Y-16722602D01*
X-337310Y-16703545D01*
X-335367Y-16704017D01*
G37*
G36*
X-985367Y-16704017D02*
G01*
X-984803Y-16705936D01*
X-985084Y-16706575D01*
X-995233Y-16721763D01*
X-999000Y-16740699D01*
X-999000Y-18215301D01*
X-995233Y-18234238D01*
X-985186Y-18249273D01*
X-985055Y-18251268D01*
X-986718Y-18252380D01*
X-987447Y-18252293D01*
X-1047788Y-18233398D01*
X-1112690Y-18252455D01*
X-1114633Y-18251983D01*
X-1115197Y-18250064D01*
X-1114916Y-18249425D01*
X-1104767Y-18234237D01*
X-1101000Y-18215301D01*
X-1101000Y-16740699D01*
X-1104767Y-16721762D01*
X-1114814Y-16706727D01*
X-1114945Y-16704732D01*
X-1113282Y-16703620D01*
X-1112553Y-16703707D01*
X-1052212Y-16722602D01*
X-987310Y-16703545D01*
X-985367Y-16704017D01*
G37*
G36*
X2914633Y-16704017D02*
G01*
X2915197Y-16705936D01*
X2914916Y-16706575D01*
X2904767Y-16721763D01*
X2901000Y-16740699D01*
X2901000Y-18215301D01*
X2904767Y-18234238D01*
X2914814Y-18249273D01*
X2914945Y-18251268D01*
X2913282Y-18252380D01*
X2912553Y-18252293D01*
X2852212Y-18233398D01*
X2787310Y-18252455D01*
X2785367Y-18251983D01*
X2784803Y-18250064D01*
X2785084Y-18249425D01*
X2795233Y-18234237D01*
X2799000Y-18215301D01*
X2799000Y-16740699D01*
X2795233Y-16721762D01*
X2785186Y-16706727D01*
X2785055Y-16704732D01*
X2786718Y-16703620D01*
X2787447Y-16703707D01*
X2847788Y-16722602D01*
X2912690Y-16703545D01*
X2914633Y-16704017D01*
G37*
G36*
X314633Y-16704017D02*
G01*
X315197Y-16705936D01*
X314916Y-16706575D01*
X304767Y-16721763D01*
X301000Y-16740699D01*
X301000Y-18215301D01*
X304767Y-18234238D01*
X314814Y-18249273D01*
X314945Y-18251268D01*
X313282Y-18252380D01*
X312553Y-18252293D01*
X252212Y-18233398D01*
X187310Y-18252455D01*
X185367Y-18251983D01*
X184803Y-18250064D01*
X185084Y-18249425D01*
X195233Y-18234237D01*
X199000Y-18215301D01*
X199000Y-16740699D01*
X195233Y-16721762D01*
X185186Y-16706727D01*
X185055Y-16704732D01*
X186718Y-16703620D01*
X187447Y-16703707D01*
X247788Y-16722602D01*
X312690Y-16703545D01*
X314633Y-16704017D01*
G37*
G36*
X964633Y-16704017D02*
G01*
X965197Y-16705936D01*
X964916Y-16706575D01*
X954767Y-16721763D01*
X951000Y-16740699D01*
X951000Y-18215301D01*
X954767Y-18234238D01*
X964814Y-18249273D01*
X964945Y-18251268D01*
X963282Y-18252380D01*
X962553Y-18252293D01*
X902212Y-18233398D01*
X837310Y-18252455D01*
X835367Y-18251983D01*
X834803Y-18250064D01*
X835084Y-18249425D01*
X845233Y-18234237D01*
X849000Y-18215301D01*
X849000Y-16740699D01*
X845233Y-16721762D01*
X835186Y-16706727D01*
X835055Y-16704732D01*
X836718Y-16703620D01*
X837447Y-16703707D01*
X897788Y-16722602D01*
X962690Y-16703545D01*
X964633Y-16704017D01*
G37*
G36*
X1614633Y-16704017D02*
G01*
X1615197Y-16705936D01*
X1614916Y-16706575D01*
X1604767Y-16721763D01*
X1601000Y-16740699D01*
X1601000Y-18215301D01*
X1604767Y-18234238D01*
X1614814Y-18249273D01*
X1614945Y-18251268D01*
X1613282Y-18252380D01*
X1612553Y-18252293D01*
X1552212Y-18233398D01*
X1487310Y-18252455D01*
X1485367Y-18251983D01*
X1484803Y-18250064D01*
X1485084Y-18249425D01*
X1495233Y-18234237D01*
X1499000Y-18215301D01*
X1499000Y-16740699D01*
X1495233Y-16721762D01*
X1485186Y-16706727D01*
X1485055Y-16704732D01*
X1486718Y-16703620D01*
X1487447Y-16703707D01*
X1547788Y-16722602D01*
X1612690Y-16703545D01*
X1614633Y-16704017D01*
G37*
G36*
X3564633Y-16704017D02*
G01*
X3565197Y-16705936D01*
X3564916Y-16706575D01*
X3554767Y-16721763D01*
X3551000Y-16740699D01*
X3551000Y-18215301D01*
X3554767Y-18234238D01*
X3564814Y-18249273D01*
X3564945Y-18251268D01*
X3563282Y-18252380D01*
X3562553Y-18252293D01*
X3502212Y-18233398D01*
X3437310Y-18252455D01*
X3435367Y-18251983D01*
X3434803Y-18250064D01*
X3435084Y-18249425D01*
X3445233Y-18234237D01*
X3449000Y-18215301D01*
X3449000Y-16740699D01*
X3445233Y-16721762D01*
X3435186Y-16706727D01*
X3435055Y-16704732D01*
X3436718Y-16703620D01*
X3437447Y-16703707D01*
X3497788Y-16722602D01*
X3562690Y-16703545D01*
X3564633Y-16704017D01*
G37*
G36*
X2264633Y-16704017D02*
G01*
X2265197Y-16705936D01*
X2264916Y-16706575D01*
X2254767Y-16721763D01*
X2251000Y-16740699D01*
X2251000Y-18215301D01*
X2254767Y-18234238D01*
X2264814Y-18249273D01*
X2264945Y-18251268D01*
X2263282Y-18252380D01*
X2262553Y-18252293D01*
X2202212Y-18233398D01*
X2137310Y-18252455D01*
X2135367Y-18251983D01*
X2134803Y-18250064D01*
X2135084Y-18249425D01*
X2145233Y-18234237D01*
X2149000Y-18215301D01*
X2149000Y-16740699D01*
X2145233Y-16721762D01*
X2135186Y-16706727D01*
X2135055Y-16704732D01*
X2136718Y-16703620D01*
X2137447Y-16703707D01*
X2197788Y-16722602D01*
X2262690Y-16703545D01*
X2264633Y-16704017D01*
G37*
G36*
X4214633Y-16704017D02*
G01*
X4215197Y-16705936D01*
X4214916Y-16706575D01*
X4204767Y-16721763D01*
X4201000Y-16740699D01*
X4201000Y-18215301D01*
X4204767Y-18234238D01*
X4214814Y-18249273D01*
X4214945Y-18251268D01*
X4213282Y-18252380D01*
X4212553Y-18252293D01*
X4152212Y-18233398D01*
X4087310Y-18252455D01*
X4085367Y-18251983D01*
X4084803Y-18250064D01*
X4085084Y-18249425D01*
X4095233Y-18234237D01*
X4099000Y-18215301D01*
X4099000Y-16740699D01*
X4095233Y-16721762D01*
X4085186Y-16706727D01*
X4085055Y-16704732D01*
X4086718Y-16703620D01*
X4087447Y-16703707D01*
X4147788Y-16722602D01*
X4212690Y-16703545D01*
X4214633Y-16704017D01*
G37*
G36*
X-335367Y-10828017D02*
G01*
X-334803Y-10829936D01*
X-335084Y-10830575D01*
X-345233Y-10845763D01*
X-349000Y-10864699D01*
X-349000Y-12339301D01*
X-345233Y-12358238D01*
X-335186Y-12373273D01*
X-335055Y-12375268D01*
X-336718Y-12376380D01*
X-337447Y-12376293D01*
X-397788Y-12357398D01*
X-462690Y-12376455D01*
X-464633Y-12375983D01*
X-465197Y-12374064D01*
X-464916Y-12373425D01*
X-454767Y-12358237D01*
X-451000Y-12339301D01*
X-451000Y-10864699D01*
X-454767Y-10845762D01*
X-464814Y-10830727D01*
X-464945Y-10828732D01*
X-463282Y-10827620D01*
X-462553Y-10827707D01*
X-402212Y-10846602D01*
X-337310Y-10827545D01*
X-335367Y-10828017D01*
G37*
G36*
X4214633Y-10828017D02*
G01*
X4215197Y-10829936D01*
X4214916Y-10830575D01*
X4204767Y-10845763D01*
X4201000Y-10864699D01*
X4201000Y-12339301D01*
X4204767Y-12358238D01*
X4214814Y-12373273D01*
X4214945Y-12375268D01*
X4213282Y-12376380D01*
X4212553Y-12376293D01*
X4152212Y-12357398D01*
X4087310Y-12376455D01*
X4085367Y-12375983D01*
X4084803Y-12374064D01*
X4085084Y-12373425D01*
X4095233Y-12358237D01*
X4099000Y-12339301D01*
X4099000Y-10864699D01*
X4095233Y-10845762D01*
X4085186Y-10830727D01*
X4085055Y-10828732D01*
X4086718Y-10827620D01*
X4087447Y-10827707D01*
X4147788Y-10846602D01*
X4212690Y-10827545D01*
X4214633Y-10828017D01*
G37*
G36*
X964633Y-10828017D02*
G01*
X965197Y-10829936D01*
X964916Y-10830575D01*
X954767Y-10845763D01*
X951000Y-10864699D01*
X951000Y-12339301D01*
X954767Y-12358238D01*
X964814Y-12373273D01*
X964945Y-12375268D01*
X963282Y-12376380D01*
X962553Y-12376293D01*
X902212Y-12357398D01*
X837310Y-12376455D01*
X835367Y-12375983D01*
X834803Y-12374064D01*
X835084Y-12373425D01*
X845233Y-12358237D01*
X849000Y-12339301D01*
X849000Y-10864699D01*
X845233Y-10845762D01*
X835186Y-10830727D01*
X835055Y-10828732D01*
X836718Y-10827620D01*
X837447Y-10827707D01*
X897788Y-10846602D01*
X962690Y-10827545D01*
X964633Y-10828017D01*
G37*
G36*
X314633Y-10828017D02*
G01*
X315197Y-10829936D01*
X314916Y-10830575D01*
X304767Y-10845763D01*
X301000Y-10864699D01*
X301000Y-12339301D01*
X304767Y-12358238D01*
X314814Y-12373273D01*
X314945Y-12375268D01*
X313282Y-12376380D01*
X312553Y-12376293D01*
X252212Y-12357398D01*
X187310Y-12376455D01*
X185367Y-12375983D01*
X184803Y-12374064D01*
X185084Y-12373425D01*
X195233Y-12358237D01*
X199000Y-12339301D01*
X199000Y-10864699D01*
X195233Y-10845762D01*
X185186Y-10830727D01*
X185055Y-10828732D01*
X186718Y-10827620D01*
X187447Y-10827707D01*
X247788Y-10846602D01*
X312690Y-10827545D01*
X314633Y-10828017D01*
G37*
G36*
X2914633Y-10828017D02*
G01*
X2915197Y-10829936D01*
X2914916Y-10830575D01*
X2904767Y-10845763D01*
X2901000Y-10864699D01*
X2901000Y-12339301D01*
X2904767Y-12358238D01*
X2914814Y-12373273D01*
X2914945Y-12375268D01*
X2913282Y-12376380D01*
X2912553Y-12376293D01*
X2852212Y-12357398D01*
X2787310Y-12376455D01*
X2785367Y-12375983D01*
X2784803Y-12374064D01*
X2785084Y-12373425D01*
X2795233Y-12358237D01*
X2799000Y-12339301D01*
X2799000Y-10864699D01*
X2795233Y-10845762D01*
X2785186Y-10830727D01*
X2785055Y-10828732D01*
X2786718Y-10827620D01*
X2787447Y-10827707D01*
X2847788Y-10846602D01*
X2912690Y-10827545D01*
X2914633Y-10828017D01*
G37*
G36*
X-985367Y-10828017D02*
G01*
X-984803Y-10829936D01*
X-985084Y-10830575D01*
X-995233Y-10845763D01*
X-999000Y-10864699D01*
X-999000Y-12339301D01*
X-995233Y-12358238D01*
X-985186Y-12373273D01*
X-985055Y-12375268D01*
X-986718Y-12376380D01*
X-987447Y-12376293D01*
X-1047788Y-12357398D01*
X-1112690Y-12376455D01*
X-1114633Y-12375983D01*
X-1115197Y-12374064D01*
X-1114916Y-12373425D01*
X-1104767Y-12358237D01*
X-1101000Y-12339301D01*
X-1101000Y-10864699D01*
X-1104767Y-10845762D01*
X-1114814Y-10830727D01*
X-1114945Y-10828732D01*
X-1113282Y-10827620D01*
X-1112553Y-10827707D01*
X-1052212Y-10846602D01*
X-987310Y-10827545D01*
X-985367Y-10828017D01*
G37*
G36*
X3564633Y-10828017D02*
G01*
X3565197Y-10829936D01*
X3564916Y-10830575D01*
X3554767Y-10845763D01*
X3551000Y-10864699D01*
X3551000Y-12339301D01*
X3554767Y-12358238D01*
X3564814Y-12373273D01*
X3564945Y-12375268D01*
X3563282Y-12376380D01*
X3562553Y-12376293D01*
X3502212Y-12357398D01*
X3437310Y-12376455D01*
X3435367Y-12375983D01*
X3434803Y-12374064D01*
X3435084Y-12373425D01*
X3445233Y-12358237D01*
X3449000Y-12339301D01*
X3449000Y-10864699D01*
X3445233Y-10845762D01*
X3435186Y-10830727D01*
X3435055Y-10828732D01*
X3436718Y-10827620D01*
X3437447Y-10827707D01*
X3497788Y-10846602D01*
X3562690Y-10827545D01*
X3564633Y-10828017D01*
G37*
G36*
X1614633Y-10828017D02*
G01*
X1615197Y-10829936D01*
X1614916Y-10830575D01*
X1604767Y-10845763D01*
X1601000Y-10864699D01*
X1601000Y-12339301D01*
X1604767Y-12358238D01*
X1614814Y-12373273D01*
X1614945Y-12375268D01*
X1613282Y-12376380D01*
X1612553Y-12376293D01*
X1552212Y-12357398D01*
X1487310Y-12376455D01*
X1485367Y-12375983D01*
X1484803Y-12374064D01*
X1485084Y-12373425D01*
X1495233Y-12358237D01*
X1499000Y-12339301D01*
X1499000Y-10864699D01*
X1495233Y-10845762D01*
X1485186Y-10830727D01*
X1485055Y-10828732D01*
X1486718Y-10827620D01*
X1487447Y-10827707D01*
X1547788Y-10846602D01*
X1612690Y-10827545D01*
X1614633Y-10828017D01*
G37*
G36*
X2264633Y-10828017D02*
G01*
X2265197Y-10829936D01*
X2264916Y-10830575D01*
X2254767Y-10845763D01*
X2251000Y-10864699D01*
X2251000Y-12339301D01*
X2254767Y-12358238D01*
X2264814Y-12373273D01*
X2264945Y-12375268D01*
X2263282Y-12376380D01*
X2262553Y-12376293D01*
X2202212Y-12357398D01*
X2137310Y-12376455D01*
X2135367Y-12375983D01*
X2134803Y-12374064D01*
X2135084Y-12373425D01*
X2145233Y-12358237D01*
X2149000Y-12339301D01*
X2149000Y-10864699D01*
X2145233Y-10845762D01*
X2135186Y-10830727D01*
X2135055Y-10828732D01*
X2136718Y-10827620D01*
X2137447Y-10827707D01*
X2197788Y-10846602D01*
X2262690Y-10827545D01*
X2264633Y-10828017D01*
G37*
G36*
X10762032Y20496916D02*
G01*
X10762501Y20496422D01*
X10769880Y20485380D01*
X10785762Y20474767D01*
X10804699Y20471000D01*
X11679301Y20471000D01*
X11698238Y20474767D01*
X11709233Y20482114D01*
X11711229Y20482245D01*
X11712340Y20480582D01*
X11712007Y20479340D01*
X11710326Y20476823D01*
X11689546Y20410459D01*
X11710335Y20339659D01*
X11713007Y20335660D01*
X11713138Y20333664D01*
X11711475Y20332553D01*
X11710233Y20332886D01*
X11699238Y20340233D01*
X11680301Y20344000D01*
X10638251Y20344000D01*
X10636519Y20345000D01*
X10636519Y20347000D01*
X10637688Y20347919D01*
X10704700Y20367595D01*
X10750035Y20419916D01*
X10758851Y20495543D01*
X10760045Y20497147D01*
X10762032Y20496916D01*
G37*
G36*
X8499956Y20496195D02*
G01*
X8500154Y20495489D01*
X8506372Y20425996D01*
X8548842Y20371325D01*
X8621367Y20347903D01*
X8622708Y20346419D01*
X8622093Y20344516D01*
X8620752Y20344000D01*
X7579699Y20344000D01*
X7560762Y20340233D01*
X7549767Y20332886D01*
X7547771Y20332755D01*
X7546660Y20334418D01*
X7546993Y20335660D01*
X7549174Y20338925D01*
X7569954Y20405289D01*
X7549165Y20476089D01*
X7546993Y20479340D01*
X7546862Y20481336D01*
X7548525Y20482447D01*
X7549767Y20482114D01*
X7560762Y20474767D01*
X7579699Y20471000D01*
X8454301Y20471000D01*
X8473238Y20474767D01*
X8489120Y20485380D01*
X8496499Y20496422D01*
X8498293Y20497307D01*
X8499956Y20496195D01*
G37*
G36*
X7545575Y20984916D02*
G01*
X7560763Y20974767D01*
X7579699Y20971000D01*
X8454301Y20971000D01*
X8473238Y20974767D01*
X8488273Y20984814D01*
X8490268Y20984945D01*
X8491380Y20983282D01*
X8491293Y20982553D01*
X8472398Y20922212D01*
X8491455Y20857310D01*
X8490983Y20855367D01*
X8489064Y20854803D01*
X8488425Y20855084D01*
X8473237Y20865233D01*
X8454301Y20869000D01*
X7579699Y20869000D01*
X7560762Y20865233D01*
X7545727Y20855186D01*
X7543732Y20855055D01*
X7542620Y20856718D01*
X7542707Y20857447D01*
X7561602Y20917788D01*
X7542545Y20982690D01*
X7543017Y20984633D01*
X7544936Y20985197D01*
X7545575Y20984916D01*
G37*
G36*
X10770575Y20984916D02*
G01*
X10785763Y20974767D01*
X10804699Y20971000D01*
X11679301Y20971000D01*
X11698238Y20974767D01*
X11713273Y20984814D01*
X11715268Y20984945D01*
X11716380Y20983282D01*
X11716293Y20982553D01*
X11697398Y20922212D01*
X11716455Y20857310D01*
X11715983Y20855367D01*
X11714064Y20854803D01*
X11713425Y20855084D01*
X11698237Y20865233D01*
X11679301Y20869000D01*
X10804699Y20869000D01*
X10785762Y20865233D01*
X10770727Y20855186D01*
X10768732Y20855055D01*
X10767620Y20856718D01*
X10767707Y20857447D01*
X10786602Y20917788D01*
X10767545Y20982690D01*
X10768017Y20984633D01*
X10769936Y20985197D01*
X10770575Y20984916D01*
G37*
G36*
X11716711Y21483169D02*
G01*
X11716624Y21482440D01*
X11697648Y21421838D01*
X11716629Y21357195D01*
X11716157Y21355252D01*
X11714238Y21354688D01*
X11713599Y21354969D01*
X11698238Y21365233D01*
X11679301Y21369000D01*
X10804699Y21369000D01*
X10785762Y21365233D01*
X10769880Y21354620D01*
X10762531Y21343622D01*
X10760737Y21342737D01*
X10759074Y21343848D01*
X10758906Y21345123D01*
X10759564Y21348434D01*
X10753366Y21417694D01*
X10710572Y21470800D01*
X10710264Y21472776D01*
X10711821Y21474031D01*
X10712519Y21474017D01*
X10730199Y21470500D01*
X11179801Y21470500D01*
X11182124Y21470962D01*
X11182514Y21471000D01*
X11679801Y21471000D01*
X11698738Y21474767D01*
X11713604Y21484701D01*
X11715599Y21484832D01*
X11716711Y21483169D01*
G37*
G36*
X7545901Y21485031D02*
G01*
X7561262Y21474767D01*
X7580199Y21471000D01*
X8079801Y21471000D01*
X8082124Y21471462D01*
X8082514Y21471500D01*
X8529801Y21471500D01*
X8546758Y21474873D01*
X8548652Y21474230D01*
X8549042Y21472268D01*
X8548683Y21471628D01*
X8507269Y21422075D01*
X8499380Y21348708D01*
X8500092Y21345127D01*
X8499449Y21343233D01*
X8497487Y21342843D01*
X8496467Y21343626D01*
X8489120Y21354620D01*
X8473238Y21365233D01*
X8454301Y21369000D01*
X7579699Y21369000D01*
X7560762Y21365233D01*
X7545896Y21355299D01*
X7543901Y21355168D01*
X7542789Y21356831D01*
X7542876Y21357560D01*
X7561852Y21418162D01*
X7542871Y21482805D01*
X7543343Y21484748D01*
X7545262Y21485312D01*
X7545901Y21485031D01*
G37*
G36*
X10567672Y22431956D02*
G01*
X10628536Y22412898D01*
X10692922Y22431803D01*
X10694865Y22431331D01*
X10695429Y22429412D01*
X10695148Y22428773D01*
X10684767Y22413238D01*
X10681000Y22394301D01*
X10681000Y21519699D01*
X10684767Y21500762D01*
X10694589Y21486063D01*
X10694720Y21484067D01*
X10693057Y21482956D01*
X10692328Y21483043D01*
X10631469Y21502102D01*
X10567078Y21483197D01*
X10565135Y21483669D01*
X10564571Y21485588D01*
X10564852Y21486227D01*
X10575233Y21501762D01*
X10579000Y21520699D01*
X10579000Y22395301D01*
X10575233Y22414237D01*
X10565411Y22428936D01*
X10565280Y22430931D01*
X10566943Y22432043D01*
X10567672Y22431956D01*
G37*
G36*
X10194633Y22431983D02*
G01*
X10195197Y22430064D01*
X10194916Y22429425D01*
X10184767Y22414237D01*
X10181000Y22395301D01*
X10181000Y21520699D01*
X10184767Y21501762D01*
X10194814Y21486727D01*
X10194945Y21484732D01*
X10193282Y21483620D01*
X10192553Y21483707D01*
X10132212Y21502602D01*
X10067310Y21483545D01*
X10065367Y21484017D01*
X10064803Y21485936D01*
X10065084Y21486575D01*
X10075233Y21501763D01*
X10079000Y21520699D01*
X10079000Y22395301D01*
X10075233Y22414238D01*
X10065186Y22429273D01*
X10065055Y22431268D01*
X10066718Y22432380D01*
X10067447Y22432293D01*
X10127788Y22413398D01*
X10192690Y22432455D01*
X10194633Y22431983D01*
G37*
G36*
X9194633Y22431983D02*
G01*
X9195197Y22430064D01*
X9194916Y22429425D01*
X9184767Y22414237D01*
X9181000Y22395301D01*
X9181000Y21520699D01*
X9184767Y21501762D01*
X9194814Y21486727D01*
X9194945Y21484732D01*
X9193282Y21483620D01*
X9192553Y21483707D01*
X9132212Y21502602D01*
X9067310Y21483545D01*
X9065367Y21484017D01*
X9064803Y21485936D01*
X9065084Y21486575D01*
X9075233Y21501763D01*
X9079000Y21520699D01*
X9079000Y22395301D01*
X9075233Y22414238D01*
X9065186Y22429273D01*
X9065055Y22431268D01*
X9066718Y22432380D01*
X9067447Y22432293D01*
X9127788Y22413398D01*
X9192690Y22432455D01*
X9194633Y22431983D01*
G37*
G36*
X9694633Y22431983D02*
G01*
X9695197Y22430064D01*
X9694916Y22429425D01*
X9684767Y22414237D01*
X9681000Y22395301D01*
X9681000Y21520699D01*
X9684767Y21501762D01*
X9694814Y21486727D01*
X9694945Y21484732D01*
X9693282Y21483620D01*
X9692553Y21483707D01*
X9632212Y21502602D01*
X9567310Y21483545D01*
X9565367Y21484017D01*
X9564803Y21485936D01*
X9565084Y21486575D01*
X9575233Y21501763D01*
X9579000Y21520699D01*
X9579000Y22395301D01*
X9575233Y22414238D01*
X9565186Y22429273D01*
X9565055Y22431268D01*
X9566718Y22432380D01*
X9567447Y22432293D01*
X9627788Y22413398D01*
X9692690Y22432455D01*
X9694633Y22431983D01*
G37*
G36*
X8694633Y22431983D02*
G01*
X8695197Y22430064D01*
X8694916Y22429425D01*
X8684767Y22414237D01*
X8681000Y22395301D01*
X8681000Y21520699D01*
X8684767Y21501762D01*
X8694814Y21486727D01*
X8694945Y21484732D01*
X8693282Y21483620D01*
X8692553Y21483707D01*
X8632212Y21502602D01*
X8567311Y21483546D01*
X8565368Y21484018D01*
X8564804Y21485937D01*
X8565085Y21486576D01*
X8575233Y21501762D01*
X8579000Y21520699D01*
X8579000Y22395301D01*
X8575233Y22414238D01*
X8565186Y22429273D01*
X8565055Y22431268D01*
X8566718Y22432380D01*
X8567447Y22432293D01*
X8627788Y22413398D01*
X8692690Y22432455D01*
X8694633Y22431983D01*
G37*
G36*
X10119267Y27476699D02*
G01*
X10170946Y27433511D01*
X10239661Y27424880D01*
X10302291Y27454844D01*
X10320348Y27475682D01*
X10322238Y27476336D01*
X10323749Y27475026D01*
X10323821Y27473982D01*
X10321000Y27459801D01*
X10321000Y25960199D01*
X10323978Y25945226D01*
X10323335Y25943332D01*
X10321373Y25942942D01*
X10320733Y25943301D01*
X10269054Y25986489D01*
X10200339Y25995120D01*
X10137709Y25965156D01*
X10119652Y25944318D01*
X10117762Y25943664D01*
X10116251Y25944974D01*
X10116179Y25946018D01*
X10119000Y25960199D01*
X10119000Y27459801D01*
X10116022Y27474774D01*
X10116665Y27476668D01*
X10118627Y27477058D01*
X10119267Y27476699D01*
G37*
M02*
