M48
; DRILL file {KiCad (6.0.1)} date Wed Nov 23 13:30:16 2022
; FORMAT={2:4/ absolute / inch / suppress leading zeros}
; #@! TF.CreationDate,2022-11-23T13:30:16-08:00
; #@! TF.GenerationSoftware,Kicad,Pcbnew,(6.0.1)
; #@! TF.FileFunction,MixedPlating,1,2
FMAT,2
INCH,TZ
; #@! TA.AperFunction,Plated,PTH,ViaDrill
T1C0.0118
; #@! TA.AperFunction,Plated,PTH,ComponentDrill
T2C0.0295
; #@! TA.AperFunction,Plated,PTH,ComponentDrill
T3C0.0325
; #@! TA.AperFunction,Plated,PTH,ComponentDrill
T4C0.0394
; #@! TA.AperFunction,Plated,PTH,ComponentDrill
T5C0.1260
; #@! TA.AperFunction,Plated,PTH,ComponentDrill
T6C0.1772
%
G90
G05
T1
X-8516Y-2071
X-8390Y-315
X-8126Y-3768
X-7972Y-4043
X-7693Y-5484
X-7630Y-4063
X-7260Y-3224
X-7232Y1276
X-7228Y-4126
X-7214Y-376
X-7135Y-22
X-7064Y-3881
X-6874Y-3406
X-6854Y-601
X-6836Y-307
X-6689Y-3921
X-6638Y-6555
X-6606Y-761
X-6472Y5937
X-6370Y-3409
X-6320Y-689
X-6268Y-304
X-6134Y-7803
X-6087Y-3582
X-5972Y-311
X-5866Y-8024
X-5764Y-535
X-5524Y-5850
X-5512Y-3512
X-5217Y-24
X-5083Y-3272
X-4748Y-8066
X-4606Y1087
X-4567Y-2516
X-4547Y-4528
X-4449Y-5354
X-3641Y-5957
X-3633Y-7763
X-3373Y-2461
X-3370Y-4346
X-3291Y-3350
X-2903Y-7725
X-2602Y-6575
X-2477Y-2532
X-2453Y-4354
X-2383Y-2814
X-2362Y-5823
X-2358Y-7173
X-2221Y-3529
X-2205Y1091
X-2113Y-9777
X-1992Y-1752
X-1954Y-3310
X-1917Y1457
X-1882Y-669
X-1831Y944
X-1744Y-6264
X-1669Y-4000
X-1594Y-5157
X-1547Y-2925
X-1366Y-7224
X-1056Y-7324
X-906Y-3969
X-815Y-6675
X-709Y-7610
X-417Y-7492
X-272Y8295
X-268Y10606
X-154Y-5134
X-131Y-6414
X-98Y3433
X-87Y6488
X-12Y-1429
X126Y-1953
X319Y-10776
X433Y-1746
X512Y2039
X677Y-5500
X713Y-3055
X732Y-2055
X992Y-9583
X1205Y-2146
X1220Y-1839
X1539Y1846
X1614Y-2425
X1773Y-4603
X1898Y-10756
X1972Y9118
X1996Y3988
X2071Y-7130
X2105Y-5068
X2121Y-7660
X2184Y-4487
X2238Y1878
X2366Y10591
X2575Y-339
X2602Y768
X2646Y3220
X2703Y1325
X2740Y-6675
X2783Y6051
X2909Y-122
X2917Y6933
X2992Y9102
X3031Y-6232
X3035Y-618
X3047Y1772
X3130Y677
X3256Y-5335
X3287Y10772
X3315Y-6969
X3327Y-1122
X3535Y-401
X3598Y2986
X3791Y8252
X4607Y2522
X4677Y6921
X4724Y-7043
X4740Y4787
X4752Y10740
X4812Y-8279
X4815Y6071
X4984Y2251
X5031Y3524
X5283Y2248
X5323Y7945
X5333Y3537
X5492Y-6205
X5506Y3776
X5536Y4189
X5545Y3058
X5650Y-7713
X5839Y9437
X5949Y-8138
X6034Y-4887
X6122Y2252
X6339Y5177
X6398Y-7780
X6437Y-5354
X6441Y10417
X6650Y8272
X6657Y6803
X6689Y-1528
X6860Y3687
X6925Y-1937
X6945Y4131
X7094Y-1638
X7104Y3521
X7193Y2150
X7524Y5287
X7528Y4488
X7535Y4906
X7636Y3352
X7740Y8283
X7744Y7008
X7768Y2669
X7906Y5488
X7916Y3705
X8024Y-10732
X8063Y2783
X8370Y10685
X8555Y-2717
X8583Y6748
X8677Y9571
X8716Y4218
X8758Y1345
X9382Y7028
X9518Y4161
X9811Y8197
X9886Y-10709
X9941Y-2008
X10005Y7028
X10154Y6232
X10543Y-3354
X10906Y-8996
X10913Y4386
X10937Y-4921
X10976Y-7457
X11362Y8240
X12004Y7110
X12031Y-4520
X12035Y-7008
X12224Y-8598
X12563Y6280
X12602Y4209
X12693Y4661
X13012Y8236
X13067Y-3583
X13114Y-8228
X13161Y-6087
X13291Y3764
X13354Y-1990
X13508Y5406
X13524Y2546
X13752Y6906
X13992Y-10106
X14008Y10661
X14055Y-8594
X14091Y-10657
X14563Y6764
X15843Y-3512
X16150Y7039
X16150Y4169
X16358Y-10618
X16575Y8665
X16610Y-8760
X16740Y3197
X16929Y10508
X16953Y2909
X17244Y4508
X17335Y5500
X17748Y-10661
X18059Y4343
X18173Y-2382
X18319Y-6067
X18673Y-1976
X18693Y-6646
X19047Y-8579
X19520Y539
X19823Y-10441
X19858Y-8594
X19921Y4157
X19953Y7559
X20193Y1980
X20213Y-7579
T2
X-7862Y-7154
X-7571Y7453
X-7571Y6665
X-7571Y5878
X-7571Y5091
X-7571Y4303
X-7571Y3516
X-7571Y2728
X-7075Y-7154
X-6287Y-7154
X-5500Y-7154
X-5488Y7453
X-5488Y6665
X-5488Y5878
X-5488Y5091
X-5488Y4303
X-5488Y3516
X-5488Y2728
X-4713Y-7154
X-3925Y-7154
X-3406Y9028
X-3406Y8240
X-3406Y7453
X-3406Y6665
X-3406Y5878
X-3406Y5091
X-3406Y4303
X-3406Y3516
X-3406Y2728
X8705Y7697
X8705Y5500
X8713Y3303
X9492Y7697
X9492Y5500
X9500Y3303
X10280Y7697
X10280Y5500
X10287Y3303
X10520Y9902
X11067Y7697
X11067Y5500
X11075Y3303
X11307Y9902
X11854Y7697
X11854Y5500
X11862Y3303
X12094Y9902
X12642Y7697
X12642Y5500
X12650Y3303
X12882Y9902
X13429Y7697
X14610Y5500
X14610Y3303
X15398Y5500
X15398Y3303
X16185Y5500
X16185Y3303
T3
X175Y2756
X1175Y2756
X2175Y2756
X3175Y2756
X4175Y2756
X5175Y2756
X6175Y2756
X7175Y2756
T4
X-5583Y-9193
X-5583Y-10193
X-4583Y-9193
X-4583Y-10193
X-3583Y-9193
X-3583Y-10193
X-2953Y-846
X-2953Y-1846
X-2953Y-2846
X-2953Y-3846
X-2953Y-4846
X-2953Y-5846
X-2583Y-9193
X-2583Y-10193
X-1583Y-9193
X-1583Y-10193
X-1134Y1220
X-1134Y220
X-1134Y-780
X-583Y-9193
X-583Y-10193
X-134Y1220
X-134Y220
X-134Y-780
X417Y-9193
X417Y-10193
X866Y1220
X866Y220
X866Y-780
X1417Y-9193
X1417Y-10193
X1866Y1220
X1866Y220
X1866Y-780
X2417Y-9193
X2417Y-10193
X3417Y-9193
X3417Y-10193
X3969Y1220
X3969Y220
X3969Y-780
X4417Y-9193
X4417Y-10193
X4969Y1220
X4969Y220
X4969Y-780
X5417Y-9193
X5417Y-10193
X5969Y1220
X5969Y220
X5969Y-780
X6417Y-9193
X6417Y-10193
X6969Y1220
X6969Y220
X6969Y-780
X7417Y-9193
X7417Y-10193
X8417Y-9193
X8417Y-10193
X9417Y-9193
X9417Y-10193
X9929Y1220
X9929Y220
X9929Y-780
X10417Y-9193
X10417Y-10193
X10929Y1220
X10929Y220
X10929Y-780
X11417Y-9193
X11417Y-10193
X11929Y1220
X11929Y220
X11929Y-780
X12417Y-9193
X12417Y-10193
X12929Y1220
X12929Y220
X12929Y-780
X13417Y-9193
X13417Y-10193
X14992Y1220
X14992Y220
X14992Y-780
X15992Y1220
X15992Y220
X15992Y-780
X16992Y1220
X16992Y220
X16992Y-780
X17992Y1220
X17992Y220
X17992Y-780
X19882Y-846
X19882Y-1846
X19882Y-2846
X19882Y-3846
X19882Y-4846
X19882Y-5846
T5
X-7480Y9646
X-7480Y-9646
X15354Y9646
X15354Y-9646
T6
X18701Y9291
X18701Y6362
T0
M30
