G04 #@! TF.GenerationSoftware,KiCad,Pcbnew,(6.0.1)*
G04 #@! TF.CreationDate,2022-08-03T17:01:47-07:00*
G04 #@! TF.ProjectId,Prime Mover,5072696d-6520-44d6-9f76-65722e6b6963,rev?*
G04 #@! TF.SameCoordinates,Original*
G04 #@! TF.FileFunction,Paste,Top*
G04 #@! TF.FilePolarity,Positive*
%FSLAX46Y46*%
G04 Gerber Fmt 4.6, Leading zero omitted, Abs format (unit mm)*
G04 Created by KiCad (PCBNEW (6.0.1)) date 2022-08-03 17:01:47*
%MOMM*%
%LPD*%
G01*
G04 APERTURE LIST*
G04 Aperture macros list*
%AMRoundRect*
0 Rectangle with rounded corners*
0 $1 Rounding radius*
0 $2 $3 $4 $5 $6 $7 $8 $9 X,Y pos of 4 corners*
0 Add a 4 corners polygon primitive as box body*
4,1,4,$2,$3,$4,$5,$6,$7,$8,$9,$2,$3,0*
0 Add four circle primitives for the rounded corners*
1,1,$1+$1,$2,$3*
1,1,$1+$1,$4,$5*
1,1,$1+$1,$6,$7*
1,1,$1+$1,$8,$9*
0 Add four rect primitives between the rounded corners*
20,1,$1+$1,$2,$3,$4,$5,0*
20,1,$1+$1,$4,$5,$6,$7,0*
20,1,$1+$1,$6,$7,$8,$9,0*
20,1,$1+$1,$8,$9,$2,$3,0*%
G04 Aperture macros list end*
%ADD10RoundRect,0.250000X0.450000X-0.262500X0.450000X0.262500X-0.450000X0.262500X-0.450000X-0.262500X0*%
%ADD11RoundRect,0.243750X0.456250X-0.243750X0.456250X0.243750X-0.456250X0.243750X-0.456250X-0.243750X0*%
%ADD12R,0.450000X1.475000*%
%ADD13RoundRect,0.250000X-0.250000X-0.475000X0.250000X-0.475000X0.250000X0.475000X-0.250000X0.475000X0*%
%ADD14RoundRect,0.250000X1.250000X0.550000X-1.250000X0.550000X-1.250000X-0.550000X1.250000X-0.550000X0*%
%ADD15RoundRect,0.250000X0.550000X-1.250000X0.550000X1.250000X-0.550000X1.250000X-0.550000X-1.250000X0*%
%ADD16RoundRect,0.150000X0.150000X-0.825000X0.150000X0.825000X-0.150000X0.825000X-0.150000X-0.825000X0*%
%ADD17RoundRect,0.250000X0.475000X-0.250000X0.475000X0.250000X-0.475000X0.250000X-0.475000X-0.250000X0*%
%ADD18RoundRect,0.250000X-0.262500X-0.450000X0.262500X-0.450000X0.262500X0.450000X-0.262500X0.450000X0*%
%ADD19R,3.200000X2.650000*%
%ADD20RoundRect,0.250000X-0.450000X0.262500X-0.450000X-0.262500X0.450000X-0.262500X0.450000X0.262500X0*%
%ADD21R,0.875000X0.300000*%
%ADD22R,1.525000X0.250000*%
%ADD23R,1.525000X0.950000*%
%ADD24R,0.450000X0.600000*%
%ADD25R,0.300000X1.650000*%
%ADD26R,0.450000X0.875000*%
%ADD27R,0.300000X0.875000*%
%ADD28R,0.500000X0.350000*%
%ADD29R,0.600000X0.250000*%
%ADD30R,1.000000X1.000000*%
G04 APERTURE END LIST*
D10*
X50470000Y-24597500D03*
X50470000Y-26422500D03*
X48400000Y-24587500D03*
X48400000Y-26412500D03*
X46320000Y-24587500D03*
X46320000Y-26412500D03*
D11*
X50470000Y-21072500D03*
X50470000Y-22947500D03*
X48400000Y-22947500D03*
X48400000Y-21072500D03*
X46320000Y-22947500D03*
X46320000Y-21072500D03*
D12*
X-1375000Y-17478000D03*
X-725000Y-17478000D03*
X-75000Y-17478000D03*
X575000Y-17478000D03*
X1225000Y-17478000D03*
X1875000Y-17478000D03*
X2525000Y-17478000D03*
X3175000Y-17478000D03*
X3825000Y-17478000D03*
X4475000Y-17478000D03*
X4475000Y-11602000D03*
X3825000Y-11602000D03*
X3175000Y-11602000D03*
X2525000Y-11602000D03*
X1875000Y-11602000D03*
X1225000Y-11602000D03*
X575000Y-11602000D03*
X-75000Y-11602000D03*
X-725000Y-11602000D03*
X-1375000Y-11602000D03*
D13*
X13520000Y18140000D03*
X15420000Y18140000D03*
D14*
X4840000Y24930000D03*
X440000Y24930000D03*
D15*
X16260000Y10950000D03*
X16260000Y15350000D03*
X2980000Y10130000D03*
X2980000Y14530000D03*
D16*
X-21615000Y-3445000D03*
X-20345000Y-3445000D03*
X-19075000Y-3445000D03*
X-17805000Y-3445000D03*
X-16535000Y-3445000D03*
X-15265000Y-3445000D03*
X-13995000Y-3445000D03*
X-12725000Y-3445000D03*
X-12725000Y1505000D03*
X-13995000Y1505000D03*
X-15265000Y1505000D03*
X-16535000Y1505000D03*
X-17805000Y1505000D03*
X-19075000Y1505000D03*
X-20345000Y1505000D03*
X-21615000Y1505000D03*
X-21605000Y-6885000D03*
X-20335000Y-6885000D03*
X-19065000Y-6885000D03*
X-17795000Y-6885000D03*
X-16525000Y-6885000D03*
X-15255000Y-6885000D03*
X-13985000Y-6885000D03*
X-12715000Y-6885000D03*
X-12715000Y-11835000D03*
X-13985000Y-11835000D03*
X-15255000Y-11835000D03*
X-16525000Y-11835000D03*
X-17795000Y-11835000D03*
X-19065000Y-11835000D03*
X-20335000Y-11835000D03*
X-21605000Y-11835000D03*
D17*
X5550000Y19140000D03*
X5550000Y21040000D03*
D18*
X7587500Y24450000D03*
X9412500Y24450000D03*
D19*
X9630000Y15650000D03*
X9630000Y10050000D03*
D18*
X11037500Y24440000D03*
X12862500Y24440000D03*
D17*
X3510000Y19140000D03*
X3510000Y21040000D03*
D18*
X-2992500Y-8570000D03*
X-1167500Y-8570000D03*
D20*
X45060000Y8295000D03*
X45060000Y6470000D03*
D18*
X-2982500Y-6570000D03*
X-1157500Y-6570000D03*
D21*
X8017000Y21170000D03*
X8017000Y20670000D03*
D22*
X8342000Y20170000D03*
D23*
X8343000Y19120000D03*
D24*
X8305000Y18345000D03*
D25*
X9630000Y18870000D03*
D24*
X10955000Y18345000D03*
D23*
X10917000Y19120000D03*
D22*
X10918000Y20170000D03*
D21*
X11242000Y20670000D03*
X11242000Y21170000D03*
D26*
X10955000Y21957000D03*
D27*
X10380000Y21958000D03*
X9880000Y21958000D03*
X9380000Y21958000D03*
X8880000Y21958000D03*
D26*
X8305000Y21958000D03*
D28*
X7830000Y21695000D03*
D29*
X9630000Y19820000D03*
D28*
X11430000Y21695000D03*
D13*
X13520000Y20180000D03*
X15420000Y20180000D03*
D10*
X49000000Y6457500D03*
X49000000Y8282500D03*
D17*
X50990000Y6440000D03*
X50990000Y8340000D03*
D30*
X47030000Y6450000D03*
X47030000Y8950000D03*
D13*
X3180000Y17330000D03*
X5080000Y17330000D03*
X13520000Y22200000D03*
X15420000Y22200000D03*
M02*
