G04 #@! TF.GenerationSoftware,KiCad,Pcbnew,(6.0.1)*
G04 #@! TF.CreationDate,2022-01-26T09:26:30-08:00*
G04 #@! TF.ProjectId,Prime Mover,5072696d-6520-44d6-9f76-65722e6b6963,rev?*
G04 #@! TF.SameCoordinates,Original*
G04 #@! TF.FileFunction,Soldermask,Top*
G04 #@! TF.FilePolarity,Negative*
%FSLAX46Y46*%
G04 Gerber Fmt 4.6, Leading zero omitted, Abs format (unit mm)*
G04 Created by KiCad (PCBNEW (6.0.1)) date 2022-01-26 09:26:30*
%MOMM*%
%LPD*%
G01*
G04 APERTURE LIST*
G04 Aperture macros list*
%AMRoundRect*
0 Rectangle with rounded corners*
0 $1 Rounding radius*
0 $2 $3 $4 $5 $6 $7 $8 $9 X,Y pos of 4 corners*
0 Add a 4 corners polygon primitive as box body*
4,1,4,$2,$3,$4,$5,$6,$7,$8,$9,$2,$3,0*
0 Add four circle primitives for the rounded corners*
1,1,$1+$1,$2,$3*
1,1,$1+$1,$4,$5*
1,1,$1+$1,$6,$7*
1,1,$1+$1,$8,$9*
0 Add four rect primitives between the rounded corners*
20,1,$1+$1,$2,$3,$4,$5,0*
20,1,$1+$1,$4,$5,$6,$7,0*
20,1,$1+$1,$6,$7,$8,$9,0*
20,1,$1+$1,$8,$9,$2,$3,0*%
G04 Aperture macros list end*
%ADD10RoundRect,0.301000X-0.350000X-0.625000X0.350000X-0.625000X0.350000X0.625000X-0.350000X0.625000X0*%
%ADD11O,1.302000X1.852000*%
%ADD12RoundRect,0.051000X-0.500000X0.500000X-0.500000X-0.500000X0.500000X-0.500000X0.500000X0.500000X0*%
%ADD13C,1.626000*%
%ADD14RoundRect,0.301000X-0.625000X0.350000X-0.625000X-0.350000X0.625000X-0.350000X0.625000X0.350000X0*%
%ADD15O,1.852000X1.302000*%
%ADD16RoundRect,0.294750X-0.456250X0.243750X-0.456250X-0.243750X0.456250X-0.243750X0.456250X0.243750X0*%
%ADD17RoundRect,0.051000X0.550000X0.200000X-0.550000X0.200000X-0.550000X-0.200000X0.550000X-0.200000X0*%
%ADD18RoundRect,0.301000X0.625000X-0.350000X0.625000X0.350000X-0.625000X0.350000X-0.625000X-0.350000X0*%
%ADD19C,3.302000*%
%ADD20RoundRect,0.294750X0.456250X-0.243750X0.456250X0.243750X-0.456250X0.243750X-0.456250X-0.243750X0*%
%ADD21RoundRect,0.294750X0.243750X0.456250X-0.243750X0.456250X-0.243750X-0.456250X0.243750X-0.456250X0*%
%ADD22RoundRect,0.294750X-0.243750X-0.456250X0.243750X-0.456250X0.243750X0.456250X-0.243750X0.456250X0*%
%ADD23RoundRect,0.301000X0.350000X0.625000X-0.350000X0.625000X-0.350000X-0.625000X0.350000X-0.625000X0*%
%ADD24RoundRect,0.301000X-0.250000X-0.475000X0.250000X-0.475000X0.250000X0.475000X-0.250000X0.475000X0*%
%ADD25RoundRect,0.301000X-0.262500X-0.450000X0.262500X-0.450000X0.262500X0.450000X-0.262500X0.450000X0*%
%ADD26RoundRect,0.201000X-0.150000X0.825000X-0.150000X-0.825000X0.150000X-0.825000X0.150000X0.825000X0*%
%ADD27RoundRect,0.301000X0.550000X-1.250000X0.550000X1.250000X-0.550000X1.250000X-0.550000X-1.250000X0*%
%ADD28RoundRect,0.051000X0.850000X0.850000X-0.850000X0.850000X-0.850000X-0.850000X0.850000X-0.850000X0*%
%ADD29O,1.802000X1.802000*%
%ADD30RoundRect,0.301000X-0.475000X0.250000X-0.475000X-0.250000X0.475000X-0.250000X0.475000X0.250000X0*%
%ADD31RoundRect,1.551000X-1.500000X1.500000X-1.500000X-1.500000X1.500000X-1.500000X1.500000X1.500000X0*%
%ADD32C,6.102000*%
%ADD33RoundRect,0.051000X0.225000X0.737500X-0.225000X0.737500X-0.225000X-0.737500X0.225000X-0.737500X0*%
%ADD34RoundRect,0.051000X-1.600000X1.325000X-1.600000X-1.325000X1.600000X-1.325000X1.600000X1.325000X0*%
%ADD35RoundRect,0.301000X0.475000X-0.250000X0.475000X0.250000X-0.475000X0.250000X-0.475000X-0.250000X0*%
%ADD36RoundRect,0.051000X0.437500X-0.150000X0.437500X0.150000X-0.437500X0.150000X-0.437500X-0.150000X0*%
%ADD37RoundRect,0.051000X0.762500X-0.125000X0.762500X0.125000X-0.762500X0.125000X-0.762500X-0.125000X0*%
%ADD38RoundRect,0.051000X0.762500X-0.475000X0.762500X0.475000X-0.762500X0.475000X-0.762500X-0.475000X0*%
%ADD39RoundRect,0.051000X-0.225000X-0.300000X0.225000X-0.300000X0.225000X0.300000X-0.225000X0.300000X0*%
%ADD40RoundRect,0.051000X-0.150000X-0.825000X0.150000X-0.825000X0.150000X0.825000X-0.150000X0.825000X0*%
%ADD41RoundRect,0.051000X-0.225000X-0.437500X0.225000X-0.437500X0.225000X0.437500X-0.225000X0.437500X0*%
%ADD42RoundRect,0.051000X-0.150000X-0.437500X0.150000X-0.437500X0.150000X0.437500X-0.150000X0.437500X0*%
%ADD43RoundRect,0.051000X0.250000X-0.175000X0.250000X0.175000X-0.250000X0.175000X-0.250000X-0.175000X0*%
%ADD44RoundRect,0.051000X0.300000X-0.125000X0.300000X0.125000X-0.300000X0.125000X-0.300000X-0.125000X0*%
%ADD45RoundRect,0.051000X0.850000X-0.850000X0.850000X0.850000X-0.850000X0.850000X-0.850000X-0.850000X0*%
G04 APERTURE END LIST*
D10*
X12100000Y-24300000D03*
D11*
X14100000Y-24300000D03*
X16100000Y-24300000D03*
X18100000Y-24300000D03*
X20100000Y-24300000D03*
X22100000Y-24300000D03*
D12*
X57274000Y-47257000D03*
X57274000Y-49757000D03*
D13*
X56130000Y-27460000D03*
X53590000Y-27460000D03*
X51050000Y-27460000D03*
X48510000Y-27460000D03*
X45970000Y-27460000D03*
X43430000Y-27460000D03*
X40890000Y-27460000D03*
X38350000Y-27460000D03*
D14*
X3414000Y-9652000D03*
D15*
X3414000Y-11652000D03*
X3414000Y-13652000D03*
X3414000Y-15652000D03*
X3414000Y-17652000D03*
X3414000Y-19652000D03*
X3414000Y-21652000D03*
X3414000Y-23652000D03*
X3414000Y-25652000D03*
D16*
X57274000Y-43759500D03*
X57274000Y-45634500D03*
X59306000Y-47237000D03*
X59306000Y-49112000D03*
D17*
X67610000Y-39895000D03*
X67610000Y-39245000D03*
X67610000Y-38595000D03*
X67610000Y-37945000D03*
X67610000Y-37295000D03*
X67610000Y-36645000D03*
X67610000Y-35995000D03*
X67610000Y-35345000D03*
X67610000Y-34695000D03*
X67610000Y-34045000D03*
X67610000Y-33395000D03*
X67610000Y-32745000D03*
X67610000Y-32095000D03*
X67610000Y-31445000D03*
X61910000Y-31445000D03*
X61910000Y-32095000D03*
X61910000Y-32745000D03*
X61910000Y-33395000D03*
X61910000Y-34045000D03*
X61910000Y-34695000D03*
X61910000Y-35345000D03*
X61910000Y-35995000D03*
X61910000Y-36645000D03*
X61910000Y-37295000D03*
X61910000Y-37945000D03*
X61910000Y-38595000D03*
X61910000Y-39245000D03*
X61910000Y-39895000D03*
D18*
X71250000Y-34380000D03*
D15*
X71250000Y-32380000D03*
X71250000Y-30380000D03*
X71250000Y-28380000D03*
X71250000Y-26380000D03*
X71250000Y-24380000D03*
X71250000Y-22380000D03*
D19*
X3500000Y-3500000D03*
X3500000Y-52500000D03*
X61500000Y-53000000D03*
X61500000Y-3500000D03*
D18*
X71250000Y-51380000D03*
D15*
X71250000Y-49380000D03*
X71250000Y-47380000D03*
X71250000Y-45380000D03*
X71250000Y-43380000D03*
X71250000Y-41380000D03*
X71250000Y-39380000D03*
D20*
X59306000Y-45634500D03*
X59306000Y-43759500D03*
D14*
X31150000Y-19800000D03*
D15*
X31150000Y-21800000D03*
X31150000Y-23800000D03*
D21*
X55080000Y-49470000D03*
X53205000Y-49470000D03*
D22*
X49642500Y-49470000D03*
X51517500Y-49470000D03*
D14*
X31140000Y-28820000D03*
D15*
X31140000Y-30820000D03*
X31140000Y-32820000D03*
D14*
X31140000Y-37820000D03*
D15*
X31140000Y-39820000D03*
X31140000Y-41820000D03*
X31140000Y-43820000D03*
D14*
X3350000Y-33280000D03*
D15*
X3350000Y-35280000D03*
X3350000Y-37280000D03*
X3350000Y-39280000D03*
X3350000Y-41280000D03*
X3350000Y-43280000D03*
X3350000Y-45280000D03*
D23*
X41180000Y-3550000D03*
D11*
X39180000Y-3550000D03*
X37180000Y-3550000D03*
X35180000Y-3550000D03*
X33180000Y-3550000D03*
X31180000Y-3550000D03*
X29180000Y-3550000D03*
D24*
X51690000Y-14740000D03*
X53590000Y-14740000D03*
D25*
X60057500Y-8420000D03*
X61882500Y-8420000D03*
D26*
X19295000Y-7495000D03*
X18025000Y-7495000D03*
X16755000Y-7495000D03*
X15485000Y-7495000D03*
X14215000Y-7495000D03*
X12945000Y-7495000D03*
X11675000Y-7495000D03*
X10405000Y-7495000D03*
X10405000Y-12445000D03*
X11675000Y-12445000D03*
X12945000Y-12445000D03*
X14215000Y-12445000D03*
X15485000Y-12445000D03*
X16755000Y-12445000D03*
X18025000Y-12445000D03*
X19295000Y-12445000D03*
D27*
X49160000Y-9360000D03*
X49160000Y-4960000D03*
D23*
X24110000Y-3550000D03*
D11*
X22110000Y-3550000D03*
X20110000Y-3550000D03*
X18110000Y-3550000D03*
X16110000Y-3550000D03*
X14110000Y-3550000D03*
X12110000Y-3550000D03*
D28*
X55700000Y-5200000D03*
D29*
X55700000Y-2660000D03*
D30*
X63890000Y-12820000D03*
X63890000Y-14720000D03*
D31*
X69960000Y-4840000D03*
D32*
X69960000Y-12040000D03*
D24*
X61620000Y-10970000D03*
X63520000Y-10970000D03*
D33*
X15655000Y-43778000D03*
X16305000Y-43778000D03*
X16955000Y-43778000D03*
X17605000Y-43778000D03*
X18255000Y-43778000D03*
X18905000Y-43778000D03*
X19555000Y-43778000D03*
X20205000Y-43778000D03*
X20855000Y-43778000D03*
X21505000Y-43778000D03*
X21505000Y-37902000D03*
X20855000Y-37902000D03*
X20205000Y-37902000D03*
X19555000Y-37902000D03*
X18905000Y-37902000D03*
X18255000Y-37902000D03*
X17605000Y-37902000D03*
X16955000Y-37902000D03*
X16305000Y-37902000D03*
X15655000Y-37902000D03*
D10*
X12110000Y-32090000D03*
D11*
X14110000Y-32090000D03*
X16110000Y-32090000D03*
X18110000Y-32090000D03*
X20110000Y-32090000D03*
X22110000Y-32090000D03*
D27*
X50760000Y-22140000D03*
X50760000Y-17740000D03*
D25*
X56615000Y-8420000D03*
X58440000Y-8420000D03*
D28*
X66540000Y-48860000D03*
D29*
X66540000Y-46320000D03*
X66540000Y-43780000D03*
D34*
X57610000Y-17560000D03*
X57610000Y-23160000D03*
D35*
X53350000Y-12830000D03*
X53350000Y-10930000D03*
D36*
X55997000Y-11720000D03*
X55997000Y-12220000D03*
D37*
X56322000Y-12720000D03*
D38*
X56323000Y-13770000D03*
D39*
X56285000Y-14545000D03*
D40*
X57610000Y-14020000D03*
D39*
X58935000Y-14545000D03*
D38*
X58897000Y-13770000D03*
D37*
X58898000Y-12720000D03*
D36*
X59222000Y-12220000D03*
X59222000Y-11720000D03*
D41*
X58935000Y-10933000D03*
D42*
X58360000Y-10932000D03*
X57860000Y-10932000D03*
X57360000Y-10932000D03*
X56860000Y-10932000D03*
D41*
X56285000Y-10932000D03*
D43*
X55810000Y-11195000D03*
D44*
X57610000Y-13070000D03*
D43*
X59410000Y-11195000D03*
D27*
X64330000Y-22140000D03*
X64330000Y-17740000D03*
D35*
X51290000Y-12830000D03*
X51290000Y-10930000D03*
D10*
X12110000Y-16280000D03*
D11*
X14110000Y-16280000D03*
X16110000Y-16280000D03*
X18110000Y-16280000D03*
X20110000Y-16280000D03*
X22110000Y-16280000D03*
D30*
X61840000Y-12820000D03*
X61840000Y-14720000D03*
D26*
X36365000Y-7545000D03*
X35095000Y-7545000D03*
X33825000Y-7545000D03*
X32555000Y-7545000D03*
X31285000Y-7545000D03*
X30015000Y-7545000D03*
X28745000Y-7545000D03*
X27475000Y-7545000D03*
X27475000Y-12495000D03*
X28745000Y-12495000D03*
X30015000Y-12495000D03*
X31285000Y-12495000D03*
X32555000Y-12495000D03*
X33825000Y-12495000D03*
X35095000Y-12495000D03*
X36365000Y-12495000D03*
D45*
X56610000Y-52150000D03*
D29*
X56610000Y-54690000D03*
X54070000Y-52150000D03*
X54070000Y-54690000D03*
X51530000Y-52150000D03*
X51530000Y-54690000D03*
X48990000Y-52150000D03*
X48990000Y-54690000D03*
X46450000Y-52150000D03*
X46450000Y-54690000D03*
X43910000Y-52150000D03*
X43910000Y-54690000D03*
X41370000Y-52150000D03*
X41370000Y-54690000D03*
X38830000Y-52150000D03*
X38830000Y-54690000D03*
X36290000Y-52150000D03*
X36290000Y-54690000D03*
X33750000Y-52150000D03*
X33750000Y-54690000D03*
X31210000Y-52150000D03*
X31210000Y-54690000D03*
X28670000Y-52150000D03*
X28670000Y-54690000D03*
X26130000Y-52150000D03*
X26130000Y-54690000D03*
X23590000Y-52150000D03*
X23590000Y-54690000D03*
X21050000Y-52150000D03*
X21050000Y-54690000D03*
X18510000Y-52150000D03*
X18510000Y-54690000D03*
X15970000Y-52150000D03*
X15970000Y-54690000D03*
X13430000Y-52150000D03*
X13430000Y-54690000D03*
X10890000Y-52150000D03*
X10890000Y-54690000D03*
X8350000Y-52150000D03*
X8350000Y-54690000D03*
G36*
X20594633Y-43004017D02*
G01*
X20595197Y-43005936D01*
X20594916Y-43006575D01*
X20584767Y-43021763D01*
X20581000Y-43040699D01*
X20581000Y-44515301D01*
X20584767Y-44534238D01*
X20594814Y-44549273D01*
X20594945Y-44551268D01*
X20593282Y-44552380D01*
X20592553Y-44552293D01*
X20532212Y-44533398D01*
X20467310Y-44552455D01*
X20465367Y-44551983D01*
X20464803Y-44550064D01*
X20465084Y-44549425D01*
X20475233Y-44534237D01*
X20479000Y-44515301D01*
X20479000Y-43040699D01*
X20475233Y-43021762D01*
X20465186Y-43006727D01*
X20465055Y-43004732D01*
X20466718Y-43003620D01*
X20467447Y-43003707D01*
X20527788Y-43022602D01*
X20592690Y-43003545D01*
X20594633Y-43004017D01*
G37*
G36*
X21244633Y-43004017D02*
G01*
X21245197Y-43005936D01*
X21244916Y-43006575D01*
X21234767Y-43021763D01*
X21231000Y-43040699D01*
X21231000Y-44515301D01*
X21234767Y-44534238D01*
X21244814Y-44549273D01*
X21244945Y-44551268D01*
X21243282Y-44552380D01*
X21242553Y-44552293D01*
X21182212Y-44533398D01*
X21117310Y-44552455D01*
X21115367Y-44551983D01*
X21114803Y-44550064D01*
X21115084Y-44549425D01*
X21125233Y-44534237D01*
X21129000Y-44515301D01*
X21129000Y-43040699D01*
X21125233Y-43021762D01*
X21115186Y-43006727D01*
X21115055Y-43004732D01*
X21116718Y-43003620D01*
X21117447Y-43003707D01*
X21177788Y-43022602D01*
X21242690Y-43003545D01*
X21244633Y-43004017D01*
G37*
G36*
X17344633Y-43004017D02*
G01*
X17345197Y-43005936D01*
X17344916Y-43006575D01*
X17334767Y-43021763D01*
X17331000Y-43040699D01*
X17331000Y-44515301D01*
X17334767Y-44534238D01*
X17344814Y-44549273D01*
X17344945Y-44551268D01*
X17343282Y-44552380D01*
X17342553Y-44552293D01*
X17282212Y-44533398D01*
X17217310Y-44552455D01*
X17215367Y-44551983D01*
X17214803Y-44550064D01*
X17215084Y-44549425D01*
X17225233Y-44534237D01*
X17229000Y-44515301D01*
X17229000Y-43040699D01*
X17225233Y-43021762D01*
X17215186Y-43006727D01*
X17215055Y-43004732D01*
X17216718Y-43003620D01*
X17217447Y-43003707D01*
X17277788Y-43022602D01*
X17342690Y-43003545D01*
X17344633Y-43004017D01*
G37*
G36*
X16694633Y-43004017D02*
G01*
X16695197Y-43005936D01*
X16694916Y-43006575D01*
X16684767Y-43021763D01*
X16681000Y-43040699D01*
X16681000Y-44515301D01*
X16684767Y-44534238D01*
X16694814Y-44549273D01*
X16694945Y-44551268D01*
X16693282Y-44552380D01*
X16692553Y-44552293D01*
X16632212Y-44533398D01*
X16567310Y-44552455D01*
X16565367Y-44551983D01*
X16564803Y-44550064D01*
X16565084Y-44549425D01*
X16575233Y-44534237D01*
X16579000Y-44515301D01*
X16579000Y-43040699D01*
X16575233Y-43021762D01*
X16565186Y-43006727D01*
X16565055Y-43004732D01*
X16566718Y-43003620D01*
X16567447Y-43003707D01*
X16627788Y-43022602D01*
X16692690Y-43003545D01*
X16694633Y-43004017D01*
G37*
G36*
X17994633Y-43004017D02*
G01*
X17995197Y-43005936D01*
X17994916Y-43006575D01*
X17984767Y-43021763D01*
X17981000Y-43040699D01*
X17981000Y-44515301D01*
X17984767Y-44534238D01*
X17994814Y-44549273D01*
X17994945Y-44551268D01*
X17993282Y-44552380D01*
X17992553Y-44552293D01*
X17932212Y-44533398D01*
X17867310Y-44552455D01*
X17865367Y-44551983D01*
X17864803Y-44550064D01*
X17865084Y-44549425D01*
X17875233Y-44534237D01*
X17879000Y-44515301D01*
X17879000Y-43040699D01*
X17875233Y-43021762D01*
X17865186Y-43006727D01*
X17865055Y-43004732D01*
X17866718Y-43003620D01*
X17867447Y-43003707D01*
X17927788Y-43022602D01*
X17992690Y-43003545D01*
X17994633Y-43004017D01*
G37*
G36*
X16044633Y-43004017D02*
G01*
X16045197Y-43005936D01*
X16044916Y-43006575D01*
X16034767Y-43021763D01*
X16031000Y-43040699D01*
X16031000Y-44515301D01*
X16034767Y-44534238D01*
X16044814Y-44549273D01*
X16044945Y-44551268D01*
X16043282Y-44552380D01*
X16042553Y-44552293D01*
X15982212Y-44533398D01*
X15917310Y-44552455D01*
X15915367Y-44551983D01*
X15914803Y-44550064D01*
X15915084Y-44549425D01*
X15925233Y-44534237D01*
X15929000Y-44515301D01*
X15929000Y-43040699D01*
X15925233Y-43021762D01*
X15915186Y-43006727D01*
X15915055Y-43004732D01*
X15916718Y-43003620D01*
X15917447Y-43003707D01*
X15977788Y-43022602D01*
X16042690Y-43003545D01*
X16044633Y-43004017D01*
G37*
G36*
X19944633Y-43004017D02*
G01*
X19945197Y-43005936D01*
X19944916Y-43006575D01*
X19934767Y-43021763D01*
X19931000Y-43040699D01*
X19931000Y-44515301D01*
X19934767Y-44534238D01*
X19944814Y-44549273D01*
X19944945Y-44551268D01*
X19943282Y-44552380D01*
X19942553Y-44552293D01*
X19882212Y-44533398D01*
X19817310Y-44552455D01*
X19815367Y-44551983D01*
X19814803Y-44550064D01*
X19815084Y-44549425D01*
X19825233Y-44534237D01*
X19829000Y-44515301D01*
X19829000Y-43040699D01*
X19825233Y-43021762D01*
X19815186Y-43006727D01*
X19815055Y-43004732D01*
X19816718Y-43003620D01*
X19817447Y-43003707D01*
X19877788Y-43022602D01*
X19942690Y-43003545D01*
X19944633Y-43004017D01*
G37*
G36*
X18644633Y-43004017D02*
G01*
X18645197Y-43005936D01*
X18644916Y-43006575D01*
X18634767Y-43021763D01*
X18631000Y-43040699D01*
X18631000Y-44515301D01*
X18634767Y-44534238D01*
X18644814Y-44549273D01*
X18644945Y-44551268D01*
X18643282Y-44552380D01*
X18642553Y-44552293D01*
X18582212Y-44533398D01*
X18517310Y-44552455D01*
X18515367Y-44551983D01*
X18514803Y-44550064D01*
X18515084Y-44549425D01*
X18525233Y-44534237D01*
X18529000Y-44515301D01*
X18529000Y-43040699D01*
X18525233Y-43021762D01*
X18515186Y-43006727D01*
X18515055Y-43004732D01*
X18516718Y-43003620D01*
X18517447Y-43003707D01*
X18577788Y-43022602D01*
X18642690Y-43003545D01*
X18644633Y-43004017D01*
G37*
G36*
X19294633Y-43004017D02*
G01*
X19295197Y-43005936D01*
X19294916Y-43006575D01*
X19284767Y-43021763D01*
X19281000Y-43040699D01*
X19281000Y-44515301D01*
X19284767Y-44534238D01*
X19294814Y-44549273D01*
X19294945Y-44551268D01*
X19293282Y-44552380D01*
X19292553Y-44552293D01*
X19232212Y-44533398D01*
X19167310Y-44552455D01*
X19165367Y-44551983D01*
X19164803Y-44550064D01*
X19165084Y-44549425D01*
X19175233Y-44534237D01*
X19179000Y-44515301D01*
X19179000Y-43040699D01*
X19175233Y-43021762D01*
X19165186Y-43006727D01*
X19165055Y-43004732D01*
X19166718Y-43003620D01*
X19167447Y-43003707D01*
X19227788Y-43022602D01*
X19292690Y-43003545D01*
X19294633Y-43004017D01*
G37*
G36*
X61330267Y-39482886D02*
G01*
X61341262Y-39490233D01*
X61360199Y-39494000D01*
X62459801Y-39494000D01*
X62478738Y-39490233D01*
X62489733Y-39482886D01*
X62491729Y-39482755D01*
X62492840Y-39484418D01*
X62492507Y-39485660D01*
X62483291Y-39499452D01*
X62485031Y-39500615D01*
X62485916Y-39502409D01*
X62485455Y-39503560D01*
X62470922Y-39520952D01*
X62462296Y-39589670D01*
X62485082Y-39637288D01*
X62484928Y-39639282D01*
X62484389Y-39639814D01*
X62483291Y-39640548D01*
X62492507Y-39654340D01*
X62492638Y-39656336D01*
X62490975Y-39657447D01*
X62489733Y-39657114D01*
X62478738Y-39649767D01*
X62459801Y-39646000D01*
X61360199Y-39646000D01*
X61341262Y-39649767D01*
X61330267Y-39657114D01*
X61328271Y-39657245D01*
X61327160Y-39655582D01*
X61327493Y-39654340D01*
X61336709Y-39640548D01*
X61334969Y-39639385D01*
X61334084Y-39637591D01*
X61334545Y-39636440D01*
X61349078Y-39619048D01*
X61357704Y-39550330D01*
X61334918Y-39502712D01*
X61335072Y-39500718D01*
X61335611Y-39500186D01*
X61336709Y-39499452D01*
X61327493Y-39485660D01*
X61327362Y-39483664D01*
X61329025Y-39482553D01*
X61330267Y-39482886D01*
G37*
G36*
X67030267Y-39482886D02*
G01*
X67041262Y-39490233D01*
X67060199Y-39494000D01*
X68159801Y-39494000D01*
X68178738Y-39490233D01*
X68189733Y-39482886D01*
X68191729Y-39482755D01*
X68192840Y-39484418D01*
X68192507Y-39485660D01*
X68183291Y-39499452D01*
X68185031Y-39500615D01*
X68185916Y-39502409D01*
X68185455Y-39503560D01*
X68170922Y-39520952D01*
X68162296Y-39589670D01*
X68185082Y-39637288D01*
X68184928Y-39639282D01*
X68184389Y-39639814D01*
X68183291Y-39640548D01*
X68192507Y-39654340D01*
X68192638Y-39656336D01*
X68190975Y-39657447D01*
X68189733Y-39657114D01*
X68178738Y-39649767D01*
X68159801Y-39646000D01*
X67060199Y-39646000D01*
X67041262Y-39649767D01*
X67030267Y-39657114D01*
X67028271Y-39657245D01*
X67027160Y-39655582D01*
X67027493Y-39654340D01*
X67036709Y-39640548D01*
X67034969Y-39639385D01*
X67034084Y-39637591D01*
X67034545Y-39636440D01*
X67049078Y-39619048D01*
X67057704Y-39550330D01*
X67034918Y-39502712D01*
X67035072Y-39500718D01*
X67035611Y-39500186D01*
X67036709Y-39499452D01*
X67027493Y-39485660D01*
X67027362Y-39483664D01*
X67029025Y-39482553D01*
X67030267Y-39482886D01*
G37*
G36*
X67030267Y-38832886D02*
G01*
X67041262Y-38840233D01*
X67060199Y-38844000D01*
X68159801Y-38844000D01*
X68178738Y-38840233D01*
X68189733Y-38832886D01*
X68191729Y-38832755D01*
X68192840Y-38834418D01*
X68192507Y-38835660D01*
X68183291Y-38849452D01*
X68185031Y-38850615D01*
X68185916Y-38852409D01*
X68185455Y-38853560D01*
X68170922Y-38870952D01*
X68162296Y-38939670D01*
X68185082Y-38987288D01*
X68184928Y-38989282D01*
X68184389Y-38989814D01*
X68183291Y-38990548D01*
X68192507Y-39004340D01*
X68192638Y-39006336D01*
X68190975Y-39007447D01*
X68189733Y-39007114D01*
X68178738Y-38999767D01*
X68159801Y-38996000D01*
X67060199Y-38996000D01*
X67041262Y-38999767D01*
X67030267Y-39007114D01*
X67028271Y-39007245D01*
X67027160Y-39005582D01*
X67027493Y-39004340D01*
X67036709Y-38990548D01*
X67034969Y-38989385D01*
X67034084Y-38987591D01*
X67034545Y-38986440D01*
X67049078Y-38969048D01*
X67057704Y-38900330D01*
X67034918Y-38852712D01*
X67035072Y-38850718D01*
X67035611Y-38850186D01*
X67036709Y-38849452D01*
X67027493Y-38835660D01*
X67027362Y-38833664D01*
X67029025Y-38832553D01*
X67030267Y-38832886D01*
G37*
G36*
X61330267Y-38832886D02*
G01*
X61341262Y-38840233D01*
X61360199Y-38844000D01*
X62459801Y-38844000D01*
X62478738Y-38840233D01*
X62489733Y-38832886D01*
X62491729Y-38832755D01*
X62492840Y-38834418D01*
X62492507Y-38835660D01*
X62483291Y-38849452D01*
X62485031Y-38850615D01*
X62485916Y-38852409D01*
X62485455Y-38853560D01*
X62470922Y-38870952D01*
X62462296Y-38939670D01*
X62485082Y-38987288D01*
X62484928Y-38989282D01*
X62484389Y-38989814D01*
X62483291Y-38990548D01*
X62492507Y-39004340D01*
X62492638Y-39006336D01*
X62490975Y-39007447D01*
X62489733Y-39007114D01*
X62478738Y-38999767D01*
X62459801Y-38996000D01*
X61360199Y-38996000D01*
X61341262Y-38999767D01*
X61330267Y-39007114D01*
X61328271Y-39007245D01*
X61327160Y-39005582D01*
X61327493Y-39004340D01*
X61336709Y-38990548D01*
X61334969Y-38989385D01*
X61334084Y-38987591D01*
X61334545Y-38986440D01*
X61349078Y-38969048D01*
X61357704Y-38900330D01*
X61334918Y-38852712D01*
X61335072Y-38850718D01*
X61335611Y-38850186D01*
X61336709Y-38849452D01*
X61327493Y-38835660D01*
X61327362Y-38833664D01*
X61329025Y-38832553D01*
X61330267Y-38832886D01*
G37*
G36*
X18644633Y-37128017D02*
G01*
X18645197Y-37129936D01*
X18644916Y-37130575D01*
X18634767Y-37145763D01*
X18631000Y-37164699D01*
X18631000Y-38639301D01*
X18634767Y-38658238D01*
X18644814Y-38673273D01*
X18644945Y-38675268D01*
X18643282Y-38676380D01*
X18642553Y-38676293D01*
X18582212Y-38657398D01*
X18517310Y-38676455D01*
X18515367Y-38675983D01*
X18514803Y-38674064D01*
X18515084Y-38673425D01*
X18525233Y-38658237D01*
X18529000Y-38639301D01*
X18529000Y-37164699D01*
X18525233Y-37145762D01*
X18515186Y-37130727D01*
X18515055Y-37128732D01*
X18516718Y-37127620D01*
X18517447Y-37127707D01*
X18577788Y-37146602D01*
X18642690Y-37127545D01*
X18644633Y-37128017D01*
G37*
G36*
X19944633Y-37128017D02*
G01*
X19945197Y-37129936D01*
X19944916Y-37130575D01*
X19934767Y-37145763D01*
X19931000Y-37164699D01*
X19931000Y-38639301D01*
X19934767Y-38658238D01*
X19944814Y-38673273D01*
X19944945Y-38675268D01*
X19943282Y-38676380D01*
X19942553Y-38676293D01*
X19882212Y-38657398D01*
X19817310Y-38676455D01*
X19815367Y-38675983D01*
X19814803Y-38674064D01*
X19815084Y-38673425D01*
X19825233Y-38658237D01*
X19829000Y-38639301D01*
X19829000Y-37164699D01*
X19825233Y-37145762D01*
X19815186Y-37130727D01*
X19815055Y-37128732D01*
X19816718Y-37127620D01*
X19817447Y-37127707D01*
X19877788Y-37146602D01*
X19942690Y-37127545D01*
X19944633Y-37128017D01*
G37*
G36*
X20594633Y-37128017D02*
G01*
X20595197Y-37129936D01*
X20594916Y-37130575D01*
X20584767Y-37145763D01*
X20581000Y-37164699D01*
X20581000Y-38639301D01*
X20584767Y-38658238D01*
X20594814Y-38673273D01*
X20594945Y-38675268D01*
X20593282Y-38676380D01*
X20592553Y-38676293D01*
X20532212Y-38657398D01*
X20467310Y-38676455D01*
X20465367Y-38675983D01*
X20464803Y-38674064D01*
X20465084Y-38673425D01*
X20475233Y-38658237D01*
X20479000Y-38639301D01*
X20479000Y-37164699D01*
X20475233Y-37145762D01*
X20465186Y-37130727D01*
X20465055Y-37128732D01*
X20466718Y-37127620D01*
X20467447Y-37127707D01*
X20527788Y-37146602D01*
X20592690Y-37127545D01*
X20594633Y-37128017D01*
G37*
G36*
X21244633Y-37128017D02*
G01*
X21245197Y-37129936D01*
X21244916Y-37130575D01*
X21234767Y-37145763D01*
X21231000Y-37164699D01*
X21231000Y-38639301D01*
X21234767Y-38658238D01*
X21244814Y-38673273D01*
X21244945Y-38675268D01*
X21243282Y-38676380D01*
X21242553Y-38676293D01*
X21182212Y-38657398D01*
X21117310Y-38676455D01*
X21115367Y-38675983D01*
X21114803Y-38674064D01*
X21115084Y-38673425D01*
X21125233Y-38658237D01*
X21129000Y-38639301D01*
X21129000Y-37164699D01*
X21125233Y-37145762D01*
X21115186Y-37130727D01*
X21115055Y-37128732D01*
X21116718Y-37127620D01*
X21117447Y-37127707D01*
X21177788Y-37146602D01*
X21242690Y-37127545D01*
X21244633Y-37128017D01*
G37*
G36*
X16044633Y-37128017D02*
G01*
X16045197Y-37129936D01*
X16044916Y-37130575D01*
X16034767Y-37145763D01*
X16031000Y-37164699D01*
X16031000Y-38639301D01*
X16034767Y-38658238D01*
X16044814Y-38673273D01*
X16044945Y-38675268D01*
X16043282Y-38676380D01*
X16042553Y-38676293D01*
X15982212Y-38657398D01*
X15917310Y-38676455D01*
X15915367Y-38675983D01*
X15914803Y-38674064D01*
X15915084Y-38673425D01*
X15925233Y-38658237D01*
X15929000Y-38639301D01*
X15929000Y-37164699D01*
X15925233Y-37145762D01*
X15915186Y-37130727D01*
X15915055Y-37128732D01*
X15916718Y-37127620D01*
X15917447Y-37127707D01*
X15977788Y-37146602D01*
X16042690Y-37127545D01*
X16044633Y-37128017D01*
G37*
G36*
X17344633Y-37128017D02*
G01*
X17345197Y-37129936D01*
X17344916Y-37130575D01*
X17334767Y-37145763D01*
X17331000Y-37164699D01*
X17331000Y-38639301D01*
X17334767Y-38658238D01*
X17344814Y-38673273D01*
X17344945Y-38675268D01*
X17343282Y-38676380D01*
X17342553Y-38676293D01*
X17282212Y-38657398D01*
X17217310Y-38676455D01*
X17215367Y-38675983D01*
X17214803Y-38674064D01*
X17215084Y-38673425D01*
X17225233Y-38658237D01*
X17229000Y-38639301D01*
X17229000Y-37164699D01*
X17225233Y-37145762D01*
X17215186Y-37130727D01*
X17215055Y-37128732D01*
X17216718Y-37127620D01*
X17217447Y-37127707D01*
X17277788Y-37146602D01*
X17342690Y-37127545D01*
X17344633Y-37128017D01*
G37*
G36*
X16694633Y-37128017D02*
G01*
X16695197Y-37129936D01*
X16694916Y-37130575D01*
X16684767Y-37145763D01*
X16681000Y-37164699D01*
X16681000Y-38639301D01*
X16684767Y-38658238D01*
X16694814Y-38673273D01*
X16694945Y-38675268D01*
X16693282Y-38676380D01*
X16692553Y-38676293D01*
X16632212Y-38657398D01*
X16567310Y-38676455D01*
X16565367Y-38675983D01*
X16564803Y-38674064D01*
X16565084Y-38673425D01*
X16575233Y-38658237D01*
X16579000Y-38639301D01*
X16579000Y-37164699D01*
X16575233Y-37145762D01*
X16565186Y-37130727D01*
X16565055Y-37128732D01*
X16566718Y-37127620D01*
X16567447Y-37127707D01*
X16627788Y-37146602D01*
X16692690Y-37127545D01*
X16694633Y-37128017D01*
G37*
G36*
X19294633Y-37128017D02*
G01*
X19295197Y-37129936D01*
X19294916Y-37130575D01*
X19284767Y-37145763D01*
X19281000Y-37164699D01*
X19281000Y-38639301D01*
X19284767Y-38658238D01*
X19294814Y-38673273D01*
X19294945Y-38675268D01*
X19293282Y-38676380D01*
X19292553Y-38676293D01*
X19232212Y-38657398D01*
X19167310Y-38676455D01*
X19165367Y-38675983D01*
X19164803Y-38674064D01*
X19165084Y-38673425D01*
X19175233Y-38658237D01*
X19179000Y-38639301D01*
X19179000Y-37164699D01*
X19175233Y-37145762D01*
X19165186Y-37130727D01*
X19165055Y-37128732D01*
X19166718Y-37127620D01*
X19167447Y-37127707D01*
X19227788Y-37146602D01*
X19292690Y-37127545D01*
X19294633Y-37128017D01*
G37*
G36*
X17994633Y-37128017D02*
G01*
X17995197Y-37129936D01*
X17994916Y-37130575D01*
X17984767Y-37145763D01*
X17981000Y-37164699D01*
X17981000Y-38639301D01*
X17984767Y-38658238D01*
X17994814Y-38673273D01*
X17994945Y-38675268D01*
X17993282Y-38676380D01*
X17992553Y-38676293D01*
X17932212Y-38657398D01*
X17867310Y-38676455D01*
X17865367Y-38675983D01*
X17864803Y-38674064D01*
X17865084Y-38673425D01*
X17875233Y-38658237D01*
X17879000Y-38639301D01*
X17879000Y-37164699D01*
X17875233Y-37145762D01*
X17865186Y-37130727D01*
X17865055Y-37128732D01*
X17866718Y-37127620D01*
X17867447Y-37127707D01*
X17927788Y-37146602D01*
X17992690Y-37127545D01*
X17994633Y-37128017D01*
G37*
G36*
X61330267Y-38182886D02*
G01*
X61341262Y-38190233D01*
X61360199Y-38194000D01*
X62459801Y-38194000D01*
X62478738Y-38190233D01*
X62489733Y-38182886D01*
X62491729Y-38182755D01*
X62492840Y-38184418D01*
X62492507Y-38185660D01*
X62483291Y-38199452D01*
X62485031Y-38200615D01*
X62485916Y-38202409D01*
X62485455Y-38203560D01*
X62470922Y-38220952D01*
X62462296Y-38289670D01*
X62485082Y-38337288D01*
X62484928Y-38339282D01*
X62484389Y-38339814D01*
X62483291Y-38340548D01*
X62492507Y-38354340D01*
X62492638Y-38356336D01*
X62490975Y-38357447D01*
X62489733Y-38357114D01*
X62478738Y-38349767D01*
X62459801Y-38346000D01*
X61360199Y-38346000D01*
X61341262Y-38349767D01*
X61330267Y-38357114D01*
X61328271Y-38357245D01*
X61327160Y-38355582D01*
X61327493Y-38354340D01*
X61336709Y-38340548D01*
X61334969Y-38339385D01*
X61334084Y-38337591D01*
X61334545Y-38336440D01*
X61349078Y-38319048D01*
X61357704Y-38250330D01*
X61334918Y-38202712D01*
X61335072Y-38200718D01*
X61335611Y-38200186D01*
X61336709Y-38199452D01*
X61327493Y-38185660D01*
X61327362Y-38183664D01*
X61329025Y-38182553D01*
X61330267Y-38182886D01*
G37*
G36*
X67030267Y-38182886D02*
G01*
X67041262Y-38190233D01*
X67060199Y-38194000D01*
X68159801Y-38194000D01*
X68178738Y-38190233D01*
X68189733Y-38182886D01*
X68191729Y-38182755D01*
X68192840Y-38184418D01*
X68192507Y-38185660D01*
X68183291Y-38199452D01*
X68185031Y-38200615D01*
X68185916Y-38202409D01*
X68185455Y-38203560D01*
X68170922Y-38220952D01*
X68162296Y-38289670D01*
X68185082Y-38337288D01*
X68184928Y-38339282D01*
X68184389Y-38339814D01*
X68183291Y-38340548D01*
X68192507Y-38354340D01*
X68192638Y-38356336D01*
X68190975Y-38357447D01*
X68189733Y-38357114D01*
X68178738Y-38349767D01*
X68159801Y-38346000D01*
X67060199Y-38346000D01*
X67041262Y-38349767D01*
X67030267Y-38357114D01*
X67028271Y-38357245D01*
X67027160Y-38355582D01*
X67027493Y-38354340D01*
X67036709Y-38340548D01*
X67034969Y-38339385D01*
X67034084Y-38337591D01*
X67034545Y-38336440D01*
X67049078Y-38319048D01*
X67057704Y-38250330D01*
X67034918Y-38202712D01*
X67035072Y-38200718D01*
X67035611Y-38200186D01*
X67036709Y-38199452D01*
X67027493Y-38185660D01*
X67027362Y-38183664D01*
X67029025Y-38182553D01*
X67030267Y-38182886D01*
G37*
G36*
X67030267Y-37532886D02*
G01*
X67041262Y-37540233D01*
X67060199Y-37544000D01*
X68159801Y-37544000D01*
X68178738Y-37540233D01*
X68189733Y-37532886D01*
X68191729Y-37532755D01*
X68192840Y-37534418D01*
X68192507Y-37535660D01*
X68183291Y-37549452D01*
X68185031Y-37550615D01*
X68185916Y-37552409D01*
X68185455Y-37553560D01*
X68170922Y-37570952D01*
X68162296Y-37639670D01*
X68185082Y-37687288D01*
X68184928Y-37689282D01*
X68184389Y-37689814D01*
X68183291Y-37690548D01*
X68192507Y-37704340D01*
X68192638Y-37706336D01*
X68190975Y-37707447D01*
X68189733Y-37707114D01*
X68178738Y-37699767D01*
X68159801Y-37696000D01*
X67060199Y-37696000D01*
X67041262Y-37699767D01*
X67030267Y-37707114D01*
X67028271Y-37707245D01*
X67027160Y-37705582D01*
X67027493Y-37704340D01*
X67036709Y-37690548D01*
X67034969Y-37689385D01*
X67034084Y-37687591D01*
X67034545Y-37686440D01*
X67049078Y-37669048D01*
X67057704Y-37600330D01*
X67034918Y-37552712D01*
X67035072Y-37550718D01*
X67035611Y-37550186D01*
X67036709Y-37549452D01*
X67027493Y-37535660D01*
X67027362Y-37533664D01*
X67029025Y-37532553D01*
X67030267Y-37532886D01*
G37*
G36*
X61330267Y-37532886D02*
G01*
X61341262Y-37540233D01*
X61360199Y-37544000D01*
X62459801Y-37544000D01*
X62478738Y-37540233D01*
X62489733Y-37532886D01*
X62491729Y-37532755D01*
X62492840Y-37534418D01*
X62492507Y-37535660D01*
X62483291Y-37549452D01*
X62485031Y-37550615D01*
X62485916Y-37552409D01*
X62485455Y-37553560D01*
X62470922Y-37570952D01*
X62462296Y-37639670D01*
X62485082Y-37687288D01*
X62484928Y-37689282D01*
X62484389Y-37689814D01*
X62483291Y-37690548D01*
X62492507Y-37704340D01*
X62492638Y-37706336D01*
X62490975Y-37707447D01*
X62489733Y-37707114D01*
X62478738Y-37699767D01*
X62459801Y-37696000D01*
X61360199Y-37696000D01*
X61341262Y-37699767D01*
X61330267Y-37707114D01*
X61328271Y-37707245D01*
X61327160Y-37705582D01*
X61327493Y-37704340D01*
X61336709Y-37690548D01*
X61334969Y-37689385D01*
X61334084Y-37687591D01*
X61334545Y-37686440D01*
X61349078Y-37669048D01*
X61357704Y-37600330D01*
X61334918Y-37552712D01*
X61335072Y-37550718D01*
X61335611Y-37550186D01*
X61336709Y-37549452D01*
X61327493Y-37535660D01*
X61327362Y-37533664D01*
X61329025Y-37532553D01*
X61330267Y-37532886D01*
G37*
G36*
X67030267Y-36882886D02*
G01*
X67041262Y-36890233D01*
X67060199Y-36894000D01*
X68159801Y-36894000D01*
X68178738Y-36890233D01*
X68189733Y-36882886D01*
X68191729Y-36882755D01*
X68192840Y-36884418D01*
X68192507Y-36885660D01*
X68183291Y-36899452D01*
X68185031Y-36900615D01*
X68185916Y-36902409D01*
X68185455Y-36903560D01*
X68170922Y-36920952D01*
X68162296Y-36989670D01*
X68185082Y-37037288D01*
X68184928Y-37039282D01*
X68184389Y-37039814D01*
X68183291Y-37040548D01*
X68192507Y-37054340D01*
X68192638Y-37056336D01*
X68190975Y-37057447D01*
X68189733Y-37057114D01*
X68178738Y-37049767D01*
X68159801Y-37046000D01*
X67060199Y-37046000D01*
X67041262Y-37049767D01*
X67030267Y-37057114D01*
X67028271Y-37057245D01*
X67027160Y-37055582D01*
X67027493Y-37054340D01*
X67036709Y-37040548D01*
X67034969Y-37039385D01*
X67034084Y-37037591D01*
X67034545Y-37036440D01*
X67049078Y-37019048D01*
X67057704Y-36950330D01*
X67034918Y-36902712D01*
X67035072Y-36900718D01*
X67035611Y-36900186D01*
X67036709Y-36899452D01*
X67027493Y-36885660D01*
X67027362Y-36883664D01*
X67029025Y-36882553D01*
X67030267Y-36882886D01*
G37*
G36*
X61330267Y-36882886D02*
G01*
X61341262Y-36890233D01*
X61360199Y-36894000D01*
X62459801Y-36894000D01*
X62478738Y-36890233D01*
X62489733Y-36882886D01*
X62491729Y-36882755D01*
X62492840Y-36884418D01*
X62492507Y-36885660D01*
X62483291Y-36899452D01*
X62485031Y-36900615D01*
X62485916Y-36902409D01*
X62485455Y-36903560D01*
X62470922Y-36920952D01*
X62462296Y-36989670D01*
X62485082Y-37037288D01*
X62484928Y-37039282D01*
X62484389Y-37039814D01*
X62483291Y-37040548D01*
X62492507Y-37054340D01*
X62492638Y-37056336D01*
X62490975Y-37057447D01*
X62489733Y-37057114D01*
X62478738Y-37049767D01*
X62459801Y-37046000D01*
X61360199Y-37046000D01*
X61341262Y-37049767D01*
X61330267Y-37057114D01*
X61328271Y-37057245D01*
X61327160Y-37055582D01*
X61327493Y-37054340D01*
X61336709Y-37040548D01*
X61334969Y-37039385D01*
X61334084Y-37037591D01*
X61334545Y-37036440D01*
X61349078Y-37019048D01*
X61357704Y-36950330D01*
X61334918Y-36902712D01*
X61335072Y-36900718D01*
X61335611Y-36900186D01*
X61336709Y-36899452D01*
X61327493Y-36885660D01*
X61327362Y-36883664D01*
X61329025Y-36882553D01*
X61330267Y-36882886D01*
G37*
G36*
X61330267Y-36232886D02*
G01*
X61341262Y-36240233D01*
X61360199Y-36244000D01*
X62459801Y-36244000D01*
X62478738Y-36240233D01*
X62489733Y-36232886D01*
X62491729Y-36232755D01*
X62492840Y-36234418D01*
X62492507Y-36235660D01*
X62483291Y-36249452D01*
X62485031Y-36250615D01*
X62485916Y-36252409D01*
X62485455Y-36253560D01*
X62470922Y-36270952D01*
X62462296Y-36339670D01*
X62485082Y-36387288D01*
X62484928Y-36389282D01*
X62484389Y-36389814D01*
X62483291Y-36390548D01*
X62492507Y-36404340D01*
X62492638Y-36406336D01*
X62490975Y-36407447D01*
X62489733Y-36407114D01*
X62478738Y-36399767D01*
X62459801Y-36396000D01*
X61360199Y-36396000D01*
X61341262Y-36399767D01*
X61330267Y-36407114D01*
X61328271Y-36407245D01*
X61327160Y-36405582D01*
X61327493Y-36404340D01*
X61336709Y-36390548D01*
X61334969Y-36389385D01*
X61334084Y-36387591D01*
X61334545Y-36386440D01*
X61349078Y-36369048D01*
X61357704Y-36300330D01*
X61334918Y-36252712D01*
X61335072Y-36250718D01*
X61335611Y-36250186D01*
X61336709Y-36249452D01*
X61327493Y-36235660D01*
X61327362Y-36233664D01*
X61329025Y-36232553D01*
X61330267Y-36232886D01*
G37*
G36*
X67030267Y-36232886D02*
G01*
X67041262Y-36240233D01*
X67060199Y-36244000D01*
X68159801Y-36244000D01*
X68178738Y-36240233D01*
X68189733Y-36232886D01*
X68191729Y-36232755D01*
X68192840Y-36234418D01*
X68192507Y-36235660D01*
X68183291Y-36249452D01*
X68185031Y-36250615D01*
X68185916Y-36252409D01*
X68185455Y-36253560D01*
X68170922Y-36270952D01*
X68162296Y-36339670D01*
X68185082Y-36387288D01*
X68184928Y-36389282D01*
X68184389Y-36389814D01*
X68183291Y-36390548D01*
X68192507Y-36404340D01*
X68192638Y-36406336D01*
X68190975Y-36407447D01*
X68189733Y-36407114D01*
X68178738Y-36399767D01*
X68159801Y-36396000D01*
X67060199Y-36396000D01*
X67041262Y-36399767D01*
X67030267Y-36407114D01*
X67028271Y-36407245D01*
X67027160Y-36405582D01*
X67027493Y-36404340D01*
X67036709Y-36390548D01*
X67034969Y-36389385D01*
X67034084Y-36387591D01*
X67034545Y-36386440D01*
X67049078Y-36369048D01*
X67057704Y-36300330D01*
X67034918Y-36252712D01*
X67035072Y-36250718D01*
X67035611Y-36250186D01*
X67036709Y-36249452D01*
X67027493Y-36235660D01*
X67027362Y-36233664D01*
X67029025Y-36232553D01*
X67030267Y-36232886D01*
G37*
G36*
X61330267Y-35582886D02*
G01*
X61341262Y-35590233D01*
X61360199Y-35594000D01*
X62459801Y-35594000D01*
X62478738Y-35590233D01*
X62489733Y-35582886D01*
X62491729Y-35582755D01*
X62492840Y-35584418D01*
X62492507Y-35585660D01*
X62483291Y-35599452D01*
X62485031Y-35600615D01*
X62485916Y-35602409D01*
X62485455Y-35603560D01*
X62470922Y-35620952D01*
X62462296Y-35689670D01*
X62485082Y-35737288D01*
X62484928Y-35739282D01*
X62484389Y-35739814D01*
X62483291Y-35740548D01*
X62492507Y-35754340D01*
X62492638Y-35756336D01*
X62490975Y-35757447D01*
X62489733Y-35757114D01*
X62478738Y-35749767D01*
X62459801Y-35746000D01*
X61360199Y-35746000D01*
X61341262Y-35749767D01*
X61330267Y-35757114D01*
X61328271Y-35757245D01*
X61327160Y-35755582D01*
X61327493Y-35754340D01*
X61336709Y-35740548D01*
X61334969Y-35739385D01*
X61334084Y-35737591D01*
X61334545Y-35736440D01*
X61349078Y-35719048D01*
X61357704Y-35650330D01*
X61334918Y-35602712D01*
X61335072Y-35600718D01*
X61335611Y-35600186D01*
X61336709Y-35599452D01*
X61327493Y-35585660D01*
X61327362Y-35583664D01*
X61329025Y-35582553D01*
X61330267Y-35582886D01*
G37*
G36*
X67030267Y-35582886D02*
G01*
X67041262Y-35590233D01*
X67060199Y-35594000D01*
X68159801Y-35594000D01*
X68178738Y-35590233D01*
X68189733Y-35582886D01*
X68191729Y-35582755D01*
X68192840Y-35584418D01*
X68192507Y-35585660D01*
X68183291Y-35599452D01*
X68185031Y-35600615D01*
X68185916Y-35602409D01*
X68185455Y-35603560D01*
X68170922Y-35620952D01*
X68162296Y-35689670D01*
X68185082Y-35737288D01*
X68184928Y-35739282D01*
X68184389Y-35739814D01*
X68183291Y-35740548D01*
X68192507Y-35754340D01*
X68192638Y-35756336D01*
X68190975Y-35757447D01*
X68189733Y-35757114D01*
X68178738Y-35749767D01*
X68159801Y-35746000D01*
X67060199Y-35746000D01*
X67041262Y-35749767D01*
X67030267Y-35757114D01*
X67028271Y-35757245D01*
X67027160Y-35755582D01*
X67027493Y-35754340D01*
X67036709Y-35740548D01*
X67034969Y-35739385D01*
X67034084Y-35737591D01*
X67034545Y-35736440D01*
X67049078Y-35719048D01*
X67057704Y-35650330D01*
X67034918Y-35602712D01*
X67035072Y-35600718D01*
X67035611Y-35600186D01*
X67036709Y-35599452D01*
X67027493Y-35585660D01*
X67027362Y-35583664D01*
X67029025Y-35582553D01*
X67030267Y-35582886D01*
G37*
G36*
X61330267Y-34932886D02*
G01*
X61341262Y-34940233D01*
X61360199Y-34944000D01*
X62459801Y-34944000D01*
X62478738Y-34940233D01*
X62489733Y-34932886D01*
X62491729Y-34932755D01*
X62492840Y-34934418D01*
X62492507Y-34935660D01*
X62483291Y-34949452D01*
X62485031Y-34950615D01*
X62485916Y-34952409D01*
X62485455Y-34953560D01*
X62470922Y-34970952D01*
X62462296Y-35039670D01*
X62485082Y-35087288D01*
X62484928Y-35089282D01*
X62484389Y-35089814D01*
X62483291Y-35090548D01*
X62492507Y-35104340D01*
X62492638Y-35106336D01*
X62490975Y-35107447D01*
X62489733Y-35107114D01*
X62478738Y-35099767D01*
X62459801Y-35096000D01*
X61360199Y-35096000D01*
X61341262Y-35099767D01*
X61330267Y-35107114D01*
X61328271Y-35107245D01*
X61327160Y-35105582D01*
X61327493Y-35104340D01*
X61336709Y-35090548D01*
X61334969Y-35089385D01*
X61334084Y-35087591D01*
X61334545Y-35086440D01*
X61349078Y-35069048D01*
X61357704Y-35000330D01*
X61334918Y-34952712D01*
X61335072Y-34950718D01*
X61335611Y-34950186D01*
X61336709Y-34949452D01*
X61327493Y-34935660D01*
X61327362Y-34933664D01*
X61329025Y-34932553D01*
X61330267Y-34932886D01*
G37*
G36*
X67030267Y-34932886D02*
G01*
X67041262Y-34940233D01*
X67060199Y-34944000D01*
X68159801Y-34944000D01*
X68178738Y-34940233D01*
X68189733Y-34932886D01*
X68191729Y-34932755D01*
X68192840Y-34934418D01*
X68192507Y-34935660D01*
X68183291Y-34949452D01*
X68185031Y-34950615D01*
X68185916Y-34952409D01*
X68185455Y-34953560D01*
X68170922Y-34970952D01*
X68162296Y-35039670D01*
X68185082Y-35087288D01*
X68184928Y-35089282D01*
X68184389Y-35089814D01*
X68183291Y-35090548D01*
X68192507Y-35104340D01*
X68192638Y-35106336D01*
X68190975Y-35107447D01*
X68189733Y-35107114D01*
X68178738Y-35099767D01*
X68159801Y-35096000D01*
X67060199Y-35096000D01*
X67041262Y-35099767D01*
X67030267Y-35107114D01*
X67028271Y-35107245D01*
X67027160Y-35105582D01*
X67027493Y-35104340D01*
X67036709Y-35090548D01*
X67034969Y-35089385D01*
X67034084Y-35087591D01*
X67034545Y-35086440D01*
X67049078Y-35069048D01*
X67057704Y-35000330D01*
X67034918Y-34952712D01*
X67035072Y-34950718D01*
X67035611Y-34950186D01*
X67036709Y-34949452D01*
X67027493Y-34935660D01*
X67027362Y-34933664D01*
X67029025Y-34932553D01*
X67030267Y-34932886D01*
G37*
G36*
X61330267Y-34282886D02*
G01*
X61341262Y-34290233D01*
X61360199Y-34294000D01*
X62459801Y-34294000D01*
X62478738Y-34290233D01*
X62489733Y-34282886D01*
X62491729Y-34282755D01*
X62492840Y-34284418D01*
X62492507Y-34285660D01*
X62483291Y-34299452D01*
X62485031Y-34300615D01*
X62485916Y-34302409D01*
X62485455Y-34303560D01*
X62470922Y-34320952D01*
X62462296Y-34389670D01*
X62485082Y-34437288D01*
X62484928Y-34439282D01*
X62484389Y-34439814D01*
X62483291Y-34440548D01*
X62492507Y-34454340D01*
X62492638Y-34456336D01*
X62490975Y-34457447D01*
X62489733Y-34457114D01*
X62478738Y-34449767D01*
X62459801Y-34446000D01*
X61360199Y-34446000D01*
X61341262Y-34449767D01*
X61330267Y-34457114D01*
X61328271Y-34457245D01*
X61327160Y-34455582D01*
X61327493Y-34454340D01*
X61336709Y-34440548D01*
X61334969Y-34439385D01*
X61334084Y-34437591D01*
X61334545Y-34436440D01*
X61349078Y-34419048D01*
X61357704Y-34350330D01*
X61334918Y-34302712D01*
X61335072Y-34300718D01*
X61335611Y-34300186D01*
X61336709Y-34299452D01*
X61327493Y-34285660D01*
X61327362Y-34283664D01*
X61329025Y-34282553D01*
X61330267Y-34282886D01*
G37*
G36*
X67030267Y-34282886D02*
G01*
X67041262Y-34290233D01*
X67060199Y-34294000D01*
X68159801Y-34294000D01*
X68178738Y-34290233D01*
X68189733Y-34282886D01*
X68191729Y-34282755D01*
X68192840Y-34284418D01*
X68192507Y-34285660D01*
X68183291Y-34299452D01*
X68185031Y-34300615D01*
X68185916Y-34302409D01*
X68185455Y-34303560D01*
X68170922Y-34320952D01*
X68162296Y-34389670D01*
X68185082Y-34437288D01*
X68184928Y-34439282D01*
X68184389Y-34439814D01*
X68183291Y-34440548D01*
X68192507Y-34454340D01*
X68192638Y-34456336D01*
X68190975Y-34457447D01*
X68189733Y-34457114D01*
X68178738Y-34449767D01*
X68159801Y-34446000D01*
X67060199Y-34446000D01*
X67041262Y-34449767D01*
X67030267Y-34457114D01*
X67028271Y-34457245D01*
X67027160Y-34455582D01*
X67027493Y-34454340D01*
X67036709Y-34440548D01*
X67034969Y-34439385D01*
X67034084Y-34437591D01*
X67034545Y-34436440D01*
X67049078Y-34419048D01*
X67057704Y-34350330D01*
X67034918Y-34302712D01*
X67035072Y-34300718D01*
X67035611Y-34300186D01*
X67036709Y-34299452D01*
X67027493Y-34285660D01*
X67027362Y-34283664D01*
X67029025Y-34282553D01*
X67030267Y-34282886D01*
G37*
G36*
X67030267Y-33632886D02*
G01*
X67041262Y-33640233D01*
X67060199Y-33644000D01*
X68159801Y-33644000D01*
X68178738Y-33640233D01*
X68189733Y-33632886D01*
X68191729Y-33632755D01*
X68192840Y-33634418D01*
X68192507Y-33635660D01*
X68183291Y-33649452D01*
X68185031Y-33650615D01*
X68185916Y-33652409D01*
X68185455Y-33653560D01*
X68170922Y-33670952D01*
X68162296Y-33739670D01*
X68185082Y-33787288D01*
X68184928Y-33789282D01*
X68184389Y-33789814D01*
X68183291Y-33790548D01*
X68192507Y-33804340D01*
X68192638Y-33806336D01*
X68190975Y-33807447D01*
X68189733Y-33807114D01*
X68178738Y-33799767D01*
X68159801Y-33796000D01*
X67060199Y-33796000D01*
X67041262Y-33799767D01*
X67030267Y-33807114D01*
X67028271Y-33807245D01*
X67027160Y-33805582D01*
X67027493Y-33804340D01*
X67036709Y-33790548D01*
X67034969Y-33789385D01*
X67034084Y-33787591D01*
X67034545Y-33786440D01*
X67049078Y-33769048D01*
X67057704Y-33700330D01*
X67034918Y-33652712D01*
X67035072Y-33650718D01*
X67035611Y-33650186D01*
X67036709Y-33649452D01*
X67027493Y-33635660D01*
X67027362Y-33633664D01*
X67029025Y-33632553D01*
X67030267Y-33632886D01*
G37*
G36*
X61330267Y-33632886D02*
G01*
X61341262Y-33640233D01*
X61360199Y-33644000D01*
X62459801Y-33644000D01*
X62478738Y-33640233D01*
X62489733Y-33632886D01*
X62491729Y-33632755D01*
X62492840Y-33634418D01*
X62492507Y-33635660D01*
X62483291Y-33649452D01*
X62485031Y-33650615D01*
X62485916Y-33652409D01*
X62485455Y-33653560D01*
X62470922Y-33670952D01*
X62462296Y-33739670D01*
X62485082Y-33787288D01*
X62484928Y-33789282D01*
X62484389Y-33789814D01*
X62483291Y-33790548D01*
X62492507Y-33804340D01*
X62492638Y-33806336D01*
X62490975Y-33807447D01*
X62489733Y-33807114D01*
X62478738Y-33799767D01*
X62459801Y-33796000D01*
X61360199Y-33796000D01*
X61341262Y-33799767D01*
X61330267Y-33807114D01*
X61328271Y-33807245D01*
X61327160Y-33805582D01*
X61327493Y-33804340D01*
X61336709Y-33790548D01*
X61334969Y-33789385D01*
X61334084Y-33787591D01*
X61334545Y-33786440D01*
X61349078Y-33769048D01*
X61357704Y-33700330D01*
X61334918Y-33652712D01*
X61335072Y-33650718D01*
X61335611Y-33650186D01*
X61336709Y-33649452D01*
X61327493Y-33635660D01*
X61327362Y-33633664D01*
X61329025Y-33632553D01*
X61330267Y-33632886D01*
G37*
G36*
X61330267Y-32982886D02*
G01*
X61341262Y-32990233D01*
X61360199Y-32994000D01*
X62459801Y-32994000D01*
X62478738Y-32990233D01*
X62489733Y-32982886D01*
X62491729Y-32982755D01*
X62492840Y-32984418D01*
X62492507Y-32985660D01*
X62483291Y-32999452D01*
X62485031Y-33000615D01*
X62485916Y-33002409D01*
X62485455Y-33003560D01*
X62470922Y-33020952D01*
X62462296Y-33089670D01*
X62485082Y-33137288D01*
X62484928Y-33139282D01*
X62484389Y-33139814D01*
X62483291Y-33140548D01*
X62492507Y-33154340D01*
X62492638Y-33156336D01*
X62490975Y-33157447D01*
X62489733Y-33157114D01*
X62478738Y-33149767D01*
X62459801Y-33146000D01*
X61360199Y-33146000D01*
X61341262Y-33149767D01*
X61330267Y-33157114D01*
X61328271Y-33157245D01*
X61327160Y-33155582D01*
X61327493Y-33154340D01*
X61336709Y-33140548D01*
X61334969Y-33139385D01*
X61334084Y-33137591D01*
X61334545Y-33136440D01*
X61349078Y-33119048D01*
X61357704Y-33050330D01*
X61334918Y-33002712D01*
X61335072Y-33000718D01*
X61335611Y-33000186D01*
X61336709Y-32999452D01*
X61327493Y-32985660D01*
X61327362Y-32983664D01*
X61329025Y-32982553D01*
X61330267Y-32982886D01*
G37*
G36*
X67030267Y-32982886D02*
G01*
X67041262Y-32990233D01*
X67060199Y-32994000D01*
X68159801Y-32994000D01*
X68178738Y-32990233D01*
X68189733Y-32982886D01*
X68191729Y-32982755D01*
X68192840Y-32984418D01*
X68192507Y-32985660D01*
X68183291Y-32999452D01*
X68185031Y-33000615D01*
X68185916Y-33002409D01*
X68185455Y-33003560D01*
X68170922Y-33020952D01*
X68162296Y-33089670D01*
X68185082Y-33137288D01*
X68184928Y-33139282D01*
X68184389Y-33139814D01*
X68183291Y-33140548D01*
X68192507Y-33154340D01*
X68192638Y-33156336D01*
X68190975Y-33157447D01*
X68189733Y-33157114D01*
X68178738Y-33149767D01*
X68159801Y-33146000D01*
X67060199Y-33146000D01*
X67041262Y-33149767D01*
X67030267Y-33157114D01*
X67028271Y-33157245D01*
X67027160Y-33155582D01*
X67027493Y-33154340D01*
X67036709Y-33140548D01*
X67034969Y-33139385D01*
X67034084Y-33137591D01*
X67034545Y-33136440D01*
X67049078Y-33119048D01*
X67057704Y-33050330D01*
X67034918Y-33002712D01*
X67035072Y-33000718D01*
X67035611Y-33000186D01*
X67036709Y-32999452D01*
X67027493Y-32985660D01*
X67027362Y-32983664D01*
X67029025Y-32982553D01*
X67030267Y-32982886D01*
G37*
G36*
X61330267Y-32332886D02*
G01*
X61341262Y-32340233D01*
X61360199Y-32344000D01*
X62459801Y-32344000D01*
X62478738Y-32340233D01*
X62489733Y-32332886D01*
X62491729Y-32332755D01*
X62492840Y-32334418D01*
X62492507Y-32335660D01*
X62483291Y-32349452D01*
X62485031Y-32350615D01*
X62485916Y-32352409D01*
X62485455Y-32353560D01*
X62470922Y-32370952D01*
X62462296Y-32439670D01*
X62485082Y-32487288D01*
X62484928Y-32489282D01*
X62484389Y-32489814D01*
X62483291Y-32490548D01*
X62492507Y-32504340D01*
X62492638Y-32506336D01*
X62490975Y-32507447D01*
X62489733Y-32507114D01*
X62478738Y-32499767D01*
X62459801Y-32496000D01*
X61360199Y-32496000D01*
X61341262Y-32499767D01*
X61330267Y-32507114D01*
X61328271Y-32507245D01*
X61327160Y-32505582D01*
X61327493Y-32504340D01*
X61336709Y-32490548D01*
X61334969Y-32489385D01*
X61334084Y-32487591D01*
X61334545Y-32486440D01*
X61349078Y-32469048D01*
X61357704Y-32400330D01*
X61334918Y-32352712D01*
X61335072Y-32350718D01*
X61335611Y-32350186D01*
X61336709Y-32349452D01*
X61327493Y-32335660D01*
X61327362Y-32333664D01*
X61329025Y-32332553D01*
X61330267Y-32332886D01*
G37*
G36*
X67030267Y-32332886D02*
G01*
X67041262Y-32340233D01*
X67060199Y-32344000D01*
X68159801Y-32344000D01*
X68178738Y-32340233D01*
X68189733Y-32332886D01*
X68191729Y-32332755D01*
X68192840Y-32334418D01*
X68192507Y-32335660D01*
X68183291Y-32349452D01*
X68185031Y-32350615D01*
X68185916Y-32352409D01*
X68185455Y-32353560D01*
X68170922Y-32370952D01*
X68162296Y-32439670D01*
X68185082Y-32487288D01*
X68184928Y-32489282D01*
X68184389Y-32489814D01*
X68183291Y-32490548D01*
X68192507Y-32504340D01*
X68192638Y-32506336D01*
X68190975Y-32507447D01*
X68189733Y-32507114D01*
X68178738Y-32499767D01*
X68159801Y-32496000D01*
X67060199Y-32496000D01*
X67041262Y-32499767D01*
X67030267Y-32507114D01*
X67028271Y-32507245D01*
X67027160Y-32505582D01*
X67027493Y-32504340D01*
X67036709Y-32490548D01*
X67034969Y-32489385D01*
X67034084Y-32487591D01*
X67034545Y-32486440D01*
X67049078Y-32469048D01*
X67057704Y-32400330D01*
X67034918Y-32352712D01*
X67035072Y-32350718D01*
X67035611Y-32350186D01*
X67036709Y-32349452D01*
X67027493Y-32335660D01*
X67027362Y-32333664D01*
X67029025Y-32332553D01*
X67030267Y-32332886D01*
G37*
G36*
X67030267Y-31682886D02*
G01*
X67041262Y-31690233D01*
X67060199Y-31694000D01*
X68159801Y-31694000D01*
X68178738Y-31690233D01*
X68189733Y-31682886D01*
X68191729Y-31682755D01*
X68192840Y-31684418D01*
X68192507Y-31685660D01*
X68183291Y-31699452D01*
X68185031Y-31700615D01*
X68185916Y-31702409D01*
X68185455Y-31703560D01*
X68170922Y-31720952D01*
X68162296Y-31789670D01*
X68185082Y-31837288D01*
X68184928Y-31839282D01*
X68184389Y-31839814D01*
X68183291Y-31840548D01*
X68192507Y-31854340D01*
X68192638Y-31856336D01*
X68190975Y-31857447D01*
X68189733Y-31857114D01*
X68178738Y-31849767D01*
X68159801Y-31846000D01*
X67060199Y-31846000D01*
X67041262Y-31849767D01*
X67030267Y-31857114D01*
X67028271Y-31857245D01*
X67027160Y-31855582D01*
X67027493Y-31854340D01*
X67036709Y-31840548D01*
X67034969Y-31839385D01*
X67034084Y-31837591D01*
X67034545Y-31836440D01*
X67049078Y-31819048D01*
X67057704Y-31750330D01*
X67034918Y-31702712D01*
X67035072Y-31700718D01*
X67035611Y-31700186D01*
X67036709Y-31699452D01*
X67027493Y-31685660D01*
X67027362Y-31683664D01*
X67029025Y-31682553D01*
X67030267Y-31682886D01*
G37*
G36*
X61330267Y-31682886D02*
G01*
X61341262Y-31690233D01*
X61360199Y-31694000D01*
X62459801Y-31694000D01*
X62478738Y-31690233D01*
X62489733Y-31682886D01*
X62491729Y-31682755D01*
X62492840Y-31684418D01*
X62492507Y-31685660D01*
X62483291Y-31699452D01*
X62485031Y-31700615D01*
X62485916Y-31702409D01*
X62485455Y-31703560D01*
X62470922Y-31720952D01*
X62462296Y-31789670D01*
X62485082Y-31837288D01*
X62484928Y-31839282D01*
X62484389Y-31839814D01*
X62483291Y-31840548D01*
X62492507Y-31854340D01*
X62492638Y-31856336D01*
X62490975Y-31857447D01*
X62489733Y-31857114D01*
X62478738Y-31849767D01*
X62459801Y-31846000D01*
X61360199Y-31846000D01*
X61341262Y-31849767D01*
X61330267Y-31857114D01*
X61328271Y-31857245D01*
X61327160Y-31855582D01*
X61327493Y-31854340D01*
X61336709Y-31840548D01*
X61334969Y-31839385D01*
X61334084Y-31837591D01*
X61334545Y-31836440D01*
X61349078Y-31819048D01*
X61357704Y-31750330D01*
X61334918Y-31702712D01*
X61335072Y-31700718D01*
X61335611Y-31700186D01*
X61336709Y-31699452D01*
X61327493Y-31685660D01*
X61327362Y-31683664D01*
X61329025Y-31682553D01*
X61330267Y-31682886D01*
G37*
G36*
X58742032Y-12393084D02*
G01*
X58742501Y-12393578D01*
X58749880Y-12404620D01*
X58765762Y-12415233D01*
X58784699Y-12419000D01*
X59659301Y-12419000D01*
X59678238Y-12415233D01*
X59689233Y-12407886D01*
X59691229Y-12407755D01*
X59692340Y-12409418D01*
X59692007Y-12410660D01*
X59690326Y-12413177D01*
X59669546Y-12479541D01*
X59690335Y-12550341D01*
X59693007Y-12554340D01*
X59693138Y-12556336D01*
X59691475Y-12557447D01*
X59690233Y-12557114D01*
X59679238Y-12549767D01*
X59660301Y-12546000D01*
X58618251Y-12546000D01*
X58616519Y-12545000D01*
X58616519Y-12543000D01*
X58617688Y-12542081D01*
X58684700Y-12522405D01*
X58730035Y-12470084D01*
X58738851Y-12394457D01*
X58740045Y-12392853D01*
X58742032Y-12393084D01*
G37*
G36*
X56479956Y-12393805D02*
G01*
X56480154Y-12394511D01*
X56486372Y-12464004D01*
X56528842Y-12518675D01*
X56601367Y-12542097D01*
X56602708Y-12543581D01*
X56602093Y-12545484D01*
X56600752Y-12546000D01*
X55559699Y-12546000D01*
X55540762Y-12549767D01*
X55529767Y-12557114D01*
X55527771Y-12557245D01*
X55526660Y-12555582D01*
X55526993Y-12554340D01*
X55529174Y-12551075D01*
X55549954Y-12484711D01*
X55529165Y-12413911D01*
X55526993Y-12410660D01*
X55526862Y-12408664D01*
X55528525Y-12407553D01*
X55529767Y-12407886D01*
X55540762Y-12415233D01*
X55559699Y-12419000D01*
X56434301Y-12419000D01*
X56453238Y-12415233D01*
X56469120Y-12404620D01*
X56476499Y-12393578D01*
X56478293Y-12392693D01*
X56479956Y-12393805D01*
G37*
G36*
X55525575Y-11905084D02*
G01*
X55540763Y-11915233D01*
X55559699Y-11919000D01*
X56434301Y-11919000D01*
X56453238Y-11915233D01*
X56468273Y-11905186D01*
X56470268Y-11905055D01*
X56471380Y-11906718D01*
X56471293Y-11907447D01*
X56452398Y-11967788D01*
X56471455Y-12032690D01*
X56470983Y-12034633D01*
X56469064Y-12035197D01*
X56468425Y-12034916D01*
X56453237Y-12024767D01*
X56434301Y-12021000D01*
X55559699Y-12021000D01*
X55540762Y-12024767D01*
X55525727Y-12034814D01*
X55523732Y-12034945D01*
X55522620Y-12033282D01*
X55522707Y-12032553D01*
X55541602Y-11972212D01*
X55522545Y-11907310D01*
X55523017Y-11905367D01*
X55524936Y-11904803D01*
X55525575Y-11905084D01*
G37*
G36*
X58750575Y-11905084D02*
G01*
X58765763Y-11915233D01*
X58784699Y-11919000D01*
X59659301Y-11919000D01*
X59678238Y-11915233D01*
X59693273Y-11905186D01*
X59695268Y-11905055D01*
X59696380Y-11906718D01*
X59696293Y-11907447D01*
X59677398Y-11967788D01*
X59696455Y-12032690D01*
X59695983Y-12034633D01*
X59694064Y-12035197D01*
X59693425Y-12034916D01*
X59678237Y-12024767D01*
X59659301Y-12021000D01*
X58784699Y-12021000D01*
X58765762Y-12024767D01*
X58750727Y-12034814D01*
X58748732Y-12034945D01*
X58747620Y-12033282D01*
X58747707Y-12032553D01*
X58766602Y-11972212D01*
X58747545Y-11907310D01*
X58748017Y-11905367D01*
X58749936Y-11904803D01*
X58750575Y-11905084D01*
G37*
G36*
X59696711Y-11406831D02*
G01*
X59696624Y-11407560D01*
X59677648Y-11468162D01*
X59696629Y-11532805D01*
X59696157Y-11534748D01*
X59694238Y-11535312D01*
X59693599Y-11535031D01*
X59678238Y-11524767D01*
X59659301Y-11521000D01*
X58784699Y-11521000D01*
X58765762Y-11524767D01*
X58749880Y-11535380D01*
X58742531Y-11546378D01*
X58740737Y-11547263D01*
X58739074Y-11546152D01*
X58738906Y-11544877D01*
X58739564Y-11541566D01*
X58733366Y-11472306D01*
X58690572Y-11419200D01*
X58690264Y-11417224D01*
X58691821Y-11415969D01*
X58692519Y-11415983D01*
X58710199Y-11419500D01*
X59159801Y-11419500D01*
X59162124Y-11419038D01*
X59162514Y-11419000D01*
X59659801Y-11419000D01*
X59678738Y-11415233D01*
X59693604Y-11405299D01*
X59695599Y-11405168D01*
X59696711Y-11406831D01*
G37*
G36*
X55525901Y-11404969D02*
G01*
X55541262Y-11415233D01*
X55560199Y-11419000D01*
X56059801Y-11419000D01*
X56062124Y-11418538D01*
X56062514Y-11418500D01*
X56509801Y-11418500D01*
X56526758Y-11415127D01*
X56528652Y-11415770D01*
X56529042Y-11417732D01*
X56528683Y-11418372D01*
X56487269Y-11467925D01*
X56479380Y-11541292D01*
X56480092Y-11544873D01*
X56479449Y-11546767D01*
X56477487Y-11547157D01*
X56476467Y-11546374D01*
X56469120Y-11535380D01*
X56453238Y-11524767D01*
X56434301Y-11521000D01*
X55559699Y-11521000D01*
X55540762Y-11524767D01*
X55525896Y-11534701D01*
X55523901Y-11534832D01*
X55522789Y-11533169D01*
X55522876Y-11532440D01*
X55541852Y-11471838D01*
X55522871Y-11407195D01*
X55523343Y-11405252D01*
X55525262Y-11404688D01*
X55525901Y-11404969D01*
G37*
G36*
X58547672Y-10458044D02*
G01*
X58608536Y-10477102D01*
X58672922Y-10458197D01*
X58674865Y-10458669D01*
X58675429Y-10460588D01*
X58675148Y-10461227D01*
X58664767Y-10476762D01*
X58661000Y-10495699D01*
X58661000Y-11370301D01*
X58664767Y-11389238D01*
X58674589Y-11403937D01*
X58674720Y-11405933D01*
X58673057Y-11407044D01*
X58672328Y-11406957D01*
X58611469Y-11387898D01*
X58547078Y-11406803D01*
X58545135Y-11406331D01*
X58544571Y-11404412D01*
X58544852Y-11403773D01*
X58555233Y-11388238D01*
X58559000Y-11369301D01*
X58559000Y-10494699D01*
X58555233Y-10475763D01*
X58545411Y-10461064D01*
X58545280Y-10459069D01*
X58546943Y-10457957D01*
X58547672Y-10458044D01*
G37*
G36*
X57174633Y-10458017D02*
G01*
X57175197Y-10459936D01*
X57174916Y-10460575D01*
X57164767Y-10475763D01*
X57161000Y-10494699D01*
X57161000Y-11369301D01*
X57164767Y-11388238D01*
X57174814Y-11403273D01*
X57174945Y-11405268D01*
X57173282Y-11406380D01*
X57172553Y-11406293D01*
X57112212Y-11387398D01*
X57047310Y-11406455D01*
X57045367Y-11405983D01*
X57044803Y-11404064D01*
X57045084Y-11403425D01*
X57055233Y-11388237D01*
X57059000Y-11369301D01*
X57059000Y-10494699D01*
X57055233Y-10475762D01*
X57045186Y-10460727D01*
X57045055Y-10458732D01*
X57046718Y-10457620D01*
X57047447Y-10457707D01*
X57107788Y-10476602D01*
X57172690Y-10457545D01*
X57174633Y-10458017D01*
G37*
G36*
X58174633Y-10458017D02*
G01*
X58175197Y-10459936D01*
X58174916Y-10460575D01*
X58164767Y-10475763D01*
X58161000Y-10494699D01*
X58161000Y-11369301D01*
X58164767Y-11388238D01*
X58174814Y-11403273D01*
X58174945Y-11405268D01*
X58173282Y-11406380D01*
X58172553Y-11406293D01*
X58112212Y-11387398D01*
X58047310Y-11406455D01*
X58045367Y-11405983D01*
X58044803Y-11404064D01*
X58045084Y-11403425D01*
X58055233Y-11388237D01*
X58059000Y-11369301D01*
X58059000Y-10494699D01*
X58055233Y-10475762D01*
X58045186Y-10460727D01*
X58045055Y-10458732D01*
X58046718Y-10457620D01*
X58047447Y-10457707D01*
X58107788Y-10476602D01*
X58172690Y-10457545D01*
X58174633Y-10458017D01*
G37*
G36*
X57674633Y-10458017D02*
G01*
X57675197Y-10459936D01*
X57674916Y-10460575D01*
X57664767Y-10475763D01*
X57661000Y-10494699D01*
X57661000Y-11369301D01*
X57664767Y-11388238D01*
X57674814Y-11403273D01*
X57674945Y-11405268D01*
X57673282Y-11406380D01*
X57672553Y-11406293D01*
X57612212Y-11387398D01*
X57547310Y-11406455D01*
X57545367Y-11405983D01*
X57544803Y-11404064D01*
X57545084Y-11403425D01*
X57555233Y-11388237D01*
X57559000Y-11369301D01*
X57559000Y-10494699D01*
X57555233Y-10475762D01*
X57545186Y-10460727D01*
X57545055Y-10458732D01*
X57546718Y-10457620D01*
X57547447Y-10457707D01*
X57607788Y-10476602D01*
X57672690Y-10457545D01*
X57674633Y-10458017D01*
G37*
G36*
X56674633Y-10458017D02*
G01*
X56675197Y-10459936D01*
X56674916Y-10460575D01*
X56664767Y-10475763D01*
X56661000Y-10494699D01*
X56661000Y-11369301D01*
X56664767Y-11388238D01*
X56674814Y-11403273D01*
X56674945Y-11405268D01*
X56673282Y-11406380D01*
X56672553Y-11406293D01*
X56612212Y-11387398D01*
X56547311Y-11406454D01*
X56545368Y-11405982D01*
X56544804Y-11404063D01*
X56545085Y-11403424D01*
X56555233Y-11388238D01*
X56559000Y-11369301D01*
X56559000Y-10494699D01*
X56555233Y-10475762D01*
X56545186Y-10460727D01*
X56545055Y-10458732D01*
X56546718Y-10457620D01*
X56547447Y-10457707D01*
X56607788Y-10476602D01*
X56672690Y-10457545D01*
X56674633Y-10458017D01*
G37*
M02*
