M48
; DRILL file {KiCad (6.0.1)} date Wed Jan 26 09:26:38 2022
; FORMAT={2:4/ absolute / inch / suppress leading zeros}
; #@! TF.CreationDate,2022-01-26T09:26:38-08:00
; #@! TF.GenerationSoftware,Kicad,Pcbnew,(6.0.1)
; #@! TF.FileFunction,MixedPlating,1,2
FMAT,2
INCH,TZ
; #@! TA.AperFunction,Plated,PTH,ViaDrill
T1C0.0118
; #@! TA.AperFunction,Plated,PTH,ComponentDrill
T2C0.0295
; #@! TA.AperFunction,Plated,PTH,ComponentDrill
T3C0.0325
; #@! TA.AperFunction,Plated,PTH,ComponentDrill
T4C0.0394
; #@! TA.AperFunction,Plated,PTH,ComponentDrill
T5C0.1772
; #@! TA.AperFunction,NonPlated,NPTH,ComponentDrill
T6C0.1260
%
G90
G05
T1
X382Y-12161
X520Y-19043
X1299Y-12094
X2228Y-4874
X2307Y-4299
X2370Y-18201
X2382Y-17079
X2575Y-5941
X3000Y-16496
X3024Y-10224
X3106Y-4854
X3307Y-8287
X3315Y-10780
X3351Y-13360
X3441Y-9815
X3520Y-925
X3571Y-4291
X3720Y-5969
X3764Y-11772
X4051Y-11256
X4399Y-10500
X4413Y-19272
X4445Y-3579
X4516Y-11016
X4585Y-10729
X4748Y-21059
X4768Y-11386
X5055Y-17917
X5249Y-16365
X5295Y-5980
X5726Y-18778
X5767Y-18028
X5807Y-21024
X5972Y-8272
X6012Y-10362
X6020Y-14272
X6583Y-4173
X6638Y-4831
X6665Y-17849
X6673Y-18768
X6776Y-5819
X7209Y-19049
X7488Y-17835
X7786Y-17806
X8007Y-16767
X8102Y-3685
X8104Y-17741
X8106Y-13831
X8167Y-5598
X8237Y-18204
X8638Y-16767
X8669Y-2496
X8690Y-16169
X8744Y-4406
X8850Y-2961
X8894Y-14724
X9043Y-3677
X9142Y-14520
X9193Y-16236
X9197Y-10390
X9421Y-8106
X9476Y-13681
X9868Y-4734
X9984Y-16240
X10000Y-5697
X10295Y-3599
X10319Y-5185
X10594Y-6106
X10598Y-16165
X10669Y-17157
X10717Y-6744
X10780Y-2098
X11138Y-12075
X11264Y-5508
X11272Y-10354
X11303Y-3630
X11390Y-16524
X11827Y-3591
X11921Y-5555
X12260Y-5480
X12535Y-6173
X12648Y-18961
X12839Y-5382
X13055Y-5622
X13142Y-4299
X13736Y-9945
X13835Y-5728
X13945Y-8917
X13945Y-13441
X13965Y-16689
X13969Y-17382
X14012Y-10724
X14217Y-19646
X14480Y-3941
X14504Y-18291
X14832Y-18291
X14874Y-14425
X14946Y-19235
X15154Y-17425
X15417Y-17012
X15563Y-11264
X15650Y-17630
X15665Y-9059
X15992Y-6673
X16067Y-5583
X16272Y-18165
X16429Y-9169
X16598Y-10531
X16610Y-4445
X16724Y-18161
X17079Y-3913
X17276Y-18984
X17646Y-19142
X17976Y-14496
X18063Y-19051
X18390Y-5815
X18429Y-11516
X18433Y-18343
X18445Y-8543
X18496Y-472
X18673Y-3079
X18724Y-10331
X19189Y-18969
X19311Y-18417
X19492Y-9555
X19724Y-16992
X19728Y-19646
X19984Y-8717
X20051Y-13047
X20185Y-4311
X20193Y-5051
X20472Y-543
X20539Y-3941
X20732Y-2642
X20780Y-18654
X20823Y-7906
X20854Y-4185
X21004Y-5051
X21110Y-12350
X21516Y-6370
X21579Y-5567
X21583Y-9386
X21650Y-15091
X21791Y-18799
X21803Y-6031
X21996Y-18177
X22016Y-5417
X22106Y-15976
X22343Y-5413
X22358Y-4782
X22681Y-14004
X22693Y-8217
X22780Y-9984
X22854Y-476
X22894Y-16748
X23022Y-15034
X23031Y-5425
X23161Y-14106
X23217Y-14413
X23220Y-15598
X23244Y-14752
X23331Y-11602
X23354Y-5421
X23394Y-13614
X23520Y-15343
X23602Y-6118
X23685Y-16602
X23717Y-9421
X23807Y-5512
X23827Y-4673
X24315Y-16665
X24346Y-5047
X24363Y-3315
X24709Y-8035
X24961Y-15768
X25008Y-4319
X25024Y-14858
X25098Y-18638
X25154Y-5047
X25154Y-5795
X25201Y-9638
X25327Y-8717
X25398Y-17799
X25461Y-413
X25465Y-19886
X25484Y-3323
X25488Y-13236
X25827Y-11669
X25921Y-15724
X26047Y-5693
X26157Y-7634
X26843Y-18705
X26921Y-6693
X28016Y-7591
X28228Y-14169
X28929Y-5638
X29098Y-7602
T2
X1319Y-13102
X1319Y-13890
X1319Y-14677
X1319Y-15465
X1319Y-16252
X1319Y-17039
X1319Y-17827
X1344Y-3800
X1344Y-4587
X1344Y-5375
X1344Y-6162
X1344Y-6950
X1344Y-7737
X1344Y-8524
X1344Y-9312
X1344Y-10099
X4764Y-9567
X4768Y-1398
X4768Y-6409
X4768Y-12634
X5551Y-9567
X5555Y-1398
X5555Y-6409
X5555Y-12634
X6339Y-9567
X6343Y-1398
X6343Y-6409
X6343Y-12634
X7126Y-9567
X7130Y-1398
X7130Y-6409
X7130Y-12634
X7913Y-9567
X7917Y-1398
X7917Y-6409
X7917Y-12634
X8701Y-9567
X8705Y-1398
X8705Y-6409
X8705Y-12634
X9492Y-1398
X11488Y-1398
X12260Y-11346
X12260Y-12134
X12260Y-12921
X12260Y-14890
X12260Y-15677
X12260Y-16465
X12260Y-17252
X12264Y-7795
X12264Y-8583
X12264Y-9370
X12276Y-1398
X13063Y-1398
X13850Y-1398
X14638Y-1398
X15425Y-1398
X16213Y-1398
X28051Y-8811
X28051Y-9598
X28051Y-10386
X28051Y-11173
X28051Y-11961
X28051Y-12748
X28051Y-13535
X28051Y-15504
X28051Y-16291
X28051Y-17079
X28051Y-17866
X28051Y-18654
X28051Y-19441
X28051Y-20228
T3
X15098Y-10811
X16098Y-10811
X17098Y-10811
X18098Y-10811
X19098Y-10811
X20098Y-10811
X21098Y-10811
X22098Y-10811
T4
X3287Y-20531
X3287Y-21531
X4287Y-20531
X4287Y-21531
X5287Y-20531
X5287Y-21531
X6287Y-20531
X6287Y-21531
X7287Y-20531
X7287Y-21531
X8287Y-20531
X8287Y-21531
X9287Y-20531
X9287Y-21531
X10287Y-20531
X10287Y-21531
X11287Y-20531
X11287Y-21531
X12287Y-20531
X12287Y-21531
X13287Y-20531
X13287Y-21531
X14287Y-20531
X14287Y-21531
X15287Y-20531
X15287Y-21531
X16287Y-20531
X16287Y-21531
X17287Y-20531
X17287Y-21531
X18287Y-20531
X18287Y-21531
X19287Y-20531
X19287Y-21531
X20287Y-20531
X20287Y-21531
X21287Y-20531
X21287Y-21531
X21929Y-1047
X21929Y-2047
X22287Y-20531
X22287Y-21531
X26197Y-17236
X26197Y-18236
X26197Y-19236
T5
X27543Y-1906
X27543Y-4740
T6
X1378Y-1378
X1378Y-20669
X24213Y-1378
X24213Y-20866
T0
M30
