G04 #@! TF.GenerationSoftware,KiCad,Pcbnew,(6.0.1)*
G04 #@! TF.CreationDate,2022-01-26T09:26:30-08:00*
G04 #@! TF.ProjectId,Prime Mover,5072696d-6520-44d6-9f76-65722e6b6963,rev?*
G04 #@! TF.SameCoordinates,Original*
G04 #@! TF.FileFunction,Legend,Top*
G04 #@! TF.FilePolarity,Positive*
%FSLAX46Y46*%
G04 Gerber Fmt 4.6, Leading zero omitted, Abs format (unit mm)*
G04 Created by KiCad (PCBNEW (6.0.1)) date 2022-01-26 09:26:30*
%MOMM*%
%LPD*%
G01*
G04 APERTURE LIST*
%ADD10C,0.300000*%
%ADD11C,0.150000*%
%ADD12C,0.254000*%
%ADD13C,0.120000*%
%ADD14C,0.200000*%
G04 APERTURE END LIST*
D10*
X68042857Y-55558571D02*
X68042857Y-54058571D01*
X68614285Y-54058571D01*
X68757142Y-54130000D01*
X68828571Y-54201428D01*
X68900000Y-54344285D01*
X68900000Y-54558571D01*
X68828571Y-54701428D01*
X68757142Y-54772857D01*
X68614285Y-54844285D01*
X68042857Y-54844285D01*
X69400000Y-54058571D02*
X69757142Y-55558571D01*
X70042857Y-54487142D01*
X70328571Y-55558571D01*
X70685714Y-54058571D01*
X71257142Y-55558571D02*
X71257142Y-54058571D01*
X71757142Y-55130000D01*
X72257142Y-54058571D01*
X72257142Y-55558571D01*
X68345714Y-16918571D02*
X68060000Y-16918571D01*
X67917142Y-16990000D01*
X67845714Y-17061428D01*
X67702857Y-17275714D01*
X67631428Y-17561428D01*
X67631428Y-18132857D01*
X67702857Y-18275714D01*
X67774285Y-18347142D01*
X67917142Y-18418571D01*
X68202857Y-18418571D01*
X68345714Y-18347142D01*
X68417142Y-18275714D01*
X68488571Y-18132857D01*
X68488571Y-17775714D01*
X68417142Y-17632857D01*
X68345714Y-17561428D01*
X68202857Y-17490000D01*
X67917142Y-17490000D01*
X67774285Y-17561428D01*
X67702857Y-17632857D01*
X67631428Y-17775714D01*
X69131428Y-17847142D02*
X70274285Y-17847142D01*
X71774285Y-18418571D02*
X70917142Y-18418571D01*
X71345714Y-18418571D02*
X71345714Y-16918571D01*
X71202857Y-17132857D01*
X71060000Y-17275714D01*
X70917142Y-17347142D01*
X72345714Y-17061428D02*
X72417142Y-16990000D01*
X72560000Y-16918571D01*
X72917142Y-16918571D01*
X73060000Y-16990000D01*
X73131428Y-17061428D01*
X73202857Y-17204285D01*
X73202857Y-17347142D01*
X73131428Y-17561428D01*
X72274285Y-18418571D01*
X73202857Y-18418571D01*
X73631428Y-16918571D02*
X74131428Y-18418571D01*
X74631428Y-16918571D01*
X39095714Y-8528571D02*
X38381428Y-8528571D01*
X38381428Y-7028571D01*
X39595714Y-8528571D02*
X39595714Y-7528571D01*
X39595714Y-7028571D02*
X39524285Y-7100000D01*
X39595714Y-7171428D01*
X39667142Y-7100000D01*
X39595714Y-7028571D01*
X39595714Y-7171428D01*
X40310000Y-7528571D02*
X40310000Y-8528571D01*
X40310000Y-7671428D02*
X40381428Y-7600000D01*
X40524285Y-7528571D01*
X40738571Y-7528571D01*
X40881428Y-7600000D01*
X40952857Y-7742857D01*
X40952857Y-8528571D01*
X42238571Y-8457142D02*
X42095714Y-8528571D01*
X41810000Y-8528571D01*
X41667142Y-8457142D01*
X41595714Y-8314285D01*
X41595714Y-7742857D01*
X41667142Y-7600000D01*
X41810000Y-7528571D01*
X42095714Y-7528571D01*
X42238571Y-7600000D01*
X42310000Y-7742857D01*
X42310000Y-7885714D01*
X41595714Y-8028571D01*
X21725714Y-8408571D02*
X21011428Y-8408571D01*
X21011428Y-6908571D01*
X22225714Y-8408571D02*
X22225714Y-7408571D01*
X22225714Y-6908571D02*
X22154285Y-6980000D01*
X22225714Y-7051428D01*
X22297142Y-6980000D01*
X22225714Y-6908571D01*
X22225714Y-7051428D01*
X22940000Y-7408571D02*
X22940000Y-8408571D01*
X22940000Y-7551428D02*
X23011428Y-7480000D01*
X23154285Y-7408571D01*
X23368571Y-7408571D01*
X23511428Y-7480000D01*
X23582857Y-7622857D01*
X23582857Y-8408571D01*
X24868571Y-8337142D02*
X24725714Y-8408571D01*
X24440000Y-8408571D01*
X24297142Y-8337142D01*
X24225714Y-8194285D01*
X24225714Y-7622857D01*
X24297142Y-7480000D01*
X24440000Y-7408571D01*
X24725714Y-7408571D01*
X24868571Y-7480000D01*
X24940000Y-7622857D01*
X24940000Y-7765714D01*
X24225714Y-7908571D01*
X6050000Y-20221428D02*
X5978571Y-20364285D01*
X5978571Y-20578571D01*
X6050000Y-20792857D01*
X6192857Y-20935714D01*
X6335714Y-21007142D01*
X6621428Y-21078571D01*
X6835714Y-21078571D01*
X7121428Y-21007142D01*
X7264285Y-20935714D01*
X7407142Y-20792857D01*
X7478571Y-20578571D01*
X7478571Y-20435714D01*
X7407142Y-20221428D01*
X7335714Y-20150000D01*
X6835714Y-20150000D01*
X6835714Y-20435714D01*
X7478571Y-19507142D02*
X5978571Y-19507142D01*
X5978571Y-18935714D01*
X6050000Y-18792857D01*
X6121428Y-18721428D01*
X6264285Y-18650000D01*
X6478571Y-18650000D01*
X6621428Y-18721428D01*
X6692857Y-18792857D01*
X6764285Y-18935714D01*
X6764285Y-19507142D01*
X7407142Y-18078571D02*
X7478571Y-17864285D01*
X7478571Y-17507142D01*
X7407142Y-17364285D01*
X7335714Y-17292857D01*
X7192857Y-17221428D01*
X7050000Y-17221428D01*
X6907142Y-17292857D01*
X6835714Y-17364285D01*
X6764285Y-17507142D01*
X6692857Y-17792857D01*
X6621428Y-17935714D01*
X6550000Y-18007142D01*
X6407142Y-18078571D01*
X6264285Y-18078571D01*
X6121428Y-18007142D01*
X6050000Y-17935714D01*
X5978571Y-17792857D01*
X5978571Y-17435714D01*
X6050000Y-17221428D01*
X26000000Y-18707142D02*
X26000000Y-17992857D01*
X26428571Y-18850000D02*
X24928571Y-18350000D01*
X26428571Y-17850000D01*
X26428571Y-17350000D02*
X24928571Y-17350000D01*
X24928571Y-16992857D01*
X25000000Y-16778571D01*
X25142857Y-16635714D01*
X25285714Y-16564285D01*
X25571428Y-16492857D01*
X25785714Y-16492857D01*
X26071428Y-16564285D01*
X26214285Y-16635714D01*
X26357142Y-16778571D01*
X26428571Y-16992857D01*
X26428571Y-17350000D01*
X26285714Y-14992857D02*
X26357142Y-15064285D01*
X26428571Y-15278571D01*
X26428571Y-15421428D01*
X26357142Y-15635714D01*
X26214285Y-15778571D01*
X26071428Y-15850000D01*
X25785714Y-15921428D01*
X25571428Y-15921428D01*
X25285714Y-15850000D01*
X25142857Y-15778571D01*
X25000000Y-15635714D01*
X24928571Y-15421428D01*
X24928571Y-15278571D01*
X25000000Y-15064285D01*
X25071428Y-14992857D01*
X11978571Y-20528571D02*
X12907142Y-20528571D01*
X12407142Y-21100000D01*
X12621428Y-21100000D01*
X12764285Y-21171428D01*
X12835714Y-21242857D01*
X12907142Y-21385714D01*
X12907142Y-21742857D01*
X12835714Y-21885714D01*
X12764285Y-21957142D01*
X12621428Y-22028571D01*
X12192857Y-22028571D01*
X12050000Y-21957142D01*
X11978571Y-21885714D01*
X13335714Y-20528571D02*
X13835714Y-22028571D01*
X14335714Y-20528571D01*
X14692857Y-20528571D02*
X15621428Y-20528571D01*
X15121428Y-21100000D01*
X15335714Y-21100000D01*
X15478571Y-21171428D01*
X15550000Y-21242857D01*
X15621428Y-21385714D01*
X15621428Y-21742857D01*
X15550000Y-21885714D01*
X15478571Y-21957142D01*
X15335714Y-22028571D01*
X14907142Y-22028571D01*
X14764285Y-21957142D01*
X14692857Y-21885714D01*
X18192857Y-20600000D02*
X18050000Y-20528571D01*
X17835714Y-20528571D01*
X17621428Y-20600000D01*
X17478571Y-20742857D01*
X17407142Y-20885714D01*
X17335714Y-21171428D01*
X17335714Y-21385714D01*
X17407142Y-21671428D01*
X17478571Y-21814285D01*
X17621428Y-21957142D01*
X17835714Y-22028571D01*
X17978571Y-22028571D01*
X18192857Y-21957142D01*
X18264285Y-21885714D01*
X18264285Y-21385714D01*
X17978571Y-21385714D01*
X18907142Y-22028571D02*
X18907142Y-20528571D01*
X19478571Y-20528571D01*
X19621428Y-20600000D01*
X19692857Y-20671428D01*
X19764285Y-20814285D01*
X19764285Y-21028571D01*
X19692857Y-21171428D01*
X19621428Y-21242857D01*
X19478571Y-21314285D01*
X18907142Y-21314285D01*
X20407142Y-22028571D02*
X20407142Y-20528571D01*
X21407142Y-20528571D02*
X21692857Y-20528571D01*
X21835714Y-20600000D01*
X21978571Y-20742857D01*
X22050000Y-21028571D01*
X22050000Y-21528571D01*
X21978571Y-21814285D01*
X21835714Y-21957142D01*
X21692857Y-22028571D01*
X21407142Y-22028571D01*
X21264285Y-21957142D01*
X21121428Y-21814285D01*
X21050000Y-21528571D01*
X21050000Y-21028571D01*
X21121428Y-20742857D01*
X21264285Y-20600000D01*
X21407142Y-20528571D01*
X34997142Y-25085714D02*
X35068571Y-24871428D01*
X35068571Y-24514285D01*
X34997142Y-24371428D01*
X34925714Y-24300000D01*
X34782857Y-24228571D01*
X34640000Y-24228571D01*
X34497142Y-24300000D01*
X34425714Y-24371428D01*
X34354285Y-24514285D01*
X34282857Y-24800000D01*
X34211428Y-24942857D01*
X34140000Y-25014285D01*
X33997142Y-25085714D01*
X33854285Y-25085714D01*
X33711428Y-25014285D01*
X33640000Y-24942857D01*
X33568571Y-24800000D01*
X33568571Y-24442857D01*
X33640000Y-24228571D01*
X34282857Y-23585714D02*
X34282857Y-23085714D01*
X35068571Y-22871428D02*
X35068571Y-23585714D01*
X33568571Y-23585714D01*
X33568571Y-22871428D01*
X35068571Y-21371428D02*
X34354285Y-21871428D01*
X35068571Y-22228571D02*
X33568571Y-22228571D01*
X33568571Y-21657142D01*
X33640000Y-21514285D01*
X33711428Y-21442857D01*
X33854285Y-21371428D01*
X34068571Y-21371428D01*
X34211428Y-21442857D01*
X34282857Y-21514285D01*
X34354285Y-21657142D01*
X34354285Y-22228571D01*
X33568571Y-20942857D02*
X35068571Y-20442857D01*
X33568571Y-19942857D01*
X33568571Y-19157142D02*
X33568571Y-18871428D01*
X33640000Y-18728571D01*
X33782857Y-18585714D01*
X34068571Y-18514285D01*
X34568571Y-18514285D01*
X34854285Y-18585714D01*
X34997142Y-18728571D01*
X35068571Y-18871428D01*
X35068571Y-19157142D01*
X34997142Y-19300000D01*
X34854285Y-19442857D01*
X34568571Y-19514285D01*
X34068571Y-19514285D01*
X33782857Y-19442857D01*
X33640000Y-19300000D01*
X33568571Y-19157142D01*
X33420571Y-46810142D02*
X34634857Y-46810142D01*
X34777714Y-46738714D01*
X34849142Y-46667285D01*
X34920571Y-46524428D01*
X34920571Y-46238714D01*
X34849142Y-46095857D01*
X34777714Y-46024428D01*
X34634857Y-45953000D01*
X33420571Y-45953000D01*
X34920571Y-45024428D02*
X34849142Y-45167285D01*
X34706285Y-45238714D01*
X33420571Y-45238714D01*
X33920571Y-44667285D02*
X33920571Y-44095857D01*
X33420571Y-44453000D02*
X34706285Y-44453000D01*
X34849142Y-44381571D01*
X34920571Y-44238714D01*
X34920571Y-44095857D01*
X34920571Y-43595857D02*
X33920571Y-43595857D01*
X34206285Y-43595857D02*
X34063428Y-43524428D01*
X33992000Y-43453000D01*
X33920571Y-43310142D01*
X33920571Y-43167285D01*
X34920571Y-42024428D02*
X34134857Y-42024428D01*
X33992000Y-42095857D01*
X33920571Y-42238714D01*
X33920571Y-42524428D01*
X33992000Y-42667285D01*
X34849142Y-42024428D02*
X34920571Y-42167285D01*
X34920571Y-42524428D01*
X34849142Y-42667285D01*
X34706285Y-42738714D01*
X34563428Y-42738714D01*
X34420571Y-42667285D01*
X34349142Y-42524428D01*
X34349142Y-42167285D01*
X34277714Y-42024428D01*
X34849142Y-41381571D02*
X34920571Y-41238714D01*
X34920571Y-40953000D01*
X34849142Y-40810142D01*
X34706285Y-40738714D01*
X34634857Y-40738714D01*
X34492000Y-40810142D01*
X34420571Y-40953000D01*
X34420571Y-41167285D01*
X34349142Y-41310142D01*
X34206285Y-41381571D01*
X34134857Y-41381571D01*
X33992000Y-41310142D01*
X33920571Y-41167285D01*
X33920571Y-40953000D01*
X33992000Y-40810142D01*
X34920571Y-39881571D02*
X34849142Y-40024428D01*
X34777714Y-40095857D01*
X34634857Y-40167285D01*
X34206285Y-40167285D01*
X34063428Y-40095857D01*
X33992000Y-40024428D01*
X33920571Y-39881571D01*
X33920571Y-39667285D01*
X33992000Y-39524428D01*
X34063428Y-39453000D01*
X34206285Y-39381571D01*
X34634857Y-39381571D01*
X34777714Y-39453000D01*
X34849142Y-39524428D01*
X34920571Y-39667285D01*
X34920571Y-39881571D01*
X33920571Y-38738714D02*
X34920571Y-38738714D01*
X34063428Y-38738714D02*
X33992000Y-38667285D01*
X33920571Y-38524428D01*
X33920571Y-38310142D01*
X33992000Y-38167285D01*
X34134857Y-38095857D01*
X34920571Y-38095857D01*
X34920571Y-37381571D02*
X33920571Y-37381571D01*
X33420571Y-37381571D02*
X33492000Y-37453000D01*
X33563428Y-37381571D01*
X33492000Y-37310142D01*
X33420571Y-37381571D01*
X33563428Y-37381571D01*
X34849142Y-36024428D02*
X34920571Y-36167285D01*
X34920571Y-36453000D01*
X34849142Y-36595857D01*
X34777714Y-36667285D01*
X34634857Y-36738714D01*
X34206285Y-36738714D01*
X34063428Y-36667285D01*
X33992000Y-36595857D01*
X33920571Y-36453000D01*
X33920571Y-36167285D01*
X33992000Y-36024428D01*
X1948571Y-28800000D02*
X1805714Y-28728571D01*
X1591428Y-28728571D01*
X1377142Y-28800000D01*
X1234285Y-28942857D01*
X1162857Y-29085714D01*
X1091428Y-29371428D01*
X1091428Y-29585714D01*
X1162857Y-29871428D01*
X1234285Y-30014285D01*
X1377142Y-30157142D01*
X1591428Y-30228571D01*
X1734285Y-30228571D01*
X1948571Y-30157142D01*
X2019999Y-30085714D01*
X2019999Y-29585714D01*
X1734285Y-29585714D01*
X2662857Y-30228571D02*
X2662857Y-28728571D01*
X3234285Y-28728571D01*
X3377142Y-28800000D01*
X3448571Y-28871428D01*
X3519999Y-29014285D01*
X3519999Y-29228571D01*
X3448571Y-29371428D01*
X3377142Y-29442857D01*
X3234285Y-29514285D01*
X2662857Y-29514285D01*
X4091428Y-30157142D02*
X4305714Y-30228571D01*
X4662857Y-30228571D01*
X4805714Y-30157142D01*
X4877142Y-30085714D01*
X4948571Y-29942857D01*
X4948571Y-29800000D01*
X4877142Y-29657142D01*
X4805714Y-29585714D01*
X4662857Y-29514285D01*
X4377142Y-29442857D01*
X4234285Y-29371428D01*
X4162857Y-29300000D01*
X4091428Y-29157142D01*
X4091428Y-29014285D01*
X4162857Y-28871428D01*
X4234285Y-28800000D01*
X4377142Y-28728571D01*
X4734285Y-28728571D01*
X4948571Y-28800000D01*
X13750000Y-28128571D02*
X13035714Y-28128571D01*
X12964285Y-28842857D01*
X13035714Y-28771428D01*
X13178571Y-28700000D01*
X13535714Y-28700000D01*
X13678571Y-28771428D01*
X13750000Y-28842857D01*
X13821428Y-28985714D01*
X13821428Y-29342857D01*
X13750000Y-29485714D01*
X13678571Y-29557142D01*
X13535714Y-29628571D01*
X13178571Y-29628571D01*
X13035714Y-29557142D01*
X12964285Y-29485714D01*
X14250000Y-28128571D02*
X14750000Y-29628571D01*
X15250000Y-28128571D01*
X17678571Y-28200000D02*
X17535714Y-28128571D01*
X17321428Y-28128571D01*
X17107142Y-28200000D01*
X16964285Y-28342857D01*
X16892857Y-28485714D01*
X16821428Y-28771428D01*
X16821428Y-28985714D01*
X16892857Y-29271428D01*
X16964285Y-29414285D01*
X17107142Y-29557142D01*
X17321428Y-29628571D01*
X17464285Y-29628571D01*
X17678571Y-29557142D01*
X17750000Y-29485714D01*
X17750000Y-28985714D01*
X17464285Y-28985714D01*
X18392857Y-29628571D02*
X18392857Y-28128571D01*
X18964285Y-28128571D01*
X19107142Y-28200000D01*
X19178571Y-28271428D01*
X19250000Y-28414285D01*
X19250000Y-28628571D01*
X19178571Y-28771428D01*
X19107142Y-28842857D01*
X18964285Y-28914285D01*
X18392857Y-28914285D01*
X19892857Y-29628571D02*
X19892857Y-28128571D01*
X20892857Y-28128571D02*
X21178571Y-28128571D01*
X21321428Y-28200000D01*
X21464285Y-28342857D01*
X21535714Y-28628571D01*
X21535714Y-29128571D01*
X21464285Y-29414285D01*
X21321428Y-29557142D01*
X21178571Y-29628571D01*
X20892857Y-29628571D01*
X20750000Y-29557142D01*
X20607142Y-29414285D01*
X20535714Y-29128571D01*
X20535714Y-28628571D01*
X20607142Y-28342857D01*
X20750000Y-28200000D01*
X20892857Y-28128571D01*
X68718571Y-28207142D02*
X67218571Y-28207142D01*
X67218571Y-27635714D01*
X67290000Y-27492857D01*
X67361428Y-27421428D01*
X67504285Y-27350000D01*
X67718571Y-27350000D01*
X67861428Y-27421428D01*
X67932857Y-27492857D01*
X68004285Y-27635714D01*
X68004285Y-28207142D01*
X67218571Y-26850000D02*
X68718571Y-26492857D01*
X67647142Y-26207142D01*
X68718571Y-25921428D01*
X67218571Y-25564285D01*
X68718571Y-24992857D02*
X67218571Y-24992857D01*
X68290000Y-24492857D01*
X67218571Y-23992857D01*
X68718571Y-23992857D01*
X6232857Y-43757142D02*
X6232857Y-43257142D01*
X7018571Y-43042857D02*
X7018571Y-43757142D01*
X5518571Y-43757142D01*
X5518571Y-43042857D01*
X6018571Y-42400000D02*
X7018571Y-42400000D01*
X6161428Y-42400000D02*
X6090000Y-42328571D01*
X6018571Y-42185714D01*
X6018571Y-41971428D01*
X6090000Y-41828571D01*
X6232857Y-41757142D01*
X7018571Y-41757142D01*
X6947142Y-40400000D02*
X7018571Y-40542857D01*
X7018571Y-40828571D01*
X6947142Y-40971428D01*
X6875714Y-41042857D01*
X6732857Y-41114285D01*
X6304285Y-41114285D01*
X6161428Y-41042857D01*
X6090000Y-40971428D01*
X6018571Y-40828571D01*
X6018571Y-40542857D01*
X6090000Y-40400000D01*
X7018571Y-39542857D02*
X6947142Y-39685714D01*
X6875714Y-39757142D01*
X6732857Y-39828571D01*
X6304285Y-39828571D01*
X6161428Y-39757142D01*
X6090000Y-39685714D01*
X6018571Y-39542857D01*
X6018571Y-39328571D01*
X6090000Y-39185714D01*
X6161428Y-39114285D01*
X6304285Y-39042857D01*
X6732857Y-39042857D01*
X6875714Y-39114285D01*
X6947142Y-39185714D01*
X7018571Y-39328571D01*
X7018571Y-39542857D01*
X7018571Y-37757142D02*
X5518571Y-37757142D01*
X6947142Y-37757142D02*
X7018571Y-37900000D01*
X7018571Y-38185714D01*
X6947142Y-38328571D01*
X6875714Y-38400000D01*
X6732857Y-38471428D01*
X6304285Y-38471428D01*
X6161428Y-38400000D01*
X6090000Y-38328571D01*
X6018571Y-38185714D01*
X6018571Y-37900000D01*
X6090000Y-37757142D01*
X6947142Y-36471428D02*
X7018571Y-36614285D01*
X7018571Y-36900000D01*
X6947142Y-37042857D01*
X6804285Y-37114285D01*
X6232857Y-37114285D01*
X6090000Y-37042857D01*
X6018571Y-36900000D01*
X6018571Y-36614285D01*
X6090000Y-36471428D01*
X6232857Y-36400000D01*
X6375714Y-36400000D01*
X6518571Y-37114285D01*
X7018571Y-35757142D02*
X6018571Y-35757142D01*
X6304285Y-35757142D02*
X6161428Y-35685714D01*
X6090000Y-35614285D01*
X6018571Y-35471428D01*
X6018571Y-35328571D01*
X26897142Y-49458571D02*
X26897142Y-47958571D01*
X27468571Y-47958571D01*
X27611428Y-48030000D01*
X27682857Y-48101428D01*
X27754285Y-48244285D01*
X27754285Y-48458571D01*
X27682857Y-48601428D01*
X27611428Y-48672857D01*
X27468571Y-48744285D01*
X26897142Y-48744285D01*
X28397142Y-49458571D02*
X28397142Y-48458571D01*
X28397142Y-48744285D02*
X28468571Y-48601428D01*
X28540000Y-48530000D01*
X28682857Y-48458571D01*
X28825714Y-48458571D01*
X29325714Y-49458571D02*
X29325714Y-48458571D01*
X29325714Y-47958571D02*
X29254285Y-48030000D01*
X29325714Y-48101428D01*
X29397142Y-48030000D01*
X29325714Y-47958571D01*
X29325714Y-48101428D01*
X30040000Y-49458571D02*
X30040000Y-48458571D01*
X30040000Y-48601428D02*
X30111428Y-48530000D01*
X30254285Y-48458571D01*
X30468571Y-48458571D01*
X30611428Y-48530000D01*
X30682857Y-48672857D01*
X30682857Y-49458571D01*
X30682857Y-48672857D02*
X30754285Y-48530000D01*
X30897142Y-48458571D01*
X31111428Y-48458571D01*
X31254285Y-48530000D01*
X31325714Y-48672857D01*
X31325714Y-49458571D01*
X32611428Y-49387142D02*
X32468571Y-49458571D01*
X32182857Y-49458571D01*
X32040000Y-49387142D01*
X31968571Y-49244285D01*
X31968571Y-48672857D01*
X32040000Y-48530000D01*
X32182857Y-48458571D01*
X32468571Y-48458571D01*
X32611428Y-48530000D01*
X32682857Y-48672857D01*
X32682857Y-48815714D01*
X31968571Y-48958571D01*
X34468571Y-49458571D02*
X34468571Y-47958571D01*
X34968571Y-49030000D01*
X35468571Y-47958571D01*
X35468571Y-49458571D01*
X36397142Y-49458571D02*
X36254285Y-49387142D01*
X36182857Y-49315714D01*
X36111428Y-49172857D01*
X36111428Y-48744285D01*
X36182857Y-48601428D01*
X36254285Y-48530000D01*
X36397142Y-48458571D01*
X36611428Y-48458571D01*
X36754285Y-48530000D01*
X36825714Y-48601428D01*
X36897142Y-48744285D01*
X36897142Y-49172857D01*
X36825714Y-49315714D01*
X36754285Y-49387142D01*
X36611428Y-49458571D01*
X36397142Y-49458571D01*
X37397142Y-48458571D02*
X37754285Y-49458571D01*
X38111428Y-48458571D01*
X39254285Y-49387142D02*
X39111428Y-49458571D01*
X38825714Y-49458571D01*
X38682857Y-49387142D01*
X38611428Y-49244285D01*
X38611428Y-48672857D01*
X38682857Y-48530000D01*
X38825714Y-48458571D01*
X39111428Y-48458571D01*
X39254285Y-48530000D01*
X39325714Y-48672857D01*
X39325714Y-48815714D01*
X38611428Y-48958571D01*
X39968571Y-49458571D02*
X39968571Y-48458571D01*
X39968571Y-48744285D02*
X40040000Y-48601428D01*
X40111428Y-48530000D01*
X40254285Y-48458571D01*
X40397142Y-48458571D01*
X41825714Y-47958571D02*
X42325714Y-49458571D01*
X42825714Y-47958571D01*
X44111428Y-49458571D02*
X43254285Y-49458571D01*
X43682857Y-49458571D02*
X43682857Y-47958571D01*
X43540000Y-48172857D01*
X43397142Y-48315714D01*
X43254285Y-48387142D01*
X44754285Y-49315714D02*
X44825714Y-49387142D01*
X44754285Y-49458571D01*
X44682857Y-49387142D01*
X44754285Y-49315714D01*
X44754285Y-49458571D01*
X45397142Y-48101428D02*
X45468571Y-48030000D01*
X45611428Y-47958571D01*
X45968571Y-47958571D01*
X46111428Y-48030000D01*
X46182857Y-48101428D01*
X46254285Y-48244285D01*
X46254285Y-48387142D01*
X46182857Y-48601428D01*
X45325714Y-49458571D01*
X46254285Y-49458571D01*
X34282857Y-32495714D02*
X34282857Y-31995714D01*
X35068571Y-31781428D02*
X35068571Y-32495714D01*
X33568571Y-32495714D01*
X33568571Y-31781428D01*
X34997142Y-31210000D02*
X35068571Y-30995714D01*
X35068571Y-30638571D01*
X34997142Y-30495714D01*
X34925714Y-30424285D01*
X34782857Y-30352857D01*
X34640000Y-30352857D01*
X34497142Y-30424285D01*
X34425714Y-30495714D01*
X34354285Y-30638571D01*
X34282857Y-30924285D01*
X34211428Y-31067142D01*
X34140000Y-31138571D01*
X33997142Y-31210000D01*
X33854285Y-31210000D01*
X33711428Y-31138571D01*
X33640000Y-31067142D01*
X33568571Y-30924285D01*
X33568571Y-30567142D01*
X33640000Y-30352857D01*
X34925714Y-28852857D02*
X34997142Y-28924285D01*
X35068571Y-29138571D01*
X35068571Y-29281428D01*
X34997142Y-29495714D01*
X34854285Y-29638571D01*
X34711428Y-29710000D01*
X34425714Y-29781428D01*
X34211428Y-29781428D01*
X33925714Y-29710000D01*
X33782857Y-29638571D01*
X33640000Y-29495714D01*
X33568571Y-29281428D01*
X33568571Y-29138571D01*
X33640000Y-28924285D01*
X33711428Y-28852857D01*
X39347142Y-30300000D02*
X40061428Y-30300000D01*
X39204285Y-30728571D02*
X39704285Y-29228571D01*
X40204285Y-30728571D01*
X41347142Y-30657142D02*
X41204285Y-30728571D01*
X40918571Y-30728571D01*
X40775714Y-30657142D01*
X40704285Y-30585714D01*
X40632857Y-30442857D01*
X40632857Y-30014285D01*
X40704285Y-29871428D01*
X40775714Y-29800000D01*
X40918571Y-29728571D01*
X41204285Y-29728571D01*
X41347142Y-29800000D01*
X42632857Y-30657142D02*
X42490000Y-30728571D01*
X42204285Y-30728571D01*
X42061428Y-30657142D01*
X41990000Y-30585714D01*
X41918571Y-30442857D01*
X41918571Y-30014285D01*
X41990000Y-29871428D01*
X42061428Y-29800000D01*
X42204285Y-29728571D01*
X42490000Y-29728571D01*
X42632857Y-29800000D01*
X43847142Y-30657142D02*
X43704285Y-30728571D01*
X43418571Y-30728571D01*
X43275714Y-30657142D01*
X43204285Y-30514285D01*
X43204285Y-29942857D01*
X43275714Y-29800000D01*
X43418571Y-29728571D01*
X43704285Y-29728571D01*
X43847142Y-29800000D01*
X43918571Y-29942857D01*
X43918571Y-30085714D01*
X43204285Y-30228571D01*
X44775714Y-30728571D02*
X44632857Y-30657142D01*
X44561428Y-30514285D01*
X44561428Y-29228571D01*
X45918571Y-30657142D02*
X45775714Y-30728571D01*
X45490000Y-30728571D01*
X45347142Y-30657142D01*
X45275714Y-30514285D01*
X45275714Y-29942857D01*
X45347142Y-29800000D01*
X45490000Y-29728571D01*
X45775714Y-29728571D01*
X45918571Y-29800000D01*
X45990000Y-29942857D01*
X45990000Y-30085714D01*
X45275714Y-30228571D01*
X46632857Y-30728571D02*
X46632857Y-29728571D01*
X46632857Y-30014285D02*
X46704285Y-29871428D01*
X46775714Y-29800000D01*
X46918571Y-29728571D01*
X47061428Y-29728571D01*
X47775714Y-30728571D02*
X47632857Y-30657142D01*
X47561428Y-30585714D01*
X47490000Y-30442857D01*
X47490000Y-30014285D01*
X47561428Y-29871428D01*
X47632857Y-29800000D01*
X47775714Y-29728571D01*
X47990000Y-29728571D01*
X48132857Y-29800000D01*
X48204285Y-29871428D01*
X48275714Y-30014285D01*
X48275714Y-30442857D01*
X48204285Y-30585714D01*
X48132857Y-30657142D01*
X47990000Y-30728571D01*
X47775714Y-30728571D01*
X48918571Y-30728571D02*
X48918571Y-29728571D01*
X48918571Y-29871428D02*
X48990000Y-29800000D01*
X49132857Y-29728571D01*
X49347142Y-29728571D01*
X49490000Y-29800000D01*
X49561428Y-29942857D01*
X49561428Y-30728571D01*
X49561428Y-29942857D02*
X49632857Y-29800000D01*
X49775714Y-29728571D01*
X49990000Y-29728571D01*
X50132857Y-29800000D01*
X50204285Y-29942857D01*
X50204285Y-30728571D01*
X51490000Y-30657142D02*
X51347142Y-30728571D01*
X51061428Y-30728571D01*
X50918571Y-30657142D01*
X50847142Y-30514285D01*
X50847142Y-29942857D01*
X50918571Y-29800000D01*
X51061428Y-29728571D01*
X51347142Y-29728571D01*
X51490000Y-29800000D01*
X51561428Y-29942857D01*
X51561428Y-30085714D01*
X50847142Y-30228571D01*
X51990000Y-29728571D02*
X52561428Y-29728571D01*
X52204285Y-29228571D02*
X52204285Y-30514285D01*
X52275714Y-30657142D01*
X52418571Y-30728571D01*
X52561428Y-30728571D01*
X53632857Y-30657142D02*
X53490000Y-30728571D01*
X53204285Y-30728571D01*
X53061428Y-30657142D01*
X52990000Y-30514285D01*
X52990000Y-29942857D01*
X53061428Y-29800000D01*
X53204285Y-29728571D01*
X53490000Y-29728571D01*
X53632857Y-29800000D01*
X53704285Y-29942857D01*
X53704285Y-30085714D01*
X52990000Y-30228571D01*
X54347142Y-30728571D02*
X54347142Y-29728571D01*
X54347142Y-30014285D02*
X54418571Y-29871428D01*
X54490000Y-29800000D01*
X54632857Y-29728571D01*
X54775714Y-29728571D01*
D11*
X25116666Y-24202380D02*
X25116666Y-24916666D01*
X25069047Y-25059523D01*
X24973809Y-25154761D01*
X24830952Y-25202380D01*
X24735714Y-25202380D01*
X26021428Y-24535714D02*
X26021428Y-25202380D01*
X25783333Y-24154761D02*
X25545238Y-24869047D01*
X26164285Y-24869047D01*
X56042380Y-48118095D02*
X55042380Y-48118095D01*
X55042380Y-47880000D01*
X55090000Y-47737142D01*
X55185238Y-47641904D01*
X55280476Y-47594285D01*
X55470952Y-47546666D01*
X55613809Y-47546666D01*
X55804285Y-47594285D01*
X55899523Y-47641904D01*
X55994761Y-47737142D01*
X56042380Y-47880000D01*
X56042380Y-48118095D01*
X56042380Y-46594285D02*
X56042380Y-47165714D01*
X56042380Y-46880000D02*
X55042380Y-46880000D01*
X55185238Y-46975238D01*
X55280476Y-47070476D01*
X55328095Y-47165714D01*
X5922380Y-7543333D02*
X6636666Y-7543333D01*
X6779523Y-7590952D01*
X6874761Y-7686190D01*
X6922380Y-7829047D01*
X6922380Y-7924285D01*
X6017619Y-7114761D02*
X5970000Y-7067142D01*
X5922380Y-6971904D01*
X5922380Y-6733809D01*
X5970000Y-6638571D01*
X6017619Y-6590952D01*
X6112857Y-6543333D01*
X6208095Y-6543333D01*
X6350952Y-6590952D01*
X6922380Y-7162380D01*
X6922380Y-6543333D01*
X56092380Y-44896666D02*
X55616190Y-45230000D01*
X56092380Y-45468095D02*
X55092380Y-45468095D01*
X55092380Y-45087142D01*
X55140000Y-44991904D01*
X55187619Y-44944285D01*
X55282857Y-44896666D01*
X55425714Y-44896666D01*
X55520952Y-44944285D01*
X55568571Y-44991904D01*
X55616190Y-45087142D01*
X55616190Y-45468095D01*
X55187619Y-44515714D02*
X55140000Y-44468095D01*
X55092380Y-44372857D01*
X55092380Y-44134761D01*
X55140000Y-44039523D01*
X55187619Y-43991904D01*
X55282857Y-43944285D01*
X55378095Y-43944285D01*
X55520952Y-43991904D01*
X56092380Y-44563333D01*
X56092380Y-43944285D01*
X61462380Y-48546666D02*
X60986190Y-48880000D01*
X61462380Y-49118095D02*
X60462380Y-49118095D01*
X60462380Y-48737142D01*
X60510000Y-48641904D01*
X60557619Y-48594285D01*
X60652857Y-48546666D01*
X60795714Y-48546666D01*
X60890952Y-48594285D01*
X60938571Y-48641904D01*
X60986190Y-48737142D01*
X60986190Y-49118095D01*
X60462380Y-48213333D02*
X60462380Y-47594285D01*
X60843333Y-47927619D01*
X60843333Y-47784761D01*
X60890952Y-47689523D01*
X60938571Y-47641904D01*
X61033809Y-47594285D01*
X61271904Y-47594285D01*
X61367142Y-47641904D01*
X61414761Y-47689523D01*
X61462380Y-47784761D01*
X61462380Y-48070476D01*
X61414761Y-48165714D01*
X61367142Y-48213333D01*
X66884095Y-41082380D02*
X66884095Y-41891904D01*
X66931714Y-41987142D01*
X66979333Y-42034761D01*
X67074571Y-42082380D01*
X67265047Y-42082380D01*
X67360285Y-42034761D01*
X67407904Y-41987142D01*
X67455523Y-41891904D01*
X67455523Y-41082380D01*
X68360285Y-41415714D02*
X68360285Y-42082380D01*
X68122190Y-41034761D02*
X67884095Y-41749047D01*
X68503142Y-41749047D01*
X61317142Y-44896666D02*
X61364761Y-44944285D01*
X61412380Y-45087142D01*
X61412380Y-45182380D01*
X61364761Y-45325238D01*
X61269523Y-45420476D01*
X61174285Y-45468095D01*
X60983809Y-45515714D01*
X60840952Y-45515714D01*
X60650476Y-45468095D01*
X60555238Y-45420476D01*
X60460000Y-45325238D01*
X60412380Y-45182380D01*
X60412380Y-45087142D01*
X60460000Y-44944285D01*
X60507619Y-44896666D01*
X60412380Y-44039523D02*
X60412380Y-44230000D01*
X60460000Y-44325238D01*
X60507619Y-44372857D01*
X60650476Y-44468095D01*
X60840952Y-44515714D01*
X61221904Y-44515714D01*
X61317142Y-44468095D01*
X61364761Y-44420476D01*
X61412380Y-44325238D01*
X61412380Y-44134761D01*
X61364761Y-44039523D01*
X61317142Y-43991904D01*
X61221904Y-43944285D01*
X60983809Y-43944285D01*
X60888571Y-43991904D01*
X60840952Y-44039523D01*
X60793333Y-44134761D01*
X60793333Y-44325238D01*
X60840952Y-44420476D01*
X60888571Y-44468095D01*
X60983809Y-44515714D01*
X29920476Y-15962380D02*
X29920476Y-16676666D01*
X29872857Y-16819523D01*
X29777619Y-16914761D01*
X29634761Y-16962380D01*
X29539523Y-16962380D01*
X30920476Y-16962380D02*
X30349047Y-16962380D01*
X30634761Y-16962380D02*
X30634761Y-15962380D01*
X30539523Y-16105238D01*
X30444285Y-16200476D01*
X30349047Y-16248095D01*
X31301428Y-16057619D02*
X31349047Y-16010000D01*
X31444285Y-15962380D01*
X31682380Y-15962380D01*
X31777619Y-16010000D01*
X31825238Y-16057619D01*
X31872857Y-16152857D01*
X31872857Y-16248095D01*
X31825238Y-16390952D01*
X31253809Y-16962380D01*
X31872857Y-16962380D01*
X52907142Y-48332380D02*
X52573809Y-47856190D01*
X52335714Y-48332380D02*
X52335714Y-47332380D01*
X52716666Y-47332380D01*
X52811904Y-47380000D01*
X52859523Y-47427619D01*
X52907142Y-47522857D01*
X52907142Y-47665714D01*
X52859523Y-47760952D01*
X52811904Y-47808571D01*
X52716666Y-47856190D01*
X52335714Y-47856190D01*
X53859523Y-48332380D02*
X53288095Y-48332380D01*
X53573809Y-48332380D02*
X53573809Y-47332380D01*
X53478571Y-47475238D01*
X53383333Y-47570476D01*
X53288095Y-47618095D01*
X54811904Y-48332380D02*
X54240476Y-48332380D01*
X54526190Y-48332380D02*
X54526190Y-47332380D01*
X54430952Y-47475238D01*
X54335714Y-47570476D01*
X54240476Y-47618095D01*
X49567142Y-48322380D02*
X49233809Y-47846190D01*
X48995714Y-48322380D02*
X48995714Y-47322380D01*
X49376666Y-47322380D01*
X49471904Y-47370000D01*
X49519523Y-47417619D01*
X49567142Y-47512857D01*
X49567142Y-47655714D01*
X49519523Y-47750952D01*
X49471904Y-47798571D01*
X49376666Y-47846190D01*
X48995714Y-47846190D01*
X50519523Y-48322380D02*
X49948095Y-48322380D01*
X50233809Y-48322380D02*
X50233809Y-47322380D01*
X50138571Y-47465238D01*
X50043333Y-47560476D01*
X49948095Y-47608095D01*
X50900476Y-47417619D02*
X50948095Y-47370000D01*
X51043333Y-47322380D01*
X51281428Y-47322380D01*
X51376666Y-47370000D01*
X51424285Y-47417619D01*
X51471904Y-47512857D01*
X51471904Y-47608095D01*
X51424285Y-47750952D01*
X50852857Y-48322380D01*
X51471904Y-48322380D01*
X41820476Y-5972380D02*
X41820476Y-6686666D01*
X41772857Y-6829523D01*
X41677619Y-6924761D01*
X41534761Y-6972380D01*
X41439523Y-6972380D01*
X42820476Y-6972380D02*
X42249047Y-6972380D01*
X42534761Y-6972380D02*
X42534761Y-5972380D01*
X42439523Y-6115238D01*
X42344285Y-6210476D01*
X42249047Y-6258095D01*
X43677619Y-6305714D02*
X43677619Y-6972380D01*
X43439523Y-5924761D02*
X43201428Y-6639047D01*
X43820476Y-6639047D01*
X50607142Y-14956666D02*
X50654761Y-15004285D01*
X50702380Y-15147142D01*
X50702380Y-15242380D01*
X50654761Y-15385238D01*
X50559523Y-15480476D01*
X50464285Y-15528095D01*
X50273809Y-15575714D01*
X50130952Y-15575714D01*
X49940476Y-15528095D01*
X49845238Y-15480476D01*
X49750000Y-15385238D01*
X49702380Y-15242380D01*
X49702380Y-15147142D01*
X49750000Y-15004285D01*
X49797619Y-14956666D01*
X49702380Y-14051904D02*
X49702380Y-14528095D01*
X50178571Y-14575714D01*
X50130952Y-14528095D01*
X50083333Y-14432857D01*
X50083333Y-14194761D01*
X50130952Y-14099523D01*
X50178571Y-14051904D01*
X50273809Y-14004285D01*
X50511904Y-14004285D01*
X50607142Y-14051904D01*
X50654761Y-14099523D01*
X50702380Y-14194761D01*
X50702380Y-14432857D01*
X50654761Y-14528095D01*
X50607142Y-14575714D01*
X63413333Y-8152380D02*
X63080000Y-7676190D01*
X62841904Y-8152380D02*
X62841904Y-7152380D01*
X63222857Y-7152380D01*
X63318095Y-7200000D01*
X63365714Y-7247619D01*
X63413333Y-7342857D01*
X63413333Y-7485714D01*
X63365714Y-7580952D01*
X63318095Y-7628571D01*
X63222857Y-7676190D01*
X62841904Y-7676190D01*
X63889523Y-8152380D02*
X64080000Y-8152380D01*
X64175238Y-8104761D01*
X64222857Y-8057142D01*
X64318095Y-7914285D01*
X64365714Y-7723809D01*
X64365714Y-7342857D01*
X64318095Y-7247619D01*
X64270476Y-7200000D01*
X64175238Y-7152380D01*
X63984761Y-7152380D01*
X63889523Y-7200000D01*
X63841904Y-7247619D01*
X63794285Y-7342857D01*
X63794285Y-7580952D01*
X63841904Y-7676190D01*
X63889523Y-7723809D01*
X63984761Y-7771428D01*
X64175238Y-7771428D01*
X64270476Y-7723809D01*
X64318095Y-7676190D01*
X64365714Y-7580952D01*
X8342380Y-10731904D02*
X9151904Y-10731904D01*
X9247142Y-10684285D01*
X9294761Y-10636666D01*
X9342380Y-10541428D01*
X9342380Y-10350952D01*
X9294761Y-10255714D01*
X9247142Y-10208095D01*
X9151904Y-10160476D01*
X8342380Y-10160476D01*
X8437619Y-9731904D02*
X8390000Y-9684285D01*
X8342380Y-9589047D01*
X8342380Y-9350952D01*
X8390000Y-9255714D01*
X8437619Y-9208095D01*
X8532857Y-9160476D01*
X8628095Y-9160476D01*
X8770952Y-9208095D01*
X9342380Y-9779523D01*
X9342380Y-9160476D01*
X48427142Y-2857142D02*
X48379523Y-2904761D01*
X48236666Y-2952380D01*
X48141428Y-2952380D01*
X47998571Y-2904761D01*
X47903333Y-2809523D01*
X47855714Y-2714285D01*
X47808095Y-2523809D01*
X47808095Y-2380952D01*
X47855714Y-2190476D01*
X47903333Y-2095238D01*
X47998571Y-2000000D01*
X48141428Y-1952380D01*
X48236666Y-1952380D01*
X48379523Y-2000000D01*
X48427142Y-2047619D01*
X49379523Y-2952380D02*
X48808095Y-2952380D01*
X49093809Y-2952380D02*
X49093809Y-1952380D01*
X48998571Y-2095238D01*
X48903333Y-2190476D01*
X48808095Y-2238095D01*
X49760476Y-2047619D02*
X49808095Y-2000000D01*
X49903333Y-1952380D01*
X50141428Y-1952380D01*
X50236666Y-2000000D01*
X50284285Y-2047619D01*
X50331904Y-2142857D01*
X50331904Y-2238095D01*
X50284285Y-2380952D01*
X49712857Y-2952380D01*
X50331904Y-2952380D01*
X8422380Y-3873333D02*
X9136666Y-3873333D01*
X9279523Y-3920952D01*
X9374761Y-4016190D01*
X9422380Y-4159047D01*
X9422380Y-4254285D01*
X8422380Y-3492380D02*
X8422380Y-2873333D01*
X8803333Y-3206666D01*
X8803333Y-3063809D01*
X8850952Y-2968571D01*
X8898571Y-2920952D01*
X8993809Y-2873333D01*
X9231904Y-2873333D01*
X9327142Y-2920952D01*
X9374761Y-2968571D01*
X9422380Y-3063809D01*
X9422380Y-3349523D01*
X9374761Y-3444761D01*
X9327142Y-3492380D01*
X52652380Y-3143333D02*
X53366666Y-3143333D01*
X53509523Y-3190952D01*
X53604761Y-3286190D01*
X53652380Y-3429047D01*
X53652380Y-3524285D01*
X53652380Y-2667142D02*
X52652380Y-2667142D01*
X52652380Y-2286190D01*
X52700000Y-2190952D01*
X52747619Y-2143333D01*
X52842857Y-2095714D01*
X52985714Y-2095714D01*
X53080952Y-2143333D01*
X53128571Y-2190952D01*
X53176190Y-2286190D01*
X53176190Y-2667142D01*
X52747619Y-1714761D02*
X52700000Y-1667142D01*
X52652380Y-1571904D01*
X52652380Y-1333809D01*
X52700000Y-1238571D01*
X52747619Y-1190952D01*
X52842857Y-1143333D01*
X52938095Y-1143333D01*
X53080952Y-1190952D01*
X53652380Y-1762380D01*
X53652380Y-1143333D01*
X65357142Y-11322857D02*
X65404761Y-11370476D01*
X65452380Y-11513333D01*
X65452380Y-11608571D01*
X65404761Y-11751428D01*
X65309523Y-11846666D01*
X65214285Y-11894285D01*
X65023809Y-11941904D01*
X64880952Y-11941904D01*
X64690476Y-11894285D01*
X64595238Y-11846666D01*
X64500000Y-11751428D01*
X64452380Y-11608571D01*
X64452380Y-11513333D01*
X64500000Y-11370476D01*
X64547619Y-11322857D01*
X65452380Y-10370476D02*
X65452380Y-10941904D01*
X65452380Y-10656190D02*
X64452380Y-10656190D01*
X64595238Y-10751428D01*
X64690476Y-10846666D01*
X64738095Y-10941904D01*
X65452380Y-9418095D02*
X65452380Y-9989523D01*
X65452380Y-9703809D02*
X64452380Y-9703809D01*
X64595238Y-9799047D01*
X64690476Y-9894285D01*
X64738095Y-9989523D01*
X65652380Y-1573333D02*
X66366666Y-1573333D01*
X66509523Y-1620952D01*
X66604761Y-1716190D01*
X66652380Y-1859047D01*
X66652380Y-1954285D01*
X65652380Y-668571D02*
X65652380Y-859047D01*
X65700000Y-954285D01*
X65747619Y-1001904D01*
X65890476Y-1097142D01*
X66080952Y-1144761D01*
X66461904Y-1144761D01*
X66557142Y-1097142D01*
X66604761Y-1049523D01*
X66652380Y-954285D01*
X66652380Y-763809D01*
X66604761Y-668571D01*
X66557142Y-620952D01*
X66461904Y-573333D01*
X66223809Y-573333D01*
X66128571Y-620952D01*
X66080952Y-668571D01*
X66033333Y-763809D01*
X66033333Y-954285D01*
X66080952Y-1049523D01*
X66128571Y-1097142D01*
X66223809Y-1144761D01*
X63443333Y-9787142D02*
X63395714Y-9834761D01*
X63252857Y-9882380D01*
X63157619Y-9882380D01*
X63014761Y-9834761D01*
X62919523Y-9739523D01*
X62871904Y-9644285D01*
X62824285Y-9453809D01*
X62824285Y-9310952D01*
X62871904Y-9120476D01*
X62919523Y-9025238D01*
X63014761Y-8930000D01*
X63157619Y-8882380D01*
X63252857Y-8882380D01*
X63395714Y-8930000D01*
X63443333Y-8977619D01*
X63776666Y-8882380D02*
X64443333Y-8882380D01*
X64014761Y-9882380D01*
D12*
X24064523Y-42289761D02*
X22794523Y-42289761D01*
X23943571Y-40959285D02*
X24004047Y-41019761D01*
X24064523Y-41201190D01*
X24064523Y-41322142D01*
X24004047Y-41503571D01*
X23883095Y-41624523D01*
X23762142Y-41685000D01*
X23520238Y-41745476D01*
X23338809Y-41745476D01*
X23096904Y-41685000D01*
X22975952Y-41624523D01*
X22855000Y-41503571D01*
X22794523Y-41322142D01*
X22794523Y-41201190D01*
X22855000Y-41019761D01*
X22915476Y-40959285D01*
X22915476Y-40475476D02*
X22855000Y-40415000D01*
X22794523Y-40294047D01*
X22794523Y-39991666D01*
X22855000Y-39870714D01*
X22915476Y-39810238D01*
X23036428Y-39749761D01*
X23157380Y-39749761D01*
X23338809Y-39810238D01*
X24064523Y-40535952D01*
X24064523Y-39749761D01*
D11*
X24836666Y-32302380D02*
X24836666Y-33016666D01*
X24789047Y-33159523D01*
X24693809Y-33254761D01*
X24550952Y-33302380D01*
X24455714Y-33302380D01*
X25217619Y-32302380D02*
X25884285Y-32302380D01*
X25455714Y-33302380D01*
X47417142Y-20106666D02*
X47464761Y-20154285D01*
X47512380Y-20297142D01*
X47512380Y-20392380D01*
X47464761Y-20535238D01*
X47369523Y-20630476D01*
X47274285Y-20678095D01*
X47083809Y-20725714D01*
X46940952Y-20725714D01*
X46750476Y-20678095D01*
X46655238Y-20630476D01*
X46560000Y-20535238D01*
X46512380Y-20392380D01*
X46512380Y-20297142D01*
X46560000Y-20154285D01*
X46607619Y-20106666D01*
X46940952Y-19535238D02*
X46893333Y-19630476D01*
X46845714Y-19678095D01*
X46750476Y-19725714D01*
X46702857Y-19725714D01*
X46607619Y-19678095D01*
X46560000Y-19630476D01*
X46512380Y-19535238D01*
X46512380Y-19344761D01*
X46560000Y-19249523D01*
X46607619Y-19201904D01*
X46702857Y-19154285D01*
X46750476Y-19154285D01*
X46845714Y-19201904D01*
X46893333Y-19249523D01*
X46940952Y-19344761D01*
X46940952Y-19535238D01*
X46988571Y-19630476D01*
X47036190Y-19678095D01*
X47131428Y-19725714D01*
X47321904Y-19725714D01*
X47417142Y-19678095D01*
X47464761Y-19630476D01*
X47512380Y-19535238D01*
X47512380Y-19344761D01*
X47464761Y-19249523D01*
X47417142Y-19201904D01*
X47321904Y-19154285D01*
X47131428Y-19154285D01*
X47036190Y-19201904D01*
X46988571Y-19249523D01*
X46940952Y-19344761D01*
X58023333Y-7242380D02*
X57690000Y-6766190D01*
X57451904Y-7242380D02*
X57451904Y-6242380D01*
X57832857Y-6242380D01*
X57928095Y-6290000D01*
X57975714Y-6337619D01*
X58023333Y-6432857D01*
X58023333Y-6575714D01*
X57975714Y-6670952D01*
X57928095Y-6718571D01*
X57832857Y-6766190D01*
X57451904Y-6766190D01*
X58594761Y-6670952D02*
X58499523Y-6623333D01*
X58451904Y-6575714D01*
X58404285Y-6480476D01*
X58404285Y-6432857D01*
X58451904Y-6337619D01*
X58499523Y-6290000D01*
X58594761Y-6242380D01*
X58785238Y-6242380D01*
X58880476Y-6290000D01*
X58928095Y-6337619D01*
X58975714Y-6432857D01*
X58975714Y-6480476D01*
X58928095Y-6575714D01*
X58880476Y-6623333D01*
X58785238Y-6670952D01*
X58594761Y-6670952D01*
X58499523Y-6718571D01*
X58451904Y-6766190D01*
X58404285Y-6861428D01*
X58404285Y-7051904D01*
X58451904Y-7147142D01*
X58499523Y-7194761D01*
X58594761Y-7242380D01*
X58785238Y-7242380D01*
X58880476Y-7194761D01*
X58928095Y-7147142D01*
X58975714Y-7051904D01*
X58975714Y-6861428D01*
X58928095Y-6766190D01*
X58880476Y-6718571D01*
X58785238Y-6670952D01*
X65706666Y-50642380D02*
X65706666Y-51356666D01*
X65659047Y-51499523D01*
X65563809Y-51594761D01*
X65420952Y-51642380D01*
X65325714Y-51642380D01*
X66182857Y-51642380D02*
X66182857Y-50642380D01*
X66563809Y-50642380D01*
X66659047Y-50690000D01*
X66706666Y-50737619D01*
X66754285Y-50832857D01*
X66754285Y-50975714D01*
X66706666Y-51070952D01*
X66659047Y-51118571D01*
X66563809Y-51166190D01*
X66182857Y-51166190D01*
X67706666Y-51642380D02*
X67135238Y-51642380D01*
X67420952Y-51642380D02*
X67420952Y-50642380D01*
X67325714Y-50785238D01*
X67230476Y-50880476D01*
X67135238Y-50928095D01*
D12*
X58184523Y-20571666D02*
X58184523Y-21176428D01*
X56914523Y-21176428D01*
X58184523Y-19483095D02*
X58184523Y-20208809D01*
X58184523Y-19845952D02*
X56914523Y-19845952D01*
X57095952Y-19966904D01*
X57216904Y-20087857D01*
X57277380Y-20208809D01*
D11*
X53013333Y-9827142D02*
X52965714Y-9874761D01*
X52822857Y-9922380D01*
X52727619Y-9922380D01*
X52584761Y-9874761D01*
X52489523Y-9779523D01*
X52441904Y-9684285D01*
X52394285Y-9493809D01*
X52394285Y-9350952D01*
X52441904Y-9160476D01*
X52489523Y-9065238D01*
X52584761Y-8970000D01*
X52727619Y-8922380D01*
X52822857Y-8922380D01*
X52965714Y-8970000D01*
X53013333Y-9017619D01*
X53489523Y-9922380D02*
X53680000Y-9922380D01*
X53775238Y-9874761D01*
X53822857Y-9827142D01*
X53918095Y-9684285D01*
X53965714Y-9493809D01*
X53965714Y-9112857D01*
X53918095Y-9017619D01*
X53870476Y-8970000D01*
X53775238Y-8922380D01*
X53584761Y-8922380D01*
X53489523Y-8970000D01*
X53441904Y-9017619D01*
X53394285Y-9112857D01*
X53394285Y-9350952D01*
X53441904Y-9446190D01*
X53489523Y-9493809D01*
X53584761Y-9541428D01*
X53775238Y-9541428D01*
X53870476Y-9493809D01*
X53918095Y-9446190D01*
X53965714Y-9350952D01*
D12*
X55764523Y-10649761D02*
X54494523Y-10649761D01*
X55643571Y-9319285D02*
X55704047Y-9379761D01*
X55764523Y-9561190D01*
X55764523Y-9682142D01*
X55704047Y-9863571D01*
X55583095Y-9984523D01*
X55462142Y-10045000D01*
X55220238Y-10105476D01*
X55038809Y-10105476D01*
X54796904Y-10045000D01*
X54675952Y-9984523D01*
X54555000Y-9863571D01*
X54494523Y-9682142D01*
X54494523Y-9561190D01*
X54555000Y-9379761D01*
X54615476Y-9319285D01*
X55764523Y-8109761D02*
X55764523Y-8835476D01*
X55764523Y-8472619D02*
X54494523Y-8472619D01*
X54675952Y-8593571D01*
X54796904Y-8714523D01*
X54857380Y-8835476D01*
D11*
X62537142Y-24977142D02*
X62489523Y-25024761D01*
X62346666Y-25072380D01*
X62251428Y-25072380D01*
X62108571Y-25024761D01*
X62013333Y-24929523D01*
X61965714Y-24834285D01*
X61918095Y-24643809D01*
X61918095Y-24500952D01*
X61965714Y-24310476D01*
X62013333Y-24215238D01*
X62108571Y-24120000D01*
X62251428Y-24072380D01*
X62346666Y-24072380D01*
X62489523Y-24120000D01*
X62537142Y-24167619D01*
X63489523Y-25072380D02*
X62918095Y-25072380D01*
X63203809Y-25072380D02*
X63203809Y-24072380D01*
X63108571Y-24215238D01*
X63013333Y-24310476D01*
X62918095Y-24358095D01*
X64108571Y-24072380D02*
X64203809Y-24072380D01*
X64299047Y-24120000D01*
X64346666Y-24167619D01*
X64394285Y-24262857D01*
X64441904Y-24453333D01*
X64441904Y-24691428D01*
X64394285Y-24881904D01*
X64346666Y-24977142D01*
X64299047Y-25024761D01*
X64203809Y-25072380D01*
X64108571Y-25072380D01*
X64013333Y-25024761D01*
X63965714Y-24977142D01*
X63918095Y-24881904D01*
X63870476Y-24691428D01*
X63870476Y-24453333D01*
X63918095Y-24262857D01*
X63965714Y-24167619D01*
X64013333Y-24120000D01*
X64108571Y-24072380D01*
X50017142Y-13192857D02*
X50064761Y-13240476D01*
X50112380Y-13383333D01*
X50112380Y-13478571D01*
X50064761Y-13621428D01*
X49969523Y-13716666D01*
X49874285Y-13764285D01*
X49683809Y-13811904D01*
X49540952Y-13811904D01*
X49350476Y-13764285D01*
X49255238Y-13716666D01*
X49160000Y-13621428D01*
X49112380Y-13478571D01*
X49112380Y-13383333D01*
X49160000Y-13240476D01*
X49207619Y-13192857D01*
X50112380Y-12240476D02*
X50112380Y-12811904D01*
X50112380Y-12526190D02*
X49112380Y-12526190D01*
X49255238Y-12621428D01*
X49350476Y-12716666D01*
X49398095Y-12811904D01*
X49445714Y-11383333D02*
X50112380Y-11383333D01*
X49064761Y-11621428D02*
X49779047Y-11859523D01*
X49779047Y-11240476D01*
X8352380Y-15593333D02*
X9066666Y-15593333D01*
X9209523Y-15640952D01*
X9304761Y-15736190D01*
X9352380Y-15879047D01*
X9352380Y-15974285D01*
X8780952Y-14974285D02*
X8733333Y-15069523D01*
X8685714Y-15117142D01*
X8590476Y-15164761D01*
X8542857Y-15164761D01*
X8447619Y-15117142D01*
X8400000Y-15069523D01*
X8352380Y-14974285D01*
X8352380Y-14783809D01*
X8400000Y-14688571D01*
X8447619Y-14640952D01*
X8542857Y-14593333D01*
X8590476Y-14593333D01*
X8685714Y-14640952D01*
X8733333Y-14688571D01*
X8780952Y-14783809D01*
X8780952Y-14974285D01*
X8828571Y-15069523D01*
X8876190Y-15117142D01*
X8971428Y-15164761D01*
X9161904Y-15164761D01*
X9257142Y-15117142D01*
X9304761Y-15069523D01*
X9352380Y-14974285D01*
X9352380Y-14783809D01*
X9304761Y-14688571D01*
X9257142Y-14640952D01*
X9161904Y-14593333D01*
X8971428Y-14593333D01*
X8876190Y-14640952D01*
X8828571Y-14688571D01*
X8780952Y-14783809D01*
X61027142Y-16537142D02*
X60979523Y-16584761D01*
X60836666Y-16632380D01*
X60741428Y-16632380D01*
X60598571Y-16584761D01*
X60503333Y-16489523D01*
X60455714Y-16394285D01*
X60408095Y-16203809D01*
X60408095Y-16060952D01*
X60455714Y-15870476D01*
X60503333Y-15775238D01*
X60598571Y-15680000D01*
X60741428Y-15632380D01*
X60836666Y-15632380D01*
X60979523Y-15680000D01*
X61027142Y-15727619D01*
X61979523Y-16632380D02*
X61408095Y-16632380D01*
X61693809Y-16632380D02*
X61693809Y-15632380D01*
X61598571Y-15775238D01*
X61503333Y-15870476D01*
X61408095Y-15918095D01*
X62312857Y-15632380D02*
X62931904Y-15632380D01*
X62598571Y-16013333D01*
X62741428Y-16013333D01*
X62836666Y-16060952D01*
X62884285Y-16108571D01*
X62931904Y-16203809D01*
X62931904Y-16441904D01*
X62884285Y-16537142D01*
X62836666Y-16584761D01*
X62741428Y-16632380D01*
X62455714Y-16632380D01*
X62360476Y-16584761D01*
X62312857Y-16537142D01*
X37272380Y-10781904D02*
X38081904Y-10781904D01*
X38177142Y-10734285D01*
X38224761Y-10686666D01*
X38272380Y-10591428D01*
X38272380Y-10400952D01*
X38224761Y-10305714D01*
X38177142Y-10258095D01*
X38081904Y-10210476D01*
X37272380Y-10210476D01*
X38272380Y-9210476D02*
X38272380Y-9781904D01*
X38272380Y-9496190D02*
X37272380Y-9496190D01*
X37415238Y-9591428D01*
X37510476Y-9686666D01*
X37558095Y-9781904D01*
D13*
X21600000Y-23100000D02*
X21600000Y-22490000D01*
X15200000Y-26100000D02*
X15200000Y-26600000D01*
X23550000Y-23100000D02*
X21600000Y-23100000D01*
X17000000Y-26100000D02*
X17200000Y-26100000D01*
X12600000Y-23100000D02*
X10650000Y-23100000D01*
X19000000Y-26600000D02*
X19000000Y-26100000D01*
X21200000Y-26100000D02*
X21200000Y-26600000D01*
X13000000Y-26600000D02*
X13000000Y-26100000D01*
X10040000Y-23800000D02*
X10650000Y-23800000D01*
X10650000Y-23100000D02*
X10650000Y-26600000D01*
X15100000Y-26600000D02*
X15100000Y-26100000D01*
X11800000Y-22490000D02*
X11800000Y-22290000D01*
X10650000Y-26600000D02*
X23550000Y-26600000D01*
X11800000Y-22290000D02*
X11500000Y-22290000D01*
X24160000Y-22490000D02*
X10040000Y-22490000D01*
X13100000Y-26600000D02*
X13100000Y-26100000D01*
X13200000Y-26100000D02*
X13200000Y-26600000D01*
X19000000Y-26100000D02*
X19200000Y-26100000D01*
X17100000Y-26600000D02*
X17100000Y-26100000D01*
X11800000Y-22390000D02*
X11500000Y-22390000D01*
X10040000Y-22490000D02*
X10040000Y-27210000D01*
X17000000Y-26600000D02*
X17000000Y-26100000D01*
X10040000Y-27210000D02*
X24160000Y-27210000D01*
X24160000Y-23800000D02*
X23550000Y-23800000D01*
X10040000Y-25100000D02*
X10650000Y-25100000D01*
X12600000Y-22490000D02*
X12600000Y-23100000D01*
X21100000Y-26600000D02*
X21100000Y-26100000D01*
X24160000Y-25100000D02*
X23550000Y-25100000D01*
X15000000Y-26600000D02*
X15000000Y-26100000D01*
X11500000Y-22290000D02*
X11500000Y-22490000D01*
X24160000Y-27210000D02*
X24160000Y-22490000D01*
X10990000Y-22190000D02*
X9740000Y-22190000D01*
X9740000Y-22190000D02*
X9740000Y-23440000D01*
X19100000Y-26600000D02*
X19100000Y-26100000D01*
X13000000Y-26100000D02*
X13200000Y-26100000D01*
X21000000Y-26100000D02*
X21200000Y-26100000D01*
X21000000Y-26600000D02*
X21000000Y-26100000D01*
X23550000Y-26600000D02*
X23550000Y-23100000D01*
X19200000Y-26100000D02*
X19200000Y-26600000D01*
X15000000Y-26100000D02*
X15200000Y-26100000D01*
X17200000Y-26100000D02*
X17200000Y-26600000D01*
X56424000Y-46607000D02*
X56424000Y-49757000D01*
X58124000Y-46607000D02*
X56424000Y-46607000D01*
X58124000Y-46607000D02*
X58124000Y-49757000D01*
X58085000Y-25555000D02*
X58085000Y-42065000D01*
X58085000Y-42065000D02*
X36495000Y-42065000D01*
X36495000Y-25555000D02*
X36495000Y-42065000D01*
X58085000Y-25555000D02*
X36495000Y-25555000D01*
X57424600Y-39779000D02*
G75*
G03*
X57424600Y-39779000I-1689100J0D01*
G01*
X40533600Y-39779000D02*
G75*
G03*
X40533600Y-39779000I-1689100J0D01*
G01*
X1114000Y-18652000D02*
X1614000Y-18652000D01*
X1614000Y-20752000D02*
X1114000Y-20752000D01*
X1114000Y-10652000D02*
X1614000Y-10652000D01*
X1614000Y-16752000D02*
X1114000Y-16752000D01*
X1614000Y-10752000D02*
X1114000Y-10752000D01*
X1114000Y-14552000D02*
X1614000Y-14552000D01*
X5224000Y-7592000D02*
X504000Y-7592000D01*
X1614000Y-20552000D02*
X1614000Y-20752000D01*
X1114000Y-16652000D02*
X1614000Y-16652000D01*
X1114000Y-22552000D02*
X1614000Y-22552000D01*
X3914000Y-27712000D02*
X3914000Y-27102000D01*
X1614000Y-12752000D02*
X1114000Y-12752000D01*
X5524000Y-7292000D02*
X4274000Y-7292000D01*
X1614000Y-14752000D02*
X1114000Y-14752000D01*
X1614000Y-22552000D02*
X1614000Y-22752000D01*
X5224000Y-9352000D02*
X5424000Y-9352000D01*
X1614000Y-24552000D02*
X1614000Y-24752000D01*
X5324000Y-9352000D02*
X5324000Y-9052000D01*
X1614000Y-18752000D02*
X1114000Y-18752000D01*
X1114000Y-10552000D02*
X1614000Y-10552000D01*
X1114000Y-27102000D02*
X4614000Y-27102000D01*
X504000Y-7592000D02*
X504000Y-27712000D01*
X1114000Y-24552000D02*
X1614000Y-24552000D01*
X1614000Y-14552000D02*
X1614000Y-14752000D01*
X1614000Y-16552000D02*
X1614000Y-16752000D01*
X1114000Y-24652000D02*
X1614000Y-24652000D01*
X4614000Y-10152000D02*
X4614000Y-8202000D01*
X1614000Y-18552000D02*
X1614000Y-18752000D01*
X5224000Y-10152000D02*
X4614000Y-10152000D01*
X1614000Y-10552000D02*
X1614000Y-10752000D01*
X5424000Y-9052000D02*
X5224000Y-9052000D01*
X1114000Y-18552000D02*
X1614000Y-18552000D01*
X5424000Y-9352000D02*
X5424000Y-9052000D01*
X5524000Y-8542000D02*
X5524000Y-7292000D01*
X5224000Y-27712000D02*
X5224000Y-7592000D01*
X1114000Y-20652000D02*
X1614000Y-20652000D01*
X1614000Y-24752000D02*
X1114000Y-24752000D01*
X504000Y-27712000D02*
X5224000Y-27712000D01*
X4614000Y-25152000D02*
X5224000Y-25152000D01*
X1114000Y-12552000D02*
X1614000Y-12552000D01*
X1114000Y-20552000D02*
X1614000Y-20552000D01*
X4614000Y-8202000D02*
X1114000Y-8202000D01*
X1114000Y-8202000D02*
X1114000Y-27102000D01*
X1614000Y-12552000D02*
X1614000Y-12752000D01*
X1114000Y-22652000D02*
X1614000Y-22652000D01*
X2614000Y-27712000D02*
X2614000Y-27102000D01*
X4614000Y-27102000D02*
X4614000Y-25152000D01*
X1114000Y-14652000D02*
X1614000Y-14652000D01*
X1614000Y-22752000D02*
X1114000Y-22752000D01*
X3914000Y-7592000D02*
X3914000Y-8202000D01*
X1114000Y-16552000D02*
X1614000Y-16552000D01*
X2614000Y-7592000D02*
X2614000Y-8202000D01*
X1114000Y-12652000D02*
X1614000Y-12652000D01*
X57984000Y-44438422D02*
X57984000Y-44955578D01*
X56564000Y-44438422D02*
X56564000Y-44955578D01*
X58596000Y-47915922D02*
X58596000Y-48433078D01*
X60016000Y-47915922D02*
X60016000Y-48433078D01*
D11*
X67085000Y-30695000D02*
X62435000Y-30695000D01*
X67085000Y-40420000D02*
X68160000Y-40420000D01*
X67085000Y-30695000D02*
X67085000Y-31020000D01*
X67085000Y-40645000D02*
X62435000Y-40645000D01*
X67085000Y-40645000D02*
X67085000Y-40420000D01*
X62435000Y-30695000D02*
X62435000Y-31020000D01*
X62435000Y-40645000D02*
X62435000Y-40320000D01*
D13*
X69440000Y-36440000D02*
X74160000Y-36440000D01*
X69440000Y-20320000D02*
X69440000Y-36440000D01*
X73550000Y-35830000D02*
X73550000Y-20930000D01*
X69240000Y-34680000D02*
X69240000Y-34980000D01*
X70750000Y-20320000D02*
X70750000Y-20930000D01*
X70050000Y-35830000D02*
X73550000Y-35830000D01*
X69240000Y-34980000D02*
X69440000Y-34980000D01*
X73550000Y-27380000D02*
X73050000Y-27380000D01*
X73550000Y-29380000D02*
X73050000Y-29380000D01*
X73050000Y-27480000D02*
X73050000Y-27280000D01*
X73050000Y-25480000D02*
X73050000Y-25280000D01*
X74160000Y-20320000D02*
X69440000Y-20320000D01*
X73050000Y-23480000D02*
X73050000Y-23280000D01*
X72050000Y-36440000D02*
X72050000Y-35830000D01*
X73550000Y-23380000D02*
X73050000Y-23380000D01*
X73050000Y-29280000D02*
X73550000Y-29280000D01*
X73550000Y-29480000D02*
X73050000Y-29480000D01*
X73550000Y-33380000D02*
X73050000Y-33380000D01*
X73550000Y-25380000D02*
X73050000Y-25380000D01*
X73050000Y-33480000D02*
X73050000Y-33280000D01*
X73050000Y-33280000D02*
X73550000Y-33280000D01*
X73550000Y-20930000D02*
X70050000Y-20930000D01*
X72050000Y-20320000D02*
X72050000Y-20930000D01*
X73050000Y-25280000D02*
X73550000Y-25280000D01*
X69140000Y-36740000D02*
X70390000Y-36740000D01*
X70050000Y-20930000D02*
X70050000Y-22880000D01*
X73550000Y-27480000D02*
X73050000Y-27480000D01*
X69340000Y-34680000D02*
X69340000Y-34980000D01*
X73550000Y-31380000D02*
X73050000Y-31380000D01*
X73050000Y-31280000D02*
X73550000Y-31280000D01*
X73050000Y-29480000D02*
X73050000Y-29280000D01*
X73550000Y-33480000D02*
X73050000Y-33480000D01*
X73050000Y-31480000D02*
X73050000Y-31280000D01*
X69440000Y-33880000D02*
X70050000Y-33880000D01*
X73550000Y-25480000D02*
X73050000Y-25480000D01*
X70050000Y-33880000D02*
X70050000Y-35830000D01*
X74160000Y-36440000D02*
X74160000Y-20320000D01*
X73050000Y-27280000D02*
X73550000Y-27280000D01*
X69140000Y-35490000D02*
X69140000Y-36740000D01*
X73550000Y-23480000D02*
X73050000Y-23480000D01*
X73050000Y-23280000D02*
X73550000Y-23280000D01*
X73550000Y-31480000D02*
X73050000Y-31480000D01*
X70750000Y-36440000D02*
X70750000Y-35830000D01*
X70050000Y-22880000D02*
X69440000Y-22880000D01*
X69440000Y-34680000D02*
X69240000Y-34680000D01*
X73050000Y-50480000D02*
X73050000Y-50280000D01*
X73550000Y-40380000D02*
X73050000Y-40380000D01*
X73550000Y-37930000D02*
X70050000Y-37930000D01*
X70750000Y-37320000D02*
X70750000Y-37930000D01*
X73050000Y-40480000D02*
X73050000Y-40280000D01*
X73050000Y-44480000D02*
X73050000Y-44280000D01*
X73550000Y-42480000D02*
X73050000Y-42480000D01*
X69440000Y-37320000D02*
X69440000Y-53440000D01*
X70050000Y-39880000D02*
X69440000Y-39880000D01*
X69440000Y-50880000D02*
X70050000Y-50880000D01*
X73050000Y-40280000D02*
X73550000Y-40280000D01*
X73550000Y-44380000D02*
X73050000Y-44380000D01*
X69240000Y-51680000D02*
X69240000Y-51980000D01*
X69340000Y-51680000D02*
X69340000Y-51980000D01*
X69440000Y-53440000D02*
X74160000Y-53440000D01*
X73550000Y-46380000D02*
X73050000Y-46380000D01*
X73550000Y-48480000D02*
X73050000Y-48480000D01*
X69140000Y-52490000D02*
X69140000Y-53740000D01*
X73550000Y-42380000D02*
X73050000Y-42380000D01*
X73050000Y-48280000D02*
X73550000Y-48280000D01*
X69240000Y-51980000D02*
X69440000Y-51980000D01*
X73050000Y-50280000D02*
X73550000Y-50280000D01*
X70750000Y-53440000D02*
X70750000Y-52830000D01*
X73550000Y-52830000D02*
X73550000Y-37930000D01*
X69140000Y-53740000D02*
X70390000Y-53740000D01*
X73050000Y-44280000D02*
X73550000Y-44280000D01*
X73550000Y-44480000D02*
X73050000Y-44480000D01*
X73550000Y-46480000D02*
X73050000Y-46480000D01*
X73550000Y-48380000D02*
X73050000Y-48380000D01*
X69440000Y-51680000D02*
X69240000Y-51680000D01*
X74160000Y-37320000D02*
X69440000Y-37320000D01*
X74160000Y-53440000D02*
X74160000Y-37320000D01*
X73550000Y-50380000D02*
X73050000Y-50380000D01*
X72050000Y-53440000D02*
X72050000Y-52830000D01*
X70050000Y-52830000D02*
X73550000Y-52830000D01*
X73050000Y-42480000D02*
X73050000Y-42280000D01*
X73050000Y-48480000D02*
X73050000Y-48280000D01*
X73050000Y-46480000D02*
X73050000Y-46280000D01*
X73550000Y-50480000D02*
X73050000Y-50480000D01*
X72050000Y-37320000D02*
X72050000Y-37930000D01*
X70050000Y-37930000D02*
X70050000Y-39880000D01*
X73550000Y-40480000D02*
X73050000Y-40480000D01*
X73050000Y-46280000D02*
X73550000Y-46280000D01*
X70050000Y-50880000D02*
X70050000Y-52830000D01*
X73050000Y-42280000D02*
X73550000Y-42280000D01*
X60016000Y-44955578D02*
X60016000Y-44438422D01*
X58596000Y-44955578D02*
X58596000Y-44438422D01*
X33060000Y-19500000D02*
X33060000Y-19200000D01*
X32960000Y-20300000D02*
X32350000Y-20300000D01*
X33260000Y-17440000D02*
X32010000Y-17440000D01*
X33260000Y-18690000D02*
X33260000Y-17440000D01*
X29350000Y-20900000D02*
X28850000Y-20900000D01*
X28240000Y-17740000D02*
X28240000Y-25860000D01*
X33160000Y-19500000D02*
X33160000Y-19200000D01*
X32350000Y-25250000D02*
X32350000Y-23300000D01*
X28850000Y-18350000D02*
X28850000Y-25250000D01*
X28850000Y-22800000D02*
X29350000Y-22800000D01*
X28850000Y-22700000D02*
X29350000Y-22700000D01*
X32350000Y-18350000D02*
X28850000Y-18350000D01*
X30350000Y-17740000D02*
X30350000Y-18350000D01*
X30350000Y-25860000D02*
X30350000Y-25250000D01*
X28850000Y-20800000D02*
X29350000Y-20800000D01*
X31650000Y-17740000D02*
X31650000Y-18350000D01*
X28240000Y-25860000D02*
X32960000Y-25860000D01*
X29350000Y-22900000D02*
X28850000Y-22900000D01*
X28850000Y-25250000D02*
X32350000Y-25250000D01*
X32960000Y-19500000D02*
X33160000Y-19500000D01*
X32960000Y-25860000D02*
X32960000Y-17740000D01*
X29350000Y-22700000D02*
X29350000Y-22900000D01*
X28850000Y-20700000D02*
X29350000Y-20700000D01*
X33160000Y-19200000D02*
X32960000Y-19200000D01*
X31650000Y-25860000D02*
X31650000Y-25250000D01*
X32350000Y-20300000D02*
X32350000Y-18350000D01*
X32960000Y-17740000D02*
X28240000Y-17740000D01*
X32350000Y-23300000D02*
X32960000Y-23300000D01*
X29350000Y-20700000D02*
X29350000Y-20900000D01*
X54401078Y-48760000D02*
X53883922Y-48760000D01*
X54401078Y-50180000D02*
X53883922Y-50180000D01*
X50321422Y-50180000D02*
X50838578Y-50180000D01*
X50321422Y-48760000D02*
X50838578Y-48760000D01*
X32340000Y-29320000D02*
X32340000Y-27370000D01*
X32340000Y-27370000D02*
X28840000Y-27370000D01*
X32340000Y-34270000D02*
X32340000Y-32320000D01*
X31640000Y-34880000D02*
X31640000Y-34270000D01*
X32950000Y-29320000D02*
X32340000Y-29320000D01*
X29340000Y-29720000D02*
X29340000Y-29920000D01*
X32340000Y-32320000D02*
X32950000Y-32320000D01*
X32950000Y-26760000D02*
X28230000Y-26760000D01*
X33150000Y-28220000D02*
X32950000Y-28220000D01*
X28230000Y-26760000D02*
X28230000Y-34880000D01*
X33150000Y-28520000D02*
X33150000Y-28220000D01*
X33250000Y-26460000D02*
X32000000Y-26460000D01*
X28840000Y-31820000D02*
X29340000Y-31820000D01*
X30340000Y-34880000D02*
X30340000Y-34270000D01*
X30340000Y-26760000D02*
X30340000Y-27370000D01*
X31640000Y-26760000D02*
X31640000Y-27370000D01*
X28230000Y-34880000D02*
X32950000Y-34880000D01*
X29340000Y-29920000D02*
X28840000Y-29920000D01*
X32950000Y-34880000D02*
X32950000Y-26760000D01*
X28840000Y-31720000D02*
X29340000Y-31720000D01*
X33050000Y-28520000D02*
X33050000Y-28220000D01*
X29340000Y-31720000D02*
X29340000Y-31920000D01*
X28840000Y-27370000D02*
X28840000Y-34270000D01*
X28840000Y-34270000D02*
X32340000Y-34270000D01*
X29340000Y-31920000D02*
X28840000Y-31920000D01*
X33250000Y-27710000D02*
X33250000Y-26460000D01*
X32950000Y-28520000D02*
X33150000Y-28520000D01*
X28840000Y-29820000D02*
X29340000Y-29820000D01*
X28840000Y-29720000D02*
X29340000Y-29720000D01*
X28840000Y-38820000D02*
X29340000Y-38820000D01*
X29340000Y-38920000D02*
X28840000Y-38920000D01*
X32340000Y-36370000D02*
X28840000Y-36370000D01*
X29340000Y-40720000D02*
X29340000Y-40920000D01*
X32340000Y-43320000D02*
X32950000Y-43320000D01*
X28840000Y-42720000D02*
X29340000Y-42720000D01*
X32950000Y-38320000D02*
X32340000Y-38320000D01*
X33150000Y-37520000D02*
X33150000Y-37220000D01*
X28840000Y-38720000D02*
X29340000Y-38720000D01*
X28840000Y-40820000D02*
X29340000Y-40820000D01*
X28840000Y-36370000D02*
X28840000Y-45270000D01*
X28230000Y-45880000D02*
X32950000Y-45880000D01*
X30340000Y-35760000D02*
X30340000Y-36370000D01*
X32340000Y-45270000D02*
X32340000Y-43320000D01*
X33050000Y-37520000D02*
X33050000Y-37220000D01*
X32950000Y-35760000D02*
X28230000Y-35760000D01*
X33250000Y-35460000D02*
X32000000Y-35460000D01*
X33150000Y-37220000D02*
X32950000Y-37220000D01*
X31640000Y-35760000D02*
X31640000Y-36370000D01*
X28840000Y-45270000D02*
X32340000Y-45270000D01*
X32950000Y-37520000D02*
X33150000Y-37520000D01*
X29340000Y-42720000D02*
X29340000Y-42920000D01*
X28840000Y-40720000D02*
X29340000Y-40720000D01*
X29340000Y-42920000D02*
X28840000Y-42920000D01*
X29340000Y-40920000D02*
X28840000Y-40920000D01*
X28230000Y-35760000D02*
X28230000Y-45880000D01*
X33250000Y-36710000D02*
X33250000Y-35460000D01*
X29340000Y-38720000D02*
X29340000Y-38920000D01*
X32950000Y-45880000D02*
X32950000Y-35760000D01*
X30340000Y-45880000D02*
X30340000Y-45270000D01*
X31640000Y-45880000D02*
X31640000Y-45270000D01*
X32340000Y-38320000D02*
X32340000Y-36370000D01*
X28840000Y-42820000D02*
X29340000Y-42820000D01*
X1050000Y-38280000D02*
X1550000Y-38280000D01*
X1050000Y-34180000D02*
X1550000Y-34180000D01*
X1050000Y-42180000D02*
X1550000Y-42180000D01*
X5360000Y-32980000D02*
X5360000Y-32680000D01*
X5260000Y-32980000D02*
X5260000Y-32680000D01*
X2550000Y-31220000D02*
X2550000Y-31830000D01*
X1050000Y-40180000D02*
X1550000Y-40180000D01*
X4550000Y-44780000D02*
X5160000Y-44780000D01*
X1050000Y-44180000D02*
X1550000Y-44180000D01*
X1050000Y-34280000D02*
X1550000Y-34280000D01*
X5460000Y-32170000D02*
X5460000Y-30920000D01*
X3850000Y-31220000D02*
X3850000Y-31830000D01*
X4550000Y-46730000D02*
X4550000Y-44780000D01*
X5160000Y-47340000D02*
X5160000Y-31220000D01*
X4550000Y-33780000D02*
X4550000Y-31830000D01*
X440000Y-31220000D02*
X440000Y-47340000D01*
X1050000Y-40280000D02*
X1550000Y-40280000D01*
X1550000Y-42380000D02*
X1050000Y-42380000D01*
X1050000Y-36180000D02*
X1550000Y-36180000D01*
X1550000Y-36380000D02*
X1050000Y-36380000D01*
X5460000Y-30920000D02*
X4210000Y-30920000D01*
X1050000Y-31830000D02*
X1050000Y-46730000D01*
X1550000Y-44180000D02*
X1550000Y-44380000D01*
X3850000Y-47340000D02*
X3850000Y-46730000D01*
X1050000Y-46730000D02*
X4550000Y-46730000D01*
X1050000Y-42280000D02*
X1550000Y-42280000D01*
X5360000Y-32680000D02*
X5160000Y-32680000D01*
X440000Y-47340000D02*
X5160000Y-47340000D01*
X1550000Y-42180000D02*
X1550000Y-42380000D01*
X1550000Y-44380000D02*
X1050000Y-44380000D01*
X4550000Y-31830000D02*
X1050000Y-31830000D01*
X1550000Y-34380000D02*
X1050000Y-34380000D01*
X5160000Y-32980000D02*
X5360000Y-32980000D01*
X1550000Y-38180000D02*
X1550000Y-38380000D01*
X1050000Y-36280000D02*
X1550000Y-36280000D01*
X5160000Y-33780000D02*
X4550000Y-33780000D01*
X1050000Y-44280000D02*
X1550000Y-44280000D01*
X1550000Y-36180000D02*
X1550000Y-36380000D01*
X1550000Y-34180000D02*
X1550000Y-34380000D01*
X1050000Y-38180000D02*
X1550000Y-38180000D01*
X2550000Y-47340000D02*
X2550000Y-46730000D01*
X1550000Y-40380000D02*
X1050000Y-40380000D01*
X5160000Y-31220000D02*
X440000Y-31220000D01*
X1550000Y-38380000D02*
X1050000Y-38380000D01*
X1550000Y-40180000D02*
X1550000Y-40380000D01*
X36180000Y-1250000D02*
X36180000Y-1750000D01*
X27120000Y-4050000D02*
X27730000Y-4050000D01*
X42290000Y-5660000D02*
X43540000Y-5660000D01*
X41480000Y-5460000D02*
X41780000Y-5460000D01*
X43240000Y-5360000D02*
X43240000Y-640000D01*
X40680000Y-5360000D02*
X40680000Y-4750000D01*
X43240000Y-640000D02*
X27120000Y-640000D01*
X40280000Y-1750000D02*
X40080000Y-1750000D01*
X30180000Y-1250000D02*
X30180000Y-1750000D01*
X36280000Y-1750000D02*
X36080000Y-1750000D01*
X34280000Y-1750000D02*
X34080000Y-1750000D01*
X43540000Y-5660000D02*
X43540000Y-4410000D01*
X30080000Y-1750000D02*
X30080000Y-1250000D01*
X40680000Y-4750000D02*
X42630000Y-4750000D01*
X38280000Y-1750000D02*
X38080000Y-1750000D01*
X40080000Y-1750000D02*
X40080000Y-1250000D01*
X27730000Y-4750000D02*
X29680000Y-4750000D01*
X38180000Y-1250000D02*
X38180000Y-1750000D01*
X38080000Y-1750000D02*
X38080000Y-1250000D01*
X27120000Y-5360000D02*
X43240000Y-5360000D01*
X34080000Y-1750000D02*
X34080000Y-1250000D01*
X30280000Y-1250000D02*
X30280000Y-1750000D01*
X34280000Y-1250000D02*
X34280000Y-1750000D01*
X43240000Y-4050000D02*
X42630000Y-4050000D01*
X41780000Y-5560000D02*
X41780000Y-5360000D01*
X30280000Y-1750000D02*
X30080000Y-1750000D01*
X40280000Y-1250000D02*
X40280000Y-1750000D01*
X42630000Y-4750000D02*
X42630000Y-1250000D01*
X27120000Y-2750000D02*
X27730000Y-2750000D01*
X32180000Y-1250000D02*
X32180000Y-1750000D01*
X29680000Y-4750000D02*
X29680000Y-5360000D01*
X40180000Y-1250000D02*
X40180000Y-1750000D01*
X32280000Y-1250000D02*
X32280000Y-1750000D01*
X34180000Y-1250000D02*
X34180000Y-1750000D01*
X36080000Y-1750000D02*
X36080000Y-1250000D01*
X43240000Y-2750000D02*
X42630000Y-2750000D01*
X27730000Y-1250000D02*
X27730000Y-4750000D01*
X41480000Y-5560000D02*
X41780000Y-5560000D01*
X41480000Y-5360000D02*
X41480000Y-5560000D01*
X38280000Y-1250000D02*
X38280000Y-1750000D01*
X27120000Y-640000D02*
X27120000Y-5360000D01*
X36280000Y-1250000D02*
X36280000Y-1750000D01*
X32080000Y-1750000D02*
X32080000Y-1250000D01*
X32280000Y-1750000D02*
X32080000Y-1750000D01*
X42630000Y-1250000D02*
X27730000Y-1250000D01*
X52378748Y-15475000D02*
X52901252Y-15475000D01*
X52378748Y-14005000D02*
X52901252Y-14005000D01*
X60742936Y-9155000D02*
X61197064Y-9155000D01*
X60742936Y-7685000D02*
X61197064Y-7685000D01*
X9790000Y-9970000D02*
X9790000Y-8020000D01*
X19910000Y-9970000D02*
X19910000Y-6520000D01*
X19910000Y-9970000D02*
X19910000Y-11920000D01*
X9790000Y-9970000D02*
X9790000Y-11920000D01*
X51920000Y-8855563D02*
X51920000Y-4400000D01*
X46400000Y-4400000D02*
X48100000Y-4400000D01*
X51920000Y-4400000D02*
X50220000Y-4400000D01*
X50855563Y-9920000D02*
X50220000Y-9920000D01*
X47162500Y-10472500D02*
X47787500Y-10472500D01*
X50855563Y-9920000D02*
X51920000Y-8855563D01*
X47464437Y-9920000D02*
X46400000Y-8855563D01*
X47475000Y-10785000D02*
X47475000Y-10160000D01*
X47464437Y-9920000D02*
X48100000Y-9920000D01*
X46400000Y-8855563D02*
X46400000Y-4400000D01*
X24410000Y-5460000D02*
X24710000Y-5460000D01*
X19010000Y-1750000D02*
X19010000Y-1250000D01*
X21110000Y-1250000D02*
X21110000Y-1750000D01*
X23010000Y-1750000D02*
X23010000Y-1250000D01*
X23610000Y-4750000D02*
X25560000Y-4750000D01*
X25560000Y-1250000D02*
X10660000Y-1250000D01*
X10660000Y-4750000D02*
X12610000Y-4750000D01*
X15110000Y-1250000D02*
X15110000Y-1750000D01*
X15210000Y-1250000D02*
X15210000Y-1750000D01*
X21210000Y-1750000D02*
X21010000Y-1750000D01*
X23610000Y-5360000D02*
X23610000Y-4750000D01*
X15010000Y-1750000D02*
X15010000Y-1250000D01*
X23210000Y-1250000D02*
X23210000Y-1750000D01*
X13210000Y-1750000D02*
X13010000Y-1750000D01*
X23210000Y-1750000D02*
X23010000Y-1750000D01*
X13210000Y-1250000D02*
X13210000Y-1750000D01*
X13110000Y-1250000D02*
X13110000Y-1750000D01*
X17010000Y-1750000D02*
X17010000Y-1250000D01*
X13010000Y-1750000D02*
X13010000Y-1250000D01*
X25560000Y-4750000D02*
X25560000Y-1250000D01*
X17110000Y-1250000D02*
X17110000Y-1750000D01*
X12610000Y-4750000D02*
X12610000Y-5360000D01*
X19210000Y-1750000D02*
X19010000Y-1750000D01*
X24410000Y-5560000D02*
X24710000Y-5560000D01*
X10050000Y-4050000D02*
X10660000Y-4050000D01*
X10050000Y-640000D02*
X10050000Y-5360000D01*
X19110000Y-1250000D02*
X19110000Y-1750000D01*
X23110000Y-1250000D02*
X23110000Y-1750000D01*
X24710000Y-5560000D02*
X24710000Y-5360000D01*
X17210000Y-1750000D02*
X17010000Y-1750000D01*
X25220000Y-5660000D02*
X26470000Y-5660000D01*
X26470000Y-5660000D02*
X26470000Y-4410000D01*
X10050000Y-5360000D02*
X26170000Y-5360000D01*
X21210000Y-1250000D02*
X21210000Y-1750000D01*
X10050000Y-2750000D02*
X10660000Y-2750000D01*
X15210000Y-1750000D02*
X15010000Y-1750000D01*
X26170000Y-4050000D02*
X25560000Y-4050000D01*
X19210000Y-1250000D02*
X19210000Y-1750000D01*
X26170000Y-2750000D02*
X25560000Y-2750000D01*
X26170000Y-640000D02*
X10050000Y-640000D01*
X24410000Y-5360000D02*
X24410000Y-5560000D01*
X26170000Y-5360000D02*
X26170000Y-640000D01*
X21010000Y-1750000D02*
X21010000Y-1250000D01*
X17210000Y-1250000D02*
X17210000Y-1750000D01*
X10660000Y-1250000D02*
X10660000Y-4750000D01*
X57030000Y-1330000D02*
X54370000Y-1330000D01*
X57030000Y-3930000D02*
X54370000Y-3930000D01*
X57030000Y-6530000D02*
X55700000Y-6530000D01*
X57030000Y-5200000D02*
X57030000Y-6530000D01*
X54370000Y-3930000D02*
X54370000Y-1330000D01*
X57030000Y-3930000D02*
X57030000Y-1330000D01*
X64625000Y-13508748D02*
X64625000Y-14031252D01*
X63155000Y-13508748D02*
X63155000Y-14031252D01*
X74110000Y-3440000D02*
X71560000Y-590000D01*
X68410000Y-590000D02*
X65810000Y-3440000D01*
X65810000Y-3440000D02*
X65810000Y-16290000D01*
X65810000Y-16290000D02*
X74110000Y-16290000D01*
X74110000Y-16290000D02*
X74110000Y-3440000D01*
X71560000Y-590000D02*
X68410000Y-590000D01*
X62308748Y-11705000D02*
X62831252Y-11705000D01*
X62308748Y-10235000D02*
X62831252Y-10235000D01*
D14*
X15330000Y-42690000D02*
X15330000Y-38990000D01*
X15330000Y-38990000D02*
X21830000Y-38990000D01*
X21830000Y-42690000D02*
X15330000Y-42690000D01*
X15080000Y-44515000D02*
X15080000Y-43040000D01*
X21830000Y-38990000D02*
X21830000Y-42690000D01*
D13*
X10050000Y-30280000D02*
X10050000Y-35000000D01*
X13110000Y-34390000D02*
X13110000Y-33890000D01*
X19110000Y-34390000D02*
X19110000Y-33890000D01*
X11810000Y-30180000D02*
X11510000Y-30180000D01*
X15010000Y-33890000D02*
X15210000Y-33890000D01*
X21610000Y-30890000D02*
X21610000Y-30280000D01*
X10050000Y-32890000D02*
X10660000Y-32890000D01*
X15010000Y-34390000D02*
X15010000Y-33890000D01*
X9750000Y-29980000D02*
X9750000Y-31230000D01*
X13010000Y-33890000D02*
X13210000Y-33890000D01*
X15210000Y-33890000D02*
X15210000Y-34390000D01*
X24170000Y-32890000D02*
X23560000Y-32890000D01*
X21110000Y-34390000D02*
X21110000Y-33890000D01*
X10050000Y-35000000D02*
X24170000Y-35000000D01*
X10660000Y-34390000D02*
X23560000Y-34390000D01*
X17010000Y-34390000D02*
X17010000Y-33890000D01*
X17110000Y-34390000D02*
X17110000Y-33890000D01*
X17210000Y-33890000D02*
X17210000Y-34390000D01*
X11810000Y-30280000D02*
X11810000Y-30080000D01*
X10050000Y-31590000D02*
X10660000Y-31590000D01*
X21010000Y-33890000D02*
X21210000Y-33890000D01*
X13210000Y-33890000D02*
X13210000Y-34390000D01*
X15110000Y-34390000D02*
X15110000Y-33890000D01*
X11810000Y-30080000D02*
X11510000Y-30080000D01*
X24170000Y-30280000D02*
X10050000Y-30280000D01*
X19010000Y-34390000D02*
X19010000Y-33890000D01*
X12610000Y-30890000D02*
X10660000Y-30890000D01*
X19010000Y-33890000D02*
X19210000Y-33890000D01*
X23560000Y-34390000D02*
X23560000Y-30890000D01*
X10660000Y-30890000D02*
X10660000Y-34390000D01*
X12610000Y-30280000D02*
X12610000Y-30890000D01*
X24170000Y-35000000D02*
X24170000Y-30280000D01*
X23560000Y-30890000D02*
X21610000Y-30890000D01*
X24170000Y-31590000D02*
X23560000Y-31590000D01*
X11510000Y-30080000D02*
X11510000Y-30280000D01*
X13010000Y-34390000D02*
X13010000Y-33890000D01*
X19210000Y-33890000D02*
X19210000Y-34390000D01*
X17010000Y-33890000D02*
X17210000Y-33890000D01*
X11000000Y-29980000D02*
X9750000Y-29980000D01*
X21210000Y-33890000D02*
X21210000Y-34390000D01*
X21010000Y-34390000D02*
X21010000Y-33890000D01*
X48762500Y-23252500D02*
X49387500Y-23252500D01*
X52455563Y-22700000D02*
X53520000Y-21635563D01*
X48000000Y-21635563D02*
X48000000Y-17180000D01*
X48000000Y-17180000D02*
X49700000Y-17180000D01*
X52455563Y-22700000D02*
X51820000Y-22700000D01*
X49064437Y-22700000D02*
X49700000Y-22700000D01*
X49064437Y-22700000D02*
X48000000Y-21635563D01*
X49075000Y-23565000D02*
X49075000Y-22940000D01*
X53520000Y-17180000D02*
X51820000Y-17180000D01*
X53520000Y-21635563D02*
X53520000Y-17180000D01*
X57300436Y-9155000D02*
X57754564Y-9155000D01*
X57300436Y-7685000D02*
X57754564Y-7685000D01*
X67870000Y-50190000D02*
X66540000Y-50190000D01*
X67870000Y-42450000D02*
X65210000Y-42450000D01*
X65210000Y-47590000D02*
X65210000Y-42450000D01*
X67870000Y-48860000D02*
X67870000Y-50190000D01*
X67870000Y-47590000D02*
X65210000Y-47590000D01*
X67870000Y-47590000D02*
X67870000Y-42450000D01*
D14*
X54310000Y-16860000D02*
X54310000Y-23860000D01*
X60910000Y-23860000D02*
X60910000Y-16860000D01*
D13*
X52615000Y-12141252D02*
X52615000Y-11618748D01*
X54085000Y-12141252D02*
X54085000Y-11618748D01*
D14*
X54910000Y-11720000D02*
X54910000Y-11720000D01*
X54910000Y-11720000D02*
X54910000Y-11720000D01*
X55010000Y-11720000D02*
X55010000Y-11720000D01*
X54910000Y-11720000D02*
G75*
G03*
X55010000Y-11720000I50000J0D01*
G01*
X55010000Y-11720000D02*
G75*
G03*
X54910000Y-11720000I-50000J0D01*
G01*
X54910000Y-11720000D02*
G75*
G03*
X55010000Y-11720000I50000J0D01*
G01*
D13*
X62645000Y-23565000D02*
X62645000Y-22940000D01*
X62634437Y-22700000D02*
X61570000Y-21635563D01*
X66025563Y-22700000D02*
X65390000Y-22700000D01*
X62332500Y-23252500D02*
X62957500Y-23252500D01*
X66025563Y-22700000D02*
X67090000Y-21635563D01*
X61570000Y-17180000D02*
X63270000Y-17180000D01*
X67090000Y-21635563D02*
X67090000Y-17180000D01*
X62634437Y-22700000D02*
X63270000Y-22700000D01*
X61570000Y-21635563D02*
X61570000Y-17180000D01*
X67090000Y-17180000D02*
X65390000Y-17180000D01*
X50555000Y-12141252D02*
X50555000Y-11618748D01*
X52025000Y-12141252D02*
X52025000Y-11618748D01*
X10050000Y-15780000D02*
X10660000Y-15780000D01*
X9750000Y-14170000D02*
X9750000Y-15420000D01*
X21010000Y-18080000D02*
X21210000Y-18080000D01*
X15010000Y-18580000D02*
X15010000Y-18080000D01*
X19210000Y-18080000D02*
X19210000Y-18580000D01*
X17010000Y-18080000D02*
X17210000Y-18080000D01*
X24170000Y-19190000D02*
X24170000Y-14470000D01*
X10660000Y-18580000D02*
X23560000Y-18580000D01*
X13210000Y-18080000D02*
X13210000Y-18580000D01*
X24170000Y-15780000D02*
X23560000Y-15780000D01*
X11810000Y-14270000D02*
X11510000Y-14270000D01*
X23560000Y-15080000D02*
X21610000Y-15080000D01*
X11810000Y-14370000D02*
X11510000Y-14370000D01*
X21010000Y-18580000D02*
X21010000Y-18080000D01*
X11510000Y-14270000D02*
X11510000Y-14470000D01*
X10050000Y-17080000D02*
X10660000Y-17080000D01*
X10660000Y-15080000D02*
X10660000Y-18580000D01*
X15210000Y-18080000D02*
X15210000Y-18580000D01*
X19010000Y-18580000D02*
X19010000Y-18080000D01*
X17010000Y-18580000D02*
X17010000Y-18080000D01*
X19110000Y-18580000D02*
X19110000Y-18080000D01*
X21210000Y-18080000D02*
X21210000Y-18580000D01*
X21110000Y-18580000D02*
X21110000Y-18080000D01*
X19010000Y-18080000D02*
X19210000Y-18080000D01*
X15110000Y-18580000D02*
X15110000Y-18080000D01*
X21610000Y-15080000D02*
X21610000Y-14470000D01*
X17110000Y-18580000D02*
X17110000Y-18080000D01*
X15010000Y-18080000D02*
X15210000Y-18080000D01*
X12610000Y-15080000D02*
X10660000Y-15080000D01*
X11810000Y-14470000D02*
X11810000Y-14270000D01*
X23560000Y-18580000D02*
X23560000Y-15080000D01*
X17210000Y-18080000D02*
X17210000Y-18580000D01*
X12610000Y-14470000D02*
X12610000Y-15080000D01*
X13010000Y-18580000D02*
X13010000Y-18080000D01*
X13010000Y-18080000D02*
X13210000Y-18080000D01*
X11000000Y-14170000D02*
X9750000Y-14170000D01*
X10050000Y-19190000D02*
X24170000Y-19190000D01*
X24170000Y-17080000D02*
X23560000Y-17080000D01*
X13110000Y-18580000D02*
X13110000Y-18080000D01*
X24170000Y-14470000D02*
X10050000Y-14470000D01*
X10050000Y-14470000D02*
X10050000Y-19190000D01*
X62575000Y-13508748D02*
X62575000Y-14031252D01*
X61105000Y-13508748D02*
X61105000Y-14031252D01*
X36980000Y-10020000D02*
X36980000Y-11970000D01*
X26860000Y-10020000D02*
X26860000Y-8070000D01*
X26860000Y-10020000D02*
X26860000Y-11970000D01*
X36980000Y-10020000D02*
X36980000Y-6570000D01*
M02*
