M48
; DRILL file {KiCad (5.1.4)-1} date 10/23/2021 9:50:50 AM
; FORMAT={2:4/ absolute / inch / suppress leading zeros}
; #@! TF.CreationDate,2021-10-23T09:50:50-05:00
; #@! TF.GenerationSoftware,Kicad,Pcbnew,(5.1.4)-1
FMAT,2
INCH,TZ
T1C0.0374
T2C0.0394
T3C0.1063
T4C0.1181
%
G90
G05
T1
X9200Y-2350
X9200Y-3334
X6900Y-5666
X6900Y-1366
X4600Y-1366
X4600Y-2350
X4600Y-3334
X11500Y-5666
X11500Y-6650
X11500Y-7634
X4600Y-5666
X4600Y-6650
X4600Y-7634
X9200Y-1366
X11500Y-1366
X11500Y-2350
X11500Y-3334
X6900Y-6650
X6900Y-7634
X6900Y-2350
X6900Y-3334
X9200Y-5666
X9200Y-6650
X9200Y-7634
T2
X500Y-1000
X500Y-2000
X500Y-3000
X500Y-4000
X500Y-5000
X500Y-6000
X500Y-7000
X500Y-8000
X1500Y-1000
X1500Y-2000
X1500Y-3000
X1500Y-4000
X1500Y-5000
X1500Y-6000
X1500Y-7000
X1500Y-8000
T3
X13800Y-1400
X13800Y-3369
X13800Y-5631
X13800Y-7600
T4
X16181Y-1431
X-1181Y-7569
X-1181Y-1431
X16181Y-7569
T0
M30
