G04 #@! TF.GenerationSoftware,KiCad,Pcbnew,(5.1.4)-1*
G04 #@! TF.CreationDate,2021-11-04T12:11:43-05:00*
G04 #@! TF.ProjectId,FadecandyHatV1.0,46616465-6361-46e6-9479-48617456312e,rev?*
G04 #@! TF.SameCoordinates,Original*
G04 #@! TF.FileFunction,Copper,L2,Bot*
G04 #@! TF.FilePolarity,Positive*
%FSLAX46Y46*%
G04 Gerber Fmt 4.6, Leading zero omitted, Abs format (unit mm)*
G04 Created by KiCad (PCBNEW (5.1.4)-1) date 2021-11-04 12:11:43*
%MOMM*%
%LPD*%
G04 APERTURE LIST*
%ADD10C,0.100000*%
%ADD11C,1.700000*%
%ADD12O,1.950000X1.700000*%
%ADD13R,3.800000X3.800000*%
%ADD14C,3.800000*%
%ADD15C,4.000000*%
%ADD16R,1.700000X1.700000*%
%ADD17O,1.700000X1.700000*%
%ADD18C,0.800000*%
%ADD19C,5.000000*%
%ADD20C,2.500000*%
%ADD21C,0.500000*%
%ADD22C,0.150000*%
G04 APERTURE END LIST*
D10*
G36*
X12433504Y-2620204D02*
G01*
X12457773Y-2623804D01*
X12481571Y-2629765D01*
X12504671Y-2638030D01*
X12526849Y-2648520D01*
X12547893Y-2661133D01*
X12567598Y-2675747D01*
X12585777Y-2692223D01*
X12602253Y-2710402D01*
X12616867Y-2730107D01*
X12629480Y-2751151D01*
X12639970Y-2773329D01*
X12648235Y-2796429D01*
X12654196Y-2820227D01*
X12657796Y-2844496D01*
X12659000Y-2869000D01*
X12659000Y-4069000D01*
X12657796Y-4093504D01*
X12654196Y-4117773D01*
X12648235Y-4141571D01*
X12639970Y-4164671D01*
X12629480Y-4186849D01*
X12616867Y-4207893D01*
X12602253Y-4227598D01*
X12585777Y-4245777D01*
X12567598Y-4262253D01*
X12547893Y-4276867D01*
X12526849Y-4289480D01*
X12504671Y-4299970D01*
X12481571Y-4308235D01*
X12457773Y-4314196D01*
X12433504Y-4317796D01*
X12409000Y-4319000D01*
X10959000Y-4319000D01*
X10934496Y-4317796D01*
X10910227Y-4314196D01*
X10886429Y-4308235D01*
X10863329Y-4299970D01*
X10841151Y-4289480D01*
X10820107Y-4276867D01*
X10800402Y-4262253D01*
X10782223Y-4245777D01*
X10765747Y-4227598D01*
X10751133Y-4207893D01*
X10738520Y-4186849D01*
X10728030Y-4164671D01*
X10719765Y-4141571D01*
X10713804Y-4117773D01*
X10710204Y-4093504D01*
X10709000Y-4069000D01*
X10709000Y-2869000D01*
X10710204Y-2844496D01*
X10713804Y-2820227D01*
X10719765Y-2796429D01*
X10728030Y-2773329D01*
X10738520Y-2751151D01*
X10751133Y-2730107D01*
X10765747Y-2710402D01*
X10782223Y-2692223D01*
X10800402Y-2675747D01*
X10820107Y-2661133D01*
X10841151Y-2648520D01*
X10863329Y-2638030D01*
X10886429Y-2629765D01*
X10910227Y-2623804D01*
X10934496Y-2620204D01*
X10959000Y-2619000D01*
X12409000Y-2619000D01*
X12433504Y-2620204D01*
X12433504Y-2620204D01*
G37*
D11*
X11684000Y-3469000D03*
D12*
X11684000Y-5969000D03*
X11684000Y-8469000D03*
D13*
X35052000Y-3556000D03*
D14*
X35052000Y-8556000D03*
D12*
X17526000Y-8469000D03*
X17526000Y-5969000D03*
D10*
G36*
X18275504Y-2620204D02*
G01*
X18299773Y-2623804D01*
X18323571Y-2629765D01*
X18346671Y-2638030D01*
X18368849Y-2648520D01*
X18389893Y-2661133D01*
X18409598Y-2675747D01*
X18427777Y-2692223D01*
X18444253Y-2710402D01*
X18458867Y-2730107D01*
X18471480Y-2751151D01*
X18481970Y-2773329D01*
X18490235Y-2796429D01*
X18496196Y-2820227D01*
X18499796Y-2844496D01*
X18501000Y-2869000D01*
X18501000Y-4069000D01*
X18499796Y-4093504D01*
X18496196Y-4117773D01*
X18490235Y-4141571D01*
X18481970Y-4164671D01*
X18471480Y-4186849D01*
X18458867Y-4207893D01*
X18444253Y-4227598D01*
X18427777Y-4245777D01*
X18409598Y-4262253D01*
X18389893Y-4276867D01*
X18368849Y-4289480D01*
X18346671Y-4299970D01*
X18323571Y-4308235D01*
X18299773Y-4314196D01*
X18275504Y-4317796D01*
X18251000Y-4319000D01*
X16801000Y-4319000D01*
X16776496Y-4317796D01*
X16752227Y-4314196D01*
X16728429Y-4308235D01*
X16705329Y-4299970D01*
X16683151Y-4289480D01*
X16662107Y-4276867D01*
X16642402Y-4262253D01*
X16624223Y-4245777D01*
X16607747Y-4227598D01*
X16593133Y-4207893D01*
X16580520Y-4186849D01*
X16570030Y-4164671D01*
X16561765Y-4141571D01*
X16555804Y-4117773D01*
X16552204Y-4093504D01*
X16551000Y-4069000D01*
X16551000Y-2869000D01*
X16552204Y-2844496D01*
X16555804Y-2820227D01*
X16561765Y-2796429D01*
X16570030Y-2773329D01*
X16580520Y-2751151D01*
X16593133Y-2730107D01*
X16607747Y-2710402D01*
X16624223Y-2692223D01*
X16642402Y-2675747D01*
X16662107Y-2661133D01*
X16683151Y-2648520D01*
X16705329Y-2638030D01*
X16728429Y-2629765D01*
X16752227Y-2623804D01*
X16776496Y-2620204D01*
X16801000Y-2619000D01*
X18251000Y-2619000D01*
X18275504Y-2620204D01*
X18275504Y-2620204D01*
G37*
D11*
X17526000Y-3469000D03*
D13*
X35052000Y-19304000D03*
D15*
X35052000Y-14304000D03*
D12*
X23368000Y-8469000D03*
X23368000Y-5969000D03*
D10*
G36*
X24117504Y-2620204D02*
G01*
X24141773Y-2623804D01*
X24165571Y-2629765D01*
X24188671Y-2638030D01*
X24210849Y-2648520D01*
X24231893Y-2661133D01*
X24251598Y-2675747D01*
X24269777Y-2692223D01*
X24286253Y-2710402D01*
X24300867Y-2730107D01*
X24313480Y-2751151D01*
X24323970Y-2773329D01*
X24332235Y-2796429D01*
X24338196Y-2820227D01*
X24341796Y-2844496D01*
X24343000Y-2869000D01*
X24343000Y-4069000D01*
X24341796Y-4093504D01*
X24338196Y-4117773D01*
X24332235Y-4141571D01*
X24323970Y-4164671D01*
X24313480Y-4186849D01*
X24300867Y-4207893D01*
X24286253Y-4227598D01*
X24269777Y-4245777D01*
X24251598Y-4262253D01*
X24231893Y-4276867D01*
X24210849Y-4289480D01*
X24188671Y-4299970D01*
X24165571Y-4308235D01*
X24141773Y-4314196D01*
X24117504Y-4317796D01*
X24093000Y-4319000D01*
X22643000Y-4319000D01*
X22618496Y-4317796D01*
X22594227Y-4314196D01*
X22570429Y-4308235D01*
X22547329Y-4299970D01*
X22525151Y-4289480D01*
X22504107Y-4276867D01*
X22484402Y-4262253D01*
X22466223Y-4245777D01*
X22449747Y-4227598D01*
X22435133Y-4207893D01*
X22422520Y-4186849D01*
X22412030Y-4164671D01*
X22403765Y-4141571D01*
X22397804Y-4117773D01*
X22394204Y-4093504D01*
X22393000Y-4069000D01*
X22393000Y-2869000D01*
X22394204Y-2844496D01*
X22397804Y-2820227D01*
X22403765Y-2796429D01*
X22412030Y-2773329D01*
X22422520Y-2751151D01*
X22435133Y-2730107D01*
X22449747Y-2710402D01*
X22466223Y-2692223D01*
X22484402Y-2675747D01*
X22504107Y-2661133D01*
X22525151Y-2648520D01*
X22547329Y-2638030D01*
X22570429Y-2629765D01*
X22594227Y-2623804D01*
X22618496Y-2620204D01*
X22643000Y-2619000D01*
X24093000Y-2619000D01*
X24117504Y-2620204D01*
X24117504Y-2620204D01*
G37*
D11*
X23368000Y-3469000D03*
D10*
G36*
X29959504Y-2620204D02*
G01*
X29983773Y-2623804D01*
X30007571Y-2629765D01*
X30030671Y-2638030D01*
X30052849Y-2648520D01*
X30073893Y-2661133D01*
X30093598Y-2675747D01*
X30111777Y-2692223D01*
X30128253Y-2710402D01*
X30142867Y-2730107D01*
X30155480Y-2751151D01*
X30165970Y-2773329D01*
X30174235Y-2796429D01*
X30180196Y-2820227D01*
X30183796Y-2844496D01*
X30185000Y-2869000D01*
X30185000Y-4069000D01*
X30183796Y-4093504D01*
X30180196Y-4117773D01*
X30174235Y-4141571D01*
X30165970Y-4164671D01*
X30155480Y-4186849D01*
X30142867Y-4207893D01*
X30128253Y-4227598D01*
X30111777Y-4245777D01*
X30093598Y-4262253D01*
X30073893Y-4276867D01*
X30052849Y-4289480D01*
X30030671Y-4299970D01*
X30007571Y-4308235D01*
X29983773Y-4314196D01*
X29959504Y-4317796D01*
X29935000Y-4319000D01*
X28485000Y-4319000D01*
X28460496Y-4317796D01*
X28436227Y-4314196D01*
X28412429Y-4308235D01*
X28389329Y-4299970D01*
X28367151Y-4289480D01*
X28346107Y-4276867D01*
X28326402Y-4262253D01*
X28308223Y-4245777D01*
X28291747Y-4227598D01*
X28277133Y-4207893D01*
X28264520Y-4186849D01*
X28254030Y-4164671D01*
X28245765Y-4141571D01*
X28239804Y-4117773D01*
X28236204Y-4093504D01*
X28235000Y-4069000D01*
X28235000Y-2869000D01*
X28236204Y-2844496D01*
X28239804Y-2820227D01*
X28245765Y-2796429D01*
X28254030Y-2773329D01*
X28264520Y-2751151D01*
X28277133Y-2730107D01*
X28291747Y-2710402D01*
X28308223Y-2692223D01*
X28326402Y-2675747D01*
X28346107Y-2661133D01*
X28367151Y-2648520D01*
X28389329Y-2638030D01*
X28412429Y-2629765D01*
X28436227Y-2623804D01*
X28460496Y-2620204D01*
X28485000Y-2619000D01*
X29935000Y-2619000D01*
X29959504Y-2620204D01*
X29959504Y-2620204D01*
G37*
D11*
X29210000Y-3469000D03*
D12*
X29210000Y-5969000D03*
X29210000Y-8469000D03*
D10*
G36*
X12433504Y-13542204D02*
G01*
X12457773Y-13545804D01*
X12481571Y-13551765D01*
X12504671Y-13560030D01*
X12526849Y-13570520D01*
X12547893Y-13583133D01*
X12567598Y-13597747D01*
X12585777Y-13614223D01*
X12602253Y-13632402D01*
X12616867Y-13652107D01*
X12629480Y-13673151D01*
X12639970Y-13695329D01*
X12648235Y-13718429D01*
X12654196Y-13742227D01*
X12657796Y-13766496D01*
X12659000Y-13791000D01*
X12659000Y-14991000D01*
X12657796Y-15015504D01*
X12654196Y-15039773D01*
X12648235Y-15063571D01*
X12639970Y-15086671D01*
X12629480Y-15108849D01*
X12616867Y-15129893D01*
X12602253Y-15149598D01*
X12585777Y-15167777D01*
X12567598Y-15184253D01*
X12547893Y-15198867D01*
X12526849Y-15211480D01*
X12504671Y-15221970D01*
X12481571Y-15230235D01*
X12457773Y-15236196D01*
X12433504Y-15239796D01*
X12409000Y-15241000D01*
X10959000Y-15241000D01*
X10934496Y-15239796D01*
X10910227Y-15236196D01*
X10886429Y-15230235D01*
X10863329Y-15221970D01*
X10841151Y-15211480D01*
X10820107Y-15198867D01*
X10800402Y-15184253D01*
X10782223Y-15167777D01*
X10765747Y-15149598D01*
X10751133Y-15129893D01*
X10738520Y-15108849D01*
X10728030Y-15086671D01*
X10719765Y-15063571D01*
X10713804Y-15039773D01*
X10710204Y-15015504D01*
X10709000Y-14991000D01*
X10709000Y-13791000D01*
X10710204Y-13766496D01*
X10713804Y-13742227D01*
X10719765Y-13718429D01*
X10728030Y-13695329D01*
X10738520Y-13673151D01*
X10751133Y-13652107D01*
X10765747Y-13632402D01*
X10782223Y-13614223D01*
X10800402Y-13597747D01*
X10820107Y-13583133D01*
X10841151Y-13570520D01*
X10863329Y-13560030D01*
X10886429Y-13551765D01*
X10910227Y-13545804D01*
X10934496Y-13542204D01*
X10959000Y-13541000D01*
X12409000Y-13541000D01*
X12433504Y-13542204D01*
X12433504Y-13542204D01*
G37*
D11*
X11684000Y-14391000D03*
D12*
X11684000Y-16891000D03*
X11684000Y-19391000D03*
X17526000Y-19391000D03*
X17526000Y-16891000D03*
D10*
G36*
X18275504Y-13542204D02*
G01*
X18299773Y-13545804D01*
X18323571Y-13551765D01*
X18346671Y-13560030D01*
X18368849Y-13570520D01*
X18389893Y-13583133D01*
X18409598Y-13597747D01*
X18427777Y-13614223D01*
X18444253Y-13632402D01*
X18458867Y-13652107D01*
X18471480Y-13673151D01*
X18481970Y-13695329D01*
X18490235Y-13718429D01*
X18496196Y-13742227D01*
X18499796Y-13766496D01*
X18501000Y-13791000D01*
X18501000Y-14991000D01*
X18499796Y-15015504D01*
X18496196Y-15039773D01*
X18490235Y-15063571D01*
X18481970Y-15086671D01*
X18471480Y-15108849D01*
X18458867Y-15129893D01*
X18444253Y-15149598D01*
X18427777Y-15167777D01*
X18409598Y-15184253D01*
X18389893Y-15198867D01*
X18368849Y-15211480D01*
X18346671Y-15221970D01*
X18323571Y-15230235D01*
X18299773Y-15236196D01*
X18275504Y-15239796D01*
X18251000Y-15241000D01*
X16801000Y-15241000D01*
X16776496Y-15239796D01*
X16752227Y-15236196D01*
X16728429Y-15230235D01*
X16705329Y-15221970D01*
X16683151Y-15211480D01*
X16662107Y-15198867D01*
X16642402Y-15184253D01*
X16624223Y-15167777D01*
X16607747Y-15149598D01*
X16593133Y-15129893D01*
X16580520Y-15108849D01*
X16570030Y-15086671D01*
X16561765Y-15063571D01*
X16555804Y-15039773D01*
X16552204Y-15015504D01*
X16551000Y-14991000D01*
X16551000Y-13791000D01*
X16552204Y-13766496D01*
X16555804Y-13742227D01*
X16561765Y-13718429D01*
X16570030Y-13695329D01*
X16580520Y-13673151D01*
X16593133Y-13652107D01*
X16607747Y-13632402D01*
X16624223Y-13614223D01*
X16642402Y-13597747D01*
X16662107Y-13583133D01*
X16683151Y-13570520D01*
X16705329Y-13560030D01*
X16728429Y-13551765D01*
X16752227Y-13545804D01*
X16776496Y-13542204D01*
X16801000Y-13541000D01*
X18251000Y-13541000D01*
X18275504Y-13542204D01*
X18275504Y-13542204D01*
G37*
D11*
X17526000Y-14391000D03*
D10*
G36*
X24117504Y-13542204D02*
G01*
X24141773Y-13545804D01*
X24165571Y-13551765D01*
X24188671Y-13560030D01*
X24210849Y-13570520D01*
X24231893Y-13583133D01*
X24251598Y-13597747D01*
X24269777Y-13614223D01*
X24286253Y-13632402D01*
X24300867Y-13652107D01*
X24313480Y-13673151D01*
X24323970Y-13695329D01*
X24332235Y-13718429D01*
X24338196Y-13742227D01*
X24341796Y-13766496D01*
X24343000Y-13791000D01*
X24343000Y-14991000D01*
X24341796Y-15015504D01*
X24338196Y-15039773D01*
X24332235Y-15063571D01*
X24323970Y-15086671D01*
X24313480Y-15108849D01*
X24300867Y-15129893D01*
X24286253Y-15149598D01*
X24269777Y-15167777D01*
X24251598Y-15184253D01*
X24231893Y-15198867D01*
X24210849Y-15211480D01*
X24188671Y-15221970D01*
X24165571Y-15230235D01*
X24141773Y-15236196D01*
X24117504Y-15239796D01*
X24093000Y-15241000D01*
X22643000Y-15241000D01*
X22618496Y-15239796D01*
X22594227Y-15236196D01*
X22570429Y-15230235D01*
X22547329Y-15221970D01*
X22525151Y-15211480D01*
X22504107Y-15198867D01*
X22484402Y-15184253D01*
X22466223Y-15167777D01*
X22449747Y-15149598D01*
X22435133Y-15129893D01*
X22422520Y-15108849D01*
X22412030Y-15086671D01*
X22403765Y-15063571D01*
X22397804Y-15039773D01*
X22394204Y-15015504D01*
X22393000Y-14991000D01*
X22393000Y-13791000D01*
X22394204Y-13766496D01*
X22397804Y-13742227D01*
X22403765Y-13718429D01*
X22412030Y-13695329D01*
X22422520Y-13673151D01*
X22435133Y-13652107D01*
X22449747Y-13632402D01*
X22466223Y-13614223D01*
X22484402Y-13597747D01*
X22504107Y-13583133D01*
X22525151Y-13570520D01*
X22547329Y-13560030D01*
X22570429Y-13551765D01*
X22594227Y-13545804D01*
X22618496Y-13542204D01*
X22643000Y-13541000D01*
X24093000Y-13541000D01*
X24117504Y-13542204D01*
X24117504Y-13542204D01*
G37*
D11*
X23368000Y-14391000D03*
D12*
X23368000Y-16891000D03*
X23368000Y-19391000D03*
X29210000Y-19391000D03*
X29210000Y-16891000D03*
D10*
G36*
X29959504Y-13542204D02*
G01*
X29983773Y-13545804D01*
X30007571Y-13551765D01*
X30030671Y-13560030D01*
X30052849Y-13570520D01*
X30073893Y-13583133D01*
X30093598Y-13597747D01*
X30111777Y-13614223D01*
X30128253Y-13632402D01*
X30142867Y-13652107D01*
X30155480Y-13673151D01*
X30165970Y-13695329D01*
X30174235Y-13718429D01*
X30180196Y-13742227D01*
X30183796Y-13766496D01*
X30185000Y-13791000D01*
X30185000Y-14991000D01*
X30183796Y-15015504D01*
X30180196Y-15039773D01*
X30174235Y-15063571D01*
X30165970Y-15086671D01*
X30155480Y-15108849D01*
X30142867Y-15129893D01*
X30128253Y-15149598D01*
X30111777Y-15167777D01*
X30093598Y-15184253D01*
X30073893Y-15198867D01*
X30052849Y-15211480D01*
X30030671Y-15221970D01*
X30007571Y-15230235D01*
X29983773Y-15236196D01*
X29959504Y-15239796D01*
X29935000Y-15241000D01*
X28485000Y-15241000D01*
X28460496Y-15239796D01*
X28436227Y-15236196D01*
X28412429Y-15230235D01*
X28389329Y-15221970D01*
X28367151Y-15211480D01*
X28346107Y-15198867D01*
X28326402Y-15184253D01*
X28308223Y-15167777D01*
X28291747Y-15149598D01*
X28277133Y-15129893D01*
X28264520Y-15108849D01*
X28254030Y-15086671D01*
X28245765Y-15063571D01*
X28239804Y-15039773D01*
X28236204Y-15015504D01*
X28235000Y-14991000D01*
X28235000Y-13791000D01*
X28236204Y-13766496D01*
X28239804Y-13742227D01*
X28245765Y-13718429D01*
X28254030Y-13695329D01*
X28264520Y-13673151D01*
X28277133Y-13652107D01*
X28291747Y-13632402D01*
X28308223Y-13614223D01*
X28326402Y-13597747D01*
X28346107Y-13583133D01*
X28367151Y-13570520D01*
X28389329Y-13560030D01*
X28412429Y-13551765D01*
X28436227Y-13545804D01*
X28460496Y-13542204D01*
X28485000Y-13541000D01*
X29935000Y-13541000D01*
X29959504Y-13542204D01*
X29959504Y-13542204D01*
G37*
D11*
X29210000Y-14391000D03*
D16*
X3810000Y-2540000D03*
D17*
X1270000Y-2540000D03*
X3810000Y-5080000D03*
X1270000Y-5080000D03*
X3810000Y-7620000D03*
X1270000Y-7620000D03*
X3810000Y-10160000D03*
X1270000Y-10160000D03*
X3810000Y-12700000D03*
X1270000Y-12700000D03*
X3810000Y-15240000D03*
X1270000Y-15240000D03*
X3810000Y-17780000D03*
X1270000Y-17780000D03*
X3810000Y-20320000D03*
X1270000Y-20320000D03*
D18*
X31220000Y-11500000D03*
X29320000Y-11500000D03*
X31630000Y-21340000D03*
D19*
X35052000Y-14304000D02*
X35052000Y-8556000D01*
D20*
X11684000Y-19391000D02*
X17526000Y-19391000D01*
X17526000Y-19391000D02*
X23368000Y-19391000D01*
X23368000Y-19391000D02*
X29210000Y-19391000D01*
X11684000Y-8469000D02*
X17526000Y-8469000D01*
X17526000Y-8469000D02*
X23368000Y-8469000D01*
X23368000Y-8469000D02*
X29210000Y-8469000D01*
D21*
X23243000Y-16891000D02*
X23368000Y-16891000D01*
X19442990Y-13090990D02*
X23243000Y-16891000D01*
X9701091Y-13090990D02*
X19442990Y-13090990D01*
X5012081Y-17780000D02*
X9701091Y-13090990D01*
X3810000Y-17780000D02*
X5012081Y-17780000D01*
X29085000Y-16891000D02*
X29210000Y-16891000D01*
X29335000Y-16891000D02*
X29210000Y-16891000D01*
X3810000Y-20320000D02*
X5012081Y-20320000D01*
X5012081Y-20320000D02*
X5783092Y-21091011D01*
X5783092Y-21091011D02*
X29914167Y-21091010D01*
X29914167Y-21091010D02*
X30910010Y-20095167D01*
X30910010Y-20095167D02*
X30910010Y-18466010D01*
X30910010Y-18466010D02*
X29335000Y-16891000D01*
D22*
G36*
X41633912Y-938550D02*
G01*
X42147487Y-1093607D01*
X42621164Y-1345465D01*
X43036900Y-1684531D01*
X43378860Y-2097889D01*
X43634017Y-2569794D01*
X43792658Y-3082278D01*
X43848734Y-3615813D01*
X43800113Y-4150075D01*
X43648644Y-4664720D01*
X43400099Y-5140141D01*
X43063945Y-5558234D01*
X42652981Y-5903073D01*
X42182866Y-6161521D01*
X41671505Y-6323734D01*
X41127042Y-6384805D01*
X41099118Y-6385000D01*
X38112275Y-6385000D01*
X38100000Y-6383791D01*
X38087725Y-6385000D01*
X38050992Y-6388618D01*
X38003866Y-6402913D01*
X37960436Y-6426127D01*
X37922368Y-6457368D01*
X37891127Y-6495436D01*
X37867913Y-6538866D01*
X37853618Y-6585992D01*
X37848791Y-6635000D01*
X37850000Y-6647275D01*
X37850001Y-16212715D01*
X37848791Y-16225000D01*
X37853618Y-16274008D01*
X37867913Y-16321134D01*
X37891127Y-16364564D01*
X37922368Y-16402632D01*
X37960436Y-16433873D01*
X38003866Y-16457087D01*
X38050992Y-16471382D01*
X38087725Y-16475000D01*
X38100000Y-16476209D01*
X38112275Y-16475000D01*
X41087771Y-16475000D01*
X41633912Y-16528550D01*
X42147487Y-16683607D01*
X42621164Y-16935465D01*
X43036900Y-17274531D01*
X43378860Y-17687889D01*
X43634017Y-18159794D01*
X43792658Y-18672278D01*
X43848734Y-19205813D01*
X43800113Y-19740075D01*
X43648644Y-20254720D01*
X43400099Y-20730141D01*
X43063945Y-21148234D01*
X42652981Y-21493073D01*
X42182866Y-21751521D01*
X41671505Y-21913734D01*
X41127042Y-21974805D01*
X41099118Y-21975000D01*
X-2987771Y-21975000D01*
X-3533912Y-21921450D01*
X-4047487Y-21766393D01*
X-4521163Y-21514535D01*
X-4936900Y-21175469D01*
X-5278860Y-20762111D01*
X-5534017Y-20290206D01*
X-5692659Y-19777719D01*
X-5748735Y-19244192D01*
X-5731079Y-19050178D01*
X-4775000Y-19050178D01*
X-4775000Y-19399822D01*
X-4706787Y-19742748D01*
X-4572984Y-20065778D01*
X-4378732Y-20356496D01*
X-4131496Y-20603732D01*
X-3840778Y-20797984D01*
X-3517748Y-20931787D01*
X-3174822Y-21000000D01*
X-2825178Y-21000000D01*
X-2482252Y-20931787D01*
X-2159222Y-20797984D01*
X-1868504Y-20603732D01*
X-1621268Y-20356496D01*
X-1427016Y-20065778D01*
X-1293213Y-19742748D01*
X-1225000Y-19399822D01*
X-1225000Y-19050178D01*
X-1293213Y-18707252D01*
X-1427016Y-18384222D01*
X-1621268Y-18093504D01*
X-1868504Y-17846268D01*
X-1967680Y-17780000D01*
X2679557Y-17780000D01*
X2701278Y-18000538D01*
X2765607Y-18212602D01*
X2870071Y-18408040D01*
X3010656Y-18579344D01*
X3181960Y-18719929D01*
X3377398Y-18824393D01*
X3589462Y-18888722D01*
X3754736Y-18905000D01*
X3865264Y-18905000D01*
X4030538Y-18888722D01*
X4242602Y-18824393D01*
X4438040Y-18719929D01*
X4609344Y-18579344D01*
X4749929Y-18408040D01*
X4805005Y-18305000D01*
X4986301Y-18305000D01*
X5012081Y-18307539D01*
X5037861Y-18305000D01*
X5037869Y-18305000D01*
X5114999Y-18297403D01*
X5213962Y-18267383D01*
X5305167Y-18218633D01*
X5385108Y-18153027D01*
X5401552Y-18132990D01*
X9918553Y-13615990D01*
X19225529Y-13615990D01*
X22168194Y-16558656D01*
X22134278Y-16670462D01*
X22112557Y-16891000D01*
X22134278Y-17111538D01*
X22198607Y-17323602D01*
X22303071Y-17519040D01*
X22443656Y-17690344D01*
X22614960Y-17830929D01*
X22680573Y-17866000D01*
X18213427Y-17866000D01*
X18279040Y-17830929D01*
X18450344Y-17690344D01*
X18590929Y-17519040D01*
X18695393Y-17323602D01*
X18759722Y-17111538D01*
X18781443Y-16891000D01*
X18759722Y-16670462D01*
X18695393Y-16458398D01*
X18590929Y-16262960D01*
X18450344Y-16091656D01*
X18279040Y-15951071D01*
X18083602Y-15846607D01*
X17871538Y-15782278D01*
X17706264Y-15766000D01*
X17345736Y-15766000D01*
X17180462Y-15782278D01*
X16968398Y-15846607D01*
X16772960Y-15951071D01*
X16601656Y-16091656D01*
X16461071Y-16262960D01*
X16356607Y-16458398D01*
X16292278Y-16670462D01*
X16270557Y-16891000D01*
X16292278Y-17111538D01*
X16356607Y-17323602D01*
X16461071Y-17519040D01*
X16601656Y-17690344D01*
X16772960Y-17830929D01*
X16838573Y-17866000D01*
X12371427Y-17866000D01*
X12437040Y-17830929D01*
X12608344Y-17690344D01*
X12748929Y-17519040D01*
X12853393Y-17323602D01*
X12917722Y-17111538D01*
X12939443Y-16891000D01*
X12917722Y-16670462D01*
X12853393Y-16458398D01*
X12748929Y-16262960D01*
X12608344Y-16091656D01*
X12437040Y-15951071D01*
X12241602Y-15846607D01*
X12029538Y-15782278D01*
X11864264Y-15766000D01*
X11503736Y-15766000D01*
X11338462Y-15782278D01*
X11126398Y-15846607D01*
X10930960Y-15951071D01*
X10759656Y-16091656D01*
X10619071Y-16262960D01*
X10514607Y-16458398D01*
X10450278Y-16670462D01*
X10428557Y-16891000D01*
X10450278Y-17111538D01*
X10514607Y-17323602D01*
X10619071Y-17519040D01*
X10759656Y-17690344D01*
X10930960Y-17830929D01*
X11126398Y-17935393D01*
X11177715Y-17950960D01*
X11097584Y-17975267D01*
X10832656Y-18116874D01*
X10600445Y-18307445D01*
X10409874Y-18539656D01*
X10268267Y-18804584D01*
X10181066Y-19092048D01*
X10151622Y-19391000D01*
X10181066Y-19689952D01*
X10268267Y-19977416D01*
X10409874Y-20242344D01*
X10600445Y-20474555D01*
X10711885Y-20566012D01*
X6000555Y-20566012D01*
X5401552Y-19967010D01*
X5385108Y-19946973D01*
X5305167Y-19881367D01*
X5213962Y-19832617D01*
X5114999Y-19802597D01*
X5037869Y-19795000D01*
X5037861Y-19795000D01*
X5012081Y-19792461D01*
X4986301Y-19795000D01*
X4805005Y-19795000D01*
X4749929Y-19691960D01*
X4609344Y-19520656D01*
X4438040Y-19380071D01*
X4242602Y-19275607D01*
X4030538Y-19211278D01*
X3865264Y-19195000D01*
X3754736Y-19195000D01*
X3589462Y-19211278D01*
X3377398Y-19275607D01*
X3181960Y-19380071D01*
X3010656Y-19520656D01*
X2870071Y-19691960D01*
X2765607Y-19887398D01*
X2701278Y-20099462D01*
X2679557Y-20320000D01*
X2701278Y-20540538D01*
X2765607Y-20752602D01*
X2870071Y-20948040D01*
X3010656Y-21119344D01*
X3181960Y-21259929D01*
X3377398Y-21364393D01*
X3589462Y-21428722D01*
X3754736Y-21445000D01*
X3865264Y-21445000D01*
X4030538Y-21428722D01*
X4242602Y-21364393D01*
X4438040Y-21259929D01*
X4609344Y-21119344D01*
X4749929Y-20948040D01*
X4801388Y-20851768D01*
X5393631Y-21444012D01*
X5410066Y-21464038D01*
X5430092Y-21480473D01*
X5430095Y-21480476D01*
X5490006Y-21529644D01*
X5581211Y-21578394D01*
X5680174Y-21608414D01*
X5691222Y-21609502D01*
X5757305Y-21616011D01*
X5757311Y-21616011D01*
X5783091Y-21618550D01*
X5808871Y-21616011D01*
X29888377Y-21616009D01*
X29914167Y-21618549D01*
X30017084Y-21608413D01*
X30116047Y-21578393D01*
X30207252Y-21529643D01*
X30262339Y-21484434D01*
X30287194Y-21464036D01*
X30303633Y-21444005D01*
X31263006Y-20484633D01*
X31283037Y-20468194D01*
X31348643Y-20388253D01*
X31397393Y-20297048D01*
X31427413Y-20198085D01*
X31435010Y-20120955D01*
X31435010Y-20120954D01*
X31437550Y-20095167D01*
X31435010Y-20069379D01*
X31435010Y-19050178D01*
X39325000Y-19050178D01*
X39325000Y-19399822D01*
X39393213Y-19742748D01*
X39527016Y-20065778D01*
X39721268Y-20356496D01*
X39968504Y-20603732D01*
X40259222Y-20797984D01*
X40582252Y-20931787D01*
X40925178Y-21000000D01*
X41274822Y-21000000D01*
X41617748Y-20931787D01*
X41940778Y-20797984D01*
X42231496Y-20603732D01*
X42478732Y-20356496D01*
X42672984Y-20065778D01*
X42806787Y-19742748D01*
X42875000Y-19399822D01*
X42875000Y-19050178D01*
X42806787Y-18707252D01*
X42672984Y-18384222D01*
X42478732Y-18093504D01*
X42231496Y-17846268D01*
X41940778Y-17652016D01*
X41617748Y-17518213D01*
X41274822Y-17450000D01*
X40925178Y-17450000D01*
X40582252Y-17518213D01*
X40259222Y-17652016D01*
X39968504Y-17846268D01*
X39721268Y-18093504D01*
X39527016Y-18384222D01*
X39393213Y-18707252D01*
X39325000Y-19050178D01*
X31435010Y-19050178D01*
X31435010Y-18491798D01*
X31437550Y-18466010D01*
X31433809Y-18428029D01*
X31427413Y-18363092D01*
X31397393Y-18264129D01*
X31348643Y-18172924D01*
X31283037Y-18092983D01*
X31263006Y-18076544D01*
X30409806Y-17223344D01*
X30443722Y-17111538D01*
X30465443Y-16891000D01*
X30443722Y-16670462D01*
X30379393Y-16458398D01*
X30274929Y-16262960D01*
X30134344Y-16091656D01*
X29963040Y-15951071D01*
X29767602Y-15846607D01*
X29555538Y-15782278D01*
X29390264Y-15766000D01*
X29029736Y-15766000D01*
X28864462Y-15782278D01*
X28652398Y-15846607D01*
X28456960Y-15951071D01*
X28285656Y-16091656D01*
X28145071Y-16262960D01*
X28040607Y-16458398D01*
X27976278Y-16670462D01*
X27954557Y-16891000D01*
X27976278Y-17111538D01*
X28040607Y-17323602D01*
X28145071Y-17519040D01*
X28285656Y-17690344D01*
X28456960Y-17830929D01*
X28522573Y-17866000D01*
X24055427Y-17866000D01*
X24121040Y-17830929D01*
X24292344Y-17690344D01*
X24432929Y-17519040D01*
X24537393Y-17323602D01*
X24601722Y-17111538D01*
X24623443Y-16891000D01*
X24601722Y-16670462D01*
X24537393Y-16458398D01*
X24432929Y-16262960D01*
X24292344Y-16091656D01*
X24121040Y-15951071D01*
X23925602Y-15846607D01*
X23713538Y-15782278D01*
X23548264Y-15766000D01*
X23187736Y-15766000D01*
X23022462Y-15782278D01*
X22910656Y-15816194D01*
X21534787Y-14440325D01*
X32277000Y-14440325D01*
X32317152Y-14847994D01*
X32475829Y-15371084D01*
X32733508Y-15853166D01*
X33080284Y-16275715D01*
X33502833Y-16622492D01*
X33984915Y-16880171D01*
X34508005Y-17038848D01*
X35052000Y-17092427D01*
X35595994Y-17038848D01*
X36119084Y-16880171D01*
X36601166Y-16622492D01*
X37023715Y-16275716D01*
X37370492Y-15853167D01*
X37628171Y-15371085D01*
X37786848Y-14847995D01*
X37827000Y-14440326D01*
X37827000Y-8419674D01*
X37786848Y-8012005D01*
X37628171Y-7488915D01*
X37370492Y-7006833D01*
X37023716Y-6584284D01*
X36601167Y-6237508D01*
X36119085Y-5979829D01*
X35595995Y-5821152D01*
X35052000Y-5767573D01*
X34508006Y-5821152D01*
X33984916Y-5979829D01*
X33502834Y-6237508D01*
X33080285Y-6584284D01*
X32733509Y-7006833D01*
X32475830Y-7488915D01*
X32317153Y-8012005D01*
X32277001Y-8419674D01*
X32277000Y-14440325D01*
X21534787Y-14440325D01*
X19832461Y-12738000D01*
X19816017Y-12717963D01*
X19736076Y-12652357D01*
X19644871Y-12603607D01*
X19545908Y-12573587D01*
X19468778Y-12565990D01*
X19468770Y-12565990D01*
X19442990Y-12563451D01*
X19417210Y-12565990D01*
X9726879Y-12565990D01*
X9701091Y-12563450D01*
X9675303Y-12565990D01*
X9598173Y-12573587D01*
X9499210Y-12603607D01*
X9408005Y-12652357D01*
X9328064Y-12717963D01*
X9311625Y-12737994D01*
X4801388Y-17248232D01*
X4749929Y-17151960D01*
X4609344Y-16980656D01*
X4438040Y-16840071D01*
X4242602Y-16735607D01*
X4030538Y-16671278D01*
X3865264Y-16655000D01*
X3754736Y-16655000D01*
X3589462Y-16671278D01*
X3377398Y-16735607D01*
X3181960Y-16840071D01*
X3010656Y-16980656D01*
X2870071Y-17151960D01*
X2765607Y-17347398D01*
X2701278Y-17559462D01*
X2679557Y-17780000D01*
X-1967680Y-17780000D01*
X-2159222Y-17652016D01*
X-2482252Y-17518213D01*
X-2825178Y-17450000D01*
X-3174822Y-17450000D01*
X-3517748Y-17518213D01*
X-3840778Y-17652016D01*
X-4131496Y-17846268D01*
X-4378732Y-18093504D01*
X-4572984Y-18384222D01*
X-4706787Y-18707252D01*
X-4775000Y-19050178D01*
X-5731079Y-19050178D01*
X-5700113Y-18709928D01*
X-5548644Y-18195279D01*
X-5300098Y-17719855D01*
X-4963945Y-17301766D01*
X-4552984Y-16956929D01*
X-4082870Y-16698481D01*
X-3571505Y-16536266D01*
X-3027042Y-16475195D01*
X-2999118Y-16475000D01*
X-12275Y-16475000D01*
X0Y-16476209D01*
X12275Y-16475000D01*
X49008Y-16471382D01*
X96134Y-16457087D01*
X139564Y-16433873D01*
X177632Y-16402632D01*
X208873Y-16364564D01*
X232087Y-16321134D01*
X246382Y-16274008D01*
X251209Y-16225000D01*
X250000Y-16212725D01*
X250000Y-15240000D01*
X2679557Y-15240000D01*
X2701278Y-15460538D01*
X2765607Y-15672602D01*
X2870071Y-15868040D01*
X3010656Y-16039344D01*
X3181960Y-16179929D01*
X3377398Y-16284393D01*
X3589462Y-16348722D01*
X3754736Y-16365000D01*
X3865264Y-16365000D01*
X4030538Y-16348722D01*
X4242602Y-16284393D01*
X4438040Y-16179929D01*
X4609344Y-16039344D01*
X4749929Y-15868040D01*
X4854393Y-15672602D01*
X4918722Y-15460538D01*
X4940443Y-15240000D01*
X4918722Y-15019462D01*
X4854393Y-14807398D01*
X4749929Y-14611960D01*
X4609344Y-14440656D01*
X4438040Y-14300071D01*
X4242602Y-14195607D01*
X4030538Y-14131278D01*
X3865264Y-14115000D01*
X3754736Y-14115000D01*
X3589462Y-14131278D01*
X3377398Y-14195607D01*
X3181960Y-14300071D01*
X3010656Y-14440656D01*
X2870071Y-14611960D01*
X2765607Y-14807398D01*
X2701278Y-15019462D01*
X2679557Y-15240000D01*
X250000Y-15240000D01*
X250000Y-12700000D01*
X2679557Y-12700000D01*
X2701278Y-12920538D01*
X2765607Y-13132602D01*
X2870071Y-13328040D01*
X3010656Y-13499344D01*
X3181960Y-13639929D01*
X3377398Y-13744393D01*
X3589462Y-13808722D01*
X3754736Y-13825000D01*
X3865264Y-13825000D01*
X4030538Y-13808722D01*
X4242602Y-13744393D01*
X4438040Y-13639929D01*
X4609344Y-13499344D01*
X4749929Y-13328040D01*
X4854393Y-13132602D01*
X4918722Y-12920538D01*
X4940443Y-12700000D01*
X4918722Y-12479462D01*
X4854393Y-12267398D01*
X4749929Y-12071960D01*
X4609344Y-11900656D01*
X4438040Y-11760071D01*
X4242602Y-11655607D01*
X4030538Y-11591278D01*
X3865264Y-11575000D01*
X3754736Y-11575000D01*
X3589462Y-11591278D01*
X3377398Y-11655607D01*
X3181960Y-11760071D01*
X3010656Y-11900656D01*
X2870071Y-12071960D01*
X2765607Y-12267398D01*
X2701278Y-12479462D01*
X2679557Y-12700000D01*
X250000Y-12700000D01*
X250000Y-10160000D01*
X2679557Y-10160000D01*
X2701278Y-10380538D01*
X2765607Y-10592602D01*
X2870071Y-10788040D01*
X3010656Y-10959344D01*
X3181960Y-11099929D01*
X3377398Y-11204393D01*
X3589462Y-11268722D01*
X3754736Y-11285000D01*
X3865264Y-11285000D01*
X4030538Y-11268722D01*
X4242602Y-11204393D01*
X4438040Y-11099929D01*
X4609344Y-10959344D01*
X4749929Y-10788040D01*
X4854393Y-10592602D01*
X4918722Y-10380538D01*
X4940443Y-10160000D01*
X4918722Y-9939462D01*
X4854393Y-9727398D01*
X4749929Y-9531960D01*
X4609344Y-9360656D01*
X4438040Y-9220071D01*
X4242602Y-9115607D01*
X4030538Y-9051278D01*
X3865264Y-9035000D01*
X3754736Y-9035000D01*
X3589462Y-9051278D01*
X3377398Y-9115607D01*
X3181960Y-9220071D01*
X3010656Y-9360656D01*
X2870071Y-9531960D01*
X2765607Y-9727398D01*
X2701278Y-9939462D01*
X2679557Y-10160000D01*
X250000Y-10160000D01*
X250000Y-7620000D01*
X2679557Y-7620000D01*
X2701278Y-7840538D01*
X2765607Y-8052602D01*
X2870071Y-8248040D01*
X3010656Y-8419344D01*
X3181960Y-8559929D01*
X3377398Y-8664393D01*
X3589462Y-8728722D01*
X3754736Y-8745000D01*
X3865264Y-8745000D01*
X4030538Y-8728722D01*
X4242602Y-8664393D01*
X4438040Y-8559929D01*
X4548837Y-8469000D01*
X10151622Y-8469000D01*
X10181066Y-8767952D01*
X10268267Y-9055416D01*
X10409874Y-9320344D01*
X10600445Y-9552555D01*
X10832656Y-9743126D01*
X11097584Y-9884733D01*
X11385048Y-9971934D01*
X11609089Y-9994000D01*
X29284911Y-9994000D01*
X29508952Y-9971934D01*
X29796416Y-9884733D01*
X30061344Y-9743126D01*
X30293555Y-9552555D01*
X30484126Y-9320344D01*
X30625733Y-9055416D01*
X30712934Y-8767952D01*
X30742378Y-8469000D01*
X30712934Y-8170048D01*
X30625733Y-7882584D01*
X30484126Y-7617656D01*
X30293555Y-7385445D01*
X30061344Y-7194874D01*
X29796416Y-7053267D01*
X29716285Y-7028960D01*
X29767602Y-7013393D01*
X29963040Y-6908929D01*
X30134344Y-6768344D01*
X30274929Y-6597040D01*
X30379393Y-6401602D01*
X30443722Y-6189538D01*
X30465443Y-5969000D01*
X30443722Y-5748462D01*
X30379393Y-5536398D01*
X30274929Y-5340960D01*
X30134344Y-5169656D01*
X29963040Y-5029071D01*
X29767602Y-4924607D01*
X29555538Y-4860278D01*
X29390264Y-4844000D01*
X29029736Y-4844000D01*
X28864462Y-4860278D01*
X28652398Y-4924607D01*
X28456960Y-5029071D01*
X28285656Y-5169656D01*
X28145071Y-5340960D01*
X28040607Y-5536398D01*
X27976278Y-5748462D01*
X27954557Y-5969000D01*
X27976278Y-6189538D01*
X28040607Y-6401602D01*
X28145071Y-6597040D01*
X28285656Y-6768344D01*
X28456960Y-6908929D01*
X28522573Y-6944000D01*
X24055427Y-6944000D01*
X24121040Y-6908929D01*
X24292344Y-6768344D01*
X24432929Y-6597040D01*
X24537393Y-6401602D01*
X24601722Y-6189538D01*
X24623443Y-5969000D01*
X24601722Y-5748462D01*
X24537393Y-5536398D01*
X24432929Y-5340960D01*
X24292344Y-5169656D01*
X24121040Y-5029071D01*
X23925602Y-4924607D01*
X23713538Y-4860278D01*
X23548264Y-4844000D01*
X23187736Y-4844000D01*
X23022462Y-4860278D01*
X22810398Y-4924607D01*
X22614960Y-5029071D01*
X22443656Y-5169656D01*
X22303071Y-5340960D01*
X22198607Y-5536398D01*
X22134278Y-5748462D01*
X22112557Y-5969000D01*
X22134278Y-6189538D01*
X22198607Y-6401602D01*
X22303071Y-6597040D01*
X22443656Y-6768344D01*
X22614960Y-6908929D01*
X22680573Y-6944000D01*
X18213427Y-6944000D01*
X18279040Y-6908929D01*
X18450344Y-6768344D01*
X18590929Y-6597040D01*
X18695393Y-6401602D01*
X18759722Y-6189538D01*
X18781443Y-5969000D01*
X18759722Y-5748462D01*
X18695393Y-5536398D01*
X18590929Y-5340960D01*
X18450344Y-5169656D01*
X18279040Y-5029071D01*
X18083602Y-4924607D01*
X17871538Y-4860278D01*
X17706264Y-4844000D01*
X17345736Y-4844000D01*
X17180462Y-4860278D01*
X16968398Y-4924607D01*
X16772960Y-5029071D01*
X16601656Y-5169656D01*
X16461071Y-5340960D01*
X16356607Y-5536398D01*
X16292278Y-5748462D01*
X16270557Y-5969000D01*
X16292278Y-6189538D01*
X16356607Y-6401602D01*
X16461071Y-6597040D01*
X16601656Y-6768344D01*
X16772960Y-6908929D01*
X16838573Y-6944000D01*
X12371427Y-6944000D01*
X12437040Y-6908929D01*
X12608344Y-6768344D01*
X12748929Y-6597040D01*
X12853393Y-6401602D01*
X12917722Y-6189538D01*
X12939443Y-5969000D01*
X12917722Y-5748462D01*
X12853393Y-5536398D01*
X12748929Y-5340960D01*
X12608344Y-5169656D01*
X12437040Y-5029071D01*
X12241602Y-4924607D01*
X12029538Y-4860278D01*
X11864264Y-4844000D01*
X11503736Y-4844000D01*
X11338462Y-4860278D01*
X11126398Y-4924607D01*
X10930960Y-5029071D01*
X10759656Y-5169656D01*
X10619071Y-5340960D01*
X10514607Y-5536398D01*
X10450278Y-5748462D01*
X10428557Y-5969000D01*
X10450278Y-6189538D01*
X10514607Y-6401602D01*
X10619071Y-6597040D01*
X10759656Y-6768344D01*
X10930960Y-6908929D01*
X11126398Y-7013393D01*
X11177715Y-7028960D01*
X11097584Y-7053267D01*
X10832656Y-7194874D01*
X10600445Y-7385445D01*
X10409874Y-7617656D01*
X10268267Y-7882584D01*
X10181066Y-8170048D01*
X10151622Y-8469000D01*
X4548837Y-8469000D01*
X4609344Y-8419344D01*
X4749929Y-8248040D01*
X4854393Y-8052602D01*
X4918722Y-7840538D01*
X4940443Y-7620000D01*
X4918722Y-7399462D01*
X4854393Y-7187398D01*
X4749929Y-6991960D01*
X4609344Y-6820656D01*
X4438040Y-6680071D01*
X4242602Y-6575607D01*
X4030538Y-6511278D01*
X3865264Y-6495000D01*
X3754736Y-6495000D01*
X3589462Y-6511278D01*
X3377398Y-6575607D01*
X3181960Y-6680071D01*
X3010656Y-6820656D01*
X2870071Y-6991960D01*
X2765607Y-7187398D01*
X2701278Y-7399462D01*
X2679557Y-7620000D01*
X250000Y-7620000D01*
X250000Y-6647275D01*
X251209Y-6635000D01*
X246382Y-6585992D01*
X232087Y-6538866D01*
X208873Y-6495436D01*
X177632Y-6457368D01*
X139564Y-6426127D01*
X96134Y-6402913D01*
X49008Y-6388618D01*
X12275Y-6385000D01*
X0Y-6383791D01*
X-12275Y-6385000D01*
X-2987771Y-6385000D01*
X-3533912Y-6331450D01*
X-4047487Y-6176393D01*
X-4521163Y-5924535D01*
X-4936900Y-5585469D01*
X-5278860Y-5172111D01*
X-5534017Y-4700206D01*
X-5692659Y-4187719D01*
X-5748735Y-3654192D01*
X-5731079Y-3460178D01*
X-4775000Y-3460178D01*
X-4775000Y-3809822D01*
X-4706787Y-4152748D01*
X-4572984Y-4475778D01*
X-4378732Y-4766496D01*
X-4131496Y-5013732D01*
X-3840778Y-5207984D01*
X-3517748Y-5341787D01*
X-3174822Y-5410000D01*
X-2825178Y-5410000D01*
X-2482252Y-5341787D01*
X-2159222Y-5207984D01*
X-1967681Y-5080000D01*
X2679557Y-5080000D01*
X2701278Y-5300538D01*
X2765607Y-5512602D01*
X2870071Y-5708040D01*
X3010656Y-5879344D01*
X3181960Y-6019929D01*
X3377398Y-6124393D01*
X3589462Y-6188722D01*
X3754736Y-6205000D01*
X3865264Y-6205000D01*
X4030538Y-6188722D01*
X4242602Y-6124393D01*
X4438040Y-6019929D01*
X4609344Y-5879344D01*
X4749929Y-5708040D01*
X4854393Y-5512602D01*
X4918722Y-5300538D01*
X4940443Y-5080000D01*
X4918722Y-4859462D01*
X4854393Y-4647398D01*
X4749929Y-4451960D01*
X4609344Y-4280656D01*
X4438040Y-4140071D01*
X4242602Y-4035607D01*
X4030538Y-3971278D01*
X3865264Y-3955000D01*
X3754736Y-3955000D01*
X3589462Y-3971278D01*
X3377398Y-4035607D01*
X3181960Y-4140071D01*
X3010656Y-4280656D01*
X2870071Y-4451960D01*
X2765607Y-4647398D01*
X2701278Y-4859462D01*
X2679557Y-5080000D01*
X-1967681Y-5080000D01*
X-1868504Y-5013732D01*
X-1621268Y-4766496D01*
X-1427016Y-4475778D01*
X-1293213Y-4152748D01*
X-1225000Y-3809822D01*
X-1225000Y-3460178D01*
X-1293213Y-3117252D01*
X-1427016Y-2794222D01*
X-1621268Y-2503504D01*
X-1868504Y-2256268D01*
X-2159222Y-2062016D01*
X-2482252Y-1928213D01*
X-2825178Y-1860000D01*
X-3174822Y-1860000D01*
X-3517748Y-1928213D01*
X-3840778Y-2062016D01*
X-4131496Y-2256268D01*
X-4378732Y-2503504D01*
X-4572984Y-2794222D01*
X-4706787Y-3117252D01*
X-4775000Y-3460178D01*
X-5731079Y-3460178D01*
X-5700113Y-3119928D01*
X-5548644Y-2605279D01*
X-5300098Y-2129855D01*
X-4963945Y-1711766D01*
X-4938006Y-1690000D01*
X2683670Y-1690000D01*
X2683670Y-3390000D01*
X2688980Y-3443909D01*
X2704704Y-3495747D01*
X2730240Y-3543521D01*
X2764605Y-3585395D01*
X2806479Y-3619760D01*
X2854253Y-3645296D01*
X2906091Y-3661020D01*
X2960000Y-3666330D01*
X4660000Y-3666330D01*
X4713909Y-3661020D01*
X4765747Y-3645296D01*
X4813521Y-3619760D01*
X4855395Y-3585395D01*
X4889760Y-3543521D01*
X4915296Y-3495747D01*
X4926085Y-3460178D01*
X39325000Y-3460178D01*
X39325000Y-3809822D01*
X39393213Y-4152748D01*
X39527016Y-4475778D01*
X39721268Y-4766496D01*
X39968504Y-5013732D01*
X40259222Y-5207984D01*
X40582252Y-5341787D01*
X40925178Y-5410000D01*
X41274822Y-5410000D01*
X41617748Y-5341787D01*
X41940778Y-5207984D01*
X42231496Y-5013732D01*
X42478732Y-4766496D01*
X42672984Y-4475778D01*
X42806787Y-4152748D01*
X42875000Y-3809822D01*
X42875000Y-3460178D01*
X42806787Y-3117252D01*
X42672984Y-2794222D01*
X42478732Y-2503504D01*
X42231496Y-2256268D01*
X41940778Y-2062016D01*
X41617748Y-1928213D01*
X41274822Y-1860000D01*
X40925178Y-1860000D01*
X40582252Y-1928213D01*
X40259222Y-2062016D01*
X39968504Y-2256268D01*
X39721268Y-2503504D01*
X39527016Y-2794222D01*
X39393213Y-3117252D01*
X39325000Y-3460178D01*
X4926085Y-3460178D01*
X4931020Y-3443909D01*
X4936330Y-3390000D01*
X4936330Y-1690000D01*
X4931020Y-1636091D01*
X4915296Y-1584253D01*
X4889760Y-1536479D01*
X4855395Y-1494605D01*
X4813521Y-1460240D01*
X4765747Y-1434704D01*
X4713909Y-1418980D01*
X4660000Y-1413670D01*
X2960000Y-1413670D01*
X2906091Y-1418980D01*
X2854253Y-1434704D01*
X2806479Y-1460240D01*
X2764605Y-1494605D01*
X2730240Y-1536479D01*
X2704704Y-1584253D01*
X2688980Y-1636091D01*
X2683670Y-1690000D01*
X-4938006Y-1690000D01*
X-4552984Y-1366929D01*
X-4082870Y-1108481D01*
X-3571505Y-946266D01*
X-3027042Y-885195D01*
X-2999118Y-885000D01*
X41087771Y-885000D01*
X41633912Y-938550D01*
X41633912Y-938550D01*
G37*
X41633912Y-938550D02*
X42147487Y-1093607D01*
X42621164Y-1345465D01*
X43036900Y-1684531D01*
X43378860Y-2097889D01*
X43634017Y-2569794D01*
X43792658Y-3082278D01*
X43848734Y-3615813D01*
X43800113Y-4150075D01*
X43648644Y-4664720D01*
X43400099Y-5140141D01*
X43063945Y-5558234D01*
X42652981Y-5903073D01*
X42182866Y-6161521D01*
X41671505Y-6323734D01*
X41127042Y-6384805D01*
X41099118Y-6385000D01*
X38112275Y-6385000D01*
X38100000Y-6383791D01*
X38087725Y-6385000D01*
X38050992Y-6388618D01*
X38003866Y-6402913D01*
X37960436Y-6426127D01*
X37922368Y-6457368D01*
X37891127Y-6495436D01*
X37867913Y-6538866D01*
X37853618Y-6585992D01*
X37848791Y-6635000D01*
X37850000Y-6647275D01*
X37850001Y-16212715D01*
X37848791Y-16225000D01*
X37853618Y-16274008D01*
X37867913Y-16321134D01*
X37891127Y-16364564D01*
X37922368Y-16402632D01*
X37960436Y-16433873D01*
X38003866Y-16457087D01*
X38050992Y-16471382D01*
X38087725Y-16475000D01*
X38100000Y-16476209D01*
X38112275Y-16475000D01*
X41087771Y-16475000D01*
X41633912Y-16528550D01*
X42147487Y-16683607D01*
X42621164Y-16935465D01*
X43036900Y-17274531D01*
X43378860Y-17687889D01*
X43634017Y-18159794D01*
X43792658Y-18672278D01*
X43848734Y-19205813D01*
X43800113Y-19740075D01*
X43648644Y-20254720D01*
X43400099Y-20730141D01*
X43063945Y-21148234D01*
X42652981Y-21493073D01*
X42182866Y-21751521D01*
X41671505Y-21913734D01*
X41127042Y-21974805D01*
X41099118Y-21975000D01*
X-2987771Y-21975000D01*
X-3533912Y-21921450D01*
X-4047487Y-21766393D01*
X-4521163Y-21514535D01*
X-4936900Y-21175469D01*
X-5278860Y-20762111D01*
X-5534017Y-20290206D01*
X-5692659Y-19777719D01*
X-5748735Y-19244192D01*
X-5731079Y-19050178D01*
X-4775000Y-19050178D01*
X-4775000Y-19399822D01*
X-4706787Y-19742748D01*
X-4572984Y-20065778D01*
X-4378732Y-20356496D01*
X-4131496Y-20603732D01*
X-3840778Y-20797984D01*
X-3517748Y-20931787D01*
X-3174822Y-21000000D01*
X-2825178Y-21000000D01*
X-2482252Y-20931787D01*
X-2159222Y-20797984D01*
X-1868504Y-20603732D01*
X-1621268Y-20356496D01*
X-1427016Y-20065778D01*
X-1293213Y-19742748D01*
X-1225000Y-19399822D01*
X-1225000Y-19050178D01*
X-1293213Y-18707252D01*
X-1427016Y-18384222D01*
X-1621268Y-18093504D01*
X-1868504Y-17846268D01*
X-1967680Y-17780000D01*
X2679557Y-17780000D01*
X2701278Y-18000538D01*
X2765607Y-18212602D01*
X2870071Y-18408040D01*
X3010656Y-18579344D01*
X3181960Y-18719929D01*
X3377398Y-18824393D01*
X3589462Y-18888722D01*
X3754736Y-18905000D01*
X3865264Y-18905000D01*
X4030538Y-18888722D01*
X4242602Y-18824393D01*
X4438040Y-18719929D01*
X4609344Y-18579344D01*
X4749929Y-18408040D01*
X4805005Y-18305000D01*
X4986301Y-18305000D01*
X5012081Y-18307539D01*
X5037861Y-18305000D01*
X5037869Y-18305000D01*
X5114999Y-18297403D01*
X5213962Y-18267383D01*
X5305167Y-18218633D01*
X5385108Y-18153027D01*
X5401552Y-18132990D01*
X9918553Y-13615990D01*
X19225529Y-13615990D01*
X22168194Y-16558656D01*
X22134278Y-16670462D01*
X22112557Y-16891000D01*
X22134278Y-17111538D01*
X22198607Y-17323602D01*
X22303071Y-17519040D01*
X22443656Y-17690344D01*
X22614960Y-17830929D01*
X22680573Y-17866000D01*
X18213427Y-17866000D01*
X18279040Y-17830929D01*
X18450344Y-17690344D01*
X18590929Y-17519040D01*
X18695393Y-17323602D01*
X18759722Y-17111538D01*
X18781443Y-16891000D01*
X18759722Y-16670462D01*
X18695393Y-16458398D01*
X18590929Y-16262960D01*
X18450344Y-16091656D01*
X18279040Y-15951071D01*
X18083602Y-15846607D01*
X17871538Y-15782278D01*
X17706264Y-15766000D01*
X17345736Y-15766000D01*
X17180462Y-15782278D01*
X16968398Y-15846607D01*
X16772960Y-15951071D01*
X16601656Y-16091656D01*
X16461071Y-16262960D01*
X16356607Y-16458398D01*
X16292278Y-16670462D01*
X16270557Y-16891000D01*
X16292278Y-17111538D01*
X16356607Y-17323602D01*
X16461071Y-17519040D01*
X16601656Y-17690344D01*
X16772960Y-17830929D01*
X16838573Y-17866000D01*
X12371427Y-17866000D01*
X12437040Y-17830929D01*
X12608344Y-17690344D01*
X12748929Y-17519040D01*
X12853393Y-17323602D01*
X12917722Y-17111538D01*
X12939443Y-16891000D01*
X12917722Y-16670462D01*
X12853393Y-16458398D01*
X12748929Y-16262960D01*
X12608344Y-16091656D01*
X12437040Y-15951071D01*
X12241602Y-15846607D01*
X12029538Y-15782278D01*
X11864264Y-15766000D01*
X11503736Y-15766000D01*
X11338462Y-15782278D01*
X11126398Y-15846607D01*
X10930960Y-15951071D01*
X10759656Y-16091656D01*
X10619071Y-16262960D01*
X10514607Y-16458398D01*
X10450278Y-16670462D01*
X10428557Y-16891000D01*
X10450278Y-17111538D01*
X10514607Y-17323602D01*
X10619071Y-17519040D01*
X10759656Y-17690344D01*
X10930960Y-17830929D01*
X11126398Y-17935393D01*
X11177715Y-17950960D01*
X11097584Y-17975267D01*
X10832656Y-18116874D01*
X10600445Y-18307445D01*
X10409874Y-18539656D01*
X10268267Y-18804584D01*
X10181066Y-19092048D01*
X10151622Y-19391000D01*
X10181066Y-19689952D01*
X10268267Y-19977416D01*
X10409874Y-20242344D01*
X10600445Y-20474555D01*
X10711885Y-20566012D01*
X6000555Y-20566012D01*
X5401552Y-19967010D01*
X5385108Y-19946973D01*
X5305167Y-19881367D01*
X5213962Y-19832617D01*
X5114999Y-19802597D01*
X5037869Y-19795000D01*
X5037861Y-19795000D01*
X5012081Y-19792461D01*
X4986301Y-19795000D01*
X4805005Y-19795000D01*
X4749929Y-19691960D01*
X4609344Y-19520656D01*
X4438040Y-19380071D01*
X4242602Y-19275607D01*
X4030538Y-19211278D01*
X3865264Y-19195000D01*
X3754736Y-19195000D01*
X3589462Y-19211278D01*
X3377398Y-19275607D01*
X3181960Y-19380071D01*
X3010656Y-19520656D01*
X2870071Y-19691960D01*
X2765607Y-19887398D01*
X2701278Y-20099462D01*
X2679557Y-20320000D01*
X2701278Y-20540538D01*
X2765607Y-20752602D01*
X2870071Y-20948040D01*
X3010656Y-21119344D01*
X3181960Y-21259929D01*
X3377398Y-21364393D01*
X3589462Y-21428722D01*
X3754736Y-21445000D01*
X3865264Y-21445000D01*
X4030538Y-21428722D01*
X4242602Y-21364393D01*
X4438040Y-21259929D01*
X4609344Y-21119344D01*
X4749929Y-20948040D01*
X4801388Y-20851768D01*
X5393631Y-21444012D01*
X5410066Y-21464038D01*
X5430092Y-21480473D01*
X5430095Y-21480476D01*
X5490006Y-21529644D01*
X5581211Y-21578394D01*
X5680174Y-21608414D01*
X5691222Y-21609502D01*
X5757305Y-21616011D01*
X5757311Y-21616011D01*
X5783091Y-21618550D01*
X5808871Y-21616011D01*
X29888377Y-21616009D01*
X29914167Y-21618549D01*
X30017084Y-21608413D01*
X30116047Y-21578393D01*
X30207252Y-21529643D01*
X30262339Y-21484434D01*
X30287194Y-21464036D01*
X30303633Y-21444005D01*
X31263006Y-20484633D01*
X31283037Y-20468194D01*
X31348643Y-20388253D01*
X31397393Y-20297048D01*
X31427413Y-20198085D01*
X31435010Y-20120955D01*
X31435010Y-20120954D01*
X31437550Y-20095167D01*
X31435010Y-20069379D01*
X31435010Y-19050178D01*
X39325000Y-19050178D01*
X39325000Y-19399822D01*
X39393213Y-19742748D01*
X39527016Y-20065778D01*
X39721268Y-20356496D01*
X39968504Y-20603732D01*
X40259222Y-20797984D01*
X40582252Y-20931787D01*
X40925178Y-21000000D01*
X41274822Y-21000000D01*
X41617748Y-20931787D01*
X41940778Y-20797984D01*
X42231496Y-20603732D01*
X42478732Y-20356496D01*
X42672984Y-20065778D01*
X42806787Y-19742748D01*
X42875000Y-19399822D01*
X42875000Y-19050178D01*
X42806787Y-18707252D01*
X42672984Y-18384222D01*
X42478732Y-18093504D01*
X42231496Y-17846268D01*
X41940778Y-17652016D01*
X41617748Y-17518213D01*
X41274822Y-17450000D01*
X40925178Y-17450000D01*
X40582252Y-17518213D01*
X40259222Y-17652016D01*
X39968504Y-17846268D01*
X39721268Y-18093504D01*
X39527016Y-18384222D01*
X39393213Y-18707252D01*
X39325000Y-19050178D01*
X31435010Y-19050178D01*
X31435010Y-18491798D01*
X31437550Y-18466010D01*
X31433809Y-18428029D01*
X31427413Y-18363092D01*
X31397393Y-18264129D01*
X31348643Y-18172924D01*
X31283037Y-18092983D01*
X31263006Y-18076544D01*
X30409806Y-17223344D01*
X30443722Y-17111538D01*
X30465443Y-16891000D01*
X30443722Y-16670462D01*
X30379393Y-16458398D01*
X30274929Y-16262960D01*
X30134344Y-16091656D01*
X29963040Y-15951071D01*
X29767602Y-15846607D01*
X29555538Y-15782278D01*
X29390264Y-15766000D01*
X29029736Y-15766000D01*
X28864462Y-15782278D01*
X28652398Y-15846607D01*
X28456960Y-15951071D01*
X28285656Y-16091656D01*
X28145071Y-16262960D01*
X28040607Y-16458398D01*
X27976278Y-16670462D01*
X27954557Y-16891000D01*
X27976278Y-17111538D01*
X28040607Y-17323602D01*
X28145071Y-17519040D01*
X28285656Y-17690344D01*
X28456960Y-17830929D01*
X28522573Y-17866000D01*
X24055427Y-17866000D01*
X24121040Y-17830929D01*
X24292344Y-17690344D01*
X24432929Y-17519040D01*
X24537393Y-17323602D01*
X24601722Y-17111538D01*
X24623443Y-16891000D01*
X24601722Y-16670462D01*
X24537393Y-16458398D01*
X24432929Y-16262960D01*
X24292344Y-16091656D01*
X24121040Y-15951071D01*
X23925602Y-15846607D01*
X23713538Y-15782278D01*
X23548264Y-15766000D01*
X23187736Y-15766000D01*
X23022462Y-15782278D01*
X22910656Y-15816194D01*
X21534787Y-14440325D01*
X32277000Y-14440325D01*
X32317152Y-14847994D01*
X32475829Y-15371084D01*
X32733508Y-15853166D01*
X33080284Y-16275715D01*
X33502833Y-16622492D01*
X33984915Y-16880171D01*
X34508005Y-17038848D01*
X35052000Y-17092427D01*
X35595994Y-17038848D01*
X36119084Y-16880171D01*
X36601166Y-16622492D01*
X37023715Y-16275716D01*
X37370492Y-15853167D01*
X37628171Y-15371085D01*
X37786848Y-14847995D01*
X37827000Y-14440326D01*
X37827000Y-8419674D01*
X37786848Y-8012005D01*
X37628171Y-7488915D01*
X37370492Y-7006833D01*
X37023716Y-6584284D01*
X36601167Y-6237508D01*
X36119085Y-5979829D01*
X35595995Y-5821152D01*
X35052000Y-5767573D01*
X34508006Y-5821152D01*
X33984916Y-5979829D01*
X33502834Y-6237508D01*
X33080285Y-6584284D01*
X32733509Y-7006833D01*
X32475830Y-7488915D01*
X32317153Y-8012005D01*
X32277001Y-8419674D01*
X32277000Y-14440325D01*
X21534787Y-14440325D01*
X19832461Y-12738000D01*
X19816017Y-12717963D01*
X19736076Y-12652357D01*
X19644871Y-12603607D01*
X19545908Y-12573587D01*
X19468778Y-12565990D01*
X19468770Y-12565990D01*
X19442990Y-12563451D01*
X19417210Y-12565990D01*
X9726879Y-12565990D01*
X9701091Y-12563450D01*
X9675303Y-12565990D01*
X9598173Y-12573587D01*
X9499210Y-12603607D01*
X9408005Y-12652357D01*
X9328064Y-12717963D01*
X9311625Y-12737994D01*
X4801388Y-17248232D01*
X4749929Y-17151960D01*
X4609344Y-16980656D01*
X4438040Y-16840071D01*
X4242602Y-16735607D01*
X4030538Y-16671278D01*
X3865264Y-16655000D01*
X3754736Y-16655000D01*
X3589462Y-16671278D01*
X3377398Y-16735607D01*
X3181960Y-16840071D01*
X3010656Y-16980656D01*
X2870071Y-17151960D01*
X2765607Y-17347398D01*
X2701278Y-17559462D01*
X2679557Y-17780000D01*
X-1967680Y-17780000D01*
X-2159222Y-17652016D01*
X-2482252Y-17518213D01*
X-2825178Y-17450000D01*
X-3174822Y-17450000D01*
X-3517748Y-17518213D01*
X-3840778Y-17652016D01*
X-4131496Y-17846268D01*
X-4378732Y-18093504D01*
X-4572984Y-18384222D01*
X-4706787Y-18707252D01*
X-4775000Y-19050178D01*
X-5731079Y-19050178D01*
X-5700113Y-18709928D01*
X-5548644Y-18195279D01*
X-5300098Y-17719855D01*
X-4963945Y-17301766D01*
X-4552984Y-16956929D01*
X-4082870Y-16698481D01*
X-3571505Y-16536266D01*
X-3027042Y-16475195D01*
X-2999118Y-16475000D01*
X-12275Y-16475000D01*
X0Y-16476209D01*
X12275Y-16475000D01*
X49008Y-16471382D01*
X96134Y-16457087D01*
X139564Y-16433873D01*
X177632Y-16402632D01*
X208873Y-16364564D01*
X232087Y-16321134D01*
X246382Y-16274008D01*
X251209Y-16225000D01*
X250000Y-16212725D01*
X250000Y-15240000D01*
X2679557Y-15240000D01*
X2701278Y-15460538D01*
X2765607Y-15672602D01*
X2870071Y-15868040D01*
X3010656Y-16039344D01*
X3181960Y-16179929D01*
X3377398Y-16284393D01*
X3589462Y-16348722D01*
X3754736Y-16365000D01*
X3865264Y-16365000D01*
X4030538Y-16348722D01*
X4242602Y-16284393D01*
X4438040Y-16179929D01*
X4609344Y-16039344D01*
X4749929Y-15868040D01*
X4854393Y-15672602D01*
X4918722Y-15460538D01*
X4940443Y-15240000D01*
X4918722Y-15019462D01*
X4854393Y-14807398D01*
X4749929Y-14611960D01*
X4609344Y-14440656D01*
X4438040Y-14300071D01*
X4242602Y-14195607D01*
X4030538Y-14131278D01*
X3865264Y-14115000D01*
X3754736Y-14115000D01*
X3589462Y-14131278D01*
X3377398Y-14195607D01*
X3181960Y-14300071D01*
X3010656Y-14440656D01*
X2870071Y-14611960D01*
X2765607Y-14807398D01*
X2701278Y-15019462D01*
X2679557Y-15240000D01*
X250000Y-15240000D01*
X250000Y-12700000D01*
X2679557Y-12700000D01*
X2701278Y-12920538D01*
X2765607Y-13132602D01*
X2870071Y-13328040D01*
X3010656Y-13499344D01*
X3181960Y-13639929D01*
X3377398Y-13744393D01*
X3589462Y-13808722D01*
X3754736Y-13825000D01*
X3865264Y-13825000D01*
X4030538Y-13808722D01*
X4242602Y-13744393D01*
X4438040Y-13639929D01*
X4609344Y-13499344D01*
X4749929Y-13328040D01*
X4854393Y-13132602D01*
X4918722Y-12920538D01*
X4940443Y-12700000D01*
X4918722Y-12479462D01*
X4854393Y-12267398D01*
X4749929Y-12071960D01*
X4609344Y-11900656D01*
X4438040Y-11760071D01*
X4242602Y-11655607D01*
X4030538Y-11591278D01*
X3865264Y-11575000D01*
X3754736Y-11575000D01*
X3589462Y-11591278D01*
X3377398Y-11655607D01*
X3181960Y-11760071D01*
X3010656Y-11900656D01*
X2870071Y-12071960D01*
X2765607Y-12267398D01*
X2701278Y-12479462D01*
X2679557Y-12700000D01*
X250000Y-12700000D01*
X250000Y-10160000D01*
X2679557Y-10160000D01*
X2701278Y-10380538D01*
X2765607Y-10592602D01*
X2870071Y-10788040D01*
X3010656Y-10959344D01*
X3181960Y-11099929D01*
X3377398Y-11204393D01*
X3589462Y-11268722D01*
X3754736Y-11285000D01*
X3865264Y-11285000D01*
X4030538Y-11268722D01*
X4242602Y-11204393D01*
X4438040Y-11099929D01*
X4609344Y-10959344D01*
X4749929Y-10788040D01*
X4854393Y-10592602D01*
X4918722Y-10380538D01*
X4940443Y-10160000D01*
X4918722Y-9939462D01*
X4854393Y-9727398D01*
X4749929Y-9531960D01*
X4609344Y-9360656D01*
X4438040Y-9220071D01*
X4242602Y-9115607D01*
X4030538Y-9051278D01*
X3865264Y-9035000D01*
X3754736Y-9035000D01*
X3589462Y-9051278D01*
X3377398Y-9115607D01*
X3181960Y-9220071D01*
X3010656Y-9360656D01*
X2870071Y-9531960D01*
X2765607Y-9727398D01*
X2701278Y-9939462D01*
X2679557Y-10160000D01*
X250000Y-10160000D01*
X250000Y-7620000D01*
X2679557Y-7620000D01*
X2701278Y-7840538D01*
X2765607Y-8052602D01*
X2870071Y-8248040D01*
X3010656Y-8419344D01*
X3181960Y-8559929D01*
X3377398Y-8664393D01*
X3589462Y-8728722D01*
X3754736Y-8745000D01*
X3865264Y-8745000D01*
X4030538Y-8728722D01*
X4242602Y-8664393D01*
X4438040Y-8559929D01*
X4548837Y-8469000D01*
X10151622Y-8469000D01*
X10181066Y-8767952D01*
X10268267Y-9055416D01*
X10409874Y-9320344D01*
X10600445Y-9552555D01*
X10832656Y-9743126D01*
X11097584Y-9884733D01*
X11385048Y-9971934D01*
X11609089Y-9994000D01*
X29284911Y-9994000D01*
X29508952Y-9971934D01*
X29796416Y-9884733D01*
X30061344Y-9743126D01*
X30293555Y-9552555D01*
X30484126Y-9320344D01*
X30625733Y-9055416D01*
X30712934Y-8767952D01*
X30742378Y-8469000D01*
X30712934Y-8170048D01*
X30625733Y-7882584D01*
X30484126Y-7617656D01*
X30293555Y-7385445D01*
X30061344Y-7194874D01*
X29796416Y-7053267D01*
X29716285Y-7028960D01*
X29767602Y-7013393D01*
X29963040Y-6908929D01*
X30134344Y-6768344D01*
X30274929Y-6597040D01*
X30379393Y-6401602D01*
X30443722Y-6189538D01*
X30465443Y-5969000D01*
X30443722Y-5748462D01*
X30379393Y-5536398D01*
X30274929Y-5340960D01*
X30134344Y-5169656D01*
X29963040Y-5029071D01*
X29767602Y-4924607D01*
X29555538Y-4860278D01*
X29390264Y-4844000D01*
X29029736Y-4844000D01*
X28864462Y-4860278D01*
X28652398Y-4924607D01*
X28456960Y-5029071D01*
X28285656Y-5169656D01*
X28145071Y-5340960D01*
X28040607Y-5536398D01*
X27976278Y-5748462D01*
X27954557Y-5969000D01*
X27976278Y-6189538D01*
X28040607Y-6401602D01*
X28145071Y-6597040D01*
X28285656Y-6768344D01*
X28456960Y-6908929D01*
X28522573Y-6944000D01*
X24055427Y-6944000D01*
X24121040Y-6908929D01*
X24292344Y-6768344D01*
X24432929Y-6597040D01*
X24537393Y-6401602D01*
X24601722Y-6189538D01*
X24623443Y-5969000D01*
X24601722Y-5748462D01*
X24537393Y-5536398D01*
X24432929Y-5340960D01*
X24292344Y-5169656D01*
X24121040Y-5029071D01*
X23925602Y-4924607D01*
X23713538Y-4860278D01*
X23548264Y-4844000D01*
X23187736Y-4844000D01*
X23022462Y-4860278D01*
X22810398Y-4924607D01*
X22614960Y-5029071D01*
X22443656Y-5169656D01*
X22303071Y-5340960D01*
X22198607Y-5536398D01*
X22134278Y-5748462D01*
X22112557Y-5969000D01*
X22134278Y-6189538D01*
X22198607Y-6401602D01*
X22303071Y-6597040D01*
X22443656Y-6768344D01*
X22614960Y-6908929D01*
X22680573Y-6944000D01*
X18213427Y-6944000D01*
X18279040Y-6908929D01*
X18450344Y-6768344D01*
X18590929Y-6597040D01*
X18695393Y-6401602D01*
X18759722Y-6189538D01*
X18781443Y-5969000D01*
X18759722Y-5748462D01*
X18695393Y-5536398D01*
X18590929Y-5340960D01*
X18450344Y-5169656D01*
X18279040Y-5029071D01*
X18083602Y-4924607D01*
X17871538Y-4860278D01*
X17706264Y-4844000D01*
X17345736Y-4844000D01*
X17180462Y-4860278D01*
X16968398Y-4924607D01*
X16772960Y-5029071D01*
X16601656Y-5169656D01*
X16461071Y-5340960D01*
X16356607Y-5536398D01*
X16292278Y-5748462D01*
X16270557Y-5969000D01*
X16292278Y-6189538D01*
X16356607Y-6401602D01*
X16461071Y-6597040D01*
X16601656Y-6768344D01*
X16772960Y-6908929D01*
X16838573Y-6944000D01*
X12371427Y-6944000D01*
X12437040Y-6908929D01*
X12608344Y-6768344D01*
X12748929Y-6597040D01*
X12853393Y-6401602D01*
X12917722Y-6189538D01*
X12939443Y-5969000D01*
X12917722Y-5748462D01*
X12853393Y-5536398D01*
X12748929Y-5340960D01*
X12608344Y-5169656D01*
X12437040Y-5029071D01*
X12241602Y-4924607D01*
X12029538Y-4860278D01*
X11864264Y-4844000D01*
X11503736Y-4844000D01*
X11338462Y-4860278D01*
X11126398Y-4924607D01*
X10930960Y-5029071D01*
X10759656Y-5169656D01*
X10619071Y-5340960D01*
X10514607Y-5536398D01*
X10450278Y-5748462D01*
X10428557Y-5969000D01*
X10450278Y-6189538D01*
X10514607Y-6401602D01*
X10619071Y-6597040D01*
X10759656Y-6768344D01*
X10930960Y-6908929D01*
X11126398Y-7013393D01*
X11177715Y-7028960D01*
X11097584Y-7053267D01*
X10832656Y-7194874D01*
X10600445Y-7385445D01*
X10409874Y-7617656D01*
X10268267Y-7882584D01*
X10181066Y-8170048D01*
X10151622Y-8469000D01*
X4548837Y-8469000D01*
X4609344Y-8419344D01*
X4749929Y-8248040D01*
X4854393Y-8052602D01*
X4918722Y-7840538D01*
X4940443Y-7620000D01*
X4918722Y-7399462D01*
X4854393Y-7187398D01*
X4749929Y-6991960D01*
X4609344Y-6820656D01*
X4438040Y-6680071D01*
X4242602Y-6575607D01*
X4030538Y-6511278D01*
X3865264Y-6495000D01*
X3754736Y-6495000D01*
X3589462Y-6511278D01*
X3377398Y-6575607D01*
X3181960Y-6680071D01*
X3010656Y-6820656D01*
X2870071Y-6991960D01*
X2765607Y-7187398D01*
X2701278Y-7399462D01*
X2679557Y-7620000D01*
X250000Y-7620000D01*
X250000Y-6647275D01*
X251209Y-6635000D01*
X246382Y-6585992D01*
X232087Y-6538866D01*
X208873Y-6495436D01*
X177632Y-6457368D01*
X139564Y-6426127D01*
X96134Y-6402913D01*
X49008Y-6388618D01*
X12275Y-6385000D01*
X0Y-6383791D01*
X-12275Y-6385000D01*
X-2987771Y-6385000D01*
X-3533912Y-6331450D01*
X-4047487Y-6176393D01*
X-4521163Y-5924535D01*
X-4936900Y-5585469D01*
X-5278860Y-5172111D01*
X-5534017Y-4700206D01*
X-5692659Y-4187719D01*
X-5748735Y-3654192D01*
X-5731079Y-3460178D01*
X-4775000Y-3460178D01*
X-4775000Y-3809822D01*
X-4706787Y-4152748D01*
X-4572984Y-4475778D01*
X-4378732Y-4766496D01*
X-4131496Y-5013732D01*
X-3840778Y-5207984D01*
X-3517748Y-5341787D01*
X-3174822Y-5410000D01*
X-2825178Y-5410000D01*
X-2482252Y-5341787D01*
X-2159222Y-5207984D01*
X-1967681Y-5080000D01*
X2679557Y-5080000D01*
X2701278Y-5300538D01*
X2765607Y-5512602D01*
X2870071Y-5708040D01*
X3010656Y-5879344D01*
X3181960Y-6019929D01*
X3377398Y-6124393D01*
X3589462Y-6188722D01*
X3754736Y-6205000D01*
X3865264Y-6205000D01*
X4030538Y-6188722D01*
X4242602Y-6124393D01*
X4438040Y-6019929D01*
X4609344Y-5879344D01*
X4749929Y-5708040D01*
X4854393Y-5512602D01*
X4918722Y-5300538D01*
X4940443Y-5080000D01*
X4918722Y-4859462D01*
X4854393Y-4647398D01*
X4749929Y-4451960D01*
X4609344Y-4280656D01*
X4438040Y-4140071D01*
X4242602Y-4035607D01*
X4030538Y-3971278D01*
X3865264Y-3955000D01*
X3754736Y-3955000D01*
X3589462Y-3971278D01*
X3377398Y-4035607D01*
X3181960Y-4140071D01*
X3010656Y-4280656D01*
X2870071Y-4451960D01*
X2765607Y-4647398D01*
X2701278Y-4859462D01*
X2679557Y-5080000D01*
X-1967681Y-5080000D01*
X-1868504Y-5013732D01*
X-1621268Y-4766496D01*
X-1427016Y-4475778D01*
X-1293213Y-4152748D01*
X-1225000Y-3809822D01*
X-1225000Y-3460178D01*
X-1293213Y-3117252D01*
X-1427016Y-2794222D01*
X-1621268Y-2503504D01*
X-1868504Y-2256268D01*
X-2159222Y-2062016D01*
X-2482252Y-1928213D01*
X-2825178Y-1860000D01*
X-3174822Y-1860000D01*
X-3517748Y-1928213D01*
X-3840778Y-2062016D01*
X-4131496Y-2256268D01*
X-4378732Y-2503504D01*
X-4572984Y-2794222D01*
X-4706787Y-3117252D01*
X-4775000Y-3460178D01*
X-5731079Y-3460178D01*
X-5700113Y-3119928D01*
X-5548644Y-2605279D01*
X-5300098Y-2129855D01*
X-4963945Y-1711766D01*
X-4938006Y-1690000D01*
X2683670Y-1690000D01*
X2683670Y-3390000D01*
X2688980Y-3443909D01*
X2704704Y-3495747D01*
X2730240Y-3543521D01*
X2764605Y-3585395D01*
X2806479Y-3619760D01*
X2854253Y-3645296D01*
X2906091Y-3661020D01*
X2960000Y-3666330D01*
X4660000Y-3666330D01*
X4713909Y-3661020D01*
X4765747Y-3645296D01*
X4813521Y-3619760D01*
X4855395Y-3585395D01*
X4889760Y-3543521D01*
X4915296Y-3495747D01*
X4926085Y-3460178D01*
X39325000Y-3460178D01*
X39325000Y-3809822D01*
X39393213Y-4152748D01*
X39527016Y-4475778D01*
X39721268Y-4766496D01*
X39968504Y-5013732D01*
X40259222Y-5207984D01*
X40582252Y-5341787D01*
X40925178Y-5410000D01*
X41274822Y-5410000D01*
X41617748Y-5341787D01*
X41940778Y-5207984D01*
X42231496Y-5013732D01*
X42478732Y-4766496D01*
X42672984Y-4475778D01*
X42806787Y-4152748D01*
X42875000Y-3809822D01*
X42875000Y-3460178D01*
X42806787Y-3117252D01*
X42672984Y-2794222D01*
X42478732Y-2503504D01*
X42231496Y-2256268D01*
X41940778Y-2062016D01*
X41617748Y-1928213D01*
X41274822Y-1860000D01*
X40925178Y-1860000D01*
X40582252Y-1928213D01*
X40259222Y-2062016D01*
X39968504Y-2256268D01*
X39721268Y-2503504D01*
X39527016Y-2794222D01*
X39393213Y-3117252D01*
X39325000Y-3460178D01*
X4926085Y-3460178D01*
X4931020Y-3443909D01*
X4936330Y-3390000D01*
X4936330Y-1690000D01*
X4931020Y-1636091D01*
X4915296Y-1584253D01*
X4889760Y-1536479D01*
X4855395Y-1494605D01*
X4813521Y-1460240D01*
X4765747Y-1434704D01*
X4713909Y-1418980D01*
X4660000Y-1413670D01*
X2960000Y-1413670D01*
X2906091Y-1418980D01*
X2854253Y-1434704D01*
X2806479Y-1460240D01*
X2764605Y-1494605D01*
X2730240Y-1536479D01*
X2704704Y-1584253D01*
X2688980Y-1636091D01*
X2683670Y-1690000D01*
X-4938006Y-1690000D01*
X-4552984Y-1366929D01*
X-4082870Y-1108481D01*
X-3571505Y-946266D01*
X-3027042Y-885195D01*
X-2999118Y-885000D01*
X41087771Y-885000D01*
X41633912Y-938550D01*
M02*
